<svg xmlns="http://www.w3.org/2000/svg" width="556" height="229.895" viewBox="0 0 556 229.895">
  <g id="Grupo_167899" data-name="Grupo 167899" transform="translate(-810 -6506)">
    <path id="Trazado_688282" data-name="Trazado 688282" d="M-10011.473-8631.954H-9483.5" transform="translate(10834.7 15243.54)" fill="none" stroke="#4fafd5" stroke-width="3"/>
    <path id="Trazado_688287" data-name="Trazado 688287" d="M-10022.729-8631.3l48.775-48.952" transform="translate(10918.449 15243.54)" fill="none" stroke="#4fafd5" stroke-width="3"/>
    <path id="Trazado_688346" data-name="Trazado 688346" d="M-10022.729-8631.3l62.309-29.318" transform="translate(10967.225 15197.535)" fill="none" stroke="#4fafd5" stroke-width="3"/>
    <path id="Trazado_688339" data-name="Trazado 688339" d="M-10022.729-8631.3l75-70.48" transform="translate(11066.229 15243.54)" fill="none" stroke="#4fafd5" stroke-width="3"/>
    <path id="Trazado_688343" data-name="Trazado 688343" d="M-10022.729-8631.3l21.019-56.826" transform="translate(11287.229 15243.777)" fill="none" stroke="#4fafd5" stroke-width="3"/>
    <path id="Trazado_688345" data-name="Trazado 688345" d="M-9989.587-8622.709l46-33.931" transform="translate(11274.949 15178.297)" fill="none" stroke="#4fafd5" stroke-width="3"/>
    <g id="Rectángulo_342087" data-name="Rectángulo 342087" transform="translate(810 6597)" fill="#f1bf5e" stroke="#4fafd5" stroke-width="3">
      <rect width="30" height="30" stroke="none"/>
      <rect x="1.5" y="1.5" width="27" height="27" fill="none"/>
    </g>
    <g id="Elipse_4839" data-name="Elipse 4839" transform="translate(881 6597)" fill="#f1bf5e" stroke="#4fafd5" stroke-width="3">
      <circle cx="15" cy="15" r="15" stroke="none"/>
      <circle cx="15" cy="15" r="13.5" fill="none"/>
    </g>
    <g id="Elipse_4842" data-name="Elipse 4842" transform="translate(929 6549)" fill="#f1bf5e" stroke="#4fafd5" stroke-width="3">
      <circle cx="15" cy="15" r="15" stroke="none"/>
      <circle cx="15" cy="15" r="13.5" fill="none"/>
    </g>
    <g id="Elipse_4888" data-name="Elipse 4888" transform="translate(992 6522)" fill="#f1bf5e" stroke="#4fafd5" stroke-width="3">
      <circle cx="15" cy="15" r="15" stroke="none"/>
      <circle cx="15" cy="15" r="13.5" fill="none"/>
    </g>
    <g id="Elipse_4880" data-name="Elipse 4880" transform="translate(1103.779 6527)" fill="#f1bf5e" stroke="#4fafd5" stroke-width="3">
      <circle cx="15" cy="15" r="15" stroke="none"/>
      <circle cx="15" cy="15" r="13.5" fill="none"/>
    </g>
    <g id="Elipse_4883" data-name="Elipse 4883" transform="translate(1270.5 6540.5)" fill="#f1bf5e" stroke="#4fafd5" stroke-width="3">
      <circle cx="15" cy="15" r="15" stroke="none"/>
      <circle cx="15" cy="15" r="13.5" fill="none"/>
    </g>
    <path id="Trazado_688334" data-name="Trazado 688334" d="M-10022.729-8701.777l75,70.48" transform="translate(10918.449 15313.777)" fill="none" stroke="#4fafd5" stroke-width="3"/>
    <path id="Trazado_688340" data-name="Trazado 688340" d="M-10022.729-8701.777l75,70.48" transform="translate(11066.229 15313.777)" fill="none" stroke="#4fafd5" stroke-width="3"/>
    <path id="Trazado_688348" data-name="Trazado 688348" d="M-10022.729-8701.777l33.583,38.328" transform="translate(11141.508 15383.777)" fill="none" stroke="#4fafd5" stroke-width="3"/>
    <path id="Trazado_688347" data-name="Trazado 688347" d="M-10022.729-8701.777l52.036-9.947" transform="translate(11141.508 15383.777)" fill="none" stroke="#4fafd5" stroke-width="3"/>
    <g id="Elipse_4841" data-name="Elipse 4841" transform="translate(881 6597)" fill="#f1bf5e" stroke="#4fafd5" stroke-width="3">
      <ellipse cx="14.5" cy="15" rx="14.5" ry="15" stroke="none"/>
      <ellipse cx="14.5" cy="15" rx="13" ry="13.5" fill="none"/>
    </g>
    <g id="Elipse_4885" data-name="Elipse 4885" transform="translate(956 6597)" fill="#f1bf5e" stroke="#4fafd5" stroke-width="3">
      <ellipse cx="14.5" cy="15" rx="14.5" ry="15" stroke="none"/>
      <ellipse cx="14.5" cy="15" rx="13" ry="13.5" fill="none"/>
    </g>
    <g id="Elipse_4886" data-name="Elipse 4886" transform="translate(1104 6597)" fill="#f1bf5e" stroke="#4fafd5" stroke-width="3">
      <ellipse cx="14.5" cy="15" rx="14.5" ry="15" stroke="none"/>
      <ellipse cx="14.5" cy="15" rx="13" ry="13.5" fill="none"/>
    </g>
    <g id="Elipse_4893" data-name="Elipse 4893" transform="translate(1250 6597)" fill="#f1bf5e" stroke="#4fafd5" stroke-width="3">
      <ellipse cx="14.5" cy="15" rx="14.5" ry="15" stroke="none"/>
      <ellipse cx="14.5" cy="15" rx="13" ry="13.5" fill="none"/>
    </g>
    <g id="Elipse_4887" data-name="Elipse 4887" transform="translate(1317 6506)" fill="#f1bf5e" stroke="#4fafd5" stroke-width="3">
      <ellipse cx="14.5" cy="15" rx="14.5" ry="15" stroke="none"/>
      <ellipse cx="14.5" cy="15" rx="13" ry="13.5" fill="none"/>
    </g>
    <g id="Elipse_4846" data-name="Elipse 4846" transform="translate(920 6632)" fill="#f1bf5e" stroke="#4fafd5" stroke-width="3">
      <circle cx="15" cy="15" r="15" stroke="none"/>
      <circle cx="15" cy="15" r="13.5" fill="none"/>
    </g>
    <g id="Elipse_4889" data-name="Elipse 4889" transform="translate(956 6667)" fill="#f1bf5e" stroke="#4fafd5" stroke-width="3">
      <circle cx="15" cy="15" r="15" stroke="none"/>
      <circle cx="15" cy="15" r="13.5" fill="none"/>
    </g>
    <g id="Elipse_4881" data-name="Elipse 4881" transform="translate(1103.779 6667)" fill="#f1bf5e" stroke="#4fafd5" stroke-width="3">
      <circle cx="15" cy="15" r="15" stroke="none"/>
      <circle cx="15" cy="15" r="13.5" fill="none"/>
    </g>
    <g id="Elipse_4891" data-name="Elipse 4891" transform="translate(1156.221 6657.5)" fill="#f1bf5e" stroke="#4fafd5" stroke-width="3">
      <circle cx="15" cy="15" r="15" stroke="none"/>
      <circle cx="15" cy="15" r="13.5" fill="none"/>
    </g>
    <g id="Elipse_4892" data-name="Elipse 4892" transform="translate(1137.779 6705.895)" fill="#f1bf5e" stroke="#4fafd5" stroke-width="3">
      <circle cx="15" cy="15" r="15" stroke="none"/>
      <circle cx="15" cy="15" r="13.5" fill="none"/>
    </g>
    <g id="Elipse_4890" data-name="Elipse 4890" transform="translate(1065.999 6632.24)" fill="#f1bf5e" stroke="#4fafd5" stroke-width="3">
      <circle cx="15" cy="15" r="15" stroke="none"/>
      <circle cx="15" cy="15" r="13.5" fill="none"/>
    </g>
    <g id="Elipse_4843" data-name="Elipse 4843" transform="translate(1029 6597)" fill="#f1bf5e" stroke="#4fafd5" stroke-width="3">
      <ellipse cx="14.5" cy="15" rx="14.5" ry="15" stroke="none"/>
      <ellipse cx="14.5" cy="15" rx="13" ry="13.5" fill="none"/>
    </g>
    <g id="Elipse_4879" data-name="Elipse 4879" transform="translate(1176.779 6597)" fill="#f1bf5e" stroke="#4fafd5" stroke-width="3">
      <ellipse cx="14.5" cy="15" rx="14.5" ry="15" stroke="none"/>
      <ellipse cx="14.5" cy="15" rx="13" ry="13.5" fill="none"/>
    </g>
    <g id="Polígono_5" data-name="Polígono 5" transform="translate(1331 6597)" fill="#f1bf5e">
      <path d="M 32.3884391784668 28.5 L 2.611559152603149 28.5 L 17.5 2.976958513259888 L 32.3884391784668 28.5 Z" stroke="none"/>
      <path d="M 17.5 5.953907012939453 L 5.223112106323242 27 L 29.77688789367676 27 L 17.5 5.953907012939453 M 17.5 0 L 35 30 L 0 30 L 17.5 0 Z" stroke="none" fill="#4fafd5"/>
    </g>
  </g>
</svg>
