<svg xmlns="http://www.w3.org/2000/svg" width="556" height="170" viewBox="0 0 556 170">
  <g id="Grupo_167896" data-name="Grupo 167896" transform="translate(-810 -5905)">
    <path id="Trazado_688282" data-name="Trazado 688282" d="M-10011.473-8631.954H-9483.5" transform="translate(10834.7 14621.54)" fill="none" stroke="#4fafd5" stroke-width="3"/>
    <path id="Trazado_688287" data-name="Trazado 688287" d="M-10022.729-8631.3l75-70.48" transform="translate(10918.449 14621.54)" fill="none" stroke="#4fafd5" stroke-width="3"/>
    <path id="Trazado_688339" data-name="Trazado 688339" d="M-10022.729-8631.3l75-70.48" transform="translate(11066.229 14621.54)" fill="none" stroke="#4fafd5" stroke-width="3"/>
    <path id="Trazado_688343" data-name="Trazado 688343" d="M-10022.729-8631.3l75-70.48" transform="translate(11208.949 14621.54)" fill="none" stroke="#4fafd5" stroke-width="3"/>
    <path id="Trazado_688335" data-name="Trazado 688335" d="M-9947.73-8631.3l-75-70.48" transform="translate(10992.449 14621.54)" fill="none" stroke="#4fafd5" stroke-width="3"/>
    <path id="Trazado_688337" data-name="Trazado 688337" d="M-9947.73-8631.3l-75-70.48" transform="translate(11140.229 14621.54)" fill="none" stroke="#4fafd5" stroke-width="3"/>
    <path id="Trazado_688341" data-name="Trazado 688341" d="M-9934.449-8631.3l-88.279-70.48" transform="translate(11282.949 14621.54)" fill="none" stroke="#4fafd5" stroke-width="3"/>
    <g id="Rectángulo_342087" data-name="Rectángulo 342087" transform="translate(810 5975)" fill="#f1bf5e" stroke="#4fafd5" stroke-width="3">
      <rect width="30" height="30" stroke="none"/>
      <rect x="1.5" y="1.5" width="27" height="27" fill="none"/>
    </g>
    <g id="Elipse_4839" data-name="Elipse 4839" transform="translate(881 5975)" fill="#f1bf5e" stroke="#4fafd5" stroke-width="3">
      <circle cx="15" cy="15" r="15" stroke="none"/>
      <circle cx="15" cy="15" r="13.5" fill="none"/>
    </g>
    <g id="Elipse_4842" data-name="Elipse 4842" transform="translate(956 5905)" fill="#f1bf5e" stroke="#4fafd5" stroke-width="3">
      <circle cx="15" cy="15" r="15" stroke="none"/>
      <circle cx="15" cy="15" r="13.5" fill="none"/>
    </g>
    <g id="Elipse_4880" data-name="Elipse 4880" transform="translate(1103.779 5905)" fill="#f1bf5e" stroke="#4fafd5" stroke-width="3">
      <circle cx="15" cy="15" r="15" stroke="none"/>
      <circle cx="15" cy="15" r="13.5" fill="none"/>
    </g>
    <g id="Elipse_4883" data-name="Elipse 4883" transform="translate(1246.5 5905)" fill="#f1bf5e" stroke="#4fafd5" stroke-width="3">
      <circle cx="15" cy="15" r="15" stroke="none"/>
      <circle cx="15" cy="15" r="13.5" fill="none"/>
    </g>
    <path id="Trazado_688334" data-name="Trazado 688334" d="M-10022.729-8701.777l75,70.48" transform="translate(10918.449 14691.777)" fill="none" stroke="#4fafd5" stroke-width="3"/>
    <path id="Trazado_688340" data-name="Trazado 688340" d="M-10022.729-8701.777l75,70.48" transform="translate(11066.229 14691.777)" fill="none" stroke="#4fafd5" stroke-width="3"/>
    <path id="Trazado_688344" data-name="Trazado 688344" d="M-10022.729-8701.777l75,70.48" transform="translate(11208.949 14691.777)" fill="none" stroke="#4fafd5" stroke-width="3"/>
    <path id="Trazado_688336" data-name="Trazado 688336" d="M-9947.73-8701.777l-75,70.48" transform="translate(10992.449 14691.777)" fill="none" stroke="#4fafd5" stroke-width="3"/>
    <path id="Trazado_688338" data-name="Trazado 688338" d="M-9947.73-8701.777l-75,70.48" transform="translate(11140.229 14691.777)" fill="none" stroke="#4fafd5" stroke-width="3"/>
    <path id="Trazado_688342" data-name="Trazado 688342" d="M-9934.449-8701.777l-88.279,70.48" transform="translate(11282.949 14691.777)" fill="none" stroke="#4fafd5" stroke-width="3"/>
    <g id="Elipse_4841" data-name="Elipse 4841" transform="translate(881 5975)" fill="#f1bf5e" stroke="#4fafd5" stroke-width="3">
      <ellipse cx="14.5" cy="15" rx="14.5" ry="15" stroke="none"/>
      <ellipse cx="14.5" cy="15" rx="13" ry="13.5" fill="none"/>
    </g>
    <g id="Elipse_4885" data-name="Elipse 4885" transform="translate(956 5975)" fill="#f1bf5e" stroke="#4fafd5" stroke-width="3">
      <ellipse cx="14.5" cy="15" rx="14.5" ry="15" stroke="none"/>
      <ellipse cx="14.5" cy="15" rx="13" ry="13.5" fill="none"/>
    </g>
    <g id="Elipse_4886" data-name="Elipse 4886" transform="translate(1104 5975)" fill="#f1bf5e" stroke="#4fafd5" stroke-width="3">
      <ellipse cx="14.5" cy="15" rx="14.5" ry="15" stroke="none"/>
      <ellipse cx="14.5" cy="15" rx="13" ry="13.5" fill="none"/>
    </g>
    <g id="Elipse_4887" data-name="Elipse 4887" transform="translate(1246 5975)" fill="#f1bf5e" stroke="#4fafd5" stroke-width="3">
      <ellipse cx="14.5" cy="15" rx="14.5" ry="15" stroke="none"/>
      <ellipse cx="14.5" cy="15" rx="13" ry="13.5" fill="none"/>
    </g>
    <g id="Elipse_4846" data-name="Elipse 4846" transform="translate(956 6045)" fill="#f1bf5e" stroke="#4fafd5" stroke-width="3">
      <circle cx="15" cy="15" r="15" stroke="none"/>
      <circle cx="15" cy="15" r="13.5" fill="none"/>
    </g>
    <g id="Elipse_4881" data-name="Elipse 4881" transform="translate(1103.779 6045)" fill="#f1bf5e" stroke="#4fafd5" stroke-width="3">
      <circle cx="15" cy="15" r="15" stroke="none"/>
      <circle cx="15" cy="15" r="13.5" fill="none"/>
    </g>
    <g id="Elipse_4884" data-name="Elipse 4884" transform="translate(1246.5 6045)" fill="#f1bf5e" stroke="#4fafd5" stroke-width="3">
      <circle cx="15" cy="15" r="15" stroke="none"/>
      <circle cx="15" cy="15" r="13.5" fill="none"/>
    </g>
    <g id="Elipse_4843" data-name="Elipse 4843" transform="translate(1029 5975)" fill="#f1bf5e" stroke="#4fafd5" stroke-width="3">
      <ellipse cx="14.5" cy="15" rx="14.5" ry="15" stroke="none"/>
      <ellipse cx="14.5" cy="15" rx="13" ry="13.5" fill="none"/>
    </g>
    <g id="Elipse_4879" data-name="Elipse 4879" transform="translate(1176.779 5975)" fill="#f1bf5e" stroke="#4fafd5" stroke-width="3">
      <ellipse cx="14.5" cy="15" rx="14.5" ry="15" stroke="none"/>
      <ellipse cx="14.5" cy="15" rx="13" ry="13.5" fill="none"/>
    </g>
    <g id="Polígono_5" data-name="Polígono 5" transform="translate(1331 5975)" fill="#f1bf5e">
      <path d="M 32.3884391784668 28.5 L 2.611559152603149 28.5 L 17.5 2.976958513259888 L 32.3884391784668 28.5 Z" stroke="none"/>
      <path d="M 17.5 5.953907012939453 L 5.223112106323242 27 L 29.77688789367676 27 L 17.5 5.953907012939453 M 17.5 0 L 35 30 L 0 30 L 17.5 0 Z" stroke="none" fill="#4fafd5"/>
    </g>
  </g>
</svg>
