<svg xmlns="http://www.w3.org/2000/svg" width="556" height="402" viewBox="0 0 556 402">
  <g id="Grupo_167894" data-name="Grupo 167894" transform="translate(-810 -5239)">
    <path id="Trazado_688282" data-name="Trazado 688282" d="M-10011.475-8631.954H-9790.7" transform="translate(10834.7 14071.54)" fill="none" stroke="#4fafd5" stroke-width="3"/>
    <path id="Trazado_688296" data-name="Trazado 688296" d="M-10011.475-8631.954h74" transform="translate(10981.475 13961.312)" fill="none" stroke="#4fafd5" stroke-width="3"/>
    <path id="Trazado_688322" data-name="Trazado 688322" d="M-10011.476-8631.954h84.786" transform="translate(11276.475 13885.869)" fill="none" stroke="#4fafd5" stroke-width="3"/>
    <path id="Trazado_688323" data-name="Trazado 688323" d="M-10011.476-8631.954h84.786" transform="translate(11276.475 13920.954)" fill="none" stroke="#4fafd5" stroke-width="3"/>
    <path id="Trazado_688324" data-name="Trazado 688324" d="M-10011.476-8631.954h84.786" transform="translate(11276.475 13953.932)" fill="none" stroke="#4fafd5" stroke-width="3"/>
    <path id="Trazado_688325" data-name="Trazado 688325" d="M-10011.476-8631.954h84.786" transform="translate(11276.475 13987.954)" fill="none" stroke="#4fafd5" stroke-width="3"/>
    <path id="Trazado_688326" data-name="Trazado 688326" d="M-10011.476-8631.954h84.786" transform="translate(11276.475 14021.954)" fill="none" stroke="#4fafd5" stroke-width="3"/>
    <path id="Trazado_688327" data-name="Trazado 688327" d="M-10011.476-8631.954h84.786" transform="translate(11276.475 14054.613)" fill="none" stroke="#4fafd5" stroke-width="3"/>
    <path id="Trazado_688328" data-name="Trazado 688328" d="M-10011.476-8631.954h84.786" transform="translate(11276.475 14088.954)" fill="none" stroke="#4fafd5" stroke-width="3"/>
    <path id="Trazado_688329" data-name="Trazado 688329" d="M-10011.476-8631.954h84.786" transform="translate(11276.475 14122.954)" fill="none" stroke="#4fafd5" stroke-width="3"/>
    <path id="Trazado_688330" data-name="Trazado 688330" d="M-10011.476-8631.954h84.786" transform="translate(11276.475 14156.954)" fill="none" stroke="#4fafd5" stroke-width="3"/>
    <path id="Trazado_688331" data-name="Trazado 688331" d="M-10011.476-8631.954h84.786" transform="translate(11276.475 14190.954)" fill="none" stroke="#4fafd5" stroke-width="3"/>
    <path id="Trazado_688332" data-name="Trazado 688332" d="M-10011.476-8631.954h84.786" transform="translate(11276.475 14223.954)" fill="none" stroke="#4fafd5" stroke-width="3"/>
    <path id="Trazado_688333" data-name="Trazado 688333" d="M-10011.476-8631.954h84.786" transform="translate(11276.475 14259.326)" fill="none" stroke="#4fafd5" stroke-width="3"/>
    <path id="Trazado_688304" data-name="Trazado 688304" d="M-10011.475-8631.954h74" transform="translate(11138.474 13938.954)" fill="none" stroke="#4fafd5" stroke-width="3"/>
    <path id="Trazado_688310" data-name="Trazado 688310" d="M-10011.475-8631.954l58.822-54.085" transform="translate(11212.474 13939.954)" fill="none" stroke="#4fafd5" stroke-width="3"/>
    <path id="Trazado_688312" data-name="Trazado 688312" d="M-10013.48-8631.114l58.924-30.862" transform="translate(11214.474 13983.954)" fill="none" stroke="#4fafd5" stroke-width="3"/>
    <path id="Trazado_688314" data-name="Trazado 688314" d="M-10013.48-8631.114l59.046-28.33" transform="translate(11214.474 14049.114)" fill="none" stroke="#4fafd5" stroke-width="3"/>
    <path id="Trazado_688305" data-name="Trazado 688305" d="M-10011.475-8631.954h74" transform="translate(11138.474 13983.954)" fill="none" stroke="#4fafd5" stroke-width="3"/>
    <path id="Trazado_688306" data-name="Trazado 688306" d="M-10011.475-8631.954h74" transform="translate(11138.474 14049.954)" fill="none" stroke="#4fafd5" stroke-width="3"/>
    <path id="Trazado_688307" data-name="Trazado 688307" d="M-10011.475-8631.954h74" transform="translate(11138.474 14094.954)" fill="none" stroke="#4fafd5" stroke-width="3"/>
    <path id="Trazado_688308" data-name="Trazado 688308" d="M-10011.475-8631.954h74" transform="translate(11138.474 14159.954)" fill="none" stroke="#4fafd5" stroke-width="3"/>
    <path id="Trazado_688309" data-name="Trazado 688309" d="M-10011.475-8631.954h74" transform="translate(11138.474 14203.954)" fill="none" stroke="#4fafd5" stroke-width="3"/>
    <path id="Trazado_688298" data-name="Trazado 688298" d="M-10011.475-8631.954l79.866-21.833" transform="translate(11055.475 13961.312)" fill="none" stroke="#4fafd5" stroke-width="3"/>
    <path id="Trazado_688301" data-name="Trazado 688301" d="M-10011.475-8631.954l79.866-21.833" transform="translate(11055.475 14071.219)" fill="none" stroke="#4fafd5" stroke-width="3"/>
    <path id="Trazado_688303" data-name="Trazado 688303" d="M-10011.475-8631.954l79.866-21.833" transform="translate(11055.475 14181.447)" fill="none" stroke="#4fafd5" stroke-width="3"/>
    <path id="Trazado_688299" data-name="Trazado 688299" d="M-10011.475-8653.788l79.866,21.833" transform="translate(11055.475 13983.788)" fill="none" stroke="#4fafd5" stroke-width="3"/>
    <path id="Trazado_688300" data-name="Trazado 688300" d="M-10011.475-8653.788l79.866,21.833" transform="translate(11055.475 14093.695)" fill="none" stroke="#4fafd5" stroke-width="3"/>
    <path id="Trazado_688302" data-name="Trazado 688302" d="M-10011.475-8653.788l79.866,21.833" transform="translate(11055.475 14203.924)" fill="none" stroke="#4fafd5" stroke-width="3"/>
    <path id="Trazado_688297" data-name="Trazado 688297" d="M-10011.475-8631.954h74" transform="translate(10981.475 14181.54)" fill="none" stroke="#4fafd5" stroke-width="3"/>
    <path id="Trazado_688284" data-name="Trazado 688284" d="M-9949.1-8610.988l-73.848-110.229" transform="translate(10918.948 14160.803)" fill="none" stroke="#4fafd5" stroke-width="3"/>
    <path id="Trazado_688295" data-name="Trazado 688295" d="M-9949.1-8721.217l-73.848,110.229" transform="translate(10918.948 14050.574)" fill="none" stroke="#4fafd5" stroke-width="3"/>
    <g id="Rectángulo_342087" data-name="Rectángulo 342087" transform="translate(810 5425)" fill="#f1bf5e" stroke="#4fafd5" stroke-width="3">
      <rect width="30" height="30" stroke="none"/>
      <rect x="1.5" y="1.5" width="27" height="27" fill="none"/>
    </g>
    <g id="Elipse_4839" data-name="Elipse 4839" transform="translate(881 5425)" fill="#f1bf5e" stroke="#4fafd5" stroke-width="3">
      <circle cx="15" cy="15" r="15" stroke="none"/>
      <circle cx="15" cy="15" r="13.5" fill="none"/>
    </g>
    <g id="Elipse_4845" data-name="Elipse 4845" transform="translate(955 5315)" fill="#f1bf5e" stroke="#4fafd5" stroke-width="3">
      <circle cx="15" cy="15" r="15" stroke="none"/>
      <circle cx="15" cy="15" r="13.5" fill="none"/>
    </g>
    <g id="Elipse_4851" data-name="Elipse 4851" transform="translate(1029 5315)" fill="#f1bf5e" stroke="#4fafd5" stroke-width="3">
      <circle cx="15" cy="15" r="15" stroke="none"/>
      <circle cx="15" cy="15" r="13.5" fill="none"/>
    </g>
    <g id="Elipse_4852" data-name="Elipse 4852" transform="translate(1109 5293)" fill="#f1bf5e" stroke="#4fafd5" stroke-width="3">
      <circle cx="15" cy="15" r="15" stroke="none"/>
      <circle cx="15" cy="15" r="13.5" fill="none"/>
    </g>
    <g id="Elipse_4867" data-name="Elipse 4867" transform="translate(1245 5239)" fill="#f1bf5e" stroke="#4fafd5" stroke-width="3">
      <circle cx="15" cy="15" r="15" stroke="none"/>
      <circle cx="15" cy="15" r="13.5" fill="none"/>
    </g>
    <g id="Elipse_4869" data-name="Elipse 4869" transform="translate(1245 5307)" fill="#f1bf5e" stroke="#4fafd5" stroke-width="3">
      <circle cx="15" cy="15" r="15" stroke="none"/>
      <circle cx="15" cy="15" r="13.5" fill="none"/>
    </g>
    <g id="Elipse_4871" data-name="Elipse 4871" transform="translate(1245 5375)" fill="#f1bf5e" stroke="#4fafd5" stroke-width="3">
      <circle cx="15" cy="15" r="15" stroke="none"/>
      <circle cx="15" cy="15" r="13.5" fill="none"/>
    </g>
    <g id="Elipse_4855" data-name="Elipse 4855" transform="translate(1109 5403)" fill="#f1bf5e" stroke="#4fafd5" stroke-width="3">
      <circle cx="15" cy="15" r="15" stroke="none"/>
      <circle cx="15" cy="15" r="13.5" fill="none"/>
    </g>
    <g id="Elipse_4857" data-name="Elipse 4857" transform="translate(1109 5513)" fill="#f1bf5e" stroke="#4fafd5" stroke-width="3">
      <circle cx="15" cy="15" r="15" stroke="none"/>
      <circle cx="15" cy="15" r="13.5" fill="none"/>
    </g>
    <g id="Elipse_4853" data-name="Elipse 4853" transform="translate(1109 5338)" fill="#f1bf5e" stroke="#4fafd5" stroke-width="3">
      <circle cx="15" cy="15" r="15" stroke="none"/>
      <circle cx="15" cy="15" r="13.5" fill="none"/>
    </g>
    <g id="Elipse_4854" data-name="Elipse 4854" transform="translate(1109 5448)" fill="#f1bf5e" stroke="#4fafd5" stroke-width="3">
      <circle cx="15" cy="15" r="15" stroke="none"/>
      <circle cx="15" cy="15" r="13.5" fill="none"/>
    </g>
    <g id="Elipse_4856" data-name="Elipse 4856" transform="translate(1109 5558)" fill="#f1bf5e" stroke="#4fafd5" stroke-width="3">
      <circle cx="15" cy="15" r="15" stroke="none"/>
      <circle cx="15" cy="15" r="13.5" fill="none"/>
    </g>
    <g id="Elipse_4847" data-name="Elipse 4847" transform="translate(955 5425)" fill="#f1bf5e" stroke="#4fafd5" stroke-width="3">
      <circle cx="15" cy="15" r="15" stroke="none"/>
      <circle cx="15" cy="15" r="13.5" fill="none"/>
    </g>
    <g id="Elipse_4850" data-name="Elipse 4850" transform="translate(1029 5425)" fill="#f1bf5e" stroke="#4fafd5" stroke-width="3">
      <circle cx="15" cy="15" r="15" stroke="none"/>
      <circle cx="15" cy="15" r="13.5" fill="none"/>
    </g>
    <g id="Elipse_4848" data-name="Elipse 4848" transform="translate(955 5535)" fill="#f1bf5e" stroke="#4fafd5" stroke-width="3">
      <circle cx="15" cy="15" r="15" stroke="none"/>
      <circle cx="15" cy="15" r="13.5" fill="none"/>
    </g>
    <g id="Elipse_4849" data-name="Elipse 4849" transform="translate(1029 5535)" fill="#f1bf5e" stroke="#4fafd5" stroke-width="3">
      <circle cx="15" cy="15" r="15" stroke="none"/>
      <circle cx="15" cy="15" r="13.5" fill="none"/>
    </g>
    <g id="Polígono_7" data-name="Polígono 7" transform="translate(1331 5239)" fill="#f1bf5e">
      <path d="M 32.3884391784668 28.5 L 2.611559152603149 28.5 L 17.5 2.976958513259888 L 32.3884391784668 28.5 Z" stroke="none"/>
      <path d="M 17.5 5.953907012939453 L 5.223112106323242 27 L 29.77688789367676 27 L 17.5 5.953907012939453 M 17.5 0 L 35 30 L 0 30 L 17.5 0 Z" stroke="none" fill="#4fafd5"/>
    </g>
    <g id="Polígono_8" data-name="Polígono 8" transform="translate(1331 5274)" fill="#f1bf5e">
      <path d="M 32.3884391784668 28.5 L 2.611559152603149 28.5 L 17.5 2.976958513259888 L 32.3884391784668 28.5 Z" stroke="none"/>
      <path d="M 17.5 5.953907012939453 L 5.223112106323242 27 L 29.77688789367676 27 L 17.5 5.953907012939453 M 17.5 0 L 35 30 L 0 30 L 17.5 0 Z" stroke="none" fill="#4fafd5"/>
    </g>
    <g id="Polígono_9" data-name="Polígono 9" transform="translate(1331 5307)" fill="#f1bf5e">
      <path d="M 32.3884391784668 28.5 L 2.611559152603149 28.5 L 17.5 2.976958513259888 L 32.3884391784668 28.5 Z" stroke="none"/>
      <path d="M 17.5 5.953907012939453 L 5.223112106323242 27 L 29.77688789367676 27 L 17.5 5.953907012939453 M 17.5 0 L 35 30 L 0 30 L 17.5 0 Z" stroke="none" fill="#4fafd5"/>
    </g>
    <g id="Polígono_10" data-name="Polígono 10" transform="translate(1331 5341)" fill="#f1bf5e">
      <path d="M 32.3884391784668 28.5 L 2.611559152603149 28.5 L 17.5 2.976958513259888 L 32.3884391784668 28.5 Z" stroke="none"/>
      <path d="M 17.5 5.953907012939453 L 5.223112106323242 27 L 29.77688789367676 27 L 17.5 5.953907012939453 M 17.5 0 L 35 30 L 0 30 L 17.5 0 Z" stroke="none" fill="#4fafd5"/>
    </g>
    <g id="Polígono_11" data-name="Polígono 11" transform="translate(1331 5375)" fill="#f1bf5e">
      <path d="M 32.3884391784668 28.5 L 2.611559152603149 28.5 L 17.5 2.976958513259888 L 32.3884391784668 28.5 Z" stroke="none"/>
      <path d="M 17.5 5.953907012939453 L 5.223112106323242 27 L 29.77688789367676 27 L 17.5 5.953907012939453 M 17.5 0 L 35 30 L 0 30 L 17.5 0 Z" stroke="none" fill="#4fafd5"/>
    </g>
    <g id="Polígono_12" data-name="Polígono 12" transform="translate(1331 5408)" fill="#f1bf5e">
      <path d="M 32.3884391784668 28.5 L 2.611559152603149 28.5 L 17.5 2.976958513259888 L 32.3884391784668 28.5 Z" stroke="none"/>
      <path d="M 17.5 5.953907012939453 L 5.223112106323242 27 L 29.77688789367676 27 L 17.5 5.953907012939453 M 17.5 0 L 35 30 L 0 30 L 17.5 0 Z" stroke="none" fill="#4fafd5"/>
    </g>
    <g id="Polígono_13" data-name="Polígono 13" transform="translate(1331 5442)" fill="#f1bf5e">
      <path d="M 32.3884391784668 28.5 L 2.611559152603149 28.5 L 17.5 2.976958513259888 L 32.3884391784668 28.5 Z" stroke="none"/>
      <path d="M 17.5 5.953907012939453 L 5.223112106323242 27 L 29.77688789367676 27 L 17.5 5.953907012939453 M 17.5 0 L 35 30 L 0 30 L 17.5 0 Z" stroke="none" fill="#4fafd5"/>
    </g>
    <g id="Polígono_14" data-name="Polígono 14" transform="translate(1331 5476)" fill="#f1bf5e">
      <path d="M 32.3884391784668 28.5 L 2.611559152603149 28.5 L 17.5 2.976958513259888 L 32.3884391784668 28.5 Z" stroke="none"/>
      <path d="M 17.5 5.953907012939453 L 5.223112106323242 27 L 29.77688789367676 27 L 17.5 5.953907012939453 M 17.5 0 L 35 30 L 0 30 L 17.5 0 Z" stroke="none" fill="#4fafd5"/>
    </g>
    <g id="Polígono_15" data-name="Polígono 15" transform="translate(1331 5510)" fill="#f1bf5e">
      <path d="M 32.3884391784668 28.5 L 2.611559152603149 28.5 L 17.5 2.976958513259888 L 32.3884391784668 28.5 Z" stroke="none"/>
      <path d="M 17.5 5.953907012939453 L 5.223112106323242 27 L 29.77688789367676 27 L 17.5 5.953907012939453 M 17.5 0 L 35 30 L 0 30 L 17.5 0 Z" stroke="none" fill="#4fafd5"/>
    </g>
    <g id="Polígono_16" data-name="Polígono 16" transform="translate(1331 5544)" fill="#f1bf5e">
      <path d="M 32.3884391784668 28.5 L 2.611559152603149 28.5 L 17.5 2.976958513259888 L 32.3884391784668 28.5 Z" stroke="none"/>
      <path d="M 17.5 5.953907012939453 L 5.223112106323242 27 L 29.77688789367676 27 L 17.5 5.953907012939453 M 17.5 0 L 35 30 L 0 30 L 17.5 0 Z" stroke="none" fill="#4fafd5"/>
    </g>
    <g id="Polígono_17" data-name="Polígono 17" transform="translate(1331 5577)" fill="#f1bf5e">
      <path d="M 32.3884391784668 28.5 L 2.611559152603149 28.5 L 17.5 2.976958513259888 L 32.3884391784668 28.5 Z" stroke="none"/>
      <path d="M 17.5 5.953907012939453 L 5.223112106323242 27 L 29.77688789367676 27 L 17.5 5.953907012939453 M 17.5 0 L 35 30 L 0 30 L 17.5 0 Z" stroke="none" fill="#4fafd5"/>
    </g>
    <g id="Polígono_18" data-name="Polígono 18" transform="translate(1331 5611)" fill="#f1bf5e">
      <path d="M 32.3884391784668 28.5 L 2.611559152603149 28.5 L 17.5 2.976958513259888 L 32.3884391784668 28.5 Z" stroke="none"/>
      <path d="M 17.5 5.953907012939453 L 5.223112106323242 27 L 29.77688789367676 27 L 17.5 5.953907012939453 M 17.5 0 L 35 30 L 0 30 L 17.5 0 Z" stroke="none" fill="#4fafd5"/>
    </g>
    <path id="Trazado_688311" data-name="Trazado 688311" d="M-10011.475-8631.954l59.275-19.552" transform="translate(11212.474 13939.954)" fill="none" stroke="#4fafd5" stroke-width="3"/>
    <g id="Elipse_4863" data-name="Elipse 4863" transform="translate(1186 5293)" fill="#f1bf5e" stroke="#4fafd5" stroke-width="3">
      <circle cx="15" cy="15" r="15" stroke="none"/>
      <circle cx="15" cy="15" r="13.5" fill="none"/>
    </g>
    <g id="Elipse_4868" data-name="Elipse 4868" transform="translate(1245 5274)" fill="#f1bf5e" stroke="#4fafd5" stroke-width="3">
      <circle cx="15" cy="15" r="15" stroke="none"/>
      <circle cx="15" cy="15" r="13.5" fill="none"/>
    </g>
    <path id="Trazado_688313" data-name="Trazado 688313" d="M-10013.48-8631.114l59.517,3.766" transform="translate(11214.474 13983.954)" fill="none" stroke="#4fafd5" stroke-width="3"/>
    <g id="Elipse_4870" data-name="Elipse 4870" transform="translate(1245 5341)" fill="#f1bf5e" stroke="#4fafd5" stroke-width="3">
      <circle cx="15" cy="15" r="15" stroke="none"/>
      <circle cx="15" cy="15" r="13.5" fill="none"/>
    </g>
    <g id="Elipse_4862" data-name="Elipse 4862" transform="translate(1186 5338)" fill="#f1bf5e" stroke="#4fafd5" stroke-width="3">
      <circle cx="15" cy="15" r="15" stroke="none"/>
      <circle cx="15" cy="15" r="13.5" fill="none"/>
    </g>
    <path id="Trazado_688315" data-name="Trazado 688315" d="M-10013.48-8631.114l59.177,4.659" transform="translate(11214.474 14049.114)" fill="none" stroke="#4fafd5" stroke-width="3"/>
    <g id="Grupo_167893" data-name="Grupo 167893" transform="translate(1200.993 5458.628)">
      <path id="Trazado_688321" data-name="Trazado 688321" d="M-10011.475-8686.038l58.822,54.085" transform="translate(10011.48 8800.697)" fill="none" stroke="#4fafd5" stroke-width="3"/>
      <path id="Trazado_688318" data-name="Trazado 688318" d="M-10013.48-8661.976l58.924,30.862" transform="translate(10013.48 8731.795)" fill="none" stroke="#4fafd5" stroke-width="3"/>
      <path id="Trazado_688316" data-name="Trazado 688316" d="M-10013.48-8659.444l59.046,28.33" transform="translate(10013.48 8664.104)" fill="none" stroke="#4fafd5" stroke-width="3"/>
      <path id="Trazado_688320" data-name="Trazado 688320" d="M-10011.475-8651.507l59.275,19.552" transform="translate(10011.48 8766.166)" fill="none" stroke="#4fafd5" stroke-width="3"/>
      <path id="Trazado_688319" data-name="Trazado 688319" d="M-10013.48-8627.349l59.517-3.766" transform="translate(10013.48 8697.168)" fill="none" stroke="#4fafd5" stroke-width="3"/>
      <path id="Trazado_688317" data-name="Trazado 688317" d="M-10013.48-8626.456l59.177-4.659" transform="translate(10013.48 8631.115)" fill="none" stroke="#4fafd5" stroke-width="3"/>
    </g>
    <g id="Elipse_4872" data-name="Elipse 4872" transform="translate(1245 5408)" fill="#f1bf5e" stroke="#4fafd5" stroke-width="3">
      <circle cx="15" cy="15" r="15" stroke="none"/>
      <circle cx="15" cy="15" r="13.5" fill="none"/>
    </g>
    <g id="Elipse_4873" data-name="Elipse 4873" transform="translate(1245 5442)" fill="#f1bf5e" stroke="#4fafd5" stroke-width="3">
      <circle cx="15" cy="15" r="15" stroke="none"/>
      <circle cx="15" cy="15" r="13.5" fill="none"/>
    </g>
    <g id="Elipse_4874" data-name="Elipse 4874" transform="translate(1245 5476)" fill="#f1bf5e" stroke="#4fafd5" stroke-width="3">
      <circle cx="15" cy="15" r="15" stroke="none"/>
      <circle cx="15" cy="15" r="13.5" fill="none"/>
    </g>
    <g id="Elipse_4875" data-name="Elipse 4875" transform="translate(1245 5510)" fill="#f1bf5e" stroke="#4fafd5" stroke-width="3">
      <circle cx="15" cy="15" r="15" stroke="none"/>
      <circle cx="15" cy="15" r="13.5" fill="none"/>
    </g>
    <g id="Elipse_4876" data-name="Elipse 4876" transform="translate(1245 5544)" fill="#f1bf5e" stroke="#4fafd5" stroke-width="3">
      <circle cx="15" cy="15" r="15" stroke="none"/>
      <circle cx="15" cy="15" r="13.5" fill="none"/>
    </g>
    <g id="Elipse_4877" data-name="Elipse 4877" transform="translate(1245 5577)" fill="#f1bf5e" stroke="#4fafd5" stroke-width="3">
      <circle cx="15" cy="15" r="15" stroke="none"/>
      <circle cx="15" cy="15" r="13.5" fill="none"/>
    </g>
    <g id="Elipse_4878" data-name="Elipse 4878" transform="translate(1245 5611)" fill="#f1bf5e" stroke="#4fafd5" stroke-width="3">
      <circle cx="15" cy="15" r="15" stroke="none"/>
      <circle cx="15" cy="15" r="13.5" fill="none"/>
    </g>
    <g id="Elipse_4858" data-name="Elipse 4858" transform="translate(1186 5513)" fill="#f1bf5e" stroke="#4fafd5" stroke-width="3">
      <circle cx="15" cy="15" r="15" stroke="none"/>
      <circle cx="15" cy="15" r="13.5" fill="none"/>
    </g>
    <g id="Elipse_4860" data-name="Elipse 4860" transform="translate(1186 5448)" fill="#f1bf5e" stroke="#4fafd5" stroke-width="3">
      <circle cx="15" cy="15" r="15" stroke="none"/>
      <circle cx="15" cy="15" r="13.5" fill="none"/>
    </g>
    <g id="Elipse_4859" data-name="Elipse 4859" transform="translate(1186 5558)" fill="#f1bf5e" stroke="#4fafd5" stroke-width="3">
      <circle cx="15" cy="15" r="15" stroke="none"/>
      <circle cx="15" cy="15" r="13.5" fill="none"/>
    </g>
    <g id="Elipse_4861" data-name="Elipse 4861" transform="translate(1186 5403)" fill="#f1bf5e" stroke="#4fafd5" stroke-width="3">
      <circle cx="15" cy="15" r="15" stroke="none"/>
      <circle cx="15" cy="15" r="13.5" fill="none"/>
    </g>
  </g>
</svg>
