<svg xmlns="http://www.w3.org/2000/svg" width="610" height="254" viewBox="0 0 610 254">
  <g id="Grupo_168053" data-name="Grupo 168053" transform="translate(-495 -8429)">
    <g id="Rectángulo_342118" data-name="Rectángulo 342118" transform="translate(495 8429)" fill="#8979f3" stroke="#707070" stroke-width="1" opacity="0.25">
      <rect width="610" height="254" rx="25" stroke="none"/>
      <rect x="0.5" y="0.5" width="609" height="253" rx="24.5" fill="none"/>
    </g>
    <path id="Trazado_688356" data-name="Trazado 688356" d="M.844,20.175V7.454H2.688v.1A6.475,6.475,0,0,1,4.8,7.231a4.521,4.521,0,0,1,2.337.517,2.885,2.885,0,0,1,1.232,1.63,9.609,9.609,0,0,1,.374,2.973,9.687,9.687,0,0,1-.374,2.981A2.922,2.922,0,0,1,7.14,16.979,4.466,4.466,0,0,1,4.8,17.5a5.807,5.807,0,0,1-2.115-.382v3.053ZM4.8,15.818a2.207,2.207,0,0,0,1.28-.318,1.771,1.771,0,0,0,.644-1.057,8.826,8.826,0,0,0,.191-2.091,8.721,8.721,0,0,0-.191-2.083,1.729,1.729,0,0,0-.644-1.041,2.25,2.25,0,0,0-1.28-.31q-2.115,0-2.115.922v3.753a2.444,2.444,0,0,0,.493,1.685A2.106,2.106,0,0,0,4.8,15.818ZM13.962,17.5a4.442,4.442,0,0,1-2.035-.39,2.275,2.275,0,0,1-1.081-1.264,6.876,6.876,0,0,1-.334-2.385V7.454H12.34v6.01a6.008,6.008,0,0,0,.135,1.479,1.052,1.052,0,0,0,.477.684,2.12,2.12,0,0,0,1.01.191,5.055,5.055,0,0,0,1.471-.159,1.072,1.072,0,0,0,.676-.564,2.929,2.929,0,0,0,.191-1.2V7.454h1.844v9.827H16.3v-.159A5.727,5.727,0,0,1,13.962,17.5Zm10,0a5.669,5.669,0,0,1-2.25-.374,4.183,4.183,0,0,1-1.582-1.312V4.56H21.96V7.581a5.6,5.6,0,0,1,2-.35,4.23,4.23,0,0,1,2.266.525,2.924,2.924,0,0,1,1.2,1.638,9.871,9.871,0,0,1,.366,2.989,9.8,9.8,0,0,1-.366,2.973,2.886,2.886,0,0,1-1.2,1.63A4.282,4.282,0,0,1,23.963,17.5Zm0-1.685a2.037,2.037,0,0,0,1.208-.31,1.751,1.751,0,0,0,.612-1.041,9.087,9.087,0,0,0,.183-2.083,9.2,9.2,0,0,0-.183-2.091,1.8,1.8,0,0,0-.612-1.057,2,2,0,0,0-1.208-.318,3.278,3.278,0,0,0-1.248.183,1.061,1.061,0,0,0-.588.66,4.538,4.538,0,0,0-.167,1.415v4.055a2.006,2.006,0,0,0,.8.469A4.633,4.633,0,0,0,23.963,15.818ZM34.95,17.5a3.65,3.65,0,0,1-1.725-.334,1.886,1.886,0,0,1-.875-1.113,7.177,7.177,0,0,1-.262-2.194V6.246h-2V4.56h3.832v9.3A3.638,3.638,0,0,0,34.14,15.4a.834.834,0,0,0,.811.421,1.222,1.222,0,0,0,.612-.191,7.47,7.47,0,0,0,.914-.684L37.495,16.5a4.874,4.874,0,0,1-1.248.787A3.55,3.55,0,0,1,34.95,17.5ZM44.189,7.454V15.6h2.783v1.685H39.578V15.6H42.36V9.14h-2V7.454ZM42.933,6.023a1.6,1.6,0,0,1-1.089-.278,1.394,1.394,0,0,1-.294-1.026,1.394,1.394,0,0,1,.294-1.026,1.6,1.6,0,0,1,1.089-.278,1.637,1.637,0,0,1,1.1.278,1.37,1.37,0,0,1,.3,1.026,1.37,1.37,0,0,1-.3,1.026A1.637,1.637,0,0,1,42.933,6.023ZM52.68,17.5a5.157,5.157,0,0,1-2.512-.517,2.937,2.937,0,0,1-1.328-1.63,8.964,8.964,0,0,1-.405-2.989,8.964,8.964,0,0,1,.405-2.989,2.919,2.919,0,0,1,1.344-1.63,5.333,5.333,0,0,1,2.56-.517,4.3,4.3,0,0,1,2.21.493,5,5,0,0,1,1.59,1.749l-1.526.906a6.474,6.474,0,0,0-.684-.922,1.564,1.564,0,0,0-.644-.421,3.85,3.85,0,0,0-2.465.191,1.687,1.687,0,0,0-.747,1.041,7.867,7.867,0,0,0-.215,2.1,7.867,7.867,0,0,0,.215,2.1,1.721,1.721,0,0,0,.723,1.041,2.871,2.871,0,0,0,1.479.31,2.979,2.979,0,0,0,.946-.127,1.771,1.771,0,0,0,.684-.437,6.288,6.288,0,0,0,.723-.93l1.511.922a5.178,5.178,0,0,1-1.63,1.765A4.376,4.376,0,0,1,52.68,17.5Zm19.081,0a5.157,5.157,0,0,1-2.512-.517,2.937,2.937,0,0,1-1.328-1.63,8.964,8.964,0,0,1-.405-2.989,8.964,8.964,0,0,1,.405-2.989,2.919,2.919,0,0,1,1.344-1.63,5.333,5.333,0,0,1,2.56-.517,4.3,4.3,0,0,1,2.21.493,5,5,0,0,1,1.59,1.749L74.1,10.38a6.475,6.475,0,0,0-.684-.922,1.564,1.564,0,0,0-.644-.421,3.85,3.85,0,0,0-2.465.191,1.687,1.687,0,0,0-.747,1.041,7.867,7.867,0,0,0-.215,2.1,7.867,7.867,0,0,0,.215,2.1,1.721,1.721,0,0,0,.723,1.041,2.871,2.871,0,0,0,1.479.31,2.98,2.98,0,0,0,.946-.127,1.771,1.771,0,0,0,.684-.437,6.288,6.288,0,0,0,.723-.93l1.511.922a5.178,5.178,0,0,1-1.63,1.765A4.376,4.376,0,0,1,71.76,17.5Zm10.892,0a3.65,3.65,0,0,1-1.725-.334,1.886,1.886,0,0,1-.875-1.113,7.177,7.177,0,0,1-.262-2.194V6.246h-2V4.56h3.832v9.3a3.638,3.638,0,0,0,.223,1.534.834.834,0,0,0,.811.421,1.222,1.222,0,0,0,.612-.191,7.47,7.47,0,0,0,.914-.684L85.2,16.5a4.874,4.874,0,0,1-1.248.787A3.55,3.55,0,0,1,82.652,17.5Zm7.648,0a6.48,6.48,0,0,1-2.25-.318,2.218,2.218,0,0,1-1.208-.994,3.731,3.731,0,0,1-.374-1.8,4.2,4.2,0,0,1,.374-1.964,2.038,2.038,0,0,1,1.193-.97,7.31,7.31,0,0,1,2.266-.278h2v-.35a2.557,2.557,0,0,0-.167-1.034.973.973,0,0,0-.6-.517,3.923,3.923,0,0,0-1.24-.151,2.956,2.956,0,0,0-1.018.135,1.025,1.025,0,0,0-.541.485,4.651,4.651,0,0,0-.366,1.065l-1.749-.429a6.385,6.385,0,0,1,.716-1.813,2.6,2.6,0,0,1,1.145-1.01A4.384,4.384,0,0,1,90.3,7.231a4.072,4.072,0,0,1,2.95.882,3.692,3.692,0,0,1,.882,2.711v3.721a1.882,1.882,0,0,0,.127.859.59.59,0,0,0,.541.207q.127,0,.572-.032v1.685q-.191.016-.525.016a2.372,2.372,0,0,1-1.908-.636,2.407,2.407,0,0,1-1.065.66A5.345,5.345,0,0,1,90.3,17.5Zm0-1.685a3.163,3.163,0,0,0,1.24-.191,1.085,1.085,0,0,0,.6-.652,4.117,4.117,0,0,0,.167-1.336V12.86h-2a6.529,6.529,0,0,0-1.288.087.762.762,0,0,0-.541.4,2.456,2.456,0,0,0-.159,1.041,1.913,1.913,0,0,0,.159.882.92.92,0,0,0,.58.421A4.6,4.6,0,0,0,90.3,15.818ZM99.7,17.5a3.953,3.953,0,0,1-2.091-.477,4.13,4.13,0,0,1-1.391-1.685l1.447-1.193a6.716,6.716,0,0,0,.549,1.065,1.256,1.256,0,0,0,.564.469,2.528,2.528,0,0,0,.922.135,7.986,7.986,0,0,0,1.654-.127,1.226,1.226,0,0,0,.763-.421,1.472,1.472,0,0,0,.207-.851,1.518,1.518,0,0,0-.167-.811,1.028,1.028,0,0,0-.6-.382,10.2,10.2,0,0,0-1.447-.254,6.263,6.263,0,0,1-2.783-.851,2.21,2.21,0,0,1-.859-1.932,3.225,3.225,0,0,1,.4-1.709,2.311,2.311,0,0,1,1.272-.946,7.418,7.418,0,0,1,2.353-.3,4.71,4.71,0,0,1,2.178.413,3.84,3.84,0,0,1,1.415,1.463l-1.336,1.3a5.856,5.856,0,0,0-.6-.954,1.341,1.341,0,0,0-.62-.421,3.488,3.488,0,0,0-1.034-.119,6.375,6.375,0,0,0-1.375.111,1,1,0,0,0-.644.382,1.438,1.438,0,0,0-.175.779.777.777,0,0,0,.191.572,1.21,1.21,0,0,0,.572.286q.382.1,1.177.207a11.231,11.231,0,0,1,2.345.549,2.355,2.355,0,0,1,1.208.938,3.212,3.212,0,0,1,.374,1.678,3.25,3.25,0,0,1-.437,1.789,2.507,2.507,0,0,1-1.415.986A8.922,8.922,0,0,1,99.7,17.5Zm9.54,0a3.953,3.953,0,0,1-2.091-.477,4.13,4.13,0,0,1-1.391-1.685l1.447-1.193a6.716,6.716,0,0,0,.549,1.065,1.256,1.256,0,0,0,.564.469,2.529,2.529,0,0,0,.922.135,7.987,7.987,0,0,0,1.654-.127,1.226,1.226,0,0,0,.763-.421,1.472,1.472,0,0,0,.207-.851,1.518,1.518,0,0,0-.167-.811,1.028,1.028,0,0,0-.6-.382,10.2,10.2,0,0,0-1.447-.254,6.263,6.263,0,0,1-2.783-.851,2.21,2.21,0,0,1-.859-1.932,3.225,3.225,0,0,1,.4-1.709,2.311,2.311,0,0,1,1.272-.946,7.418,7.418,0,0,1,2.353-.3,4.71,4.71,0,0,1,2.178.413,3.84,3.84,0,0,1,1.415,1.463l-1.336,1.3a5.856,5.856,0,0,0-.6-.954,1.341,1.341,0,0,0-.62-.421,3.488,3.488,0,0,0-1.034-.119,6.375,6.375,0,0,0-1.375.111,1,1,0,0,0-.644.382,1.438,1.438,0,0,0-.175.779.777.777,0,0,0,.191.572,1.21,1.21,0,0,0,.572.286q.382.1,1.177.207a11.231,11.231,0,0,1,2.345.549,2.355,2.355,0,0,1,1.208.938,3.212,3.212,0,0,1,.374,1.678,3.25,3.25,0,0,1-.437,1.789,2.507,2.507,0,0,1-1.415.986A8.922,8.922,0,0,1,109.238,17.5ZM128.923,4.56a4.185,4.185,0,0,1,2.457.636,3.57,3.57,0,0,1,1.3,2.011,13.862,13.862,0,0,1,.4,3.713,13.862,13.862,0,0,1-.4,3.713,3.57,3.57,0,0,1-1.3,2.011,4.185,4.185,0,0,1-2.457.636h-4.134V4.56Zm0,11.035a2.071,2.071,0,0,0,1.391-.429,2.53,2.53,0,0,0,.716-1.431,14.2,14.2,0,0,0,.215-2.814,14.2,14.2,0,0,0-.215-2.814,2.53,2.53,0,0,0-.716-1.431,2.071,2.071,0,0,0-1.391-.429h-2.306V15.6Zm9.381.223a2.621,2.621,0,0,0,1.359-.326,4.037,4.037,0,0,0,1.137-1.153l1.463.97a5.242,5.242,0,0,1-1.678,1.717,4.666,4.666,0,0,1-2.282.477,5.451,5.451,0,0,1-2.52-.477,2.725,2.725,0,0,1-1.288-1.574,9.6,9.6,0,0,1-.39-3.085,9.6,9.6,0,0,1,.39-3.085,2.725,2.725,0,0,1,1.288-1.574,5.451,5.451,0,0,1,2.52-.477,4.921,4.921,0,0,1,2.473.517,2.906,2.906,0,0,1,1.264,1.725,11.752,11.752,0,0,1,.382,3.387h-6.472a5.919,5.919,0,0,0,.286,1.765,1.672,1.672,0,0,0,.731.914A2.722,2.722,0,0,0,138.3,15.818Zm0-6.9a2.382,2.382,0,0,0-1.685.5,2.725,2.725,0,0,0-.636,1.757h4.563a3.571,3.571,0,0,0-.207-1.36,1.265,1.265,0,0,0-.692-.692A3.518,3.518,0,0,0,138.3,8.917Zm5.1,8.364V7.454h1.829V7.39q.127-.032.477-.1a3.513,3.513,0,0,1,.62-.064,2.249,2.249,0,0,1,.986.175,1.868,1.868,0,0,1,.668.636,2.077,2.077,0,0,1,1.813-.811,2.345,2.345,0,0,1,1.431.382,2.176,2.176,0,0,1,.731,1.256,10.353,10.353,0,0,1,.223,2.433v5.979h-1.829V11.3a8.471,8.471,0,0,0-.119-1.741q-.119-.485-.437-.485a.87.87,0,0,0-.851.445,3.862,3.862,0,0,0-.231,1.606v6.154h-1.829V11.4a8.663,8.663,0,0,0-.127-1.8q-.127-.517-.429-.517a.887.887,0,0,0-.859.445,3.745,3.745,0,0,0-.239,1.606v6.154Zm13.929.223a4.422,4.422,0,0,1-2.329-.525,2.933,2.933,0,0,1-1.224-1.638,9.608,9.608,0,0,1-.374-2.973,9.608,9.608,0,0,1,.374-2.973,2.933,2.933,0,0,1,1.224-1.638,5.451,5.451,0,0,1,4.667,0,2.921,2.921,0,0,1,1.232,1.638,9.609,9.609,0,0,1,.374,2.973,9.609,9.609,0,0,1-.374,2.973,2.921,2.921,0,0,1-1.232,1.638A4.466,4.466,0,0,1,157.338,17.5Zm0-1.685a2.251,2.251,0,0,0,1.28-.31,1.734,1.734,0,0,0,.644-1.049,8.827,8.827,0,0,0,.191-2.091,8.827,8.827,0,0,0-.191-2.091,1.734,1.734,0,0,0-.644-1.049,2.251,2.251,0,0,0-1.28-.31,2.211,2.211,0,0,0-1.272.31,1.751,1.751,0,0,0-.636,1.049,8.826,8.826,0,0,0-.191,2.091,8.826,8.826,0,0,0,.191,2.091,1.751,1.751,0,0,0,.636,1.049A2.211,2.211,0,0,0,157.338,15.818Zm9.54,1.685a7.749,7.749,0,0,1-2-.215,3.066,3.066,0,0,1-1.32-.716,4.511,4.511,0,0,1-.946-1.375l1.415-1.336a4.942,4.942,0,0,0,.572,1.224,1.539,1.539,0,0,0,.8.564,5.005,5.005,0,0,0,1.479.167,3.8,3.8,0,0,0,1.4-.2,1.185,1.185,0,0,0,.668-.66,3.7,3.7,0,0,0,.191-1.352,1.989,1.989,0,0,0-.207-1,1.634,1.634,0,0,0-.684-.6,11.64,11.64,0,0,0-1.526-.6,12.35,12.35,0,0,1-2.218-.922,2.957,2.957,0,0,1-1.121-1.049,3.12,3.12,0,0,1-.35-1.574,4.767,4.767,0,0,1,.374-2.059,2.26,2.26,0,0,1,1.208-1.121,5.992,5.992,0,0,1,2.266-.35,7.366,7.366,0,0,1,1.837.191,3.054,3.054,0,0,1,1.232.628,4.138,4.138,0,0,1,.922,1.216l-1.3,1.415a4.983,4.983,0,0,0-.572-1.121,1.415,1.415,0,0,0-.747-.5,5.018,5.018,0,0,0-1.367-.143,3.792,3.792,0,0,0-1.264.159.988.988,0,0,0-.588.549,3.006,3.006,0,0,0-.167,1.137,1.638,1.638,0,0,0,.175.843,1.34,1.34,0,0,0,.6.485,11.927,11.927,0,0,0,1.391.5,12.349,12.349,0,0,1,2.361.954,3.027,3.027,0,0,1,1.208,1.169,3.75,3.75,0,0,1,.374,1.789,5.4,5.4,0,0,1-.4,2.274,2.464,2.464,0,0,1-1.28,1.232A6.087,6.087,0,0,1,166.878,17.5Zm9.827,0a5.157,5.157,0,0,1-2.512-.517,2.937,2.937,0,0,1-1.328-1.63,8.965,8.965,0,0,1-.405-2.989,8.965,8.965,0,0,1,.405-2.989,2.919,2.919,0,0,1,1.344-1.63,5.333,5.333,0,0,1,2.56-.517,4.3,4.3,0,0,1,2.21.493,5,5,0,0,1,1.59,1.749l-1.526.906a6.475,6.475,0,0,0-.684-.922,1.564,1.564,0,0,0-.644-.421,3.85,3.85,0,0,0-2.465.191,1.687,1.687,0,0,0-.747,1.041,7.868,7.868,0,0,0-.215,2.1,7.868,7.868,0,0,0,.215,2.1,1.721,1.721,0,0,0,.723,1.041,2.872,2.872,0,0,0,1.479.31,2.979,2.979,0,0,0,.946-.127,1.771,1.771,0,0,0,.684-.437,6.287,6.287,0,0,0,.723-.93l1.511.922a5.179,5.179,0,0,1-1.63,1.765A4.376,4.376,0,0,1,176.7,17.5Zm5.963-.223V7.454H184.5v.811a3.5,3.5,0,0,1,.986-.723,2.815,2.815,0,0,1,1.3-.31,4.071,4.071,0,0,1,1.526.246,2.556,2.556,0,0,1,1.041.8,5.369,5.369,0,0,1,.787,1.519l-1.638.747a5.7,5.7,0,0,0-.413-1.034,1.038,1.038,0,0,0-.485-.461,2.119,2.119,0,0,0-.819-.127,1.909,1.909,0,0,0-1.765.851,4.753,4.753,0,0,0-.525,2.473v5.041Zm14.167-9.827V15.6h2.783v1.685h-7.394V15.6h2.783V9.14h-2V7.454Zm-1.256-1.431a1.6,1.6,0,0,1-1.089-.278,1.394,1.394,0,0,1-.294-1.026,1.394,1.394,0,0,1,.294-1.026,1.6,1.6,0,0,1,1.089-.278,1.637,1.637,0,0,1,1.1.278,1.37,1.37,0,0,1,.3,1.026,1.37,1.37,0,0,1-.3,1.026A1.637,1.637,0,0,1,195.579,6.023Zm5.613,14.152V7.454h1.844v.1a6.475,6.475,0,0,1,2.115-.318,4.522,4.522,0,0,1,2.337.517,2.885,2.885,0,0,1,1.232,1.63,9.609,9.609,0,0,1,.374,2.973,9.688,9.688,0,0,1-.374,2.981,2.922,2.922,0,0,1-1.232,1.646,4.466,4.466,0,0,1-2.337.525,5.807,5.807,0,0,1-2.115-.382v3.053Zm3.959-4.357a2.207,2.207,0,0,0,1.28-.318,1.771,1.771,0,0,0,.644-1.057,8.827,8.827,0,0,0,.191-2.091,8.722,8.722,0,0,0-.191-2.083,1.729,1.729,0,0,0-.644-1.041,2.251,2.251,0,0,0-1.28-.31q-2.115,0-2.115.922v3.753a2.444,2.444,0,0,0,.493,1.685A2.106,2.106,0,0,0,205.151,15.818ZM215.614,17.5a3.757,3.757,0,0,1-1.86-.4,2.332,2.332,0,0,1-1.026-1.264,6.61,6.61,0,0,1-.326-2.282V8.949H210.43V7.263H212.4V4.56h1.829v2.7h3.291V8.949H214.23V13.56a5.721,5.721,0,0,0,.127,1.375,1.13,1.13,0,0,0,.421.684,1.484,1.484,0,0,0,.835.2,3.234,3.234,0,0,0,.851-.08.629.629,0,0,0,.382-.286,3.927,3.927,0,0,0,.278-.716l1.717.588a3.646,3.646,0,0,1-.62,1.3,2.126,2.126,0,0,1-.994.676A5.17,5.17,0,0,1,215.614,17.5Zm18.047-7.616a1.665,1.665,0,0,1-1.137-.294,1.405,1.405,0,0,1-.31-1.041,1.432,1.432,0,0,1,.31-1.057,2.344,2.344,0,0,1,2.274,0,1.432,1.432,0,0,1,.31,1.057,1.405,1.405,0,0,1-.31,1.041A1.665,1.665,0,0,1,233.661,9.887Zm0,7.616a1.665,1.665,0,0,1-1.137-.294,1.405,1.405,0,0,1-.31-1.041,1.432,1.432,0,0,1,.31-1.057,2.344,2.344,0,0,1,2.274,0,1.432,1.432,0,0,1,.31,1.057,1.405,1.405,0,0,1-.31,1.041A1.665,1.665,0,0,1,233.661,17.5Zm16.584-.223H248.4l.239-12.721h1.685l2.417,5.963,2.417-5.963h1.7l.223,12.721h-1.829L255.095,9.3l-1.59,4.293h-1.526L250.388,9.3Zm12.037.223a4.422,4.422,0,0,1-2.329-.525,2.933,2.933,0,0,1-1.224-1.638,9.608,9.608,0,0,1-.374-2.973,9.608,9.608,0,0,1,.374-2.973,2.933,2.933,0,0,1,1.224-1.638,5.451,5.451,0,0,1,4.667,0,2.921,2.921,0,0,1,1.232,1.638,9.609,9.609,0,0,1,.374,2.973,9.609,9.609,0,0,1-.374,2.973,2.921,2.921,0,0,1-1.232,1.638A4.466,4.466,0,0,1,262.282,17.5Zm0-1.685a2.251,2.251,0,0,0,1.28-.31,1.734,1.734,0,0,0,.644-1.049,8.827,8.827,0,0,0,.191-2.091,8.827,8.827,0,0,0-.191-2.091,1.734,1.734,0,0,0-.644-1.049,2.251,2.251,0,0,0-1.28-.31,2.211,2.211,0,0,0-1.272.31,1.751,1.751,0,0,0-.636,1.049,8.827,8.827,0,0,0-.191,2.091,8.827,8.827,0,0,0,.191,2.091,1.751,1.751,0,0,0,.636,1.049A2.211,2.211,0,0,0,262.282,15.818Zm5.82,1.463V7.454h1.829v.239a5.54,5.54,0,0,1,2.337-.461,4.73,4.73,0,0,1,2.091.374,2.152,2.152,0,0,1,1.057,1.256,7.641,7.641,0,0,1,.318,2.488v5.931h-1.844V11.35a5.519,5.519,0,0,0-.151-1.471,1.26,1.26,0,0,0-.493-.739,1.792,1.792,0,0,0-.978-.223,4.628,4.628,0,0,0-1.519.183,1.049,1.049,0,0,0-.652.644,4.516,4.516,0,0,0-.167,1.431v6.106Zm13.261.223a4.422,4.422,0,0,1-2.329-.525,2.933,2.933,0,0,1-1.224-1.638,9.608,9.608,0,0,1-.374-2.973,9.608,9.608,0,0,1,.374-2.973,2.933,2.933,0,0,1,1.224-1.638,5.451,5.451,0,0,1,4.667,0,2.921,2.921,0,0,1,1.232,1.638,9.608,9.608,0,0,1,.374,2.973,9.608,9.608,0,0,1-.374,2.973,2.921,2.921,0,0,1-1.232,1.638A4.466,4.466,0,0,1,281.363,17.5Zm0-1.685a2.25,2.25,0,0,0,1.28-.31,1.734,1.734,0,0,0,.644-1.049,8.827,8.827,0,0,0,.191-2.091,8.827,8.827,0,0,0-.191-2.091,1.734,1.734,0,0,0-.644-1.049,2.25,2.25,0,0,0-1.28-.31,2.211,2.211,0,0,0-1.272.31,1.751,1.751,0,0,0-.636,1.049,8.827,8.827,0,0,0-.191,2.091,8.827,8.827,0,0,0,.191,2.091,1.751,1.751,0,0,0,.636,1.049A2.211,2.211,0,0,0,281.363,15.818Zm5.756,1.463V4.56h3.53a6.371,6.371,0,0,1,2.306.342A2.327,2.327,0,0,1,294.2,5.975a4.175,4.175,0,0,1,.39,1.956,4.437,4.437,0,0,1-.207,1.526,2.273,2.273,0,0,1-.716.954,2.53,2.53,0,0,1,1.018,1.129,5,5,0,0,1,.3,1.956,5.284,5.284,0,0,1-.382,2.2,2.387,2.387,0,0,1-1.24,1.2,5.817,5.817,0,0,1-2.322.382Zm3.53-7.569a5.791,5.791,0,0,0,1.344-.111.871.871,0,0,0,.6-.477,2.963,2.963,0,0,0,.175-1.193,2.389,2.389,0,0,0-.175-1.034,1.017,1.017,0,0,0-.62-.5,4.357,4.357,0,0,0-1.32-.151h-1.7V9.712Zm.4,5.883a3.588,3.588,0,0,0,1.3-.183,1.11,1.11,0,0,0,.628-.628,3.531,3.531,0,0,0,.183-1.288,4.037,4.037,0,0,0-.175-1.391.928.928,0,0,0-.6-.572,4.816,4.816,0,0,0-1.336-.135h-2.1v4.2Zm9.445.223a2.621,2.621,0,0,0,1.359-.326,4.037,4.037,0,0,0,1.137-1.153l1.463.97a5.242,5.242,0,0,1-1.678,1.717,4.666,4.666,0,0,1-2.282.477,5.451,5.451,0,0,1-2.52-.477,2.725,2.725,0,0,1-1.288-1.574,9.6,9.6,0,0,1-.39-3.085,9.6,9.6,0,0,1,.39-3.085,2.725,2.725,0,0,1,1.288-1.574,5.451,5.451,0,0,1,2.52-.477,4.921,4.921,0,0,1,2.473.517,2.906,2.906,0,0,1,1.264,1.725,11.753,11.753,0,0,1,.382,3.387h-6.472a5.918,5.918,0,0,0,.286,1.765,1.673,1.673,0,0,0,.731.914A2.722,2.722,0,0,0,300.491,15.818Zm0-6.9a2.382,2.382,0,0,0-1.685.5,2.725,2.725,0,0,0-.636,1.757h4.564a3.57,3.57,0,0,0-.207-1.36,1.265,1.265,0,0,0-.692-.692A3.517,3.517,0,0,0,300.491,8.917Zm5.867,8.364V4.56h1.829V7.518a6.173,6.173,0,0,1,1.956-.286,4.187,4.187,0,0,1,2.258.525,2.949,2.949,0,0,1,1.193,1.685,10.915,10.915,0,0,1,.366,3.164v4.675H312.13V12.606a10.754,10.754,0,0,0-.183-2.282,1.839,1.839,0,0,0-.6-1.1,1.993,1.993,0,0,0-1.208-.31,3.337,3.337,0,0,0-1.248.175.987.987,0,0,0-.557.636,5.04,5.04,0,0,0-.151,1.447v6.106Zm12.911.223a6.48,6.48,0,0,1-2.25-.318,2.218,2.218,0,0,1-1.208-.994,3.732,3.732,0,0,1-.374-1.8,4.2,4.2,0,0,1,.374-1.964,2.038,2.038,0,0,1,1.193-.97,7.31,7.31,0,0,1,2.266-.278h2v-.35a2.557,2.557,0,0,0-.167-1.034.973.973,0,0,0-.6-.517,3.923,3.923,0,0,0-1.24-.151,2.956,2.956,0,0,0-1.018.135,1.025,1.025,0,0,0-.541.485,4.65,4.65,0,0,0-.366,1.065L315.6,10.38a6.385,6.385,0,0,1,.716-1.813,2.6,2.6,0,0,1,1.145-1.01,4.384,4.384,0,0,1,1.813-.326,4.072,4.072,0,0,1,2.95.882,3.692,3.692,0,0,1,.882,2.711v3.721a1.882,1.882,0,0,0,.127.859.59.59,0,0,0,.541.207q.127,0,.572-.032v1.685q-.191.016-.525.016a2.372,2.372,0,0,1-1.908-.636,2.407,2.407,0,0,1-1.065.66A5.345,5.345,0,0,1,319.27,17.5Zm0-1.685a3.163,3.163,0,0,0,1.24-.191,1.085,1.085,0,0,0,.6-.652,4.117,4.117,0,0,0,.167-1.336V12.86h-2a6.529,6.529,0,0,0-1.288.087.761.761,0,0,0-.541.4,2.456,2.456,0,0,0-.159,1.041,1.913,1.913,0,0,0,.159.882.92.92,0,0,0,.58.421A4.6,4.6,0,0,0,319.27,15.818Zm10.606,1.463h-1.654l-3.53-9.827h1.892l2.465,7.108,2.512-7.108h1.876Zm10.065-9.827V15.6h2.783v1.685h-7.394V15.6h2.783V9.14h-2V7.454Zm-1.256-1.431a1.6,1.6,0,0,1-1.089-.278,1.394,1.394,0,0,1-.294-1.026,1.394,1.394,0,0,1,.294-1.026,1.6,1.6,0,0,1,1.089-.278,1.637,1.637,0,0,1,1.1.278,1.37,1.37,0,0,1,.3,1.026,1.37,1.37,0,0,1-.3,1.026A1.637,1.637,0,0,1,338.684,6.023Zm9.461,11.48a4.422,4.422,0,0,1-2.329-.525,2.933,2.933,0,0,1-1.224-1.638,9.609,9.609,0,0,1-.374-2.973,9.609,9.609,0,0,1,.374-2.973,2.933,2.933,0,0,1,1.224-1.638,5.451,5.451,0,0,1,4.667,0,2.921,2.921,0,0,1,1.232,1.638,9.608,9.608,0,0,1,.374,2.973,9.608,9.608,0,0,1-.374,2.973,2.921,2.921,0,0,1-1.232,1.638A4.466,4.466,0,0,1,348.145,17.5Zm0-1.685a2.25,2.25,0,0,0,1.28-.31,1.734,1.734,0,0,0,.644-1.049,8.825,8.825,0,0,0,.191-2.091,8.825,8.825,0,0,0-.191-2.091,1.734,1.734,0,0,0-.644-1.049,2.25,2.25,0,0,0-1.28-.31,2.211,2.211,0,0,0-1.272.31,1.751,1.751,0,0,0-.636,1.049,8.827,8.827,0,0,0-.191,2.091,8.827,8.827,0,0,0,.191,2.091,1.751,1.751,0,0,0,.636,1.049A2.211,2.211,0,0,0,348.145,15.818Zm9.27,1.685a4.442,4.442,0,0,1-2.035-.39A2.275,2.275,0,0,1,354.3,15.85a6.876,6.876,0,0,1-.334-2.385V7.454h1.829v6.01a6.007,6.007,0,0,0,.135,1.479,1.052,1.052,0,0,0,.477.684,2.12,2.12,0,0,0,1.01.191,5.055,5.055,0,0,0,1.471-.159,1.072,1.072,0,0,0,.676-.564,2.93,2.93,0,0,0,.191-1.2V7.454H361.6v9.827h-1.844v-.159A5.728,5.728,0,0,1,357.415,17.5Zm6.519-.223V7.454h1.829v.811a3.5,3.5,0,0,1,.986-.723,2.814,2.814,0,0,1,1.3-.31,4.071,4.071,0,0,1,1.526.246,2.556,2.556,0,0,1,1.042.8,5.371,5.371,0,0,1,.787,1.519l-1.638.747a5.7,5.7,0,0,0-.413-1.034,1.038,1.038,0,0,0-.485-.461,2.119,2.119,0,0,0-.819-.127,1.909,1.909,0,0,0-1.765.851,4.753,4.753,0,0,0-.525,2.473v5.041Zm25.711,2.306a5.65,5.65,0,0,1-3.419-.819,3.091,3.091,0,0,1-1.065-2.616,8.559,8.559,0,0,1,.159-1.431,8.369,8.369,0,0,0,.127-1.081,1.777,1.777,0,0,0-.557-.922q-.557-.62-1.813-1.8,1.256-1.208,1.813-1.829a1.756,1.756,0,0,0,.557-.954,6.472,6.472,0,0,0-.127-.97,7.856,7.856,0,0,1-.159-1.463,3.114,3.114,0,0,1,1.065-2.624,5.608,5.608,0,0,1,3.419-.827v1.7a5.935,5.935,0,0,0-1.59.167,1.41,1.41,0,0,0-.827.557,1.983,1.983,0,0,0-.254,1.089,5.321,5.321,0,0,0,.159,1.224,4.16,4.16,0,0,1,.143.986,2.823,2.823,0,0,1-.429,1.487A5.9,5.9,0,0,1,385.5,10.92a5.656,5.656,0,0,1,1.359,1.415,2.74,2.74,0,0,1,.421,1.463,4.959,4.959,0,0,1-.127.97,6.333,6.333,0,0,0-.159,1.336,1.956,1.956,0,0,0,.246,1.065,1.388,1.388,0,0,0,.819.549,5.935,5.935,0,0,0,1.59.167ZM36.111,69.753H34.458l-3.53-9.827H32.82l2.465,7.108L37.8,59.926h1.876Zm8.729.223a4.422,4.422,0,0,1-2.329-.525,2.933,2.933,0,0,1-1.224-1.638,12.017,12.017,0,0,1,0-5.947,2.933,2.933,0,0,1,1.224-1.638,4.422,4.422,0,0,1,2.329-.525,4.466,4.466,0,0,1,2.337.525,2.921,2.921,0,0,1,1.232,1.638,12.017,12.017,0,0,1,0,5.947,2.921,2.921,0,0,1-1.232,1.638A4.466,4.466,0,0,1,44.841,69.975Zm0-1.685a2.25,2.25,0,0,0,1.28-.31,1.734,1.734,0,0,0,.644-1.049,11.552,11.552,0,0,0,0-4.182,1.734,1.734,0,0,0-.644-1.049,2.25,2.25,0,0,0-1.28-.31,2.211,2.211,0,0,0-1.272.31,1.751,1.751,0,0,0-.636,1.049,11.552,11.552,0,0,0,0,4.182,1.751,1.751,0,0,0,.636,1.049A2.211,2.211,0,0,0,44.841,68.29Zm10.876-8.364v8.141H58.5v1.685H51.106V68.067h2.783V61.612h-2V59.926ZM54.461,58.5a1.6,1.6,0,0,1-1.089-.278,1.935,1.935,0,0,1,0-2.051,1.6,1.6,0,0,1,1.089-.278,1.637,1.637,0,0,1,1.1.278,1.892,1.892,0,0,1,0,2.051A1.637,1.637,0,0,1,54.461,58.5Zm9.381,11.48a4.477,4.477,0,0,1-2.329-.517,2.9,2.9,0,0,1-1.224-1.63,12.081,12.081,0,0,1,0-5.963,2.933,2.933,0,0,1,1.224-1.638,4.422,4.422,0,0,1,2.329-.525,5.934,5.934,0,0,1,2.131.382V57.032H67.8V69.753H65.973v-.111A6.244,6.244,0,0,1,63.842,69.975Zm0-1.685a3.958,3.958,0,0,0,1.614-.246.753.753,0,0,0,.517-.676V63.615a2.418,2.418,0,0,0-.5-1.685,2.134,2.134,0,0,0-1.63-.541,2.168,2.168,0,0,0-1.272.318,1.789,1.789,0,0,0-.636,1.057,8.826,8.826,0,0,0-.191,2.091,8.721,8.721,0,0,0,.191,2.083,1.746,1.746,0,0,0,.636,1.041A2.211,2.211,0,0,0,63.842,68.29Zm16.664,1.463H78.661L78.9,57.032h1.685L83,62.995l2.417-5.963h1.7l.223,12.721H85.515l-.159-7.982-1.59,4.293H82.239l-1.59-4.293Zm9.4,3.117a3.231,3.231,0,0,1-1.081-.159,4.222,4.222,0,0,1-.986-.541l.731-1.542a8.4,8.4,0,0,0,.827.461,1.281,1.281,0,0,0,.509.1,2.252,2.252,0,0,0,.922-.159,1.493,1.493,0,0,0,.612-.549,4.916,4.916,0,0,0,.517-1.153l-3.291-9.4h1.908l2.353,7,2.385-7h1.924l-3.419,9.524a8.715,8.715,0,0,1-.97,2.035,3.058,3.058,0,0,1-1.2,1.057A4.083,4.083,0,0,1,89.9,72.869Zm16.314-15.837v1.685H100.27v4.2h3.8V64.6h-3.8v5.152H98.442V57.032Zm5.136,12.943a4.442,4.442,0,0,1-2.035-.39,2.275,2.275,0,0,1-1.081-1.264,6.876,6.876,0,0,1-.334-2.385v-6.01h1.829v6.01a6.008,6.008,0,0,0,.135,1.479,1.052,1.052,0,0,0,.477.684,2.12,2.12,0,0,0,1.01.191,5.055,5.055,0,0,0,1.471-.159,1.072,1.072,0,0,0,.676-.564,2.93,2.93,0,0,0,.191-1.2v-6.44h1.844v9.827H113.69v-.159A5.727,5.727,0,0,1,111.353,69.975Zm6.09-.223V59.926h1.829v.239a5.54,5.54,0,0,1,2.337-.461,4.729,4.729,0,0,1,2.091.374,2.153,2.153,0,0,1,1.057,1.256,7.641,7.641,0,0,1,.318,2.488v5.931h-1.844V63.822a5.519,5.519,0,0,0-.151-1.471,1.26,1.26,0,0,0-.493-.739,1.792,1.792,0,0,0-.978-.223,4.627,4.627,0,0,0-1.519.183,1.049,1.049,0,0,0-.652.644,4.516,4.516,0,0,0-.167,1.431v6.106Zm13.547.223a5.157,5.157,0,0,1-2.512-.517,2.937,2.937,0,0,1-1.328-1.63,11.222,11.222,0,0,1,0-5.979,2.919,2.919,0,0,1,1.344-1.63,5.333,5.333,0,0,1,2.56-.517,4.3,4.3,0,0,1,2.21.493,5,5,0,0,1,1.59,1.749l-1.526.906a6.475,6.475,0,0,0-.684-.922,1.564,1.564,0,0,0-.644-.421,3.85,3.85,0,0,0-2.465.191,1.687,1.687,0,0,0-.747,1.041,10.368,10.368,0,0,0,0,4.2,1.721,1.721,0,0,0,.723,1.041,2.871,2.871,0,0,0,1.479.31,2.979,2.979,0,0,0,.946-.127,1.771,1.771,0,0,0,.684-.437,6.288,6.288,0,0,0,.723-.93l1.511.922a5.179,5.179,0,0,1-1.63,1.765A4.376,4.376,0,0,1,130.99,69.975Zm10.288,0a3.757,3.757,0,0,1-1.86-.4,2.332,2.332,0,0,1-1.026-1.264,6.611,6.611,0,0,1-.326-2.282V61.421h-1.972V59.735h1.972v-2.7h1.829v2.7h3.291v1.685h-3.291v4.611a5.721,5.721,0,0,0,.127,1.375,1.13,1.13,0,0,0,.421.684,1.484,1.484,0,0,0,.835.2,3.234,3.234,0,0,0,.851-.079.629.629,0,0,0,.382-.286,3.927,3.927,0,0,0,.278-.716l1.717.588a3.646,3.646,0,0,1-.62,1.3,2.126,2.126,0,0,1-.994.676A5.17,5.17,0,0,1,141.278,69.975Zm9.842-10.049v8.141H153.9v1.685h-7.394V68.067h2.783V61.612h-2V59.926ZM149.864,58.5a1.6,1.6,0,0,1-1.089-.278,1.935,1.935,0,0,1,0-2.051,1.6,1.6,0,0,1,1.089-.278,1.637,1.637,0,0,1,1.1.278,1.892,1.892,0,0,1,0,2.051A1.637,1.637,0,0,1,149.864,58.5Zm9.461,11.48A4.422,4.422,0,0,1,157,69.451a2.933,2.933,0,0,1-1.224-1.638,12.017,12.017,0,0,1,0-5.947A2.933,2.933,0,0,1,157,60.228a5.451,5.451,0,0,1,4.667,0,2.921,2.921,0,0,1,1.232,1.638,12.018,12.018,0,0,1,0,5.947,2.921,2.921,0,0,1-1.232,1.638A4.466,4.466,0,0,1,159.325,69.975Zm0-1.685a2.25,2.25,0,0,0,1.28-.31,1.734,1.734,0,0,0,.644-1.049,11.552,11.552,0,0,0,0-4.182,1.734,1.734,0,0,0-.644-1.049,2.25,2.25,0,0,0-1.28-.31,2.211,2.211,0,0,0-1.272.31,1.751,1.751,0,0,0-.636,1.049,11.553,11.553,0,0,0,0,4.182,1.751,1.751,0,0,0,.636,1.049A2.211,2.211,0,0,0,159.325,68.29Zm5.82,1.463V59.926h1.829v.239a5.54,5.54,0,0,1,2.337-.461,4.729,4.729,0,0,1,2.091.374,2.153,2.153,0,0,1,1.057,1.256,7.641,7.641,0,0,1,.318,2.488v5.931h-1.844V63.822a5.52,5.52,0,0,0-.151-1.471,1.26,1.26,0,0,0-.493-.739,1.792,1.792,0,0,0-.978-.223,4.627,4.627,0,0,0-1.519.183,1.049,1.049,0,0,0-.652.644,4.515,4.515,0,0,0-.167,1.431v6.106ZM190.7,72.058a4.128,4.128,0,0,1-2.814-1.081,6.938,6.938,0,0,1-1.892-3.045,15.763,15.763,0,0,1,0-9.079,6.938,6.938,0,0,1,1.892-3.045,4.128,4.128,0,0,1,2.814-1.081v1.685a2.46,2.46,0,0,0-1.852.867,5.906,5.906,0,0,0-1.248,2.449,15.308,15.308,0,0,0,0,7.33,5.906,5.906,0,0,0,1.248,2.449,2.46,2.46,0,0,0,1.852.867Zm4.055-1.685a2.46,2.46,0,0,0,1.852-.867,5.906,5.906,0,0,0,1.248-2.449,15.308,15.308,0,0,0,0-7.33,5.906,5.906,0,0,0-1.248-2.449,2.46,2.46,0,0,0-1.852-.867V54.727a4.128,4.128,0,0,1,2.814,1.081,6.938,6.938,0,0,1,1.892,3.045,15.763,15.763,0,0,1,0,9.079,6.938,6.938,0,0,1-1.892,3.045,4.128,4.128,0,0,1-2.814,1.081Zm25.155,1.685a5.65,5.65,0,0,1-3.419-.819,3.091,3.091,0,0,1-1.065-2.616,8.558,8.558,0,0,1,.159-1.431,8.366,8.366,0,0,0,.127-1.081,1.777,1.777,0,0,0-.557-.922q-.557-.62-1.813-1.8,1.256-1.208,1.813-1.829a1.756,1.756,0,0,0,.557-.954,6.469,6.469,0,0,0-.127-.97,7.855,7.855,0,0,1-.159-1.463,3.114,3.114,0,0,1,1.065-2.624,5.609,5.609,0,0,1,3.419-.827v1.7a5.935,5.935,0,0,0-1.59.167,1.41,1.41,0,0,0-.827.557,1.983,1.983,0,0,0-.254,1.089,5.32,5.32,0,0,0,.159,1.224,4.159,4.159,0,0,1,.143.986,2.823,2.823,0,0,1-.429,1.487,5.9,5.9,0,0,1-1.352,1.455,5.656,5.656,0,0,1,1.359,1.415,2.74,2.74,0,0,1,.421,1.463,4.959,4.959,0,0,1-.127.97,6.332,6.332,0,0,0-.159,1.336,1.956,1.956,0,0,0,.246,1.065,1.388,1.388,0,0,0,.819.549,5.935,5.935,0,0,0,1.59.167ZM61.52,95.989V86.162h1.829V86.1q.127-.032.477-.1a3.513,3.513,0,0,1,.62-.064,2.249,2.249,0,0,1,.986.175,1.868,1.868,0,0,1,.668.636,2.077,2.077,0,0,1,1.813-.811,2.345,2.345,0,0,1,1.431.382,2.176,2.176,0,0,1,.731,1.256A10.353,10.353,0,0,1,70.3,90.01v5.979H68.469V90.01a8.473,8.473,0,0,0-.119-1.741q-.119-.485-.437-.485a.87.87,0,0,0-.851.445,3.862,3.862,0,0,0-.231,1.606v6.154H65V90.106a8.662,8.662,0,0,0-.127-1.8q-.127-.517-.429-.517a.887.887,0,0,0-.859.445,3.745,3.745,0,0,0-.239,1.606v6.154ZM72.81,99.105a3.232,3.232,0,0,1-1.081-.159,4.222,4.222,0,0,1-.986-.541l.731-1.542a8.4,8.4,0,0,0,.827.461,1.281,1.281,0,0,0,.509.1,2.252,2.252,0,0,0,.922-.159,1.493,1.493,0,0,0,.612-.549,4.916,4.916,0,0,0,.517-1.153l-3.291-9.4h1.908l2.353,7,2.385-7H80.14l-3.419,9.524a8.715,8.715,0,0,1-.97,2.035,3.058,3.058,0,0,1-1.2,1.057A4.084,4.084,0,0,1,72.81,99.105Zm15.98-3.117H81.635V83.268h1.829V94.3H88.79Zm7.076-9.827V94.3h2.783v1.685H91.255V94.3h2.783V87.848h-2V86.162ZM94.61,84.731a1.6,1.6,0,0,1-1.089-.278,1.935,1.935,0,0,1,0-2.051,1.6,1.6,0,0,1,1.089-.278,1.637,1.637,0,0,1,1.1.278,1.892,1.892,0,0,1,0,2.051A1.637,1.637,0,0,1,94.61,84.731Zm9.429,14.374a4.32,4.32,0,0,1-1.773-.3,3.89,3.89,0,0,1-1.312-1.081l1.336-1.145a2.817,2.817,0,0,0,.755.684,2.3,2.3,0,0,0,.994.159,3.049,3.049,0,0,0,1.24-.2,1.142,1.142,0,0,0,.6-.684,4.421,4.421,0,0,0,.175-1.423v-.032a5.934,5.934,0,0,1-2.131.382,4.412,4.412,0,0,1-2.337-.533,2.967,2.967,0,0,1-1.232-1.693,10.558,10.558,0,0,1-.374-3.132,6.17,6.17,0,0,1,.39-2.4,2.583,2.583,0,0,1,1.248-1.336,5.2,5.2,0,0,1,2.306-.429,6.713,6.713,0,0,1,2.131.318v-.1h1.829v8.809a6.383,6.383,0,0,1-.374,2.417,2.468,2.468,0,0,1-1.208,1.3A5.165,5.165,0,0,1,104.039,99.105Zm-.111-5.327a2.134,2.134,0,0,0,1.63-.541,2.418,2.418,0,0,0,.5-1.685V88.547a.753.753,0,0,0-.517-.676,3.958,3.958,0,0,0-1.614-.246,2.958,2.958,0,0,0-1.288.223,1.255,1.255,0,0,0-.628.755,4.828,4.828,0,0,0-.183,1.5,10.013,10.013,0,0,0,.191,2.242,1.858,1.858,0,0,0,.636,1.105A2.128,2.128,0,0,0,103.927,93.779Zm6.058,2.21V83.268h1.829v2.958a6.173,6.173,0,0,1,1.956-.286,4.187,4.187,0,0,1,2.258.525,2.949,2.949,0,0,1,1.193,1.685,10.914,10.914,0,0,1,.366,3.164v4.675h-1.829V91.314a10.753,10.753,0,0,0-.183-2.282,1.839,1.839,0,0,0-.6-1.1,1.993,1.993,0,0,0-1.208-.31,3.337,3.337,0,0,0-1.248.175.987.987,0,0,0-.557.636,5.04,5.04,0,0,0-.151,1.447v6.106Zm14.2.223a3.757,3.757,0,0,1-1.86-.4A2.332,2.332,0,0,1,121.3,94.55a6.611,6.611,0,0,1-.326-2.282V87.657H119V85.971h1.972v-2.7H122.8v2.7h3.291v1.685H122.8v4.611a5.72,5.72,0,0,0,.127,1.375,1.13,1.13,0,0,0,.421.684,1.484,1.484,0,0,0,.835.2,3.233,3.233,0,0,0,.851-.08.629.629,0,0,0,.382-.286,3.926,3.926,0,0,0,.278-.716l1.717.588a3.646,3.646,0,0,1-.62,1.3A2.126,2.126,0,0,1,125.8,96,5.17,5.17,0,0,1,124.185,96.211Zm8.507,0a1.665,1.665,0,0,1-1.137-.294,1.405,1.405,0,0,1-.31-1.041,1.432,1.432,0,0,1,.31-1.057,2.344,2.344,0,0,1,2.274,0,1.432,1.432,0,0,1,.31,1.057,1.405,1.405,0,0,1-.31,1.041A1.665,1.665,0,0,1,132.692,96.211Zm9.588-1.685a2.621,2.621,0,0,0,1.359-.326,4.037,4.037,0,0,0,1.137-1.153l1.463.97a5.242,5.242,0,0,1-1.678,1.717,4.666,4.666,0,0,1-2.282.477,5.451,5.451,0,0,1-2.52-.477,2.725,2.725,0,0,1-1.288-1.574,12.408,12.408,0,0,1,0-6.169,2.725,2.725,0,0,1,1.288-1.574,5.451,5.451,0,0,1,2.52-.477,4.921,4.921,0,0,1,2.473.517,2.906,2.906,0,0,1,1.264,1.725,11.752,11.752,0,0,1,.382,3.387h-6.472a5.919,5.919,0,0,0,.286,1.765,1.673,1.673,0,0,0,.731.914A2.722,2.722,0,0,0,142.28,94.526Zm0-6.9a2.382,2.382,0,0,0-1.685.5,2.725,2.725,0,0,0-.636,1.757h4.563a3.571,3.571,0,0,0-.207-1.36,1.265,1.265,0,0,0-.692-.692A3.518,3.518,0,0,0,142.28,87.625Zm5.772,8.364V86.162h1.829V86.4a5.54,5.54,0,0,1,2.337-.461,4.729,4.729,0,0,1,2.091.374,2.152,2.152,0,0,1,1.057,1.256,7.641,7.641,0,0,1,.318,2.488v5.931H153.84V90.058a5.52,5.52,0,0,0-.151-1.471,1.26,1.26,0,0,0-.493-.739,1.792,1.792,0,0,0-.978-.223,4.628,4.628,0,0,0-1.519.183,1.049,1.049,0,0,0-.652.644,4.515,4.515,0,0,0-.167,1.431v6.106Zm13.007.223a6.48,6.48,0,0,1-2.25-.318A2.218,2.218,0,0,1,157.6,94.9a3.731,3.731,0,0,1-.374-1.8,4.2,4.2,0,0,1,.374-1.964,2.038,2.038,0,0,1,1.193-.97,7.309,7.309,0,0,1,2.266-.278h2v-.35a2.557,2.557,0,0,0-.167-1.034.973.973,0,0,0-.6-.517,3.923,3.923,0,0,0-1.24-.151,2.956,2.956,0,0,0-1.018.135,1.024,1.024,0,0,0-.541.485,4.651,4.651,0,0,0-.366,1.065l-1.749-.429a6.385,6.385,0,0,1,.716-1.813,2.6,2.6,0,0,1,1.145-1.01,4.384,4.384,0,0,1,1.813-.326,4.071,4.071,0,0,1,2.95.882,3.692,3.692,0,0,1,.883,2.711v3.721a1.882,1.882,0,0,0,.127.859.59.59,0,0,0,.541.207q.127,0,.572-.032v1.685q-.191.016-.525.016a2.372,2.372,0,0,1-1.908-.636,2.407,2.407,0,0,1-1.065.66A5.345,5.345,0,0,1,161.058,96.211Zm0-1.685a3.163,3.163,0,0,0,1.24-.191,1.085,1.085,0,0,0,.6-.652,4.117,4.117,0,0,0,.167-1.336v-.779h-2a6.529,6.529,0,0,0-1.288.087.762.762,0,0,0-.541.4,2.456,2.456,0,0,0-.159,1.041,1.913,1.913,0,0,0,.159.882.92.92,0,0,0,.58.421A4.6,4.6,0,0,0,161.058,94.526Zm9.986,1.685a5.669,5.669,0,0,1-2.25-.374,4.183,4.183,0,0,1-1.582-1.312V83.268h1.829v3.021a5.6,5.6,0,0,1,2-.35,4.23,4.23,0,0,1,2.266.525,2.924,2.924,0,0,1,1.2,1.638,12.335,12.335,0,0,1,0,5.963,2.886,2.886,0,0,1-1.2,1.63A4.282,4.282,0,0,1,171.044,96.211Zm0-1.685a2.037,2.037,0,0,0,1.208-.31,1.751,1.751,0,0,0,.612-1.041,9.087,9.087,0,0,0,.183-2.083A9.2,9.2,0,0,0,172.865,89a1.8,1.8,0,0,0-.612-1.057,2,2,0,0,0-1.208-.318,3.278,3.278,0,0,0-1.248.183,1.061,1.061,0,0,0-.588.66,4.538,4.538,0,0,0-.167,1.415v4.055a2.006,2.006,0,0,0,.8.469A4.633,4.633,0,0,0,171.044,94.526Zm10.987,1.685a3.65,3.65,0,0,1-1.725-.334,1.886,1.886,0,0,1-.875-1.113,7.177,7.177,0,0,1-.262-2.194V84.954h-2V83.268H181v9.3a3.638,3.638,0,0,0,.223,1.534.834.834,0,0,0,.811.421,1.222,1.222,0,0,0,.612-.191,7.469,7.469,0,0,0,.914-.684l1.018,1.558a4.874,4.874,0,0,1-1.248.787A3.549,3.549,0,0,1,182.031,96.211Zm7.95-1.685a2.621,2.621,0,0,0,1.359-.326,4.037,4.037,0,0,0,1.137-1.153l1.463.97a5.242,5.242,0,0,1-1.678,1.717,4.666,4.666,0,0,1-2.282.477,5.45,5.45,0,0,1-2.52-.477,2.724,2.724,0,0,1-1.288-1.574,12.408,12.408,0,0,1,0-6.169,2.725,2.725,0,0,1,1.288-1.574,5.451,5.451,0,0,1,2.52-.477,4.921,4.921,0,0,1,2.473.517,2.906,2.906,0,0,1,1.264,1.725,11.752,11.752,0,0,1,.382,3.387h-6.472a5.919,5.919,0,0,0,.286,1.765,1.672,1.672,0,0,0,.731.914A2.722,2.722,0,0,0,189.982,94.526Zm0-6.9a2.382,2.382,0,0,0-1.685.5,2.725,2.725,0,0,0-.636,1.757h4.563a3.571,3.571,0,0,0-.207-1.36,1.265,1.265,0,0,0-.692-.692A3.518,3.518,0,0,0,189.982,87.625Zm9.413,8.586a4.477,4.477,0,0,1-2.329-.517,2.9,2.9,0,0,1-1.224-1.63,12.081,12.081,0,0,1,0-5.963,2.933,2.933,0,0,1,1.224-1.638,4.422,4.422,0,0,1,2.329-.525,5.934,5.934,0,0,1,2.131.382V83.268h1.829V95.989h-1.829v-.111A6.244,6.244,0,0,1,199.395,96.211Zm0-1.685a3.958,3.958,0,0,0,1.614-.246.753.753,0,0,0,.517-.676V89.851a2.417,2.417,0,0,0-.5-1.685,2.133,2.133,0,0,0-1.63-.541,2.168,2.168,0,0,0-1.272.318A1.79,1.79,0,0,0,197.487,89a8.827,8.827,0,0,0-.191,2.091,8.722,8.722,0,0,0,.191,2.083,1.746,1.746,0,0,0,.636,1.041A2.211,2.211,0,0,0,199.395,94.526Zm23.771-5.963h-9.222V86.878h9.222Zm0,3.816h-9.222V90.694h9.222Zm15.392-.779H236.73l-.159-8.332h2.147Zm-.922,4.611a1.665,1.665,0,0,1-1.137-.294,1.405,1.405,0,0,1-.31-1.041,1.432,1.432,0,0,1,.31-1.057,2.344,2.344,0,0,1,2.274,0,1.432,1.432,0,0,1,.31,1.057,1.405,1.405,0,0,1-.31,1.041A1.665,1.665,0,0,1,237.636,96.211Zm5.152-.223V86.162h1.829V86.1q.127-.032.477-.1a3.513,3.513,0,0,1,.62-.064,2.249,2.249,0,0,1,.986.175,1.868,1.868,0,0,1,.668.636,2.077,2.077,0,0,1,1.813-.811,2.345,2.345,0,0,1,1.431.382,2.176,2.176,0,0,1,.731,1.256,10.352,10.352,0,0,1,.223,2.433v5.979h-1.829V90.01a8.471,8.471,0,0,0-.119-1.741q-.119-.485-.437-.485a.87.87,0,0,0-.851.445,3.862,3.862,0,0,0-.231,1.606v6.154H246.27V90.106a8.662,8.662,0,0,0-.127-1.8q-.127-.517-.429-.517a.887.887,0,0,0-.859.445,3.745,3.745,0,0,0-.239,1.606v6.154Zm11.289,3.117A3.232,3.232,0,0,1,253,98.946a4.222,4.222,0,0,1-.986-.541l.731-1.542a8.4,8.4,0,0,0,.827.461,1.281,1.281,0,0,0,.509.1,2.252,2.252,0,0,0,.922-.159,1.493,1.493,0,0,0,.612-.549,4.915,4.915,0,0,0,.517-1.153l-3.291-9.4h1.908l2.353,7,2.385-7h1.924l-3.419,9.524a8.714,8.714,0,0,1-.97,2.035,3.058,3.058,0,0,1-1.2,1.057A4.084,4.084,0,0,1,254.077,99.105Zm15.98-3.117H262.9V83.268h1.829V94.3h5.327Zm7.076-9.827V94.3h2.783v1.685h-7.394V94.3H275.3V87.848h-2V86.162Zm-1.256-1.431a1.6,1.6,0,0,1-1.089-.278,1.935,1.935,0,0,1,0-2.051,1.6,1.6,0,0,1,1.089-.278,1.637,1.637,0,0,1,1.1.278,1.892,1.892,0,0,1,0,2.051A1.637,1.637,0,0,1,275.877,84.731Zm9.429,14.374a4.32,4.32,0,0,1-1.773-.3,3.89,3.89,0,0,1-1.312-1.081l1.336-1.145a2.818,2.818,0,0,0,.755.684,2.3,2.3,0,0,0,.994.159,3.049,3.049,0,0,0,1.24-.2,1.142,1.142,0,0,0,.6-.684,4.421,4.421,0,0,0,.175-1.423v-.032a5.934,5.934,0,0,1-2.131.382,4.412,4.412,0,0,1-2.337-.533,2.967,2.967,0,0,1-1.232-1.693,10.559,10.559,0,0,1-.374-3.132,6.17,6.17,0,0,1,.39-2.4,2.583,2.583,0,0,1,1.248-1.336,5.2,5.2,0,0,1,2.306-.429,6.713,6.713,0,0,1,2.131.318v-.1h1.829v8.809a6.383,6.383,0,0,1-.374,2.417,2.468,2.468,0,0,1-1.208,1.3A5.165,5.165,0,0,1,285.306,99.105Zm-.111-5.327a2.134,2.134,0,0,0,1.63-.541,2.417,2.417,0,0,0,.5-1.685V88.547a.753.753,0,0,0-.517-.676,3.958,3.958,0,0,0-1.614-.246,2.958,2.958,0,0,0-1.288.223,1.255,1.255,0,0,0-.628.755,4.827,4.827,0,0,0-.183,1.5,10.013,10.013,0,0,0,.191,2.242,1.858,1.858,0,0,0,.636,1.105A2.128,2.128,0,0,0,285.195,93.779Zm6.058,2.21V83.268h1.829v2.958a6.173,6.173,0,0,1,1.956-.286,4.187,4.187,0,0,1,2.258.525,2.949,2.949,0,0,1,1.193,1.685,10.916,10.916,0,0,1,.366,3.164v4.675h-1.829V91.314a10.752,10.752,0,0,0-.183-2.282,1.839,1.839,0,0,0-.6-1.1,1.993,1.993,0,0,0-1.208-.31,3.337,3.337,0,0,0-1.248.175.987.987,0,0,0-.557.636,5.04,5.04,0,0,0-.151,1.447v6.106Zm14.2.223a3.757,3.757,0,0,1-1.86-.4,2.332,2.332,0,0,1-1.026-1.264,6.61,6.61,0,0,1-.326-2.282V87.657h-1.972V85.971h1.972v-2.7h1.829v2.7h3.291v1.685h-3.291v4.611a5.722,5.722,0,0,0,.127,1.375,1.13,1.13,0,0,0,.421.684,1.484,1.484,0,0,0,.835.2,3.233,3.233,0,0,0,.851-.08.629.629,0,0,0,.382-.286,3.928,3.928,0,0,0,.278-.716l1.717.588a3.646,3.646,0,0,1-.62,1.3,2.126,2.126,0,0,1-.994.676A5.17,5.17,0,0,1,305.452,96.211Zm8.507,0a1.665,1.665,0,0,1-1.137-.294,1.405,1.405,0,0,1-.31-1.041,1.432,1.432,0,0,1,.31-1.057,2.344,2.344,0,0,1,2.274,0,1.432,1.432,0,0,1,.31,1.057,1.405,1.405,0,0,1-.31,1.041A1.665,1.665,0,0,1,313.959,96.211Zm9.588-1.685a2.621,2.621,0,0,0,1.359-.326,4.037,4.037,0,0,0,1.137-1.153l1.463.97a5.242,5.242,0,0,1-1.678,1.717,4.666,4.666,0,0,1-2.282.477,5.451,5.451,0,0,1-2.52-.477,2.724,2.724,0,0,1-1.288-1.574,12.407,12.407,0,0,1,0-6.169,2.724,2.724,0,0,1,1.288-1.574,5.451,5.451,0,0,1,2.52-.477,4.921,4.921,0,0,1,2.473.517,2.906,2.906,0,0,1,1.264,1.725,11.752,11.752,0,0,1,.382,3.387h-6.472a5.919,5.919,0,0,0,.286,1.765,1.673,1.673,0,0,0,.731.914A2.722,2.722,0,0,0,323.547,94.526Zm0-6.9a2.382,2.382,0,0,0-1.685.5,2.725,2.725,0,0,0-.636,1.757h4.564a3.57,3.57,0,0,0-.207-1.36,1.265,1.265,0,0,0-.692-.692A3.517,3.517,0,0,0,323.547,87.625Zm5.772,8.364V86.162h1.829V86.4a5.54,5.54,0,0,1,2.337-.461,4.729,4.729,0,0,1,2.091.374,2.153,2.153,0,0,1,1.057,1.256,7.641,7.641,0,0,1,.318,2.488v5.931h-1.844V90.058a5.52,5.52,0,0,0-.151-1.471,1.26,1.26,0,0,0-.493-.739,1.793,1.793,0,0,0-.978-.223,4.628,4.628,0,0,0-1.519.183,1.049,1.049,0,0,0-.652.644,4.515,4.515,0,0,0-.167,1.431v6.106Zm13.007.223a6.48,6.48,0,0,1-2.25-.318,2.218,2.218,0,0,1-1.208-.994,3.731,3.731,0,0,1-.374-1.8,4.2,4.2,0,0,1,.374-1.964,2.038,2.038,0,0,1,1.193-.97,7.31,7.31,0,0,1,2.266-.278h2v-.35a2.557,2.557,0,0,0-.167-1.034.973.973,0,0,0-.6-.517,3.923,3.923,0,0,0-1.24-.151,2.957,2.957,0,0,0-1.018.135,1.025,1.025,0,0,0-.541.485,4.652,4.652,0,0,0-.366,1.065l-1.749-.429a6.384,6.384,0,0,1,.716-1.813,2.6,2.6,0,0,1,1.145-1.01,4.384,4.384,0,0,1,1.813-.326,4.071,4.071,0,0,1,2.95.882,3.692,3.692,0,0,1,.882,2.711v3.721a1.882,1.882,0,0,0,.127.859.59.59,0,0,0,.541.207q.127,0,.572-.032v1.685q-.191.016-.525.016a2.372,2.372,0,0,1-1.908-.636,2.407,2.407,0,0,1-1.065.66A5.346,5.346,0,0,1,342.326,96.211Zm0-1.685a3.163,3.163,0,0,0,1.24-.191,1.085,1.085,0,0,0,.6-.652,4.117,4.117,0,0,0,.167-1.336v-.779h-2a6.529,6.529,0,0,0-1.288.087.761.761,0,0,0-.541.4,2.456,2.456,0,0,0-.159,1.041,1.913,1.913,0,0,0,.159.882.92.92,0,0,0,.58.421A4.6,4.6,0,0,0,342.326,94.526Zm9.986,1.685a5.668,5.668,0,0,1-2.25-.374,4.182,4.182,0,0,1-1.582-1.312V83.268h1.829v3.021a5.6,5.6,0,0,1,2-.35,4.229,4.229,0,0,1,2.266.525,2.924,2.924,0,0,1,1.2,1.638,12.334,12.334,0,0,1,0,5.963,2.886,2.886,0,0,1-1.2,1.63A4.282,4.282,0,0,1,352.311,96.211Zm0-1.685a2.037,2.037,0,0,0,1.208-.31,1.751,1.751,0,0,0,.612-1.041,9.087,9.087,0,0,0,.183-2.083A9.2,9.2,0,0,0,354.132,89a1.8,1.8,0,0,0-.612-1.057,2,2,0,0,0-1.208-.318,3.278,3.278,0,0,0-1.248.183,1.061,1.061,0,0,0-.588.66,4.537,4.537,0,0,0-.167,1.415v4.055a2.006,2.006,0,0,0,.8.469A4.633,4.633,0,0,0,352.311,94.526ZM363.3,96.211a3.65,3.65,0,0,1-1.725-.334,1.886,1.886,0,0,1-.875-1.113,7.177,7.177,0,0,1-.262-2.194V84.954h-2V83.268h3.832v9.3a3.637,3.637,0,0,0,.223,1.534.834.834,0,0,0,.811.421,1.222,1.222,0,0,0,.612-.191,7.469,7.469,0,0,0,.914-.684l1.018,1.558a4.875,4.875,0,0,1-1.248.787A3.55,3.55,0,0,1,363.3,96.211Zm7.95-1.685a2.621,2.621,0,0,0,1.359-.326,4.038,4.038,0,0,0,1.137-1.153l1.463.97a5.242,5.242,0,0,1-1.678,1.717,4.666,4.666,0,0,1-2.282.477,5.451,5.451,0,0,1-2.52-.477,2.725,2.725,0,0,1-1.288-1.574,12.407,12.407,0,0,1,0-6.169,2.725,2.725,0,0,1,1.288-1.574,5.451,5.451,0,0,1,2.52-.477,4.921,4.921,0,0,1,2.473.517,2.906,2.906,0,0,1,1.264,1.725,11.753,11.753,0,0,1,.382,3.387H368.9a5.918,5.918,0,0,0,.286,1.765,1.673,1.673,0,0,0,.731.914A2.722,2.722,0,0,0,371.249,94.526Zm0-6.9a2.382,2.382,0,0,0-1.685.5,2.725,2.725,0,0,0-.636,1.757h4.564a3.57,3.57,0,0,0-.207-1.36,1.265,1.265,0,0,0-.692-.692A3.518,3.518,0,0,0,371.249,87.625Zm9.413,8.586a4.477,4.477,0,0,1-2.329-.517,2.9,2.9,0,0,1-1.224-1.63,12.08,12.08,0,0,1,0-5.963,2.933,2.933,0,0,1,1.224-1.638,4.422,4.422,0,0,1,2.329-.525,5.934,5.934,0,0,1,2.131.382V83.268h1.829V95.989h-1.829v-.111A6.244,6.244,0,0,1,380.662,96.211Zm0-1.685a3.958,3.958,0,0,0,1.614-.246.753.753,0,0,0,.517-.676V89.851a2.417,2.417,0,0,0-.5-1.685,2.134,2.134,0,0,0-1.63-.541,2.168,2.168,0,0,0-1.272.318A1.789,1.789,0,0,0,378.754,89a8.825,8.825,0,0,0-.191,2.091,8.72,8.72,0,0,0,.191,2.083,1.746,1.746,0,0,0,.636,1.041A2.211,2.211,0,0,0,380.662,94.526Zm7.791,4.579a13.572,13.572,0,0,0,1.121-1.733,2.585,2.585,0,0,0,.31-1.145,1,1,0,0,1-.827-.286,1.827,1.827,0,0,1-.223-1.065,1.432,1.432,0,0,1,.31-1.057,2.344,2.344,0,0,1,2.274,0,1.432,1.432,0,0,1,.31,1.057,5.11,5.11,0,0,1-.405,2.091,9.066,9.066,0,0,1-1.471,2.139Zm1.829-10.51a1.665,1.665,0,0,1-1.137-.294,1.405,1.405,0,0,1-.31-1.041,1.432,1.432,0,0,1,.31-1.057,2.344,2.344,0,0,1,2.274,0,1.431,1.431,0,0,1,.31,1.057,1.405,1.405,0,0,1-.31,1.041A1.665,1.665,0,0,1,390.282,88.595ZM31.961,122.829a5.935,5.935,0,0,0,1.59-.167,1.425,1.425,0,0,0,.827-.549,1.907,1.907,0,0,0,.254-1.065,6.332,6.332,0,0,0-.159-1.336,4.959,4.959,0,0,1-.127-.97,2.779,2.779,0,0,1,.413-1.463,5.513,5.513,0,0,1,1.352-1.415,5.538,5.538,0,0,1-1.344-1.439,2.89,2.89,0,0,1-.421-1.5,4.159,4.159,0,0,1,.143-.986,5.32,5.32,0,0,0,.159-1.224,1.983,1.983,0,0,0-.254-1.089,1.414,1.414,0,0,0-.835-.557,6.027,6.027,0,0,0-1.6-.167v-1.7a5.646,5.646,0,0,1,3.427.827,3.1,3.1,0,0,1,1.073,2.624,7.854,7.854,0,0,1-.159,1.463,6.468,6.468,0,0,0-.127.97,1.819,1.819,0,0,0,.557.97q.557.636,1.8,1.813-1.224,1.145-1.789,1.781a1.835,1.835,0,0,0-.564.938,8.364,8.364,0,0,0,.127,1.081,8.557,8.557,0,0,1,.159,1.431,3.08,3.08,0,0,1-1.073,2.616,5.689,5.689,0,0,1-3.427.819ZM1.352,149.065a5.935,5.935,0,0,0,1.59-.167,1.425,1.425,0,0,0,.827-.549,1.907,1.907,0,0,0,.254-1.065,6.332,6.332,0,0,0-.159-1.336,4.959,4.959,0,0,1-.127-.97,2.779,2.779,0,0,1,.413-1.463A5.513,5.513,0,0,1,5.5,142.1a5.538,5.538,0,0,1-1.344-1.439,2.89,2.89,0,0,1-.421-1.5,4.159,4.159,0,0,1,.143-.986,5.32,5.32,0,0,0,.159-1.224,1.983,1.983,0,0,0-.254-1.089,1.414,1.414,0,0,0-.835-.557,6.028,6.028,0,0,0-1.6-.167v-1.7a5.646,5.646,0,0,1,3.427.827,3.1,3.1,0,0,1,1.073,2.624,7.855,7.855,0,0,1-.159,1.463,6.468,6.468,0,0,0-.127.97,1.818,1.818,0,0,0,.557.97q.557.636,1.8,1.813-1.224,1.145-1.789,1.781a1.835,1.835,0,0,0-.564.938,8.364,8.364,0,0,0,.127,1.081,8.557,8.557,0,0,1,.159,1.431,3.08,3.08,0,0,1-1.073,2.616,5.689,5.689,0,0,1-3.427.819Z" transform="translate(604.156 8479.745)" fill="#12263f"/>
  </g>
</svg>
