<svg xmlns="http://www.w3.org/2000/svg" width="610" height="225" viewBox="0 0 610 225">
  <g id="Grupo_168059" data-name="Grupo 168059" transform="translate(-495 -20953)">
    <g id="Rectángulo_342138" data-name="Rectángulo 342138" transform="translate(495 20953)" fill="#8979f3" stroke="#707070" stroke-width="1" opacity="0.25">
      <rect width="610" height="225" rx="25" stroke="none"/>
      <rect x="0.5" y="0.5" width="609" height="224" rx="24.5" fill="none"/>
    </g>
    <path id="Trazado_688370" data-name="Trazado 688370" d="M5.692,17.636H4L.386,7.577H2.323l2.523,7.276L7.418,7.577H9.338Zm8.936.228a4.526,4.526,0,0,1-2.385-.537A3,3,0,0,1,10.99,15.65a9.836,9.836,0,0,1-.383-3.044,9.836,9.836,0,0,1,.383-3.044,3,3,0,0,1,1.253-1.677,4.526,4.526,0,0,1,2.385-.537,4.571,4.571,0,0,1,2.393.537,2.99,2.99,0,0,1,1.261,1.677,9.836,9.836,0,0,1,.383,3.044,9.836,9.836,0,0,1-.383,3.044,2.99,2.99,0,0,1-1.261,1.677A4.571,4.571,0,0,1,14.628,17.864Zm0-1.725a2.3,2.3,0,0,0,1.31-.317,1.775,1.775,0,0,0,.659-1.074,9.035,9.035,0,0,0,.2-2.14,9.035,9.035,0,0,0-.2-2.14,1.775,1.775,0,0,0-.659-1.074,2.3,2.3,0,0,0-1.31-.317,2.263,2.263,0,0,0-1.3.317,1.793,1.793,0,0,0-.651,1.074,9.035,9.035,0,0,0-.2,2.14,9.035,9.035,0,0,0,.2,2.14,1.793,1.793,0,0,0,.651,1.074A2.263,2.263,0,0,0,14.628,16.139ZM25.762,7.577v8.334H28.61v1.725H21.041V15.911H23.89V9.3H21.839V7.577ZM24.476,6.112a1.641,1.641,0,0,1-1.115-.285,1.427,1.427,0,0,1-.3-1.05,1.427,1.427,0,0,1,.3-1.05,1.641,1.641,0,0,1,1.115-.285,1.676,1.676,0,0,1,1.123.285,1.4,1.4,0,0,1,.309,1.05,1.4,1.4,0,0,1-.309,1.05A1.676,1.676,0,0,1,24.476,6.112Zm9.6,11.752a4.583,4.583,0,0,1-2.385-.529,2.965,2.965,0,0,1-1.253-1.668,9.836,9.836,0,0,1-.383-3.044,9.9,9.9,0,0,1,.383-3.06,3,3,0,0,1,1.253-1.677,4.526,4.526,0,0,1,2.385-.537,6.074,6.074,0,0,1,2.181.391V4.615h1.872V17.636H36.26v-.114A6.392,6.392,0,0,1,34.079,17.864Zm0-1.725a4.052,4.052,0,0,0,1.652-.252.771.771,0,0,0,.529-.692V11.353a2.475,2.475,0,0,0-.513-1.725,2.184,2.184,0,0,0-1.668-.553,2.219,2.219,0,0,0-1.3.326,1.832,1.832,0,0,0-.651,1.082,9.035,9.035,0,0,0-.2,2.14,8.928,8.928,0,0,0,.2,2.132,1.787,1.787,0,0,0,.651,1.066A2.263,2.263,0,0,0,34.079,16.139Zm19.613,1.725a4.654,4.654,0,0,1-2.564-.61,3.387,3.387,0,0,1-1.343-1.929,12.436,12.436,0,0,1-.407-3.548v-1.3a12.436,12.436,0,0,1,.407-3.548A3.387,3.387,0,0,1,51.129,5a5.689,5.689,0,0,1,5.127,0,3.422,3.422,0,0,1,1.351,1.929,12.205,12.205,0,0,1,.415,3.548v1.3a12.205,12.205,0,0,1-.415,3.548,3.422,3.422,0,0,1-1.351,1.929A4.654,4.654,0,0,1,53.692,17.864Zm0-1.725a2.394,2.394,0,0,0,1.481-.4,2.259,2.259,0,0,0,.741-1.327,12.115,12.115,0,0,0,.22-2.637v-1.3a12.115,12.115,0,0,0-.22-2.637,2.259,2.259,0,0,0-.741-1.327,2.95,2.95,0,0,0-2.962,0,2.259,2.259,0,0,0-.741,1.327,12.115,12.115,0,0,0-.22,2.637v1.3a11.253,11.253,0,0,0,.212,2.629,2.3,2.3,0,0,0,.749,1.335A2.394,2.394,0,0,0,53.692,16.139Zm5.957,1.5V7.577h1.872v.244a5.671,5.671,0,0,1,2.393-.472,4.841,4.841,0,0,1,2.14.383,2.2,2.2,0,0,1,1.082,1.286,7.821,7.821,0,0,1,.326,2.547v6.071H65.574V11.565a5.65,5.65,0,0,0-.155-1.506,1.289,1.289,0,0,0-.5-.757,1.835,1.835,0,0,0-1-.228,4.737,4.737,0,0,0-1.554.187,1.073,1.073,0,0,0-.667.659,4.622,4.622,0,0,0-.171,1.465v6.25Zm13.819.228a4.517,4.517,0,0,1-2.637-.675,3.78,3.78,0,0,1-1.384-2.132,14.681,14.681,0,0,1-.423-3.947,14.6,14.6,0,0,1,.423-3.931,3.739,3.739,0,0,1,1.384-2.124,4.559,4.559,0,0,1,2.637-.667,4.976,4.976,0,0,1,1.937.326,2.842,2.842,0,0,1,1.261,1.066A7.1,7.1,0,0,1,77.521,7.8l-1.774.619a7.547,7.547,0,0,0-.537-1.457,1.491,1.491,0,0,0-.651-.667,2.576,2.576,0,0,0-1.091-.187,2.367,2.367,0,0,0-1.546.456,2.657,2.657,0,0,0-.789,1.53,14.816,14.816,0,0,0-.236,3.011,14.923,14.923,0,0,0,.236,3.027,2.7,2.7,0,0,0,.789,1.538,2.338,2.338,0,0,0,1.546.464,2.576,2.576,0,0,0,1.091-.187,1.5,1.5,0,0,0,.651-.651,7.091,7.091,0,0,0,.537-1.424l1.774.6a6.979,6.979,0,0,1-.855,2,2.867,2.867,0,0,1-1.253,1.058A4.963,4.963,0,0,1,73.469,17.864Zm9.522,0a4.526,4.526,0,0,1-2.385-.537,3,3,0,0,1-1.253-1.677,9.836,9.836,0,0,1-.382-3.044,9.836,9.836,0,0,1,.382-3.044,3,3,0,0,1,1.253-1.677,5.58,5.58,0,0,1,4.777,0,2.99,2.99,0,0,1,1.261,1.677,9.836,9.836,0,0,1,.382,3.044,9.836,9.836,0,0,1-.382,3.044,2.99,2.99,0,0,1-1.261,1.677A4.571,4.571,0,0,1,82.99,17.864Zm0-1.725a2.3,2.3,0,0,0,1.31-.317,1.775,1.775,0,0,0,.659-1.074,9.035,9.035,0,0,0,.2-2.14,9.035,9.035,0,0,0-.2-2.14A1.775,1.775,0,0,0,84.3,9.392a2.3,2.3,0,0,0-1.31-.317,2.263,2.263,0,0,0-1.3.317,1.793,1.793,0,0,0-.651,1.074,9.035,9.035,0,0,0-.2,2.14,9.035,9.035,0,0,0,.2,2.14,1.793,1.793,0,0,0,.651,1.074A2.263,2.263,0,0,0,82.99,16.139Zm11.443,1.725a3.736,3.736,0,0,1-1.766-.342,1.931,1.931,0,0,1-.9-1.139,7.347,7.347,0,0,1-.269-2.246V6.34H89.452V4.615h3.923v9.522a3.724,3.724,0,0,0,.228,1.571.854.854,0,0,0,.83.431,1.251,1.251,0,0,0,.627-.2,7.646,7.646,0,0,0,.936-.7l1.042,1.6a4.99,4.99,0,0,1-1.278.806A3.634,3.634,0,0,1,94.433,17.864Zm9.766,0a3.736,3.736,0,0,1-1.766-.342,1.931,1.931,0,0,1-.9-1.139,7.347,7.347,0,0,1-.269-2.246V6.34H99.218V4.615h3.923v9.522a3.724,3.724,0,0,0,.228,1.571.854.854,0,0,0,.83.431,1.251,1.251,0,0,0,.627-.2,7.646,7.646,0,0,0,.936-.7l1.042,1.6a4.99,4.99,0,0,1-1.278.806A3.634,3.634,0,0,1,104.2,17.864Zm9.457-10.287v8.334H116.5v1.725h-7.569V15.911h2.848V9.3h-2.051V7.577ZM112.37,6.112a1.641,1.641,0,0,1-1.115-.285,1.427,1.427,0,0,1-.3-1.05,1.427,1.427,0,0,1,.3-1.05,1.641,1.641,0,0,1,1.115-.285,1.676,1.676,0,0,1,1.123.285,1.4,1.4,0,0,1,.309,1.05,1.4,1.4,0,0,1-.309,1.05A1.676,1.676,0,0,1,112.37,6.112Zm9.278,11.752a4.046,4.046,0,0,1-2.14-.488,4.228,4.228,0,0,1-1.424-1.725l1.481-1.221a6.875,6.875,0,0,0,.562,1.091,1.286,1.286,0,0,0,.578.48,2.588,2.588,0,0,0,.944.138,8.176,8.176,0,0,0,1.693-.13,1.255,1.255,0,0,0,.781-.431,1.506,1.506,0,0,0,.212-.871,1.554,1.554,0,0,0-.171-.83,1.053,1.053,0,0,0-.61-.391,10.436,10.436,0,0,0-1.481-.26,6.411,6.411,0,0,1-2.848-.871,2.262,2.262,0,0,1-.879-1.978,3.3,3.3,0,0,1,.407-1.75,2.366,2.366,0,0,1,1.3-.968,7.593,7.593,0,0,1,2.409-.309,4.822,4.822,0,0,1,2.23.423,3.931,3.931,0,0,1,1.449,1.5L124.773,10.6a6,6,0,0,0-.619-.977,1.373,1.373,0,0,0-.635-.431,3.57,3.57,0,0,0-1.058-.122,6.526,6.526,0,0,0-1.408.114,1.025,1.025,0,0,0-.659.391,1.472,1.472,0,0,0-.179.8.8.8,0,0,0,.2.586,1.238,1.238,0,0,0,.586.293q.391.1,1.2.212a11.5,11.5,0,0,1,2.4.562,2.411,2.411,0,0,1,1.237.96,3.288,3.288,0,0,1,.382,1.717,3.327,3.327,0,0,1-.448,1.831,2.567,2.567,0,0,1-1.449,1.009A9.133,9.133,0,0,1,121.648,17.864Zm11.54-10.287v8.334h2.848v1.725h-7.569V15.911h2.848V9.3h-2.051V7.577ZM131.9,6.112a1.641,1.641,0,0,1-1.115-.285,1.427,1.427,0,0,1-.3-1.05,1.427,1.427,0,0,1,.3-1.05,1.641,1.641,0,0,1,1.115-.285,1.676,1.676,0,0,1,1.123.285,1.4,1.4,0,0,1,.309,1.05,1.4,1.4,0,0,1-.309,1.05A1.676,1.676,0,0,1,131.9,6.112Zm9.685,11.752a4.526,4.526,0,0,1-2.385-.537,3,3,0,0,1-1.253-1.677,9.836,9.836,0,0,1-.382-3.044,9.836,9.836,0,0,1,.382-3.044A3,3,0,0,1,139.2,7.886a5.58,5.58,0,0,1,4.777,0,2.99,2.99,0,0,1,1.261,1.677,9.836,9.836,0,0,1,.382,3.044,9.836,9.836,0,0,1-.382,3.044,2.99,2.99,0,0,1-1.261,1.677A4.571,4.571,0,0,1,141.587,17.864Zm0-1.725a2.3,2.3,0,0,0,1.31-.317,1.775,1.775,0,0,0,.659-1.074,9.036,9.036,0,0,0,.2-2.14,9.036,9.036,0,0,0-.2-2.14,1.775,1.775,0,0,0-.659-1.074,2.3,2.3,0,0,0-1.31-.317,2.263,2.263,0,0,0-1.3.317,1.793,1.793,0,0,0-.651,1.074,9.036,9.036,0,0,0-.2,2.14,9.036,9.036,0,0,0,.2,2.14,1.793,1.793,0,0,0,.651,1.074A2.263,2.263,0,0,0,141.587,16.139Zm5.957,1.5V7.577h1.872v.244a5.671,5.671,0,0,1,2.393-.472,4.841,4.841,0,0,1,2.14.383,2.2,2.2,0,0,1,1.082,1.286,7.821,7.821,0,0,1,.326,2.547v6.071h-1.888V11.565a5.65,5.65,0,0,0-.155-1.506,1.289,1.289,0,0,0-.5-.757,1.835,1.835,0,0,0-1-.228,4.737,4.737,0,0,0-1.554.187,1.073,1.073,0,0,0-.667.659,4.622,4.622,0,0,0-.171,1.465v6.25Zm17.79-13.021V6.34h-6.087V9.888h3.906v1.725h-3.906v4.3h6.087v1.725h-7.959V4.615Zm1.742,13.021V7.577h1.872v.244a5.671,5.671,0,0,1,2.393-.472,4.841,4.841,0,0,1,2.14.383,2.2,2.2,0,0,1,1.082,1.286,7.821,7.821,0,0,1,.326,2.547v6.071H173V11.565a5.65,5.65,0,0,0-.155-1.506,1.289,1.289,0,0,0-.5-.757,1.835,1.835,0,0,0-1-.228,4.737,4.737,0,0,0-1.554.187,1.073,1.073,0,0,0-.667.659,4.622,4.622,0,0,0-.171,1.465v6.25Zm14.633.228a3.846,3.846,0,0,1-1.9-.407,2.387,2.387,0,0,1-1.05-1.294,6.766,6.766,0,0,1-.334-2.336V9.107H176.4V7.382h2.018V4.615h1.872V7.382h3.369V9.107h-3.369v4.72a5.855,5.855,0,0,0,.13,1.408,1.157,1.157,0,0,0,.431.7,1.519,1.519,0,0,0,.855.2,3.31,3.31,0,0,0,.871-.081.644.644,0,0,0,.391-.293,4.02,4.02,0,0,0,.285-.732l1.758.6a3.732,3.732,0,0,1-.635,1.327,2.176,2.176,0,0,1-1.017.692A5.292,5.292,0,0,1,181.709,17.864Zm8.757-1.725a2.683,2.683,0,0,0,1.392-.334,4.133,4.133,0,0,0,1.164-1.18l1.5.993a5.366,5.366,0,0,1-1.717,1.758,4.777,4.777,0,0,1-2.336.488,5.579,5.579,0,0,1-2.58-.488,2.789,2.789,0,0,1-1.318-1.611,9.822,9.822,0,0,1-.4-3.158,9.822,9.822,0,0,1,.4-3.158,2.789,2.789,0,0,1,1.318-1.611,5.58,5.58,0,0,1,2.58-.488A5.037,5.037,0,0,1,193,7.878a2.974,2.974,0,0,1,1.294,1.766,12.03,12.03,0,0,1,.391,3.467h-6.625a6.059,6.059,0,0,0,.293,1.807,1.712,1.712,0,0,0,.749.936A2.786,2.786,0,0,0,190.465,16.139Zm0-7.064a2.438,2.438,0,0,0-1.725.513,2.789,2.789,0,0,0-.651,1.8h4.671a3.655,3.655,0,0,0-.212-1.392,1.3,1.3,0,0,0-.708-.708A3.6,3.6,0,0,0,190.465,9.074Zm6.348,8.562V7.577h1.872v.83a3.578,3.578,0,0,1,1.009-.741,2.881,2.881,0,0,1,1.335-.317,4.168,4.168,0,0,1,1.563.252,2.616,2.616,0,0,1,1.066.814,5.5,5.5,0,0,1,.806,1.554l-1.677.765a5.832,5.832,0,0,0-.423-1.058,1.063,1.063,0,0,0-.5-.472,2.169,2.169,0,0,0-.838-.13,1.954,1.954,0,0,0-1.807.871,4.866,4.866,0,0,0-.537,2.531v5.16ZM222.531,20a4.225,4.225,0,0,1-2.881-1.107,7.1,7.1,0,0,1-1.937-3.117,14.424,14.424,0,0,1-.684-4.647,14.424,14.424,0,0,1,.684-4.647,7.1,7.1,0,0,1,1.937-3.117,4.225,4.225,0,0,1,2.881-1.107V3.98a2.518,2.518,0,0,0-1.9.887,6.045,6.045,0,0,0-1.278,2.507,13.9,13.9,0,0,0-.456,3.752,13.9,13.9,0,0,0,.456,3.752,6.045,6.045,0,0,0,1.278,2.507,2.518,2.518,0,0,0,1.9.887Zm7.194-2.132a4.516,4.516,0,0,1-2.637-.675,3.78,3.78,0,0,1-1.384-2.132,14.681,14.681,0,0,1-.423-3.947,14.6,14.6,0,0,1,.423-3.931,3.739,3.739,0,0,1,1.384-2.124,4.558,4.558,0,0,1,2.637-.667,4.976,4.976,0,0,1,1.937.326,2.842,2.842,0,0,1,1.261,1.066,7.1,7.1,0,0,1,.855,2.026L232,8.423a7.545,7.545,0,0,0-.537-1.457,1.491,1.491,0,0,0-.651-.667,2.576,2.576,0,0,0-1.091-.187,2.367,2.367,0,0,0-1.546.456,2.657,2.657,0,0,0-.789,1.53,14.816,14.816,0,0,0-.236,3.011,14.922,14.922,0,0,0,.236,3.027,2.7,2.7,0,0,0,.789,1.538,2.338,2.338,0,0,0,1.546.464,2.576,2.576,0,0,0,1.091-.187,1.5,1.5,0,0,0,.651-.651A7.089,7.089,0,0,0,232,13.876l1.774.6a6.979,6.979,0,0,1-.855,2,2.867,2.867,0,0,1-1.253,1.058A4.963,4.963,0,0,1,229.725,17.864Zm9.522,0a4.526,4.526,0,0,1-2.385-.537,3,3,0,0,1-1.253-1.677,9.835,9.835,0,0,1-.383-3.044,9.835,9.835,0,0,1,.383-3.044,3,3,0,0,1,1.253-1.677,5.58,5.58,0,0,1,4.777,0A2.99,2.99,0,0,1,242.9,9.563a9.836,9.836,0,0,1,.382,3.044,9.836,9.836,0,0,1-.382,3.044,2.99,2.99,0,0,1-1.261,1.677A4.571,4.571,0,0,1,239.247,17.864Zm0-1.725a2.3,2.3,0,0,0,1.31-.317,1.775,1.775,0,0,0,.659-1.074,9.035,9.035,0,0,0,.2-2.14,9.035,9.035,0,0,0-.2-2.14,1.775,1.775,0,0,0-.659-1.074,2.3,2.3,0,0,0-1.31-.317,2.263,2.263,0,0,0-1.3.317,1.793,1.793,0,0,0-.651,1.074,9.035,9.035,0,0,0-.2,2.14,9.035,9.035,0,0,0,.2,2.14,1.792,1.792,0,0,0,.651,1.074A2.263,2.263,0,0,0,239.247,16.139Zm11.443,1.725a3.737,3.737,0,0,1-1.766-.342,1.931,1.931,0,0,1-.9-1.139,7.346,7.346,0,0,1-.269-2.246V6.34h-2.051V4.615h3.923v9.522a3.724,3.724,0,0,0,.228,1.571.854.854,0,0,0,.83.431,1.251,1.251,0,0,0,.627-.2,7.645,7.645,0,0,0,.936-.7l1.042,1.6a4.989,4.989,0,0,1-1.278.806A3.633,3.633,0,0,1,250.689,17.864Zm9.766,0a3.736,3.736,0,0,1-1.766-.342,1.93,1.93,0,0,1-.9-1.139,7.346,7.346,0,0,1-.269-2.246V6.34h-2.051V4.615H259.4v9.522a3.724,3.724,0,0,0,.228,1.571.854.854,0,0,0,.83.431,1.251,1.251,0,0,0,.627-.2,7.646,7.646,0,0,0,.936-.7l1.042,1.6a4.989,4.989,0,0,1-1.278.806A3.633,3.633,0,0,1,260.455,17.864Zm9.457-10.287v8.334h2.848v1.725h-7.569V15.911h2.848V9.3h-2.051V7.577Zm-1.286-1.465a1.641,1.641,0,0,1-1.115-.285,1.427,1.427,0,0,1-.3-1.05,1.427,1.427,0,0,1,.3-1.05,1.641,1.641,0,0,1,1.115-.285,1.676,1.676,0,0,1,1.123.285,1.4,1.4,0,0,1,.309,1.05,1.4,1.4,0,0,1-.309,1.05A1.676,1.676,0,0,1,268.626,6.112ZM277.9,17.864a4.046,4.046,0,0,1-2.14-.488,4.228,4.228,0,0,1-1.424-1.725l1.481-1.221a6.873,6.873,0,0,0,.562,1.091,1.286,1.286,0,0,0,.578.48,2.588,2.588,0,0,0,.944.138,8.176,8.176,0,0,0,1.693-.13,1.255,1.255,0,0,0,.781-.431,1.506,1.506,0,0,0,.212-.871,1.554,1.554,0,0,0-.171-.83,1.053,1.053,0,0,0-.61-.391,10.436,10.436,0,0,0-1.481-.26,6.411,6.411,0,0,1-2.848-.871,2.262,2.262,0,0,1-.879-1.978,3.3,3.3,0,0,1,.407-1.75,2.366,2.366,0,0,1,1.3-.968,7.594,7.594,0,0,1,2.409-.309,4.822,4.822,0,0,1,2.23.423,3.93,3.93,0,0,1,1.449,1.5L281.029,10.6a6,6,0,0,0-.619-.977,1.373,1.373,0,0,0-.635-.431,3.57,3.57,0,0,0-1.058-.122,6.526,6.526,0,0,0-1.408.114,1.025,1.025,0,0,0-.659.391,1.472,1.472,0,0,0-.179.8.8.8,0,0,0,.2.586,1.238,1.238,0,0,0,.586.293q.391.1,1.2.212a11.5,11.5,0,0,1,2.4.562,2.411,2.411,0,0,1,1.237.96,3.288,3.288,0,0,1,.383,1.717,3.327,3.327,0,0,1-.448,1.831,2.567,2.567,0,0,1-1.449,1.009A9.133,9.133,0,0,1,277.9,17.864Zm11.54-10.287v8.334h2.848v1.725h-7.569V15.911h2.848V9.3h-2.051V7.577Zm-1.286-1.465a1.641,1.641,0,0,1-1.115-.285,1.427,1.427,0,0,1-.3-1.05,1.427,1.427,0,0,1,.3-1.05,1.641,1.641,0,0,1,1.115-.285,1.676,1.676,0,0,1,1.123.285,1.4,1.4,0,0,1,.309,1.05,1.4,1.4,0,0,1-.309,1.05A1.676,1.676,0,0,1,288.158,6.112Zm9.685,11.752a4.526,4.526,0,0,1-2.385-.537,3,3,0,0,1-1.253-1.677,9.836,9.836,0,0,1-.383-3.044,9.836,9.836,0,0,1,.383-3.044,3,3,0,0,1,1.253-1.677,5.58,5.58,0,0,1,4.777,0A2.99,2.99,0,0,1,301.5,9.563a9.836,9.836,0,0,1,.383,3.044,9.836,9.836,0,0,1-.383,3.044,2.99,2.99,0,0,1-1.261,1.677A4.571,4.571,0,0,1,297.843,17.864Zm0-1.725a2.3,2.3,0,0,0,1.31-.317,1.775,1.775,0,0,0,.659-1.074,9.035,9.035,0,0,0,.2-2.14,9.035,9.035,0,0,0-.2-2.14,1.775,1.775,0,0,0-.659-1.074,2.3,2.3,0,0,0-1.31-.317,2.263,2.263,0,0,0-1.3.317,1.793,1.793,0,0,0-.651,1.074,9.035,9.035,0,0,0-.2,2.14,9.035,9.035,0,0,0,.2,2.14,1.793,1.793,0,0,0,.651,1.074A2.263,2.263,0,0,0,297.843,16.139Zm5.957,1.5V7.577h1.872v.244a5.671,5.671,0,0,1,2.393-.472,4.841,4.841,0,0,1,2.14.383,2.2,2.2,0,0,1,1.082,1.286,7.821,7.821,0,0,1,.326,2.547v6.071h-1.888V11.565a5.649,5.649,0,0,0-.155-1.506,1.29,1.29,0,0,0-.5-.757,1.835,1.835,0,0,0-1-.228,4.737,4.737,0,0,0-1.554.187,1.073,1.073,0,0,0-.667.659,4.622,4.622,0,0,0-.171,1.465v6.25Zm23.634.228a5.279,5.279,0,0,1-2.572-.529,3.007,3.007,0,0,1-1.359-1.668,9.175,9.175,0,0,1-.415-3.06,9.175,9.175,0,0,1,.415-3.06,2.988,2.988,0,0,1,1.375-1.668,5.459,5.459,0,0,1,2.621-.529,4.4,4.4,0,0,1,2.262.5,5.114,5.114,0,0,1,1.628,1.79l-1.563.928a6.628,6.628,0,0,0-.7-.944,1.6,1.6,0,0,0-.659-.431,3.941,3.941,0,0,0-2.523.2,1.727,1.727,0,0,0-.765,1.066,8.054,8.054,0,0,0-.22,2.149,8.054,8.054,0,0,0,.22,2.149,1.762,1.762,0,0,0,.741,1.066,2.939,2.939,0,0,0,1.514.317,3.05,3.05,0,0,0,.968-.13,1.813,1.813,0,0,0,.7-.448,6.436,6.436,0,0,0,.741-.952l1.546.944a5.3,5.3,0,0,1-1.668,1.807A4.48,4.48,0,0,1,327.434,17.864Zm9.473,0a4.526,4.526,0,0,1-2.385-.537,3,3,0,0,1-1.253-1.677,9.836,9.836,0,0,1-.383-3.044,9.836,9.836,0,0,1,.383-3.044,3,3,0,0,1,1.253-1.677,5.58,5.58,0,0,1,4.777,0,2.99,2.99,0,0,1,1.261,1.677,9.836,9.836,0,0,1,.383,3.044,9.836,9.836,0,0,1-.383,3.044,2.99,2.99,0,0,1-1.261,1.677A4.571,4.571,0,0,1,336.907,17.864Zm0-1.725a2.3,2.3,0,0,0,1.31-.317,1.775,1.775,0,0,0,.659-1.074,9.035,9.035,0,0,0,.2-2.14,9.035,9.035,0,0,0-.2-2.14,1.775,1.775,0,0,0-.659-1.074,2.3,2.3,0,0,0-1.31-.317,2.263,2.263,0,0,0-1.3.317,1.793,1.793,0,0,0-.651,1.074,9.035,9.035,0,0,0-.2,2.14,9.035,9.035,0,0,0,.2,2.14,1.793,1.793,0,0,0,.651,1.074A2.263,2.263,0,0,0,336.907,16.139Zm11.443,1.725a3.736,3.736,0,0,1-1.766-.342,1.931,1.931,0,0,1-.9-1.139,7.346,7.346,0,0,1-.269-2.246V6.34h-2.051V4.615h3.923v9.522a3.724,3.724,0,0,0,.228,1.571.854.854,0,0,0,.83.431,1.251,1.251,0,0,0,.627-.2,7.649,7.649,0,0,0,.936-.7l1.042,1.6a4.989,4.989,0,0,1-1.278.806A3.634,3.634,0,0,1,348.35,17.864Zm9.766,0a3.736,3.736,0,0,1-1.766-.342,1.931,1.931,0,0,1-.9-1.139,7.346,7.346,0,0,1-.269-2.246V6.34h-2.051V4.615h3.923v9.522a3.723,3.723,0,0,0,.228,1.571.854.854,0,0,0,.83.431,1.251,1.251,0,0,0,.627-.2,7.644,7.644,0,0,0,.936-.7l1.042,1.6a4.989,4.989,0,0,1-1.278.806A3.634,3.634,0,0,1,358.116,17.864Zm9.457-10.287v8.334h2.848v1.725h-7.569V15.911H365.7V9.3H363.65V7.577Zm-1.286-1.465a1.641,1.641,0,0,1-1.115-.285,1.427,1.427,0,0,1-.3-1.05,1.427,1.427,0,0,1,.3-1.05,1.641,1.641,0,0,1,1.115-.285,1.676,1.676,0,0,1,1.123.285,1.4,1.4,0,0,1,.309,1.05,1.4,1.4,0,0,1-.309,1.05A1.676,1.676,0,0,1,366.286,6.112Zm9.278,11.752a4.047,4.047,0,0,1-2.14-.488A4.228,4.228,0,0,1,372,15.65l1.481-1.221a6.873,6.873,0,0,0,.562,1.091,1.286,1.286,0,0,0,.578.48,2.588,2.588,0,0,0,.944.138,8.175,8.175,0,0,0,1.693-.13,1.255,1.255,0,0,0,.781-.431,1.506,1.506,0,0,0,.212-.871,1.554,1.554,0,0,0-.171-.83,1.053,1.053,0,0,0-.61-.391,10.436,10.436,0,0,0-1.481-.26,6.411,6.411,0,0,1-2.848-.871,2.262,2.262,0,0,1-.879-1.978,3.3,3.3,0,0,1,.407-1.75,2.366,2.366,0,0,1,1.3-.968,7.593,7.593,0,0,1,2.409-.309,4.822,4.822,0,0,1,2.23.423,3.931,3.931,0,0,1,1.449,1.5L378.689,10.6a6,6,0,0,0-.618-.977,1.373,1.373,0,0,0-.635-.431,3.57,3.57,0,0,0-1.058-.122,6.526,6.526,0,0,0-1.408.114,1.025,1.025,0,0,0-.659.391,1.472,1.472,0,0,0-.179.8.8.8,0,0,0,.2.586,1.238,1.238,0,0,0,.586.293q.391.1,1.2.212a11.5,11.5,0,0,1,2.4.562,2.411,2.411,0,0,1,1.237.96,3.288,3.288,0,0,1,.383,1.717,3.327,3.327,0,0,1-.448,1.831,2.567,2.567,0,0,1-1.449,1.009A9.133,9.133,0,0,1,375.564,17.864ZM387.1,7.577v8.334h2.848v1.725h-7.569V15.911h2.848V9.3h-2.051V7.577Zm-1.286-1.465a1.641,1.641,0,0,1-1.115-.285,1.427,1.427,0,0,1-.3-1.05,1.427,1.427,0,0,1,.3-1.05,1.641,1.641,0,0,1,1.115-.285,1.676,1.676,0,0,1,1.123.285,1.4,1.4,0,0,1,.309,1.05,1.4,1.4,0,0,1-.309,1.05A1.676,1.676,0,0,1,385.818,6.112ZM395.5,17.864a4.526,4.526,0,0,1-2.385-.537,3,3,0,0,1-1.253-1.677,9.836,9.836,0,0,1-.383-3.044,9.836,9.836,0,0,1,.383-3.044,3,3,0,0,1,1.253-1.677,5.58,5.58,0,0,1,4.777,0,2.99,2.99,0,0,1,1.261,1.677,9.837,9.837,0,0,1,.383,3.044,9.837,9.837,0,0,1-.383,3.044,2.99,2.99,0,0,1-1.261,1.677A4.571,4.571,0,0,1,395.5,17.864Zm0-1.725a2.3,2.3,0,0,0,1.31-.317,1.775,1.775,0,0,0,.659-1.074,9.035,9.035,0,0,0,.2-2.14,9.035,9.035,0,0,0-.2-2.14,1.775,1.775,0,0,0-.659-1.074,2.3,2.3,0,0,0-1.31-.317,2.263,2.263,0,0,0-1.3.317,1.793,1.793,0,0,0-.651,1.074,9.037,9.037,0,0,0-.2,2.14,9.037,9.037,0,0,0,.2,2.14,1.793,1.793,0,0,0,.651,1.074A2.263,2.263,0,0,0,395.5,16.139Zm5.957,1.5V7.577h1.872v.244a5.671,5.671,0,0,1,2.393-.472,4.841,4.841,0,0,1,2.14.383,2.2,2.2,0,0,1,1.082,1.286,7.822,7.822,0,0,1,.326,2.547v6.071h-1.888V11.565a5.65,5.65,0,0,0-.155-1.506,1.29,1.29,0,0,0-.5-.757,1.835,1.835,0,0,0-1-.228,4.737,4.737,0,0,0-1.554.187,1.073,1.073,0,0,0-.667.659,4.621,4.621,0,0,0-.171,1.465v6.25Zm10.775.635a2.518,2.518,0,0,0,1.9-.887,6.045,6.045,0,0,0,1.278-2.507,13.9,13.9,0,0,0,.456-3.752,13.9,13.9,0,0,0-.456-3.752,6.045,6.045,0,0,0-1.278-2.507,2.518,2.518,0,0,0-1.9-.887V2.255a4.225,4.225,0,0,1,2.881,1.107,7.1,7.1,0,0,1,1.937,3.117,14.425,14.425,0,0,1,.684,4.647,14.425,14.425,0,0,1-.684,4.647,7.1,7.1,0,0,1-1.937,3.117A4.225,4.225,0,0,1,412.236,20ZM437.985,20a5.784,5.784,0,0,1-3.5-.838A3.164,3.164,0,0,1,433.4,16.48a8.762,8.762,0,0,1,.163-1.465,8.564,8.564,0,0,0,.13-1.107,1.819,1.819,0,0,0-.57-.944q-.57-.635-1.856-1.839,1.286-1.237,1.856-1.872a1.8,1.8,0,0,0,.57-.977,6.623,6.623,0,0,0-.13-.993,8.042,8.042,0,0,1-.163-1.5A3.188,3.188,0,0,1,434.486,3.1a5.741,5.741,0,0,1,3.5-.846V4a6.075,6.075,0,0,0-1.628.171,1.443,1.443,0,0,0-.846.57,2.03,2.03,0,0,0-.26,1.115,5.447,5.447,0,0,0,.163,1.253,4.258,4.258,0,0,1,.146,1.009,2.89,2.89,0,0,1-.439,1.522,6.034,6.034,0,0,1-1.384,1.489,5.79,5.79,0,0,1,1.392,1.449,2.805,2.805,0,0,1,.431,1.5,5.077,5.077,0,0,1-.13.993,6.481,6.481,0,0,0-.163,1.367,2,2,0,0,0,.252,1.091,1.421,1.421,0,0,0,.838.562,6.075,6.075,0,0,0,1.628.171ZM94.124,34.434v8.334h2.848v1.725H89.4V42.767h2.848V36.159H90.2V34.434Zm-1.286-1.465a1.641,1.641,0,0,1-1.115-.285,1.427,1.427,0,0,1-.3-1.05,1.427,1.427,0,0,1,.3-1.05,1.641,1.641,0,0,1,1.115-.285,1.676,1.676,0,0,1,1.123.285,1.4,1.4,0,0,1,.309,1.05,1.4,1.4,0,0,1-.309,1.05A1.676,1.676,0,0,1,92.838,32.969Zm11.019-1.725a6.057,6.057,0,0,1,1.766.212,2.218,2.218,0,0,1,1.074.692,3.474,3.474,0,0,1,.627,1.327l-1.758.6a2.579,2.579,0,0,0-.269-.716.761.761,0,0,0-.448-.3,3.928,3.928,0,0,0-.993-.09,2.651,2.651,0,0,0-1.091.171.977.977,0,0,0-.5.6,4.358,4.358,0,0,0-.146,1.31V36h2.9v1.725h-2.9v6.771h-1.872V37.721H98.225V36h2.018v-.944a5.839,5.839,0,0,1,.35-2.238,2.255,2.255,0,0,1,1.139-1.2A5.019,5.019,0,0,1,103.857,31.243ZM115.1,46.853a4.225,4.225,0,0,1-2.881-1.107,7.1,7.1,0,0,1-1.937-3.117,14.424,14.424,0,0,1-.684-4.647,14.424,14.424,0,0,1,.684-4.647,7.1,7.1,0,0,1,1.937-3.117,4.225,4.225,0,0,1,2.881-1.107v1.725a2.518,2.518,0,0,0-1.9.887,6.045,6.045,0,0,0-1.278,2.507,13.9,13.9,0,0,0-.456,3.752,13.9,13.9,0,0,0,.456,3.752,6.045,6.045,0,0,0,1.278,2.507,2.518,2.518,0,0,0,1.9.887Zm7.243-2.132a5.279,5.279,0,0,1-2.572-.529,3.007,3.007,0,0,1-1.359-1.668,9.177,9.177,0,0,1-.415-3.06,9.177,9.177,0,0,1,.415-3.06,2.988,2.988,0,0,1,1.375-1.668,5.459,5.459,0,0,1,2.621-.529,4.4,4.4,0,0,1,2.262.5A5.114,5.114,0,0,1,126.3,36.5l-1.563.928a6.628,6.628,0,0,0-.7-.944,1.6,1.6,0,0,0-.659-.431,3.941,3.941,0,0,0-2.523.2,1.727,1.727,0,0,0-.765,1.066,8.053,8.053,0,0,0-.22,2.149,8.053,8.053,0,0,0,.22,2.149,1.762,1.762,0,0,0,.741,1.066,2.939,2.939,0,0,0,1.514.317,3.05,3.05,0,0,0,.968-.13,1.813,1.813,0,0,0,.7-.448,6.436,6.436,0,0,0,.741-.952l1.546.944a5.3,5.3,0,0,1-1.668,1.807A4.479,4.479,0,0,1,122.347,44.72Zm9.473,0a4.526,4.526,0,0,1-2.385-.537,3,3,0,0,1-1.253-1.676,9.836,9.836,0,0,1-.382-3.044,9.836,9.836,0,0,1,.382-3.044,3,3,0,0,1,1.253-1.676,5.58,5.58,0,0,1,4.777,0,2.99,2.99,0,0,1,1.261,1.676,9.836,9.836,0,0,1,.383,3.044,9.836,9.836,0,0,1-.383,3.044,2.99,2.99,0,0,1-1.261,1.676A4.571,4.571,0,0,1,131.821,44.72Zm0-1.725a2.3,2.3,0,0,0,1.31-.317,1.775,1.775,0,0,0,.659-1.074,9.036,9.036,0,0,0,.2-2.14,9.036,9.036,0,0,0-.2-2.14,1.775,1.775,0,0,0-.659-1.074,2.3,2.3,0,0,0-1.31-.317,2.263,2.263,0,0,0-1.3.317,1.792,1.792,0,0,0-.651,1.074,9.035,9.035,0,0,0-.2,2.14,9.035,9.035,0,0,0,.2,2.14,1.792,1.792,0,0,0,.651,1.074A2.263,2.263,0,0,0,131.821,43Zm11.443,1.725a3.736,3.736,0,0,1-1.766-.342,1.931,1.931,0,0,1-.9-1.139,7.346,7.346,0,0,1-.269-2.246V33.2h-2.051V31.471h3.923v9.522a3.724,3.724,0,0,0,.228,1.571.854.854,0,0,0,.83.431,1.251,1.251,0,0,0,.627-.2,7.648,7.648,0,0,0,.936-.7l1.042,1.6a4.99,4.99,0,0,1-1.278.806A3.634,3.634,0,0,1,143.263,44.72Zm9.766,0a3.737,3.737,0,0,1-1.766-.342,1.931,1.931,0,0,1-.9-1.139,7.346,7.346,0,0,1-.269-2.246V33.2h-2.051V31.471h3.923v9.522a3.724,3.724,0,0,0,.228,1.571.854.854,0,0,0,.83.431,1.251,1.251,0,0,0,.627-.2,7.645,7.645,0,0,0,.936-.7l1.042,1.6a4.99,4.99,0,0,1-1.278.806A3.634,3.634,0,0,1,153.029,44.72Zm9.457-10.287v8.334h2.848v1.725h-7.569V42.767h2.848V36.159h-2.051V34.434ZM161.2,32.969a1.641,1.641,0,0,1-1.115-.285,1.427,1.427,0,0,1-.3-1.05,1.427,1.427,0,0,1,.3-1.05A1.641,1.641,0,0,1,161.2,30.3a1.676,1.676,0,0,1,1.123.285,1.4,1.4,0,0,1,.309,1.05,1.4,1.4,0,0,1-.309,1.05A1.676,1.676,0,0,1,161.2,32.969Zm9.278,11.752a4.047,4.047,0,0,1-2.14-.488,4.228,4.228,0,0,1-1.424-1.725l1.481-1.221a6.875,6.875,0,0,0,.562,1.091,1.286,1.286,0,0,0,.578.48,2.588,2.588,0,0,0,.944.138,8.176,8.176,0,0,0,1.693-.13,1.255,1.255,0,0,0,.781-.431,1.507,1.507,0,0,0,.212-.871,1.554,1.554,0,0,0-.171-.83,1.052,1.052,0,0,0-.61-.391,10.436,10.436,0,0,0-1.481-.26,6.411,6.411,0,0,1-2.848-.871,2.262,2.262,0,0,1-.879-1.978,3.3,3.3,0,0,1,.407-1.75,2.366,2.366,0,0,1,1.3-.968,7.594,7.594,0,0,1,2.409-.309,4.822,4.822,0,0,1,2.23.423,3.931,3.931,0,0,1,1.449,1.5L173.6,37.461a6,6,0,0,0-.618-.977,1.373,1.373,0,0,0-.635-.431,3.57,3.57,0,0,0-1.058-.122,6.526,6.526,0,0,0-1.408.114,1.025,1.025,0,0,0-.659.391,1.472,1.472,0,0,0-.179.8.8.8,0,0,0,.2.586,1.238,1.238,0,0,0,.586.293q.391.1,1.2.212a11.5,11.5,0,0,1,2.4.562,2.411,2.411,0,0,1,1.237.96,3.288,3.288,0,0,1,.382,1.717,3.327,3.327,0,0,1-.448,1.831,2.567,2.567,0,0,1-1.449,1.009A9.133,9.133,0,0,1,170.478,44.72Zm11.54-10.287v8.334h2.848v1.725H177.3V42.767h2.848V36.159H178.1V34.434Zm-1.286-1.465a1.641,1.641,0,0,1-1.115-.285,1.427,1.427,0,0,1-.3-1.05,1.427,1.427,0,0,1,.3-1.05,1.641,1.641,0,0,1,1.115-.285,1.676,1.676,0,0,1,1.123.285,1.4,1.4,0,0,1,.309,1.05,1.4,1.4,0,0,1-.309,1.05A1.676,1.676,0,0,1,180.732,32.969Zm9.685,11.752a4.526,4.526,0,0,1-2.385-.537,3,3,0,0,1-1.253-1.676,9.836,9.836,0,0,1-.383-3.044,9.836,9.836,0,0,1,.383-3.044,3,3,0,0,1,1.253-1.676,5.58,5.58,0,0,1,4.777,0,2.99,2.99,0,0,1,1.261,1.676,9.836,9.836,0,0,1,.383,3.044,9.836,9.836,0,0,1-.383,3.044,2.99,2.99,0,0,1-1.261,1.676A4.571,4.571,0,0,1,190.417,44.72Zm0-1.725a2.3,2.3,0,0,0,1.31-.317,1.775,1.775,0,0,0,.659-1.074,9.035,9.035,0,0,0,.2-2.14,9.035,9.035,0,0,0-.2-2.14,1.775,1.775,0,0,0-.659-1.074,2.3,2.3,0,0,0-1.31-.317,2.263,2.263,0,0,0-1.3.317,1.793,1.793,0,0,0-.651,1.074,9.036,9.036,0,0,0-.2,2.14,9.036,9.036,0,0,0,.2,2.14,1.793,1.793,0,0,0,.651,1.074A2.263,2.263,0,0,0,190.417,43Zm5.957,1.5V34.434h1.872v.244a5.671,5.671,0,0,1,2.393-.472,4.841,4.841,0,0,1,2.14.383,2.2,2.2,0,0,1,1.082,1.286,7.822,7.822,0,0,1,.326,2.547v6.071H202.3V38.421a5.651,5.651,0,0,0-.155-1.506,1.289,1.289,0,0,0-.5-.757,1.835,1.835,0,0,0-1-.228,4.737,4.737,0,0,0-1.554.187,1.073,1.073,0,0,0-.667.659,4.622,4.622,0,0,0-.171,1.465v6.25Zm13.575.228a1.7,1.7,0,0,1-1.164-.3,1.439,1.439,0,0,1-.317-1.066,1.466,1.466,0,0,1,.317-1.082,2.4,2.4,0,0,1,2.328,0,1.466,1.466,0,0,1,.317,1.082,1.439,1.439,0,0,1-.317,1.066A1.7,1.7,0,0,1,209.949,44.72Zm9.733,2.962a4.423,4.423,0,0,1-1.815-.309,3.982,3.982,0,0,1-1.343-1.107l1.367-1.172a2.884,2.884,0,0,0,.773.7,2.359,2.359,0,0,0,1.017.163,3.121,3.121,0,0,0,1.27-.2,1.169,1.169,0,0,0,.619-.7,4.525,4.525,0,0,0,.179-1.457v-.033a6.074,6.074,0,0,1-2.181.391,4.516,4.516,0,0,1-2.393-.545,3.037,3.037,0,0,1-1.261-1.733,10.808,10.808,0,0,1-.382-3.207,6.316,6.316,0,0,1,.4-2.458,2.645,2.645,0,0,1,1.278-1.367,5.323,5.323,0,0,1,2.36-.439,6.871,6.871,0,0,1,2.181.326v-.1h1.872v9.017a6.534,6.534,0,0,1-.383,2.474A2.526,2.526,0,0,1,222,47.26,5.287,5.287,0,0,1,219.682,47.683Zm-.114-5.453a2.184,2.184,0,0,0,1.668-.553,2.475,2.475,0,0,0,.513-1.725V36.875a.771.771,0,0,0-.529-.692,4.052,4.052,0,0,0-1.652-.252,3.028,3.028,0,0,0-1.318.228,1.285,1.285,0,0,0-.643.773,4.943,4.943,0,0,0-.187,1.538,10.249,10.249,0,0,0,.2,2.3,1.9,1.9,0,0,0,.651,1.131A2.178,2.178,0,0,0,219.568,42.23Zm9.652,2.49a6.633,6.633,0,0,1-2.3-.326,2.271,2.271,0,0,1-1.237-1.017,3.819,3.819,0,0,1-.383-1.847,4.3,4.3,0,0,1,.383-2.01,2.086,2.086,0,0,1,1.221-.993,7.482,7.482,0,0,1,2.319-.285h2.051v-.358a2.617,2.617,0,0,0-.171-1.058,1,1,0,0,0-.61-.529,4.016,4.016,0,0,0-1.27-.155,3.027,3.027,0,0,0-1.042.138,1.049,1.049,0,0,0-.553.5,4.761,4.761,0,0,0-.374,1.091l-1.79-.439a6.535,6.535,0,0,1,.732-1.856,2.664,2.664,0,0,1,1.172-1.034,4.487,4.487,0,0,1,1.856-.334,4.168,4.168,0,0,1,3.019.9,3.779,3.779,0,0,1,.9,2.775v3.809a1.927,1.927,0,0,0,.13.879.6.6,0,0,0,.553.212q.13,0,.586-.033v1.725q-.2.016-.537.016a2.428,2.428,0,0,1-1.953-.651,2.464,2.464,0,0,1-1.091.675A5.471,5.471,0,0,1,229.22,44.72Zm0-1.725a3.238,3.238,0,0,0,1.27-.2,1.11,1.11,0,0,0,.61-.667,4.214,4.214,0,0,0,.171-1.367v-.8H229.22a6.683,6.683,0,0,0-1.318.09.78.78,0,0,0-.553.407,2.514,2.514,0,0,0-.163,1.066,1.959,1.959,0,0,0,.163.9.942.942,0,0,0,.594.431A4.712,4.712,0,0,0,229.22,43Zm5.534,1.5V34.434h1.872v-.065q.13-.033.488-.1a3.6,3.6,0,0,1,.635-.065,2.3,2.3,0,0,1,1.009.179,1.912,1.912,0,0,1,.684.651,2.126,2.126,0,0,1,1.856-.83,2.4,2.4,0,0,1,1.465.391,2.227,2.227,0,0,1,.749,1.286,10.6,10.6,0,0,1,.228,2.49v6.12h-1.872v-6.12a8.672,8.672,0,0,0-.122-1.782q-.122-.5-.448-.5a.89.89,0,0,0-.871.456,3.953,3.953,0,0,0-.236,1.644v6.3h-1.872V38.47a8.867,8.867,0,0,0-.13-1.847q-.13-.529-.439-.529a.908.908,0,0,0-.879.456,3.834,3.834,0,0,0-.244,1.644v6.3ZM249.062,43a2.683,2.683,0,0,0,1.392-.334,4.133,4.133,0,0,0,1.164-1.18l1.5.993a5.366,5.366,0,0,1-1.717,1.758,4.777,4.777,0,0,1-2.336.488,5.58,5.58,0,0,1-2.58-.488,2.789,2.789,0,0,1-1.318-1.611,9.822,9.822,0,0,1-.4-3.158,9.822,9.822,0,0,1,.4-3.158,2.789,2.789,0,0,1,1.318-1.611,5.579,5.579,0,0,1,2.58-.488,5.037,5.037,0,0,1,2.531.529,2.974,2.974,0,0,1,1.294,1.766,12.03,12.03,0,0,1,.391,3.467h-6.625a6.059,6.059,0,0,0,.293,1.807,1.712,1.712,0,0,0,.749.936A2.786,2.786,0,0,0,249.062,43Zm0-7.064a2.438,2.438,0,0,0-1.725.513,2.79,2.79,0,0,0-.651,1.8h4.671a3.655,3.655,0,0,0-.212-1.392,1.3,1.3,0,0,0-.708-.708A3.6,3.6,0,0,0,249.062,35.931Zm9.717,8.789a4.654,4.654,0,0,1-2.564-.61,3.387,3.387,0,0,1-1.343-1.929,12.437,12.437,0,0,1-.407-3.548v-1.3a12.437,12.437,0,0,1,.407-3.548,3.387,3.387,0,0,1,1.343-1.929,5.689,5.689,0,0,1,5.127,0,3.422,3.422,0,0,1,1.351,1.929,12.205,12.205,0,0,1,.415,3.548v1.3a12.205,12.205,0,0,1-.415,3.548,3.422,3.422,0,0,1-1.351,1.929A4.654,4.654,0,0,1,258.779,44.72Zm0-1.725a2.394,2.394,0,0,0,1.481-.4A2.259,2.259,0,0,0,261,41.27a12.115,12.115,0,0,0,.22-2.637v-1.3a12.115,12.115,0,0,0-.22-2.637,2.259,2.259,0,0,0-.741-1.327,2.95,2.95,0,0,0-2.962,0,2.259,2.259,0,0,0-.741,1.327,12.115,12.115,0,0,0-.22,2.637v1.3a11.254,11.254,0,0,0,.212,2.629A2.3,2.3,0,0,0,257.3,42.6,2.394,2.394,0,0,0,258.779,43Zm9.961,1.725a5.8,5.8,0,0,1-2.3-.383A4.282,4.282,0,0,1,264.817,43V31.471h1.872v3.093a5.736,5.736,0,0,1,2.051-.358,4.33,4.33,0,0,1,2.319.537,2.993,2.993,0,0,1,1.229,1.676,10.1,10.1,0,0,1,.374,3.06,10.035,10.035,0,0,1-.374,3.044,2.955,2.955,0,0,1-1.229,1.668A4.383,4.383,0,0,1,268.74,44.72Zm0-1.725a2.085,2.085,0,0,0,1.237-.317,1.792,1.792,0,0,0,.627-1.066,9.3,9.3,0,0,0,.187-2.132,9.414,9.414,0,0,0-.187-2.14,1.838,1.838,0,0,0-.627-1.082,2.046,2.046,0,0,0-1.237-.326,3.355,3.355,0,0,0-1.278.187,1.086,1.086,0,0,0-.6.675,4.645,4.645,0,0,0-.171,1.449v4.151a2.054,2.054,0,0,0,.814.48A4.743,4.743,0,0,0,268.74,43Zm8.562,4.688a4.423,4.423,0,0,1-1.815-.309,3.982,3.982,0,0,1-1.343-1.107l1.367-1.172a2.884,2.884,0,0,0,.773.7,2.359,2.359,0,0,0,1.017.163,2.816,2.816,0,0,0,1.278-.228,1.283,1.283,0,0,0,.61-.8,6.014,6.014,0,0,0,.179-1.693v-7.08h-2.051V34.434h3.923v8.806a7.268,7.268,0,0,1-.383,2.621,2.555,2.555,0,0,1-1.229,1.392A5.191,5.191,0,0,1,277.3,47.683Zm2.6-14.714a1.641,1.641,0,0,1-1.115-.285,1.427,1.427,0,0,1-.3-1.05,1.427,1.427,0,0,1,.3-1.05,1.641,1.641,0,0,1,1.115-.285,1.676,1.676,0,0,1,1.123.285,1.4,1.4,0,0,1,.309,1.05,1.4,1.4,0,0,1-.309,1.05A1.676,1.676,0,0,1,279.906,32.969ZM288.126,43a2.683,2.683,0,0,0,1.392-.334,4.133,4.133,0,0,0,1.164-1.18l1.5.993a5.366,5.366,0,0,1-1.717,1.758,4.777,4.777,0,0,1-2.336.488,5.58,5.58,0,0,1-2.58-.488,2.789,2.789,0,0,1-1.318-1.611,9.822,9.822,0,0,1-.4-3.158,9.822,9.822,0,0,1,.4-3.158,2.789,2.789,0,0,1,1.318-1.611,5.58,5.58,0,0,1,2.58-.488,5.037,5.037,0,0,1,2.531.529,2.975,2.975,0,0,1,1.294,1.766,12.032,12.032,0,0,1,.391,3.467h-6.625a6.059,6.059,0,0,0,.293,1.807,1.712,1.712,0,0,0,.749.936A2.786,2.786,0,0,0,288.126,43Zm0-7.064a2.438,2.438,0,0,0-1.725.513,2.789,2.789,0,0,0-.651,1.8h4.671a3.655,3.655,0,0,0-.212-1.392,1.3,1.3,0,0,0-.708-.708A3.6,3.6,0,0,0,288.126,35.931Zm10.01,8.789a5.279,5.279,0,0,1-2.572-.529,3.007,3.007,0,0,1-1.359-1.668,9.176,9.176,0,0,1-.415-3.06,9.176,9.176,0,0,1,.415-3.06,2.988,2.988,0,0,1,1.375-1.668,5.459,5.459,0,0,1,2.621-.529,4.4,4.4,0,0,1,2.262.5,5.114,5.114,0,0,1,1.628,1.79l-1.563.928a6.63,6.63,0,0,0-.7-.944,1.6,1.6,0,0,0-.659-.431,3.941,3.941,0,0,0-2.523.2,1.727,1.727,0,0,0-.765,1.066,8.054,8.054,0,0,0-.22,2.149,8.054,8.054,0,0,0,.22,2.149,1.762,1.762,0,0,0,.741,1.066,2.939,2.939,0,0,0,1.514.317,3.05,3.05,0,0,0,.968-.13,1.813,1.813,0,0,0,.7-.448,6.439,6.439,0,0,0,.741-.952l1.546.944a5.3,5.3,0,0,1-1.668,1.807A4.479,4.479,0,0,1,298.136,44.72Zm10.531,0a3.846,3.846,0,0,1-1.9-.407,2.387,2.387,0,0,1-1.05-1.294,6.767,6.767,0,0,1-.334-2.336v-4.72h-2.018V34.238h2.018V31.471h1.872v2.767h3.369v1.725h-3.369v4.72a5.857,5.857,0,0,0,.13,1.408,1.157,1.157,0,0,0,.431.7,1.519,1.519,0,0,0,.855.2,3.31,3.31,0,0,0,.871-.081.644.644,0,0,0,.391-.293,4.019,4.019,0,0,0,.285-.732l1.758.6a3.732,3.732,0,0,1-.635,1.327,2.176,2.176,0,0,1-1.017.692A5.292,5.292,0,0,1,308.667,44.72Zm8.708,0a1.7,1.7,0,0,1-1.164-.3,1.439,1.439,0,0,1-.317-1.066,1.466,1.466,0,0,1,.317-1.082,2.4,2.4,0,0,1,2.328,0,1.465,1.465,0,0,1,.317,1.082,1.438,1.438,0,0,1-.317,1.066A1.7,1.7,0,0,1,317.375,44.72Zm10.824,0a3.846,3.846,0,0,1-1.9-.407,2.387,2.387,0,0,1-1.05-1.294,6.767,6.767,0,0,1-.334-2.336v-4.72h-2.018V34.238h2.018V31.471h1.872v2.767h3.369v1.725h-3.369v4.72a5.855,5.855,0,0,0,.13,1.408,1.157,1.157,0,0,0,.431.7,1.519,1.519,0,0,0,.855.2,3.31,3.31,0,0,0,.871-.081.644.644,0,0,0,.391-.293,4.024,4.024,0,0,0,.285-.732l1.758.6a3.732,3.732,0,0,1-.635,1.327,2.177,2.177,0,0,1-1.017.692A5.292,5.292,0,0,1,328.2,44.72Zm8.448,0a6.633,6.633,0,0,1-2.3-.326,2.27,2.27,0,0,1-1.237-1.017,3.82,3.82,0,0,1-.383-1.847,4.3,4.3,0,0,1,.383-2.01,2.086,2.086,0,0,1,1.221-.993,7.482,7.482,0,0,1,2.319-.285H338.7v-.358a2.618,2.618,0,0,0-.171-1.058,1,1,0,0,0-.61-.529,4.016,4.016,0,0,0-1.27-.155,3.026,3.026,0,0,0-1.042.138,1.049,1.049,0,0,0-.553.5,4.762,4.762,0,0,0-.374,1.091l-1.79-.439a6.536,6.536,0,0,1,.732-1.856,2.664,2.664,0,0,1,1.172-1.034,4.488,4.488,0,0,1,1.856-.334,4.168,4.168,0,0,1,3.019.9,3.779,3.779,0,0,1,.9,2.775v3.809a1.927,1.927,0,0,0,.13.879.6.6,0,0,0,.553.212q.13,0,.586-.033v1.725q-.2.016-.537.016a2.429,2.429,0,0,1-1.953-.651,2.464,2.464,0,0,1-1.091.675A5.472,5.472,0,0,1,336.647,44.72Zm0-1.725a3.238,3.238,0,0,0,1.27-.2,1.11,1.11,0,0,0,.61-.667,4.214,4.214,0,0,0,.171-1.367v-.8h-2.051a6.683,6.683,0,0,0-1.318.09.779.779,0,0,0-.553.407,2.514,2.514,0,0,0-.163,1.066,1.958,1.958,0,0,0,.163.9.942.942,0,0,0,.594.431A4.711,4.711,0,0,0,336.647,43Zm9.994,4.688a4.422,4.422,0,0,1-1.815-.309,3.982,3.982,0,0,1-1.343-1.107l1.367-1.172a2.885,2.885,0,0,0,.773.7,2.359,2.359,0,0,0,1.017.163,3.121,3.121,0,0,0,1.27-.2,1.169,1.169,0,0,0,.619-.7,4.525,4.525,0,0,0,.179-1.457v-.033a6.075,6.075,0,0,1-2.181.391,4.516,4.516,0,0,1-2.393-.545,3.037,3.037,0,0,1-1.261-1.733,10.808,10.808,0,0,1-.383-3.207,6.316,6.316,0,0,1,.4-2.458,2.644,2.644,0,0,1,1.278-1.367,5.323,5.323,0,0,1,2.36-.439,6.872,6.872,0,0,1,2.181.326v-.1h1.872v9.017a6.534,6.534,0,0,1-.383,2.474,2.526,2.526,0,0,1-1.237,1.335A5.287,5.287,0,0,1,346.64,47.683Zm-.114-5.453a2.184,2.184,0,0,0,1.668-.553,2.475,2.475,0,0,0,.513-1.725V36.875a.771.771,0,0,0-.529-.692,4.052,4.052,0,0,0-1.652-.252,3.028,3.028,0,0,0-1.318.228,1.284,1.284,0,0,0-.643.773,4.942,4.942,0,0,0-.187,1.538,10.249,10.249,0,0,0,.2,2.3,1.9,1.9,0,0,0,.651,1.131A2.178,2.178,0,0,0,346.527,42.23Zm24.4-5.339H351.719V35.166h19.207Zm0,3.906H351.719V39.072h19.207Zm4.476-9.554a13.889,13.889,0,0,0-1.147,1.774,2.646,2.646,0,0,0-.317,1.172,1.021,1.021,0,0,1,.846.293,1.869,1.869,0,0,1,.228,1.091,1.466,1.466,0,0,1-.317,1.082,2.4,2.4,0,0,1-2.328,0,1.466,1.466,0,0,1-.317-1.082,5.231,5.231,0,0,1,.415-2.14,9.282,9.282,0,0,1,1.506-2.189Zm4.476,0a13.894,13.894,0,0,0-1.148,1.774,2.646,2.646,0,0,0-.317,1.172,1.021,1.021,0,0,1,.846.293,1.87,1.87,0,0,1,.228,1.091,1.466,1.466,0,0,1-.317,1.082,2.4,2.4,0,0,1-2.328,0,1.466,1.466,0,0,1-.317-1.082,5.23,5.23,0,0,1,.415-2.14,9.281,9.281,0,0,1,1.506-2.189Zm6.185.228a5.9,5.9,0,0,1,2.36.391A2.473,2.473,0,0,1,389.7,33.1a5.416,5.416,0,0,1,.4,2.279,5.762,5.762,0,0,1-.391,2.36,2.275,2.275,0,0,1-1.261,1.2,6.566,6.566,0,0,1-2.385.35H383.93v5.209h-1.872V31.471h1.79l.081-.081v.081Zm0,6.087a4.436,4.436,0,0,0,1.367-.155,1,1,0,0,0,.618-.6,4.132,4.132,0,0,0,.179-1.424,3.742,3.742,0,0,0-.187-1.343,1.134,1.134,0,0,0-.643-.651,3.673,3.673,0,0,0-1.335-.187H383.93v4.362ZM397.18,44.72a3.736,3.736,0,0,1-1.766-.342,1.931,1.931,0,0,1-.9-1.139,7.346,7.346,0,0,1-.269-2.246V33.2H392.2V31.471h3.923v9.522a3.723,3.723,0,0,0,.228,1.571.854.854,0,0,0,.83.431,1.251,1.251,0,0,0,.627-.2,7.646,7.646,0,0,0,.936-.7l1.042,1.6a4.99,4.99,0,0,1-1.278.806A3.634,3.634,0,0,1,397.18,44.72Zm7.829,0a6.633,6.633,0,0,1-2.3-.326,2.27,2.27,0,0,1-1.237-1.017,3.82,3.82,0,0,1-.383-1.847,4.3,4.3,0,0,1,.383-2.01,2.086,2.086,0,0,1,1.221-.993,7.483,7.483,0,0,1,2.319-.285h2.051v-.358a2.618,2.618,0,0,0-.171-1.058,1,1,0,0,0-.61-.529,4.016,4.016,0,0,0-1.27-.155,3.026,3.026,0,0,0-1.042.138,1.049,1.049,0,0,0-.553.5,4.762,4.762,0,0,0-.374,1.091l-1.79-.439a6.536,6.536,0,0,1,.732-1.856,2.664,2.664,0,0,1,1.172-1.034,4.488,4.488,0,0,1,1.856-.334,4.168,4.168,0,0,1,3.019.9,3.779,3.779,0,0,1,.9,2.775v3.809a1.926,1.926,0,0,0,.13.879.6.6,0,0,0,.553.212q.13,0,.586-.033v1.725q-.2.016-.537.016a2.429,2.429,0,0,1-1.953-.651,2.464,2.464,0,0,1-1.091.675A5.472,5.472,0,0,1,405.009,44.72Zm0-1.725a3.238,3.238,0,0,0,1.27-.2,1.11,1.11,0,0,0,.61-.667,4.214,4.214,0,0,0,.171-1.367v-.8h-2.051a6.683,6.683,0,0,0-1.318.09.779.779,0,0,0-.553.407,2.514,2.514,0,0,0-.163,1.066,1.958,1.958,0,0,0,.163.9.942.942,0,0,0,.594.431A4.711,4.711,0,0,0,405.009,43Zm7.324,4.688a3.308,3.308,0,0,1-1.107-.163,4.321,4.321,0,0,1-1.009-.553l.749-1.579a8.59,8.59,0,0,0,.846.472,1.311,1.311,0,0,0,.521.1,2.306,2.306,0,0,0,.944-.163,1.528,1.528,0,0,0,.627-.562,5.032,5.032,0,0,0,.529-1.18l-3.369-9.62h1.953l2.409,7.162,2.441-7.162h1.97l-3.5,9.75a8.921,8.921,0,0,1-.993,2.083,3.131,3.131,0,0,1-1.229,1.082A4.18,4.18,0,0,1,412.333,47.683ZM424.85,43a2.683,2.683,0,0,0,1.392-.334,4.133,4.133,0,0,0,1.164-1.18l1.5.993a5.366,5.366,0,0,1-1.717,1.758,4.777,4.777,0,0,1-2.336.488,5.58,5.58,0,0,1-2.58-.488,2.789,2.789,0,0,1-1.318-1.611,9.821,9.821,0,0,1-.4-3.158,9.821,9.821,0,0,1,.4-3.158,2.789,2.789,0,0,1,1.318-1.611,5.58,5.58,0,0,1,2.58-.488,5.037,5.037,0,0,1,2.531.529,2.975,2.975,0,0,1,1.294,1.766,12.032,12.032,0,0,1,.391,3.467h-6.625a6.059,6.059,0,0,0,.293,1.807,1.712,1.712,0,0,0,.749.936A2.786,2.786,0,0,0,424.85,43Zm0-7.064a2.438,2.438,0,0,0-1.725.513,2.79,2.79,0,0,0-.651,1.8h4.671a3.655,3.655,0,0,0-.212-1.392,1.3,1.3,0,0,0-.708-.708A3.6,3.6,0,0,0,424.85,35.931Zm6.348,8.562V34.434h1.872v.83a3.578,3.578,0,0,1,1.009-.741,2.881,2.881,0,0,1,1.335-.317,4.168,4.168,0,0,1,1.563.252,2.616,2.616,0,0,1,1.066.814,5.5,5.5,0,0,1,.806,1.554l-1.676.765a5.836,5.836,0,0,0-.423-1.058,1.063,1.063,0,0,0-.5-.472,2.169,2.169,0,0,0-.838-.13,1.954,1.954,0,0,0-1.807.871,4.866,4.866,0,0,0-.537,2.531v5.16Zm9.229-7.422a13.9,13.9,0,0,0,1.147-1.774,2.646,2.646,0,0,0,.317-1.172,1.021,1.021,0,0,1-.846-.293,1.87,1.87,0,0,1-.228-1.091,1.466,1.466,0,0,1,.317-1.082,2.4,2.4,0,0,1,2.328,0,1.466,1.466,0,0,1,.317,1.082,5.23,5.23,0,0,1-.415,2.14,9.28,9.28,0,0,1-1.506,2.189Zm4.476,0A13.9,13.9,0,0,0,446.05,35.3a2.646,2.646,0,0,0,.317-1.172,1.021,1.021,0,0,1-.846-.293,1.87,1.87,0,0,1-.228-1.091,1.465,1.465,0,0,1,.317-1.082,2.4,2.4,0,0,1,2.328,0,1.465,1.465,0,0,1,.317,1.082,5.231,5.231,0,0,1-.415,2.14,9.282,9.282,0,0,1-1.506,2.189Zm6.4,8.057a2.518,2.518,0,0,0,1.9-.887,6.045,6.045,0,0,0,1.278-2.507,13.9,13.9,0,0,0,.456-3.752,13.9,13.9,0,0,0-.456-3.752,6.045,6.045,0,0,0-1.278-2.507,2.518,2.518,0,0,0-1.9-.887V29.111a4.225,4.225,0,0,1,2.881,1.107,7.1,7.1,0,0,1,1.937,3.117,14.425,14.425,0,0,1,.684,4.647,14.425,14.425,0,0,1-.684,4.647,7.1,7.1,0,0,1-1.937,3.117,4.225,4.225,0,0,1-2.881,1.107Zm15.984,1.725a5.784,5.784,0,0,1-3.5-.838,3.164,3.164,0,0,1-1.091-2.678,8.762,8.762,0,0,1,.163-1.465,8.566,8.566,0,0,0,.13-1.107,1.819,1.819,0,0,0-.57-.944q-.57-.635-1.856-1.839,1.286-1.237,1.856-1.872a1.8,1.8,0,0,0,.57-.977,6.624,6.624,0,0,0-.13-.993,8.042,8.042,0,0,1-.163-1.5,3.188,3.188,0,0,1,1.091-2.686,5.741,5.741,0,0,1,3.5-.846v1.742a6.075,6.075,0,0,0-1.628.171,1.444,1.444,0,0,0-.846.57,2.03,2.03,0,0,0-.26,1.115,5.447,5.447,0,0,0,.163,1.253,4.258,4.258,0,0,1,.147,1.009,2.89,2.89,0,0,1-.439,1.522,6.034,6.034,0,0,1-1.384,1.489,5.79,5.79,0,0,1,1.392,1.449,2.8,2.8,0,0,1,.431,1.5,5.078,5.078,0,0,1-.13.993,6.483,6.483,0,0,0-.163,1.367,2,2,0,0,0,.252,1.091,1.421,1.421,0,0,0,.838.562,6.075,6.075,0,0,0,1.628.171ZM123.112,71.577a3.846,3.846,0,0,1-1.9-.407,2.387,2.387,0,0,1-1.05-1.294,6.767,6.767,0,0,1-.334-2.336V62.82h-2.018V61.095h2.018V58.328H121.7v2.767h3.369V62.82H121.7v4.72a5.856,5.856,0,0,0,.13,1.408,1.157,1.157,0,0,0,.431.7,1.519,1.519,0,0,0,.855.2,3.31,3.31,0,0,0,.871-.081.644.644,0,0,0,.391-.293,4.019,4.019,0,0,0,.285-.732l1.758.6a3.732,3.732,0,0,1-.635,1.327,2.177,2.177,0,0,1-1.017.692A5.292,5.292,0,0,1,123.112,71.577Zm5.339-.228V61.29h1.872v.83a3.579,3.579,0,0,1,1.009-.741,2.881,2.881,0,0,1,1.335-.317,4.168,4.168,0,0,1,1.563.252,2.616,2.616,0,0,1,1.066.814,5.5,5.5,0,0,1,.806,1.554l-1.676.765A5.832,5.832,0,0,0,134,63.39a1.063,1.063,0,0,0-.5-.472,2.169,2.169,0,0,0-.838-.13,1.954,1.954,0,0,0-1.807.871,4.866,4.866,0,0,0-.537,2.531v5.16Zm12.875.228a6.633,6.633,0,0,1-2.3-.326,2.27,2.27,0,0,1-1.237-1.017,3.819,3.819,0,0,1-.382-1.847,4.3,4.3,0,0,1,.382-2.01,2.086,2.086,0,0,1,1.221-.993,7.483,7.483,0,0,1,2.319-.285h2.051v-.358a2.618,2.618,0,0,0-.171-1.058,1,1,0,0,0-.61-.529,4.016,4.016,0,0,0-1.27-.155,3.026,3.026,0,0,0-1.042.138,1.049,1.049,0,0,0-.553.5,4.76,4.76,0,0,0-.374,1.091l-1.79-.439a6.536,6.536,0,0,1,.732-1.856,2.665,2.665,0,0,1,1.172-1.034,4.488,4.488,0,0,1,1.856-.334,4.168,4.168,0,0,1,3.019.9,3.779,3.779,0,0,1,.9,2.775V68.55a1.927,1.927,0,0,0,.13.879.6.6,0,0,0,.553.212q.13,0,.586-.033v1.725q-.2.016-.537.016a2.429,2.429,0,0,1-1.953-.651,2.464,2.464,0,0,1-1.091.675A5.472,5.472,0,0,1,141.326,71.577Zm0-1.725a3.238,3.238,0,0,0,1.27-.2,1.11,1.11,0,0,0,.61-.667,4.214,4.214,0,0,0,.171-1.367v-.8h-2.051a6.683,6.683,0,0,0-1.318.09.78.78,0,0,0-.553.407,2.514,2.514,0,0,0-.163,1.066,1.958,1.958,0,0,0,.163.9.942.942,0,0,0,.594.431A4.712,4.712,0,0,0,141.326,69.852Zm6.218,1.5V61.29h1.872v.244a5.671,5.671,0,0,1,2.393-.472,4.841,4.841,0,0,1,2.14.383,2.2,2.2,0,0,1,1.082,1.286,7.821,7.821,0,0,1,.326,2.547v6.071h-1.888V65.278a5.65,5.65,0,0,0-.155-1.506,1.289,1.289,0,0,0-.5-.757,1.835,1.835,0,0,0-1-.228,4.737,4.737,0,0,0-1.554.187,1.073,1.073,0,0,0-.667.659,4.622,4.622,0,0,0-.171,1.465v6.25Zm13.168.228a4.046,4.046,0,0,1-2.14-.488,4.228,4.228,0,0,1-1.424-1.725l1.481-1.221a6.875,6.875,0,0,0,.562,1.091,1.286,1.286,0,0,0,.578.48,2.588,2.588,0,0,0,.944.138,8.176,8.176,0,0,0,1.693-.13,1.255,1.255,0,0,0,.781-.431,1.506,1.506,0,0,0,.212-.871,1.554,1.554,0,0,0-.171-.83,1.052,1.052,0,0,0-.61-.391,10.435,10.435,0,0,0-1.481-.26,6.411,6.411,0,0,1-2.848-.871,2.262,2.262,0,0,1-.879-1.978,3.3,3.3,0,0,1,.407-1.75,2.366,2.366,0,0,1,1.3-.968,7.594,7.594,0,0,1,2.409-.309,4.822,4.822,0,0,1,2.23.423,3.931,3.931,0,0,1,1.449,1.5l-1.367,1.335a5.994,5.994,0,0,0-.619-.977,1.373,1.373,0,0,0-.635-.431,3.57,3.57,0,0,0-1.058-.122,6.526,6.526,0,0,0-1.408.114,1.025,1.025,0,0,0-.659.391,1.472,1.472,0,0,0-.179.8.8.8,0,0,0,.2.586,1.238,1.238,0,0,0,.586.293q.391.1,1.2.212a11.5,11.5,0,0,1,2.4.562,2.411,2.411,0,0,1,1.237.96,3.288,3.288,0,0,1,.382,1.717,3.327,3.327,0,0,1-.448,1.831,2.567,2.567,0,0,1-1.449,1.009A9.133,9.133,0,0,1,160.712,71.577ZM172.219,58.1a6.057,6.057,0,0,1,1.766.212A2.218,2.218,0,0,1,175.06,59a3.474,3.474,0,0,1,.627,1.327l-1.758.6a2.579,2.579,0,0,0-.269-.716.761.761,0,0,0-.448-.3,3.928,3.928,0,0,0-.993-.09,2.651,2.651,0,0,0-1.091.171.977.977,0,0,0-.5.6,4.358,4.358,0,0,0-.146,1.31v.944h2.9v1.725h-2.9v6.771h-1.872V64.578h-2.018V62.853h2.018v-.944a5.839,5.839,0,0,1,.35-2.238,2.255,2.255,0,0,1,1.139-1.2A5.019,5.019,0,0,1,172.219,58.1Zm8.431,13.477a4.526,4.526,0,0,1-2.385-.537,3,3,0,0,1-1.253-1.676,12.3,12.3,0,0,1,0-6.087,3,3,0,0,1,1.253-1.676,5.58,5.58,0,0,1,4.777,0,2.99,2.99,0,0,1,1.261,1.676,12.3,12.3,0,0,1,0,6.087,2.99,2.99,0,0,1-1.261,1.676A4.571,4.571,0,0,1,180.651,71.577Zm0-1.725a2.3,2.3,0,0,0,1.31-.317,1.775,1.775,0,0,0,.659-1.074,11.826,11.826,0,0,0,0-4.281,1.775,1.775,0,0,0-.659-1.074,2.3,2.3,0,0,0-1.31-.317,2.263,2.263,0,0,0-1.3.317,1.792,1.792,0,0,0-.651,1.074,11.825,11.825,0,0,0,0,4.281,1.793,1.793,0,0,0,.651,1.074A2.263,2.263,0,0,0,180.651,69.852Zm6.4,1.5V61.29h1.872v.83a3.578,3.578,0,0,1,1.009-.741,2.881,2.881,0,0,1,1.335-.317,4.168,4.168,0,0,1,1.563.252,2.616,2.616,0,0,1,1.066.814,5.5,5.5,0,0,1,.806,1.554l-1.676.765a5.832,5.832,0,0,0-.423-1.058,1.063,1.063,0,0,0-.5-.472,2.169,2.169,0,0,0-.838-.13,1.954,1.954,0,0,0-1.807.871,4.866,4.866,0,0,0-.537,2.531v5.16Zm8.643,0V61.29h1.872v-.065q.13-.033.488-.1a3.6,3.6,0,0,1,.635-.065,2.3,2.3,0,0,1,1.009.179,1.912,1.912,0,0,1,.684.651,2.126,2.126,0,0,1,1.856-.83,2.4,2.4,0,0,1,1.465.391,2.227,2.227,0,0,1,.749,1.286,10.6,10.6,0,0,1,.228,2.49v6.12H202.8v-6.12a8.672,8.672,0,0,0-.122-1.782q-.122-.5-.448-.5a.89.89,0,0,0-.871.456,3.953,3.953,0,0,0-.236,1.644v6.3h-1.872V65.327a8.867,8.867,0,0,0-.13-1.847q-.13-.529-.439-.529a.908.908,0,0,0-.879.456,3.834,3.834,0,0,0-.244,1.644v6.3Zm14.258.228a1.7,1.7,0,0,1-1.164-.3,1.438,1.438,0,0,1-.317-1.066,1.466,1.466,0,0,1,.317-1.082,2.4,2.4,0,0,1,2.328,0,1.466,1.466,0,0,1,.317,1.082,1.439,1.439,0,0,1-.317,1.066A1.7,1.7,0,0,1,209.949,71.577Zm5.827,2.734V61.29h1.888v.1a6.628,6.628,0,0,1,2.165-.326,4.628,4.628,0,0,1,2.393.529,2.953,2.953,0,0,1,1.261,1.668,12.334,12.334,0,0,1,0,6.1,2.992,2.992,0,0,1-1.261,1.685,4.571,4.571,0,0,1-2.393.537,5.944,5.944,0,0,1-2.165-.391v3.125Zm4.053-4.46a2.259,2.259,0,0,0,1.31-.326,1.813,1.813,0,0,0,.659-1.082,9.035,9.035,0,0,0,.2-2.14,8.927,8.927,0,0,0-.2-2.132,1.769,1.769,0,0,0-.659-1.066,2.3,2.3,0,0,0-1.31-.317q-2.165,0-2.165.944v3.841a2.5,2.5,0,0,0,.5,1.725A2.156,2.156,0,0,0,219.829,69.852Zm9.652,1.725a4.526,4.526,0,0,1-2.385-.537,3,3,0,0,1-1.253-1.676,12.3,12.3,0,0,1,0-6.087A3,3,0,0,1,227.1,61.6a5.58,5.58,0,0,1,4.777,0,2.99,2.99,0,0,1,1.261,1.676,12.3,12.3,0,0,1,0,6.087,2.99,2.99,0,0,1-1.261,1.676A4.571,4.571,0,0,1,229.481,71.577Zm0-1.725a2.3,2.3,0,0,0,1.31-.317,1.775,1.775,0,0,0,.659-1.074,11.826,11.826,0,0,0,0-4.281,1.775,1.775,0,0,0-.659-1.074,2.3,2.3,0,0,0-1.31-.317,2.263,2.263,0,0,0-1.3.317,1.793,1.793,0,0,0-.651,1.074,11.826,11.826,0,0,0,0,4.281,1.793,1.793,0,0,0,.651,1.074A2.263,2.263,0,0,0,229.481,69.852Zm9.359,1.725a4.046,4.046,0,0,1-2.14-.488,4.228,4.228,0,0,1-1.424-1.725l1.481-1.221a6.875,6.875,0,0,0,.562,1.091,1.286,1.286,0,0,0,.578.48,2.588,2.588,0,0,0,.944.138,8.176,8.176,0,0,0,1.693-.13,1.255,1.255,0,0,0,.781-.431,1.507,1.507,0,0,0,.212-.871,1.554,1.554,0,0,0-.171-.83,1.053,1.053,0,0,0-.61-.391,10.435,10.435,0,0,0-1.481-.26,6.411,6.411,0,0,1-2.848-.871,2.262,2.262,0,0,1-.879-1.978,3.3,3.3,0,0,1,.407-1.75,2.366,2.366,0,0,1,1.3-.968,7.594,7.594,0,0,1,2.409-.309,4.822,4.822,0,0,1,2.23.423,3.931,3.931,0,0,1,1.449,1.5l-1.367,1.335a6,6,0,0,0-.618-.977,1.373,1.373,0,0,0-.635-.431,3.57,3.57,0,0,0-1.058-.122,6.526,6.526,0,0,0-1.408.114,1.025,1.025,0,0,0-.659.391,1.472,1.472,0,0,0-.179.8.8.8,0,0,0,.2.586,1.238,1.238,0,0,0,.586.293q.391.1,1.2.212a11.5,11.5,0,0,1,2.4.562,2.411,2.411,0,0,1,1.237.96,3.288,3.288,0,0,1,.382,1.717,3.327,3.327,0,0,1-.448,1.831,2.567,2.567,0,0,1-1.449,1.009A9.133,9.133,0,0,1,238.84,71.577ZM250.38,61.29v8.334h2.848v1.725H245.66V69.624h2.848V63.015h-2.051V61.29Zm-1.286-1.465a1.641,1.641,0,0,1-1.115-.285,1.981,1.981,0,0,1,0-2.1,1.641,1.641,0,0,1,1.115-.285,1.676,1.676,0,0,1,1.123.285,1.937,1.937,0,0,1,0,2.1A1.676,1.676,0,0,1,249.094,59.825Zm10.743,11.752a3.846,3.846,0,0,1-1.9-.407,2.387,2.387,0,0,1-1.05-1.294,6.766,6.766,0,0,1-.334-2.336V62.82h-2.018V61.095h2.018V58.328h1.872v2.767h3.369V62.82h-3.369v4.72a5.855,5.855,0,0,0,.13,1.408,1.157,1.157,0,0,0,.431.7,1.519,1.519,0,0,0,.855.2,3.309,3.309,0,0,0,.871-.081.644.644,0,0,0,.391-.293,4.022,4.022,0,0,0,.285-.732l1.758.6a3.732,3.732,0,0,1-.635,1.327,2.177,2.177,0,0,1-1.017.692A5.292,5.292,0,0,1,259.837,71.577ZM269.912,61.29v8.334h2.848v1.725h-7.569V69.624h2.848V63.015h-2.051V61.29Zm-1.286-1.465a1.641,1.641,0,0,1-1.115-.285,1.981,1.981,0,0,1,0-2.1,1.641,1.641,0,0,1,1.115-.285,1.676,1.676,0,0,1,1.123.285,1.937,1.937,0,0,1,0,2.1A1.676,1.676,0,0,1,268.626,59.825Zm9.685,11.752a4.526,4.526,0,0,1-2.385-.537,3,3,0,0,1-1.253-1.676,12.3,12.3,0,0,1,0-6.087,3,3,0,0,1,1.253-1.676,5.58,5.58,0,0,1,4.777,0,2.99,2.99,0,0,1,1.261,1.676,12.3,12.3,0,0,1,0,6.087A2.99,2.99,0,0,1,280.7,71.04,4.571,4.571,0,0,1,278.311,71.577Zm0-1.725a2.3,2.3,0,0,0,1.31-.317,1.775,1.775,0,0,0,.659-1.074,11.826,11.826,0,0,0,0-4.281,1.775,1.775,0,0,0-.659-1.074,2.3,2.3,0,0,0-1.31-.317,2.263,2.263,0,0,0-1.3.317,1.792,1.792,0,0,0-.651,1.074,11.824,11.824,0,0,0,0,4.281,1.792,1.792,0,0,0,.651,1.074A2.263,2.263,0,0,0,278.311,69.852Zm5.957,1.5V61.29h1.872v.244a5.672,5.672,0,0,1,2.393-.472,4.841,4.841,0,0,1,2.14.383,2.2,2.2,0,0,1,1.082,1.286,7.822,7.822,0,0,1,.326,2.547v6.071h-1.888V65.278a5.65,5.65,0,0,0-.155-1.506,1.29,1.29,0,0,0-.5-.757,1.835,1.835,0,0,0-1-.228,4.737,4.737,0,0,0-1.554.187,1.073,1.073,0,0,0-.667.659,4.622,4.622,0,0,0-.171,1.465v6.25Zm28.061-7.6h-9.44V62.023h9.44Zm0,3.906h-9.44V65.929h9.44Zm11,3.695V61.29H325.2v.244a5.671,5.671,0,0,1,2.393-.472,4.841,4.841,0,0,1,2.14.383,2.2,2.2,0,0,1,1.082,1.286,7.822,7.822,0,0,1,.326,2.547v6.071h-1.888V65.278a5.65,5.65,0,0,0-.155-1.506,1.29,1.29,0,0,0-.5-.757,1.835,1.835,0,0,0-1-.228,4.737,4.737,0,0,0-1.554.187,1.073,1.073,0,0,0-.667.659A4.622,4.622,0,0,0,325.2,65.1v6.25Zm13.624-1.5a2.683,2.683,0,0,0,1.392-.334,4.133,4.133,0,0,0,1.164-1.18l1.5.993a5.366,5.366,0,0,1-1.717,1.758,4.776,4.776,0,0,1-2.336.488,5.58,5.58,0,0,1-2.58-.488,2.789,2.789,0,0,1-1.318-1.611,9.821,9.821,0,0,1-.4-3.158,9.821,9.821,0,0,1,.4-3.158,2.789,2.789,0,0,1,1.318-1.611,5.58,5.58,0,0,1,2.58-.488,5.037,5.037,0,0,1,2.531.529,2.975,2.975,0,0,1,1.294,1.766,12.031,12.031,0,0,1,.391,3.467h-6.625a6.059,6.059,0,0,0,.293,1.807,1.712,1.712,0,0,0,.749.936A2.786,2.786,0,0,0,336.956,69.852Zm0-7.064a2.438,2.438,0,0,0-1.725.513,2.79,2.79,0,0,0-.651,1.8h4.671a3.655,3.655,0,0,0-.212-1.392,1.3,1.3,0,0,0-.708-.708A3.6,3.6,0,0,0,336.956,62.788Zm8.4,8.562h-1.66L341.806,61.29h1.888l1.107,6.2,1.058-3.434h1.628l1.042,3.4,1.123-6.169h1.888l-1.9,10.059h-1.66l-1.3-3.809ZM5.741,98.206H3.983L.175,85.184H2.16l2.7,9.538,2.7-9.538H9.55Zm8.936-1.5a2.683,2.683,0,0,0,1.392-.334,4.133,4.133,0,0,0,1.164-1.18l1.5.993a5.366,5.366,0,0,1-1.717,1.758,4.777,4.777,0,0,1-2.336.488,5.579,5.579,0,0,1-2.58-.488,2.789,2.789,0,0,1-1.318-1.611,12.7,12.7,0,0,1,0-6.315A2.789,2.789,0,0,1,12.1,88.407a5.58,5.58,0,0,1,2.58-.488,5.037,5.037,0,0,1,2.531.529A2.974,2.974,0,0,1,18.5,90.214a12.03,12.03,0,0,1,.391,3.467H12.268a6.059,6.059,0,0,0,.293,1.807,1.712,1.712,0,0,0,.749.936A2.786,2.786,0,0,0,14.677,96.708Zm0-7.064a2.438,2.438,0,0,0-1.725.513,2.789,2.789,0,0,0-.651,1.8h4.671a3.655,3.655,0,0,0-.212-1.392,1.3,1.3,0,0,0-.708-.708A3.6,3.6,0,0,0,14.677,89.644Zm10.01,8.789a5.279,5.279,0,0,1-2.572-.529,3.007,3.007,0,0,1-1.359-1.668,11.488,11.488,0,0,1,0-6.12,2.988,2.988,0,0,1,1.375-1.668,5.459,5.459,0,0,1,2.621-.529,4.4,4.4,0,0,1,2.262.5,5.114,5.114,0,0,1,1.628,1.79l-1.563.928a6.629,6.629,0,0,0-.7-.944,1.6,1.6,0,0,0-.659-.431,3.142,3.142,0,0,0-.968-.122,3.121,3.121,0,0,0-1.554.317,1.727,1.727,0,0,0-.765,1.066,10.614,10.614,0,0,0,0,4.3,1.762,1.762,0,0,0,.741,1.066,2.939,2.939,0,0,0,1.514.317,3.05,3.05,0,0,0,.968-.13,1.813,1.813,0,0,0,.7-.448,6.437,6.437,0,0,0,.741-.952l1.546.944a5.3,5.3,0,0,1-1.668,1.807A4.479,4.479,0,0,1,24.687,98.434Zm10.531,0a3.846,3.846,0,0,1-1.9-.407,2.387,2.387,0,0,1-1.05-1.294A6.767,6.767,0,0,1,31.93,94.4v-4.72H29.912V87.951H31.93V85.184H33.8v2.767h3.369v1.725H33.8V94.4a5.856,5.856,0,0,0,.13,1.408,1.157,1.157,0,0,0,.431.7,1.519,1.519,0,0,0,.855.2,3.31,3.31,0,0,0,.871-.081.644.644,0,0,0,.391-.293,4.019,4.019,0,0,0,.285-.732l1.758.6a3.732,3.732,0,0,1-.635,1.327,2.176,2.176,0,0,1-1.017.692A5.292,5.292,0,0,1,35.218,98.434Zm8.708,0a4.526,4.526,0,0,1-2.385-.537,3,3,0,0,1-1.253-1.676,12.3,12.3,0,0,1,0-6.087,3,3,0,0,1,1.253-1.677,4.526,4.526,0,0,1,2.385-.537,4.571,4.571,0,0,1,2.393.537,2.99,2.99,0,0,1,1.261,1.677,12.3,12.3,0,0,1,0,6.087A2.99,2.99,0,0,1,46.319,97.9,4.571,4.571,0,0,1,43.926,98.434Zm0-1.725a2.3,2.3,0,0,0,1.31-.317,1.775,1.775,0,0,0,.659-1.074,11.825,11.825,0,0,0,0-4.281,1.775,1.775,0,0,0-.659-1.074,2.3,2.3,0,0,0-1.31-.317,2.263,2.263,0,0,0-1.3.317,1.793,1.793,0,0,0-.651,1.074,11.825,11.825,0,0,0,0,4.281,1.793,1.793,0,0,0,.651,1.074A2.263,2.263,0,0,0,43.926,96.708Zm6.4,1.5V88.147h1.872v.83a3.578,3.578,0,0,1,1.009-.741,2.881,2.881,0,0,1,1.335-.317,4.168,4.168,0,0,1,1.563.252,2.616,2.616,0,0,1,1.066.814,5.5,5.5,0,0,1,.806,1.554L56.3,91.3a5.832,5.832,0,0,0-.423-1.058,1.063,1.063,0,0,0-.5-.472,2.169,2.169,0,0,0-.838-.13,1.954,1.954,0,0,0-1.807.871,4.866,4.866,0,0,0-.537,2.531v5.16Zm13.135.228A6.721,6.721,0,0,1,61,98.076a2.272,2.272,0,0,1-1.261-1.2,5.923,5.923,0,0,1-.383-2.376h1.888a3.478,3.478,0,0,0,.2,1.335,1.249,1.249,0,0,0,.675.675,3.478,3.478,0,0,0,1.335.2,3.61,3.61,0,0,0,1.335-.2,1.252,1.252,0,0,0,.684-.659,3.193,3.193,0,0,0,.212-1.294,4.135,4.135,0,0,0-.179-1.359,1.287,1.287,0,0,0-.594-.724,2.961,2.961,0,0,0-1.148-.293H62.124V90.458h1.644a2.453,2.453,0,0,0,1.506-.48,1.861,1.861,0,0,0,.415-1.375,2.553,2.553,0,0,0-.212-1.156,1.225,1.225,0,0,0-.684-.586,3.911,3.911,0,0,0-1.335-.179,3.424,3.424,0,0,0-1.318.2,1.249,1.249,0,0,0-.675.675,3.424,3.424,0,0,0-.2,1.318h-1.9a5.862,5.862,0,0,1,.383-2.368A2.276,2.276,0,0,1,61,85.315a6.721,6.721,0,0,1,2.458-.358,7.173,7.173,0,0,1,2.458.334,2.21,2.21,0,0,1,1.261,1.123A5.113,5.113,0,0,1,67.56,88.6a4.409,4.409,0,0,1-.244,1.644,2.642,2.642,0,0,1-.9,1.074,2.793,2.793,0,0,1,.9,1.237,6.364,6.364,0,0,1,.244,2,5.7,5.7,0,0,1-.383,2.328,2.281,2.281,0,0,1-1.261,1.188A6.721,6.721,0,0,1,63.458,98.434Zm12.582,2.132a4.225,4.225,0,0,1-2.881-1.107,7.1,7.1,0,0,1-1.937-3.117,16.136,16.136,0,0,1,0-9.294,7.1,7.1,0,0,1,1.937-3.117,4.225,4.225,0,0,1,2.881-1.107V84.55a2.518,2.518,0,0,0-1.9.887,6.045,6.045,0,0,0-1.278,2.507,15.67,15.67,0,0,0,0,7.5,6.045,6.045,0,0,0,1.278,2.507,2.518,2.518,0,0,0,1.9.887Zm9.717-2.36L82.1,93H81.053v5.209H79.182V85.184h4a5.9,5.9,0,0,1,2.36.391,2.473,2.473,0,0,1,1.278,1.237,5.417,5.417,0,0,1,.4,2.279,6.337,6.337,0,0,1-.293,2.132,2.3,2.3,0,0,1-.944,1.2,4.08,4.08,0,0,1-1.742.521l3.679,5.257Zm-4.7-11.3v4.362h2.132a4.436,4.436,0,0,0,1.367-.155,1,1,0,0,0,.619-.6,4.131,4.131,0,0,0,.179-1.424,3.742,3.742,0,0,0-.187-1.343,1.134,1.134,0,0,0-.643-.651,3.673,3.673,0,0,0-1.335-.187ZM92.5,98.434a6.633,6.633,0,0,1-2.3-.326,2.271,2.271,0,0,1-1.237-1.017,3.82,3.82,0,0,1-.382-1.847,4.3,4.3,0,0,1,.382-2.01,2.086,2.086,0,0,1,1.221-.993,7.482,7.482,0,0,1,2.319-.285h2.051V91.6a2.618,2.618,0,0,0-.171-1.058,1,1,0,0,0-.61-.529,4.016,4.016,0,0,0-1.27-.155,3.027,3.027,0,0,0-1.042.138,1.049,1.049,0,0,0-.553.5,4.761,4.761,0,0,0-.374,1.091l-1.79-.439a6.536,6.536,0,0,1,.732-1.856,2.665,2.665,0,0,1,1.172-1.034,4.488,4.488,0,0,1,1.856-.334,4.168,4.168,0,0,1,3.019.9,3.779,3.779,0,0,1,.9,2.775v3.809a1.926,1.926,0,0,0,.13.879.6.6,0,0,0,.553.212q.13,0,.586-.033v1.725q-.2.016-.537.016a2.429,2.429,0,0,1-1.953-.651,2.464,2.464,0,0,1-1.091.675A5.472,5.472,0,0,1,92.5,98.434Zm0-1.725a3.238,3.238,0,0,0,1.27-.2,1.11,1.11,0,0,0,.61-.667,4.214,4.214,0,0,0,.171-1.367v-.8H92.5a6.683,6.683,0,0,0-1.318.09.78.78,0,0,0-.553.407,2.514,2.514,0,0,0-.163,1.066,1.958,1.958,0,0,0,.163.9.942.942,0,0,0,.594.431A4.712,4.712,0,0,0,92.5,96.708Zm6.218,1.5V88.147h1.872v.244a5.671,5.671,0,0,1,2.393-.472,4.841,4.841,0,0,1,2.14.382,2.2,2.2,0,0,1,1.082,1.286,7.821,7.821,0,0,1,.326,2.547v6.071h-1.888V92.135a5.65,5.65,0,0,0-.155-1.506,1.289,1.289,0,0,0-.5-.757,1.835,1.835,0,0,0-1-.228,4.737,4.737,0,0,0-1.554.187,1.073,1.073,0,0,0-.667.659,4.622,4.622,0,0,0-.171,1.465v6.25Zm13.493.228a4.583,4.583,0,0,1-2.385-.529,2.965,2.965,0,0,1-1.253-1.668,12.366,12.366,0,0,1,0-6.1,3,3,0,0,1,1.253-1.677,4.526,4.526,0,0,1,2.385-.537,6.074,6.074,0,0,1,2.181.391V85.184h1.872V98.206h-1.872v-.114A6.392,6.392,0,0,1,112.207,98.434Zm0-1.725a4.052,4.052,0,0,0,1.652-.252.771.771,0,0,0,.529-.692V91.923a2.475,2.475,0,0,0-.513-1.725,2.184,2.184,0,0,0-1.668-.553,2.219,2.219,0,0,0-1.3.326,1.832,1.832,0,0,0-.651,1.082,9.035,9.035,0,0,0-.2,2.14,8.927,8.927,0,0,0,.2,2.132,1.787,1.787,0,0,0,.651,1.066A2.263,2.263,0,0,0,112.207,96.708Zm9.847,1.725a4.526,4.526,0,0,1-2.385-.537,3,3,0,0,1-1.253-1.676,12.3,12.3,0,0,1,0-6.087,3,3,0,0,1,1.253-1.677,5.58,5.58,0,0,1,4.777,0,2.99,2.99,0,0,1,1.261,1.677,12.3,12.3,0,0,1,0,6.087,2.99,2.99,0,0,1-1.261,1.676A4.571,4.571,0,0,1,122.054,98.434Zm0-1.725a2.3,2.3,0,0,0,1.31-.317,1.775,1.775,0,0,0,.659-1.074,11.825,11.825,0,0,0,0-4.281,1.775,1.775,0,0,0-.659-1.074,2.3,2.3,0,0,0-1.31-.317,2.263,2.263,0,0,0-1.3.317,1.793,1.793,0,0,0-.651,1.074,11.825,11.825,0,0,0,0,4.281,1.793,1.793,0,0,0,.651,1.074A2.263,2.263,0,0,0,122.054,96.708Zm5.274,1.5V88.147H129.2v-.065q.13-.033.488-.1a3.6,3.6,0,0,1,.635-.065,2.3,2.3,0,0,1,1.009.179,1.913,1.913,0,0,1,.684.651,2.126,2.126,0,0,1,1.856-.83,2.4,2.4,0,0,1,1.465.391,2.227,2.227,0,0,1,.749,1.286,10.6,10.6,0,0,1,.228,2.49v6.12h-1.872v-6.12a8.674,8.674,0,0,0-.122-1.782q-.122-.5-.448-.5a.89.89,0,0,0-.871.456,3.953,3.953,0,0,0-.236,1.644v6.3h-1.872V92.183a8.867,8.867,0,0,0-.13-1.847q-.13-.529-.439-.529a.908.908,0,0,0-.879.456,3.834,3.834,0,0,0-.244,1.644v6.3Zm14.258.228a1.7,1.7,0,0,1-1.164-.3,1.439,1.439,0,0,1-.317-1.066,1.466,1.466,0,0,1,.317-1.082,2.4,2.4,0,0,1,2.328,0,1.466,1.466,0,0,1,.317,1.082,1.439,1.439,0,0,1-.317,1.066A1.7,1.7,0,0,1,141.587,98.434Zm12.533-.228L150.457,93h-1.042v5.209h-1.872V85.184h4a5.9,5.9,0,0,1,2.36.391,2.473,2.473,0,0,1,1.278,1.237,5.417,5.417,0,0,1,.4,2.279,6.338,6.338,0,0,1-.293,2.132,2.3,2.3,0,0,1-.944,1.2,4.08,4.08,0,0,1-1.742.521l3.679,5.257Zm-4.7-11.3v4.362h2.132a4.436,4.436,0,0,0,1.367-.155,1,1,0,0,0,.619-.6,4.131,4.131,0,0,0,.179-1.424,3.742,3.742,0,0,0-.187-1.343,1.134,1.134,0,0,0-.643-.651,3.673,3.673,0,0,0-1.335-.187Zm11.443,11.524a6.633,6.633,0,0,1-2.3-.326,2.271,2.271,0,0,1-1.237-1.017,3.82,3.82,0,0,1-.382-1.847,4.3,4.3,0,0,1,.382-2.01,2.086,2.086,0,0,1,1.221-.993,7.482,7.482,0,0,1,2.319-.285h2.051V91.6a2.618,2.618,0,0,0-.171-1.058,1,1,0,0,0-.61-.529,4.016,4.016,0,0,0-1.27-.155,3.027,3.027,0,0,0-1.042.138,1.049,1.049,0,0,0-.553.5,4.761,4.761,0,0,0-.374,1.091l-1.79-.439a6.536,6.536,0,0,1,.732-1.856A2.665,2.665,0,0,1,159,88.253a4.488,4.488,0,0,1,1.856-.334,4.168,4.168,0,0,1,3.019.9,3.779,3.779,0,0,1,.9,2.775v3.809a1.927,1.927,0,0,0,.13.879.6.6,0,0,0,.553.212q.13,0,.586-.033v1.725q-.2.016-.537.016a2.428,2.428,0,0,1-1.953-.651,2.464,2.464,0,0,1-1.091.675A5.472,5.472,0,0,1,160.858,98.434Zm0-1.725a3.238,3.238,0,0,0,1.27-.2,1.11,1.11,0,0,0,.61-.667,4.214,4.214,0,0,0,.171-1.367v-.8h-2.051a6.683,6.683,0,0,0-1.318.09.78.78,0,0,0-.553.407,2.514,2.514,0,0,0-.163,1.066,1.958,1.958,0,0,0,.163.9.942.942,0,0,0,.594.431A4.712,4.712,0,0,0,160.858,96.708Zm6.218,1.5V88.147h1.872v.244a5.671,5.671,0,0,1,2.393-.472,4.841,4.841,0,0,1,2.14.382,2.2,2.2,0,0,1,1.082,1.286,7.821,7.821,0,0,1,.326,2.547v6.071H173V92.135a5.65,5.65,0,0,0-.155-1.506,1.289,1.289,0,0,0-.5-.757,1.835,1.835,0,0,0-1-.228,4.737,4.737,0,0,0-1.554.187,1.073,1.073,0,0,0-.667.659,4.622,4.622,0,0,0-.171,1.465v6.25Zm13.542,3.19a4.423,4.423,0,0,1-1.815-.309,3.982,3.982,0,0,1-1.343-1.107l1.367-1.172a2.884,2.884,0,0,0,.773.7,2.359,2.359,0,0,0,1.017.163,3.121,3.121,0,0,0,1.27-.2,1.169,1.169,0,0,0,.619-.7,4.525,4.525,0,0,0,.179-1.457v-.033a6.074,6.074,0,0,1-2.181.391,4.516,4.516,0,0,1-2.393-.545,3.037,3.037,0,0,1-1.261-1.733,10.808,10.808,0,0,1-.382-3.207,6.316,6.316,0,0,1,.4-2.458,2.645,2.645,0,0,1,1.278-1.367,5.323,5.323,0,0,1,2.36-.439,6.871,6.871,0,0,1,2.181.326v-.1h1.872v9.017a6.534,6.534,0,0,1-.383,2.474,2.526,2.526,0,0,1-1.237,1.335A5.287,5.287,0,0,1,180.618,101.4Zm-.114-5.453a2.184,2.184,0,0,0,1.668-.553,2.475,2.475,0,0,0,.513-1.725V90.588a.771.771,0,0,0-.529-.692,4.052,4.052,0,0,0-1.652-.252,3.028,3.028,0,0,0-1.318.228,1.285,1.285,0,0,0-.643.773,4.943,4.943,0,0,0-.187,1.538,10.249,10.249,0,0,0,.2,2.3,1.9,1.9,0,0,0,.651,1.131A2.178,2.178,0,0,0,180.5,95.943Zm9.961.765a2.683,2.683,0,0,0,1.392-.334,4.133,4.133,0,0,0,1.164-1.18l1.5.993a5.366,5.366,0,0,1-1.717,1.758,4.777,4.777,0,0,1-2.336.488,5.579,5.579,0,0,1-2.58-.488,2.789,2.789,0,0,1-1.318-1.611,12.7,12.7,0,0,1,0-6.315,2.789,2.789,0,0,1,1.318-1.611,5.58,5.58,0,0,1,2.58-.488,5.037,5.037,0,0,1,2.531.529,2.974,2.974,0,0,1,1.294,1.766,12.03,12.03,0,0,1,.391,3.467h-6.625a6.059,6.059,0,0,0,.293,1.807,1.712,1.712,0,0,0,.749.936A2.786,2.786,0,0,0,190.465,96.708Zm0-7.064a2.438,2.438,0,0,0-1.725.513,2.789,2.789,0,0,0-.651,1.8h4.671a3.655,3.655,0,0,0-.212-1.392,1.3,1.3,0,0,0-.708-.708A3.6,3.6,0,0,0,190.465,89.644ZM203,100.566a4.225,4.225,0,0,1-2.881-1.107,7.1,7.1,0,0,1-1.937-3.117,16.136,16.136,0,0,1,0-9.294,7.1,7.1,0,0,1,1.937-3.117A4.225,4.225,0,0,1,203,82.824V84.55a2.518,2.518,0,0,0-1.9.887,6.045,6.045,0,0,0-1.278,2.507,15.67,15.67,0,0,0,0,7.5,6.045,6.045,0,0,0,1.278,2.507,2.518,2.518,0,0,0,1.9.887Zm10.417-8.008H206.5V90.832h6.918Zm7.243,3.923h2.311v1.725h-6.494V96.48h2.311V88.814a5.157,5.157,0,0,1-2.637.635V87.707a2.759,2.759,0,0,0,1.961-.61,2.529,2.529,0,0,0,.643-1.913h1.9Zm8.822,1.953a3.24,3.24,0,0,1-2.2-.879,5.809,5.809,0,0,1-1.554-2.425,10.783,10.783,0,0,1,0-6.869,5.809,5.809,0,0,1,1.554-2.425,3.186,3.186,0,0,1,4.395,0,5.874,5.874,0,0,1,1.563,2.425,10.637,10.637,0,0,1,0,6.869,5.874,5.874,0,0,1-1.563,2.425A3.24,3.24,0,0,1,229.481,98.434Zm0-1.725a1.594,1.594,0,0,0,1.188-.667,4.94,4.94,0,0,0,.911-1.823,9.482,9.482,0,0,0,0-5.046,4.94,4.94,0,0,0-.911-1.823,1.391,1.391,0,0,0-2.376,0,4.94,4.94,0,0,0-.911,1.823,9.482,9.482,0,0,0,0,5.046,4.94,4.94,0,0,0,.911,1.823A1.594,1.594,0,0,0,229.481,96.708Zm0-3.76a1.35,1.35,0,0,1-.96-.35,1.181,1.181,0,0,1-.374-.9,1.136,1.136,0,0,1,.374-.879,1.369,1.369,0,0,1,.96-.342,1.4,1.4,0,0,1,.968.342,1.125,1.125,0,0,1,.382.879,1.169,1.169,0,0,1-.382.9A1.38,1.38,0,0,1,229.481,92.948Zm9.766,5.485a1.7,1.7,0,0,1-1.164-.3,1.439,1.439,0,0,1-.317-1.066,1.466,1.466,0,0,1,.317-1.082,2.4,2.4,0,0,1,2.328,0,1.466,1.466,0,0,1,.317,1.082,1.439,1.439,0,0,1-.317,1.066A1.7,1.7,0,0,1,239.247,98.434Zm9.766,0a3.24,3.24,0,0,1-2.2-.879,5.809,5.809,0,0,1-1.554-2.425,10.783,10.783,0,0,1,0-6.869,5.809,5.809,0,0,1,1.554-2.425,3.186,3.186,0,0,1,4.395,0,5.874,5.874,0,0,1,1.563,2.425,10.637,10.637,0,0,1,0,6.869,5.874,5.874,0,0,1-1.563,2.425A3.24,3.24,0,0,1,249.013,98.434Zm0-1.725a1.594,1.594,0,0,0,1.188-.667,4.94,4.94,0,0,0,.911-1.823,9.482,9.482,0,0,0,0-5.046,4.94,4.94,0,0,0-.911-1.823,1.391,1.391,0,0,0-2.376,0,4.94,4.94,0,0,0-.911,1.823,9.482,9.482,0,0,0,0,5.046,4.94,4.94,0,0,0,.911,1.823A1.594,1.594,0,0,0,249.013,96.708Zm0-3.76a1.35,1.35,0,0,1-.96-.35,1.181,1.181,0,0,1-.374-.9,1.136,1.136,0,0,1,.374-.879,1.369,1.369,0,0,1,.96-.342,1.4,1.4,0,0,1,.968.342,1.125,1.125,0,0,1,.382.879,1.169,1.169,0,0,1-.382.9A1.38,1.38,0,0,1,249.013,92.948Zm11.1-7.992a6.057,6.057,0,0,1,1.766.212,2.218,2.218,0,0,1,1.074.692,3.474,3.474,0,0,1,.627,1.327l-1.758.6a2.58,2.58,0,0,0-.269-.716.761.761,0,0,0-.448-.3,3.928,3.928,0,0,0-.993-.09,2.651,2.651,0,0,0-1.091.171.977.977,0,0,0-.5.6,4.358,4.358,0,0,0-.146,1.31v.944h2.9v1.725h-2.9v6.771H256.5V91.435h-2.018V89.709H256.5v-.944a5.839,5.839,0,0,1,.35-2.238,2.255,2.255,0,0,1,1.139-1.2A5.019,5.019,0,0,1,260.113,84.956Zm6.56,16.439a13.894,13.894,0,0,0,1.148-1.774,2.646,2.646,0,0,0,.317-1.172,1.021,1.021,0,0,1-.846-.293,1.87,1.87,0,0,1-.228-1.091,1.466,1.466,0,0,1,.317-1.082,2.4,2.4,0,0,1,2.328,0,1.466,1.466,0,0,1,.317,1.082,5.231,5.231,0,0,1-.415,2.14,9.281,9.281,0,0,1-1.506,2.189Zm22.348-4.916h2.311v1.725h-6.494V96.48h2.311V88.814a5.157,5.157,0,0,1-2.637.635V87.707a2.759,2.759,0,0,0,1.961-.61,2.529,2.529,0,0,0,.643-1.913h1.9Zm8.822,1.953a3.24,3.24,0,0,1-2.2-.879,5.809,5.809,0,0,1-1.554-2.425,10.783,10.783,0,0,1,0-6.869,5.809,5.809,0,0,1,1.554-2.425,3.186,3.186,0,0,1,4.395,0,5.873,5.873,0,0,1,1.563,2.425,10.637,10.637,0,0,1,0,6.869,5.873,5.873,0,0,1-1.563,2.425A3.24,3.24,0,0,1,297.843,98.434Zm0-1.725a1.594,1.594,0,0,0,1.188-.667,4.94,4.94,0,0,0,.911-1.823,9.482,9.482,0,0,0,0-5.046,4.94,4.94,0,0,0-.911-1.823,1.391,1.391,0,0,0-2.376,0,4.94,4.94,0,0,0-.911,1.823,9.481,9.481,0,0,0,0,5.046,4.94,4.94,0,0,0,.911,1.823A1.594,1.594,0,0,0,297.843,96.708Zm0-3.76a1.35,1.35,0,0,1-.96-.35,1.181,1.181,0,0,1-.374-.9,1.136,1.136,0,0,1,.374-.879,1.369,1.369,0,0,1,.96-.342,1.4,1.4,0,0,1,.968.342,1.125,1.125,0,0,1,.383.879,1.169,1.169,0,0,1-.383.9A1.379,1.379,0,0,1,297.843,92.948Zm9.766,5.485a1.7,1.7,0,0,1-1.164-.3,1.439,1.439,0,0,1-.317-1.066,1.466,1.466,0,0,1,.317-1.082,2.4,2.4,0,0,1,2.328,0,1.465,1.465,0,0,1,.317,1.082,1.438,1.438,0,0,1-.317,1.066A1.7,1.7,0,0,1,307.609,98.434Zm9.766,0a3.24,3.24,0,0,1-2.2-.879,5.809,5.809,0,0,1-1.554-2.425,10.783,10.783,0,0,1,0-6.869,5.809,5.809,0,0,1,1.554-2.425,3.186,3.186,0,0,1,4.395,0,5.874,5.874,0,0,1,1.563,2.425,10.637,10.637,0,0,1,0,6.869,5.874,5.874,0,0,1-1.563,2.425A3.24,3.24,0,0,1,317.375,98.434Zm0-1.725a1.594,1.594,0,0,0,1.188-.667,4.94,4.94,0,0,0,.911-1.823,9.481,9.481,0,0,0,0-5.046,4.94,4.94,0,0,0-.911-1.823,1.391,1.391,0,0,0-2.376,0,4.94,4.94,0,0,0-.911,1.823,9.482,9.482,0,0,0,0,5.046,4.94,4.94,0,0,0,.911,1.823A1.594,1.594,0,0,0,317.375,96.708Zm0-3.76a1.35,1.35,0,0,1-.96-.35,1.181,1.181,0,0,1-.374-.9,1.136,1.136,0,0,1,.374-.879,1.369,1.369,0,0,1,.96-.342,1.4,1.4,0,0,1,.968.342,1.125,1.125,0,0,1,.383.879,1.169,1.169,0,0,1-.383.9A1.38,1.38,0,0,1,317.375,92.948Zm11.1-7.992a6.057,6.057,0,0,1,1.766.212,2.218,2.218,0,0,1,1.074.692,3.473,3.473,0,0,1,.627,1.327l-1.758.6a2.578,2.578,0,0,0-.269-.716.761.761,0,0,0-.448-.3,3.928,3.928,0,0,0-.993-.09,2.651,2.651,0,0,0-1.091.171.977.977,0,0,0-.5.6,4.358,4.358,0,0,0-.146,1.31v.944h2.9v1.725h-2.9v6.771h-1.872V91.435h-2.018V89.709h2.018v-.944a5.839,5.839,0,0,1,.35-2.238,2.255,2.255,0,0,1,1.139-1.2A5.02,5.02,0,0,1,328.476,84.956Zm5.632,13.884a2.518,2.518,0,0,0,1.9-.887,6.045,6.045,0,0,0,1.278-2.507,15.669,15.669,0,0,0,0-7.5A6.045,6.045,0,0,0,336,85.437a2.518,2.518,0,0,0-1.9-.887V82.824a4.225,4.225,0,0,1,2.881,1.107,7.1,7.1,0,0,1,1.937,3.117,16.136,16.136,0,0,1,0,9.294,7.1,7.1,0,0,1-1.937,3.117,4.225,4.225,0,0,1-2.881,1.107ZM344.8,101.4a13.9,13.9,0,0,0,1.147-1.774,2.646,2.646,0,0,0,.317-1.172,1.021,1.021,0,0,1-.846-.293,1.87,1.87,0,0,1-.228-1.091,1.466,1.466,0,0,1,.317-1.082,2.4,2.4,0,0,1,2.328,0,1.465,1.465,0,0,1,.317,1.082,5.23,5.23,0,0,1-.415,2.14,9.281,9.281,0,0,1-1.506,2.189Zm21.4-2.962a3.24,3.24,0,0,1-2.2-.879,5.809,5.809,0,0,1-1.554-2.425,10.783,10.783,0,0,1,0-6.869,5.809,5.809,0,0,1,1.554-2.425,3.186,3.186,0,0,1,4.395,0,5.873,5.873,0,0,1,1.563,2.425,10.637,10.637,0,0,1,0,6.869,5.873,5.873,0,0,1-1.563,2.425A3.24,3.24,0,0,1,366.205,98.434Zm0-1.725a1.594,1.594,0,0,0,1.188-.667,4.94,4.94,0,0,0,.911-1.823,9.482,9.482,0,0,0,0-5.046,4.94,4.94,0,0,0-.911-1.823,1.391,1.391,0,0,0-2.376,0,4.94,4.94,0,0,0-.911,1.823,9.481,9.481,0,0,0,0,5.046,4.94,4.94,0,0,0,.911,1.823A1.594,1.594,0,0,0,366.205,96.708Zm0-3.76a1.35,1.35,0,0,1-.96-.35,1.181,1.181,0,0,1-.374-.9,1.136,1.136,0,0,1,.374-.879,1.369,1.369,0,0,1,.96-.342,1.4,1.4,0,0,1,.968.342,1.125,1.125,0,0,1,.383.879,1.169,1.169,0,0,1-.383.9A1.379,1.379,0,0,1,366.205,92.948Zm9.766,5.485a1.7,1.7,0,0,1-1.164-.3,1.439,1.439,0,0,1-.317-1.066,1.466,1.466,0,0,1,.317-1.082,2.4,2.4,0,0,1,2.328,0,1.466,1.466,0,0,1,.317,1.082,1.439,1.439,0,0,1-.317,1.066A1.7,1.7,0,0,1,375.971,98.434Zm9.766,0a3.24,3.24,0,0,1-2.2-.879,5.809,5.809,0,0,1-1.554-2.425,10.783,10.783,0,0,1,0-6.869,5.809,5.809,0,0,1,1.554-2.425,3.186,3.186,0,0,1,4.395,0,5.874,5.874,0,0,1,1.563,2.425,10.637,10.637,0,0,1,0,6.869,5.874,5.874,0,0,1-1.563,2.425A3.24,3.24,0,0,1,385.737,98.434Zm0-1.725a1.594,1.594,0,0,0,1.188-.667,4.94,4.94,0,0,0,.911-1.823,9.481,9.481,0,0,0,0-5.046,4.94,4.94,0,0,0-.911-1.823,1.391,1.391,0,0,0-2.376,0,4.94,4.94,0,0,0-.911,1.823,9.482,9.482,0,0,0,0,5.046,4.94,4.94,0,0,0,.911,1.823A1.594,1.594,0,0,0,385.737,96.708Zm0-3.76a1.35,1.35,0,0,1-.96-.35,1.181,1.181,0,0,1-.374-.9,1.136,1.136,0,0,1,.374-.879,1.369,1.369,0,0,1,.96-.342,1.4,1.4,0,0,1,.968.342,1.125,1.125,0,0,1,.383.879,1.169,1.169,0,0,1-.383.9A1.38,1.38,0,0,1,385.737,92.948Zm11.1-7.992a6.057,6.057,0,0,1,1.766.212,2.218,2.218,0,0,1,1.074.692,3.473,3.473,0,0,1,.627,1.327l-1.758.6a2.578,2.578,0,0,0-.269-.716.761.761,0,0,0-.448-.3,3.928,3.928,0,0,0-.993-.09,2.651,2.651,0,0,0-1.091.171.977.977,0,0,0-.5.6,4.358,4.358,0,0,0-.146,1.31v.944h2.9v1.725h-2.9v6.771h-1.872V91.435h-2.018V89.709h2.018v-.944a5.838,5.838,0,0,1,.35-2.238,2.255,2.255,0,0,1,1.139-1.2A5.019,5.019,0,0,1,396.838,84.956ZM403.4,101.4a13.89,13.89,0,0,0,1.147-1.774,2.646,2.646,0,0,0,.317-1.172,1.021,1.021,0,0,1-.846-.293,1.87,1.87,0,0,1-.228-1.091,1.466,1.466,0,0,1,.317-1.082,2.4,2.4,0,0,1,2.328,0,1.466,1.466,0,0,1,.317,1.082,5.23,5.23,0,0,1-.415,2.14,9.281,9.281,0,0,1-1.506,2.189Zm22.348-4.916h2.311v1.725h-6.494V96.48h2.311V88.814a5.157,5.157,0,0,1-2.637.635V87.707a2.759,2.759,0,0,0,1.961-.61,2.529,2.529,0,0,0,.643-1.913h1.9Zm8.822,1.953a3.24,3.24,0,0,1-2.2-.879,5.809,5.809,0,0,1-1.554-2.425,10.783,10.783,0,0,1,0-6.869,5.809,5.809,0,0,1,1.554-2.425,3.186,3.186,0,0,1,4.395,0,5.873,5.873,0,0,1,1.563,2.425,10.637,10.637,0,0,1,0,6.869,5.873,5.873,0,0,1-1.563,2.425A3.24,3.24,0,0,1,434.567,98.434Zm0-1.725a1.594,1.594,0,0,0,1.188-.667,4.94,4.94,0,0,0,.911-1.823,9.482,9.482,0,0,0,0-5.046,4.94,4.94,0,0,0-.911-1.823,1.391,1.391,0,0,0-2.376,0,4.94,4.94,0,0,0-.911,1.823,9.481,9.481,0,0,0,0,5.046,4.94,4.94,0,0,0,.911,1.823A1.594,1.594,0,0,0,434.567,96.708Zm0-3.76a1.35,1.35,0,0,1-.96-.35,1.181,1.181,0,0,1-.374-.9,1.136,1.136,0,0,1,.374-.879,1.369,1.369,0,0,1,.96-.342,1.4,1.4,0,0,1,.968.342,1.125,1.125,0,0,1,.383.879,1.169,1.169,0,0,1-.383.9A1.379,1.379,0,0,1,434.567,92.948Zm9.766,5.485a3.24,3.24,0,0,1-2.2-.879,5.809,5.809,0,0,1-1.554-2.425,10.783,10.783,0,0,1,0-6.869,5.809,5.809,0,0,1,1.554-2.425,3.186,3.186,0,0,1,4.395,0,5.874,5.874,0,0,1,1.563,2.425,10.637,10.637,0,0,1,0,6.869,5.874,5.874,0,0,1-1.563,2.425A3.24,3.24,0,0,1,444.333,98.434Zm0-1.725a1.594,1.594,0,0,0,1.188-.667,4.941,4.941,0,0,0,.911-1.823,9.482,9.482,0,0,0,0-5.046,4.941,4.941,0,0,0-.911-1.823,1.391,1.391,0,0,0-2.376,0,4.941,4.941,0,0,0-.911,1.823,9.482,9.482,0,0,0,0,5.046,4.941,4.941,0,0,0,.911,1.823A1.594,1.594,0,0,0,444.333,96.708Zm0-3.76a1.35,1.35,0,0,1-.96-.35,1.181,1.181,0,0,1-.374-.9,1.136,1.136,0,0,1,.374-.879,1.369,1.369,0,0,1,.96-.342,1.4,1.4,0,0,1,.968.342,1.125,1.125,0,0,1,.383.879,1.169,1.169,0,0,1-.383.9A1.379,1.379,0,0,1,444.333,92.948Zm9.766,5.485a1.7,1.7,0,0,1-1.164-.3,1.439,1.439,0,0,1-.317-1.066,1.466,1.466,0,0,1,.317-1.082,2.4,2.4,0,0,1,2.328,0,1.465,1.465,0,0,1,.317,1.082,1.438,1.438,0,0,1-.317,1.066A1.7,1.7,0,0,1,454.1,98.434Zm9.766,0a3.24,3.24,0,0,1-2.2-.879,5.809,5.809,0,0,1-1.554-2.425,10.783,10.783,0,0,1,0-6.869,5.809,5.809,0,0,1,1.554-2.425,3.186,3.186,0,0,1,4.395,0,5.874,5.874,0,0,1,1.563,2.425,10.637,10.637,0,0,1,0,6.869,5.874,5.874,0,0,1-1.563,2.425A3.24,3.24,0,0,1,463.865,98.434Zm0-1.725a1.594,1.594,0,0,0,1.188-.667,4.94,4.94,0,0,0,.911-1.823,9.482,9.482,0,0,0,0-5.046,4.94,4.94,0,0,0-.911-1.823,1.391,1.391,0,0,0-2.376,0,4.94,4.94,0,0,0-.911,1.823,9.482,9.482,0,0,0,0,5.046,4.94,4.94,0,0,0,.911,1.823A1.594,1.594,0,0,0,463.865,96.708Zm0-3.76a1.35,1.35,0,0,1-.96-.35,1.181,1.181,0,0,1-.374-.9,1.136,1.136,0,0,1,.374-.879,1.369,1.369,0,0,1,.96-.342,1.4,1.4,0,0,1,.968.342,1.125,1.125,0,0,1,.383.879,1.169,1.169,0,0,1-.383.9A1.379,1.379,0,0,1,463.865,92.948Zm11.1-7.992a6.058,6.058,0,0,1,1.766.212,2.218,2.218,0,0,1,1.074.692,3.474,3.474,0,0,1,.627,1.327l-1.758.6a2.578,2.578,0,0,0-.269-.716.761.761,0,0,0-.448-.3,3.928,3.928,0,0,0-.993-.09,2.651,2.651,0,0,0-1.091.171.976.976,0,0,0-.5.6,4.358,4.358,0,0,0-.146,1.31v.944h2.9v1.725h-2.9v6.771h-1.872V91.435h-2.018V89.709h2.018v-.944a5.839,5.839,0,0,1,.35-2.238,2.255,2.255,0,0,1,1.139-1.2A5.02,5.02,0,0,1,474.966,84.956ZM480.6,98.841a2.518,2.518,0,0,0,1.9-.887,6.045,6.045,0,0,0,1.278-2.507,15.669,15.669,0,0,0,0-7.5,6.045,6.045,0,0,0-1.278-2.507,2.518,2.518,0,0,0-1.9-.887V82.824a4.225,4.225,0,0,1,2.881,1.107,7.1,7.1,0,0,1,1.937,3.117,16.136,16.136,0,0,1,0,9.294,7.1,7.1,0,0,1-1.937,3.117,4.225,4.225,0,0,1-2.881,1.107Zm10.694,2.555a13.894,13.894,0,0,0,1.148-1.774,2.646,2.646,0,0,0,.317-1.172,1.021,1.021,0,0,1-.846-.293,1.87,1.87,0,0,1-.228-1.091A1.466,1.466,0,0,1,492,95.984a2.4,2.4,0,0,1,2.328,0,1.465,1.465,0,0,1,.317,1.082,5.23,5.23,0,0,1-.415,2.14,9.282,9.282,0,0,1-1.506,2.189Zm1.872-10.759a1.7,1.7,0,0,1-1.164-.3,1.439,1.439,0,0,1-.317-1.066A1.466,1.466,0,0,1,492,88.187a2.4,2.4,0,0,1,2.328,0,1.465,1.465,0,0,1,.317,1.082,1.438,1.438,0,0,1-.317,1.066A1.7,1.7,0,0,1,493.163,90.637ZM79.572,125.681a6.075,6.075,0,0,0,1.628-.171,1.459,1.459,0,0,0,.846-.562,1.953,1.953,0,0,0,.26-1.091,6.482,6.482,0,0,0-.163-1.367,5.076,5.076,0,0,1-.13-.993,2.845,2.845,0,0,1,.423-1.5,5.644,5.644,0,0,1,1.384-1.449,5.669,5.669,0,0,1-1.375-1.473,2.958,2.958,0,0,1-.431-1.538,4.257,4.257,0,0,1,.146-1.009,5.446,5.446,0,0,0,.163-1.253,2.03,2.03,0,0,0-.26-1.115,1.447,1.447,0,0,0-.855-.57,6.17,6.17,0,0,0-1.636-.171v-1.742a5.78,5.78,0,0,1,3.508.846,3.176,3.176,0,0,1,1.1,2.686,8.041,8.041,0,0,1-.163,1.5,6.621,6.621,0,0,0-.13.993,1.862,1.862,0,0,0,.57.993q.57.651,1.839,1.856-1.253,1.172-1.831,1.823a1.878,1.878,0,0,0-.578.96,8.561,8.561,0,0,0,.13,1.107,8.76,8.76,0,0,1,.163,1.465,3.153,3.153,0,0,1-1.1,2.678,5.823,5.823,0,0,1-3.508.838ZM40.508,152.537a6.075,6.075,0,0,0,1.628-.171,1.459,1.459,0,0,0,.846-.562,1.953,1.953,0,0,0,.26-1.091,6.482,6.482,0,0,0-.163-1.367,5.076,5.076,0,0,1-.13-.993,2.845,2.845,0,0,1,.423-1.5,5.643,5.643,0,0,1,1.384-1.449,5.669,5.669,0,0,1-1.375-1.473,2.958,2.958,0,0,1-.431-1.538,4.257,4.257,0,0,1,.146-1.009,5.446,5.446,0,0,0,.163-1.253A2.03,2.03,0,0,0,43,139.02a1.447,1.447,0,0,0-.855-.57,6.17,6.17,0,0,0-1.636-.171v-1.742a5.78,5.78,0,0,1,3.508.846,3.176,3.176,0,0,1,1.1,2.686,8.04,8.04,0,0,1-.163,1.5,6.621,6.621,0,0,0-.13.993,1.862,1.862,0,0,0,.57.993q.57.651,1.839,1.856-1.253,1.172-1.831,1.823a1.878,1.878,0,0,0-.578.96,8.562,8.562,0,0,0,.13,1.107,8.76,8.76,0,0,1,.163,1.465,3.153,3.153,0,0,1-1.1,2.678,5.823,5.823,0,0,1-3.508.838Z" transform="translate(552.825 20986.746)" fill="#12263f"/>
  </g>
</svg>
