<svg xmlns="http://www.w3.org/2000/svg" width="610" height="225" viewBox="0 0 610 225">
  <g id="Grupo_168058" data-name="Grupo 168058" transform="translate(-495 -20457)">
    <g id="Rectángulo_342136" data-name="Rectángulo 342136" transform="translate(495 20457)" fill="#8979f3" stroke="#707070" stroke-width="1" opacity="0.25">
      <rect width="610" height="225" rx="25" stroke="none"/>
      <rect x="0.5" y="0.5" width="609" height="224" rx="24.5" fill="none"/>
    </g>
    <path id="Trazado_688369" data-name="Trazado 688369" d="M5.766,17.915H4.043L.364,7.674H2.336L4.9,15.081,7.523,7.674H9.478Zm9.1.232a4.609,4.609,0,0,1-2.428-.547,3.057,3.057,0,0,1-1.276-1.707,10.014,10.014,0,0,1-.389-3.1,10.014,10.014,0,0,1,.389-3.1,3.057,3.057,0,0,1,1.276-1.707,4.609,4.609,0,0,1,2.428-.547,4.654,4.654,0,0,1,2.436.547A3.045,3.045,0,0,1,18.584,9.7a10.014,10.014,0,0,1,.389,3.1,10.014,10.014,0,0,1-.389,3.1A3.045,3.045,0,0,1,17.3,17.6,4.654,4.654,0,0,1,14.864,18.147Zm0-1.757a2.345,2.345,0,0,0,1.334-.323,1.807,1.807,0,0,0,.671-1.094,9.2,9.2,0,0,0,.2-2.179,9.2,9.2,0,0,0-.2-2.179A1.807,1.807,0,0,0,16.2,9.521,2.345,2.345,0,0,0,14.864,9.2a2.3,2.3,0,0,0-1.326.323,1.825,1.825,0,0,0-.663,1.094,9.2,9.2,0,0,0-.2,2.179,9.2,9.2,0,0,0,.2,2.179,1.825,1.825,0,0,0,.663,1.094A2.3,2.3,0,0,0,14.864,16.39ZM26.2,7.674v8.485h2.9v1.757H21.393V16.158h2.9V9.43H22.205V7.674ZM24.89,6.182a1.671,1.671,0,0,1-1.135-.29,1.453,1.453,0,0,1-.307-1.069,1.453,1.453,0,0,1,.307-1.069,1.671,1.671,0,0,1,1.135-.29,1.706,1.706,0,0,1,1.143.29,1.428,1.428,0,0,1,.315,1.069,1.428,1.428,0,0,1-.315,1.069A1.706,1.706,0,0,1,24.89,6.182Zm9.777,11.965a4.666,4.666,0,0,1-2.428-.539,3.018,3.018,0,0,1-1.276-1.7,10.014,10.014,0,0,1-.389-3.1A10.082,10.082,0,0,1,30.964,9.7,3.057,3.057,0,0,1,32.24,7.988a4.609,4.609,0,0,1,2.428-.547,6.185,6.185,0,0,1,2.221.4V4.657h1.906V17.915H36.888V17.8A6.508,6.508,0,0,1,34.667,18.147Zm0-1.757a4.126,4.126,0,0,0,1.682-.257.785.785,0,0,0,.539-.7V11.518a2.52,2.52,0,0,0-.522-1.757,2.224,2.224,0,0,0-1.7-.563,2.259,2.259,0,0,0-1.326.331,1.865,1.865,0,0,0-.663,1.1,9.2,9.2,0,0,0-.2,2.179,9.089,9.089,0,0,0,.2,2.171,1.819,1.819,0,0,0,.663,1.085A2.3,2.3,0,0,0,34.667,16.39Zm19.969,1.757a4.739,4.739,0,0,1-2.61-.621,3.448,3.448,0,0,1-1.367-1.964,12.662,12.662,0,0,1-.414-3.613V10.623a12.662,12.662,0,0,1,.414-3.613,3.448,3.448,0,0,1,1.367-1.964,5.792,5.792,0,0,1,5.22,0,3.484,3.484,0,0,1,1.375,1.964,12.427,12.427,0,0,1,.423,3.613v1.326a12.427,12.427,0,0,1-.423,3.613,3.484,3.484,0,0,1-1.375,1.964A4.739,4.739,0,0,1,54.637,18.147Zm0-1.757a2.438,2.438,0,0,0,1.508-.406,2.3,2.3,0,0,0,.754-1.351,12.334,12.334,0,0,0,.224-2.685V10.623A12.334,12.334,0,0,0,56.9,7.939a2.3,2.3,0,0,0-.754-1.351,3,3,0,0,0-3.016,0,2.3,2.3,0,0,0-.754,1.351,12.334,12.334,0,0,0-.224,2.685v1.326a11.457,11.457,0,0,0,.215,2.676,2.342,2.342,0,0,0,.762,1.359A2.438,2.438,0,0,0,54.637,16.39ZM60.7,17.915V7.674h1.906v.249a5.774,5.774,0,0,1,2.436-.481,4.929,4.929,0,0,1,2.179.389,2.243,2.243,0,0,1,1.1,1.309,7.963,7.963,0,0,1,.331,2.594v6.181H66.734V11.734a5.753,5.753,0,0,0-.157-1.533,1.313,1.313,0,0,0-.514-.771A1.868,1.868,0,0,0,65.044,9.2a4.823,4.823,0,0,0-1.583.191,1.093,1.093,0,0,0-.679.671,4.706,4.706,0,0,0-.174,1.491v6.364Zm14.07.232a4.6,4.6,0,0,1-2.685-.688,3.848,3.848,0,0,1-1.409-2.171,14.947,14.947,0,0,1-.431-4.019,14.868,14.868,0,0,1,.431-4A3.807,3.807,0,0,1,72.087,5.1a4.641,4.641,0,0,1,2.685-.679,5.066,5.066,0,0,1,1.972.331,2.893,2.893,0,0,1,1.284,1.085,7.224,7.224,0,0,1,.87,2.063l-1.806.63a7.683,7.683,0,0,0-.547-1.483,1.518,1.518,0,0,0-.663-.679,2.623,2.623,0,0,0-1.11-.191,2.41,2.41,0,0,0-1.574.464,2.7,2.7,0,0,0-.8,1.558,15.084,15.084,0,0,0-.24,3.066,15.193,15.193,0,0,0,.24,3.082,2.749,2.749,0,0,0,.8,1.566,2.38,2.38,0,0,0,1.574.472,2.623,2.623,0,0,0,1.11-.191,1.532,1.532,0,0,0,.663-.663,7.219,7.219,0,0,0,.547-1.45L78.9,14.7a7.105,7.105,0,0,1-.87,2.038,2.919,2.919,0,0,1-1.276,1.077A5.053,5.053,0,0,1,74.772,18.147Zm9.695,0a4.609,4.609,0,0,1-2.428-.547,3.057,3.057,0,0,1-1.276-1.707,10.014,10.014,0,0,1-.389-3.1,10.014,10.014,0,0,1,.389-3.1,3.057,3.057,0,0,1,1.276-1.707,5.681,5.681,0,0,1,4.864,0A3.045,3.045,0,0,1,88.186,9.7a10.014,10.014,0,0,1,.389,3.1,10.014,10.014,0,0,1-.389,3.1A3.045,3.045,0,0,1,86.9,17.6,4.654,4.654,0,0,1,84.466,18.147Zm0-1.757a2.345,2.345,0,0,0,1.334-.323,1.807,1.807,0,0,0,.671-1.094,9.2,9.2,0,0,0,.2-2.179,9.2,9.2,0,0,0-.2-2.179A1.807,1.807,0,0,0,85.8,9.521,2.345,2.345,0,0,0,84.466,9.2a2.3,2.3,0,0,0-1.326.323,1.825,1.825,0,0,0-.663,1.094,9.2,9.2,0,0,0-.2,2.179,9.2,9.2,0,0,0,.2,2.179,1.825,1.825,0,0,0,.663,1.094A2.3,2.3,0,0,0,84.466,16.39Zm11.65,1.757a3.8,3.8,0,0,1-1.8-.348,1.966,1.966,0,0,1-.911-1.16,7.48,7.48,0,0,1-.273-2.287V6.414H91.045V4.657h3.994v9.695a3.791,3.791,0,0,0,.232,1.6.869.869,0,0,0,.845.439,1.273,1.273,0,0,0,.638-.2,7.785,7.785,0,0,0,.953-.713L98.768,17.1a5.08,5.08,0,0,1-1.3.82A3.7,3.7,0,0,1,96.116,18.147Zm9.943,0a3.8,3.8,0,0,1-1.8-.348,1.966,1.966,0,0,1-.911-1.16,7.48,7.48,0,0,1-.273-2.287V6.414h-2.088V4.657h3.994v9.695a3.791,3.791,0,0,0,.232,1.6.869.869,0,0,0,.845.439,1.273,1.273,0,0,0,.638-.2,7.785,7.785,0,0,0,.953-.713l1.061,1.624a5.08,5.08,0,0,1-1.3.82A3.7,3.7,0,0,1,106.059,18.147Zm9.628-10.473v8.485h2.9v1.757h-7.706V16.158h2.9V9.43h-2.088V7.674Zm-1.309-1.491a1.671,1.671,0,0,1-1.135-.29,1.453,1.453,0,0,1-.307-1.069,1.453,1.453,0,0,1,.307-1.069,1.671,1.671,0,0,1,1.135-.29,1.706,1.706,0,0,1,1.143.29,1.428,1.428,0,0,1,.315,1.069,1.428,1.428,0,0,1-.315,1.069A1.706,1.706,0,0,1,114.378,6.182Zm9.446,11.965a4.12,4.12,0,0,1-2.179-.5,4.3,4.3,0,0,1-1.45-1.757L121.7,14.65a7,7,0,0,0,.572,1.11,1.309,1.309,0,0,0,.588.489,2.635,2.635,0,0,0,.961.141,8.324,8.324,0,0,0,1.723-.133,1.278,1.278,0,0,0,.8-.439,1.534,1.534,0,0,0,.215-.887,1.582,1.582,0,0,0-.174-.845,1.072,1.072,0,0,0-.621-.4,10.625,10.625,0,0,0-1.508-.265,6.527,6.527,0,0,1-2.9-.887,2.3,2.3,0,0,1-.895-2.013,3.362,3.362,0,0,1,.414-1.781,2.409,2.409,0,0,1,1.326-.986,7.731,7.731,0,0,1,2.453-.315,4.909,4.909,0,0,1,2.27.431A4,4,0,0,1,128.4,9.4l-1.392,1.359a6.1,6.1,0,0,0-.63-.994,1.4,1.4,0,0,0-.646-.439,3.635,3.635,0,0,0-1.077-.124,6.644,6.644,0,0,0-1.433.116,1.043,1.043,0,0,0-.671.4,1.5,1.5,0,0,0-.182.812.81.81,0,0,0,.2.6,1.261,1.261,0,0,0,.6.3q.4.1,1.226.215a11.705,11.705,0,0,1,2.444.572,2.455,2.455,0,0,1,1.259.978,3.348,3.348,0,0,1,.389,1.748,3.388,3.388,0,0,1-.456,1.864,2.613,2.613,0,0,1-1.475,1.027A9.3,9.3,0,0,1,123.824,18.147ZM135.574,7.674v8.485h2.9v1.757h-7.706V16.158h2.9V9.43H131.58V7.674Zm-1.309-1.491a1.671,1.671,0,0,1-1.135-.29,1.453,1.453,0,0,1-.307-1.069,1.453,1.453,0,0,1,.307-1.069,1.671,1.671,0,0,1,1.135-.29,1.706,1.706,0,0,1,1.143.29,1.428,1.428,0,0,1,.315,1.069,1.428,1.428,0,0,1-.315,1.069A1.706,1.706,0,0,1,134.265,6.182Zm9.86,11.965A4.609,4.609,0,0,1,141.7,17.6a3.057,3.057,0,0,1-1.276-1.707,10.015,10.015,0,0,1-.389-3.1,10.015,10.015,0,0,1,.389-3.1A3.057,3.057,0,0,1,141.7,7.988a5.681,5.681,0,0,1,4.864,0A3.045,3.045,0,0,1,147.845,9.7a10.014,10.014,0,0,1,.389,3.1,10.014,10.014,0,0,1-.389,3.1,3.045,3.045,0,0,1-1.284,1.707A4.654,4.654,0,0,1,144.125,18.147Zm0-1.757a2.345,2.345,0,0,0,1.334-.323,1.807,1.807,0,0,0,.671-1.094,9.2,9.2,0,0,0,.2-2.179,9.2,9.2,0,0,0-.2-2.179,1.807,1.807,0,0,0-.671-1.094,2.345,2.345,0,0,0-1.334-.323,2.3,2.3,0,0,0-1.326.323,1.825,1.825,0,0,0-.663,1.094,9.2,9.2,0,0,0-.2,2.179,9.2,9.2,0,0,0,.2,2.179,1.825,1.825,0,0,0,.663,1.094A2.3,2.3,0,0,0,144.125,16.39Zm6.065,1.525V7.674H152.1v.249a5.774,5.774,0,0,1,2.436-.481,4.929,4.929,0,0,1,2.179.389,2.243,2.243,0,0,1,1.1,1.309,7.963,7.963,0,0,1,.331,2.594v6.181h-1.922V11.734a5.753,5.753,0,0,0-.157-1.533,1.313,1.313,0,0,0-.514-.771,1.868,1.868,0,0,0-1.019-.232,4.823,4.823,0,0,0-1.583.191,1.093,1.093,0,0,0-.679.671,4.706,4.706,0,0,0-.174,1.491v6.364ZM168.3,4.657V6.414h-6.2v3.613h3.977v1.757h-3.977v4.375h6.2v1.757h-8.1V4.657Zm1.773,13.258V7.674h1.906v.249a5.774,5.774,0,0,1,2.436-.481,4.929,4.929,0,0,1,2.179.389,2.243,2.243,0,0,1,1.1,1.309,7.963,7.963,0,0,1,.331,2.594v6.181h-1.922V11.734a5.753,5.753,0,0,0-.157-1.533,1.313,1.313,0,0,0-.514-.771,1.868,1.868,0,0,0-1.019-.232,4.823,4.823,0,0,0-1.583.191,1.093,1.093,0,0,0-.679.671,4.706,4.706,0,0,0-.174,1.491v6.364Zm14.9.232a3.916,3.916,0,0,1-1.939-.414,2.43,2.43,0,0,1-1.069-1.317,6.889,6.889,0,0,1-.34-2.378V9.231h-2.055V7.475h2.055V4.657h1.906V7.475h3.43V9.231h-3.43v4.806a5.962,5.962,0,0,0,.133,1.433,1.178,1.178,0,0,0,.439.713,1.546,1.546,0,0,0,.87.207,3.37,3.37,0,0,0,.887-.083.656.656,0,0,0,.4-.3,4.093,4.093,0,0,0,.29-.746l1.79.613a3.8,3.8,0,0,1-.646,1.351,2.216,2.216,0,0,1-1.036.7A5.388,5.388,0,0,1,184.975,18.147Zm8.916-1.757a2.732,2.732,0,0,0,1.417-.34,4.208,4.208,0,0,0,1.185-1.2l1.525,1.011a5.464,5.464,0,0,1-1.748,1.79,4.863,4.863,0,0,1-2.378.5,5.681,5.681,0,0,1-2.627-.5,2.84,2.84,0,0,1-1.342-1.641,10,10,0,0,1-.406-3.215,10,10,0,0,1,.406-3.215,2.84,2.84,0,0,1,1.342-1.641,5.681,5.681,0,0,1,2.627-.5,5.129,5.129,0,0,1,2.577.539,3.028,3.028,0,0,1,1.317,1.8,12.248,12.248,0,0,1,.4,3.53h-6.745a6.169,6.169,0,0,0,.3,1.839,1.743,1.743,0,0,0,.762.953A2.837,2.837,0,0,0,193.89,16.39Zm0-7.192a2.483,2.483,0,0,0-1.757.522,2.84,2.84,0,0,0-.663,1.831h4.756a3.721,3.721,0,0,0-.215-1.417,1.318,1.318,0,0,0-.721-.721A3.666,3.666,0,0,0,193.89,9.2Zm6.463,8.717V7.674h1.906v.845a3.644,3.644,0,0,1,1.027-.754,2.933,2.933,0,0,1,1.359-.323,4.243,4.243,0,0,1,1.591.257,2.664,2.664,0,0,1,1.085.829,5.6,5.6,0,0,1,.82,1.583l-1.707.779A5.938,5.938,0,0,0,206,9.811a1.082,1.082,0,0,0-.505-.481,2.208,2.208,0,0,0-.853-.133,1.99,1.99,0,0,0-1.839.887,4.954,4.954,0,0,0-.547,2.577v5.253Zm26.184,2.4a4.3,4.3,0,0,1-2.933-1.127,7.231,7.231,0,0,1-1.972-3.174,14.686,14.686,0,0,1-.7-4.731,14.686,14.686,0,0,1,.7-4.731A7.231,7.231,0,0,1,223.6,3.381a4.3,4.3,0,0,1,2.933-1.127V4.011a2.564,2.564,0,0,0-1.931.9,6.155,6.155,0,0,0-1.3,2.552,14.155,14.155,0,0,0-.464,3.82,14.155,14.155,0,0,0,.464,3.82,6.155,6.155,0,0,0,1.3,2.552,2.564,2.564,0,0,0,1.931.9Zm7.325-2.171a4.6,4.6,0,0,1-2.685-.688,3.849,3.849,0,0,1-1.409-2.171,14.947,14.947,0,0,1-.431-4.019,14.868,14.868,0,0,1,.431-4A3.807,3.807,0,0,1,231.177,5.1a4.641,4.641,0,0,1,2.685-.679,5.066,5.066,0,0,1,1.972.331,2.893,2.893,0,0,1,1.284,1.085,7.224,7.224,0,0,1,.87,2.063l-1.806.63a7.682,7.682,0,0,0-.547-1.483,1.518,1.518,0,0,0-.663-.679,2.623,2.623,0,0,0-1.11-.191,2.41,2.41,0,0,0-1.574.464,2.7,2.7,0,0,0-.8,1.558,15.086,15.086,0,0,0-.24,3.066,15.194,15.194,0,0,0,.24,3.082,2.749,2.749,0,0,0,.8,1.566,2.38,2.38,0,0,0,1.574.472,2.623,2.623,0,0,0,1.11-.191,1.532,1.532,0,0,0,.663-.663,7.218,7.218,0,0,0,.547-1.45l1.806.613a7.105,7.105,0,0,1-.87,2.038,2.919,2.919,0,0,1-1.276,1.077A5.053,5.053,0,0,1,233.862,18.147Zm9.695,0a4.609,4.609,0,0,1-2.428-.547,3.057,3.057,0,0,1-1.276-1.707,10.014,10.014,0,0,1-.389-3.1,10.014,10.014,0,0,1,.389-3.1,3.057,3.057,0,0,1,1.276-1.707,5.681,5.681,0,0,1,4.864,0A3.045,3.045,0,0,1,247.277,9.7a10.014,10.014,0,0,1,.389,3.1,10.014,10.014,0,0,1-.389,3.1,3.045,3.045,0,0,1-1.284,1.707A4.654,4.654,0,0,1,243.556,18.147Zm0-1.757a2.345,2.345,0,0,0,1.334-.323,1.807,1.807,0,0,0,.671-1.094,9.2,9.2,0,0,0,.2-2.179,9.2,9.2,0,0,0-.2-2.179,1.807,1.807,0,0,0-.671-1.094,2.345,2.345,0,0,0-1.334-.323,2.3,2.3,0,0,0-1.326.323,1.825,1.825,0,0,0-.663,1.094,9.2,9.2,0,0,0-.2,2.179,9.2,9.2,0,0,0,.2,2.179,1.825,1.825,0,0,0,.663,1.094A2.3,2.3,0,0,0,243.556,16.39Zm11.65,1.757a3.8,3.8,0,0,1-1.8-.348,1.966,1.966,0,0,1-.911-1.16,7.48,7.48,0,0,1-.273-2.287V6.414h-2.088V4.657h3.994v9.695a3.792,3.792,0,0,0,.232,1.6.869.869,0,0,0,.845.439,1.273,1.273,0,0,0,.638-.2,7.782,7.782,0,0,0,.953-.713l1.061,1.624a5.08,5.08,0,0,1-1.3.82A3.7,3.7,0,0,1,255.207,18.147Zm9.943,0a3.8,3.8,0,0,1-1.8-.348,1.966,1.966,0,0,1-.911-1.16,7.479,7.479,0,0,1-.273-2.287V6.414h-2.088V4.657h3.994v9.695a3.792,3.792,0,0,0,.232,1.6.869.869,0,0,0,.845.439,1.273,1.273,0,0,0,.638-.2,7.784,7.784,0,0,0,.953-.713L267.8,17.1a5.08,5.08,0,0,1-1.3.82A3.7,3.7,0,0,1,265.15,18.147Zm9.628-10.473v8.485h2.9v1.757h-7.706V16.158h2.9V9.43h-2.088V7.674Zm-1.309-1.491a1.671,1.671,0,0,1-1.135-.29,1.453,1.453,0,0,1-.307-1.069,1.453,1.453,0,0,1,.307-1.069,1.671,1.671,0,0,1,1.135-.29,1.706,1.706,0,0,1,1.143.29,1.428,1.428,0,0,1,.315,1.069,1.428,1.428,0,0,1-.315,1.069A1.706,1.706,0,0,1,273.469,6.182Zm9.446,11.965a4.12,4.12,0,0,1-2.179-.5,4.3,4.3,0,0,1-1.45-1.757l1.508-1.243a7,7,0,0,0,.572,1.11,1.309,1.309,0,0,0,.588.489,2.635,2.635,0,0,0,.961.141,8.324,8.324,0,0,0,1.723-.133,1.278,1.278,0,0,0,.8-.439,1.534,1.534,0,0,0,.215-.887,1.582,1.582,0,0,0-.174-.845,1.072,1.072,0,0,0-.621-.4,10.625,10.625,0,0,0-1.508-.265,6.527,6.527,0,0,1-2.9-.887,2.3,2.3,0,0,1-.895-2.013,3.361,3.361,0,0,1,.414-1.781,2.409,2.409,0,0,1,1.326-.986,7.731,7.731,0,0,1,2.453-.315,4.909,4.909,0,0,1,2.27.431A4,4,0,0,1,287.489,9.4L286.1,10.756a6.1,6.1,0,0,0-.63-.994,1.4,1.4,0,0,0-.646-.439,3.635,3.635,0,0,0-1.077-.124,6.644,6.644,0,0,0-1.434.116,1.043,1.043,0,0,0-.671.4,1.5,1.5,0,0,0-.182.812.81.81,0,0,0,.2.6,1.261,1.261,0,0,0,.6.3q.4.1,1.226.215a11.706,11.706,0,0,1,2.444.572,2.455,2.455,0,0,1,1.259.978,3.348,3.348,0,0,1,.389,1.748,3.388,3.388,0,0,1-.456,1.864,2.613,2.613,0,0,1-1.475,1.027A9.3,9.3,0,0,1,282.915,18.147ZM294.664,7.674v8.485h2.9v1.757h-7.706V16.158h2.9V9.43H290.67V7.674Zm-1.309-1.491a1.671,1.671,0,0,1-1.135-.29,1.453,1.453,0,0,1-.307-1.069,1.453,1.453,0,0,1,.307-1.069,1.671,1.671,0,0,1,1.135-.29,1.706,1.706,0,0,1,1.143.29,1.428,1.428,0,0,1,.315,1.069,1.428,1.428,0,0,1-.315,1.069A1.706,1.706,0,0,1,293.355,6.182Zm9.86,11.965a4.608,4.608,0,0,1-2.428-.547,3.057,3.057,0,0,1-1.276-1.707,10.015,10.015,0,0,1-.389-3.1,10.015,10.015,0,0,1,.389-3.1,3.057,3.057,0,0,1,1.276-1.707,5.681,5.681,0,0,1,4.864,0A3.045,3.045,0,0,1,306.936,9.7a10.015,10.015,0,0,1,.389,3.1,10.015,10.015,0,0,1-.389,3.1,3.045,3.045,0,0,1-1.284,1.707A4.654,4.654,0,0,1,303.215,18.147Zm0-1.757a2.346,2.346,0,0,0,1.334-.323,1.807,1.807,0,0,0,.671-1.094,9.2,9.2,0,0,0,.2-2.179,9.2,9.2,0,0,0-.2-2.179,1.807,1.807,0,0,0-.671-1.094,2.346,2.346,0,0,0-1.334-.323,2.3,2.3,0,0,0-1.326.323,1.825,1.825,0,0,0-.663,1.094,9.2,9.2,0,0,0-.2,2.179,9.2,9.2,0,0,0,.2,2.179,1.825,1.825,0,0,0,.663,1.094A2.3,2.3,0,0,0,303.215,16.39Zm6.065,1.525V7.674h1.906v.249a5.774,5.774,0,0,1,2.436-.481,4.929,4.929,0,0,1,2.179.389,2.243,2.243,0,0,1,1.1,1.309,7.963,7.963,0,0,1,.331,2.594v6.181h-1.922V11.734a5.752,5.752,0,0,0-.157-1.533,1.313,1.313,0,0,0-.514-.771,1.868,1.868,0,0,0-1.019-.232,4.823,4.823,0,0,0-1.583.191,1.093,1.093,0,0,0-.679.671,4.705,4.705,0,0,0-.174,1.491v6.364Zm24.062.232a5.374,5.374,0,0,1-2.618-.539,3.061,3.061,0,0,1-1.384-1.7,9.343,9.343,0,0,1-.423-3.116,9.343,9.343,0,0,1,.423-3.116,3.043,3.043,0,0,1,1.4-1.7,5.558,5.558,0,0,1,2.668-.539,4.476,4.476,0,0,1,2.3.514,5.207,5.207,0,0,1,1.657,1.823l-1.591.945a6.752,6.752,0,0,0-.713-.961,1.63,1.63,0,0,0-.671-.439,4.013,4.013,0,0,0-2.569.2,1.759,1.759,0,0,0-.779,1.085,8.2,8.2,0,0,0-.224,2.187,8.2,8.2,0,0,0,.224,2.187,1.794,1.794,0,0,0,.754,1.085,2.993,2.993,0,0,0,1.541.323,3.105,3.105,0,0,0,.986-.133,1.846,1.846,0,0,0,.713-.456,6.553,6.553,0,0,0,.754-.969l1.574.961a5.4,5.4,0,0,1-1.7,1.839A4.561,4.561,0,0,1,333.343,18.147Zm9.645,0a4.609,4.609,0,0,1-2.428-.547,3.057,3.057,0,0,1-1.276-1.707,10.015,10.015,0,0,1-.389-3.1,10.015,10.015,0,0,1,.389-3.1,3.057,3.057,0,0,1,1.276-1.707,5.681,5.681,0,0,1,4.864,0A3.045,3.045,0,0,1,346.708,9.7a10.015,10.015,0,0,1,.389,3.1,10.015,10.015,0,0,1-.389,3.1,3.045,3.045,0,0,1-1.284,1.707A4.654,4.654,0,0,1,342.988,18.147Zm0-1.757a2.346,2.346,0,0,0,1.334-.323,1.807,1.807,0,0,0,.671-1.094,9.2,9.2,0,0,0,.2-2.179,9.2,9.2,0,0,0-.2-2.179,1.807,1.807,0,0,0-.671-1.094,2.346,2.346,0,0,0-1.334-.323,2.3,2.3,0,0,0-1.326.323A1.825,1.825,0,0,0,341,10.615a9.2,9.2,0,0,0-.2,2.179,9.2,9.2,0,0,0,.2,2.179,1.825,1.825,0,0,0,.663,1.094A2.3,2.3,0,0,0,342.988,16.39Zm11.65,1.757a3.8,3.8,0,0,1-1.8-.348,1.966,1.966,0,0,1-.911-1.16,7.479,7.479,0,0,1-.273-2.287V6.414h-2.088V4.657h3.994v9.695a3.791,3.791,0,0,0,.232,1.6.869.869,0,0,0,.845.439,1.273,1.273,0,0,0,.638-.2,7.784,7.784,0,0,0,.953-.713L357.29,17.1a5.08,5.08,0,0,1-1.3.82A3.7,3.7,0,0,1,354.638,18.147Zm9.943,0a3.8,3.8,0,0,1-1.8-.348,1.966,1.966,0,0,1-.911-1.16,7.479,7.479,0,0,1-.273-2.287V6.414H359.51V4.657H363.5v9.695a3.791,3.791,0,0,0,.232,1.6.869.869,0,0,0,.845.439,1.274,1.274,0,0,0,.638-.2,7.784,7.784,0,0,0,.953-.713l1.061,1.624a5.08,5.08,0,0,1-1.3.82A3.7,3.7,0,0,1,364.581,18.147Zm9.628-10.473v8.485h2.9v1.757H369.4V16.158h2.9V9.43h-2.088V7.674ZM372.9,6.182a1.671,1.671,0,0,1-1.135-.29,1.453,1.453,0,0,1-.307-1.069,1.453,1.453,0,0,1,.307-1.069,1.671,1.671,0,0,1,1.135-.29,1.706,1.706,0,0,1,1.143.29,1.428,1.428,0,0,1,.315,1.069,1.428,1.428,0,0,1-.315,1.069A1.706,1.706,0,0,1,372.9,6.182Zm9.446,11.965a4.12,4.12,0,0,1-2.179-.5,4.3,4.3,0,0,1-1.45-1.757l1.508-1.243a7,7,0,0,0,.572,1.11,1.309,1.309,0,0,0,.588.489,2.635,2.635,0,0,0,.961.141,8.323,8.323,0,0,0,1.723-.133,1.278,1.278,0,0,0,.8-.439,1.534,1.534,0,0,0,.215-.887,1.582,1.582,0,0,0-.174-.845,1.072,1.072,0,0,0-.621-.4,10.626,10.626,0,0,0-1.508-.265,6.527,6.527,0,0,1-2.9-.887,2.3,2.3,0,0,1-.895-2.013,3.361,3.361,0,0,1,.414-1.781,2.408,2.408,0,0,1,1.326-.986,7.731,7.731,0,0,1,2.453-.315,4.909,4.909,0,0,1,2.27.431A4,4,0,0,1,386.92,9.4l-1.392,1.359a6.1,6.1,0,0,0-.63-.994,1.4,1.4,0,0,0-.646-.439,3.635,3.635,0,0,0-1.077-.124,6.644,6.644,0,0,0-1.433.116,1.043,1.043,0,0,0-.671.4,1.5,1.5,0,0,0-.182.812.81.81,0,0,0,.2.6,1.261,1.261,0,0,0,.6.3q.4.1,1.226.215a11.705,11.705,0,0,1,2.444.572,2.454,2.454,0,0,1,1.259.978A3.348,3.348,0,0,1,387,14.932a3.388,3.388,0,0,1-.456,1.864,2.613,2.613,0,0,1-1.475,1.027A9.3,9.3,0,0,1,382.346,18.147ZM394.1,7.674v8.485H397v1.757H389.29V16.158h2.9V9.43H390.1V7.674Zm-1.309-1.491a1.671,1.671,0,0,1-1.135-.29,1.453,1.453,0,0,1-.307-1.069,1.453,1.453,0,0,1,.307-1.069,1.671,1.671,0,0,1,1.135-.29,1.706,1.706,0,0,1,1.143.29,1.428,1.428,0,0,1,.315,1.069,1.428,1.428,0,0,1-.315,1.069A1.706,1.706,0,0,1,392.787,6.182Zm9.86,11.965a4.608,4.608,0,0,1-2.428-.547,3.057,3.057,0,0,1-1.276-1.707,10.015,10.015,0,0,1-.389-3.1,10.015,10.015,0,0,1,.389-3.1,3.057,3.057,0,0,1,1.276-1.707,5.681,5.681,0,0,1,4.864,0A3.045,3.045,0,0,1,406.367,9.7a10.015,10.015,0,0,1,.389,3.1,10.015,10.015,0,0,1-.389,3.1,3.045,3.045,0,0,1-1.284,1.707A4.654,4.654,0,0,1,402.647,18.147Zm0-1.757a2.346,2.346,0,0,0,1.334-.323,1.807,1.807,0,0,0,.671-1.094,9.2,9.2,0,0,0,.2-2.179,9.2,9.2,0,0,0-.2-2.179,1.807,1.807,0,0,0-.671-1.094,2.346,2.346,0,0,0-1.334-.323,2.3,2.3,0,0,0-1.326.323,1.825,1.825,0,0,0-.663,1.094,9.2,9.2,0,0,0-.2,2.179,9.2,9.2,0,0,0,.2,2.179,1.825,1.825,0,0,0,.663,1.094A2.3,2.3,0,0,0,402.647,16.39Zm6.065,1.525V7.674h1.906v.249a5.774,5.774,0,0,1,2.436-.481,4.929,4.929,0,0,1,2.179.389,2.243,2.243,0,0,1,1.1,1.309,7.963,7.963,0,0,1,.331,2.594v6.181h-1.922V11.734a5.753,5.753,0,0,0-.157-1.533,1.313,1.313,0,0,0-.514-.771,1.868,1.868,0,0,0-1.019-.232,4.823,4.823,0,0,0-1.583.191,1.093,1.093,0,0,0-.679.671,4.705,4.705,0,0,0-.174,1.491v6.364Zm10.971.646a2.564,2.564,0,0,0,1.931-.9,6.155,6.155,0,0,0,1.3-2.552,14.154,14.154,0,0,0,.464-3.82,14.154,14.154,0,0,0-.464-3.82,6.155,6.155,0,0,0-1.3-2.552,2.564,2.564,0,0,0-1.931-.9V2.255a4.3,4.3,0,0,1,2.933,1.127,7.231,7.231,0,0,1,1.972,3.174,14.686,14.686,0,0,1,.7,4.731,14.686,14.686,0,0,1-.7,4.731,7.231,7.231,0,0,1-1.972,3.174,4.3,4.3,0,0,1-2.933,1.127ZM445.9,20.318a5.889,5.889,0,0,1-3.563-.853,3.221,3.221,0,0,1-1.11-2.726,8.922,8.922,0,0,1,.166-1.491,8.714,8.714,0,0,0,.133-1.127,1.853,1.853,0,0,0-.58-.961q-.58-.646-1.889-1.873,1.309-1.259,1.889-1.906a1.831,1.831,0,0,0,.58-.994,6.739,6.739,0,0,0-.133-1.011,8.189,8.189,0,0,1-.166-1.525,3.245,3.245,0,0,1,1.11-2.734,5.845,5.845,0,0,1,3.563-.862V4.028a6.185,6.185,0,0,0-1.657.174,1.47,1.47,0,0,0-.862.58,2.066,2.066,0,0,0-.265,1.135,5.546,5.546,0,0,0,.166,1.276,4.334,4.334,0,0,1,.149,1.027,2.942,2.942,0,0,1-.447,1.549,6.144,6.144,0,0,1-1.409,1.516,5.9,5.9,0,0,1,1.417,1.475,2.856,2.856,0,0,1,.439,1.525A5.169,5.169,0,0,1,443.3,15.3a6.6,6.6,0,0,0-.166,1.392,2.039,2.039,0,0,0,.257,1.11,1.446,1.446,0,0,0,.853.572,6.185,6.185,0,0,0,1.657.174Zm-320.269,14.7V43.5h2.9v1.757h-7.706V43.5h2.9V36.774h-2.088V35.017Zm-1.309-1.491a1.671,1.671,0,0,1-1.135-.29,1.453,1.453,0,0,1-.307-1.069,1.453,1.453,0,0,1,.307-1.069,1.671,1.671,0,0,1,1.135-.29,1.706,1.706,0,0,1,1.143.29,1.428,1.428,0,0,1,.315,1.069,1.428,1.428,0,0,1-.315,1.069A1.706,1.706,0,0,1,124.322,33.526Zm11.219-1.757a6.167,6.167,0,0,1,1.8.215,2.258,2.258,0,0,1,1.094.7,3.536,3.536,0,0,1,.638,1.351l-1.79.613a2.626,2.626,0,0,0-.273-.729.775.775,0,0,0-.456-.307,4,4,0,0,0-1.011-.091,2.7,2.7,0,0,0-1.11.174.994.994,0,0,0-.514.613,4.437,4.437,0,0,0-.149,1.334v.961h2.95v1.757h-2.95v6.894h-1.906V38.365h-2.055V36.608h2.055v-.961a5.945,5.945,0,0,1,.356-2.279,2.3,2.3,0,0,1,1.16-1.218A5.111,5.111,0,0,1,135.541,31.769Zm11.451,15.892a4.3,4.3,0,0,1-2.933-1.127,7.231,7.231,0,0,1-1.972-3.174,14.686,14.686,0,0,1-.7-4.731,14.686,14.686,0,0,1,.7-4.731,7.231,7.231,0,0,1,1.972-3.174,4.3,4.3,0,0,1,2.933-1.127v1.757a2.564,2.564,0,0,0-1.931.9,6.155,6.155,0,0,0-1.3,2.552,14.155,14.155,0,0,0-.464,3.82,14.155,14.155,0,0,0,.464,3.82,6.155,6.155,0,0,0,1.3,2.552,2.564,2.564,0,0,0,1.931.9Zm7.375-2.171a5.374,5.374,0,0,1-2.618-.539,3.061,3.061,0,0,1-1.384-1.7,9.343,9.343,0,0,1-.423-3.116,9.343,9.343,0,0,1,.423-3.116,3.043,3.043,0,0,1,1.4-1.7,5.558,5.558,0,0,1,2.668-.539,4.476,4.476,0,0,1,2.3.514,5.206,5.206,0,0,1,1.657,1.823l-1.591.945a6.748,6.748,0,0,0-.713-.961,1.63,1.63,0,0,0-.671-.439,4.013,4.013,0,0,0-2.569.2,1.759,1.759,0,0,0-.779,1.085,8.2,8.2,0,0,0-.224,2.187,8.2,8.2,0,0,0,.224,2.187,1.793,1.793,0,0,0,.754,1.085,2.993,2.993,0,0,0,1.541.323,3.105,3.105,0,0,0,.986-.133,1.846,1.846,0,0,0,.713-.456,6.553,6.553,0,0,0,.754-.969l1.574.961a5.4,5.4,0,0,1-1.7,1.839A4.561,4.561,0,0,1,154.366,45.491Zm9.645,0a4.608,4.608,0,0,1-2.428-.547,3.057,3.057,0,0,1-1.276-1.707,10.014,10.014,0,0,1-.389-3.1,10.014,10.014,0,0,1,.389-3.1,3.057,3.057,0,0,1,1.276-1.707,5.681,5.681,0,0,1,4.864,0,3.045,3.045,0,0,1,1.284,1.707,10.015,10.015,0,0,1,.389,3.1,10.015,10.015,0,0,1-.389,3.1,3.045,3.045,0,0,1-1.284,1.707A4.654,4.654,0,0,1,164.011,45.491Zm0-1.757a2.346,2.346,0,0,0,1.334-.323,1.807,1.807,0,0,0,.671-1.094,9.2,9.2,0,0,0,.2-2.179,9.2,9.2,0,0,0-.2-2.179,1.807,1.807,0,0,0-.671-1.094,2.346,2.346,0,0,0-1.334-.323,2.3,2.3,0,0,0-1.326.323,1.825,1.825,0,0,0-.663,1.094,9.2,9.2,0,0,0-.2,2.179,9.2,9.2,0,0,0,.2,2.179,1.825,1.825,0,0,0,.663,1.094A2.3,2.3,0,0,0,164.011,43.734Zm11.65,1.757a3.8,3.8,0,0,1-1.8-.348,1.966,1.966,0,0,1-.911-1.16,7.48,7.48,0,0,1-.273-2.287V33.758H170.59V32h3.994V41.7a3.792,3.792,0,0,0,.232,1.6.869.869,0,0,0,.845.439,1.273,1.273,0,0,0,.638-.2,7.784,7.784,0,0,0,.953-.713l1.061,1.624a5.08,5.08,0,0,1-1.3.82A3.7,3.7,0,0,1,175.661,45.491Zm9.943,0a3.8,3.8,0,0,1-1.8-.348,1.966,1.966,0,0,1-.911-1.16,7.479,7.479,0,0,1-.273-2.287V33.758h-2.088V32h3.994V41.7a3.791,3.791,0,0,0,.232,1.6.869.869,0,0,0,.845.439,1.273,1.273,0,0,0,.638-.2,7.784,7.784,0,0,0,.953-.713l1.061,1.624a5.08,5.08,0,0,1-1.3.82A3.7,3.7,0,0,1,185.6,45.491Zm9.628-10.473V43.5h2.9v1.757h-7.706V43.5h2.9V36.774h-2.088V35.017Zm-1.309-1.491a1.671,1.671,0,0,1-1.135-.29,1.453,1.453,0,0,1-.307-1.069,1.453,1.453,0,0,1,.307-1.069,1.671,1.671,0,0,1,1.135-.29,1.706,1.706,0,0,1,1.143.29,1.428,1.428,0,0,1,.315,1.069,1.428,1.428,0,0,1-.315,1.069A1.706,1.706,0,0,1,193.924,33.526Zm9.446,11.965a4.12,4.12,0,0,1-2.179-.5,4.3,4.3,0,0,1-1.45-1.757l1.508-1.243a7,7,0,0,0,.572,1.11,1.309,1.309,0,0,0,.588.489,2.635,2.635,0,0,0,.961.141,8.324,8.324,0,0,0,1.723-.133,1.278,1.278,0,0,0,.8-.439,1.534,1.534,0,0,0,.215-.887,1.582,1.582,0,0,0-.174-.845,1.072,1.072,0,0,0-.621-.4,10.625,10.625,0,0,0-1.508-.265,6.527,6.527,0,0,1-2.9-.887,2.3,2.3,0,0,1-.895-2.013,3.362,3.362,0,0,1,.414-1.781,2.409,2.409,0,0,1,1.326-.986,7.731,7.731,0,0,1,2.453-.315,4.909,4.909,0,0,1,2.27.431,4,4,0,0,1,1.475,1.525L206.551,38.1a6.1,6.1,0,0,0-.63-.994,1.4,1.4,0,0,0-.646-.439,3.635,3.635,0,0,0-1.077-.124,6.644,6.644,0,0,0-1.433.116,1.043,1.043,0,0,0-.671.4,1.5,1.5,0,0,0-.182.812.81.81,0,0,0,.2.6,1.261,1.261,0,0,0,.6.3q.4.1,1.226.215a11.705,11.705,0,0,1,2.444.572,2.454,2.454,0,0,1,1.259.978,3.348,3.348,0,0,1,.389,1.748,3.388,3.388,0,0,1-.456,1.864,2.613,2.613,0,0,1-1.475,1.027A9.3,9.3,0,0,1,203.37,45.491Zm11.749-10.473V43.5h2.9v1.757h-7.706V43.5h2.9V36.774h-2.088V35.017Zm-1.309-1.491a1.671,1.671,0,0,1-1.135-.29,1.453,1.453,0,0,1-.307-1.069,1.453,1.453,0,0,1,.307-1.069,1.671,1.671,0,0,1,1.135-.29,1.706,1.706,0,0,1,1.143.29,1.428,1.428,0,0,1,.315,1.069,1.428,1.428,0,0,1-.315,1.069A1.706,1.706,0,0,1,213.81,33.526Zm9.86,11.965a4.609,4.609,0,0,1-2.428-.547,3.057,3.057,0,0,1-1.276-1.707,10.014,10.014,0,0,1-.389-3.1,10.014,10.014,0,0,1,.389-3.1,3.057,3.057,0,0,1,1.276-1.707,5.681,5.681,0,0,1,4.864,0,3.045,3.045,0,0,1,1.284,1.707,10.014,10.014,0,0,1,.389,3.1,10.014,10.014,0,0,1-.389,3.1,3.045,3.045,0,0,1-1.284,1.707A4.654,4.654,0,0,1,223.67,45.491Zm0-1.757A2.345,2.345,0,0,0,225,43.411a1.807,1.807,0,0,0,.671-1.094,9.2,9.2,0,0,0,.2-2.179,9.2,9.2,0,0,0-.2-2.179A1.807,1.807,0,0,0,225,36.865a2.345,2.345,0,0,0-1.334-.323,2.3,2.3,0,0,0-1.326.323,1.825,1.825,0,0,0-.663,1.094,9.2,9.2,0,0,0-.2,2.179,9.2,9.2,0,0,0,.2,2.179,1.825,1.825,0,0,0,.663,1.094A2.3,2.3,0,0,0,223.67,43.734Zm6.065,1.525V35.017h1.906v.249a5.774,5.774,0,0,1,2.436-.481,4.929,4.929,0,0,1,2.179.389,2.243,2.243,0,0,1,1.1,1.309,7.963,7.963,0,0,1,.331,2.594v6.181h-1.922V39.077a5.753,5.753,0,0,0-.157-1.533,1.313,1.313,0,0,0-.514-.771,1.868,1.868,0,0,0-1.019-.232,4.823,4.823,0,0,0-1.583.191,1.093,1.093,0,0,0-.679.671,4.706,4.706,0,0,0-.174,1.491v6.364Zm13.821.232a1.735,1.735,0,0,1-1.185-.307,1.465,1.465,0,0,1-.323-1.085,1.492,1.492,0,0,1,.323-1.1,2.443,2.443,0,0,1,2.37,0,1.492,1.492,0,0,1,.323,1.1,1.465,1.465,0,0,1-.323,1.085A1.735,1.735,0,0,1,243.556,45.491Zm9.91,3.016a4.5,4.5,0,0,1-1.848-.315,4.054,4.054,0,0,1-1.367-1.127l1.392-1.193a2.936,2.936,0,0,0,.787.713,2.4,2.4,0,0,0,1.036.166,3.178,3.178,0,0,0,1.293-.207,1.19,1.19,0,0,0,.63-.713,4.607,4.607,0,0,0,.182-1.483v-.033a6.185,6.185,0,0,1-2.221.4,4.6,4.6,0,0,1-2.436-.555,3.092,3.092,0,0,1-1.284-1.765,11,11,0,0,1-.389-3.265,6.431,6.431,0,0,1,.406-2.5,2.692,2.692,0,0,1,1.3-1.392,5.419,5.419,0,0,1,2.4-.447,7,7,0,0,1,2.221.331v-.1h1.906V44.2a6.653,6.653,0,0,1-.389,2.519,2.572,2.572,0,0,1-1.259,1.359A5.383,5.383,0,0,1,253.466,48.507Zm-.116-5.552a2.224,2.224,0,0,0,1.7-.563,2.52,2.52,0,0,0,.522-1.757V37.5a.785.785,0,0,0-.539-.7,4.126,4.126,0,0,0-1.682-.257,3.083,3.083,0,0,0-1.342.232,1.308,1.308,0,0,0-.655.787,5.033,5.033,0,0,0-.191,1.566,10.436,10.436,0,0,0,.2,2.337,1.936,1.936,0,0,0,.663,1.152A2.217,2.217,0,0,0,253.35,42.955Zm9.827,2.536a6.754,6.754,0,0,1-2.345-.331,2.312,2.312,0,0,1-1.259-1.036,3.889,3.889,0,0,1-.389-1.881,4.374,4.374,0,0,1,.389-2.047,2.124,2.124,0,0,1,1.243-1.011,7.618,7.618,0,0,1,2.362-.29h2.088V38.53a2.665,2.665,0,0,0-.174-1.077,1.014,1.014,0,0,0-.621-.539,4.089,4.089,0,0,0-1.293-.157,3.081,3.081,0,0,0-1.061.141,1.068,1.068,0,0,0-.563.505,4.847,4.847,0,0,0-.381,1.11l-1.823-.447a6.655,6.655,0,0,1,.746-1.889,2.713,2.713,0,0,1,1.193-1.052,4.569,4.569,0,0,1,1.889-.34,4.243,4.243,0,0,1,3.074.92,3.848,3.848,0,0,1,.92,2.826v3.878a1.962,1.962,0,0,0,.133.895.615.615,0,0,0,.563.215q.133,0,.6-.033v1.757q-.2.017-.547.017a2.472,2.472,0,0,1-1.989-.663,2.508,2.508,0,0,1-1.11.688A5.571,5.571,0,0,1,263.178,45.491Zm0-1.757a3.3,3.3,0,0,0,1.293-.2,1.13,1.13,0,0,0,.621-.679,4.291,4.291,0,0,0,.174-1.392v-.812h-2.088a6.8,6.8,0,0,0-1.342.091.794.794,0,0,0-.563.414,2.559,2.559,0,0,0-.166,1.085,1.994,1.994,0,0,0,.166.92.959.959,0,0,0,.6.439A4.8,4.8,0,0,0,263.178,43.734Zm5.634,1.525V35.017h1.906v-.066q.133-.033.5-.1a3.661,3.661,0,0,1,.646-.066,2.344,2.344,0,0,1,1.027.182,1.947,1.947,0,0,1,.7.663,2.165,2.165,0,0,1,1.889-.845,2.444,2.444,0,0,1,1.491.4,2.268,2.268,0,0,1,.762,1.309,10.788,10.788,0,0,1,.232,2.536v6.231h-1.906V39.028a8.83,8.83,0,0,0-.124-1.815q-.124-.505-.456-.505a.907.907,0,0,0-.887.464,4.025,4.025,0,0,0-.24,1.674v6.413h-1.906V39.127a9.028,9.028,0,0,0-.133-1.881q-.133-.539-.447-.539a.925.925,0,0,0-.895.464,3.9,3.9,0,0,0-.249,1.674v6.413Zm14.567-1.525a2.732,2.732,0,0,0,1.417-.34,4.208,4.208,0,0,0,1.185-1.2l1.525,1.011a5.464,5.464,0,0,1-1.748,1.79,4.863,4.863,0,0,1-2.378.5,5.681,5.681,0,0,1-2.627-.5,2.84,2.84,0,0,1-1.342-1.641A10,10,0,0,1,279,40.138a10,10,0,0,1,.406-3.215,2.84,2.84,0,0,1,1.342-1.641,5.681,5.681,0,0,1,2.627-.5,5.129,5.129,0,0,1,2.577.539,3.028,3.028,0,0,1,1.317,1.8,12.248,12.248,0,0,1,.4,3.53h-6.745a6.169,6.169,0,0,0,.3,1.839,1.743,1.743,0,0,0,.762.953A2.837,2.837,0,0,0,283.379,43.734Zm0-7.192a2.483,2.483,0,0,0-1.757.522,2.84,2.84,0,0,0-.663,1.831h4.756a3.721,3.721,0,0,0-.215-1.417,1.318,1.318,0,0,0-.721-.721A3.666,3.666,0,0,0,283.379,36.542Zm9.893,8.949a4.739,4.739,0,0,1-2.61-.621,3.448,3.448,0,0,1-1.367-1.964,12.662,12.662,0,0,1-.414-3.613V37.967a12.662,12.662,0,0,1,.414-3.613,3.448,3.448,0,0,1,1.367-1.964,5.792,5.792,0,0,1,5.22,0,3.484,3.484,0,0,1,1.375,1.964,12.426,12.426,0,0,1,.423,3.613v1.326a12.426,12.426,0,0,1-.423,3.613,3.484,3.484,0,0,1-1.375,1.964A4.739,4.739,0,0,1,293.272,45.491Zm0-1.757a2.438,2.438,0,0,0,1.508-.406,2.3,2.3,0,0,0,.754-1.351,12.335,12.335,0,0,0,.224-2.685V37.967a12.335,12.335,0,0,0-.224-2.685,2.3,2.3,0,0,0-.754-1.351,3,3,0,0,0-3.016,0,2.3,2.3,0,0,0-.754,1.351,12.335,12.335,0,0,0-.224,2.685v1.326A11.458,11.458,0,0,0,291,41.969a2.342,2.342,0,0,0,.762,1.359A2.438,2.438,0,0,0,293.272,43.734Zm10.142,1.757a5.908,5.908,0,0,1-2.345-.389,4.359,4.359,0,0,1-1.649-1.367V32h1.906V35.15a5.84,5.84,0,0,1,2.088-.365,4.408,4.408,0,0,1,2.361.547,3.047,3.047,0,0,1,1.251,1.707,10.287,10.287,0,0,1,.381,3.116,10.218,10.218,0,0,1-.381,3.1,3.008,3.008,0,0,1-1.251,1.7A4.463,4.463,0,0,1,303.414,45.491Zm0-1.757a2.123,2.123,0,0,0,1.259-.323,1.825,1.825,0,0,0,.638-1.085,9.471,9.471,0,0,0,.191-2.171,9.586,9.586,0,0,0-.191-2.179,1.871,1.871,0,0,0-.638-1.1,2.083,2.083,0,0,0-1.259-.331,3.416,3.416,0,0,0-1.3.191,1.105,1.105,0,0,0-.613.688,4.729,4.729,0,0,0-.174,1.475v4.226a2.091,2.091,0,0,0,.829.489A4.829,4.829,0,0,0,303.414,43.734Zm8.717,4.773a4.5,4.5,0,0,1-1.848-.315,4.054,4.054,0,0,1-1.367-1.127l1.392-1.193a2.936,2.936,0,0,0,.787.713,2.4,2.4,0,0,0,1.036.166,2.867,2.867,0,0,0,1.3-.232,1.306,1.306,0,0,0,.621-.812,6.124,6.124,0,0,0,.182-1.723V36.774h-2.088V35.017h3.994v8.965a7.4,7.4,0,0,1-.389,2.668,2.6,2.6,0,0,1-1.251,1.417A5.285,5.285,0,0,1,312.131,48.507Zm2.651-14.981a1.671,1.671,0,0,1-1.135-.29,1.453,1.453,0,0,1-.307-1.069,1.453,1.453,0,0,1,.307-1.069,1.671,1.671,0,0,1,1.135-.29,1.706,1.706,0,0,1,1.143.29,1.428,1.428,0,0,1,.315,1.069,1.428,1.428,0,0,1-.315,1.069A1.706,1.706,0,0,1,314.783,33.526Zm8.369,10.208a2.732,2.732,0,0,0,1.417-.34,4.207,4.207,0,0,0,1.185-1.2l1.525,1.011a5.464,5.464,0,0,1-1.748,1.79,4.863,4.863,0,0,1-2.378.5,5.681,5.681,0,0,1-2.627-.5,2.84,2.84,0,0,1-1.342-1.641,10,10,0,0,1-.406-3.215,10,10,0,0,1,.406-3.215,2.84,2.84,0,0,1,1.342-1.641,5.681,5.681,0,0,1,2.627-.5,5.129,5.129,0,0,1,2.577.539,3.029,3.029,0,0,1,1.317,1.8,12.25,12.25,0,0,1,.4,3.53H320.7a6.169,6.169,0,0,0,.3,1.839,1.743,1.743,0,0,0,.762.953A2.837,2.837,0,0,0,323.151,43.734Zm0-7.192a2.483,2.483,0,0,0-1.757.522,2.84,2.84,0,0,0-.663,1.831h4.756a3.721,3.721,0,0,0-.215-1.417,1.319,1.319,0,0,0-.721-.721A3.666,3.666,0,0,0,323.151,36.542Zm10.192,8.949a5.374,5.374,0,0,1-2.618-.539,3.061,3.061,0,0,1-1.384-1.7,9.343,9.343,0,0,1-.423-3.116,9.343,9.343,0,0,1,.423-3.116,3.043,3.043,0,0,1,1.4-1.7,5.558,5.558,0,0,1,2.668-.539,4.476,4.476,0,0,1,2.3.514,5.207,5.207,0,0,1,1.657,1.823l-1.591.945a6.752,6.752,0,0,0-.713-.961,1.63,1.63,0,0,0-.671-.439,4.013,4.013,0,0,0-2.569.2,1.759,1.759,0,0,0-.779,1.085,8.2,8.2,0,0,0-.224,2.187,8.2,8.2,0,0,0,.224,2.187,1.794,1.794,0,0,0,.754,1.085,2.993,2.993,0,0,0,1.541.323,3.105,3.105,0,0,0,.986-.133,1.846,1.846,0,0,0,.713-.456,6.554,6.554,0,0,0,.754-.969l1.574.961a5.4,5.4,0,0,1-1.7,1.839A4.561,4.561,0,0,1,333.343,45.491Zm10.722,0a3.916,3.916,0,0,1-1.939-.414,2.431,2.431,0,0,1-1.069-1.317,6.89,6.89,0,0,1-.34-2.378V36.575h-2.055V34.818h2.055V32h1.906v2.817h3.43v1.757h-3.43v4.806a5.962,5.962,0,0,0,.133,1.433,1.178,1.178,0,0,0,.439.713,1.546,1.546,0,0,0,.87.207,3.37,3.37,0,0,0,.887-.083.655.655,0,0,0,.4-.3,4.094,4.094,0,0,0,.29-.746l1.79.613a3.8,3.8,0,0,1-.646,1.351,2.216,2.216,0,0,1-1.036.7A5.388,5.388,0,0,1,344.065,45.491Zm8.866,0a1.735,1.735,0,0,1-1.185-.307,1.465,1.465,0,0,1-.323-1.085,1.492,1.492,0,0,1,.323-1.1,2.443,2.443,0,0,1,2.37,0,1.492,1.492,0,0,1,.323,1.1,1.465,1.465,0,0,1-.323,1.085A1.735,1.735,0,0,1,352.931,45.491Zm11.02,0a3.916,3.916,0,0,1-1.939-.414,2.43,2.43,0,0,1-1.069-1.317,6.89,6.89,0,0,1-.34-2.378V36.575h-2.055V34.818H360.6V32h1.906v2.817h3.43v1.757h-3.43v4.806a5.963,5.963,0,0,0,.133,1.433,1.178,1.178,0,0,0,.439.713,1.546,1.546,0,0,0,.87.207,3.37,3.37,0,0,0,.887-.083.655.655,0,0,0,.4-.3,4.092,4.092,0,0,0,.29-.746l1.79.613a3.8,3.8,0,0,1-.646,1.351,2.216,2.216,0,0,1-1.036.7A5.388,5.388,0,0,1,363.951,45.491Zm8.6,0a6.753,6.753,0,0,1-2.345-.331,2.312,2.312,0,0,1-1.259-1.036,3.889,3.889,0,0,1-.389-1.881,4.374,4.374,0,0,1,.389-2.047,2.123,2.123,0,0,1,1.243-1.011,7.618,7.618,0,0,1,2.361-.29h2.088V38.53a2.665,2.665,0,0,0-.174-1.077,1.014,1.014,0,0,0-.621-.539,4.089,4.089,0,0,0-1.293-.157,3.081,3.081,0,0,0-1.061.141,1.068,1.068,0,0,0-.563.505,4.846,4.846,0,0,0-.381,1.11l-1.823-.447a6.655,6.655,0,0,1,.746-1.889,2.713,2.713,0,0,1,1.193-1.052,4.569,4.569,0,0,1,1.889-.34,4.243,4.243,0,0,1,3.074.92,3.848,3.848,0,0,1,.92,2.826v3.878a1.961,1.961,0,0,0,.133.895.615.615,0,0,0,.563.215q.133,0,.6-.033v1.757q-.2.017-.547.017A2.473,2.473,0,0,1,375.3,44.6a2.508,2.508,0,0,1-1.11.688A5.571,5.571,0,0,1,372.552,45.491Zm0-1.757a3.3,3.3,0,0,0,1.293-.2,1.131,1.131,0,0,0,.621-.679,4.291,4.291,0,0,0,.174-1.392v-.812h-2.088a6.8,6.8,0,0,0-1.342.091.794.794,0,0,0-.563.414,2.559,2.559,0,0,0-.166,1.085,1.994,1.994,0,0,0,.166.92.959.959,0,0,0,.6.439A4.8,4.8,0,0,0,372.552,43.734Zm10.175,4.773a4.5,4.5,0,0,1-1.848-.315,4.054,4.054,0,0,1-1.367-1.127l1.392-1.193a2.937,2.937,0,0,0,.787.713,2.4,2.4,0,0,0,1.036.166,3.178,3.178,0,0,0,1.293-.207,1.19,1.19,0,0,0,.63-.713,4.607,4.607,0,0,0,.182-1.483v-.033a6.185,6.185,0,0,1-2.221.4,4.6,4.6,0,0,1-2.436-.555,3.092,3.092,0,0,1-1.284-1.765,11,11,0,0,1-.389-3.265,6.43,6.43,0,0,1,.406-2.5,2.692,2.692,0,0,1,1.3-1.392,5.42,5.42,0,0,1,2.4-.447,7,7,0,0,1,2.221.331v-.1h1.906V44.2a6.653,6.653,0,0,1-.389,2.519,2.572,2.572,0,0,1-1.259,1.359A5.383,5.383,0,0,1,382.727,48.507Zm-.116-5.552a2.224,2.224,0,0,0,1.7-.563,2.52,2.52,0,0,0,.522-1.757V37.5a.785.785,0,0,0-.539-.7,4.126,4.126,0,0,0-1.682-.257,3.083,3.083,0,0,0-1.342.232,1.308,1.308,0,0,0-.655.787,5.032,5.032,0,0,0-.191,1.566,10.434,10.434,0,0,0,.2,2.337,1.936,1.936,0,0,0,.663,1.152A2.217,2.217,0,0,0,382.611,42.955Zm24.841-5.436H387.9V35.763h19.555Zm0,3.977H387.9V39.74h19.555Zm4.557-9.728a14.146,14.146,0,0,0-1.168,1.806,2.694,2.694,0,0,0-.323,1.193,1.04,1.04,0,0,1,.862.3,1.9,1.9,0,0,1,.232,1.11,1.492,1.492,0,0,1-.323,1.1,2.443,2.443,0,0,1-2.37,0,1.492,1.492,0,0,1-.323-1.1A5.326,5.326,0,0,1,409.019,34a9.45,9.45,0,0,1,1.533-2.229Zm4.557,0a14.146,14.146,0,0,0-1.168,1.806,2.694,2.694,0,0,0-.323,1.193,1.04,1.04,0,0,1,.862.3,1.9,1.9,0,0,1,.232,1.11,1.492,1.492,0,0,1-.323,1.1,2.443,2.443,0,0,1-2.37,0,1.492,1.492,0,0,1-.323-1.1A5.326,5.326,0,0,1,413.576,34a9.45,9.45,0,0,1,1.533-2.229ZM426.825,32v1.757h-6.2V37.37H424.6v1.757h-3.977V43.5h6.2v1.757h-8.1V32ZM428.6,45.259V35.017H430.5v.249a5.774,5.774,0,0,1,2.436-.481,4.929,4.929,0,0,1,2.179.389,2.244,2.244,0,0,1,1.1,1.309,7.963,7.963,0,0,1,.331,2.594v6.181h-1.922V39.077a5.752,5.752,0,0,0-.157-1.533,1.313,1.313,0,0,0-.514-.771,1.868,1.868,0,0,0-1.019-.232,4.823,4.823,0,0,0-1.583.191,1.093,1.093,0,0,0-.679.671A4.705,4.705,0,0,0,430.5,38.9v6.364Zm13.871-1.525a2.732,2.732,0,0,0,1.417-.34,4.208,4.208,0,0,0,1.185-1.2L446.6,43.2a5.463,5.463,0,0,1-1.748,1.79,4.863,4.863,0,0,1-2.378.5,5.681,5.681,0,0,1-2.627-.5,2.84,2.84,0,0,1-1.342-1.641,10,10,0,0,1-.406-3.215,10,10,0,0,1,.406-3.215,2.84,2.84,0,0,1,1.342-1.641,5.681,5.681,0,0,1,2.627-.5,5.129,5.129,0,0,1,2.577.539,3.028,3.028,0,0,1,1.317,1.8,12.247,12.247,0,0,1,.4,3.53h-6.745a6.169,6.169,0,0,0,.3,1.839,1.743,1.743,0,0,0,.762.953A2.836,2.836,0,0,0,442.469,43.734Zm0-7.192a2.483,2.483,0,0,0-1.757.522,2.84,2.84,0,0,0-.663,1.831h4.756a3.721,3.721,0,0,0-.215-1.417,1.318,1.318,0,0,0-.721-.721A3.666,3.666,0,0,0,442.469,36.542Zm5.32,8.717V35.017h1.906v-.066q.133-.033.5-.1a3.661,3.661,0,0,1,.646-.066,2.344,2.344,0,0,1,1.027.182,1.947,1.947,0,0,1,.7.663,2.165,2.165,0,0,1,1.889-.845,2.443,2.443,0,0,1,1.491.4,2.267,2.267,0,0,1,.762,1.309,10.788,10.788,0,0,1,.232,2.536v6.231h-1.906V39.028a8.831,8.831,0,0,0-.124-1.815q-.124-.505-.456-.505a.907.907,0,0,0-.887.464,4.025,4.025,0,0,0-.24,1.674v6.413h-1.906V39.127a9.028,9.028,0,0,0-.133-1.881q-.133-.539-.447-.539a.925.925,0,0,0-.895.464,3.9,3.9,0,0,0-.249,1.674v6.413Zm11.766,3.248a3.368,3.368,0,0,1-1.127-.166,4.4,4.4,0,0,1-1.027-.563l.762-1.607a8.751,8.751,0,0,0,.862.481,1.335,1.335,0,0,0,.53.1,2.347,2.347,0,0,0,.961-.166,1.556,1.556,0,0,0,.638-.572,5.124,5.124,0,0,0,.539-1.2l-3.43-9.794h1.989l2.453,7.292,2.486-7.292h2.005l-3.563,9.927a9.083,9.083,0,0,1-1.011,2.121,3.188,3.188,0,0,1-1.251,1.1A4.256,4.256,0,0,1,459.555,48.507Zm8.717-10.8A14.15,14.15,0,0,0,469.44,35.9a2.694,2.694,0,0,0,.323-1.193,1.04,1.04,0,0,1-.862-.3,1.9,1.9,0,0,1-.232-1.11,1.492,1.492,0,0,1,.323-1.1,2.443,2.443,0,0,1,2.37,0,1.492,1.492,0,0,1,.323,1.1,5.326,5.326,0,0,1-.423,2.179A9.449,9.449,0,0,1,469.73,37.7Zm4.557,0A14.145,14.145,0,0,0,474,35.9a2.694,2.694,0,0,0,.323-1.193,1.04,1.04,0,0,1-.862-.3,1.9,1.9,0,0,1-.232-1.11,1.492,1.492,0,0,1,.323-1.1,2.443,2.443,0,0,1,2.37,0,1.492,1.492,0,0,1,.323,1.1,5.326,5.326,0,0,1-.423,2.179,9.45,9.45,0,0,1-1.533,2.229Zm6.513,8.2a2.564,2.564,0,0,0,1.931-.9,6.155,6.155,0,0,0,1.3-2.552,14.155,14.155,0,0,0,.464-3.82,14.155,14.155,0,0,0-.464-3.82,6.155,6.155,0,0,0-1.3-2.552,2.564,2.564,0,0,0-1.931-.9V29.6a4.3,4.3,0,0,1,2.933,1.127,7.231,7.231,0,0,1,1.972,3.174,14.686,14.686,0,0,1,.7,4.731,14.686,14.686,0,0,1-.7,4.731,7.231,7.231,0,0,1-1.972,3.174,4.3,4.3,0,0,1-2.933,1.127Zm16.274,1.757a5.889,5.889,0,0,1-3.563-.853,3.221,3.221,0,0,1-1.11-2.726,8.922,8.922,0,0,1,.166-1.491,8.714,8.714,0,0,0,.133-1.127,1.853,1.853,0,0,0-.58-.961q-.58-.646-1.889-1.873,1.309-1.259,1.889-1.906a1.831,1.831,0,0,0,.58-.994,6.739,6.739,0,0,0-.133-1.011,8.189,8.189,0,0,1-.166-1.525,3.245,3.245,0,0,1,1.11-2.734,5.845,5.845,0,0,1,3.563-.862v1.773a6.185,6.185,0,0,0-1.657.174,1.47,1.47,0,0,0-.862.58,2.066,2.066,0,0,0-.265,1.135A5.546,5.546,0,0,0,493,34.537a4.334,4.334,0,0,1,.149,1.027,2.942,2.942,0,0,1-.447,1.549,6.144,6.144,0,0,1-1.409,1.516,5.9,5.9,0,0,1,1.417,1.475,2.856,2.856,0,0,1,.439,1.525,5.169,5.169,0,0,1-.133,1.011,6.6,6.6,0,0,0-.166,1.392,2.039,2.039,0,0,0,.257,1.11,1.446,1.446,0,0,0,.853.572,6.185,6.185,0,0,0,1.657.174ZM161.41,75.618h-1.989l7.192-18.726H168.6ZM177.6,62.742l.994,1.508-2.883,1.723,2.883,1.707-.994,1.491-2.685-1.591v3.265H173.01V67.581l-2.7,1.607-.994-1.508,2.884-1.723-2.884-1.707.994-1.491,2.7,1.607V61.085h1.906V64.35Zm16.29,8.336a2.732,2.732,0,0,0,1.417-.34,4.208,4.208,0,0,0,1.185-1.2l1.525,1.011a5.464,5.464,0,0,1-1.748,1.79,4.863,4.863,0,0,1-2.378.5,5.681,5.681,0,0,1-2.627-.5,2.84,2.84,0,0,1-1.342-1.641,10,10,0,0,1-.406-3.215,10,10,0,0,1,.406-3.215,2.84,2.84,0,0,1,1.342-1.641,5.681,5.681,0,0,1,2.627-.5,5.129,5.129,0,0,1,2.577.539,3.028,3.028,0,0,1,1.317,1.8,12.248,12.248,0,0,1,.4,3.53h-6.745a6.169,6.169,0,0,0,.3,1.839,1.743,1.743,0,0,0,.762.953A2.837,2.837,0,0,0,193.89,71.078Zm0-7.192a2.483,2.483,0,0,0-1.757.522,2.84,2.84,0,0,0-.663,1.831h4.756a3.721,3.721,0,0,0-.215-1.417,1.318,1.318,0,0,0-.721-.721A3.666,3.666,0,0,0,193.89,63.885Zm11.252-4.773a6.167,6.167,0,0,1,1.8.215,2.258,2.258,0,0,1,1.094.7,3.537,3.537,0,0,1,.638,1.351l-1.79.613a2.626,2.626,0,0,0-.273-.729.775.775,0,0,0-.456-.307,4,4,0,0,0-1.011-.091,2.7,2.7,0,0,0-1.11.174.994.994,0,0,0-.514.613,4.437,4.437,0,0,0-.149,1.334v.961h2.95v1.757h-2.95V72.6h-1.906V65.708h-2.055V63.952h2.055v-.961a5.945,5.945,0,0,1,.356-2.279,2.3,2.3,0,0,1,1.16-1.218A5.11,5.11,0,0,1,205.143,59.113Zm8.634,11.965a2.732,2.732,0,0,0,1.417-.34,4.208,4.208,0,0,0,1.185-1.2l1.525,1.011a5.464,5.464,0,0,1-1.748,1.79,4.863,4.863,0,0,1-2.378.5,5.681,5.681,0,0,1-2.627-.5,2.84,2.84,0,0,1-1.342-1.641,10,10,0,0,1-.406-3.215,10,10,0,0,1,.406-3.215,2.84,2.84,0,0,1,1.342-1.641,5.681,5.681,0,0,1,2.627-.5,5.129,5.129,0,0,1,2.577.539,3.028,3.028,0,0,1,1.317,1.8,12.248,12.248,0,0,1,.4,3.53h-6.745a6.169,6.169,0,0,0,.3,1.839,1.743,1.743,0,0,0,.762.953A2.837,2.837,0,0,0,213.777,71.078Zm0-7.192a2.482,2.482,0,0,0-1.757.522,2.84,2.84,0,0,0-.663,1.831h4.756a3.721,3.721,0,0,0-.215-1.417,1.318,1.318,0,0,0-.721-.721A3.666,3.666,0,0,0,213.777,63.885Zm10.192,8.949a5.375,5.375,0,0,1-2.618-.539,3.061,3.061,0,0,1-1.384-1.7,11.7,11.7,0,0,1,0-6.231,3.043,3.043,0,0,1,1.4-1.7,5.558,5.558,0,0,1,2.668-.539,4.476,4.476,0,0,1,2.3.514A5.207,5.207,0,0,1,228,64.466l-1.591.945a6.749,6.749,0,0,0-.713-.961,1.63,1.63,0,0,0-.671-.439,4.013,4.013,0,0,0-2.569.2,1.759,1.759,0,0,0-.779,1.085,10.806,10.806,0,0,0,0,4.375,1.793,1.793,0,0,0,.754,1.085,2.993,2.993,0,0,0,1.541.323,3.105,3.105,0,0,0,.986-.133,1.846,1.846,0,0,0,.713-.456,6.553,6.553,0,0,0,.754-.969l1.574.961a5.4,5.4,0,0,1-1.7,1.839A4.561,4.561,0,0,1,223.968,72.834Zm10.722,0a3.916,3.916,0,0,1-1.939-.414,2.43,2.43,0,0,1-1.069-1.317,6.889,6.889,0,0,1-.34-2.378V63.919h-2.055V62.162h2.055V59.345h1.906v2.817h3.43v1.757h-3.43v4.806a5.962,5.962,0,0,0,.133,1.433,1.178,1.178,0,0,0,.439.713,1.546,1.546,0,0,0,.87.207,3.369,3.369,0,0,0,.887-.083.656.656,0,0,0,.4-.3,4.092,4.092,0,0,0,.29-.746l1.79.613a3.8,3.8,0,0,1-.646,1.351,2.216,2.216,0,0,1-1.036.7A5.388,5.388,0,0,1,234.691,72.834Zm8.866,0a4.609,4.609,0,0,1-2.428-.547,3.057,3.057,0,0,1-1.276-1.707,12.524,12.524,0,0,1,0-6.2,3.057,3.057,0,0,1,1.276-1.707,5.681,5.681,0,0,1,4.864,0,3.045,3.045,0,0,1,1.284,1.707,12.525,12.525,0,0,1,0,6.2,3.045,3.045,0,0,1-1.284,1.707A4.654,4.654,0,0,1,243.556,72.834Zm0-1.757a2.345,2.345,0,0,0,1.334-.323,1.807,1.807,0,0,0,.671-1.094,12.039,12.039,0,0,0,0-4.358,1.807,1.807,0,0,0-.671-1.094,2.345,2.345,0,0,0-1.334-.323,2.3,2.3,0,0,0-1.326.323,1.825,1.825,0,0,0-.663,1.094,12.039,12.039,0,0,0,0,4.358,1.825,1.825,0,0,0,.663,1.094A2.3,2.3,0,0,0,243.556,71.078Zm23.532-8.336.994,1.508L265.2,65.974l2.884,1.707-.994,1.491L264.4,67.581v3.265H262.5V67.581l-2.7,1.607L258.8,67.68l2.884-1.723L258.8,64.25l.994-1.491,2.7,1.607V61.085H264.4V64.35Zm3.7,12.876H268.8l7.192-18.726h1.989ZM120.759,100.576a6.185,6.185,0,0,0,1.657-.174,1.485,1.485,0,0,0,.862-.572,1.988,1.988,0,0,0,.265-1.11,6.6,6.6,0,0,0-.166-1.392,5.169,5.169,0,0,1-.133-1.011,2.9,2.9,0,0,1,.431-1.525,5.746,5.746,0,0,1,1.409-1.475,5.772,5.772,0,0,1-1.4-1.5,3.012,3.012,0,0,1-.439-1.566,4.335,4.335,0,0,1,.149-1.027,5.544,5.544,0,0,0,.166-1.276,2.066,2.066,0,0,0-.265-1.135,1.473,1.473,0,0,0-.87-.58,6.282,6.282,0,0,0-1.665-.174V84.286a5.885,5.885,0,0,1,3.571.862,3.234,3.234,0,0,1,1.119,2.734,8.186,8.186,0,0,1-.166,1.525,6.741,6.741,0,0,0-.133,1.011,1.9,1.9,0,0,0,.58,1.011q.58.663,1.873,1.889-1.276,1.193-1.864,1.856a1.912,1.912,0,0,0-.588.978,8.717,8.717,0,0,0,.133,1.127,8.918,8.918,0,0,1,.166,1.491,3.21,3.21,0,0,1-1.119,2.726,5.929,5.929,0,0,1-3.571.853ZM80.986,127.919a6.185,6.185,0,0,0,1.657-.174,1.485,1.485,0,0,0,.862-.572,1.988,1.988,0,0,0,.265-1.11,6.6,6.6,0,0,0-.166-1.392,5.168,5.168,0,0,1-.133-1.011,2.9,2.9,0,0,1,.431-1.525,5.746,5.746,0,0,1,1.409-1.475,5.772,5.772,0,0,1-1.4-1.5,3.012,3.012,0,0,1-.439-1.566,4.335,4.335,0,0,1,.149-1.027,5.544,5.544,0,0,0,.166-1.276,2.067,2.067,0,0,0-.265-1.135,1.473,1.473,0,0,0-.87-.58,6.282,6.282,0,0,0-1.665-.174v-1.773a5.885,5.885,0,0,1,3.571.862,3.234,3.234,0,0,1,1.119,2.734,8.186,8.186,0,0,1-.166,1.525,6.741,6.741,0,0,0-.133,1.011,1.9,1.9,0,0,0,.58,1.011q.58.663,1.873,1.889-1.276,1.193-1.864,1.856a1.912,1.912,0,0,0-.588.978,8.717,8.717,0,0,0,.133,1.127,8.918,8.918,0,0,1,.166,1.491,3.21,3.21,0,0,1-1.119,2.726,5.929,5.929,0,0,1-3.571.853Z" transform="translate(551.636 20503.746)" fill="#12263f"/>
  </g>
</svg>
