<svg xmlns="http://www.w3.org/2000/svg" width="610" height="462" viewBox="0 0 610 462">
  <g id="Grupo_168049" data-name="Grupo 168049" transform="translate(-495 -3472)">
    <g id="Trazado_688422" data-name="Trazado 688422" transform="translate(495 3472)" fill="#8979f3" opacity="0.25">
      <path d="M 585 461.5 L 25 461.5 C 21.69230842590332 461.5 18.48376846313477 460.852294921875 15.46361541748047 459.5748596191406 C 12.54623031616211 458.3409118652344 9.926076889038086 456.5743103027344 7.675846099853516 454.3241577148438 C 5.425692081451416 452.0739135742188 3.659076929092407 449.4537658691406 2.425153732299805 446.536376953125 C 1.147692322731018 443.5162353515625 0.5 440.3076782226562 0.5 437 L 0.5 25 C 0.5 21.69230842590332 1.147692322731018 18.48384666442871 2.425153732299805 15.4636926651001 C 3.659076929092407 12.54630756378174 5.425692081451416 9.926076889038086 7.675846099853516 7.675922870635986 C 9.926076889038086 5.425692081451416 12.54623031616211 3.659076929092407 15.46361541748047 2.425153732299805 C 18.48376846313477 1.147692322731018 21.69230842590332 0.5 25 0.5 L 585 0.5 C 588.3076782226562 0.5 591.5162353515625 1.147692322731018 594.536376953125 2.425153732299805 C 597.4537963867188 3.659076929092407 600.0739135742188 5.425692081451416 602.3241577148438 7.675922870635986 C 604.5742797851562 9.926076889038086 606.3409423828125 12.54630756378174 607.5748291015625 15.4636926651001 C 608.852294921875 18.48384666442871 609.5 21.69230842590332 609.5 25 L 609.5 437 C 609.5 440.3076782226562 608.852294921875 443.5162353515625 607.5748291015625 446.536376953125 C 606.3409423828125 449.4537658691406 604.5742797851562 452.0739135742188 602.3241577148438 454.3241577148438 C 600.0739135742188 456.5743103027344 597.4537963867188 458.3409118652344 594.536376953125 459.5748596191406 C 591.5162353515625 460.852294921875 588.3076782226562 461.5 585 461.5 Z" stroke="none"/>
      <path d="M 25 1 C 21.759521484375 1 18.61663818359375 1.6343994140625 15.65838623046875 2.8856201171875 C 12.80059814453125 4.094390869140625 10.23382568359375 5.82501220703125 8.02947998046875 8.029449462890625 C 5.82501220703125 10.23385620117188 4.0943603515625 12.80062866210938 2.8856201171875 15.65838623046875 C 1.6343994140625 18.61660766601562 1 21.75955200195312 1 25 L 1 437 C 1 440.2404479980469 1.6343994140625 443.3833923339844 2.8856201171875 446.3416137695312 C 4.0943603515625 449.1993713378906 5.82501220703125 451.7661437988281 8.02947998046875 453.9705505371094 C 10.23382568359375 456.1749877929688 12.80059814453125 457.9056091308594 15.65838623046875 459.1143798828125 C 18.61663818359375 460.3656005859375 21.759521484375 461 25 461 L 585 461 C 588.240478515625 461 591.3833618164062 460.3656005859375 594.3416137695312 459.1143798828125 C 597.1994018554688 457.9056091308594 599.7661743164062 456.1749877929688 601.9705200195312 453.9705505371094 C 604.1749877929688 451.7661437988281 605.9056396484375 449.1993713378906 607.1143798828125 446.3416137695312 C 608.3656005859375 443.3833923339844 609 440.2404479980469 609 437 L 609 25 C 609 21.75955200195312 608.3656005859375 18.61660766601562 607.1143798828125 15.65838623046875 C 605.9056396484375 12.80062866210938 604.1749877929688 10.23385620117188 601.9705200195312 8.029449462890625 C 599.7661743164062 5.82501220703125 597.1994018554688 4.094390869140625 594.3416137695312 2.8856201171875 C 591.3833618164062 1.6343994140625 588.240478515625 1 585 1 L 25 1 M 25 0 L 585 0 C 598.80712890625 0 610 11.19284057617188 610 25 L 610 437 C 610 450.8071594238281 598.80712890625 462 585 462 L 25 462 C 11.19287109375 462 0 450.8071594238281 0 437 L 0 25 C 0 11.19284057617188 11.19287109375 0 25 0 Z" stroke="none" fill="#707070"/>
    </g>
    <path id="Trazado_688349" data-name="Trazado 688349" d="M51.06,17.112a4.35,4.35,0,0,1-1.993-.381,2.228,2.228,0,0,1-1.059-1.238,6.733,6.733,0,0,1-.327-2.336V7.271h1.791v5.886a5.883,5.883,0,0,0,.132,1.448,1.03,1.03,0,0,0,.467.67,2.076,2.076,0,0,0,.989.187,4.95,4.95,0,0,0,1.44-.156,1.05,1.05,0,0,0,.662-.553,2.869,2.869,0,0,0,.187-1.176V7.271h1.806v9.623H53.349v-.156A5.609,5.609,0,0,1,51.06,17.112Zm9.218,0a3.871,3.871,0,0,1-2.048-.467,4.045,4.045,0,0,1-1.362-1.651l1.417-1.168a6.577,6.577,0,0,0,.537,1.043,1.23,1.23,0,0,0,.553.459,2.476,2.476,0,0,0,.9.132,7.821,7.821,0,0,0,1.619-.125,1.2,1.2,0,0,0,.747-.413,1.441,1.441,0,0,0,.2-.833,1.487,1.487,0,0,0-.163-.794,1.007,1.007,0,0,0-.584-.374,9.984,9.984,0,0,0-1.417-.249,6.133,6.133,0,0,1-2.725-.833,2.164,2.164,0,0,1-.841-1.892,3.159,3.159,0,0,1,.389-1.674,2.263,2.263,0,0,1,1.246-.926,7.264,7.264,0,0,1,2.3-.3,4.613,4.613,0,0,1,2.133.4,3.76,3.76,0,0,1,1.386,1.433l-1.308,1.277a5.735,5.735,0,0,0-.592-.934,1.313,1.313,0,0,0-.607-.413A3.416,3.416,0,0,0,61.057,8.7a6.243,6.243,0,0,0-1.347.109.98.98,0,0,0-.631.374,1.408,1.408,0,0,0-.171.763.761.761,0,0,0,.187.561,1.185,1.185,0,0,0,.561.28q.374.093,1.152.2a11,11,0,0,1,2.3.537,2.306,2.306,0,0,1,1.183.919,3.145,3.145,0,0,1,.366,1.643,3.183,3.183,0,0,1-.428,1.752,2.455,2.455,0,0,1-1.386.965A8.737,8.737,0,0,1,60.279,17.112Zm11.04-9.841v7.972h2.725v1.651H66.8V15.244h2.725V8.922H67.566V7.271Zm-1.23-1.4A1.57,1.57,0,0,1,69.022,5.6a1.365,1.365,0,0,1-.288-1,1.365,1.365,0,0,1,.288-1,1.57,1.57,0,0,1,1.067-.272,1.6,1.6,0,0,1,1.074.272,1.341,1.341,0,0,1,.3,1,1.341,1.341,0,0,1-.3,1A1.6,1.6,0,0,1,70.088,5.87Zm5.621,11.024V7.271H77.5V7.5a5.425,5.425,0,0,1,2.289-.452,4.631,4.631,0,0,1,2.048.366,2.108,2.108,0,0,1,1.035,1.23,7.482,7.482,0,0,1,.311,2.437v5.808H81.377V11.086a5.4,5.4,0,0,0-.148-1.44,1.234,1.234,0,0,0-.483-.724,1.755,1.755,0,0,0-.958-.218,4.532,4.532,0,0,0-1.487.179,1.027,1.027,0,0,0-.638.631,4.422,4.422,0,0,0-.163,1.4v5.979Zm12.955,3.052a4.231,4.231,0,0,1-1.736-.3,3.809,3.809,0,0,1-1.285-1.059l1.308-1.121a2.759,2.759,0,0,0,.74.67,2.257,2.257,0,0,0,.973.156,2.986,2.986,0,0,0,1.215-.195,1.118,1.118,0,0,0,.592-.67,4.329,4.329,0,0,0,.171-1.394v-.031a5.811,5.811,0,0,1-2.087.374,4.32,4.32,0,0,1-2.289-.522A2.905,2.905,0,0,1,85.06,14.2a10.339,10.339,0,0,1-.366-3.068,6.042,6.042,0,0,1,.381-2.351A2.53,2.53,0,0,1,86.3,7.474a5.092,5.092,0,0,1,2.258-.42,6.573,6.573,0,0,1,2.087.311V7.271h1.791V15.9a6.251,6.251,0,0,1-.366,2.367,2.417,2.417,0,0,1-1.183,1.277A5.058,5.058,0,0,1,88.665,19.946Zm-.109-5.216a2.089,2.089,0,0,0,1.6-.529,2.367,2.367,0,0,0,.49-1.651V9.607a.738.738,0,0,0-.506-.662,3.876,3.876,0,0,0-1.58-.241,2.9,2.9,0,0,0-1.261.218,1.229,1.229,0,0,0-.615.74,4.728,4.728,0,0,0-.179,1.471,9.806,9.806,0,0,0,.187,2.2,1.819,1.819,0,0,0,.623,1.082A2.083,2.083,0,0,0,88.556,14.73Zm18.825,2.382a4.317,4.317,0,0,1-2.25-.5,2.825,2.825,0,0,1-1.183-1.6,9.615,9.615,0,0,1-.366-2.951V4.437h1.791v7.63a9.189,9.189,0,0,0,.179,2.079,1.665,1.665,0,0,0,.607,1.02,2.137,2.137,0,0,0,1.222.3,2.176,2.176,0,0,0,1.23-.3,1.648,1.648,0,0,0,.615-1.02,9.189,9.189,0,0,0,.179-2.079V4.437H111.2v7.63a9.615,9.615,0,0,1-.366,2.951,2.813,2.813,0,0,1-1.191,1.6A4.36,4.36,0,0,1,107.381,17.112Zm5.7-.218V7.271h1.791V7.5a5.426,5.426,0,0,1,2.289-.452,4.631,4.631,0,0,1,2.048.366,2.108,2.108,0,0,1,1.035,1.23,7.482,7.482,0,0,1,.311,2.437v5.808h-1.806V11.086a5.405,5.405,0,0,0-.148-1.44,1.234,1.234,0,0,0-.483-.724,1.755,1.755,0,0,0-.958-.218,4.532,4.532,0,0,0-1.487.179,1.027,1.027,0,0,0-.638.631,4.422,4.422,0,0,0-.163,1.4v5.979Zm14.294-9.623v7.972H130.1v1.651h-7.241V15.244h2.725V8.922h-1.962V7.271Zm-1.23-1.4a1.57,1.57,0,0,1-1.067-.272,1.365,1.365,0,0,1-.288-1,1.365,1.365,0,0,1,.288-1,1.57,1.57,0,0,1,1.067-.272,1.6,1.6,0,0,1,1.074.272,1.341,1.341,0,0,1,.3,1,1.341,1.341,0,0,1-.3,1A1.6,1.6,0,0,1,126.144,5.87Zm10.277,11.242a3.679,3.679,0,0,1-1.822-.389,2.284,2.284,0,0,1-1-1.238,6.473,6.473,0,0,1-.319-2.234V8.735h-1.931V7.085h1.931V4.437h1.791V7.085h3.223V8.735h-3.223v4.516a5.6,5.6,0,0,0,.125,1.347,1.107,1.107,0,0,0,.413.67,1.453,1.453,0,0,0,.817.195,3.166,3.166,0,0,0,.833-.078.616.616,0,0,0,.374-.28,3.845,3.845,0,0,0,.272-.7l1.682.576a3.571,3.571,0,0,1-.607,1.269,2.082,2.082,0,0,1-.973.662A5.063,5.063,0,0,1,136.421,17.112Zm5.746,2.834a3.165,3.165,0,0,1-1.059-.156,4.134,4.134,0,0,1-.965-.529l.716-1.51a8.221,8.221,0,0,0,.81.452,1.255,1.255,0,0,0,.5.093,2.206,2.206,0,0,0,.9-.156,1.462,1.462,0,0,0,.6-.537,4.814,4.814,0,0,0,.506-1.129l-3.223-9.2h1.869l2.3,6.851,2.336-6.851h1.884L146,16.6a8.535,8.535,0,0,1-.95,1.993,3,3,0,0,1-1.176,1.035A4,4,0,0,1,142.167,19.946Zm15.96-15.509V6.088H152.3V9.483h3.737v1.651H152.3v4.111h5.824v1.651h-7.614V4.437Zm1.666,12.457V7.271h1.791V7.5a5.426,5.426,0,0,1,2.289-.452,4.631,4.631,0,0,1,2.048.366,2.108,2.108,0,0,1,1.035,1.23,7.482,7.482,0,0,1,.311,2.437v5.808h-1.806V11.086a5.406,5.406,0,0,0-.148-1.44,1.234,1.234,0,0,0-.483-.724,1.755,1.755,0,0,0-.958-.218,4.532,4.532,0,0,0-1.487.179,1.027,1.027,0,0,0-.638.631,4.422,4.422,0,0,0-.164,1.4v5.979Zm12.955,3.052a4.231,4.231,0,0,1-1.736-.3,3.809,3.809,0,0,1-1.285-1.059l1.308-1.121a2.759,2.759,0,0,0,.74.67,2.257,2.257,0,0,0,.973.156,2.986,2.986,0,0,0,1.215-.195,1.118,1.118,0,0,0,.592-.67,4.329,4.329,0,0,0,.171-1.394v-.031a5.811,5.811,0,0,1-2.087.374,4.32,4.32,0,0,1-2.289-.522,2.905,2.905,0,0,1-1.207-1.658,10.339,10.339,0,0,1-.366-3.068,6.042,6.042,0,0,1,.381-2.351,2.53,2.53,0,0,1,1.222-1.308,5.092,5.092,0,0,1,2.258-.42,6.573,6.573,0,0,1,2.087.311V7.271h1.791V15.9a6.251,6.251,0,0,1-.366,2.367,2.417,2.417,0,0,1-1.183,1.277A5.058,5.058,0,0,1,172.749,19.946Zm-.109-5.216a2.089,2.089,0,0,0,1.6-.529,2.367,2.367,0,0,0,.49-1.651V9.607a.738.738,0,0,0-.506-.662,3.876,3.876,0,0,0-1.58-.241,2.9,2.9,0,0,0-1.261.218,1.229,1.229,0,0,0-.615.74,4.728,4.728,0,0,0-.179,1.471,9.806,9.806,0,0,0,.187,2.2,1.819,1.819,0,0,0,.623,1.082A2.083,2.083,0,0,0,172.64,14.73ZM183.43,7.271v7.972h2.725v1.651h-7.241V15.244h2.725V8.922h-1.962V7.271Zm-1.23-1.4a1.57,1.57,0,0,1-1.067-.272,1.365,1.365,0,0,1-.288-1,1.365,1.365,0,0,1,.288-1,1.57,1.57,0,0,1,1.067-.272,1.6,1.6,0,0,1,1.074.272,1.341,1.341,0,0,1,.3,1,1.341,1.341,0,0,1-.3,1A1.6,1.6,0,0,1,182.2,5.87Zm5.621,11.024V7.271h1.791V7.5a5.426,5.426,0,0,1,2.289-.452,4.631,4.631,0,0,1,2.048.366,2.108,2.108,0,0,1,1.035,1.23,7.482,7.482,0,0,1,.311,2.437v5.808h-1.806V11.086a5.406,5.406,0,0,0-.148-1.44,1.234,1.234,0,0,0-.483-.724A1.755,1.755,0,0,0,191.9,8.7a4.532,4.532,0,0,0-1.487.179,1.027,1.027,0,0,0-.638.631,4.422,4.422,0,0,0-.164,1.4v5.979Zm13.033-1.433a2.567,2.567,0,0,0,1.331-.319,3.954,3.954,0,0,0,1.113-1.129l1.433.95a5.134,5.134,0,0,1-1.643,1.682,4.57,4.57,0,0,1-2.234.467,5.338,5.338,0,0,1-2.468-.467,2.668,2.668,0,0,1-1.261-1.542,9.4,9.4,0,0,1-.381-3.021,9.4,9.4,0,0,1,.381-3.021,2.668,2.668,0,0,1,1.261-1.542,5.338,5.338,0,0,1,2.468-.467,4.819,4.819,0,0,1,2.421.506,2.845,2.845,0,0,1,1.238,1.689,11.509,11.509,0,0,1,.374,3.317H198.55a5.8,5.8,0,0,0,.28,1.728,1.638,1.638,0,0,0,.716.9A2.665,2.665,0,0,0,200.854,15.462Zm0-6.758a2.333,2.333,0,0,0-1.651.49,2.669,2.669,0,0,0-.623,1.721h4.469a3.5,3.5,0,0,0-.2-1.331,1.239,1.239,0,0,0-.677-.677A3.445,3.445,0,0,0,200.854,8.7Zm7.505,11.242a13.292,13.292,0,0,0,1.1-1.7,2.531,2.531,0,0,0,.3-1.121.977.977,0,0,1-.81-.28,1.789,1.789,0,0,1-.218-1.043,1.4,1.4,0,0,1,.3-1.035,2.3,2.3,0,0,1,2.227,0,1.4,1.4,0,0,1,.3,1.035,5,5,0,0,1-.4,2.048,8.879,8.879,0,0,1-1.44,2.094ZM210.15,9.654a1.63,1.63,0,0,1-1.113-.288,1.376,1.376,0,0,1-.3-1.02,1.4,1.4,0,0,1,.3-1.035,2.3,2.3,0,0,1,2.227,0,1.4,1.4,0,0,1,.3,1.035,1.376,1.376,0,0,1-.3,1.02A1.63,1.63,0,0,1,210.15,9.654ZM4.347,42.8a4.35,4.35,0,0,1-1.993-.382A2.228,2.228,0,0,1,1.3,41.185,6.733,6.733,0,0,1,.968,38.85V32.964H2.759V38.85A5.883,5.883,0,0,0,2.891,40.3a1.03,1.03,0,0,0,.467.67,2.076,2.076,0,0,0,.989.187A4.95,4.95,0,0,0,5.787,41a1.05,1.05,0,0,0,.662-.553,2.869,2.869,0,0,0,.187-1.176V32.964H8.442v9.623H6.636v-.156A5.609,5.609,0,0,1,4.347,42.8Zm9.218,0a3.871,3.871,0,0,1-2.048-.467,4.045,4.045,0,0,1-1.362-1.651l1.417-1.168a6.577,6.577,0,0,0,.537,1.043,1.23,1.23,0,0,0,.553.459,2.476,2.476,0,0,0,.9.132,7.821,7.821,0,0,0,1.619-.125,1.2,1.2,0,0,0,.747-.413,1.441,1.441,0,0,0,.2-.833,1.487,1.487,0,0,0-.163-.794,1.007,1.007,0,0,0-.584-.374,9.984,9.984,0,0,0-1.417-.249,6.133,6.133,0,0,1-2.725-.833,2.164,2.164,0,0,1-.841-1.892,3.159,3.159,0,0,1,.389-1.674,2.263,2.263,0,0,1,1.246-.926,7.264,7.264,0,0,1,2.3-.3,4.613,4.613,0,0,1,2.133.4,3.76,3.76,0,0,1,1.386,1.433L16.555,35.86a5.735,5.735,0,0,0-.592-.934,1.313,1.313,0,0,0-.607-.413,3.416,3.416,0,0,0-1.012-.117A6.243,6.243,0,0,0,13,34.505a.98.98,0,0,0-.631.374,1.408,1.408,0,0,0-.171.763.761.761,0,0,0,.187.561,1.185,1.185,0,0,0,.561.28q.374.093,1.152.2a11,11,0,0,1,2.3.537,2.306,2.306,0,0,1,1.183.919,3.145,3.145,0,0,1,.366,1.643,3.183,3.183,0,0,1-.428,1.752,2.455,2.455,0,0,1-1.386.965A8.737,8.737,0,0,1,13.565,42.8Zm11.04-9.841v7.972H27.33v1.651H20.09V40.936h2.725V34.614H20.852V32.964Zm-1.23-1.4a1.57,1.57,0,0,1-1.067-.272,1.365,1.365,0,0,1-.288-1,1.365,1.365,0,0,1,.288-1,1.57,1.57,0,0,1,1.067-.272,1.6,1.6,0,0,1,1.074.272,1.341,1.341,0,0,1,.3,1,1.341,1.341,0,0,1-.3,1A1.6,1.6,0,0,1,23.375,31.562ZM29,42.587V32.964h1.791V33.2a5.426,5.426,0,0,1,2.289-.452,4.631,4.631,0,0,1,2.048.366,2.108,2.108,0,0,1,1.035,1.23,7.482,7.482,0,0,1,.311,2.437v5.808H34.664V36.779a5.405,5.405,0,0,0-.148-1.44,1.234,1.234,0,0,0-.483-.724,1.755,1.755,0,0,0-.958-.218,4.531,4.531,0,0,0-1.487.179,1.027,1.027,0,0,0-.638.631,4.422,4.422,0,0,0-.163,1.4v5.979Zm12.955,3.052a4.231,4.231,0,0,1-1.736-.3,3.809,3.809,0,0,1-1.285-1.059l1.308-1.121a2.759,2.759,0,0,0,.74.67,2.257,2.257,0,0,0,.973.156,2.986,2.986,0,0,0,1.215-.195,1.118,1.118,0,0,0,.592-.67,4.329,4.329,0,0,0,.171-1.394V41.7a5.811,5.811,0,0,1-2.087.374,4.32,4.32,0,0,1-2.289-.522,2.905,2.905,0,0,1-1.207-1.658,10.339,10.339,0,0,1-.366-3.068,6.042,6.042,0,0,1,.381-2.351,2.53,2.53,0,0,1,1.222-1.308,5.092,5.092,0,0,1,2.258-.42,6.574,6.574,0,0,1,2.087.311v-.093H45.72V41.59a6.251,6.251,0,0,1-.366,2.367,2.417,2.417,0,0,1-1.183,1.277A5.058,5.058,0,0,1,41.951,45.639Zm-.109-5.216a2.089,2.089,0,0,0,1.6-.529,2.367,2.367,0,0,0,.49-1.651V35.3a.738.738,0,0,0-.506-.662,3.876,3.876,0,0,0-1.58-.241,2.9,2.9,0,0,0-1.261.218,1.229,1.229,0,0,0-.615.74,4.729,4.729,0,0,0-.179,1.471,9.806,9.806,0,0,0,.187,2.2A1.819,1.819,0,0,0,40.6,40.1,2.083,2.083,0,0,0,41.842,40.422ZM60.668,42.8a7.588,7.588,0,0,1-1.954-.21,3,3,0,0,1-1.292-.7,4.417,4.417,0,0,1-.926-1.347l1.386-1.308a4.84,4.84,0,0,0,.561,1.2,1.507,1.507,0,0,0,.779.553,4.9,4.9,0,0,0,1.448.163,3.723,3.723,0,0,0,1.37-.195,1.16,1.16,0,0,0,.654-.646,3.618,3.618,0,0,0,.187-1.324,1.947,1.947,0,0,0-.2-.981,1.6,1.6,0,0,0-.67-.584,11.4,11.4,0,0,0-1.495-.584,12.1,12.1,0,0,1-2.172-.9,2.9,2.9,0,0,1-1.1-1.028,3.055,3.055,0,0,1-.343-1.542,4.668,4.668,0,0,1,.366-2.016,2.213,2.213,0,0,1,1.183-1.1,5.868,5.868,0,0,1,2.219-.343,7.213,7.213,0,0,1,1.8.187,2.991,2.991,0,0,1,1.207.615,4.053,4.053,0,0,1,.9,1.191L63.3,33.291a4.88,4.88,0,0,0-.561-1.1,1.386,1.386,0,0,0-.732-.49,4.914,4.914,0,0,0-1.339-.14,3.713,3.713,0,0,0-1.238.156.968.968,0,0,0-.576.537,2.944,2.944,0,0,0-.163,1.113,1.6,1.6,0,0,0,.171.825,1.313,1.313,0,0,0,.584.475,11.679,11.679,0,0,0,1.362.49,12.094,12.094,0,0,1,2.312.934A2.964,2.964,0,0,1,64.3,37.238a3.672,3.672,0,0,1,.366,1.752,5.29,5.29,0,0,1-.389,2.227,2.413,2.413,0,0,1-1.253,1.207A5.961,5.961,0,0,1,60.668,42.8Zm6.758,2.834a3.165,3.165,0,0,1-1.059-.156,4.134,4.134,0,0,1-.965-.529l.716-1.51a8.221,8.221,0,0,0,.81.452,1.255,1.255,0,0,0,.5.093,2.206,2.206,0,0,0,.9-.156,1.462,1.462,0,0,0,.6-.537,4.814,4.814,0,0,0,.506-1.129l-3.223-9.2H68.08l2.3,6.851,2.336-6.851H74.6l-3.348,9.327a8.535,8.535,0,0,1-.95,1.993,3,3,0,0,1-1.176,1.035A4,4,0,0,1,67.426,45.639ZM78.964,42.8a3.871,3.871,0,0,1-2.048-.467,4.045,4.045,0,0,1-1.362-1.651l1.417-1.168a6.577,6.577,0,0,0,.537,1.043,1.23,1.23,0,0,0,.553.459,2.476,2.476,0,0,0,.9.132,7.821,7.821,0,0,0,1.619-.125,1.2,1.2,0,0,0,.747-.413,1.441,1.441,0,0,0,.2-.833,1.487,1.487,0,0,0-.163-.794,1.007,1.007,0,0,0-.584-.374,9.984,9.984,0,0,0-1.417-.249,6.133,6.133,0,0,1-2.725-.833,2.164,2.164,0,0,1-.841-1.892,3.159,3.159,0,0,1,.389-1.674,2.263,2.263,0,0,1,1.246-.926,7.264,7.264,0,0,1,2.3-.3,4.613,4.613,0,0,1,2.133.4,3.76,3.76,0,0,1,1.386,1.433L81.953,35.86a5.735,5.735,0,0,0-.592-.934,1.313,1.313,0,0,0-.607-.413,3.416,3.416,0,0,0-1.012-.117,6.243,6.243,0,0,0-1.347.109.98.98,0,0,0-.631.374,1.408,1.408,0,0,0-.171.763.761.761,0,0,0,.187.561,1.185,1.185,0,0,0,.561.28q.374.093,1.152.2a11,11,0,0,1,2.3.537,2.306,2.306,0,0,1,1.183.919,3.145,3.145,0,0,1,.366,1.643,3.183,3.183,0,0,1-.428,1.752,2.455,2.455,0,0,1-1.386.965A8.737,8.737,0,0,1,78.964,42.8Zm10.744,0a3.679,3.679,0,0,1-1.822-.389,2.284,2.284,0,0,1-1-1.238,6.473,6.473,0,0,1-.319-2.234V34.427H84.632V32.777h1.931V30.13h1.791v2.647h3.223v1.651H88.353v4.516a5.6,5.6,0,0,0,.125,1.347,1.107,1.107,0,0,0,.413.67,1.453,1.453,0,0,0,.817.195,3.166,3.166,0,0,0,.833-.078.616.616,0,0,0,.374-.28,3.845,3.845,0,0,0,.272-.7l1.682.576a3.57,3.57,0,0,1-.607,1.269,2.082,2.082,0,0,1-.973.662A5.062,5.062,0,0,1,89.708,42.8Zm8.377-1.651a2.567,2.567,0,0,0,1.331-.319,3.954,3.954,0,0,0,1.113-1.129l1.433.95a5.134,5.134,0,0,1-1.643,1.682,4.57,4.57,0,0,1-2.234.467,5.338,5.338,0,0,1-2.468-.467A2.668,2.668,0,0,1,94.356,40.8a9.4,9.4,0,0,1-.381-3.021,9.4,9.4,0,0,1,.381-3.021,2.668,2.668,0,0,1,1.261-1.542,5.338,5.338,0,0,1,2.468-.467,4.819,4.819,0,0,1,2.421.506,2.845,2.845,0,0,1,1.238,1.689,11.509,11.509,0,0,1,.374,3.317H95.781a5.8,5.8,0,0,0,.28,1.728,1.638,1.638,0,0,0,.716.9A2.665,2.665,0,0,0,98.085,41.154Zm0-6.758a2.333,2.333,0,0,0-1.651.49,2.669,2.669,0,0,0-.623,1.721h4.469a3.5,3.5,0,0,0-.2-1.331A1.239,1.239,0,0,0,99.4,34.6,3.445,3.445,0,0,0,98.085,34.4Zm5,8.19V32.964h1.791V32.9q.125-.031.467-.093a3.44,3.44,0,0,1,.607-.062,2.2,2.2,0,0,1,.965.171,1.829,1.829,0,0,1,.654.623,2.034,2.034,0,0,1,1.775-.794,2.3,2.3,0,0,1,1.4.374,2.131,2.131,0,0,1,.716,1.23,10.138,10.138,0,0,1,.218,2.382v5.855h-1.791V36.732a8.3,8.3,0,0,0-.117-1.705q-.117-.475-.428-.475a.852.852,0,0,0-.833.436,3.782,3.782,0,0,0-.226,1.573v6.026h-1.791V36.825a8.483,8.483,0,0,0-.125-1.767q-.125-.506-.42-.506a.869.869,0,0,0-.841.436,3.668,3.668,0,0,0-.234,1.573v6.026Zm13.64.218a1.63,1.63,0,0,1-1.113-.288,1.376,1.376,0,0,1-.3-1.02,1.4,1.4,0,0,1,.3-1.035,2.3,2.3,0,0,1,2.227,0,1.4,1.4,0,0,1,.3,1.035,1.376,1.376,0,0,1-.3,1.02A1.63,1.63,0,0,1,116.724,42.8Zm9.576,0a4.321,4.321,0,0,1-2.523-.646,3.616,3.616,0,0,1-1.324-2.04,14.044,14.044,0,0,1-.4-3.776,13.97,13.97,0,0,1,.4-3.76,3.577,3.577,0,0,1,1.324-2.032,4.361,4.361,0,0,1,2.523-.638,4.76,4.76,0,0,1,1.853.311,2.719,2.719,0,0,1,1.207,1.02,6.788,6.788,0,0,1,.817,1.939l-1.7.592a7.219,7.219,0,0,0-.514-1.394,1.426,1.426,0,0,0-.623-.638,2.465,2.465,0,0,0-1.043-.179,2.264,2.264,0,0,0-1.479.436,2.541,2.541,0,0,0-.755,1.464,14.175,14.175,0,0,0-.226,2.881,14.276,14.276,0,0,0,.226,2.9,2.583,2.583,0,0,0,.755,1.471,2.237,2.237,0,0,0,1.479.444,2.465,2.465,0,0,0,1.043-.179,1.44,1.44,0,0,0,.623-.623,6.783,6.783,0,0,0,.514-1.362l1.7.576a6.677,6.677,0,0,1-.817,1.915,2.743,2.743,0,0,1-1.2,1.012A4.748,4.748,0,0,1,126.3,42.8Zm9.109,0a4.33,4.33,0,0,1-2.281-.514,2.873,2.873,0,0,1-1.2-1.6,9.41,9.41,0,0,1-.366-2.912,9.41,9.41,0,0,1,.366-2.912,2.873,2.873,0,0,1,1.2-1.6,5.338,5.338,0,0,1,4.57,0,2.861,2.861,0,0,1,1.207,1.6,9.409,9.409,0,0,1,.366,2.912,9.409,9.409,0,0,1-.366,2.912,2.861,2.861,0,0,1-1.207,1.6A4.373,4.373,0,0,1,135.409,42.8Zm0-1.651a2.2,2.2,0,0,0,1.253-.3,1.7,1.7,0,0,0,.631-1.028,8.644,8.644,0,0,0,.187-2.048,8.644,8.644,0,0,0-.187-2.048,1.7,1.7,0,0,0-.631-1.028,2.2,2.2,0,0,0-1.253-.3,2.165,2.165,0,0,0-1.246.3,1.715,1.715,0,0,0-.623,1.028,8.643,8.643,0,0,0-.187,2.048,8.643,8.643,0,0,0,.187,2.048,1.715,1.715,0,0,0,.623,1.028A2.165,2.165,0,0,0,135.409,41.154ZM146.356,42.8a3.575,3.575,0,0,1-1.689-.327,1.847,1.847,0,0,1-.856-1.09,7.028,7.028,0,0,1-.257-2.149V31.78h-1.962V30.13h3.753v9.109a3.562,3.562,0,0,0,.218,1.5.817.817,0,0,0,.794.413,1.2,1.2,0,0,0,.6-.187,7.312,7.312,0,0,0,.9-.67l1,1.526a4.773,4.773,0,0,1-1.222.771A3.476,3.476,0,0,1,146.356,42.8Zm9.343,0a3.575,3.575,0,0,1-1.689-.327,1.847,1.847,0,0,1-.856-1.09,7.028,7.028,0,0,1-.257-2.149V31.78h-1.962V30.13h3.753v9.109a3.562,3.562,0,0,0,.218,1.5.817.817,0,0,0,.794.413,1.2,1.2,0,0,0,.6-.187,7.312,7.312,0,0,0,.9-.67l1,1.526a4.773,4.773,0,0,1-1.222.771A3.476,3.476,0,0,1,155.7,42.8Zm7.786-1.651a2.567,2.567,0,0,0,1.331-.319,3.953,3.953,0,0,0,1.113-1.129l1.433.95a5.134,5.134,0,0,1-1.643,1.682,4.57,4.57,0,0,1-2.234.467,5.338,5.338,0,0,1-2.468-.467,2.668,2.668,0,0,1-1.261-1.542,9.4,9.4,0,0,1-.381-3.021,9.4,9.4,0,0,1,.381-3.021,2.668,2.668,0,0,1,1.261-1.542,5.338,5.338,0,0,1,2.468-.467,4.819,4.819,0,0,1,2.421.506,2.845,2.845,0,0,1,1.238,1.689,11.509,11.509,0,0,1,.374,3.317h-6.337a5.8,5.8,0,0,0,.28,1.728,1.638,1.638,0,0,0,.716.9A2.665,2.665,0,0,0,163.484,41.154Zm0-6.758a2.333,2.333,0,0,0-1.651.49,2.669,2.669,0,0,0-.623,1.721h4.469a3.5,3.5,0,0,0-.2-1.331,1.239,1.239,0,0,0-.677-.677A3.445,3.445,0,0,0,163.484,34.4ZM173.06,42.8a5.05,5.05,0,0,1-2.46-.506,2.876,2.876,0,0,1-1.3-1.6,8.779,8.779,0,0,1-.4-2.927,8.779,8.779,0,0,1,.4-2.927,2.859,2.859,0,0,1,1.316-1.6,5.222,5.222,0,0,1,2.507-.506,4.205,4.205,0,0,1,2.164.483,4.892,4.892,0,0,1,1.557,1.713l-1.495.888a6.342,6.342,0,0,0-.67-.9,1.531,1.531,0,0,0-.631-.413,3.77,3.77,0,0,0-2.414.187,1.652,1.652,0,0,0-.732,1.02,7.7,7.7,0,0,0-.21,2.055,7.7,7.7,0,0,0,.21,2.055,1.685,1.685,0,0,0,.708,1.02,2.812,2.812,0,0,0,1.448.3,2.918,2.918,0,0,0,.926-.125,1.734,1.734,0,0,0,.67-.428,6.157,6.157,0,0,0,.708-.911l1.479.9a5.071,5.071,0,0,1-1.6,1.728A4.285,4.285,0,0,1,173.06,42.8Zm10.074,0a3.679,3.679,0,0,1-1.822-.389,2.284,2.284,0,0,1-1-1.238,6.474,6.474,0,0,1-.319-2.234V34.427h-1.931V32.777h1.931V30.13h1.791v2.647H185v1.651H181.78v4.516a5.6,5.6,0,0,0,.125,1.347,1.107,1.107,0,0,0,.413.67,1.453,1.453,0,0,0,.817.195,3.166,3.166,0,0,0,.833-.078.616.616,0,0,0,.374-.28,3.844,3.844,0,0,0,.272-.7l1.682.576a3.57,3.57,0,0,1-.607,1.269,2.082,2.082,0,0,1-.973.662A5.062,5.062,0,0,1,183.134,42.8Zm9.639-9.841v7.972H195.5v1.651h-7.241V40.936h2.725V34.614H189.02V32.964Zm-1.23-1.4a1.57,1.57,0,0,1-1.067-.272,1.365,1.365,0,0,1-.288-1,1.365,1.365,0,0,1,.288-1,1.57,1.57,0,0,1,1.067-.272,1.6,1.6,0,0,1,1.074.272,1.341,1.341,0,0,1,.3,1,1.341,1.341,0,0,1-.3,1A1.6,1.6,0,0,1,191.543,31.562ZM200.808,42.8a4.33,4.33,0,0,1-2.281-.514,2.873,2.873,0,0,1-1.2-1.6,9.409,9.409,0,0,1-.366-2.912,9.409,9.409,0,0,1,.366-2.912,2.872,2.872,0,0,1,1.2-1.6,5.338,5.338,0,0,1,4.57,0,2.861,2.861,0,0,1,1.207,1.6,9.409,9.409,0,0,1,.366,2.912,9.41,9.41,0,0,1-.366,2.912,2.861,2.861,0,0,1-1.207,1.6A4.373,4.373,0,0,1,200.808,42.8Zm0-1.651a2.2,2.2,0,0,0,1.253-.3,1.7,1.7,0,0,0,.631-1.028,8.643,8.643,0,0,0,.187-2.048,8.643,8.643,0,0,0-.187-2.048,1.7,1.7,0,0,0-.631-1.028,2.2,2.2,0,0,0-1.253-.3,2.165,2.165,0,0,0-1.246.3,1.715,1.715,0,0,0-.623,1.028,8.643,8.643,0,0,0-.187,2.048,8.643,8.643,0,0,0,.187,2.048,1.715,1.715,0,0,0,.623,1.028A2.165,2.165,0,0,0,200.808,41.154Zm5.7,1.433V32.964H208.3V33.2a5.426,5.426,0,0,1,2.289-.452,4.631,4.631,0,0,1,2.048.366,2.108,2.108,0,0,1,1.035,1.23,7.482,7.482,0,0,1,.311,2.437v5.808h-1.806V36.779a5.406,5.406,0,0,0-.148-1.44,1.234,1.234,0,0,0-.483-.724,1.755,1.755,0,0,0-.958-.218,4.531,4.531,0,0,0-1.487.179,1.027,1.027,0,0,0-.638.631,4.421,4.421,0,0,0-.164,1.4v5.979Zm12.6.218a3.871,3.871,0,0,1-2.048-.467,4.045,4.045,0,0,1-1.362-1.651l1.417-1.168a6.576,6.576,0,0,0,.537,1.043,1.23,1.23,0,0,0,.553.459,2.476,2.476,0,0,0,.9.132,7.821,7.821,0,0,0,1.619-.125,1.2,1.2,0,0,0,.747-.413,1.441,1.441,0,0,0,.2-.833,1.487,1.487,0,0,0-.163-.794,1.007,1.007,0,0,0-.584-.374,9.983,9.983,0,0,0-1.417-.249,6.133,6.133,0,0,1-2.725-.833,2.164,2.164,0,0,1-.841-1.892,3.159,3.159,0,0,1,.389-1.674,2.263,2.263,0,0,1,1.246-.926,7.265,7.265,0,0,1,2.3-.3,4.613,4.613,0,0,1,2.133.4,3.76,3.76,0,0,1,1.386,1.433l-1.308,1.277a5.735,5.735,0,0,0-.592-.934,1.313,1.313,0,0,0-.607-.413,3.416,3.416,0,0,0-1.012-.117,6.243,6.243,0,0,0-1.347.109.98.98,0,0,0-.631.374,1.408,1.408,0,0,0-.171.763.761.761,0,0,0,.187.561,1.185,1.185,0,0,0,.561.28q.374.093,1.152.2a11,11,0,0,1,2.3.537,2.306,2.306,0,0,1,1.183.919,3.145,3.145,0,0,1,.366,1.643,3.183,3.183,0,0,1-.428,1.752,2.455,2.455,0,0,1-1.386.965A8.737,8.737,0,0,1,219.1,42.8Zm7.941,2.834a13.292,13.292,0,0,0,1.1-1.7,2.531,2.531,0,0,0,.3-1.121.977.977,0,0,1-.81-.28,1.789,1.789,0,0,1-.218-1.043,1.4,1.4,0,0,1,.3-1.035,2.3,2.3,0,0,1,2.227,0,1.4,1.4,0,0,1,.3,1.035,5,5,0,0,1-.4,2.048,8.879,8.879,0,0,1-1.44,2.094Zm1.791-10.292a1.63,1.63,0,0,1-1.113-.288,1.376,1.376,0,0,1-.3-1.02,1.4,1.4,0,0,1,.3-1.035,2.3,2.3,0,0,1,2.227,0,1.4,1.4,0,0,1,.3,1.035,1.376,1.376,0,0,1-.3,1.02A1.63,1.63,0,0,1,228.836,35.346ZM.844,96.805V84.348H2.65v.093a6.341,6.341,0,0,1,2.071-.311,4.428,4.428,0,0,1,2.289.506,2.825,2.825,0,0,1,1.207,1.6,9.409,9.409,0,0,1,.366,2.912,9.487,9.487,0,0,1-.366,2.92A2.862,2.862,0,0,1,7.01,93.675a4.373,4.373,0,0,1-2.289.514,5.687,5.687,0,0,1-2.071-.374v2.99Zm3.877-4.266a2.161,2.161,0,0,0,1.253-.311A1.735,1.735,0,0,0,6.6,91.192a8.643,8.643,0,0,0,.187-2.048A8.54,8.54,0,0,0,6.6,87.1a1.693,1.693,0,0,0-.631-1.02,2.2,2.2,0,0,0-1.253-.3q-2.071,0-2.071.9v3.675a2.393,2.393,0,0,0,.483,1.651A2.062,2.062,0,0,0,4.721,92.539Zm8.969,1.651a4.35,4.35,0,0,1-1.993-.381,2.228,2.228,0,0,1-1.059-1.238,6.733,6.733,0,0,1-.327-2.336V84.348H12.1v5.886a5.883,5.883,0,0,0,.132,1.448,1.03,1.03,0,0,0,.467.67,2.076,2.076,0,0,0,.989.187,4.95,4.95,0,0,0,1.44-.156,1.05,1.05,0,0,0,.662-.553,2.869,2.869,0,0,0,.187-1.176V84.348h1.806v9.623H15.979v-.156A5.609,5.609,0,0,1,13.69,94.189Zm9.794,0a5.551,5.551,0,0,1-2.2-.366,4.1,4.1,0,0,1-1.549-1.285V81.514h1.791v2.959a5.488,5.488,0,0,1,1.962-.343,4.142,4.142,0,0,1,2.219.514,2.863,2.863,0,0,1,1.176,1.6,12.079,12.079,0,0,1,0,5.839,2.827,2.827,0,0,1-1.176,1.6A4.193,4.193,0,0,1,23.484,94.189Zm0-1.651a2,2,0,0,0,1.183-.3,1.714,1.714,0,0,0,.6-1.02,8.9,8.9,0,0,0,.179-2.04,9.006,9.006,0,0,0-.179-2.048,1.758,1.758,0,0,0-.6-1.035,1.957,1.957,0,0,0-1.183-.311,3.21,3.21,0,0,0-1.222.179,1.039,1.039,0,0,0-.576.646,4.444,4.444,0,0,0-.163,1.386v3.971a1.965,1.965,0,0,0,.779.459A4.537,4.537,0,0,0,23.484,92.539Zm10.76,1.651a3.575,3.575,0,0,1-1.689-.327,1.847,1.847,0,0,1-.856-1.09,7.028,7.028,0,0,1-.257-2.149V83.165H29.479V81.514h3.753v9.109a3.563,3.563,0,0,0,.218,1.5.817.817,0,0,0,.794.413,1.2,1.2,0,0,0,.6-.187,7.316,7.316,0,0,0,.9-.67l1,1.526a4.773,4.773,0,0,1-1.222.771A3.476,3.476,0,0,1,34.244,94.189Zm9.047-9.841v7.972h2.725v1.651H38.775V92.321H41.5V86H39.538V84.348Zm-1.23-1.4a1.57,1.57,0,0,1-1.067-.272,1.895,1.895,0,0,1,0-2.009,1.57,1.57,0,0,1,1.067-.272,1.6,1.6,0,0,1,1.074.272,1.853,1.853,0,0,1,0,2.009A1.6,1.6,0,0,1,42.06,82.947Zm9.545,11.242a5.05,5.05,0,0,1-2.46-.506,2.876,2.876,0,0,1-1.3-1.6,10.99,10.99,0,0,1,0-5.855,2.859,2.859,0,0,1,1.316-1.6,5.222,5.222,0,0,1,2.507-.506,4.206,4.206,0,0,1,2.164.483,4.892,4.892,0,0,1,1.557,1.713l-1.495.888a6.34,6.34,0,0,0-.67-.9,1.531,1.531,0,0,0-.631-.413,3.77,3.77,0,0,0-2.414.187,1.652,1.652,0,0,0-.732,1.02,10.154,10.154,0,0,0,0,4.111,1.685,1.685,0,0,0,.708,1.02,2.812,2.812,0,0,0,1.448.3,2.918,2.918,0,0,0,.926-.125,1.734,1.734,0,0,0,.67-.428,6.158,6.158,0,0,0,.708-.911l1.479.9a5.071,5.071,0,0,1-1.6,1.728A4.285,4.285,0,0,1,51.605,94.189Zm18.685,0a5.05,5.05,0,0,1-2.46-.506,2.876,2.876,0,0,1-1.3-1.6,10.989,10.989,0,0,1,0-5.855,2.859,2.859,0,0,1,1.316-1.6,5.222,5.222,0,0,1,2.507-.506,4.206,4.206,0,0,1,2.164.483,4.892,4.892,0,0,1,1.557,1.713l-1.495.888a6.34,6.34,0,0,0-.67-.9,1.531,1.531,0,0,0-.631-.413,3.77,3.77,0,0,0-2.414.187,1.652,1.652,0,0,0-.732,1.02,10.153,10.153,0,0,0,0,4.111,1.685,1.685,0,0,0,.708,1.02,2.812,2.812,0,0,0,1.448.3,2.918,2.918,0,0,0,.926-.125,1.734,1.734,0,0,0,.67-.428,6.159,6.159,0,0,0,.708-.911l1.479.9a5.071,5.071,0,0,1-1.6,1.728A4.285,4.285,0,0,1,70.291,94.189Zm10.666,0a3.574,3.574,0,0,1-1.689-.327,1.847,1.847,0,0,1-.856-1.09,7.028,7.028,0,0,1-.257-2.149V83.165H76.192V81.514h3.753v9.109a3.562,3.562,0,0,0,.218,1.5.817.817,0,0,0,.794.413,1.2,1.2,0,0,0,.6-.187,7.316,7.316,0,0,0,.9-.67l1,1.526a4.774,4.774,0,0,1-1.222.771A3.476,3.476,0,0,1,80.957,94.189Zm7.49,0a6.345,6.345,0,0,1-2.2-.311A2.172,2.172,0,0,1,85.06,92.9a3.654,3.654,0,0,1-.366-1.767,4.11,4.11,0,0,1,.366-1.923,2,2,0,0,1,1.168-.95,7.158,7.158,0,0,1,2.219-.272h1.962v-.343a2.5,2.5,0,0,0-.163-1.012.952.952,0,0,0-.584-.506,3.842,3.842,0,0,0-1.215-.148,2.9,2.9,0,0,0-1,.132,1,1,0,0,0-.529.475,4.554,4.554,0,0,0-.358,1.043l-1.713-.42a6.253,6.253,0,0,1,.7-1.775,2.549,2.549,0,0,1,1.121-.989,4.293,4.293,0,0,1,1.775-.319,3.987,3.987,0,0,1,2.888.864,3.615,3.615,0,0,1,.864,2.655v3.644a1.843,1.843,0,0,0,.125.841.578.578,0,0,0,.529.2q.125,0,.561-.031v1.651q-.187.016-.514.016a2.323,2.323,0,0,1-1.869-.623,2.357,2.357,0,0,1-1.043.646A5.234,5.234,0,0,1,88.447,94.189Zm0-1.651a3.1,3.1,0,0,0,1.215-.187,1.062,1.062,0,0,0,.584-.638,4.031,4.031,0,0,0,.163-1.308v-.763H88.447a6.393,6.393,0,0,0-1.261.086.746.746,0,0,0-.529.389,2.4,2.4,0,0,0-.156,1.02,1.874,1.874,0,0,0,.156.864.9.9,0,0,0,.568.413A4.507,4.507,0,0,0,88.447,92.539Zm9.2,1.651a3.871,3.871,0,0,1-2.048-.467,4.045,4.045,0,0,1-1.362-1.651L95.656,90.9a6.577,6.577,0,0,0,.537,1.043,1.23,1.23,0,0,0,.553.459,2.476,2.476,0,0,0,.9.132,7.821,7.821,0,0,0,1.619-.125,1.2,1.2,0,0,0,.747-.413,1.441,1.441,0,0,0,.2-.833,1.487,1.487,0,0,0-.163-.794A1.007,1.007,0,0,0,99.471,90a9.984,9.984,0,0,0-1.417-.249,6.133,6.133,0,0,1-2.725-.833,2.164,2.164,0,0,1-.841-1.892,3.159,3.159,0,0,1,.389-1.674,2.263,2.263,0,0,1,1.246-.926,7.264,7.264,0,0,1,2.3-.3,4.613,4.613,0,0,1,2.133.4,3.76,3.76,0,0,1,1.386,1.433l-1.308,1.277a5.734,5.734,0,0,0-.592-.934,1.313,1.313,0,0,0-.607-.413,3.416,3.416,0,0,0-1.012-.117,6.243,6.243,0,0,0-1.347.109.98.98,0,0,0-.631.374,1.408,1.408,0,0,0-.171.763.761.761,0,0,0,.187.561,1.185,1.185,0,0,0,.561.28q.374.093,1.152.2a11,11,0,0,1,2.3.537,2.306,2.306,0,0,1,1.183.919,3.145,3.145,0,0,1,.366,1.643,3.183,3.183,0,0,1-.428,1.752,2.455,2.455,0,0,1-1.386.965A8.737,8.737,0,0,1,97.649,94.189Zm9.343,0a3.871,3.871,0,0,1-2.048-.467,4.045,4.045,0,0,1-1.362-1.651L105,90.9a6.577,6.577,0,0,0,.537,1.043,1.23,1.23,0,0,0,.553.459,2.476,2.476,0,0,0,.9.132,7.821,7.821,0,0,0,1.619-.125,1.2,1.2,0,0,0,.747-.413,1.441,1.441,0,0,0,.2-.833,1.487,1.487,0,0,0-.164-.794,1.007,1.007,0,0,0-.584-.374,9.984,9.984,0,0,0-1.417-.249,6.133,6.133,0,0,1-2.725-.833,2.164,2.164,0,0,1-.841-1.892,3.159,3.159,0,0,1,.389-1.674,2.263,2.263,0,0,1,1.246-.926,7.264,7.264,0,0,1,2.3-.3,4.613,4.613,0,0,1,2.133.4,3.76,3.76,0,0,1,1.386,1.433l-1.308,1.277a5.734,5.734,0,0,0-.592-.934,1.313,1.313,0,0,0-.607-.413,3.416,3.416,0,0,0-1.012-.117,6.243,6.243,0,0,0-1.347.109.98.98,0,0,0-.631.374,1.408,1.408,0,0,0-.171.763.761.761,0,0,0,.187.561,1.185,1.185,0,0,0,.561.28q.374.093,1.152.2a11,11,0,0,1,2.3.537,2.306,2.306,0,0,1,1.183.919,3.145,3.145,0,0,1,.366,1.643,3.183,3.183,0,0,1-.428,1.752,2.455,2.455,0,0,1-1.386.965A8.737,8.737,0,0,1,106.992,94.189Zm16.63-.218h-1.806l.234-12.457H123.7l2.367,5.839,2.367-5.839H130.1l.218,12.457h-1.791l-.156-7.817-1.557,4.2h-1.495l-1.557-4.2Zm11.538.218a6.345,6.345,0,0,1-2.2-.311,2.172,2.172,0,0,1-1.183-.973,3.654,3.654,0,0,1-.366-1.767,4.11,4.11,0,0,1,.366-1.923,2,2,0,0,1,1.168-.95,7.158,7.158,0,0,1,2.219-.272h1.962v-.343a2.5,2.5,0,0,0-.163-1.012.952.952,0,0,0-.584-.506,3.842,3.842,0,0,0-1.215-.148,2.9,2.9,0,0,0-1,.132,1,1,0,0,0-.529.475,4.555,4.555,0,0,0-.358,1.043l-1.713-.42a6.252,6.252,0,0,1,.7-1.775,2.549,2.549,0,0,1,1.121-.989,4.293,4.293,0,0,1,1.775-.319,3.987,3.987,0,0,1,2.888.864,3.615,3.615,0,0,1,.864,2.655v3.644a1.843,1.843,0,0,0,.125.841.578.578,0,0,0,.529.2q.125,0,.561-.031v1.651q-.187.016-.514.016a2.323,2.323,0,0,1-1.869-.623,2.357,2.357,0,0,1-1.043.646A5.234,5.234,0,0,1,135.16,94.189Zm0-1.651a3.1,3.1,0,0,0,1.215-.187,1.062,1.062,0,0,0,.584-.638,4.031,4.031,0,0,0,.163-1.308v-.763H135.16a6.393,6.393,0,0,0-1.261.086.746.746,0,0,0-.529.389,2.4,2.4,0,0,0-.156,1.02,1.874,1.874,0,0,0,.156.864.9.9,0,0,0,.568.413A4.507,4.507,0,0,0,135.16,92.539Zm10.9-8.19v7.972h2.725v1.651h-7.241V92.321h2.725V86h-1.962V84.348Zm-1.23-1.4a1.57,1.57,0,0,1-1.067-.272,1.895,1.895,0,0,1,0-2.009,1.57,1.57,0,0,1,1.067-.272,1.6,1.6,0,0,1,1.074.272,1.853,1.853,0,0,1,0,2.009A1.6,1.6,0,0,1,144.83,82.947Zm5.621,11.024V84.348h1.791v.234a5.425,5.425,0,0,1,2.289-.452,4.631,4.631,0,0,1,2.048.366,2.108,2.108,0,0,1,1.035,1.23,7.482,7.482,0,0,1,.311,2.437v5.808h-1.806V88.163a5.405,5.405,0,0,0-.148-1.44,1.234,1.234,0,0,0-.483-.724,1.755,1.755,0,0,0-.958-.218,4.531,4.531,0,0,0-1.487.179,1.027,1.027,0,0,0-.638.631,4.422,4.422,0,0,0-.164,1.4v5.979Zm13.3-12.457a5.648,5.648,0,0,1,2.258.374,2.366,2.366,0,0,1,1.222,1.183,5.181,5.181,0,0,1,.382,2.18,5.512,5.512,0,0,1-.374,2.258,2.176,2.176,0,0,1-1.207,1.144,6.281,6.281,0,0,1-2.281.335h-2.04v4.983h-1.791V81.514h1.713l.078-.078v.078Zm0,5.824a4.243,4.243,0,0,0,1.308-.148.957.957,0,0,0,.592-.576,3.952,3.952,0,0,0,.171-1.362,3.58,3.58,0,0,0-.179-1.285,1.085,1.085,0,0,0-.615-.623,3.514,3.514,0,0,0-1.277-.179h-2.04v4.173Zm10.635,6.851a3.575,3.575,0,0,1-1.689-.327,1.847,1.847,0,0,1-.856-1.09,7.027,7.027,0,0,1-.257-2.149V83.165h-1.962V81.514h3.753v9.109a3.563,3.563,0,0,0,.218,1.5.817.817,0,0,0,.794.413,1.2,1.2,0,0,0,.6-.187,7.314,7.314,0,0,0,.9-.67l1,1.526a4.773,4.773,0,0,1-1.222.771A3.476,3.476,0,0,1,174.384,94.189Zm7.49,0a6.346,6.346,0,0,1-2.2-.311,2.172,2.172,0,0,1-1.183-.973,3.654,3.654,0,0,1-.366-1.767,4.11,4.11,0,0,1,.366-1.923,2,2,0,0,1,1.168-.95,7.158,7.158,0,0,1,2.219-.272h1.962v-.343a2.5,2.5,0,0,0-.163-1.012.952.952,0,0,0-.584-.506,3.842,3.842,0,0,0-1.215-.148,2.9,2.9,0,0,0-1,.132,1,1,0,0,0-.529.475,4.555,4.555,0,0,0-.358,1.043l-1.713-.42a6.252,6.252,0,0,1,.7-1.775,2.549,2.549,0,0,1,1.121-.989,4.293,4.293,0,0,1,1.775-.319,3.987,3.987,0,0,1,2.888.864,3.615,3.615,0,0,1,.864,2.655v3.644a1.843,1.843,0,0,0,.125.841.578.578,0,0,0,.529.2q.125,0,.561-.031v1.651q-.187.016-.514.016a2.323,2.323,0,0,1-1.869-.623,2.357,2.357,0,0,1-1.043.646A5.234,5.234,0,0,1,181.873,94.189Zm0-1.651a3.1,3.1,0,0,0,1.215-.187,1.062,1.062,0,0,0,.584-.638,4.031,4.031,0,0,0,.163-1.308v-.763h-1.962a6.393,6.393,0,0,0-1.261.086.746.746,0,0,0-.529.389,2.4,2.4,0,0,0-.156,1.02,1.874,1.874,0,0,0,.156.864.9.9,0,0,0,.568.413A4.508,4.508,0,0,0,181.873,92.539Zm7.007,4.484a3.165,3.165,0,0,1-1.059-.156,4.134,4.134,0,0,1-.965-.529l.716-1.51a8.222,8.222,0,0,0,.81.452,1.255,1.255,0,0,0,.5.093,2.206,2.206,0,0,0,.9-.156,1.462,1.462,0,0,0,.6-.537,4.813,4.813,0,0,0,.506-1.129l-3.223-9.2h1.869l2.3,6.851,2.336-6.851h1.884l-3.348,9.327a8.534,8.534,0,0,1-.95,1.993,3,3,0,0,1-1.176,1.035A4,4,0,0,1,188.88,97.023Zm11.974-4.484a2.567,2.567,0,0,0,1.331-.319,3.954,3.954,0,0,0,1.113-1.129l1.433.95a5.134,5.134,0,0,1-1.643,1.682,4.57,4.57,0,0,1-2.234.467,5.338,5.338,0,0,1-2.468-.467,2.668,2.668,0,0,1-1.261-1.542,12.151,12.151,0,0,1,0-6.042,2.668,2.668,0,0,1,1.261-1.542,5.338,5.338,0,0,1,2.468-.467,4.819,4.819,0,0,1,2.421.506,2.845,2.845,0,0,1,1.238,1.689,11.509,11.509,0,0,1,.374,3.317H198.55a5.8,5.8,0,0,0,.28,1.728,1.638,1.638,0,0,0,.716.9A2.665,2.665,0,0,0,200.854,92.539Zm0-6.758a2.332,2.332,0,0,0-1.651.49,2.669,2.669,0,0,0-.623,1.721h4.469a3.5,3.5,0,0,0-.2-1.331,1.239,1.239,0,0,0-.677-.677A3.444,3.444,0,0,0,200.854,85.781Zm6.073,8.19V84.348h1.791v.794a3.424,3.424,0,0,1,.965-.708,2.756,2.756,0,0,1,1.277-.3,3.987,3.987,0,0,1,1.495.241,2.5,2.5,0,0,1,1.02.779,5.258,5.258,0,0,1,.771,1.487l-1.6.732a5.58,5.58,0,0,0-.4-1.012,1.017,1.017,0,0,0-.475-.452,2.075,2.075,0,0,0-.8-.125,1.87,1.87,0,0,0-1.728.833,4.655,4.655,0,0,0-.514,2.421v4.936Zm21.909-7.241a1.63,1.63,0,0,1-1.113-.288,1.376,1.376,0,0,1-.3-1.02,1.4,1.4,0,0,1,.3-1.035,2.3,2.3,0,0,1,2.227,0,1.4,1.4,0,0,1,.3,1.035,1.376,1.376,0,0,1-.3,1.02A1.63,1.63,0,0,1,228.836,86.731Zm0,7.459a1.63,1.63,0,0,1-1.113-.288,1.376,1.376,0,0,1-.3-1.02,1.4,1.4,0,0,1,.3-1.035,2.3,2.3,0,0,1,2.227,0,1.4,1.4,0,0,1,.3,1.035,1.376,1.376,0,0,1-.3,1.02A1.63,1.63,0,0,1,228.836,94.189Zm16.241-.218H243.27l.234-12.457h1.651l2.367,5.839,2.367-5.839h1.666l.218,12.457h-1.791l-.156-7.817-1.557,4.2h-1.495l-1.557-4.2Zm11.787.218a4.33,4.33,0,0,1-2.281-.514,2.872,2.872,0,0,1-1.2-1.6,11.768,11.768,0,0,1,0-5.824,2.873,2.873,0,0,1,1.2-1.6,5.338,5.338,0,0,1,4.57,0,2.861,2.861,0,0,1,1.207,1.6,11.768,11.768,0,0,1,0,5.824,2.861,2.861,0,0,1-1.207,1.6A4.373,4.373,0,0,1,256.864,94.189Zm0-1.651a2.2,2.2,0,0,0,1.253-.3,1.7,1.7,0,0,0,.631-1.028,11.314,11.314,0,0,0,0-4.1,1.7,1.7,0,0,0-.631-1.028,2.2,2.2,0,0,0-1.253-.3,2.165,2.165,0,0,0-1.246.3A1.715,1.715,0,0,0,255,87.112a11.312,11.312,0,0,0,0,4.1,1.715,1.715,0,0,0,.623,1.028A2.165,2.165,0,0,0,256.864,92.539Zm5.7,1.433V84.348h1.791v.234a5.425,5.425,0,0,1,2.289-.452,4.631,4.631,0,0,1,2.048.366,2.108,2.108,0,0,1,1.035,1.23,7.482,7.482,0,0,1,.311,2.437v5.808h-1.806V88.163a5.406,5.406,0,0,0-.148-1.44A1.234,1.234,0,0,0,267.6,86a1.755,1.755,0,0,0-.958-.218,4.531,4.531,0,0,0-1.487.179,1.027,1.027,0,0,0-.638.631,4.421,4.421,0,0,0-.164,1.4v5.979Zm12.986.218a4.33,4.33,0,0,1-2.281-.514,2.873,2.873,0,0,1-1.2-1.6,11.769,11.769,0,0,1,0-5.824,2.873,2.873,0,0,1,1.2-1.6,5.338,5.338,0,0,1,4.57,0,2.861,2.861,0,0,1,1.207,1.6,11.768,11.768,0,0,1,0,5.824,2.861,2.861,0,0,1-1.207,1.6A4.373,4.373,0,0,1,275.549,94.189Zm0-1.651a2.2,2.2,0,0,0,1.253-.3,1.7,1.7,0,0,0,.631-1.028,11.31,11.31,0,0,0,0-4.1,1.7,1.7,0,0,0-.631-1.028,2.2,2.2,0,0,0-1.253-.3,2.165,2.165,0,0,0-1.246.3,1.715,1.715,0,0,0-.623,1.028,11.314,11.314,0,0,0,0,4.1,1.715,1.715,0,0,0,.623,1.028A2.165,2.165,0,0,0,275.549,92.539Zm5.637,1.433V81.514h3.457a6.239,6.239,0,0,1,2.258.335,2.279,2.279,0,0,1,1.222,1.051,4.088,4.088,0,0,1,.382,1.915,4.346,4.346,0,0,1-.2,1.495,2.226,2.226,0,0,1-.7.934,2.478,2.478,0,0,1,1,1.106,4.9,4.9,0,0,1,.3,1.915,5.175,5.175,0,0,1-.374,2.157,2.337,2.337,0,0,1-1.215,1.176,5.7,5.7,0,0,1-2.273.374Zm3.457-7.412a5.672,5.672,0,0,0,1.316-.109.852.852,0,0,0,.584-.467,2.9,2.9,0,0,0,.171-1.168,2.339,2.339,0,0,0-.171-1.012,1,1,0,0,0-.607-.49,4.267,4.267,0,0,0-1.292-.148h-1.666v3.395Zm.389,5.761a3.513,3.513,0,0,0,1.277-.179,1.087,1.087,0,0,0,.615-.615,3.458,3.458,0,0,0,.179-1.261,3.953,3.953,0,0,0-.171-1.362.908.908,0,0,0-.592-.561,4.716,4.716,0,0,0-1.308-.132h-2.055v4.111Zm9.249.218a2.567,2.567,0,0,0,1.331-.319,3.954,3.954,0,0,0,1.113-1.129l1.433.95a5.133,5.133,0,0,1-1.643,1.682,4.569,4.569,0,0,1-2.234.467,5.338,5.338,0,0,1-2.468-.467,2.668,2.668,0,0,1-1.261-1.542,12.15,12.15,0,0,1,0-6.042,2.668,2.668,0,0,1,1.261-1.542,5.338,5.338,0,0,1,2.468-.467,4.819,4.819,0,0,1,2.421.506,2.846,2.846,0,0,1,1.238,1.689,11.511,11.511,0,0,1,.374,3.317h-6.337a5.8,5.8,0,0,0,.28,1.728,1.638,1.638,0,0,0,.716.9A2.665,2.665,0,0,0,294.281,92.539Zm0-6.758a2.333,2.333,0,0,0-1.651.49,2.669,2.669,0,0,0-.623,1.721h4.469a3.5,3.5,0,0,0-.2-1.331,1.239,1.239,0,0,0-.677-.677A3.444,3.444,0,0,0,294.281,85.781Zm5.746,8.19V81.514h1.791v2.9a6.045,6.045,0,0,1,1.915-.28,4.1,4.1,0,0,1,2.211.514,2.888,2.888,0,0,1,1.168,1.651,10.689,10.689,0,0,1,.358,3.1v4.578h-1.791V89.393a10.529,10.529,0,0,0-.179-2.234,1.8,1.8,0,0,0-.584-1.074,1.952,1.952,0,0,0-1.183-.3,3.268,3.268,0,0,0-1.222.171.966.966,0,0,0-.545.623,4.935,4.935,0,0,0-.148,1.417v5.979Zm12.644.218a6.346,6.346,0,0,1-2.2-.311,2.172,2.172,0,0,1-1.183-.973,3.654,3.654,0,0,1-.366-1.767,4.11,4.11,0,0,1,.366-1.923,2,2,0,0,1,1.168-.95,7.158,7.158,0,0,1,2.219-.272h1.962v-.343a2.5,2.5,0,0,0-.163-1.012.953.953,0,0,0-.584-.506,3.842,3.842,0,0,0-1.215-.148,2.9,2.9,0,0,0-1,.132,1,1,0,0,0-.529.475,4.556,4.556,0,0,0-.358,1.043l-1.713-.42a6.253,6.253,0,0,1,.7-1.775,2.549,2.549,0,0,1,1.121-.989,4.293,4.293,0,0,1,1.775-.319,3.987,3.987,0,0,1,2.888.864,3.615,3.615,0,0,1,.864,2.655v3.644a1.843,1.843,0,0,0,.125.841.578.578,0,0,0,.529.2q.125,0,.561-.031v1.651q-.187.016-.514.016a2.323,2.323,0,0,1-1.869-.623,2.357,2.357,0,0,1-1.043.646A5.234,5.234,0,0,1,312.67,94.189Zm0-1.651a3.1,3.1,0,0,0,1.215-.187,1.062,1.062,0,0,0,.584-.638,4.032,4.032,0,0,0,.163-1.308v-.763H312.67a6.393,6.393,0,0,0-1.261.086.746.746,0,0,0-.529.389,2.4,2.4,0,0,0-.156,1.02,1.873,1.873,0,0,0,.156.864.9.9,0,0,0,.568.413A4.507,4.507,0,0,0,312.67,92.539Zm10.386,1.433h-1.619l-3.457-9.623h1.853l2.414,6.96,2.46-6.96h1.837Zm9.857-9.623v7.972h2.725v1.651H328.4V92.321h2.725V86H329.16V84.348Zm-1.23-1.4a1.57,1.57,0,0,1-1.067-.272,1.895,1.895,0,0,1,0-2.009,1.57,1.57,0,0,1,1.067-.272,1.6,1.6,0,0,1,1.074.272,1.853,1.853,0,0,1,0,2.009A1.6,1.6,0,0,1,331.683,82.947Zm9.265,11.242a4.33,4.33,0,0,1-2.281-.514,2.873,2.873,0,0,1-1.2-1.6,11.768,11.768,0,0,1,0-5.824,2.873,2.873,0,0,1,1.2-1.6,5.338,5.338,0,0,1,4.57,0,2.861,2.861,0,0,1,1.207,1.6,11.768,11.768,0,0,1,0,5.824,2.861,2.861,0,0,1-1.207,1.6A4.373,4.373,0,0,1,340.948,94.189Zm0-1.651a2.2,2.2,0,0,0,1.253-.3,1.7,1.7,0,0,0,.631-1.028,11.31,11.31,0,0,0,0-4.1,1.7,1.7,0,0,0-.631-1.028,2.2,2.2,0,0,0-1.253-.3,2.165,2.165,0,0,0-1.246.3,1.715,1.715,0,0,0-.623,1.028,11.31,11.31,0,0,0,0,4.1,1.715,1.715,0,0,0,.623,1.028A2.165,2.165,0,0,0,340.948,92.539Zm9.078,1.651a4.35,4.35,0,0,1-1.993-.381,2.228,2.228,0,0,1-1.059-1.238,6.734,6.734,0,0,1-.327-2.336V84.348h1.791v5.886a5.883,5.883,0,0,0,.132,1.448,1.03,1.03,0,0,0,.467.67,2.076,2.076,0,0,0,.989.187,4.95,4.95,0,0,0,1.44-.156,1.05,1.05,0,0,0,.662-.553,2.869,2.869,0,0,0,.187-1.176V84.348h1.806v9.623h-1.806v-.156A5.609,5.609,0,0,1,350.026,94.189Zm6.384-.218V84.348H358.2v.794a3.423,3.423,0,0,1,.965-.708,2.756,2.756,0,0,1,1.277-.3,3.987,3.987,0,0,1,1.495.241,2.5,2.5,0,0,1,1.02.779,5.259,5.259,0,0,1,.771,1.487l-1.6.732a5.581,5.581,0,0,0-.4-1.012,1.017,1.017,0,0,0-.475-.452,2.075,2.075,0,0,0-.8-.125,1.87,1.87,0,0,0-1.728.833,4.655,4.655,0,0,0-.514,2.421v4.936Zm25.178,2.258a5.533,5.533,0,0,1-3.348-.8,3.027,3.027,0,0,1-1.043-2.561,8.382,8.382,0,0,1,.156-1.4,8.193,8.193,0,0,0,.125-1.059,1.741,1.741,0,0,0-.545-.9q-.545-.607-1.775-1.76,1.23-1.183,1.775-1.791a1.72,1.72,0,0,0,.545-.934,6.336,6.336,0,0,0-.125-.95,7.693,7.693,0,0,1-.156-1.433,3.049,3.049,0,0,1,1.043-2.569,5.492,5.492,0,0,1,3.348-.81v1.666a5.812,5.812,0,0,0-1.557.163,1.381,1.381,0,0,0-.81.545,1.942,1.942,0,0,0-.249,1.067,5.21,5.21,0,0,0,.156,1.2,4.072,4.072,0,0,1,.14.965,2.764,2.764,0,0,1-.42,1.456,5.773,5.773,0,0,1-1.324,1.425,5.539,5.539,0,0,1,1.331,1.386,2.683,2.683,0,0,1,.413,1.433,4.857,4.857,0,0,1-.125.95,6.2,6.2,0,0,0-.156,1.308,1.915,1.915,0,0,0,.241,1.043,1.359,1.359,0,0,0,.8.537,5.812,5.812,0,0,0,1.557.163ZM39.538,148.19H37.669l6.758-17.6H46.3Zm9.343,0H47.012l6.758-17.6h1.869Zm21.13-2.616a4.317,4.317,0,0,1-2.25-.5,2.825,2.825,0,0,1-1.183-1.6,9.615,9.615,0,0,1-.366-2.951V132.9H68v7.63a9.189,9.189,0,0,0,.179,2.079,1.665,1.665,0,0,0,.607,1.02,2.137,2.137,0,0,0,1.222.3,2.176,2.176,0,0,0,1.23-.3,1.648,1.648,0,0,0,.615-1.02,9.189,9.189,0,0,0,.179-2.079V132.9h1.791v7.63a9.615,9.615,0,0,1-.366,2.951,2.813,2.813,0,0,1-1.191,1.6A4.36,4.36,0,0,1,70.01,145.574Zm8.953,0a3.871,3.871,0,0,1-2.048-.467,4.045,4.045,0,0,1-1.362-1.651l1.417-1.168a6.576,6.576,0,0,0,.537,1.043,1.23,1.23,0,0,0,.553.459,2.476,2.476,0,0,0,.9.132,7.82,7.82,0,0,0,1.619-.125,1.2,1.2,0,0,0,.747-.413,1.441,1.441,0,0,0,.2-.833,1.487,1.487,0,0,0-.163-.794,1.007,1.007,0,0,0-.584-.374,9.984,9.984,0,0,0-1.417-.249,6.133,6.133,0,0,1-2.725-.833,2.164,2.164,0,0,1-.841-1.892,3.159,3.159,0,0,1,.389-1.674,2.263,2.263,0,0,1,1.246-.926,7.264,7.264,0,0,1,2.3-.3,4.613,4.613,0,0,1,2.133.4,3.76,3.76,0,0,1,1.386,1.433l-1.308,1.277a5.734,5.734,0,0,0-.592-.934,1.313,1.313,0,0,0-.607-.413,3.416,3.416,0,0,0-1.012-.117,6.242,6.242,0,0,0-1.347.109.98.98,0,0,0-.631.374,1.408,1.408,0,0,0-.171.763.761.761,0,0,0,.187.561,1.185,1.185,0,0,0,.561.28q.374.093,1.152.2a11,11,0,0,1,2.3.537,2.306,2.306,0,0,1,1.183.919,3.145,3.145,0,0,1,.366,1.643,3.183,3.183,0,0,1-.428,1.752,2.455,2.455,0,0,1-1.386.965A8.737,8.737,0,0,1,78.964,145.574Zm9.779-1.651a2.567,2.567,0,0,0,1.331-.319,3.953,3.953,0,0,0,1.113-1.129l1.433.95a5.134,5.134,0,0,1-1.643,1.682,4.57,4.57,0,0,1-2.234.467,5.338,5.338,0,0,1-2.468-.467,2.668,2.668,0,0,1-1.261-1.542,12.151,12.151,0,0,1,0-6.042,2.668,2.668,0,0,1,1.261-1.542,5.337,5.337,0,0,1,2.468-.467,4.819,4.819,0,0,1,2.421.506,2.845,2.845,0,0,1,1.238,1.689,11.509,11.509,0,0,1,.374,3.317H86.438a5.8,5.8,0,0,0,.28,1.728,1.638,1.638,0,0,0,.716.9A2.665,2.665,0,0,0,88.742,143.923Zm0-6.758a2.333,2.333,0,0,0-1.651.49,2.669,2.669,0,0,0-.623,1.721h4.469a3.5,3.5,0,0,0-.2-1.331,1.239,1.239,0,0,0-.677-.677A3.445,3.445,0,0,0,88.742,137.166Zm19.651,8.408a3.679,3.679,0,0,1-1.822-.389,2.284,2.284,0,0,1-1-1.238,6.474,6.474,0,0,1-.319-2.234V137.2h-1.931v-1.651h1.931V132.9h1.791v2.647h3.223V137.2h-3.223v4.516a5.6,5.6,0,0,0,.125,1.347,1.107,1.107,0,0,0,.413.67,1.453,1.453,0,0,0,.817.195,3.167,3.167,0,0,0,.833-.078.616.616,0,0,0,.374-.28,3.844,3.844,0,0,0,.272-.7l1.682.576a3.57,3.57,0,0,1-.607,1.269,2.082,2.082,0,0,1-.973.662A5.062,5.062,0,0,1,108.393,145.574Zm4.78-.218V132.9h1.791v2.9a6.046,6.046,0,0,1,1.915-.28,4.1,4.1,0,0,1,2.211.514,2.888,2.888,0,0,1,1.168,1.651,10.689,10.689,0,0,1,.358,3.1v4.578h-1.791v-4.578a10.529,10.529,0,0,0-.179-2.234,1.8,1.8,0,0,0-.584-1.074,1.952,1.952,0,0,0-1.183-.3,3.268,3.268,0,0,0-1.222.171.966.966,0,0,0-.545.623,4.936,4.936,0,0,0-.148,1.417v5.979Zm14.2-9.623v7.972H130.1v1.651h-7.241v-1.651h2.725v-6.322h-1.962v-1.651Zm-1.23-1.4a1.57,1.57,0,0,1-1.067-.272,1.895,1.895,0,0,1,0-2.009,1.57,1.57,0,0,1,1.067-.273,1.6,1.6,0,0,1,1.074.273,1.853,1.853,0,0,1,0,2.009A1.6,1.6,0,0,1,126.144,134.332Zm8.876,11.242a3.871,3.871,0,0,1-2.048-.467,4.045,4.045,0,0,1-1.362-1.651l1.417-1.168a6.575,6.575,0,0,0,.537,1.043,1.23,1.23,0,0,0,.553.459,2.476,2.476,0,0,0,.9.132,7.821,7.821,0,0,0,1.619-.125,1.2,1.2,0,0,0,.747-.413,1.441,1.441,0,0,0,.2-.833,1.487,1.487,0,0,0-.163-.794,1.007,1.007,0,0,0-.584-.374,9.983,9.983,0,0,0-1.417-.249,6.133,6.133,0,0,1-2.725-.833,2.164,2.164,0,0,1-.841-1.892,3.159,3.159,0,0,1,.389-1.674,2.263,2.263,0,0,1,1.246-.926,7.264,7.264,0,0,1,2.3-.3,4.613,4.613,0,0,1,2.133.4,3.76,3.76,0,0,1,1.386,1.433l-1.308,1.277a5.733,5.733,0,0,0-.592-.934,1.313,1.313,0,0,0-.607-.413,3.416,3.416,0,0,0-1.012-.117,6.242,6.242,0,0,0-1.347.109.98.98,0,0,0-.631.374,1.408,1.408,0,0,0-.171.763.761.761,0,0,0,.187.561,1.185,1.185,0,0,0,.561.28q.374.093,1.152.2a11,11,0,0,1,2.3.537,2.306,2.306,0,0,1,1.183.919,3.145,3.145,0,0,1,.366,1.643,3.183,3.183,0,0,1-.428,1.752,2.455,2.455,0,0,1-1.386.965A8.736,8.736,0,0,1,135.02,145.574Zm20.351-12.893a5.8,5.8,0,0,1,1.689.2,2.122,2.122,0,0,1,1.028.662,3.323,3.323,0,0,1,.6,1.269l-1.682.576a2.468,2.468,0,0,0-.257-.685.728.728,0,0,0-.428-.288,3.758,3.758,0,0,0-.95-.086,2.536,2.536,0,0,0-1.043.163.934.934,0,0,0-.483.576,4.169,4.169,0,0,0-.14,1.253v.9h2.772v1.651h-2.772v6.478h-1.791v-6.478h-1.931v-1.651h1.931v-.9a5.586,5.586,0,0,1,.335-2.141,2.157,2.157,0,0,1,1.09-1.144A4.8,4.8,0,0,1,155.371,132.681Zm8.066,12.893a4.33,4.33,0,0,1-2.281-.514,2.873,2.873,0,0,1-1.2-1.6,11.768,11.768,0,0,1,0-5.824,2.873,2.873,0,0,1,1.2-1.6,5.338,5.338,0,0,1,4.57,0,2.861,2.861,0,0,1,1.207,1.6,11.768,11.768,0,0,1,0,5.824,2.861,2.861,0,0,1-1.207,1.6A4.373,4.373,0,0,1,163.437,145.574Zm0-1.651a2.2,2.2,0,0,0,1.253-.3,1.7,1.7,0,0,0,.631-1.028,11.312,11.312,0,0,0,0-4.1,1.7,1.7,0,0,0-.631-1.028,2.2,2.2,0,0,0-1.253-.3,2.165,2.165,0,0,0-1.246.3,1.715,1.715,0,0,0-.623,1.028,11.313,11.313,0,0,0,0,4.1,1.715,1.715,0,0,0,.623,1.028A2.165,2.165,0,0,0,163.437,143.923Zm6.119,1.433v-9.623h1.791v.794a3.424,3.424,0,0,1,.965-.708,2.756,2.756,0,0,1,1.277-.3,3.987,3.987,0,0,1,1.495.241,2.5,2.5,0,0,1,1.02.779,5.259,5.259,0,0,1,.771,1.487l-1.6.732a5.58,5.58,0,0,0-.4-1.012,1.017,1.017,0,0,0-.475-.452,2.075,2.075,0,0,0-.8-.125,1.87,1.87,0,0,0-1.728.833,4.655,4.655,0,0,0-.514,2.421v4.936Zm23.217-9.623v7.972H195.5v1.651h-7.241v-1.651h2.725v-6.322H189.02v-1.651Zm-1.23-1.4a1.57,1.57,0,0,1-1.067-.272,1.895,1.895,0,0,1,0-2.009,1.57,1.57,0,0,1,1.067-.273,1.6,1.6,0,0,1,1.074.273,1.853,1.853,0,0,1,0,2.009A1.6,1.6,0,0,1,191.543,134.332Zm5.621,11.024v-9.623h1.791v.234a5.426,5.426,0,0,1,2.289-.452,4.631,4.631,0,0,1,2.048.366,2.108,2.108,0,0,1,1.035,1.23,7.482,7.482,0,0,1,.311,2.437v5.808h-1.806v-5.808a5.406,5.406,0,0,0-.148-1.44,1.234,1.234,0,0,0-.483-.724,1.755,1.755,0,0,0-.958-.218,4.532,4.532,0,0,0-1.487.179,1.027,1.027,0,0,0-.638.631,4.422,4.422,0,0,0-.164,1.4v5.979Zm14.294-9.623v7.972h2.725v1.651h-7.241v-1.651h2.725v-6.322h-1.962v-1.651Zm-1.23-1.4a1.57,1.57,0,0,1-1.067-.272,1.895,1.895,0,0,1,0-2.009,1.57,1.57,0,0,1,1.067-.273,1.6,1.6,0,0,1,1.074.273,1.853,1.853,0,0,1,0,2.009A1.6,1.6,0,0,1,210.228,134.332Zm10.277,11.242a3.679,3.679,0,0,1-1.822-.389,2.284,2.284,0,0,1-1-1.238,6.474,6.474,0,0,1-.319-2.234V137.2h-1.931v-1.651h1.931V132.9h1.791v2.647h3.223V137.2H219.15v4.516a5.6,5.6,0,0,0,.125,1.347,1.107,1.107,0,0,0,.413.67,1.453,1.453,0,0,0,.817.195,3.167,3.167,0,0,0,.833-.078.616.616,0,0,0,.374-.28,3.846,3.846,0,0,0,.272-.7l1.682.576a3.57,3.57,0,0,1-.607,1.269,2.082,2.082,0,0,1-.973.662A5.062,5.062,0,0,1,220.505,145.574Zm9.638-9.841v7.972h2.725v1.651h-7.241v-1.651h2.725v-6.322h-1.962v-1.651Zm-1.23-1.4a1.57,1.57,0,0,1-1.067-.272,1.895,1.895,0,0,1,0-2.009,1.57,1.57,0,0,1,1.067-.273,1.6,1.6,0,0,1,1.074.273,1.853,1.853,0,0,1,0,2.009A1.6,1.6,0,0,1,228.914,134.332Zm9.016,11.242a6.345,6.345,0,0,1-2.2-.311,2.172,2.172,0,0,1-1.183-.973,3.654,3.654,0,0,1-.366-1.767,4.11,4.11,0,0,1,.366-1.923,2,2,0,0,1,1.168-.95,7.158,7.158,0,0,1,2.219-.272h1.962v-.343a2.5,2.5,0,0,0-.163-1.012.952.952,0,0,0-.584-.506,3.842,3.842,0,0,0-1.215-.148,2.9,2.9,0,0,0-1,.132,1,1,0,0,0-.529.475,4.555,4.555,0,0,0-.358,1.043l-1.713-.42a6.253,6.253,0,0,1,.7-1.775,2.549,2.549,0,0,1,1.121-.989,4.293,4.293,0,0,1,1.775-.319,3.987,3.987,0,0,1,2.888.864,3.615,3.615,0,0,1,.864,2.655v3.644a1.843,1.843,0,0,0,.125.841.578.578,0,0,0,.529.2q.125,0,.561-.031v1.651q-.187.016-.514.016a2.323,2.323,0,0,1-1.869-.623,2.357,2.357,0,0,1-1.043.646A5.234,5.234,0,0,1,237.929,145.574Zm0-1.651a3.1,3.1,0,0,0,1.215-.187,1.062,1.062,0,0,0,.584-.638,4.032,4.032,0,0,0,.163-1.308v-.763h-1.962a6.393,6.393,0,0,0-1.261.086.746.746,0,0,0-.529.389,2.4,2.4,0,0,0-.156,1.02,1.874,1.874,0,0,0,.156.864.9.9,0,0,0,.568.413A4.507,4.507,0,0,0,237.929,143.923Zm11.2,1.651a3.574,3.574,0,0,1-1.689-.327,1.847,1.847,0,0,1-.856-1.09,7.028,7.028,0,0,1-.257-2.149V134.55H244.36V132.9h3.753v9.109a3.563,3.563,0,0,0,.218,1.5.817.817,0,0,0,.794.413,1.2,1.2,0,0,0,.6-.187,7.314,7.314,0,0,0,.9-.67l1,1.526a4.773,4.773,0,0,1-1.222.771A3.476,3.476,0,0,1,249.125,145.574Zm9.047-9.841v7.972H260.9v1.651h-7.241v-1.651h2.725v-6.322h-1.962v-1.651Zm-1.23-1.4a1.57,1.57,0,0,1-1.067-.272,1.895,1.895,0,0,1,0-2.009,1.57,1.57,0,0,1,1.067-.273,1.6,1.6,0,0,1,1.074.273,1.853,1.853,0,0,1,0,2.009A1.6,1.6,0,0,1,256.941,134.332ZM269.8,145.356h-7.194v-1.074l4.734-6.9h-4.718v-1.651h7.163v1.074l-4.749,6.9H269.8Zm5.5.218a6.345,6.345,0,0,1-2.2-.311,2.172,2.172,0,0,1-1.183-.973,3.654,3.654,0,0,1-.366-1.767,4.11,4.11,0,0,1,.366-1.923,2,2,0,0,1,1.168-.95,7.158,7.158,0,0,1,2.219-.272h1.962v-.343a2.5,2.5,0,0,0-.163-1.012.952.952,0,0,0-.584-.506,3.842,3.842,0,0,0-1.215-.148,2.9,2.9,0,0,0-1,.132,1,1,0,0,0-.529.475,4.554,4.554,0,0,0-.358,1.043l-1.713-.42a6.252,6.252,0,0,1,.7-1.775,2.549,2.549,0,0,1,1.121-.989,4.293,4.293,0,0,1,1.775-.319,3.987,3.987,0,0,1,2.888.864,3.615,3.615,0,0,1,.864,2.655v3.644a1.843,1.843,0,0,0,.125.841.578.578,0,0,0,.529.2q.125,0,.561-.031v1.651q-.187.016-.514.016a2.323,2.323,0,0,1-1.869-.623,2.357,2.357,0,0,1-1.043.646A5.234,5.234,0,0,1,275.3,145.574Zm0-1.651a3.1,3.1,0,0,0,1.215-.187,1.062,1.062,0,0,0,.584-.638,4.032,4.032,0,0,0,.163-1.308v-.763H275.3a6.393,6.393,0,0,0-1.261.086.746.746,0,0,0-.529.389,2.4,2.4,0,0,0-.156,1.02,1.873,1.873,0,0,0,.156.864.9.9,0,0,0,.568.413A4.507,4.507,0,0,0,275.3,143.923Zm10.6,1.651a3.679,3.679,0,0,1-1.822-.389,2.284,2.284,0,0,1-1-1.238,6.474,6.474,0,0,1-.319-2.234V137.2h-1.931v-1.651h1.931V132.9h1.791v2.647h3.223V137.2h-3.223v4.516a5.6,5.6,0,0,0,.125,1.347,1.107,1.107,0,0,0,.413.67,1.453,1.453,0,0,0,.817.195,3.167,3.167,0,0,0,.833-.078.616.616,0,0,0,.374-.28,3.846,3.846,0,0,0,.272-.7l1.682.576a3.57,3.57,0,0,1-.607,1.269,2.082,2.082,0,0,1-.973.662A5.062,5.062,0,0,1,285.9,145.574Zm9.639-9.841v7.972h2.725v1.651h-7.241v-1.651h2.725v-6.322H291.79v-1.651Zm-1.23-1.4a1.57,1.57,0,0,1-1.067-.272,1.895,1.895,0,0,1,0-2.009,1.57,1.57,0,0,1,1.067-.273,1.6,1.6,0,0,1,1.074.273,1.853,1.853,0,0,1,0,2.009A1.6,1.6,0,0,1,294.312,134.332Zm9.265,11.242a4.33,4.33,0,0,1-2.281-.514,2.873,2.873,0,0,1-1.2-1.6,11.769,11.769,0,0,1,0-5.824,2.873,2.873,0,0,1,1.2-1.6,5.338,5.338,0,0,1,4.57,0,2.861,2.861,0,0,1,1.207,1.6,11.768,11.768,0,0,1,0,5.824,2.861,2.861,0,0,1-1.207,1.6A4.373,4.373,0,0,1,303.577,145.574Zm0-1.651a2.2,2.2,0,0,0,1.253-.3,1.7,1.7,0,0,0,.631-1.028,11.31,11.31,0,0,0,0-4.1,1.7,1.7,0,0,0-.631-1.028,2.2,2.2,0,0,0-1.253-.3,2.165,2.165,0,0,0-1.246.3,1.715,1.715,0,0,0-.623,1.028,11.31,11.31,0,0,0,0,4.1,1.715,1.715,0,0,0,.623,1.028A2.165,2.165,0,0,0,303.577,143.923Zm5.7,1.433v-9.623h1.791v.234a5.426,5.426,0,0,1,2.289-.452,4.631,4.631,0,0,1,2.048.366,2.108,2.108,0,0,1,1.035,1.23,7.482,7.482,0,0,1,.311,2.437v5.808h-1.806v-5.808a5.406,5.406,0,0,0-.148-1.44,1.234,1.234,0,0,0-.483-.724,1.756,1.756,0,0,0-.958-.218,4.532,4.532,0,0,0-1.487.179,1.027,1.027,0,0,0-.638.631,4.422,4.422,0,0,0-.164,1.4v5.979Zm-266.5,25.692H41.157L37.7,161.425h1.853l2.414,6.96,2.46-6.96h1.837Zm8.549.218a4.33,4.33,0,0,1-2.281-.514,2.872,2.872,0,0,1-1.2-1.6,11.768,11.768,0,0,1,0-5.824,2.873,2.873,0,0,1,1.2-1.6,5.338,5.338,0,0,1,4.57,0,2.861,2.861,0,0,1,1.207,1.6,11.768,11.768,0,0,1,0,5.824,2.861,2.861,0,0,1-1.207,1.6A4.373,4.373,0,0,1,51.325,171.266Zm0-1.651a2.2,2.2,0,0,0,1.253-.3,1.7,1.7,0,0,0,.631-1.028,11.313,11.313,0,0,0,0-4.1,1.7,1.7,0,0,0-.631-1.028,2.2,2.2,0,0,0-1.253-.3,2.165,2.165,0,0,0-1.246.3,1.715,1.715,0,0,0-.623,1.028,11.313,11.313,0,0,0,0,4.1,1.715,1.715,0,0,0,.623,1.028A2.165,2.165,0,0,0,51.325,169.616Zm10.651-8.19V169.4H64.7v1.651H57.46V169.4h2.725v-6.322H58.223v-1.651Zm-1.23-1.4a1.57,1.57,0,0,1-1.067-.272,1.895,1.895,0,0,1,0-2.009,1.57,1.57,0,0,1,1.067-.272,1.6,1.6,0,0,1,1.074.272,1.853,1.853,0,0,1,0,2.009A1.6,1.6,0,0,1,60.746,160.024Zm9.187,11.242a4.384,4.384,0,0,1-2.281-.506,2.836,2.836,0,0,1-1.2-1.6,11.83,11.83,0,0,1,0-5.839,2.872,2.872,0,0,1,1.2-1.6,4.33,4.33,0,0,1,2.281-.514,5.811,5.811,0,0,1,2.087.374v-2.99H73.81v12.457H72.019v-.109A6.115,6.115,0,0,1,69.933,171.266Zm0-1.651a3.877,3.877,0,0,0,1.58-.241.738.738,0,0,0,.506-.662v-3.675a2.367,2.367,0,0,0-.49-1.651,2.089,2.089,0,0,0-1.6-.529,2.123,2.123,0,0,0-1.246.311,1.752,1.752,0,0,0-.623,1.035,8.643,8.643,0,0,0-.187,2.048,8.54,8.54,0,0,0,.187,2.04,1.71,1.71,0,0,0,.623,1.02A2.165,2.165,0,0,0,69.933,169.616ZM88.7,171.266a7.588,7.588,0,0,1-1.954-.21,3,3,0,0,1-1.292-.7,4.416,4.416,0,0,1-.926-1.347l1.386-1.308a4.841,4.841,0,0,0,.561,1.2,1.507,1.507,0,0,0,.779.553,4.9,4.9,0,0,0,1.448.163,3.723,3.723,0,0,0,1.37-.195,1.16,1.16,0,0,0,.654-.646,3.618,3.618,0,0,0,.187-1.324,1.947,1.947,0,0,0-.2-.981,1.6,1.6,0,0,0-.67-.584,11.4,11.4,0,0,0-1.495-.584,12.1,12.1,0,0,1-2.172-.9,2.9,2.9,0,0,1-1.1-1.028,3.055,3.055,0,0,1-.343-1.542,4.668,4.668,0,0,1,.366-2.016,2.213,2.213,0,0,1,1.183-1.1,5.868,5.868,0,0,1,2.219-.343,7.213,7.213,0,0,1,1.8.187,2.991,2.991,0,0,1,1.207.615,4.053,4.053,0,0,1,.9,1.191l-1.277,1.386a4.88,4.88,0,0,0-.561-1.1,1.385,1.385,0,0,0-.732-.49,4.913,4.913,0,0,0-1.339-.14,3.713,3.713,0,0,0-1.238.156.968.968,0,0,0-.576.537,2.944,2.944,0,0,0-.163,1.113,1.6,1.6,0,0,0,.171.825,1.313,1.313,0,0,0,.584.475,11.678,11.678,0,0,0,1.362.49,12.094,12.094,0,0,1,2.312.934,2.964,2.964,0,0,1,1.183,1.144,3.672,3.672,0,0,1,.366,1.752,5.29,5.29,0,0,1-.389,2.227,2.413,2.413,0,0,1-1.253,1.207A5.961,5.961,0,0,1,88.7,171.266Zm10.355,0a3.679,3.679,0,0,1-1.822-.389,2.283,2.283,0,0,1-1-1.238,6.473,6.473,0,0,1-.319-2.234v-4.516H93.974v-1.651h1.931v-2.647H97.7v2.647h3.223v1.651H97.7V167.4a5.6,5.6,0,0,0,.125,1.347,1.107,1.107,0,0,0,.413.67,1.453,1.453,0,0,0,.817.195,3.167,3.167,0,0,0,.833-.078.616.616,0,0,0,.374-.28,3.845,3.845,0,0,0,.272-.7l1.682.576a3.57,3.57,0,0,1-.607,1.269,2.082,2.082,0,0,1-.973.662A5.062,5.062,0,0,1,99.051,171.266Zm8.081,0a6.345,6.345,0,0,1-2.2-.311,2.172,2.172,0,0,1-1.183-.973,3.654,3.654,0,0,1-.366-1.767,4.11,4.11,0,0,1,.366-1.923,2,2,0,0,1,1.168-.95,7.158,7.158,0,0,1,2.219-.273h1.962v-.343a2.5,2.5,0,0,0-.163-1.012.952.952,0,0,0-.584-.506,3.842,3.842,0,0,0-1.215-.148,2.9,2.9,0,0,0-1,.132,1,1,0,0,0-.529.475,4.554,4.554,0,0,0-.358,1.043l-1.713-.42a6.253,6.253,0,0,1,.7-1.775,2.549,2.549,0,0,1,1.121-.989,4.293,4.293,0,0,1,1.775-.319,3.987,3.987,0,0,1,2.888.864,3.615,3.615,0,0,1,.864,2.655v3.644a1.843,1.843,0,0,0,.125.841.578.578,0,0,0,.529.2q.125,0,.561-.031v1.651q-.187.016-.514.016a2.323,2.323,0,0,1-1.869-.623,2.357,2.357,0,0,1-1.043.646A5.234,5.234,0,0,1,107.132,171.266Zm0-1.651a3.1,3.1,0,0,0,1.215-.187,1.062,1.062,0,0,0,.584-.638,4.031,4.031,0,0,0,.163-1.308v-.763h-1.962a6.4,6.4,0,0,0-1.261.086.746.746,0,0,0-.529.389,2.4,2.4,0,0,0-.156,1.02,1.874,1.874,0,0,0,.156.864.9.9,0,0,0,.568.413A4.508,4.508,0,0,0,107.132,169.616Zm6.369,1.433v-9.623h1.791v.794a3.423,3.423,0,0,1,.965-.708,2.756,2.756,0,0,1,1.277-.3,3.987,3.987,0,0,1,1.495.241,2.5,2.5,0,0,1,1.02.779,5.259,5.259,0,0,1,.771,1.487l-1.6.732a5.58,5.58,0,0,0-.4-1.012,1.017,1.017,0,0,0-.475-.452,2.075,2.075,0,0,0-.8-.125,1.87,1.87,0,0,0-1.728.833,4.655,4.655,0,0,0-.514,2.421v4.936Zm13.578.218a3.679,3.679,0,0,1-1.822-.389,2.284,2.284,0,0,1-1-1.238,6.474,6.474,0,0,1-.319-2.234v-4.516H122v-1.651h1.931v-2.647h1.791v2.647h3.223v1.651h-3.223V167.4a5.6,5.6,0,0,0,.125,1.347,1.107,1.107,0,0,0,.413.67,1.453,1.453,0,0,0,.817.195,3.167,3.167,0,0,0,.833-.078.616.616,0,0,0,.374-.28,3.845,3.845,0,0,0,.273-.7l1.682.576a3.57,3.57,0,0,1-.607,1.269,2.082,2.082,0,0,1-.973.662A5.062,5.062,0,0,1,127.079,171.266Zm20.367,2.04a4.042,4.042,0,0,1-2.756-1.059,6.794,6.794,0,0,1-1.853-2.982,15.437,15.437,0,0,1,0-8.891,6.794,6.794,0,0,1,1.853-2.982,4.042,4.042,0,0,1,2.756-1.059v1.651a2.409,2.409,0,0,0-1.814.849,5.783,5.783,0,0,0-1.222,2.4,14.991,14.991,0,0,0,0,7.178,5.783,5.783,0,0,0,1.222,2.4,2.409,2.409,0,0,0,1.814.849Zm3.971-1.651a2.409,2.409,0,0,0,1.814-.849,5.783,5.783,0,0,0,1.222-2.4,14.991,14.991,0,0,0,0-7.178,5.783,5.783,0,0,0-1.222-2.4,2.409,2.409,0,0,0-1.814-.849v-1.651a4.042,4.042,0,0,1,2.756,1.059,6.794,6.794,0,0,1,1.853,2.982,15.436,15.436,0,0,1,0,8.891,6.794,6.794,0,0,1-1.853,2.982,4.042,4.042,0,0,1-2.756,1.059Zm24.633,1.651a5.533,5.533,0,0,1-3.348-.8,3.027,3.027,0,0,1-1.043-2.561,8.38,8.38,0,0,1,.156-1.4,8.192,8.192,0,0,0,.125-1.059,1.74,1.74,0,0,0-.545-.9q-.545-.607-1.775-1.76,1.23-1.183,1.775-1.791a1.72,1.72,0,0,0,.545-.934,6.335,6.335,0,0,0-.125-.95,7.692,7.692,0,0,1-.156-1.433,3.049,3.049,0,0,1,1.043-2.569,5.492,5.492,0,0,1,3.348-.81V158a5.811,5.811,0,0,0-1.557.163,1.381,1.381,0,0,0-.81.545,1.942,1.942,0,0,0-.249,1.067,5.21,5.21,0,0,0,.156,1.2,4.072,4.072,0,0,1,.14.965,2.764,2.764,0,0,1-.42,1.456,5.773,5.773,0,0,1-1.324,1.425,5.538,5.538,0,0,1,1.331,1.386,2.683,2.683,0,0,1,.413,1.433,4.856,4.856,0,0,1-.125.95,6.2,6.2,0,0,0-.156,1.308,1.916,1.916,0,0,0,.241,1.043,1.359,1.359,0,0,0,.8.537,5.812,5.812,0,0,0,1.557.164ZM38.713,223.025a5.812,5.812,0,0,0,1.557-.164,1.4,1.4,0,0,0,.81-.537,1.868,1.868,0,0,0,.249-1.043,6.2,6.2,0,0,0-.156-1.308,4.856,4.856,0,0,1-.125-.95,2.722,2.722,0,0,1,.4-1.433,5.4,5.4,0,0,1,1.324-1.386,5.424,5.424,0,0,1-1.316-1.409,2.83,2.83,0,0,1-.413-1.471,4.073,4.073,0,0,1,.14-.965,5.21,5.21,0,0,0,.156-1.2,1.942,1.942,0,0,0-.249-1.067,1.384,1.384,0,0,0-.817-.545,5.9,5.9,0,0,0-1.565-.163v-1.666a5.529,5.529,0,0,1,3.356.81,3.039,3.039,0,0,1,1.051,2.569,7.692,7.692,0,0,1-.156,1.433,6.334,6.334,0,0,0-.125.95,1.781,1.781,0,0,0,.545.95q.545.623,1.76,1.775-1.2,1.121-1.752,1.744a1.8,1.8,0,0,0-.553.919,8.191,8.191,0,0,0,.125,1.059,8.38,8.38,0,0,1,.156,1.4,3.016,3.016,0,0,1-1.051,2.561,5.571,5.571,0,0,1-3.356.8Zm.825,53.627H37.669l6.758-17.6H46.3Zm9.343,0H47.012l6.758-17.6h1.869Zm21.13-2.616a4.317,4.317,0,0,1-2.25-.5,2.825,2.825,0,0,1-1.183-1.6,9.615,9.615,0,0,1-.366-2.951v-7.63H68v7.63a9.189,9.189,0,0,0,.179,2.079,1.665,1.665,0,0,0,.607,1.02,2.137,2.137,0,0,0,1.222.3,2.176,2.176,0,0,0,1.23-.3,1.648,1.648,0,0,0,.615-1.02,9.189,9.189,0,0,0,.179-2.079v-7.63h1.791v7.63a9.615,9.615,0,0,1-.366,2.951,2.813,2.813,0,0,1-1.191,1.6A4.36,4.36,0,0,1,70.01,274.035Zm5.574,2.616V264.195h1.806v.093a6.341,6.341,0,0,1,2.071-.311,4.428,4.428,0,0,1,2.289.506,2.825,2.825,0,0,1,1.207,1.6,11.8,11.8,0,0,1,0,5.831,2.862,2.862,0,0,1-1.207,1.612,4.373,4.373,0,0,1-2.289.514,5.686,5.686,0,0,1-2.071-.374v2.99Zm3.877-4.266a2.161,2.161,0,0,0,1.253-.311,1.735,1.735,0,0,0,.631-1.035,8.644,8.644,0,0,0,.187-2.048,8.541,8.541,0,0,0-.187-2.04,1.693,1.693,0,0,0-.631-1.02,2.2,2.2,0,0,0-1.253-.3q-2.071,0-2.071.9V270.2a2.393,2.393,0,0,0,.483,1.651A2.062,2.062,0,0,0,79.462,272.385Zm9.156,1.651a4.384,4.384,0,0,1-2.281-.506,2.836,2.836,0,0,1-1.2-1.6,11.83,11.83,0,0,1,0-5.839,2.873,2.873,0,0,1,1.2-1.6,4.33,4.33,0,0,1,2.281-.514,5.811,5.811,0,0,1,2.087.374v-2.99H92.5v12.457H90.7v-.109A6.115,6.115,0,0,1,88.618,274.035Zm0-1.651a3.877,3.877,0,0,0,1.58-.241.738.738,0,0,0,.506-.662v-3.675a2.367,2.367,0,0,0-.49-1.651,2.089,2.089,0,0,0-1.6-.529,2.123,2.123,0,0,0-1.246.311,1.752,1.752,0,0,0-.623,1.035,8.644,8.644,0,0,0-.187,2.048,8.541,8.541,0,0,0,.187,2.04,1.71,1.71,0,0,0,.623,1.02A2.165,2.165,0,0,0,88.618,272.385Zm9.171,1.651a6.345,6.345,0,0,1-2.2-.311,2.172,2.172,0,0,1-1.183-.973,3.654,3.654,0,0,1-.366-1.767,4.11,4.11,0,0,1,.366-1.923,2,2,0,0,1,1.168-.95,7.158,7.158,0,0,1,2.219-.273h1.962V267.5a2.5,2.5,0,0,0-.164-1.012.952.952,0,0,0-.584-.506,3.842,3.842,0,0,0-1.215-.148,2.9,2.9,0,0,0-1,.132,1,1,0,0,0-.529.475,4.555,4.555,0,0,0-.358,1.043l-1.713-.42a6.253,6.253,0,0,1,.7-1.775,2.549,2.549,0,0,1,1.121-.989,4.293,4.293,0,0,1,1.775-.319,3.987,3.987,0,0,1,2.888.864,3.615,3.615,0,0,1,.864,2.655v3.644a1.843,1.843,0,0,0,.125.841.578.578,0,0,0,.529.2q.125,0,.561-.031V273.8q-.187.016-.514.016a2.323,2.323,0,0,1-1.869-.623,2.357,2.357,0,0,1-1.043.646A5.234,5.234,0,0,1,97.789,274.035Zm0-1.651A3.1,3.1,0,0,0,99,272.2a1.062,1.062,0,0,0,.584-.638,4.031,4.031,0,0,0,.164-1.308v-.763H97.789a6.4,6.4,0,0,0-1.261.086.746.746,0,0,0-.529.389,2.4,2.4,0,0,0-.156,1.02,1.874,1.874,0,0,0,.156.864.9.9,0,0,0,.568.413A4.508,4.508,0,0,0,97.789,272.385Zm10.6,1.651a3.679,3.679,0,0,1-1.822-.389,2.283,2.283,0,0,1-1-1.238,6.474,6.474,0,0,1-.319-2.234v-4.516h-1.931v-1.651h1.931v-2.647h1.791v2.647h3.223v1.651h-3.223v4.516a5.6,5.6,0,0,0,.125,1.347,1.107,1.107,0,0,0,.413.67,1.452,1.452,0,0,0,.817.195,3.167,3.167,0,0,0,.833-.078.616.616,0,0,0,.374-.28,3.844,3.844,0,0,0,.272-.7l1.682.576a3.57,3.57,0,0,1-.607,1.269,2.082,2.082,0,0,1-.973.662A5.063,5.063,0,0,1,108.393,274.035Zm8.377-1.651a2.567,2.567,0,0,0,1.331-.319,3.954,3.954,0,0,0,1.113-1.129l1.433.95A5.133,5.133,0,0,1,119,273.568a4.57,4.57,0,0,1-2.234.467,5.338,5.338,0,0,1-2.468-.467,2.668,2.668,0,0,1-1.261-1.542,12.151,12.151,0,0,1,0-6.042,2.668,2.668,0,0,1,1.261-1.542,5.338,5.338,0,0,1,2.468-.467,4.819,4.819,0,0,1,2.421.506,2.845,2.845,0,0,1,1.238,1.689,11.509,11.509,0,0,1,.374,3.317h-6.337a5.8,5.8,0,0,0,.28,1.728,1.638,1.638,0,0,0,.716.9A2.665,2.665,0,0,0,116.77,272.385Zm0-6.758a2.333,2.333,0,0,0-1.651.49,2.669,2.669,0,0,0-.623,1.721h4.469a3.5,3.5,0,0,0-.2-1.331,1.239,1.239,0,0,0-.677-.677A3.445,3.445,0,0,0,116.77,265.627Zm19.947-1.433v7.972h2.725v1.651H132.2v-1.651h2.725v-6.322h-1.962v-1.651Zm-1.23-1.4a1.57,1.57,0,0,1-1.067-.272,1.895,1.895,0,0,1,0-2.009,1.57,1.57,0,0,1,1.067-.272,1.6,1.6,0,0,1,1.074.272,1.853,1.853,0,0,1,0,2.009A1.6,1.6,0,0,1,135.487,262.793Zm8.876,11.242a3.871,3.871,0,0,1-2.048-.467,4.044,4.044,0,0,1-1.362-1.651l1.417-1.168a6.575,6.575,0,0,0,.537,1.043,1.23,1.23,0,0,0,.553.459,2.476,2.476,0,0,0,.9.132,7.822,7.822,0,0,0,1.619-.125,1.2,1.2,0,0,0,.747-.413,1.441,1.441,0,0,0,.2-.833,1.487,1.487,0,0,0-.163-.794,1.007,1.007,0,0,0-.584-.374,9.984,9.984,0,0,0-1.417-.249,6.133,6.133,0,0,1-2.725-.833,2.164,2.164,0,0,1-.841-1.892,3.159,3.159,0,0,1,.389-1.674,2.263,2.263,0,0,1,1.246-.926,7.263,7.263,0,0,1,2.3-.3,4.613,4.613,0,0,1,2.133.4,3.761,3.761,0,0,1,1.386,1.433l-1.308,1.277a5.735,5.735,0,0,0-.592-.934,1.313,1.313,0,0,0-.607-.413,3.416,3.416,0,0,0-1.012-.117,6.241,6.241,0,0,0-1.347.109.98.98,0,0,0-.631.374,1.408,1.408,0,0,0-.171.763.761.761,0,0,0,.187.561,1.185,1.185,0,0,0,.561.28q.374.093,1.152.2a11,11,0,0,1,2.3.537,2.306,2.306,0,0,1,1.183.919,3.145,3.145,0,0,1,.366,1.643,3.183,3.183,0,0,1-.428,1.752,2.455,2.455,0,0,1-1.386.965A8.737,8.737,0,0,1,144.362,274.035Zm19.355,0a5.05,5.05,0,0,1-2.46-.506,2.876,2.876,0,0,1-1.3-1.6,10.99,10.99,0,0,1,0-5.855,2.859,2.859,0,0,1,1.316-1.6,5.222,5.222,0,0,1,2.507-.506,4.205,4.205,0,0,1,2.164.483,4.892,4.892,0,0,1,1.557,1.713l-1.495.888a6.341,6.341,0,0,0-.67-.9,1.531,1.531,0,0,0-.631-.413,3.77,3.77,0,0,0-2.414.187,1.653,1.653,0,0,0-.732,1.02,10.153,10.153,0,0,0,0,4.111,1.685,1.685,0,0,0,.708,1.02,2.812,2.812,0,0,0,1.448.3,2.918,2.918,0,0,0,.926-.125,1.735,1.735,0,0,0,.67-.428,6.156,6.156,0,0,0,.708-.911l1.479.9a5.071,5.071,0,0,1-1.6,1.728A4.285,4.285,0,0,1,163.717,274.035Zm8.813,0a6.345,6.345,0,0,1-2.2-.311,2.172,2.172,0,0,1-1.183-.973,3.654,3.654,0,0,1-.366-1.767,4.11,4.11,0,0,1,.366-1.923,2,2,0,0,1,1.168-.95,7.158,7.158,0,0,1,2.219-.273h1.962V267.5a2.5,2.5,0,0,0-.163-1.012.952.952,0,0,0-.584-.506,3.842,3.842,0,0,0-1.215-.148,2.9,2.9,0,0,0-1,.132,1,1,0,0,0-.529.475,4.554,4.554,0,0,0-.358,1.043l-1.713-.42a6.253,6.253,0,0,1,.7-1.775,2.549,2.549,0,0,1,1.121-.989,4.293,4.293,0,0,1,1.775-.319,3.987,3.987,0,0,1,2.888.864,3.615,3.615,0,0,1,.864,2.655v3.644a1.843,1.843,0,0,0,.125.841.578.578,0,0,0,.529.2q.125,0,.561-.031V273.8q-.187.016-.514.016a2.323,2.323,0,0,1-1.869-.623,2.357,2.357,0,0,1-1.043.646A5.234,5.234,0,0,1,172.531,274.035Zm0-1.651a3.1,3.1,0,0,0,1.215-.187,1.062,1.062,0,0,0,.584-.638,4.031,4.031,0,0,0,.163-1.308v-.763h-1.962a6.4,6.4,0,0,0-1.261.086.746.746,0,0,0-.529.389,2.4,2.4,0,0,0-.156,1.02,1.874,1.874,0,0,0,.156.864.9.9,0,0,0,.568.413A4.508,4.508,0,0,0,172.531,272.385Zm11.2,1.651a3.575,3.575,0,0,1-1.689-.327,1.847,1.847,0,0,1-.856-1.09,7.028,7.028,0,0,1-.257-2.149v-7.459h-1.962v-1.651h3.753v9.109a3.562,3.562,0,0,0,.218,1.5.817.817,0,0,0,.794.413,1.2,1.2,0,0,0,.6-.187,7.313,7.313,0,0,0,.9-.67l1,1.526a4.774,4.774,0,0,1-1.222.771A3.476,3.476,0,0,1,183.726,274.035Zm9.343,0a3.575,3.575,0,0,1-1.689-.327,1.847,1.847,0,0,1-.856-1.09,7.028,7.028,0,0,1-.257-2.149v-7.459H188.3v-1.651h3.753v9.109a3.562,3.562,0,0,0,.218,1.5.817.817,0,0,0,.794.413,1.2,1.2,0,0,0,.6-.187,7.313,7.313,0,0,0,.9-.67l1,1.526a4.774,4.774,0,0,1-1.222.771A3.476,3.476,0,0,1,193.069,274.035Zm7.786-1.651a2.567,2.567,0,0,0,1.331-.319,3.954,3.954,0,0,0,1.113-1.129l1.433.95a5.134,5.134,0,0,1-1.643,1.682,4.569,4.569,0,0,1-2.234.467,5.337,5.337,0,0,1-2.468-.467,2.668,2.668,0,0,1-1.261-1.542,12.151,12.151,0,0,1,0-6.042,2.668,2.668,0,0,1,1.261-1.542,5.338,5.338,0,0,1,2.468-.467,4.819,4.819,0,0,1,2.421.506,2.845,2.845,0,0,1,1.238,1.689,11.509,11.509,0,0,1,.374,3.317H198.55a5.8,5.8,0,0,0,.28,1.728,1.638,1.638,0,0,0,.716.9A2.665,2.665,0,0,0,200.854,272.385Zm0-6.758a2.333,2.333,0,0,0-1.651.49,2.669,2.669,0,0,0-.623,1.721h4.469a3.5,3.5,0,0,0-.2-1.331,1.239,1.239,0,0,0-.677-.677A3.445,3.445,0,0,0,200.854,265.627Zm9.218,8.408a4.384,4.384,0,0,1-2.281-.506,2.836,2.836,0,0,1-1.2-1.6,11.83,11.83,0,0,1,0-5.839,2.873,2.873,0,0,1,1.2-1.6,4.33,4.33,0,0,1,2.281-.514,5.811,5.811,0,0,1,2.087.374v-2.99h1.791v12.457h-1.791v-.109A6.115,6.115,0,0,1,210.072,274.035Zm0-1.651a3.877,3.877,0,0,0,1.58-.241.738.738,0,0,0,.506-.662v-3.675a2.367,2.367,0,0,0-.49-1.651,2.089,2.089,0,0,0-1.6-.529,2.123,2.123,0,0,0-1.246.311,1.752,1.752,0,0,0-.623,1.035,8.643,8.643,0,0,0-.187,2.048,8.54,8.54,0,0,0,.187,2.04,1.71,1.71,0,0,0,.623,1.02A2.165,2.165,0,0,0,210.072,272.385Zm18.763,1.651a4.33,4.33,0,0,1-2.281-.514,2.872,2.872,0,0,1-1.2-1.6,11.768,11.768,0,0,1,0-5.824,2.872,2.872,0,0,1,1.2-1.6,5.338,5.338,0,0,1,4.57,0,2.861,2.861,0,0,1,1.207,1.6,11.768,11.768,0,0,1,0,5.824,2.861,2.861,0,0,1-1.207,1.6A4.373,4.373,0,0,1,228.836,274.035Zm0-1.651a2.2,2.2,0,0,0,1.253-.3,1.7,1.7,0,0,0,.631-1.028,11.312,11.312,0,0,0,0-4.1,1.7,1.7,0,0,0-.631-1.028,2.2,2.2,0,0,0-1.253-.3,2.165,2.165,0,0,0-1.246.3,1.715,1.715,0,0,0-.623,1.028,11.312,11.312,0,0,0,0,4.1,1.715,1.715,0,0,0,.623,1.028A2.165,2.165,0,0,0,228.836,272.385Zm5.7,1.433v-9.623h1.791v.234a5.425,5.425,0,0,1,2.289-.452,4.631,4.631,0,0,1,2.048.366,2.108,2.108,0,0,1,1.035,1.23,7.482,7.482,0,0,1,.311,2.437v5.808H240.2v-5.808a5.405,5.405,0,0,0-.148-1.44,1.233,1.233,0,0,0-.483-.724,1.755,1.755,0,0,0-.958-.218,4.531,4.531,0,0,0-1.487.179,1.027,1.027,0,0,0-.638.631,4.421,4.421,0,0,0-.164,1.4v5.979Zm13.267.218a5.05,5.05,0,0,1-2.46-.506,2.876,2.876,0,0,1-1.3-1.6,10.99,10.99,0,0,1,0-5.855,2.859,2.859,0,0,1,1.316-1.6,5.222,5.222,0,0,1,2.507-.506,4.206,4.206,0,0,1,2.164.483,4.892,4.892,0,0,1,1.557,1.713l-1.495.888a6.341,6.341,0,0,0-.67-.9,1.531,1.531,0,0,0-.631-.413,3.77,3.77,0,0,0-2.414.187,1.653,1.653,0,0,0-.732,1.02,10.154,10.154,0,0,0,0,4.111,1.685,1.685,0,0,0,.708,1.02,2.812,2.812,0,0,0,1.448.3,2.918,2.918,0,0,0,.926-.125,1.735,1.735,0,0,0,.67-.428,6.156,6.156,0,0,0,.708-.911l1.479.9a5.071,5.071,0,0,1-1.6,1.728A4.285,4.285,0,0,1,247.8,274.035Zm9.109-1.651a2.567,2.567,0,0,0,1.331-.319,3.954,3.954,0,0,0,1.113-1.129l1.433.95a5.133,5.133,0,0,1-1.643,1.682,4.57,4.57,0,0,1-2.234.467,5.337,5.337,0,0,1-2.468-.467,2.668,2.668,0,0,1-1.261-1.542,12.151,12.151,0,0,1,0-6.042,2.668,2.668,0,0,1,1.261-1.542,5.338,5.338,0,0,1,2.468-.467,4.819,4.819,0,0,1,2.421.506,2.845,2.845,0,0,1,1.238,1.689,11.51,11.51,0,0,1,.374,3.317h-6.337a5.8,5.8,0,0,0,.28,1.728,1.638,1.638,0,0,0,.716.9A2.665,2.665,0,0,0,256.91,272.385Zm0-6.758a2.333,2.333,0,0,0-1.651.49,2.669,2.669,0,0,0-.623,1.721h4.469a3.5,3.5,0,0,0-.2-1.331,1.239,1.239,0,0,0-.677-.677A3.445,3.445,0,0,0,256.91,265.627Zm14.87,11.024V264.195h1.806v.093a6.341,6.341,0,0,1,2.071-.311,4.428,4.428,0,0,1,2.289.506,2.825,2.825,0,0,1,1.207,1.6,11.8,11.8,0,0,1,0,5.831,2.861,2.861,0,0,1-1.207,1.612,4.373,4.373,0,0,1-2.289.514,5.686,5.686,0,0,1-2.071-.374v2.99Zm3.877-4.266a2.161,2.161,0,0,0,1.253-.311,1.735,1.735,0,0,0,.631-1.035,8.643,8.643,0,0,0,.187-2.048,8.54,8.54,0,0,0-.187-2.04,1.693,1.693,0,0,0-.631-1.02,2.2,2.2,0,0,0-1.253-.3q-2.071,0-2.071.9V270.2a2.393,2.393,0,0,0,.483,1.651A2.062,2.062,0,0,0,275.658,272.385Zm9.28,0a2.567,2.567,0,0,0,1.331-.319,3.954,3.954,0,0,0,1.113-1.129l1.433.95a5.133,5.133,0,0,1-1.643,1.682,4.569,4.569,0,0,1-2.234.467,5.338,5.338,0,0,1-2.468-.467,2.668,2.668,0,0,1-1.261-1.542,12.15,12.15,0,0,1,0-6.042,2.668,2.668,0,0,1,1.261-1.542,5.338,5.338,0,0,1,2.468-.467,4.819,4.819,0,0,1,2.421.506,2.846,2.846,0,0,1,1.238,1.689,11.508,11.508,0,0,1,.374,3.317h-6.337a5.8,5.8,0,0,0,.28,1.728,1.638,1.638,0,0,0,.716.9A2.665,2.665,0,0,0,284.938,272.385Zm0-6.758a2.333,2.333,0,0,0-1.651.49,2.669,2.669,0,0,0-.623,1.721h4.469a3.5,3.5,0,0,0-.2-1.331,1.239,1.239,0,0,0-.677-.677A3.444,3.444,0,0,0,284.938,265.627Zm6.073,8.19v-9.623H292.8v.794a3.423,3.423,0,0,1,.965-.708,2.756,2.756,0,0,1,1.277-.3,3.987,3.987,0,0,1,1.495.241,2.5,2.5,0,0,1,1.02.779,5.26,5.26,0,0,1,.771,1.487l-1.6.732a5.58,5.58,0,0,0-.4-1.012,1.017,1.017,0,0,0-.475-.452,2.075,2.075,0,0,0-.8-.125,1.87,1.87,0,0,0-1.728.833,4.655,4.655,0,0,0-.514,2.421v4.936ZM314.2,261.143a5.8,5.8,0,0,1,1.689.2,2.121,2.121,0,0,1,1.028.662,3.323,3.323,0,0,1,.6,1.269l-1.682.576a2.468,2.468,0,0,0-.257-.685.728.728,0,0,0-.428-.288,3.757,3.757,0,0,0-.95-.086,2.536,2.536,0,0,0-1.043.164.934.934,0,0,0-.483.576,4.168,4.168,0,0,0-.14,1.253v.9H315.3v1.651H312.53v6.478H310.74V267.34h-1.931v-1.651h1.931v-.9a5.586,5.586,0,0,1,.335-2.141,2.157,2.157,0,0,1,1.09-1.144A4.8,4.8,0,0,1,314.2,261.143Zm4.843,12.675v-9.623h1.791v.794a3.423,3.423,0,0,1,.965-.708,2.756,2.756,0,0,1,1.277-.3,3.987,3.987,0,0,1,1.495.241,2.5,2.5,0,0,1,1.02.779,5.26,5.26,0,0,1,.771,1.487l-1.6.732a5.58,5.58,0,0,0-.4-1.012,1.017,1.017,0,0,0-.475-.452,2.075,2.075,0,0,0-.8-.125,1.87,1.87,0,0,0-1.728.833,4.655,4.655,0,0,0-.514,2.421v4.936Zm12.317.218a6.346,6.346,0,0,1-2.2-.311,2.172,2.172,0,0,1-1.183-.973,3.654,3.654,0,0,1-.366-1.767,4.11,4.11,0,0,1,.366-1.923,2,2,0,0,1,1.168-.95,7.158,7.158,0,0,1,2.219-.273h1.962V267.5a2.5,2.5,0,0,0-.163-1.012.953.953,0,0,0-.584-.506,3.842,3.842,0,0,0-1.215-.148,2.9,2.9,0,0,0-1,.132,1,1,0,0,0-.529.475,4.555,4.555,0,0,0-.358,1.043l-1.713-.42a6.253,6.253,0,0,1,.7-1.775,2.549,2.549,0,0,1,1.121-.989,4.293,4.293,0,0,1,1.775-.319,3.987,3.987,0,0,1,2.888.864,3.615,3.615,0,0,1,.864,2.655v3.644a1.843,1.843,0,0,0,.125.841.578.578,0,0,0,.529.2q.125,0,.561-.031V273.8q-.187.016-.514.016a2.323,2.323,0,0,1-1.869-.623,2.357,2.357,0,0,1-1.043.646A5.234,5.234,0,0,1,331.356,274.035Zm0-1.651a3.1,3.1,0,0,0,1.215-.187,1.062,1.062,0,0,0,.584-.638,4.032,4.032,0,0,0,.163-1.308v-.763h-1.962a6.4,6.4,0,0,0-1.261.086.746.746,0,0,0-.529.389,2.4,2.4,0,0,0-.156,1.02,1.873,1.873,0,0,0,.156.864.9.9,0,0,0,.568.413A4.508,4.508,0,0,0,331.356,272.385Zm5.294,1.433v-9.623h1.791v-.062q.125-.031.467-.093a3.439,3.439,0,0,1,.607-.062,2.2,2.2,0,0,1,.965.171,1.829,1.829,0,0,1,.654.623,2.034,2.034,0,0,1,1.775-.794,2.3,2.3,0,0,1,1.4.374,2.131,2.131,0,0,1,.716,1.23,10.138,10.138,0,0,1,.218,2.382v5.855h-1.791v-5.855a8.3,8.3,0,0,0-.117-1.705q-.117-.475-.428-.475a.852.852,0,0,0-.833.436,3.782,3.782,0,0,0-.226,1.573v6.026H340.06v-5.761a8.483,8.483,0,0,0-.125-1.767q-.125-.506-.42-.506a.869.869,0,0,0-.841.436,3.668,3.668,0,0,0-.234,1.573v6.026Zm13.687-1.433a2.567,2.567,0,0,0,1.331-.319,3.954,3.954,0,0,0,1.113-1.129l1.433.95a5.133,5.133,0,0,1-1.643,1.682,4.569,4.569,0,0,1-2.234.467,5.337,5.337,0,0,1-2.468-.467,2.668,2.668,0,0,1-1.261-1.542,12.15,12.15,0,0,1,0-6.042,2.668,2.668,0,0,1,1.261-1.542,5.338,5.338,0,0,1,2.468-.467,4.819,4.819,0,0,1,2.421.506A2.846,2.846,0,0,1,354,266.172a11.51,11.51,0,0,1,.374,3.317h-6.337a5.8,5.8,0,0,0,.28,1.728,1.638,1.638,0,0,0,.716.9A2.665,2.665,0,0,0,350.337,272.385Zm0-6.758a2.333,2.333,0,0,0-1.651.49,2.669,2.669,0,0,0-.623,1.721h4.469a3.5,3.5,0,0,0-.2-1.331,1.239,1.239,0,0,0-.677-.677A3.444,3.444,0,0,0,350.337,265.627ZM42.777,299.51H41.157L37.7,289.887h1.853l2.414,6.96,2.46-6.96h1.837Zm8.549.218a4.33,4.33,0,0,1-2.281-.514,2.873,2.873,0,0,1-1.2-1.6,11.768,11.768,0,0,1,0-5.824,2.873,2.873,0,0,1,1.2-1.6,5.338,5.338,0,0,1,4.57,0,2.861,2.861,0,0,1,1.207,1.6,11.768,11.768,0,0,1,0,5.824,2.861,2.861,0,0,1-1.207,1.6A4.373,4.373,0,0,1,51.325,299.728Zm0-1.651a2.2,2.2,0,0,0,1.253-.3,1.7,1.7,0,0,0,.631-1.028,11.313,11.313,0,0,0,0-4.1,1.7,1.7,0,0,0-.631-1.028,2.2,2.2,0,0,0-1.253-.3,2.165,2.165,0,0,0-1.246.3,1.715,1.715,0,0,0-.623,1.028,11.313,11.313,0,0,0,0,4.1,1.715,1.715,0,0,0,.623,1.028A2.165,2.165,0,0,0,51.325,298.077Zm10.651-8.19v7.972H64.7v1.651H57.46v-1.651h2.725v-6.322H58.223v-1.651Zm-1.23-1.4a1.57,1.57,0,0,1-1.067-.272,1.895,1.895,0,0,1,0-2.009,1.57,1.57,0,0,1,1.067-.272,1.6,1.6,0,0,1,1.074.272,1.853,1.853,0,0,1,0,2.009A1.6,1.6,0,0,1,60.746,288.485Zm9.187,11.242a4.384,4.384,0,0,1-2.281-.506,2.836,2.836,0,0,1-1.2-1.6,11.83,11.83,0,0,1,0-5.839,2.873,2.873,0,0,1,1.2-1.6,4.331,4.331,0,0,1,2.281-.514,5.811,5.811,0,0,1,2.087.374v-2.99H73.81V299.51H72.019V299.4A6.114,6.114,0,0,1,69.933,299.728Zm0-1.651a3.877,3.877,0,0,0,1.58-.241.738.738,0,0,0,.506-.662V293.5a2.368,2.368,0,0,0-.49-1.651,2.089,2.089,0,0,0-1.6-.529,2.123,2.123,0,0,0-1.246.311,1.752,1.752,0,0,0-.623,1.035,8.643,8.643,0,0,0-.187,2.048,8.54,8.54,0,0,0,.187,2.04,1.709,1.709,0,0,0,.623,1.02A2.165,2.165,0,0,0,69.933,298.077ZM88.7,299.728a4.317,4.317,0,0,1-2.25-.5,2.825,2.825,0,0,1-1.183-1.6,9.614,9.614,0,0,1-.366-2.951v-7.63h1.791v7.63a9.189,9.189,0,0,0,.179,2.079,1.665,1.665,0,0,0,.607,1.02,2.137,2.137,0,0,0,1.222.3,2.176,2.176,0,0,0,1.23-.3,1.648,1.648,0,0,0,.615-1.02,9.189,9.189,0,0,0,.179-2.079v-7.63h1.791v7.63a9.615,9.615,0,0,1-.366,2.951,2.813,2.813,0,0,1-1.191,1.6A4.36,4.36,0,0,1,88.7,299.728Zm5.574,2.616V289.887h1.806v.093a6.341,6.341,0,0,1,2.071-.311,4.428,4.428,0,0,1,2.289.506,2.825,2.825,0,0,1,1.207,1.6,11.8,11.8,0,0,1,0,5.831,2.862,2.862,0,0,1-1.207,1.612,4.373,4.373,0,0,1-2.289.514,5.687,5.687,0,0,1-2.071-.374v2.99Zm3.877-4.266a2.161,2.161,0,0,0,1.253-.311,1.735,1.735,0,0,0,.631-1.035,8.644,8.644,0,0,0,.187-2.048,8.541,8.541,0,0,0-.187-2.04,1.693,1.693,0,0,0-.631-1.02,2.2,2.2,0,0,0-1.253-.3q-2.071,0-2.071.9V295.9a2.393,2.393,0,0,0,.483,1.651A2.062,2.062,0,0,0,98.147,298.077Zm9.156,1.651a4.384,4.384,0,0,1-2.281-.506,2.836,2.836,0,0,1-1.2-1.6,11.83,11.83,0,0,1,0-5.839,2.873,2.873,0,0,1,1.2-1.6,4.331,4.331,0,0,1,2.281-.514,5.811,5.811,0,0,1,2.087.374v-2.99h1.791V299.51H109.39V299.4A6.114,6.114,0,0,1,107.3,299.728Zm0-1.651a3.877,3.877,0,0,0,1.58-.241.738.738,0,0,0,.506-.662V293.5a2.368,2.368,0,0,0-.49-1.651,2.089,2.089,0,0,0-1.6-.529,2.123,2.123,0,0,0-1.246.311,1.752,1.752,0,0,0-.623,1.035,8.643,8.643,0,0,0-.187,2.048,8.54,8.54,0,0,0,.187,2.04,1.709,1.709,0,0,0,.623,1.02A2.165,2.165,0,0,0,107.3,298.077Zm9.171,1.651a6.346,6.346,0,0,1-2.2-.311,2.172,2.172,0,0,1-1.183-.973,3.654,3.654,0,0,1-.366-1.767,4.11,4.11,0,0,1,.366-1.923,2,2,0,0,1,1.168-.95,7.158,7.158,0,0,1,2.219-.272h1.962v-.343a2.5,2.5,0,0,0-.164-1.012.952.952,0,0,0-.584-.506,3.841,3.841,0,0,0-1.215-.148,2.9,2.9,0,0,0-1,.132,1,1,0,0,0-.529.475,4.554,4.554,0,0,0-.358,1.043l-1.713-.42a6.253,6.253,0,0,1,.7-1.775,2.549,2.549,0,0,1,1.121-.989,4.293,4.293,0,0,1,1.775-.319,3.987,3.987,0,0,1,2.888.864,3.616,3.616,0,0,1,.864,2.655v3.644a1.843,1.843,0,0,0,.125.841.578.578,0,0,0,.529.2q.125,0,.561-.031v1.651q-.187.016-.514.016a2.323,2.323,0,0,1-1.869-.623,2.357,2.357,0,0,1-1.043.646A5.234,5.234,0,0,1,116.475,299.728Zm0-1.651a3.1,3.1,0,0,0,1.215-.187,1.062,1.062,0,0,0,.584-.638,4.031,4.031,0,0,0,.164-1.308v-.763h-1.962a6.394,6.394,0,0,0-1.261.086.746.746,0,0,0-.529.389,2.4,2.4,0,0,0-.156,1.02,1.873,1.873,0,0,0,.156.864.9.9,0,0,0,.568.413A4.508,4.508,0,0,0,116.475,298.077Zm10.6,1.651a3.679,3.679,0,0,1-1.822-.389,2.284,2.284,0,0,1-1-1.238,6.473,6.473,0,0,1-.319-2.234v-4.516H122V289.7h1.931v-2.647h1.791V289.7h3.223v1.651h-3.223v4.516a5.6,5.6,0,0,0,.125,1.347,1.107,1.107,0,0,0,.413.67,1.453,1.453,0,0,0,.817.195,3.166,3.166,0,0,0,.833-.078.616.616,0,0,0,.374-.28,3.846,3.846,0,0,0,.273-.7l1.682.576a3.57,3.57,0,0,1-.607,1.269,2.082,2.082,0,0,1-.973.662A5.061,5.061,0,0,1,127.079,299.728Zm8.377-1.651a2.567,2.567,0,0,0,1.331-.319,3.954,3.954,0,0,0,1.113-1.129l1.433.95a5.134,5.134,0,0,1-1.643,1.682,4.57,4.57,0,0,1-2.234.467,5.338,5.338,0,0,1-2.468-.467,2.668,2.668,0,0,1-1.261-1.542,12.15,12.15,0,0,1,0-6.042,2.668,2.668,0,0,1,1.261-1.542,5.338,5.338,0,0,1,2.468-.467,4.819,4.819,0,0,1,2.421.506,2.845,2.845,0,0,1,1.238,1.689,11.509,11.509,0,0,1,.374,3.317h-6.337a5.8,5.8,0,0,0,.28,1.728,1.638,1.638,0,0,0,.716.9A2.666,2.666,0,0,0,135.456,298.077Zm0-6.758a2.333,2.333,0,0,0-1.651.49,2.669,2.669,0,0,0-.623,1.721h4.469a3.5,3.5,0,0,0-.2-1.331,1.239,1.239,0,0,0-.677-.677A3.444,3.444,0,0,0,135.456,291.319Zm21.332,10.448a4.042,4.042,0,0,1-2.756-1.059,6.794,6.794,0,0,1-1.853-2.982,15.437,15.437,0,0,1,0-8.891,6.794,6.794,0,0,1,1.853-2.982,4.042,4.042,0,0,1,2.756-1.059v1.651a2.409,2.409,0,0,0-1.814.849,5.783,5.783,0,0,0-1.222,2.4,14.991,14.991,0,0,0,0,7.178,5.783,5.783,0,0,0,1.222,2.4,2.409,2.409,0,0,0,1.814.849Zm3.971-1.651a2.409,2.409,0,0,0,1.814-.849,5.783,5.783,0,0,0,1.222-2.4,14.991,14.991,0,0,0,0-7.178,5.783,5.783,0,0,0-1.222-2.4,2.409,2.409,0,0,0-1.814-.849V284.8a4.042,4.042,0,0,1,2.756,1.059,6.794,6.794,0,0,1,1.853,2.982,15.436,15.436,0,0,1,0,8.891,6.794,6.794,0,0,1-1.853,2.982,4.042,4.042,0,0,1-2.756,1.059Zm24.633,1.651a5.533,5.533,0,0,1-3.348-.8A3.027,3.027,0,0,1,181,298.4a8.38,8.38,0,0,1,.156-1.4,8.192,8.192,0,0,0,.125-1.059,1.741,1.741,0,0,0-.545-.9q-.545-.607-1.775-1.76,1.23-1.183,1.775-1.791a1.72,1.72,0,0,0,.545-.934,6.335,6.335,0,0,0-.125-.95,7.692,7.692,0,0,1-.156-1.433,3.05,3.05,0,0,1,1.043-2.569,5.492,5.492,0,0,1,3.348-.81v1.666a5.813,5.813,0,0,0-1.557.163,1.381,1.381,0,0,0-.81.545,1.942,1.942,0,0,0-.249,1.067,5.21,5.21,0,0,0,.156,1.2,4.072,4.072,0,0,1,.14.965,2.764,2.764,0,0,1-.42,1.456,5.773,5.773,0,0,1-1.324,1.425,5.539,5.539,0,0,1,1.331,1.386,2.684,2.684,0,0,1,.413,1.433,4.857,4.857,0,0,1-.125.95,6.2,6.2,0,0,0-.156,1.308,1.916,1.916,0,0,0,.241,1.043,1.359,1.359,0,0,0,.8.537,5.811,5.811,0,0,0,1.557.164ZM38.713,351.486a5.81,5.81,0,0,0,1.557-.164,1.4,1.4,0,0,0,.81-.537,1.868,1.868,0,0,0,.249-1.043,6.2,6.2,0,0,0-.156-1.308,4.857,4.857,0,0,1-.125-.95,2.722,2.722,0,0,1,.4-1.433,5.4,5.4,0,0,1,1.324-1.386,5.424,5.424,0,0,1-1.316-1.409,2.83,2.83,0,0,1-.413-1.471,4.073,4.073,0,0,1,.14-.965,5.21,5.21,0,0,0,.156-1.2,1.942,1.942,0,0,0-.249-1.067,1.385,1.385,0,0,0-.817-.545,5.9,5.9,0,0,0-1.565-.163V336.18a5.529,5.529,0,0,1,3.356.81,3.039,3.039,0,0,1,1.051,2.569,7.692,7.692,0,0,1-.156,1.433,6.335,6.335,0,0,0-.125.95,1.781,1.781,0,0,0,.545.95q.545.623,1.76,1.775-1.2,1.121-1.752,1.744a1.8,1.8,0,0,0-.553.919,8.191,8.191,0,0,0,.125,1.059,8.38,8.38,0,0,1,.156,1.4,3.016,3.016,0,0,1-1.051,2.561,5.571,5.571,0,0,1-3.356.8ZM1.342,377.178a5.811,5.811,0,0,0,1.557-.164,1.4,1.4,0,0,0,.81-.537,1.868,1.868,0,0,0,.249-1.043,6.2,6.2,0,0,0-.156-1.308,4.857,4.857,0,0,1-.125-.95,2.722,2.722,0,0,1,.4-1.433,5.4,5.4,0,0,1,1.324-1.386,5.423,5.423,0,0,1-1.316-1.409,2.83,2.83,0,0,1-.413-1.471,4.073,4.073,0,0,1,.14-.965,5.209,5.209,0,0,0,.156-1.2,1.942,1.942,0,0,0-.249-1.067,1.384,1.384,0,0,0-.817-.545,5.9,5.9,0,0,0-1.565-.163v-1.666a5.529,5.529,0,0,1,3.356.81,3.039,3.039,0,0,1,1.051,2.569,7.692,7.692,0,0,1-.156,1.433,6.335,6.335,0,0,0-.125.95,1.781,1.781,0,0,0,.545.95q.545.623,1.76,1.775-1.2,1.121-1.752,1.744a1.8,1.8,0,0,0-.553.919,8.19,8.19,0,0,0,.125,1.059,8.38,8.38,0,0,1,.156,1.4A3.016,3.016,0,0,1,4.7,378.043a5.571,5.571,0,0,1-3.356.8Z" transform="translate(609.156 3511.684)" fill="#12263f"/>
  </g>
</svg>
