<svg xmlns="http://www.w3.org/2000/svg" width="610" height="227" viewBox="0 0 610 227">
  <g id="Grupo_168050" data-name="Grupo 168050" transform="translate(-495 -4736)">
    <g id="Rectángulo_342111" data-name="Rectángulo 342111" transform="translate(495 4736)" fill="#8979f3" stroke="#707070" stroke-width="1" opacity="0.25">
      <rect width="610" height="227" rx="25" stroke="none"/>
      <rect x="0.5" y="0.5" width="609" height="226" rx="24.5" fill="none"/>
    </g>
    <path id="Trazado_688350" data-name="Trazado 688350" d="M.844,19.424V7.236H2.611v.091a6.2,6.2,0,0,1,2.026-.3,4.332,4.332,0,0,1,2.239.5A2.764,2.764,0,0,1,8.057,9.08a9.206,9.206,0,0,1,.358,2.849,9.282,9.282,0,0,1-.358,2.856,2.8,2.8,0,0,1-1.181,1.577,4.279,4.279,0,0,1-2.239.5A5.564,5.564,0,0,1,2.611,16.5v2.925Zm3.793-4.174a2.114,2.114,0,0,0,1.226-.3,1.7,1.7,0,0,0,.617-1.013,8.456,8.456,0,0,0,.183-2,8.356,8.356,0,0,0-.183-2,1.656,1.656,0,0,0-.617-1,2.156,2.156,0,0,0-1.226-.3q-2.026,0-2.026.884v3.6a2.342,2.342,0,0,0,.472,1.615A2.018,2.018,0,0,0,4.637,15.249Zm8.775,1.615a4.256,4.256,0,0,1-1.95-.373,2.18,2.18,0,0,1-1.036-1.211,6.588,6.588,0,0,1-.32-2.285V7.236h1.752v5.759a5.756,5.756,0,0,0,.129,1.417,1.008,1.008,0,0,0,.457.655,2.031,2.031,0,0,0,.967.183,4.843,4.843,0,0,0,1.409-.152,1.027,1.027,0,0,0,.647-.541,2.807,2.807,0,0,0,.183-1.15V7.236h1.767v9.415H15.651V16.5A5.487,5.487,0,0,1,13.412,16.864Zm9.582,0a5.431,5.431,0,0,1-2.156-.358,4.007,4.007,0,0,1-1.516-1.257V4.464h1.752V7.358a5.369,5.369,0,0,1,1.92-.335,4.052,4.052,0,0,1,2.171.5,2.8,2.8,0,0,1,1.15,1.569,9.457,9.457,0,0,1,.35,2.864,9.393,9.393,0,0,1-.35,2.849,2.765,2.765,0,0,1-1.15,1.562A4.1,4.1,0,0,1,22.994,16.864Zm0-1.615a1.952,1.952,0,0,0,1.158-.3,1.677,1.677,0,0,0,.587-1,8.707,8.707,0,0,0,.175-2,8.812,8.812,0,0,0-.175-2,1.72,1.72,0,0,0-.587-1.013,1.915,1.915,0,0,0-1.158-.3,3.14,3.14,0,0,0-1.2.175,1.016,1.016,0,0,0-.564.632,4.348,4.348,0,0,0-.16,1.356v3.885a1.922,1.922,0,0,0,.762.449A4.439,4.439,0,0,0,22.994,15.249Zm10.527,1.615a3.5,3.5,0,0,1-1.653-.32,1.807,1.807,0,0,1-.838-1.066,6.876,6.876,0,0,1-.251-2.1v-7.3H28.86V4.464h3.671v8.912a3.485,3.485,0,0,0,.213,1.47.8.8,0,0,0,.777.4,1.171,1.171,0,0,0,.587-.183,7.156,7.156,0,0,0,.876-.655l.975,1.493a4.67,4.67,0,0,1-1.2.754A3.4,3.4,0,0,1,33.521,16.864Zm8.851-9.628v7.8h2.666v1.615H37.954V15.036H40.62V8.851H38.7V7.236Zm-1.2-1.371A1.536,1.536,0,0,1,40.125,5.6a1.336,1.336,0,0,1-.282-.983,1.336,1.336,0,0,1,.282-.983,1.536,1.536,0,0,1,1.044-.267,1.569,1.569,0,0,1,1.051.267,1.312,1.312,0,0,1,.289.983,1.312,1.312,0,0,1-.289.983A1.569,1.569,0,0,1,41.169,5.865Zm9.339,11a4.941,4.941,0,0,1-2.407-.5,2.814,2.814,0,0,1-1.272-1.562,8.589,8.589,0,0,1-.388-2.864,8.589,8.589,0,0,1,.388-2.864,2.8,2.8,0,0,1,1.287-1.562,5.109,5.109,0,0,1,2.453-.5,4.115,4.115,0,0,1,2.118.472,4.786,4.786,0,0,1,1.523,1.676l-1.462.868a6.2,6.2,0,0,0-.655-.884,1.5,1.5,0,0,0-.617-.4,3.689,3.689,0,0,0-2.361.183,1.617,1.617,0,0,0-.716,1,7.538,7.538,0,0,0-.206,2.011,7.538,7.538,0,0,0,.206,2.011,1.649,1.649,0,0,0,.693,1,2.751,2.751,0,0,0,1.417.3,2.855,2.855,0,0,0,.906-.122,1.7,1.7,0,0,0,.655-.419,6.024,6.024,0,0,0,.693-.891l1.447.884a4.961,4.961,0,0,1-1.562,1.691A4.193,4.193,0,0,1,50.507,16.864Zm18.281,0a4.941,4.941,0,0,1-2.407-.5,2.814,2.814,0,0,1-1.272-1.562,8.589,8.589,0,0,1-.388-2.864A8.589,8.589,0,0,1,65.11,9.08,2.8,2.8,0,0,1,66.4,7.518a5.109,5.109,0,0,1,2.453-.5,4.115,4.115,0,0,1,2.118.472,4.786,4.786,0,0,1,1.523,1.676l-1.462.868a6.2,6.2,0,0,0-.655-.884,1.5,1.5,0,0,0-.617-.4,3.689,3.689,0,0,0-2.361.183,1.617,1.617,0,0,0-.716,1,7.537,7.537,0,0,0-.206,2.011,7.537,7.537,0,0,0,.206,2.011,1.649,1.649,0,0,0,.693,1,2.751,2.751,0,0,0,1.417.3,2.855,2.855,0,0,0,.906-.122,1.7,1.7,0,0,0,.655-.419,6.025,6.025,0,0,0,.693-.891l1.447.884a4.961,4.961,0,0,1-1.562,1.691A4.193,4.193,0,0,1,68.789,16.864Zm10.435,0a3.5,3.5,0,0,1-1.653-.32,1.807,1.807,0,0,1-.838-1.066,6.876,6.876,0,0,1-.251-2.1v-7.3h-1.92V4.464h3.671v8.912a3.485,3.485,0,0,0,.213,1.47.8.8,0,0,0,.777.4,1.171,1.171,0,0,0,.587-.183,7.157,7.157,0,0,0,.876-.655l.975,1.493a4.67,4.67,0,0,1-1.2.754A3.4,3.4,0,0,1,79.224,16.864Zm7.328,0a6.208,6.208,0,0,1-2.156-.3,2.125,2.125,0,0,1-1.158-.952,3.575,3.575,0,0,1-.358-1.729A4.021,4.021,0,0,1,83.238,12a1.952,1.952,0,0,1,1.143-.929,7,7,0,0,1,2.171-.267h1.92v-.335a2.45,2.45,0,0,0-.16-.99.932.932,0,0,0-.571-.5,3.759,3.759,0,0,0-1.188-.145,2.833,2.833,0,0,0-.975.129.982.982,0,0,0-.518.465,4.456,4.456,0,0,0-.35,1.021l-1.676-.411A6.118,6.118,0,0,1,83.718,8.3a2.494,2.494,0,0,1,1.1-.967,4.2,4.2,0,0,1,1.737-.312,3.9,3.9,0,0,1,2.826.846,3.537,3.537,0,0,1,.845,2.6v3.565a1.8,1.8,0,0,0,.122.823.566.566,0,0,0,.518.2q.122,0,.548-.03v1.615q-.183.015-.5.015a2.273,2.273,0,0,1-1.828-.609,2.306,2.306,0,0,1-1.021.632A5.121,5.121,0,0,1,86.552,16.864Zm0-1.615a3.031,3.031,0,0,0,1.188-.183,1.039,1.039,0,0,0,.571-.625,3.944,3.944,0,0,0,.16-1.28v-.746h-1.92a6.255,6.255,0,0,0-1.234.084.73.73,0,0,0-.518.381,2.353,2.353,0,0,0-.152,1,1.833,1.833,0,0,0,.152.846.882.882,0,0,0,.556.4A4.41,4.41,0,0,0,86.552,15.249Zm9,1.615a3.787,3.787,0,0,1-2-.457,3.957,3.957,0,0,1-1.333-1.615l1.386-1.143a6.436,6.436,0,0,0,.526,1.021,1.2,1.2,0,0,0,.541.449,2.423,2.423,0,0,0,.884.129,7.652,7.652,0,0,0,1.584-.122,1.175,1.175,0,0,0,.731-.4,1.41,1.41,0,0,0,.2-.815,1.455,1.455,0,0,0-.16-.777.985.985,0,0,0-.571-.366,9.768,9.768,0,0,0-1.386-.244,6,6,0,0,1-2.666-.815,2.117,2.117,0,0,1-.823-1.851,3.09,3.09,0,0,1,.381-1.638,2.214,2.214,0,0,1,1.219-.906,7.107,7.107,0,0,1,2.255-.289,4.513,4.513,0,0,1,2.087.4,3.679,3.679,0,0,1,1.356,1.4L98.48,10.07a5.611,5.611,0,0,0-.579-.914,1.285,1.285,0,0,0-.594-.4,3.342,3.342,0,0,0-.99-.114A6.108,6.108,0,0,0,95,8.744a.959.959,0,0,0-.617.366,1.378,1.378,0,0,0-.168.746.745.745,0,0,0,.183.548,1.159,1.159,0,0,0,.548.274q.366.091,1.127.2a10.76,10.76,0,0,1,2.247.526,2.256,2.256,0,0,1,1.158.9,3.077,3.077,0,0,1,.358,1.607,3.114,3.114,0,0,1-.419,1.714,2.4,2.4,0,0,1-1.356.945A8.548,8.548,0,0,1,95.555,16.864Zm9.141,0a3.787,3.787,0,0,1-2-.457,3.957,3.957,0,0,1-1.333-1.615l1.386-1.143a6.436,6.436,0,0,0,.526,1.021,1.2,1.2,0,0,0,.541.449,2.423,2.423,0,0,0,.884.129,7.652,7.652,0,0,0,1.584-.122,1.175,1.175,0,0,0,.731-.4,1.41,1.41,0,0,0,.2-.815,1.455,1.455,0,0,0-.16-.777.985.985,0,0,0-.571-.366,9.768,9.768,0,0,0-1.386-.244,6,6,0,0,1-2.666-.815,2.117,2.117,0,0,1-.823-1.851,3.09,3.09,0,0,1,.381-1.638,2.214,2.214,0,0,1,1.219-.906,7.107,7.107,0,0,1,2.255-.289,4.513,4.513,0,0,1,2.087.4,3.679,3.679,0,0,1,1.356,1.4l-1.28,1.249a5.611,5.611,0,0,0-.579-.914,1.285,1.285,0,0,0-.594-.4,3.342,3.342,0,0,0-.99-.114,6.108,6.108,0,0,0-1.318.107.959.959,0,0,0-.617.366,1.378,1.378,0,0,0-.168.746.745.745,0,0,0,.183.548,1.159,1.159,0,0,0,.548.274q.366.091,1.127.2a10.761,10.761,0,0,1,2.247.526,2.256,2.256,0,0,1,1.158.9,3.077,3.077,0,0,1,.358,1.607,3.114,3.114,0,0,1-.419,1.714,2.4,2.4,0,0,1-1.356.945A8.548,8.548,0,0,1,104.7,16.864Zm18.86-12.4a4.009,4.009,0,0,1,2.354.609A3.42,3.42,0,0,1,127.151,7a13.281,13.281,0,0,1,.381,3.557,13.281,13.281,0,0,1-.381,3.557,3.42,3.42,0,0,1-1.242,1.927,4.009,4.009,0,0,1-2.354.609h-3.961V4.464Zm0,10.573a1.984,1.984,0,0,0,1.333-.411,2.424,2.424,0,0,0,.686-1.371,13.6,13.6,0,0,0,.206-2.7,13.6,13.6,0,0,0-.206-2.7,2.424,2.424,0,0,0-.686-1.371,1.984,1.984,0,0,0-1.333-.411h-2.209v8.958Zm8.988.213a2.511,2.511,0,0,0,1.3-.312,3.868,3.868,0,0,0,1.089-1.1l1.4.929a5.023,5.023,0,0,1-1.607,1.645,4.471,4.471,0,0,1-2.186.457,5.222,5.222,0,0,1-2.415-.457A2.61,2.61,0,0,1,128.9,14.9a9.193,9.193,0,0,1-.373-2.955,9.193,9.193,0,0,1,.373-2.955A2.61,2.61,0,0,1,130.13,7.48a5.222,5.222,0,0,1,2.415-.457,4.715,4.715,0,0,1,2.369.5,2.784,2.784,0,0,1,1.211,1.653,11.26,11.26,0,0,1,.366,3.245h-6.2a5.671,5.671,0,0,0,.274,1.691,1.6,1.6,0,0,0,.7.876A2.608,2.608,0,0,0,132.544,15.249Zm0-6.612a2.282,2.282,0,0,0-1.615.48,2.611,2.611,0,0,0-.609,1.683h4.372a3.421,3.421,0,0,0-.2-1.3,1.212,1.212,0,0,0-.663-.663A3.37,3.37,0,0,0,132.544,8.638Zm4.89,8.013V7.236h1.752V7.175q.122-.03.457-.091a3.366,3.366,0,0,1,.594-.061,2.155,2.155,0,0,1,.945.168,1.79,1.79,0,0,1,.64.609,1.99,1.99,0,0,1,1.737-.777,2.246,2.246,0,0,1,1.371.366,2.084,2.084,0,0,1,.7,1.2,9.919,9.919,0,0,1,.213,2.331v5.728h-1.752V10.923a8.117,8.117,0,0,0-.114-1.668q-.114-.465-.419-.465a.833.833,0,0,0-.815.427,3.7,3.7,0,0,0-.221,1.539v5.9h-1.752V11.014a8.3,8.3,0,0,0-.122-1.729q-.122-.5-.411-.5a.85.85,0,0,0-.823.427,3.588,3.588,0,0,0-.229,1.539v5.9Zm13.345.213a4.237,4.237,0,0,1-2.232-.5,2.81,2.81,0,0,1-1.173-1.569,9.206,9.206,0,0,1-.358-2.849,9.206,9.206,0,0,1,.358-2.849,2.81,2.81,0,0,1,1.173-1.569,5.222,5.222,0,0,1,4.471,0A2.8,2.8,0,0,1,154.2,9.095a9.206,9.206,0,0,1,.358,2.849,9.206,9.206,0,0,1-.358,2.849,2.8,2.8,0,0,1-1.181,1.569A4.279,4.279,0,0,1,150.78,16.864Zm0-1.615a2.156,2.156,0,0,0,1.226-.3,1.661,1.661,0,0,0,.617-1.005,8.457,8.457,0,0,0,.183-2,8.457,8.457,0,0,0-.183-2,1.661,1.661,0,0,0-.617-1.005,2.156,2.156,0,0,0-1.226-.3,2.118,2.118,0,0,0-1.219.3,1.678,1.678,0,0,0-.609,1.005,8.457,8.457,0,0,0-.183,2,8.457,8.457,0,0,0,.183,2,1.678,1.678,0,0,0,.609,1.005A2.118,2.118,0,0,0,150.78,15.249Zm9.141,1.615a7.424,7.424,0,0,1-1.912-.206,2.938,2.938,0,0,1-1.264-.686,4.322,4.322,0,0,1-.906-1.318l1.356-1.28a4.736,4.736,0,0,0,.548,1.173,1.474,1.474,0,0,0,.762.541,4.8,4.8,0,0,0,1.417.16,3.643,3.643,0,0,0,1.341-.19,1.135,1.135,0,0,0,.64-.632,3.54,3.54,0,0,0,.183-1.295,1.905,1.905,0,0,0-.2-.96,1.565,1.565,0,0,0-.655-.571,11.152,11.152,0,0,0-1.462-.571,11.833,11.833,0,0,1-2.125-.884,2.833,2.833,0,0,1-1.074-1.005,2.989,2.989,0,0,1-.335-1.508,4.567,4.567,0,0,1,.358-1.973,2.165,2.165,0,0,1,1.158-1.074,5.741,5.741,0,0,1,2.171-.335,7.057,7.057,0,0,1,1.76.183,2.926,2.926,0,0,1,1.181.6,3.965,3.965,0,0,1,.884,1.165l-1.249,1.356a4.775,4.775,0,0,0-.548-1.074A1.356,1.356,0,0,0,161.23,6a4.807,4.807,0,0,0-1.31-.137,3.633,3.633,0,0,0-1.211.152.947.947,0,0,0-.564.526,2.88,2.88,0,0,0-.16,1.089,1.569,1.569,0,0,0,.168.807,1.284,1.284,0,0,0,.571.465,11.428,11.428,0,0,0,1.333.48,11.832,11.832,0,0,1,2.262.914,2.9,2.9,0,0,1,1.158,1.12,3.593,3.593,0,0,1,.358,1.714,5.175,5.175,0,0,1-.381,2.179,2.361,2.361,0,0,1-1.226,1.181A5.832,5.832,0,0,1,159.92,16.864Zm9.415,0a4.941,4.941,0,0,1-2.407-.5,2.814,2.814,0,0,1-1.272-1.562,8.588,8.588,0,0,1-.388-2.864,8.589,8.589,0,0,1,.388-2.864,2.8,2.8,0,0,1,1.287-1.562,5.109,5.109,0,0,1,2.453-.5,4.115,4.115,0,0,1,2.118.472,4.786,4.786,0,0,1,1.523,1.676l-1.462.868a6.2,6.2,0,0,0-.655-.884,1.5,1.5,0,0,0-.617-.4,3.689,3.689,0,0,0-2.361.183,1.617,1.617,0,0,0-.716,1,7.537,7.537,0,0,0-.206,2.011,7.537,7.537,0,0,0,.206,2.011,1.649,1.649,0,0,0,.693,1,2.751,2.751,0,0,0,1.417.3,2.855,2.855,0,0,0,.906-.122,1.7,1.7,0,0,0,.655-.419,6.024,6.024,0,0,0,.693-.891l1.447.884a4.962,4.962,0,0,1-1.562,1.691A4.193,4.193,0,0,1,169.335,16.864Zm5.713-.213V7.236H176.8v.777a3.349,3.349,0,0,1,.945-.693,2.7,2.7,0,0,1,1.249-.3,3.9,3.9,0,0,1,1.462.236,2.449,2.449,0,0,1,1,.762,5.144,5.144,0,0,1,.754,1.455l-1.569.716a5.458,5.458,0,0,0-.4-.99,1,1,0,0,0-.465-.442,2.03,2.03,0,0,0-.785-.122,1.829,1.829,0,0,0-1.691.815,4.554,4.554,0,0,0-.5,2.369v4.829Zm13.574-9.415v7.8h2.666v1.615H184.2V15.036h2.666V8.851h-1.92V7.236Zm-1.2-1.371a1.536,1.536,0,0,1-1.044-.267,1.336,1.336,0,0,1-.282-.983,1.336,1.336,0,0,1,.282-.983,1.536,1.536,0,0,1,1.044-.267,1.569,1.569,0,0,1,1.051.267,1.312,1.312,0,0,1,.289.983,1.312,1.312,0,0,1-.289.983A1.569,1.569,0,0,1,187.418,5.865ZM192.8,19.424V7.236h1.767v.091a6.2,6.2,0,0,1,2.026-.3,4.332,4.332,0,0,1,2.239.5,2.764,2.764,0,0,1,1.181,1.562,9.206,9.206,0,0,1,.358,2.849,9.282,9.282,0,0,1-.358,2.856,2.8,2.8,0,0,1-1.181,1.577,4.279,4.279,0,0,1-2.239.5,5.564,5.564,0,0,1-2.026-.366v2.925Zm3.793-4.174a2.114,2.114,0,0,0,1.226-.3,1.7,1.7,0,0,0,.617-1.013,8.457,8.457,0,0,0,.183-2,8.356,8.356,0,0,0-.183-2,1.656,1.656,0,0,0-.617-1,2.156,2.156,0,0,0-1.226-.3q-2.026,0-2.026.884v3.6a2.342,2.342,0,0,0,.472,1.615A2.018,2.018,0,0,0,196.589,15.249Zm10.024,1.615a3.6,3.6,0,0,1-1.782-.381,2.234,2.234,0,0,1-.983-1.211,6.333,6.333,0,0,1-.312-2.186V8.668h-1.889V7.053h1.889V4.464h1.752v2.59h3.154V8.668h-3.154v4.418a5.481,5.481,0,0,0,.122,1.318,1.083,1.083,0,0,0,.4.655,1.421,1.421,0,0,0,.8.19,3.1,3.1,0,0,0,.815-.076.6.6,0,0,0,.366-.274,3.762,3.762,0,0,0,.267-.686l1.645.564a3.493,3.493,0,0,1-.594,1.242,2.037,2.037,0,0,1-.952.647A4.953,4.953,0,0,1,206.613,16.864Zm17.291-7.3a1.6,1.6,0,0,1-1.089-.282,1.346,1.346,0,0,1-.3-1,1.372,1.372,0,0,1,.3-1.013,2.246,2.246,0,0,1,2.179,0,1.372,1.372,0,0,1,.3,1.013,1.346,1.346,0,0,1-.3,1A1.6,1.6,0,0,1,223.9,9.567Zm0,7.3a1.6,1.6,0,0,1-1.089-.282,1.346,1.346,0,0,1-.3-1,1.372,1.372,0,0,1,.3-1.013,2.246,2.246,0,0,1,2.179,0,1.372,1.372,0,0,1,.3,1.013,1.346,1.346,0,0,1-.3,1A1.6,1.6,0,0,1,223.9,16.864Zm15.889-.213h-1.767l.229-12.187h1.615l2.316,5.713L244.5,4.464h1.63l.213,12.187h-1.752L244.44,9l-1.523,4.113h-1.462L239.931,9Zm11.532.213a4.237,4.237,0,0,1-2.232-.5,2.81,2.81,0,0,1-1.173-1.569,9.206,9.206,0,0,1-.358-2.849,9.206,9.206,0,0,1,.358-2.849,2.81,2.81,0,0,1,1.173-1.569,5.222,5.222,0,0,1,4.471,0,2.8,2.8,0,0,1,1.181,1.569,9.206,9.206,0,0,1,.358,2.849,9.206,9.206,0,0,1-.358,2.849,2.8,2.8,0,0,1-1.181,1.569A4.279,4.279,0,0,1,251.326,16.864Zm0-1.615a2.156,2.156,0,0,0,1.226-.3,1.661,1.661,0,0,0,.617-1.005,8.457,8.457,0,0,0,.183-2,8.457,8.457,0,0,0-.183-2,1.661,1.661,0,0,0-.617-1.005,2.156,2.156,0,0,0-1.226-.3,2.118,2.118,0,0,0-1.219.3A1.678,1.678,0,0,0,249.5,9.94a8.457,8.457,0,0,0-.183,2,8.457,8.457,0,0,0,.183,2,1.678,1.678,0,0,0,.609,1.005A2.118,2.118,0,0,0,251.326,15.249Zm5.576,1.4V7.236h1.752v.229a5.308,5.308,0,0,1,2.239-.442,4.531,4.531,0,0,1,2,.358,2.062,2.062,0,0,1,1.013,1.2,7.32,7.32,0,0,1,.3,2.384v5.682h-1.767V10.969a5.288,5.288,0,0,0-.145-1.409,1.207,1.207,0,0,0-.472-.708,1.717,1.717,0,0,0-.937-.213,4.434,4.434,0,0,0-1.455.175,1,1,0,0,0-.625.617,4.327,4.327,0,0,0-.16,1.371v5.85Zm12.705.213a4.237,4.237,0,0,1-2.232-.5,2.811,2.811,0,0,1-1.173-1.569,9.206,9.206,0,0,1-.358-2.849,9.206,9.206,0,0,1,.358-2.849,2.811,2.811,0,0,1,1.173-1.569,5.222,5.222,0,0,1,4.471,0,2.8,2.8,0,0,1,1.181,1.569,9.207,9.207,0,0,1,.358,2.849,9.207,9.207,0,0,1-.358,2.849,2.8,2.8,0,0,1-1.181,1.569A4.278,4.278,0,0,1,269.607,16.864Zm0-1.615a2.156,2.156,0,0,0,1.226-.3,1.661,1.661,0,0,0,.617-1.005,8.456,8.456,0,0,0,.183-2,8.456,8.456,0,0,0-.183-2,1.661,1.661,0,0,0-.617-1.005,2.156,2.156,0,0,0-1.226-.3,2.118,2.118,0,0,0-1.219.3,1.678,1.678,0,0,0-.609,1.005,8.456,8.456,0,0,0-.183,2,8.456,8.456,0,0,0,.183,2,1.678,1.678,0,0,0,.609,1.005A2.118,2.118,0,0,0,269.607,15.249Zm5.515,1.4V4.464H278.5a6.1,6.1,0,0,1,2.209.328,2.229,2.229,0,0,1,1.2,1.028,4,4,0,0,1,.373,1.874,4.252,4.252,0,0,1-.2,1.462,2.178,2.178,0,0,1-.686.914,2.424,2.424,0,0,1,.975,1.082,4.791,4.791,0,0,1,.289,1.874,5.063,5.063,0,0,1-.366,2.11,2.287,2.287,0,0,1-1.188,1.15,5.574,5.574,0,0,1-2.224.366ZM278.5,9.4a5.549,5.549,0,0,0,1.287-.107.834.834,0,0,0,.571-.457,2.838,2.838,0,0,0,.168-1.143,2.288,2.288,0,0,0-.168-.99.974.974,0,0,0-.594-.48,4.174,4.174,0,0,0-1.264-.145h-1.63V9.4Zm.381,5.637a3.438,3.438,0,0,0,1.249-.175,1.063,1.063,0,0,0,.6-.6,3.383,3.383,0,0,0,.175-1.234,3.867,3.867,0,0,0-.168-1.333.889.889,0,0,0-.579-.548,4.615,4.615,0,0,0-1.28-.129h-2.011v4.022Zm9.049.213a2.511,2.511,0,0,0,1.3-.312,3.868,3.868,0,0,0,1.089-1.1l1.4.929a5.022,5.022,0,0,1-1.607,1.645,4.471,4.471,0,0,1-2.186.457,5.222,5.222,0,0,1-2.415-.457,2.61,2.61,0,0,1-1.234-1.508,9.193,9.193,0,0,1-.373-2.955,9.193,9.193,0,0,1,.373-2.955,2.61,2.61,0,0,1,1.234-1.508,5.222,5.222,0,0,1,2.415-.457,4.715,4.715,0,0,1,2.369.5,2.784,2.784,0,0,1,1.211,1.653,11.261,11.261,0,0,1,.366,3.245h-6.2a5.67,5.67,0,0,0,.274,1.691,1.6,1.6,0,0,0,.7.876A2.608,2.608,0,0,0,287.934,15.249Zm0-6.612a2.282,2.282,0,0,0-1.615.48,2.611,2.611,0,0,0-.609,1.683h4.372a3.421,3.421,0,0,0-.2-1.3,1.212,1.212,0,0,0-.663-.663A3.37,3.37,0,0,0,287.934,8.638Zm5.621,8.013V4.464h1.752V7.3a5.915,5.915,0,0,1,1.874-.274,4.012,4.012,0,0,1,2.163.5,2.825,2.825,0,0,1,1.143,1.615,10.458,10.458,0,0,1,.35,3.032v4.479h-1.752V12.172a10.3,10.3,0,0,0-.175-2.186,1.762,1.762,0,0,0-.571-1.051,1.909,1.909,0,0,0-1.158-.3,3.2,3.2,0,0,0-1.2.168.945.945,0,0,0-.533.609,4.828,4.828,0,0,0-.145,1.386v5.85Zm12.37.213a6.208,6.208,0,0,1-2.156-.3,2.125,2.125,0,0,1-1.158-.952,3.575,3.575,0,0,1-.358-1.729A4.021,4.021,0,0,1,302.612,12a1.952,1.952,0,0,1,1.143-.929,7,7,0,0,1,2.171-.267h1.919v-.335a2.45,2.45,0,0,0-.16-.99.932.932,0,0,0-.571-.5,3.759,3.759,0,0,0-1.188-.145,2.833,2.833,0,0,0-.975.129.982.982,0,0,0-.518.465,4.454,4.454,0,0,0-.35,1.021l-1.676-.411a6.117,6.117,0,0,1,.686-1.737,2.494,2.494,0,0,1,1.1-.967,4.2,4.2,0,0,1,1.737-.312,3.9,3.9,0,0,1,2.826.846,3.537,3.537,0,0,1,.845,2.6v3.565a1.8,1.8,0,0,0,.122.823.566.566,0,0,0,.518.2q.122,0,.548-.03v1.615q-.183.015-.5.015a2.273,2.273,0,0,1-1.828-.609,2.306,2.306,0,0,1-1.021.632A5.121,5.121,0,0,1,305.926,16.864Zm0-1.615a3.031,3.031,0,0,0,1.188-.183,1.039,1.039,0,0,0,.571-.625,3.945,3.945,0,0,0,.16-1.28v-.746h-1.919a6.255,6.255,0,0,0-1.234.084.73.73,0,0,0-.518.381,2.353,2.353,0,0,0-.152,1,1.833,1.833,0,0,0,.152.846.882.882,0,0,0,.556.4A4.41,4.41,0,0,0,305.926,15.249Zm10.161,1.4H314.5l-3.382-9.415h1.813l2.361,6.81,2.407-6.81h1.8Zm9.643-9.415v7.8H328.4v1.615h-7.084V15.036h2.666V8.851h-1.92V7.236Zm-1.2-1.371a1.536,1.536,0,0,1-1.044-.267,1.336,1.336,0,0,1-.282-.983,1.336,1.336,0,0,1,.282-.983,1.536,1.536,0,0,1,1.044-.267,1.569,1.569,0,0,1,1.051.267,1.312,1.312,0,0,1,.289.983,1.312,1.312,0,0,1-.289.983A1.569,1.569,0,0,1,324.527,5.865Zm9.064,11a4.237,4.237,0,0,1-2.232-.5,2.811,2.811,0,0,1-1.173-1.569,9.206,9.206,0,0,1-.358-2.849,9.206,9.206,0,0,1,.358-2.849,2.811,2.811,0,0,1,1.173-1.569,5.222,5.222,0,0,1,4.471,0,2.8,2.8,0,0,1,1.181,1.569,9.206,9.206,0,0,1,.358,2.849,9.206,9.206,0,0,1-.358,2.849,2.8,2.8,0,0,1-1.181,1.569A4.279,4.279,0,0,1,333.591,16.864Zm0-1.615a2.156,2.156,0,0,0,1.226-.3,1.661,1.661,0,0,0,.617-1.005,8.456,8.456,0,0,0,.183-2,8.456,8.456,0,0,0-.183-2,1.661,1.661,0,0,0-.617-1.005,2.156,2.156,0,0,0-1.226-.3,2.118,2.118,0,0,0-1.219.3,1.678,1.678,0,0,0-.609,1.005,8.457,8.457,0,0,0-.183,2,8.457,8.457,0,0,0,.183,2,1.678,1.678,0,0,0,.609,1.005A2.118,2.118,0,0,0,333.591,15.249Zm8.882,1.615a4.255,4.255,0,0,1-1.95-.373,2.18,2.18,0,0,1-1.036-1.211,6.588,6.588,0,0,1-.32-2.285V7.236h1.752v5.759a5.755,5.755,0,0,0,.13,1.417,1.008,1.008,0,0,0,.457.655,2.031,2.031,0,0,0,.967.183,4.843,4.843,0,0,0,1.409-.152,1.027,1.027,0,0,0,.647-.541,2.807,2.807,0,0,0,.183-1.15V7.236h1.767v9.415h-1.767V16.5A5.487,5.487,0,0,1,342.473,16.864Zm6.246-.213V7.236h1.752v.777a3.349,3.349,0,0,1,.945-.693,2.7,2.7,0,0,1,1.249-.3,3.9,3.9,0,0,1,1.462.236,2.448,2.448,0,0,1,1,.762,5.145,5.145,0,0,1,.754,1.455l-1.569.716a5.461,5.461,0,0,0-.4-.99,1,1,0,0,0-.465-.442,2.03,2.03,0,0,0-.785-.122,1.829,1.829,0,0,0-1.691.815,4.554,4.554,0,0,0-.5,2.369v4.829Zm24.634,2.209a5.414,5.414,0,0,1-3.275-.785,2.961,2.961,0,0,1-1.021-2.506,8.2,8.2,0,0,1,.152-1.371,8.011,8.011,0,0,0,.122-1.036,1.7,1.7,0,0,0-.533-.884q-.533-.594-1.737-1.721,1.2-1.158,1.737-1.752a1.683,1.683,0,0,0,.533-.914,6.2,6.2,0,0,0-.122-.929,7.528,7.528,0,0,1-.152-1.4,2.983,2.983,0,0,1,1.021-2.514,5.373,5.373,0,0,1,3.275-.792v1.63a5.686,5.686,0,0,0-1.523.16,1.351,1.351,0,0,0-.792.533,1.9,1.9,0,0,0-.244,1.044,5.1,5.1,0,0,0,.152,1.173,3.984,3.984,0,0,1,.137.945,2.7,2.7,0,0,1-.411,1.424,5.648,5.648,0,0,1-1.295,1.394,5.419,5.419,0,0,1,1.3,1.356,2.625,2.625,0,0,1,.4,1.4,4.752,4.752,0,0,1-.122.929,6.069,6.069,0,0,0-.152,1.28,1.874,1.874,0,0,0,.236,1.021,1.33,1.33,0,0,0,.785.526,5.686,5.686,0,0,0,1.523.16ZM59.5,69.7V57.509h1.767V57.6a6.2,6.2,0,0,1,2.026-.3,4.332,4.332,0,0,1,2.239.5,2.764,2.764,0,0,1,1.181,1.562,11.544,11.544,0,0,1,0,5.705,2.8,2.8,0,0,1-1.181,1.577,4.278,4.278,0,0,1-2.239.5,5.564,5.564,0,0,1-2.026-.366V69.7Zm3.793-4.174a2.114,2.114,0,0,0,1.226-.3,1.7,1.7,0,0,0,.617-1.013,8.457,8.457,0,0,0,.183-2,8.356,8.356,0,0,0-.183-2,1.656,1.656,0,0,0-.617-1,2.156,2.156,0,0,0-1.226-.3q-2.026,0-2.026.884v3.6A2.342,2.342,0,0,0,61.735,65,2.018,2.018,0,0,0,63.289,65.523Zm8.775,1.615a4.255,4.255,0,0,1-1.95-.373,2.18,2.18,0,0,1-1.036-1.211,6.588,6.588,0,0,1-.32-2.285V57.509H70.51v5.759a5.756,5.756,0,0,0,.129,1.417,1.008,1.008,0,0,0,.457.655,2.031,2.031,0,0,0,.967.183,4.843,4.843,0,0,0,1.409-.152,1.027,1.027,0,0,0,.647-.541,2.807,2.807,0,0,0,.183-1.15v-6.17h1.767v9.415H74.3v-.152A5.487,5.487,0,0,1,72.064,67.137Zm9.582,0a5.431,5.431,0,0,1-2.156-.358,4.007,4.007,0,0,1-1.516-1.257V54.737h1.752v2.895a5.369,5.369,0,0,1,1.92-.335,4.052,4.052,0,0,1,2.171.5,2.8,2.8,0,0,1,1.15,1.569,11.818,11.818,0,0,1,0,5.713,2.765,2.765,0,0,1-1.15,1.562A4.1,4.1,0,0,1,81.646,67.137Zm0-1.615a1.952,1.952,0,0,0,1.158-.3,1.677,1.677,0,0,0,.587-1,8.706,8.706,0,0,0,.175-2,8.811,8.811,0,0,0-.175-2,1.72,1.72,0,0,0-.587-1.013,1.915,1.915,0,0,0-1.158-.3,3.14,3.14,0,0,0-1.2.175,1.016,1.016,0,0,0-.564.632,4.348,4.348,0,0,0-.16,1.356v3.885a1.922,1.922,0,0,0,.762.449A4.439,4.439,0,0,0,81.646,65.523Zm10.527,1.615a3.5,3.5,0,0,1-1.653-.32,1.807,1.807,0,0,1-.838-1.066,6.876,6.876,0,0,1-.251-2.1v-7.3h-1.92V54.737h3.671v8.912a3.485,3.485,0,0,0,.213,1.47.8.8,0,0,0,.777.4,1.171,1.171,0,0,0,.587-.183,7.156,7.156,0,0,0,.876-.655l.975,1.493a4.67,4.67,0,0,1-1.2.754A3.4,3.4,0,0,1,92.173,67.137Zm8.851-9.628v7.8h2.666v1.615H96.606V65.309h2.666V59.124h-1.92V57.509Zm-1.2-1.371a1.536,1.536,0,0,1-1.044-.267,1.854,1.854,0,0,1,0-1.965,1.536,1.536,0,0,1,1.044-.267,1.569,1.569,0,0,1,1.051.267,1.813,1.813,0,0,1,0,1.965A1.569,1.569,0,0,1,99.821,56.138Zm9.339,11a4.941,4.941,0,0,1-2.407-.5,2.814,2.814,0,0,1-1.272-1.562,10.752,10.752,0,0,1,0-5.728,2.8,2.8,0,0,1,1.287-1.562,5.109,5.109,0,0,1,2.453-.5,4.115,4.115,0,0,1,2.118.472,4.786,4.786,0,0,1,1.523,1.676l-1.462.868a6.2,6.2,0,0,0-.655-.884,1.5,1.5,0,0,0-.617-.4,3.689,3.689,0,0,0-2.361.183,1.617,1.617,0,0,0-.716,1,9.934,9.934,0,0,0,0,4.022,1.649,1.649,0,0,0,.693,1,2.751,2.751,0,0,0,1.417.3,2.854,2.854,0,0,0,.906-.122,1.7,1.7,0,0,0,.655-.419,6.024,6.024,0,0,0,.693-.891l1.447.884a4.962,4.962,0,0,1-1.562,1.691A4.193,4.193,0,0,1,109.16,67.137Zm21.648-.213h-6.855V54.737H125.7V65.309h5.1Zm6.779-9.415v7.8h2.666v1.615h-7.084V65.309h2.666V59.124h-1.92V57.509Zm-1.2-1.371a1.536,1.536,0,0,1-1.044-.267,1.854,1.854,0,0,1,0-1.965,1.536,1.536,0,0,1,1.044-.267,1.569,1.569,0,0,1,1.051.267,1.813,1.813,0,0,1,0,1.965A1.569,1.569,0,0,1,136.383,56.138Zm9.034,13.772a4.139,4.139,0,0,1-1.7-.289,3.727,3.727,0,0,1-1.257-1.036l1.28-1.1a2.7,2.7,0,0,0,.724.655,2.208,2.208,0,0,0,.952.152,2.921,2.921,0,0,0,1.188-.19,1.094,1.094,0,0,0,.579-.655,4.235,4.235,0,0,0,.168-1.363v-.03a5.685,5.685,0,0,1-2.041.366,4.227,4.227,0,0,1-2.239-.51,2.843,2.843,0,0,1-1.181-1.622,10.116,10.116,0,0,1-.358-3,5.912,5.912,0,0,1,.373-2.3,2.475,2.475,0,0,1,1.2-1.28,4.982,4.982,0,0,1,2.209-.411,6.431,6.431,0,0,1,2.041.3v-.091H149.1v8.44a6.116,6.116,0,0,1-.358,2.316,2.364,2.364,0,0,1-1.158,1.249A4.949,4.949,0,0,1,145.417,69.91Zm-.107-5.1a2.044,2.044,0,0,0,1.562-.518,2.316,2.316,0,0,0,.48-1.615V59.794a.722.722,0,0,0-.5-.647,3.793,3.793,0,0,0-1.546-.236,2.834,2.834,0,0,0-1.234.213,1.2,1.2,0,0,0-.6.724,4.626,4.626,0,0,0-.175,1.44,9.594,9.594,0,0,0,.183,2.148,1.78,1.78,0,0,0,.609,1.059A2.038,2.038,0,0,0,145.311,64.807Zm5.8,2.118V54.737h1.752V57.57a5.915,5.915,0,0,1,1.874-.274,4.011,4.011,0,0,1,2.163.5,2.825,2.825,0,0,1,1.143,1.615,10.457,10.457,0,0,1,.35,3.032v4.479h-1.752V62.445a10.3,10.3,0,0,0-.175-2.186,1.762,1.762,0,0,0-.571-1.051,1.91,1.91,0,0,0-1.158-.3,3.2,3.2,0,0,0-1.2.168.945.945,0,0,0-.533.609,4.829,4.829,0,0,0-.145,1.386v5.85Zm13.6.213a3.6,3.6,0,0,1-1.782-.381,2.234,2.234,0,0,1-.983-1.211,6.333,6.333,0,0,1-.312-2.186V58.941h-1.889V57.327h1.889v-2.59h1.752v2.59h3.154v1.615h-3.154v4.418a5.481,5.481,0,0,0,.122,1.318,1.083,1.083,0,0,0,.4.655,1.421,1.421,0,0,0,.8.19,3.1,3.1,0,0,0,.815-.076.6.6,0,0,0,.366-.274,3.762,3.762,0,0,0,.267-.686l1.645.564a3.493,3.493,0,0,1-.594,1.242,2.037,2.037,0,0,1-.952.647A4.953,4.953,0,0,1,164.719,67.137Zm13.086-.213V57.509h1.752v-.061q.122-.03.457-.091a3.366,3.366,0,0,1,.594-.061,2.155,2.155,0,0,1,.945.168,1.79,1.79,0,0,1,.64.609,1.99,1.99,0,0,1,1.737-.777,2.246,2.246,0,0,1,1.371.366,2.085,2.085,0,0,1,.7,1.2,9.919,9.919,0,0,1,.213,2.331v5.728h-1.752V61.2a8.116,8.116,0,0,0-.114-1.668q-.114-.465-.419-.465a.833.833,0,0,0-.815.427,3.7,3.7,0,0,0-.221,1.539v5.9h-1.752V61.287a8.3,8.3,0,0,0-.122-1.729q-.122-.5-.411-.5a.85.85,0,0,0-.823.427,3.588,3.588,0,0,0-.229,1.539v5.9Zm10.816,2.986a3.1,3.1,0,0,1-1.036-.152,4.045,4.045,0,0,1-.945-.518l.7-1.478a8.044,8.044,0,0,0,.792.442,1.227,1.227,0,0,0,.487.091,2.158,2.158,0,0,0,.884-.152,1.431,1.431,0,0,0,.587-.526,4.71,4.71,0,0,0,.5-1.1l-3.154-9h1.828l2.255,6.7,2.285-6.7h1.843l-3.275,9.125a8.35,8.35,0,0,1-.929,1.95,2.93,2.93,0,0,1-1.15,1.013A3.913,3.913,0,0,1,188.622,69.91Zm15.31-2.986h-6.855V54.737h1.752V65.309h5.1Zm6.779-9.415v7.8h2.666v1.615h-7.084V65.309h2.666V59.124h-1.92V57.509Zm-1.2-1.371a1.536,1.536,0,0,1-1.044-.267,1.854,1.854,0,0,1,0-1.965,1.536,1.536,0,0,1,1.044-.267,1.569,1.569,0,0,1,1.051.267,1.813,1.813,0,0,1,0,1.965A1.569,1.569,0,0,1,209.508,56.138Zm9.034,13.772a4.139,4.139,0,0,1-1.7-.289,3.727,3.727,0,0,1-1.257-1.036l1.28-1.1a2.7,2.7,0,0,0,.724.655,2.208,2.208,0,0,0,.952.152,2.921,2.921,0,0,0,1.188-.19,1.094,1.094,0,0,0,.579-.655,4.235,4.235,0,0,0,.168-1.363v-.03a5.685,5.685,0,0,1-2.041.366,4.227,4.227,0,0,1-2.239-.51,2.843,2.843,0,0,1-1.181-1.622,10.115,10.115,0,0,1-.358-3,5.912,5.912,0,0,1,.373-2.3,2.475,2.475,0,0,1,1.2-1.28,4.982,4.982,0,0,1,2.209-.411,6.431,6.431,0,0,1,2.041.3v-.091h1.752v8.44a6.116,6.116,0,0,1-.358,2.316,2.364,2.364,0,0,1-1.158,1.249A4.949,4.949,0,0,1,218.542,69.91Zm-.107-5.1A2.044,2.044,0,0,0,220,64.289a2.316,2.316,0,0,0,.48-1.615V59.794a.722.722,0,0,0-.5-.647,3.793,3.793,0,0,0-1.546-.236,2.834,2.834,0,0,0-1.234.213,1.2,1.2,0,0,0-.6.724,4.626,4.626,0,0,0-.175,1.44,9.593,9.593,0,0,0,.183,2.148,1.78,1.78,0,0,0,.609,1.059A2.038,2.038,0,0,0,218.435,64.807Zm5.8,2.118V54.737h1.752V57.57a5.915,5.915,0,0,1,1.874-.274,4.011,4.011,0,0,1,2.163.5,2.825,2.825,0,0,1,1.143,1.615,10.457,10.457,0,0,1,.35,3.032v4.479h-1.752V62.445a10.3,10.3,0,0,0-.175-2.186,1.762,1.762,0,0,0-.571-1.051,1.91,1.91,0,0,0-1.158-.3,3.2,3.2,0,0,0-1.2.168.945.945,0,0,0-.533.609,4.829,4.829,0,0,0-.145,1.386v5.85Zm13.6.213a3.6,3.6,0,0,1-1.782-.381,2.234,2.234,0,0,1-.983-1.211,6.333,6.333,0,0,1-.312-2.186V58.941h-1.889V57.327h1.889v-2.59h1.752v2.59h3.154v1.615h-3.154v4.418a5.481,5.481,0,0,0,.122,1.318,1.083,1.083,0,0,0,.4.655,1.421,1.421,0,0,0,.8.19,3.1,3.1,0,0,0,.815-.076.6.6,0,0,0,.366-.274,3.763,3.763,0,0,0,.267-.686l1.645.564a3.493,3.493,0,0,1-.594,1.242,2.037,2.037,0,0,1-.952.647A4.953,4.953,0,0,1,237.844,67.137Zm6.4,2.773a13,13,0,0,0,1.074-1.661,2.477,2.477,0,0,0,.3-1.1.956.956,0,0,1-.792-.274,1.75,1.75,0,0,1-.213-1.021,1.372,1.372,0,0,1,.3-1.013,2.246,2.246,0,0,1,2.179,0,1.372,1.372,0,0,1,.3,1.013,4.9,4.9,0,0,1-.388,2,8.685,8.685,0,0,1-1.409,2.049Zm1.752-10.07a1.6,1.6,0,0,1-1.089-.282,1.346,1.346,0,0,1-.3-1,1.372,1.372,0,0,1,.3-1.013,2.246,2.246,0,0,1,2.179,0,1.372,1.372,0,0,1,.3,1.013,1.346,1.346,0,0,1-.3,1A1.6,1.6,0,0,1,245.994,59.84ZM.844,94.833V82.646H2.611v.091a6.2,6.2,0,0,1,2.026-.3,4.332,4.332,0,0,1,2.239.5,2.764,2.764,0,0,1,1.181,1.562,9.206,9.206,0,0,1,.358,2.849,9.282,9.282,0,0,1-.358,2.856,2.8,2.8,0,0,1-1.181,1.577,4.279,4.279,0,0,1-2.239.5,5.564,5.564,0,0,1-2.026-.366v2.925Zm3.793-4.174a2.114,2.114,0,0,0,1.226-.3,1.7,1.7,0,0,0,.617-1.013,8.456,8.456,0,0,0,.183-2,8.356,8.356,0,0,0-.183-2,1.656,1.656,0,0,0-.617-1,2.156,2.156,0,0,0-1.226-.3q-2.026,0-2.026.884v3.6a2.342,2.342,0,0,0,.472,1.615A2.018,2.018,0,0,0,4.637,90.659Zm5.88,1.4V82.646h1.752v.777a3.349,3.349,0,0,1,.945-.693,2.7,2.7,0,0,1,1.249-.3,3.9,3.9,0,0,1,1.462.236,2.449,2.449,0,0,1,1,.762,5.145,5.145,0,0,1,.754,1.455l-1.569.716a5.459,5.459,0,0,0-.4-.99,1,1,0,0,0-.465-.442,2.03,2.03,0,0,0-.785-.122,1.829,1.829,0,0,0-1.691.815,4.554,4.554,0,0,0-.5,2.369v4.829Zm13.574-9.415v7.8h2.666v1.615H19.673V90.446h2.666V84.261H20.42V82.646Zm-1.2-1.371a1.536,1.536,0,0,1-1.044-.267,1.854,1.854,0,0,1,0-1.965,1.536,1.536,0,0,1,1.044-.267,1.569,1.569,0,0,1,1.051.267,1.813,1.813,0,0,1,0,1.965A1.569,1.569,0,0,1,22.888,81.275Zm9.841,10.786H31.145l-3.382-9.415h1.813l2.361,6.81,2.407-6.81h1.8Zm8.12.213a6.208,6.208,0,0,1-2.156-.3,2.125,2.125,0,0,1-1.158-.952,3.575,3.575,0,0,1-.358-1.729,4.021,4.021,0,0,1,.358-1.881,1.952,1.952,0,0,1,1.143-.929,7,7,0,0,1,2.171-.267h1.92v-.335a2.45,2.45,0,0,0-.16-.99.932.932,0,0,0-.571-.5,3.759,3.759,0,0,0-1.188-.145,2.833,2.833,0,0,0-.975.129.982.982,0,0,0-.518.465,4.456,4.456,0,0,0-.35,1.021l-1.676-.411a6.118,6.118,0,0,1,.686-1.737,2.494,2.494,0,0,1,1.1-.967,4.2,4.2,0,0,1,1.737-.312,3.9,3.9,0,0,1,2.826.846,3.537,3.537,0,0,1,.846,2.6V89.44a1.8,1.8,0,0,0,.122.823.566.566,0,0,0,.518.2q.122,0,.548-.03v1.615q-.183.015-.5.015a2.273,2.273,0,0,1-1.828-.609,2.306,2.306,0,0,1-1.021.632A5.121,5.121,0,0,1,40.849,92.274Zm0-1.615a3.031,3.031,0,0,0,1.188-.183,1.039,1.039,0,0,0,.571-.625,3.944,3.944,0,0,0,.16-1.28v-.746h-1.92a6.255,6.255,0,0,0-1.234.084.73.73,0,0,0-.518.381,2.353,2.353,0,0,0-.152,1,1.833,1.833,0,0,0,.152.846.882.882,0,0,0,.556.4A4.41,4.41,0,0,0,40.849,90.659Zm10.375,1.615a3.6,3.6,0,0,1-1.782-.381,2.234,2.234,0,0,1-.983-1.211,6.333,6.333,0,0,1-.312-2.186V84.078H46.257V82.463h1.889v-2.59H49.9v2.59h3.154v1.615H49.9V88.5a5.481,5.481,0,0,0,.122,1.318,1.083,1.083,0,0,0,.4.655,1.421,1.421,0,0,0,.8.19,3.1,3.1,0,0,0,.815-.076.6.6,0,0,0,.366-.274,3.761,3.761,0,0,0,.267-.686l1.645.564a3.493,3.493,0,0,1-.594,1.242,2.037,2.037,0,0,1-.952.647A4.953,4.953,0,0,1,51.223,92.274Zm8.2-1.615a2.512,2.512,0,0,0,1.3-.312,3.868,3.868,0,0,0,1.089-1.1l1.4.929a5.023,5.023,0,0,1-1.607,1.645,4.471,4.471,0,0,1-2.186.457A5.222,5.222,0,0,1,57,91.817a2.61,2.61,0,0,1-1.234-1.508,11.888,11.888,0,0,1,0-5.911A2.61,2.61,0,0,1,57,82.89a5.222,5.222,0,0,1,2.415-.457,4.715,4.715,0,0,1,2.369.5A2.784,2.784,0,0,1,63,84.581a11.26,11.26,0,0,1,.366,3.245h-6.2a5.671,5.671,0,0,0,.274,1.691,1.6,1.6,0,0,0,.7.876A2.608,2.608,0,0,0,59.42,90.659Zm0-6.612a2.282,2.282,0,0,0-1.615.48,2.611,2.611,0,0,0-.609,1.683h4.372a3.421,3.421,0,0,0-.2-1.3,1.212,1.212,0,0,0-.663-.663A3.37,3.37,0,0,0,59.42,84.047ZM81.3,92.061H74.441V79.873h1.752V90.446h5.1Zm6.779-9.415v7.8h2.666v1.615H83.657V90.446h2.666V84.261H84.4V82.646Zm-1.2-1.371a1.536,1.536,0,0,1-1.044-.267,1.854,1.854,0,0,1,0-1.965,1.536,1.536,0,0,1,1.044-.267,1.569,1.569,0,0,1,1.051.267,1.813,1.813,0,0,1,0,1.965A1.569,1.569,0,0,1,86.872,81.275Zm9.034,13.772a4.139,4.139,0,0,1-1.7-.289,3.727,3.727,0,0,1-1.257-1.036l1.28-1.1a2.7,2.7,0,0,0,.724.655,2.208,2.208,0,0,0,.952.152,2.921,2.921,0,0,0,1.188-.19,1.094,1.094,0,0,0,.579-.655,4.235,4.235,0,0,0,.168-1.363v-.03a5.685,5.685,0,0,1-2.041.366,4.227,4.227,0,0,1-2.239-.51,2.843,2.843,0,0,1-1.181-1.622,10.116,10.116,0,0,1-.358-3,5.912,5.912,0,0,1,.373-2.3,2.475,2.475,0,0,1,1.2-1.28,4.982,4.982,0,0,1,2.209-.411,6.431,6.431,0,0,1,2.041.3v-.091h1.752v8.44a6.116,6.116,0,0,1-.358,2.316,2.365,2.365,0,0,1-1.158,1.249A4.949,4.949,0,0,1,95.906,95.047Zm-.107-5.1a2.044,2.044,0,0,0,1.562-.518,2.316,2.316,0,0,0,.48-1.615V84.931a.722.722,0,0,0-.5-.647,3.792,3.792,0,0,0-1.546-.236,2.834,2.834,0,0,0-1.234.213,1.2,1.2,0,0,0-.6.724,4.626,4.626,0,0,0-.175,1.44,9.594,9.594,0,0,0,.183,2.148,1.78,1.78,0,0,0,.609,1.059A2.038,2.038,0,0,0,95.8,89.943Zm5.8,2.118V79.873h1.752v2.834a5.914,5.914,0,0,1,1.874-.274,4.012,4.012,0,0,1,2.163.5,2.825,2.825,0,0,1,1.143,1.615,10.457,10.457,0,0,1,.35,3.032v4.479h-1.752V87.582a10.3,10.3,0,0,0-.175-2.186,1.762,1.762,0,0,0-.571-1.051,1.909,1.909,0,0,0-1.158-.3,3.2,3.2,0,0,0-1.2.168.945.945,0,0,0-.533.609,4.828,4.828,0,0,0-.145,1.386v5.85Zm13.6.213a3.6,3.6,0,0,1-1.782-.381,2.234,2.234,0,0,1-.983-1.211,6.333,6.333,0,0,1-.312-2.186V84.078h-1.889V82.463h1.889v-2.59h1.752v2.59h3.154v1.615h-3.154V88.5A5.481,5.481,0,0,0,114,89.814a1.083,1.083,0,0,0,.4.655,1.421,1.421,0,0,0,.8.19,3.1,3.1,0,0,0,.815-.076.6.6,0,0,0,.366-.274,3.76,3.76,0,0,0,.267-.686l1.645.564a3.493,3.493,0,0,1-.594,1.242,2.037,2.037,0,0,1-.952.647A4.953,4.953,0,0,1,115.208,92.274Zm13.086-.213V82.646h1.752v-.061q.122-.03.457-.091a3.366,3.366,0,0,1,.594-.061,2.154,2.154,0,0,1,.945.168,1.79,1.79,0,0,1,.64.609,1.99,1.99,0,0,1,1.737-.777,2.246,2.246,0,0,1,1.371.366,2.084,2.084,0,0,1,.7,1.2,9.918,9.918,0,0,1,.213,2.331v5.728h-1.752V86.333a8.117,8.117,0,0,0-.114-1.668q-.114-.465-.419-.465a.833.833,0,0,0-.815.427,3.7,3.7,0,0,0-.221,1.539v5.9H131.63V86.424a8.3,8.3,0,0,0-.122-1.729q-.122-.5-.411-.5a.85.85,0,0,0-.823.427,3.588,3.588,0,0,0-.229,1.539v5.9Zm10.816,2.986a3.1,3.1,0,0,1-1.036-.152,4.045,4.045,0,0,1-.945-.518l.7-1.478a8.041,8.041,0,0,0,.792.442,1.227,1.227,0,0,0,.487.091,2.158,2.158,0,0,0,.884-.152,1.431,1.431,0,0,0,.587-.526,4.71,4.71,0,0,0,.5-1.1l-3.154-9h1.828l2.255,6.7,2.285-6.7h1.843l-3.275,9.125a8.35,8.35,0,0,1-.929,1.95,2.93,2.93,0,0,1-1.15,1.013A3.912,3.912,0,0,1,139.11,95.047Zm11.669-2.773a4.356,4.356,0,0,1-2.4-.571,3.17,3.17,0,0,1-1.257-1.805,11.64,11.64,0,0,1-.381-3.321V85.358a11.64,11.64,0,0,1,.381-3.321,3.17,3.17,0,0,1,1.257-1.805,5.324,5.324,0,0,1,4.8,0,3.2,3.2,0,0,1,1.264,1.805,11.424,11.424,0,0,1,.388,3.321v1.219a11.424,11.424,0,0,1-.388,3.321,3.2,3.2,0,0,1-1.264,1.805A4.356,4.356,0,0,1,150.78,92.274Zm0-1.615a2.241,2.241,0,0,0,1.386-.373,2.114,2.114,0,0,0,.693-1.242,11.339,11.339,0,0,0,.206-2.468V85.358a11.339,11.339,0,0,0-.206-2.468,2.114,2.114,0,0,0-.693-1.242,2.761,2.761,0,0,0-2.773,0,2.114,2.114,0,0,0-.693,1.242,11.339,11.339,0,0,0-.206,2.468v1.219a10.531,10.531,0,0,0,.2,2.46,2.153,2.153,0,0,0,.7,1.249A2.241,2.241,0,0,0,150.78,90.659Zm10.131,1.615a3.6,3.6,0,0,1-1.782-.381,2.234,2.234,0,0,1-.983-1.211,6.333,6.333,0,0,1-.312-2.186V84.078h-1.889V82.463h1.889v-2.59h1.752v2.59h3.154v1.615h-3.154V88.5a5.481,5.481,0,0,0,.122,1.318,1.083,1.083,0,0,0,.4.655,1.421,1.421,0,0,0,.8.19,3.1,3.1,0,0,0,.815-.076.6.6,0,0,0,.366-.274,3.762,3.762,0,0,0,.267-.686l1.645.564a3.494,3.494,0,0,1-.594,1.242,2.037,2.037,0,0,1-.952.647A4.953,4.953,0,0,1,160.91,92.274Zm4.677-.213V79.873h1.752v2.834a5.914,5.914,0,0,1,1.874-.274,4.011,4.011,0,0,1,2.163.5,2.825,2.825,0,0,1,1.143,1.615,10.457,10.457,0,0,1,.35,3.032v4.479h-1.752V87.582a10.3,10.3,0,0,0-.175-2.186,1.762,1.762,0,0,0-.571-1.051,1.909,1.909,0,0,0-1.158-.3,3.2,3.2,0,0,0-1.2.168.945.945,0,0,0-.533.609,4.829,4.829,0,0,0-.145,1.386v5.85Zm12.66-1.4a2.512,2.512,0,0,0,1.3-.312,3.868,3.868,0,0,0,1.089-1.1l1.4.929a5.022,5.022,0,0,1-1.607,1.645,4.471,4.471,0,0,1-2.186.457,5.222,5.222,0,0,1-2.415-.457,2.61,2.61,0,0,1-1.234-1.508,11.888,11.888,0,0,1,0-5.911,2.61,2.61,0,0,1,1.234-1.508,5.222,5.222,0,0,1,2.415-.457,4.715,4.715,0,0,1,2.369.5,2.784,2.784,0,0,1,1.211,1.653,11.26,11.26,0,0,1,.366,3.245h-6.2a5.671,5.671,0,0,0,.274,1.691,1.6,1.6,0,0,0,.7.876A2.608,2.608,0,0,0,178.247,90.659Zm0-6.612a2.282,2.282,0,0,0-1.615.48,2.611,2.611,0,0,0-.609,1.683H180.4a3.421,3.421,0,0,0-.2-1.3,1.212,1.212,0,0,0-.663-.663A3.37,3.37,0,0,0,178.247,84.047Zm5.941,8.013V82.646h1.752v.777a3.349,3.349,0,0,1,.945-.693,2.7,2.7,0,0,1,1.249-.3,3.9,3.9,0,0,1,1.462.236,2.449,2.449,0,0,1,1,.762,5.145,5.145,0,0,1,.754,1.455l-1.569.716a5.459,5.459,0,0,0-.4-.99,1,1,0,0,0-.465-.442,2.03,2.03,0,0,0-.785-.122,1.829,1.829,0,0,0-1.691.815,4.554,4.554,0,0,0-.5,2.369v4.829Zm15.935,0h-6.855V79.873h1.752V90.446h5.1Zm6.779-9.415v7.8h2.666v1.615h-7.084V90.446h2.666V84.261h-1.92V82.646Zm-1.2-1.371a1.536,1.536,0,0,1-1.044-.267,1.854,1.854,0,0,1,0-1.965,1.536,1.536,0,0,1,1.044-.267,1.569,1.569,0,0,1,1.051.267,1.813,1.813,0,0,1,0,1.965A1.569,1.569,0,0,1,205.7,81.275Zm9.034,13.772a4.139,4.139,0,0,1-1.7-.289,3.727,3.727,0,0,1-1.257-1.036l1.28-1.1a2.7,2.7,0,0,0,.724.655,2.208,2.208,0,0,0,.952.152,2.921,2.921,0,0,0,1.188-.19,1.094,1.094,0,0,0,.579-.655,4.235,4.235,0,0,0,.168-1.363v-.03a5.685,5.685,0,0,1-2.041.366,4.227,4.227,0,0,1-2.239-.51,2.843,2.843,0,0,1-1.181-1.622,10.115,10.115,0,0,1-.358-3,5.912,5.912,0,0,1,.373-2.3,2.475,2.475,0,0,1,1.2-1.28,4.982,4.982,0,0,1,2.209-.411,6.431,6.431,0,0,1,2.041.3v-.091h1.752v8.44a6.116,6.116,0,0,1-.358,2.316,2.364,2.364,0,0,1-1.158,1.249A4.949,4.949,0,0,1,214.733,95.047Zm-.107-5.1a2.044,2.044,0,0,0,1.562-.518,2.316,2.316,0,0,0,.48-1.615V84.931a.722.722,0,0,0-.5-.647,3.793,3.793,0,0,0-1.546-.236,2.834,2.834,0,0,0-1.234.213,1.2,1.2,0,0,0-.6.724,4.626,4.626,0,0,0-.175,1.44,9.593,9.593,0,0,0,.183,2.148,1.78,1.78,0,0,0,.609,1.059A2.038,2.038,0,0,0,214.627,89.943Zm5.8,2.118V79.873h1.752v2.834a5.914,5.914,0,0,1,1.874-.274,4.012,4.012,0,0,1,2.163.5,2.825,2.825,0,0,1,1.143,1.615,10.457,10.457,0,0,1,.35,3.032v4.479h-1.752V87.582a10.3,10.3,0,0,0-.175-2.186,1.762,1.762,0,0,0-.571-1.051,1.909,1.909,0,0,0-1.158-.3,3.2,3.2,0,0,0-1.2.168.945.945,0,0,0-.533.609,4.829,4.829,0,0,0-.145,1.386v5.85Zm13.6.213a3.6,3.6,0,0,1-1.782-.381,2.234,2.234,0,0,1-.983-1.211,6.333,6.333,0,0,1-.312-2.186V84.078h-1.889V82.463h1.889v-2.59h1.752v2.59h3.154v1.615H232.71V88.5a5.481,5.481,0,0,0,.122,1.318,1.083,1.083,0,0,0,.4.655,1.421,1.421,0,0,0,.8.19,3.1,3.1,0,0,0,.815-.076.6.6,0,0,0,.366-.274,3.763,3.763,0,0,0,.267-.686l1.645.564a3.493,3.493,0,0,1-.594,1.242,2.037,2.037,0,0,1-.952.647A4.953,4.953,0,0,1,234.035,92.274Zm6.4,2.773a13,13,0,0,0,1.074-1.661,2.477,2.477,0,0,0,.3-1.1.956.956,0,0,1-.792-.274,1.75,1.75,0,0,1-.213-1.021,1.372,1.372,0,0,1,.3-1.013,2.246,2.246,0,0,1,2.179,0,1.372,1.372,0,0,1,.3,1.013,4.9,4.9,0,0,1-.388,2,8.686,8.686,0,0,1-1.409,2.049Zm1.752-10.07a1.6,1.6,0,0,1-1.089-.282,1.346,1.346,0,0,1-.3-1,1.372,1.372,0,0,1,.3-1.013,2.246,2.246,0,0,1,2.179,0,1.372,1.372,0,0,1,.3,1.013,1.346,1.346,0,0,1-.3,1A1.6,1.6,0,0,1,242.185,84.977ZM1.331,142.913a5.686,5.686,0,0,0,1.523-.16,1.365,1.365,0,0,0,.792-.526,1.827,1.827,0,0,0,.244-1.021,6.067,6.067,0,0,0-.152-1.28A4.751,4.751,0,0,1,3.616,139a2.663,2.663,0,0,1,.4-1.4,5.282,5.282,0,0,1,1.295-1.356,5.306,5.306,0,0,1-1.287-1.379,2.769,2.769,0,0,1-.4-1.44,3.985,3.985,0,0,1,.137-.945,5.1,5.1,0,0,0,.152-1.173,1.9,1.9,0,0,0-.244-1.044,1.354,1.354,0,0,0-.8-.533,5.775,5.775,0,0,0-1.531-.16v-1.63a5.41,5.41,0,0,1,3.283.792,2.973,2.973,0,0,1,1.028,2.514,7.525,7.525,0,0,1-.152,1.4,6.2,6.2,0,0,0-.122.929,1.742,1.742,0,0,0,.533.929q.533.609,1.721,1.737-1.173,1.1-1.714,1.706a1.758,1.758,0,0,0-.541.9,8.014,8.014,0,0,0,.122,1.036,8.2,8.2,0,0,1,.152,1.371,2.951,2.951,0,0,1-1.028,2.506,5.45,5.45,0,0,1-3.283.785Z" transform="translate(613.156 4775.746)" fill="#12263f"/>
  </g>
</svg>
