<svg xmlns="http://www.w3.org/2000/svg" width="610" height="542" viewBox="0 0 610 542">
  <g id="Grupo_168051" data-name="Grupo 168051" transform="translate(-495 -6673)">
    <g id="Rectángulo_342115" data-name="Rectángulo 342115" transform="translate(495 6673)" fill="#8979f3" stroke="#707070" stroke-width="1" opacity="0.25">
      <rect width="610" height="542" rx="25" stroke="none"/>
      <rect x="0.5" y="0.5" width="609" height="541" rx="24.5" fill="none"/>
    </g>
    <path id="Trazado_688352" data-name="Trazado 688352" d="M51.491,17.22a4.384,4.384,0,0,1-2.009-.384,2.245,2.245,0,0,1-1.067-1.248,6.786,6.786,0,0,1-.33-2.354V7.3h1.8v5.932a5.929,5.929,0,0,0,.133,1.459,1.038,1.038,0,0,0,.471.675,2.092,2.092,0,0,0,1,.188,4.989,4.989,0,0,0,1.452-.157,1.058,1.058,0,0,0,.667-.557,2.891,2.891,0,0,0,.188-1.185V7.3h1.82V17H53.8v-.157A5.653,5.653,0,0,1,51.491,17.22Zm9.29,0a3.9,3.9,0,0,1-2.064-.471,4.076,4.076,0,0,1-1.373-1.663l1.428-1.177a6.628,6.628,0,0,0,.541,1.051,1.24,1.24,0,0,0,.557.463,2.5,2.5,0,0,0,.91.133,7.882,7.882,0,0,0,1.632-.126,1.21,1.21,0,0,0,.753-.416,1.452,1.452,0,0,0,.2-.84,1.5,1.5,0,0,0-.165-.8A1.015,1.015,0,0,0,62.617,13a10.062,10.062,0,0,0-1.428-.251,6.181,6.181,0,0,1-2.746-.84A2.181,2.181,0,0,1,57.6,10a3.183,3.183,0,0,1,.392-1.687,2.281,2.281,0,0,1,1.255-.934,7.321,7.321,0,0,1,2.323-.3,4.649,4.649,0,0,1,2.15.408,3.79,3.79,0,0,1,1.4,1.444l-1.318,1.287a5.78,5.78,0,0,0-.6-.942,1.324,1.324,0,0,0-.612-.416,3.442,3.442,0,0,0-1.02-.118,6.292,6.292,0,0,0-1.357.11.988.988,0,0,0-.636.377A1.419,1.419,0,0,0,59.4,10a.767.767,0,0,0,.188.565,1.194,1.194,0,0,0,.565.282q.377.094,1.161.2a11.084,11.084,0,0,1,2.315.541,2.324,2.324,0,0,1,1.193.926,3.17,3.17,0,0,1,.369,1.656,3.208,3.208,0,0,1-.432,1.765,2.474,2.474,0,0,1-1.4.973A8.805,8.805,0,0,1,60.781,17.22ZM71.907,7.3v8.035h2.746V17h-7.3V15.337H70.1V8.966H68.125V7.3ZM70.667,5.89a1.582,1.582,0,0,1-1.075-.275A1.376,1.376,0,0,1,69.3,4.6a1.376,1.376,0,0,1,.29-1.012,1.582,1.582,0,0,1,1.075-.275,1.616,1.616,0,0,1,1.083.275,1.352,1.352,0,0,1,.3,1.012,1.352,1.352,0,0,1-.3,1.012A1.616,1.616,0,0,1,70.667,5.89ZM76.332,17V7.3h1.8v.235a5.468,5.468,0,0,1,2.307-.455,4.668,4.668,0,0,1,2.064.369,2.124,2.124,0,0,1,1.044,1.24,7.541,7.541,0,0,1,.314,2.456V17h-1.82V11.147A5.447,5.447,0,0,0,81.9,9.7a1.243,1.243,0,0,0-.486-.73,1.769,1.769,0,0,0-.965-.22,4.567,4.567,0,0,0-1.5.18,1.035,1.035,0,0,0-.643.636,4.457,4.457,0,0,0-.165,1.412V17Zm13.056,3.076a4.264,4.264,0,0,1-1.75-.3,3.839,3.839,0,0,1-1.295-1.067l1.318-1.13a2.781,2.781,0,0,0,.745.675,2.274,2.274,0,0,0,.981.157,3.009,3.009,0,0,0,1.224-.2,1.127,1.127,0,0,0,.6-.675,4.363,4.363,0,0,0,.173-1.4v-.031a5.856,5.856,0,0,1-2.1.377,4.354,4.354,0,0,1-2.307-.526,2.928,2.928,0,0,1-1.216-1.671,10.42,10.42,0,0,1-.369-3.091,6.09,6.09,0,0,1,.384-2.37A2.55,2.55,0,0,1,87,7.506a5.132,5.132,0,0,1,2.275-.424,6.625,6.625,0,0,1,2.1.314V7.3h1.8V16a6.3,6.3,0,0,1-.369,2.385,2.436,2.436,0,0,1-1.193,1.287A5.1,5.1,0,0,1,89.389,20.076Zm-.11-5.257a2.106,2.106,0,0,0,1.609-.534,2.386,2.386,0,0,0,.494-1.663V9.656a.744.744,0,0,0-.51-.667,3.907,3.907,0,0,0-1.593-.243,2.92,2.92,0,0,0-1.271.22,1.238,1.238,0,0,0-.62.745,4.765,4.765,0,0,0-.18,1.483,9.882,9.882,0,0,0,.188,2.213,1.833,1.833,0,0,0,.628,1.091A2.1,2.1,0,0,0,89.279,14.819Zm18.973,2.4a4.351,4.351,0,0,1-2.268-.5,2.847,2.847,0,0,1-1.193-1.609,9.69,9.69,0,0,1-.369-2.974V4.446h1.8v7.689a9.261,9.261,0,0,0,.18,2.095,1.678,1.678,0,0,0,.612,1.028,2.154,2.154,0,0,0,1.232.3,2.193,2.193,0,0,0,1.24-.3,1.661,1.661,0,0,0,.62-1.028,9.261,9.261,0,0,0,.18-2.095V4.446h1.8v7.689a9.69,9.69,0,0,1-.369,2.974,2.835,2.835,0,0,1-1.2,1.609A4.394,4.394,0,0,1,108.251,17.22Zm5.744-.22V7.3h1.8v.235a5.468,5.468,0,0,1,2.307-.455,4.668,4.668,0,0,1,2.064.369,2.124,2.124,0,0,1,1.044,1.24,7.541,7.541,0,0,1,.314,2.456V17h-1.82V11.147a5.447,5.447,0,0,0-.149-1.452,1.243,1.243,0,0,0-.486-.73,1.769,1.769,0,0,0-.965-.22,4.567,4.567,0,0,0-1.5.18,1.035,1.035,0,0,0-.643.636,4.457,4.457,0,0,0-.165,1.412V17ZM128.4,7.3v8.035h2.746V17h-7.3V15.337H126.6V8.966h-1.977V7.3Zm-1.24-1.412a1.582,1.582,0,0,1-1.075-.275A1.376,1.376,0,0,1,125.8,4.6a1.376,1.376,0,0,1,.29-1.012,1.582,1.582,0,0,1,1.075-.275,1.616,1.616,0,0,1,1.083.275,1.352,1.352,0,0,1,.3,1.012,1.352,1.352,0,0,1-.3,1.012A1.616,1.616,0,0,1,127.161,5.89Zm10.357,11.33a3.708,3.708,0,0,1-1.836-.392,2.3,2.3,0,0,1-1.012-1.248,6.524,6.524,0,0,1-.322-2.252V8.777H132.4V7.114h1.946V4.446h1.8V7.114H139.4V8.777h-3.248v4.551a5.646,5.646,0,0,0,.126,1.357,1.115,1.115,0,0,0,.416.675,1.464,1.464,0,0,0,.824.2,3.191,3.191,0,0,0,.84-.078.621.621,0,0,0,.377-.282,3.875,3.875,0,0,0,.275-.706l1.695.581a3.6,3.6,0,0,1-.612,1.279,2.1,2.1,0,0,1-.981.667A5.1,5.1,0,0,1,137.518,17.22Zm5.791,2.856a3.189,3.189,0,0,1-1.067-.157,4.166,4.166,0,0,1-.973-.534l.722-1.522a8.283,8.283,0,0,0,.816.455,1.264,1.264,0,0,0,.5.094,2.223,2.223,0,0,0,.91-.157,1.474,1.474,0,0,0,.6-.541,4.851,4.851,0,0,0,.51-1.138L142.085,7.3h1.883l2.323,6.9,2.354-6.9h1.9l-3.374,9.4a8.6,8.6,0,0,1-.957,2.009,3.018,3.018,0,0,1-1.185,1.044A4.03,4.03,0,0,1,143.309,20.076Zm16.085-15.63V6.11h-5.869V9.531h3.766v1.663h-3.766v4.143h5.869V17H151.72V4.446ZM161.073,17V7.3h1.8v.235a5.468,5.468,0,0,1,2.307-.455,4.668,4.668,0,0,1,2.064.369,2.124,2.124,0,0,1,1.044,1.24,7.54,7.54,0,0,1,.314,2.456V17h-1.82V11.147a5.447,5.447,0,0,0-.149-1.452,1.243,1.243,0,0,0-.486-.73,1.769,1.769,0,0,0-.965-.22,4.567,4.567,0,0,0-1.5.18,1.035,1.035,0,0,0-.643.636,4.456,4.456,0,0,0-.165,1.412V17Zm13.056,3.076a4.264,4.264,0,0,1-1.75-.3,3.839,3.839,0,0,1-1.295-1.067l1.318-1.13a2.781,2.781,0,0,0,.745.675,2.274,2.274,0,0,0,.981.157,3.009,3.009,0,0,0,1.224-.2,1.127,1.127,0,0,0,.6-.675,4.363,4.363,0,0,0,.173-1.4v-.031a5.856,5.856,0,0,1-2.1.377,4.354,4.354,0,0,1-2.307-.526,2.928,2.928,0,0,1-1.216-1.671,10.42,10.42,0,0,1-.369-3.091,6.09,6.09,0,0,1,.384-2.37,2.55,2.55,0,0,1,1.232-1.318,5.132,5.132,0,0,1,2.275-.424,6.625,6.625,0,0,1,2.1.314V7.3h1.8V16a6.3,6.3,0,0,1-.369,2.385,2.436,2.436,0,0,1-1.193,1.287A5.1,5.1,0,0,1,174.13,20.076Zm-.11-5.257a2.106,2.106,0,0,0,1.609-.534,2.386,2.386,0,0,0,.494-1.663V9.656a.743.743,0,0,0-.51-.667,3.907,3.907,0,0,0-1.593-.243,2.92,2.92,0,0,0-1.271.22,1.238,1.238,0,0,0-.62.745,4.766,4.766,0,0,0-.18,1.483,9.881,9.881,0,0,0,.188,2.213,1.833,1.833,0,0,0,.628,1.091A2.1,2.1,0,0,0,174.02,14.819ZM184.895,7.3v8.035h2.746V17h-7.3V15.337h2.746V8.966h-1.977V7.3Zm-1.24-1.412a1.582,1.582,0,0,1-1.075-.275,1.376,1.376,0,0,1-.29-1.012,1.376,1.376,0,0,1,.29-1.012,1.582,1.582,0,0,1,1.075-.275,1.616,1.616,0,0,1,1.083.275,1.352,1.352,0,0,1,.3,1.012,1.352,1.352,0,0,1-.3,1.012A1.616,1.616,0,0,1,183.655,5.89ZM189.32,17V7.3h1.8v.235a5.468,5.468,0,0,1,2.307-.455,4.668,4.668,0,0,1,2.064.369,2.124,2.124,0,0,1,1.044,1.24,7.54,7.54,0,0,1,.314,2.456V17h-1.82V11.147a5.447,5.447,0,0,0-.149-1.452,1.243,1.243,0,0,0-.486-.73,1.769,1.769,0,0,0-.965-.22,4.567,4.567,0,0,0-1.5.18,1.035,1.035,0,0,0-.643.636,4.456,4.456,0,0,0-.165,1.412V17Zm13.135-1.444a2.587,2.587,0,0,0,1.342-.322,3.985,3.985,0,0,0,1.122-1.138l1.444.957a5.174,5.174,0,0,1-1.656,1.695,4.605,4.605,0,0,1-2.252.471,5.379,5.379,0,0,1-2.487-.471A2.689,2.689,0,0,1,198.7,15.2a9.47,9.47,0,0,1-.384-3.044,9.47,9.47,0,0,1,.384-3.044,2.689,2.689,0,0,1,1.271-1.554,5.379,5.379,0,0,1,2.487-.471,4.857,4.857,0,0,1,2.44.51,2.868,2.868,0,0,1,1.248,1.7,11.6,11.6,0,0,1,.377,3.343h-6.387a5.842,5.842,0,0,0,.282,1.742,1.651,1.651,0,0,0,.722.9A2.686,2.686,0,0,0,202.455,15.557Zm0-6.811a2.351,2.351,0,0,0-1.663.494,2.689,2.689,0,0,0-.628,1.734h4.5a3.524,3.524,0,0,0-.2-1.342,1.248,1.248,0,0,0-.683-.683A3.472,3.472,0,0,0,202.455,8.746Zm7.564,11.33a13.4,13.4,0,0,0,1.106-1.711,2.551,2.551,0,0,0,.306-1.13.984.984,0,0,1-.816-.282,1.8,1.8,0,0,1-.22-1.051,1.413,1.413,0,0,1,.306-1.044,2.313,2.313,0,0,1,2.244,0,1.413,1.413,0,0,1,.306,1.044,5.043,5.043,0,0,1-.4,2.064,8.948,8.948,0,0,1-1.452,2.111Zm1.8-10.373a1.643,1.643,0,0,1-1.122-.29,1.387,1.387,0,0,1-.306-1.028,1.413,1.413,0,0,1,.306-1.044,2.313,2.313,0,0,1,2.244,0,1.413,1.413,0,0,1,.306,1.044,1.387,1.387,0,0,1-.306,1.028A1.643,1.643,0,0,1,211.824,9.7ZM4.412,43.113A4.384,4.384,0,0,1,2.4,42.729a2.245,2.245,0,0,1-1.067-1.248,6.786,6.786,0,0,1-.33-2.354V33.2h1.8v5.932a5.929,5.929,0,0,0,.133,1.459,1.038,1.038,0,0,0,.471.675,2.092,2.092,0,0,0,1,.188,4.989,4.989,0,0,0,1.452-.157,1.058,1.058,0,0,0,.667-.557,2.891,2.891,0,0,0,.188-1.185V33.2H8.54v9.7H6.719v-.157A5.653,5.653,0,0,1,4.412,43.113Zm9.29,0a3.9,3.9,0,0,1-2.064-.471,4.076,4.076,0,0,1-1.373-1.663L11.694,39.8a6.629,6.629,0,0,0,.541,1.051,1.24,1.24,0,0,0,.557.463,2.5,2.5,0,0,0,.91.133,7.882,7.882,0,0,0,1.632-.126,1.21,1.21,0,0,0,.753-.416,1.452,1.452,0,0,0,.2-.84,1.5,1.5,0,0,0-.165-.8,1.015,1.015,0,0,0-.588-.377,10.062,10.062,0,0,0-1.428-.251,6.181,6.181,0,0,1-2.746-.84,2.181,2.181,0,0,1-.847-1.907,3.183,3.183,0,0,1,.392-1.687,2.281,2.281,0,0,1,1.255-.934,7.321,7.321,0,0,1,2.323-.3,4.649,4.649,0,0,1,2.15.408,3.79,3.79,0,0,1,1.4,1.444l-1.318,1.287a5.78,5.78,0,0,0-.6-.942,1.324,1.324,0,0,0-.612-.416,3.442,3.442,0,0,0-1.02-.118,6.291,6.291,0,0,0-1.357.11.988.988,0,0,0-.636.377,1.419,1.419,0,0,0-.173.769.767.767,0,0,0,.188.565,1.194,1.194,0,0,0,.565.282q.377.094,1.161.2a11.084,11.084,0,0,1,2.315.541,2.324,2.324,0,0,1,1.193.926,3.17,3.17,0,0,1,.369,1.656,3.208,3.208,0,0,1-.432,1.765,2.475,2.475,0,0,1-1.4.973A8.805,8.805,0,0,1,13.7,43.113ZM24.829,33.2V41.23h2.746v1.663h-7.3V41.23h2.746V34.859H21.047V33.2Zm-1.24-1.412a1.582,1.582,0,0,1-1.075-.275,1.376,1.376,0,0,1-.29-1.012,1.376,1.376,0,0,1,.29-1.012,1.582,1.582,0,0,1,1.075-.275,1.616,1.616,0,0,1,1.083.275,1.352,1.352,0,0,1,.3,1.012,1.352,1.352,0,0,1-.3,1.012A1.616,1.616,0,0,1,23.589,31.783Zm5.665,11.11V33.2h1.8v.235a5.468,5.468,0,0,1,2.307-.455,4.668,4.668,0,0,1,2.064.369,2.124,2.124,0,0,1,1.044,1.24,7.541,7.541,0,0,1,.314,2.456v5.853h-1.82V37.04a5.448,5.448,0,0,0-.149-1.452,1.243,1.243,0,0,0-.486-.73,1.769,1.769,0,0,0-.965-.22,4.567,4.567,0,0,0-1.5.18,1.035,1.035,0,0,0-.643.636,4.456,4.456,0,0,0-.165,1.412v6.026ZM42.31,45.969a4.264,4.264,0,0,1-1.75-.3A3.839,3.839,0,0,1,39.266,44.6l1.318-1.13a2.781,2.781,0,0,0,.745.675,2.274,2.274,0,0,0,.981.157,3.009,3.009,0,0,0,1.224-.2,1.127,1.127,0,0,0,.6-.675,4.363,4.363,0,0,0,.173-1.4V42a5.856,5.856,0,0,1-2.1.377,4.354,4.354,0,0,1-2.307-.526,2.928,2.928,0,0,1-1.216-1.671,10.42,10.42,0,0,1-.369-3.091,6.089,6.089,0,0,1,.384-2.37A2.55,2.55,0,0,1,39.925,33.4a5.132,5.132,0,0,1,2.275-.424,6.625,6.625,0,0,1,2.1.314V33.2h1.8v8.694a6.3,6.3,0,0,1-.369,2.385,2.436,2.436,0,0,1-1.193,1.287A5.1,5.1,0,0,1,42.31,45.969Zm-.11-5.257a2.106,2.106,0,0,0,1.609-.534,2.386,2.386,0,0,0,.494-1.663V35.549a.743.743,0,0,0-.51-.667,3.907,3.907,0,0,0-1.593-.243,2.92,2.92,0,0,0-1.271.22,1.238,1.238,0,0,0-.62.745,4.766,4.766,0,0,0-.18,1.483,9.882,9.882,0,0,0,.188,2.213,1.833,1.833,0,0,0,.628,1.091A2.1,2.1,0,0,0,42.2,40.712Zm18.973,2.4A7.648,7.648,0,0,1,59.2,42.9a3.026,3.026,0,0,1-1.3-.706,4.451,4.451,0,0,1-.934-1.357l1.4-1.318a4.878,4.878,0,0,0,.565,1.208,1.519,1.519,0,0,0,.785.557,4.94,4.94,0,0,0,1.459.165,3.752,3.752,0,0,0,1.381-.2,1.169,1.169,0,0,0,.659-.651,3.646,3.646,0,0,0,.188-1.334,1.963,1.963,0,0,0-.2-.989,1.612,1.612,0,0,0-.675-.588,11.487,11.487,0,0,0-1.507-.588,12.189,12.189,0,0,1-2.189-.91,2.918,2.918,0,0,1-1.106-1.036,3.079,3.079,0,0,1-.345-1.554,4.7,4.7,0,0,1,.369-2.032,2.23,2.23,0,0,1,1.193-1.106,5.914,5.914,0,0,1,2.236-.345,7.27,7.27,0,0,1,1.813.188,3.014,3.014,0,0,1,1.216.62,4.084,4.084,0,0,1,.91,1.2l-1.287,1.4a4.918,4.918,0,0,0-.565-1.106,1.4,1.4,0,0,0-.738-.494,4.952,4.952,0,0,0-1.35-.141,3.742,3.742,0,0,0-1.248.157.975.975,0,0,0-.581.541A2.967,2.967,0,0,0,59.18,33.6a1.616,1.616,0,0,0,.173.832,1.323,1.323,0,0,0,.588.479,11.772,11.772,0,0,0,1.373.494,12.188,12.188,0,0,1,2.33.942A2.987,2.987,0,0,1,64.837,37.5a3.7,3.7,0,0,1,.369,1.765,5.331,5.331,0,0,1-.392,2.244,2.432,2.432,0,0,1-1.263,1.216A6.008,6.008,0,0,1,61.173,43.113Zm6.811,2.856a3.189,3.189,0,0,1-1.067-.157,4.166,4.166,0,0,1-.973-.534l.722-1.522a8.285,8.285,0,0,0,.816.455,1.264,1.264,0,0,0,.5.094,2.223,2.223,0,0,0,.91-.157,1.474,1.474,0,0,0,.6-.541,4.852,4.852,0,0,0,.51-1.138L66.76,33.2h1.883l2.323,6.9,2.354-6.9h1.9l-3.374,9.4a8.6,8.6,0,0,1-.957,2.009A3.018,3.018,0,0,1,69.7,45.648,4.03,4.03,0,0,1,67.984,45.969Zm11.628-2.856a3.9,3.9,0,0,1-2.064-.471,4.076,4.076,0,0,1-1.373-1.663L77.6,39.8a6.629,6.629,0,0,0,.541,1.051,1.24,1.24,0,0,0,.557.463,2.5,2.5,0,0,0,.91.133,7.882,7.882,0,0,0,1.632-.126A1.21,1.21,0,0,0,82,40.908a1.452,1.452,0,0,0,.2-.84,1.5,1.5,0,0,0-.165-.8,1.015,1.015,0,0,0-.588-.377,10.062,10.062,0,0,0-1.428-.251,6.181,6.181,0,0,1-2.746-.84,2.181,2.181,0,0,1-.847-1.907,3.183,3.183,0,0,1,.392-1.687,2.281,2.281,0,0,1,1.255-.934,7.321,7.321,0,0,1,2.323-.3,4.649,4.649,0,0,1,2.15.408,3.79,3.79,0,0,1,1.4,1.444l-1.318,1.287a5.78,5.78,0,0,0-.6-.942,1.324,1.324,0,0,0-.612-.416,3.442,3.442,0,0,0-1.02-.118,6.291,6.291,0,0,0-1.357.11.988.988,0,0,0-.636.377,1.419,1.419,0,0,0-.173.769.767.767,0,0,0,.188.565,1.194,1.194,0,0,0,.565.282q.377.094,1.161.2a11.084,11.084,0,0,1,2.315.541,2.324,2.324,0,0,1,1.193.926,3.17,3.17,0,0,1,.369,1.656,3.208,3.208,0,0,1-.432,1.765,2.475,2.475,0,0,1-1.4.973A8.805,8.805,0,0,1,79.612,43.113Zm10.828,0a3.708,3.708,0,0,1-1.836-.392,2.3,2.3,0,0,1-1.012-1.248,6.524,6.524,0,0,1-.322-2.252V34.671H85.324V33.007H87.27V30.339h1.8v2.668h3.248v1.663H89.075v4.551a5.646,5.646,0,0,0,.126,1.357,1.115,1.115,0,0,0,.416.675,1.464,1.464,0,0,0,.824.2,3.191,3.191,0,0,0,.84-.078.621.621,0,0,0,.377-.282,3.874,3.874,0,0,0,.275-.706l1.695.581a3.6,3.6,0,0,1-.612,1.279,2.1,2.1,0,0,1-.981.667A5.1,5.1,0,0,1,90.44,43.113Zm8.443-1.663a2.587,2.587,0,0,0,1.342-.322,3.985,3.985,0,0,0,1.122-1.138l1.444.957a5.174,5.174,0,0,1-1.656,1.695,4.605,4.605,0,0,1-2.252.471,5.379,5.379,0,0,1-2.487-.471,2.689,2.689,0,0,1-1.271-1.554,9.469,9.469,0,0,1-.384-3.044A9.469,9.469,0,0,1,95.124,35,2.689,2.689,0,0,1,96.4,33.446a5.379,5.379,0,0,1,2.487-.471,4.857,4.857,0,0,1,2.44.51,2.868,2.868,0,0,1,1.248,1.7,11.6,11.6,0,0,1,.377,3.343H96.56a5.841,5.841,0,0,0,.282,1.742,1.651,1.651,0,0,0,.722.9A2.686,2.686,0,0,0,98.883,41.45Zm0-6.811a2.351,2.351,0,0,0-1.663.494,2.689,2.689,0,0,0-.628,1.734h4.5a3.524,3.524,0,0,0-.2-1.342,1.248,1.248,0,0,0-.683-.683A3.472,3.472,0,0,0,98.883,34.639Zm5.037,8.254V33.2h1.8v-.063q.126-.031.471-.094a3.467,3.467,0,0,1,.612-.063,2.219,2.219,0,0,1,.973.173,1.844,1.844,0,0,1,.659.628,2.05,2.05,0,0,1,1.789-.8,2.314,2.314,0,0,1,1.412.377,2.147,2.147,0,0,1,.722,1.24,10.217,10.217,0,0,1,.22,2.4v5.9h-1.8v-5.9a8.362,8.362,0,0,0-.118-1.718q-.118-.479-.432-.479a.859.859,0,0,0-.84.439,3.811,3.811,0,0,0-.228,1.585v6.073h-1.8V37.087a8.549,8.549,0,0,0-.126-1.781q-.126-.51-.424-.51a.876.876,0,0,0-.847.439,3.7,3.7,0,0,0-.235,1.585v6.073Zm13.747.22a1.643,1.643,0,0,1-1.122-.29,1.387,1.387,0,0,1-.306-1.028,1.413,1.413,0,0,1,.306-1.044,2.313,2.313,0,0,1,2.244,0A1.413,1.413,0,0,1,119.1,41.8a1.387,1.387,0,0,1-.306,1.028A1.643,1.643,0,0,1,117.667,43.113Zm9.651,0a4.354,4.354,0,0,1-2.542-.651,3.644,3.644,0,0,1-1.334-2.056,14.154,14.154,0,0,1-.408-3.805,14.079,14.079,0,0,1,.408-3.79,3.605,3.605,0,0,1,1.334-2.048,4.395,4.395,0,0,1,2.542-.643,4.8,4.8,0,0,1,1.867.314,2.74,2.74,0,0,1,1.216,1.028,6.841,6.841,0,0,1,.824,1.954l-1.711.6a7.276,7.276,0,0,0-.518-1.4,1.438,1.438,0,0,0-.628-.643,2.484,2.484,0,0,0-1.051-.18,2.282,2.282,0,0,0-1.491.439,2.561,2.561,0,0,0-.761,1.475,14.285,14.285,0,0,0-.228,2.9,14.388,14.388,0,0,0,.228,2.919A2.6,2.6,0,0,0,125.827,41a2.254,2.254,0,0,0,1.491.447,2.484,2.484,0,0,0,1.051-.18,1.451,1.451,0,0,0,.628-.628,6.837,6.837,0,0,0,.518-1.373l1.711.581a6.728,6.728,0,0,1-.824,1.93,2.764,2.764,0,0,1-1.208,1.02A4.785,4.785,0,0,1,127.318,43.113Zm9.18,0a4.364,4.364,0,0,1-2.3-.518,2.9,2.9,0,0,1-1.208-1.616,9.483,9.483,0,0,1-.369-2.935,9.483,9.483,0,0,1,.369-2.935,2.9,2.9,0,0,1,1.208-1.616,5.379,5.379,0,0,1,4.606,0,2.883,2.883,0,0,1,1.216,1.616,9.483,9.483,0,0,1,.369,2.935,9.483,9.483,0,0,1-.369,2.935,2.883,2.883,0,0,1-1.216,1.616A4.407,4.407,0,0,1,136.5,43.113Zm0-1.663a2.221,2.221,0,0,0,1.263-.306,1.711,1.711,0,0,0,.636-1.036,8.711,8.711,0,0,0,.188-2.064,8.711,8.711,0,0,0-.188-2.064,1.711,1.711,0,0,0-.636-1.036,2.221,2.221,0,0,0-1.263-.306,2.182,2.182,0,0,0-1.255.306,1.728,1.728,0,0,0-.628,1.036,8.711,8.711,0,0,0-.188,2.064,8.71,8.71,0,0,0,.188,2.064,1.728,1.728,0,0,0,.628,1.036A2.182,2.182,0,0,0,136.5,41.45Zm11.032,1.663a3.6,3.6,0,0,1-1.7-.33,1.861,1.861,0,0,1-.863-1.1,7.083,7.083,0,0,1-.259-2.166V32h-1.977V30.339h3.782v9.18a3.59,3.59,0,0,0,.22,1.514.823.823,0,0,0,.8.416,1.206,1.206,0,0,0,.6-.188,7.37,7.37,0,0,0,.9-.675l1,1.538a4.811,4.811,0,0,1-1.232.777A3.5,3.5,0,0,1,147.53,43.113Zm9.416,0a3.6,3.6,0,0,1-1.7-.33,1.861,1.861,0,0,1-.863-1.1,7.083,7.083,0,0,1-.259-2.166V32h-1.977V30.339h3.782v9.18a3.59,3.59,0,0,0,.22,1.514.823.823,0,0,0,.8.416,1.206,1.206,0,0,0,.6-.188,7.37,7.37,0,0,0,.9-.675l1,1.538a4.811,4.811,0,0,1-1.232.777A3.5,3.5,0,0,1,156.946,43.113Zm7.846-1.663a2.587,2.587,0,0,0,1.342-.322,3.984,3.984,0,0,0,1.122-1.138l1.444.957a5.174,5.174,0,0,1-1.656,1.695,4.605,4.605,0,0,1-2.252.471,5.379,5.379,0,0,1-2.487-.471,2.689,2.689,0,0,1-1.271-1.554,9.47,9.47,0,0,1-.384-3.044A9.47,9.47,0,0,1,161.034,35a2.689,2.689,0,0,1,1.271-1.554,5.379,5.379,0,0,1,2.487-.471,4.857,4.857,0,0,1,2.44.51,2.868,2.868,0,0,1,1.248,1.7,11.6,11.6,0,0,1,.377,3.343H162.47a5.842,5.842,0,0,0,.282,1.742,1.651,1.651,0,0,0,.722.9A2.686,2.686,0,0,0,164.792,41.45Zm0-6.811a2.351,2.351,0,0,0-1.663.494,2.689,2.689,0,0,0-.628,1.734h4.5a3.524,3.524,0,0,0-.2-1.342,1.248,1.248,0,0,0-.683-.683A3.472,3.472,0,0,0,164.792,34.639Zm9.651,8.474a5.089,5.089,0,0,1-2.479-.51,2.9,2.9,0,0,1-1.31-1.609,8.847,8.847,0,0,1-.4-2.95,8.847,8.847,0,0,1,.4-2.95,2.881,2.881,0,0,1,1.326-1.609,5.263,5.263,0,0,1,2.527-.51,4.238,4.238,0,0,1,2.181.486,4.93,4.93,0,0,1,1.569,1.726l-1.507.894a6.391,6.391,0,0,0-.675-.91,1.543,1.543,0,0,0-.636-.416,3.8,3.8,0,0,0-2.432.188,1.665,1.665,0,0,0-.738,1.028,7.765,7.765,0,0,0-.212,2.071,7.764,7.764,0,0,0,.212,2.071,1.7,1.7,0,0,0,.714,1.028,2.834,2.834,0,0,0,1.459.306,2.941,2.941,0,0,0,.934-.126,1.748,1.748,0,0,0,.675-.432,6.206,6.206,0,0,0,.714-.918l1.491.91a5.111,5.111,0,0,1-1.609,1.742A4.319,4.319,0,0,1,174.444,43.113Zm10.153,0a3.708,3.708,0,0,1-1.836-.392,2.3,2.3,0,0,1-1.012-1.248,6.524,6.524,0,0,1-.322-2.252V34.671h-1.946V33.007h1.946V30.339h1.8v2.668h3.248v1.663h-3.248v4.551a5.646,5.646,0,0,0,.126,1.357,1.115,1.115,0,0,0,.416.675,1.464,1.464,0,0,0,.824.2,3.191,3.191,0,0,0,.84-.078.621.621,0,0,0,.377-.282,3.875,3.875,0,0,0,.275-.706l1.695.581a3.6,3.6,0,0,1-.612,1.279,2.1,2.1,0,0,1-.981.667A5.1,5.1,0,0,1,184.6,43.113Zm9.714-9.918V41.23h2.746v1.663h-7.3V41.23h2.746V34.859h-1.977V33.2Zm-1.24-1.412A1.582,1.582,0,0,1,192,31.508a1.376,1.376,0,0,1-.29-1.012,1.376,1.376,0,0,1,.29-1.012,1.582,1.582,0,0,1,1.075-.275,1.616,1.616,0,0,1,1.083.275,1.352,1.352,0,0,1,.3,1.012,1.352,1.352,0,0,1-.3,1.012A1.616,1.616,0,0,1,193.071,31.783Zm9.337,11.33a4.364,4.364,0,0,1-2.3-.518,2.9,2.9,0,0,1-1.208-1.616,9.483,9.483,0,0,1-.369-2.935,9.483,9.483,0,0,1,.369-2.935,2.9,2.9,0,0,1,1.208-1.616,5.379,5.379,0,0,1,4.606,0,2.883,2.883,0,0,1,1.216,1.616,9.483,9.483,0,0,1,.369,2.935,9.483,9.483,0,0,1-.369,2.935,2.883,2.883,0,0,1-1.216,1.616A4.407,4.407,0,0,1,202.408,43.113Zm0-1.663a2.221,2.221,0,0,0,1.263-.306,1.711,1.711,0,0,0,.636-1.036,8.71,8.71,0,0,0,.188-2.064,8.711,8.711,0,0,0-.188-2.064,1.711,1.711,0,0,0-.636-1.036,2.221,2.221,0,0,0-1.263-.306,2.182,2.182,0,0,0-1.255.306,1.728,1.728,0,0,0-.628,1.036,8.711,8.711,0,0,0-.188,2.064,8.711,8.711,0,0,0,.188,2.064,1.728,1.728,0,0,0,.628,1.036A2.182,2.182,0,0,0,202.408,41.45Zm5.744,1.444V33.2h1.8v.235a5.468,5.468,0,0,1,2.307-.455,4.668,4.668,0,0,1,2.064.369,2.124,2.124,0,0,1,1.044,1.24,7.541,7.541,0,0,1,.314,2.456v5.853h-1.82V37.04a5.448,5.448,0,0,0-.149-1.452,1.243,1.243,0,0,0-.486-.73,1.769,1.769,0,0,0-.965-.22,4.567,4.567,0,0,0-1.5.18,1.035,1.035,0,0,0-.643.636,4.456,4.456,0,0,0-.165,1.412v6.026Zm12.7.22a3.9,3.9,0,0,1-2.064-.471,4.076,4.076,0,0,1-1.373-1.663l1.428-1.177a6.627,6.627,0,0,0,.541,1.051,1.24,1.24,0,0,0,.557.463,2.5,2.5,0,0,0,.91.133,7.882,7.882,0,0,0,1.632-.126,1.21,1.21,0,0,0,.753-.416,1.452,1.452,0,0,0,.2-.84,1.5,1.5,0,0,0-.165-.8,1.015,1.015,0,0,0-.588-.377,10.062,10.062,0,0,0-1.428-.251,6.181,6.181,0,0,1-2.746-.84,2.181,2.181,0,0,1-.847-1.907,3.183,3.183,0,0,1,.392-1.687,2.281,2.281,0,0,1,1.255-.934,7.321,7.321,0,0,1,2.323-.3,4.649,4.649,0,0,1,2.15.408,3.79,3.79,0,0,1,1.4,1.444l-1.318,1.287a5.78,5.78,0,0,0-.6-.942,1.324,1.324,0,0,0-.612-.416,3.442,3.442,0,0,0-1.02-.118,6.292,6.292,0,0,0-1.357.11.988.988,0,0,0-.636.377,1.419,1.419,0,0,0-.173.769.767.767,0,0,0,.188.565,1.194,1.194,0,0,0,.565.282q.377.094,1.161.2a11.084,11.084,0,0,1,2.315.541,2.324,2.324,0,0,1,1.193.926,3.17,3.17,0,0,1,.369,1.656,3.208,3.208,0,0,1-.432,1.765,2.474,2.474,0,0,1-1.4.973A8.805,8.805,0,0,1,220.847,43.113Zm8,2.856a13.393,13.393,0,0,0,1.106-1.711,2.551,2.551,0,0,0,.306-1.13.984.984,0,0,1-.816-.282,1.8,1.8,0,0,1-.22-1.051,1.413,1.413,0,0,1,.306-1.044,2.313,2.313,0,0,1,2.244,0,1.413,1.413,0,0,1,.306,1.044,5.043,5.043,0,0,1-.4,2.064,8.947,8.947,0,0,1-1.452,2.111Zm1.8-10.373a1.643,1.643,0,0,1-1.122-.29,1.387,1.387,0,0,1-.306-1.028,1.413,1.413,0,0,1,.306-1.044,2.313,2.313,0,0,1,2.244,0,1.413,1.413,0,0,1,.306,1.044,1.387,1.387,0,0,1-.306,1.028A1.643,1.643,0,0,1,230.655,35.6ZM.881,97.536V84.982H2.7v.094a6.39,6.39,0,0,1,2.087-.314,4.462,4.462,0,0,1,2.307.51A2.847,2.847,0,0,1,8.312,86.88a9.483,9.483,0,0,1,.369,2.935,9.561,9.561,0,0,1-.369,2.942A2.884,2.884,0,0,1,7.1,94.382a4.407,4.407,0,0,1-2.307.518A5.731,5.731,0,0,1,2.7,94.523v3.013Zm3.908-4.3a2.178,2.178,0,0,0,1.263-.314,1.748,1.748,0,0,0,.636-1.044,8.711,8.711,0,0,0,.188-2.064,8.607,8.607,0,0,0-.188-2.056,1.706,1.706,0,0,0-.636-1.028,2.221,2.221,0,0,0-1.263-.306q-2.087,0-2.087.91v3.7A2.412,2.412,0,0,0,3.188,92.7,2.078,2.078,0,0,0,4.789,93.236ZM13.828,94.9a4.384,4.384,0,0,1-2.009-.384,2.245,2.245,0,0,1-1.067-1.248,6.786,6.786,0,0,1-.33-2.354V84.982h1.8v5.932a5.929,5.929,0,0,0,.133,1.459,1.038,1.038,0,0,0,.471.675,2.092,2.092,0,0,0,1,.188,4.989,4.989,0,0,0,1.452-.157,1.058,1.058,0,0,0,.667-.557,2.891,2.891,0,0,0,.188-1.185V84.982h1.82v9.7h-1.82v-.157A5.653,5.653,0,0,1,13.828,94.9Zm9.871,0a5.594,5.594,0,0,1-2.221-.369,4.128,4.128,0,0,1-1.561-1.295V82.125h1.8v2.982a5.531,5.531,0,0,1,1.977-.345,4.174,4.174,0,0,1,2.236.518A2.886,2.886,0,0,1,27.12,86.9a12.174,12.174,0,0,1,0,5.885,2.849,2.849,0,0,1-1.185,1.609A4.226,4.226,0,0,1,23.7,94.9Zm0-1.663a2.01,2.01,0,0,0,1.193-.306,1.728,1.728,0,0,0,.6-1.028,8.969,8.969,0,0,0,.18-2.056,9.077,9.077,0,0,0-.18-2.064,1.772,1.772,0,0,0-.6-1.044,1.972,1.972,0,0,0-1.193-.314,3.235,3.235,0,0,0-1.232.18,1.047,1.047,0,0,0-.581.651,4.478,4.478,0,0,0-.165,1.4v4a1.98,1.98,0,0,0,.785.463A4.573,4.573,0,0,0,23.7,93.236ZM34.542,94.9a3.6,3.6,0,0,1-1.7-.33,1.861,1.861,0,0,1-.863-1.1,7.083,7.083,0,0,1-.259-2.166V83.789H29.741V82.125h3.782v9.18a3.59,3.59,0,0,0,.22,1.514.823.823,0,0,0,.8.416,1.206,1.206,0,0,0,.6-.188,7.372,7.372,0,0,0,.9-.675l1,1.538a4.811,4.811,0,0,1-1.232.777A3.5,3.5,0,0,1,34.542,94.9Zm9.118-9.918v8.035h2.746V94.68h-7.3V93.016h2.746V86.645H39.878V84.982Zm-1.24-1.412a1.582,1.582,0,0,1-1.075-.275,1.91,1.91,0,0,1,0-2.024A1.582,1.582,0,0,1,42.42,81a1.616,1.616,0,0,1,1.083.275,1.867,1.867,0,0,1,0,2.024A1.616,1.616,0,0,1,42.42,83.569ZM52.04,94.9a5.089,5.089,0,0,1-2.479-.51,2.9,2.9,0,0,1-1.31-1.609,11.075,11.075,0,0,1,0-5.9,2.881,2.881,0,0,1,1.326-1.609,5.263,5.263,0,0,1,2.527-.51,4.238,4.238,0,0,1,2.181.486,4.93,4.93,0,0,1,1.569,1.726l-1.507.894a6.39,6.39,0,0,0-.675-.91,1.543,1.543,0,0,0-.636-.416,3.8,3.8,0,0,0-2.432.188,1.665,1.665,0,0,0-.738,1.028,10.233,10.233,0,0,0,0,4.143,1.7,1.7,0,0,0,.714,1.028,2.834,2.834,0,0,0,1.459.306,2.941,2.941,0,0,0,.934-.126,1.748,1.748,0,0,0,.675-.432,6.206,6.206,0,0,0,.714-.918l1.491.91a5.111,5.111,0,0,1-1.609,1.742A4.319,4.319,0,0,1,52.04,94.9Zm18.831,0a5.089,5.089,0,0,1-2.479-.51,2.9,2.9,0,0,1-1.31-1.609,11.075,11.075,0,0,1,0-5.9,2.881,2.881,0,0,1,1.326-1.609,5.263,5.263,0,0,1,2.527-.51,4.238,4.238,0,0,1,2.181.486,4.93,4.93,0,0,1,1.569,1.726l-1.507.894a6.391,6.391,0,0,0-.675-.91,1.544,1.544,0,0,0-.636-.416,3.8,3.8,0,0,0-2.432.188,1.665,1.665,0,0,0-.738,1.028,10.233,10.233,0,0,0,0,4.143,1.7,1.7,0,0,0,.714,1.028,2.834,2.834,0,0,0,1.459.306,2.941,2.941,0,0,0,.934-.126,1.748,1.748,0,0,0,.675-.432,6.206,6.206,0,0,0,.714-.918l1.491.91a5.111,5.111,0,0,1-1.609,1.742A4.319,4.319,0,0,1,70.871,94.9Zm10.75,0a3.6,3.6,0,0,1-1.7-.33,1.861,1.861,0,0,1-.863-1.1,7.083,7.083,0,0,1-.259-2.166V83.789H76.819V82.125H80.6v9.18a3.59,3.59,0,0,0,.22,1.514.823.823,0,0,0,.8.416,1.206,1.206,0,0,0,.6-.188,7.372,7.372,0,0,0,.9-.675l1,1.538a4.811,4.811,0,0,1-1.232.777A3.5,3.5,0,0,1,81.621,94.9Zm7.548,0a6.4,6.4,0,0,1-2.221-.314,2.189,2.189,0,0,1-1.193-.981,3.683,3.683,0,0,1-.369-1.781,4.142,4.142,0,0,1,.369-1.938,2.011,2.011,0,0,1,1.177-.957,7.214,7.214,0,0,1,2.236-.275h1.977v-.345a2.524,2.524,0,0,0-.165-1.02.96.96,0,0,0-.588-.51,3.872,3.872,0,0,0-1.224-.149,2.918,2.918,0,0,0-1,.133,1.011,1.011,0,0,0-.534.479,4.59,4.59,0,0,0-.361,1.051l-1.726-.424a6.3,6.3,0,0,1,.706-1.789,2.569,2.569,0,0,1,1.13-1,4.327,4.327,0,0,1,1.789-.322,4.018,4.018,0,0,1,2.911.871,3.644,3.644,0,0,1,.871,2.676v3.672a1.857,1.857,0,0,0,.126.847.583.583,0,0,0,.534.2q.126,0,.565-.031v1.663q-.188.016-.518.016a2.341,2.341,0,0,1-1.883-.628,2.375,2.375,0,0,1-1.051.651A5.275,5.275,0,0,1,89.169,94.9Zm0-1.663a3.122,3.122,0,0,0,1.224-.188,1.071,1.071,0,0,0,.588-.643,4.063,4.063,0,0,0,.165-1.318v-.769H89.169A6.444,6.444,0,0,0,87.9,90.4a.752.752,0,0,0-.534.392,2.424,2.424,0,0,0-.157,1.028,1.888,1.888,0,0,0,.157.871.908.908,0,0,0,.573.416A4.543,4.543,0,0,0,89.169,93.236ZM98.443,94.9a3.9,3.9,0,0,1-2.064-.471,4.076,4.076,0,0,1-1.373-1.663l1.428-1.177a6.629,6.629,0,0,0,.541,1.051,1.24,1.24,0,0,0,.557.463,2.5,2.5,0,0,0,.91.133,7.882,7.882,0,0,0,1.632-.126,1.21,1.21,0,0,0,.753-.416,1.452,1.452,0,0,0,.2-.84,1.5,1.5,0,0,0-.165-.8,1.015,1.015,0,0,0-.588-.377,10.062,10.062,0,0,0-1.428-.251,6.181,6.181,0,0,1-2.746-.84,2.181,2.181,0,0,1-.847-1.907,3.183,3.183,0,0,1,.392-1.687,2.281,2.281,0,0,1,1.255-.934,7.321,7.321,0,0,1,2.323-.3,4.649,4.649,0,0,1,2.15.408,3.79,3.79,0,0,1,1.4,1.444L101.456,87.9a5.78,5.78,0,0,0-.6-.942,1.324,1.324,0,0,0-.612-.416,3.442,3.442,0,0,0-1.02-.118,6.291,6.291,0,0,0-1.357.11.988.988,0,0,0-.636.377,1.419,1.419,0,0,0-.173.769.767.767,0,0,0,.188.565,1.194,1.194,0,0,0,.565.282q.377.094,1.161.2a11.084,11.084,0,0,1,2.315.541,2.324,2.324,0,0,1,1.193.926,3.17,3.17,0,0,1,.369,1.656,3.208,3.208,0,0,1-.432,1.765,2.475,2.475,0,0,1-1.4.973A8.805,8.805,0,0,1,98.443,94.9Zm9.416,0a3.9,3.9,0,0,1-2.064-.471,4.076,4.076,0,0,1-1.373-1.663l1.428-1.177a6.629,6.629,0,0,0,.541,1.051,1.24,1.24,0,0,0,.557.463,2.5,2.5,0,0,0,.91.133,7.882,7.882,0,0,0,1.632-.126,1.21,1.21,0,0,0,.753-.416,1.452,1.452,0,0,0,.2-.84,1.5,1.5,0,0,0-.165-.8,1.015,1.015,0,0,0-.588-.377,10.062,10.062,0,0,0-1.428-.251,6.181,6.181,0,0,1-2.746-.84,2.181,2.181,0,0,1-.847-1.907,3.183,3.183,0,0,1,.392-1.687,2.281,2.281,0,0,1,1.255-.934,7.321,7.321,0,0,1,2.323-.3,4.649,4.649,0,0,1,2.15.408,3.79,3.79,0,0,1,1.4,1.444L110.872,87.9a5.78,5.78,0,0,0-.6-.942,1.324,1.324,0,0,0-.612-.416,3.442,3.442,0,0,0-1.02-.118,6.291,6.291,0,0,0-1.357.11.988.988,0,0,0-.636.377,1.419,1.419,0,0,0-.173.769.767.767,0,0,0,.188.565,1.194,1.194,0,0,0,.565.282q.377.094,1.161.2a11.084,11.084,0,0,1,2.315.541,2.324,2.324,0,0,1,1.193.926,3.17,3.17,0,0,1,.369,1.656,3.208,3.208,0,0,1-.432,1.765,2.475,2.475,0,0,1-1.4.973A8.805,8.805,0,0,1,107.859,94.9Zm19.428-12.774a4.13,4.13,0,0,1,2.425.628,3.523,3.523,0,0,1,1.279,1.985,17.308,17.308,0,0,1,0,7.329,3.523,3.523,0,0,1-1.279,1.985,4.13,4.13,0,0,1-2.425.628h-4.08V82.125Zm0,10.891a2.044,2.044,0,0,0,1.373-.424,2.5,2.5,0,0,0,.706-1.412,18.315,18.315,0,0,0,0-5.555,2.5,2.5,0,0,0-.706-1.412,2.044,2.044,0,0,0-1.373-.424h-2.275v9.227Zm9.259.22a2.587,2.587,0,0,0,1.342-.322,3.984,3.984,0,0,0,1.122-1.138l1.444.957a5.174,5.174,0,0,1-1.656,1.695,4.605,4.605,0,0,1-2.252.471,5.379,5.379,0,0,1-2.487-.471,2.689,2.689,0,0,1-1.271-1.554,12.246,12.246,0,0,1,0-6.089,2.689,2.689,0,0,1,1.271-1.554,5.379,5.379,0,0,1,2.487-.471,4.857,4.857,0,0,1,2.44.51,2.868,2.868,0,0,1,1.248,1.7,11.6,11.6,0,0,1,.377,3.343h-6.387a5.841,5.841,0,0,0,.282,1.742,1.651,1.651,0,0,0,.722.9A2.686,2.686,0,0,0,136.546,93.236Zm0-6.811a2.351,2.351,0,0,0-1.663.494,2.689,2.689,0,0,0-.628,1.734h4.5a3.524,3.524,0,0,0-.2-1.342,1.248,1.248,0,0,0-.683-.683A3.472,3.472,0,0,0,136.546,86.425Zm5.037,8.254v-9.7h1.8v-.063q.126-.031.471-.094a3.467,3.467,0,0,1,.612-.063,2.219,2.219,0,0,1,.973.173,1.844,1.844,0,0,1,.659.628,2.05,2.05,0,0,1,1.789-.8,2.314,2.314,0,0,1,1.412.377,2.147,2.147,0,0,1,.722,1.24,10.217,10.217,0,0,1,.22,2.4v5.9h-1.8v-5.9a8.361,8.361,0,0,0-.118-1.718q-.118-.479-.432-.479a.858.858,0,0,0-.84.439,3.811,3.811,0,0,0-.228,1.585V94.68h-1.8V88.873a8.549,8.549,0,0,0-.126-1.781q-.126-.51-.424-.51a.876.876,0,0,0-.847.439,3.7,3.7,0,0,0-.235,1.585V94.68Zm13.747.22a4.364,4.364,0,0,1-2.3-.518,2.9,2.9,0,0,1-1.208-1.616,11.86,11.86,0,0,1,0-5.869,2.9,2.9,0,0,1,1.208-1.616,5.379,5.379,0,0,1,4.606,0,2.883,2.883,0,0,1,1.216,1.616,11.86,11.86,0,0,1,0,5.869,2.883,2.883,0,0,1-1.216,1.616A4.407,4.407,0,0,1,155.33,94.9Zm0-1.663a2.221,2.221,0,0,0,1.263-.306,1.711,1.711,0,0,0,.636-1.036,11.4,11.4,0,0,0,0-4.127,1.711,1.711,0,0,0-.636-1.036,2.221,2.221,0,0,0-1.263-.306,2.182,2.182,0,0,0-1.255.306,1.728,1.728,0,0,0-.628,1.036,11.4,11.4,0,0,0,0,4.127,1.728,1.728,0,0,0,.628,1.036A2.182,2.182,0,0,0,155.33,93.236Zm9.416,1.663a7.647,7.647,0,0,1-1.969-.212,3.026,3.026,0,0,1-1.3-.706,4.451,4.451,0,0,1-.934-1.357l1.4-1.318a4.878,4.878,0,0,0,.565,1.208,1.519,1.519,0,0,0,.785.557,4.94,4.94,0,0,0,1.459.165,3.752,3.752,0,0,0,1.381-.2,1.169,1.169,0,0,0,.659-.651,3.647,3.647,0,0,0,.188-1.334,1.963,1.963,0,0,0-.2-.989,1.612,1.612,0,0,0-.675-.588,11.487,11.487,0,0,0-1.507-.588,12.189,12.189,0,0,1-2.189-.91,2.918,2.918,0,0,1-1.106-1.036,3.079,3.079,0,0,1-.345-1.554,4.7,4.7,0,0,1,.369-2.032,2.23,2.23,0,0,1,1.193-1.106,5.914,5.914,0,0,1,2.236-.345,7.269,7.269,0,0,1,1.813.188,3.014,3.014,0,0,1,1.216.62,4.085,4.085,0,0,1,.91,1.2l-1.287,1.4a4.918,4.918,0,0,0-.565-1.106,1.4,1.4,0,0,0-.738-.494,4.952,4.952,0,0,0-1.35-.141,3.742,3.742,0,0,0-1.248.157.975.975,0,0,0-.581.541,2.966,2.966,0,0,0-.165,1.122,1.616,1.616,0,0,0,.173.832,1.323,1.323,0,0,0,.588.479,11.774,11.774,0,0,0,1.373.494,12.188,12.188,0,0,1,2.33.942,2.987,2.987,0,0,1,1.193,1.153,3.7,3.7,0,0,1,.369,1.765,5.331,5.331,0,0,1-.392,2.244,2.432,2.432,0,0,1-1.263,1.216A6.008,6.008,0,0,1,164.745,94.9Zm9.7,0a5.089,5.089,0,0,1-2.479-.51,2.9,2.9,0,0,1-1.31-1.609,11.076,11.076,0,0,1,0-5.9,2.881,2.881,0,0,1,1.326-1.609,5.263,5.263,0,0,1,2.527-.51,4.238,4.238,0,0,1,2.181.486,4.93,4.93,0,0,1,1.569,1.726l-1.507.894a6.391,6.391,0,0,0-.675-.91,1.544,1.544,0,0,0-.636-.416,3.8,3.8,0,0,0-2.432.188,1.665,1.665,0,0,0-.738,1.028,10.233,10.233,0,0,0,0,4.143,1.7,1.7,0,0,0,.714,1.028,2.834,2.834,0,0,0,1.459.306,2.941,2.941,0,0,0,.934-.126,1.748,1.748,0,0,0,.675-.432,6.206,6.206,0,0,0,.714-.918l1.491.91a5.111,5.111,0,0,1-1.609,1.742A4.319,4.319,0,0,1,174.444,94.9Zm5.885-.22v-9.7h1.8v.8a3.45,3.45,0,0,1,.973-.714,2.778,2.778,0,0,1,1.287-.306,4.018,4.018,0,0,1,1.507.243,2.522,2.522,0,0,1,1.028.785,5.3,5.3,0,0,1,.777,1.5l-1.616.738a5.623,5.623,0,0,0-.408-1.02,1.025,1.025,0,0,0-.479-.455,2.091,2.091,0,0,0-.808-.126,1.884,1.884,0,0,0-1.742.84,4.691,4.691,0,0,0-.518,2.44V94.68Zm13.982-9.7v8.035h2.746V94.68h-7.3V93.016h2.746V86.645h-1.977V84.982Zm-1.24-1.412A1.582,1.582,0,0,1,192,83.295a1.91,1.91,0,0,1,0-2.024A1.582,1.582,0,0,1,193.071,81a1.616,1.616,0,0,1,1.083.275,1.867,1.867,0,0,1,0,2.024A1.616,1.616,0,0,1,193.071,83.569Zm5.54,13.967V84.982h1.82v.094a6.39,6.39,0,0,1,2.087-.314,4.462,4.462,0,0,1,2.307.51,2.847,2.847,0,0,1,1.216,1.609,11.892,11.892,0,0,1,0,5.877,2.884,2.884,0,0,1-1.216,1.624,4.407,4.407,0,0,1-2.307.518,5.731,5.731,0,0,1-2.087-.377v3.013Zm3.908-4.3a2.178,2.178,0,0,0,1.263-.314,1.748,1.748,0,0,0,.636-1.044,8.711,8.711,0,0,0,.188-2.064,8.608,8.608,0,0,0-.188-2.056,1.706,1.706,0,0,0-.636-1.028,2.221,2.221,0,0,0-1.263-.306q-2.087,0-2.087.91v3.7a2.412,2.412,0,0,0,.486,1.663A2.078,2.078,0,0,0,202.518,93.236ZM212.844,94.9a3.708,3.708,0,0,1-1.836-.392A2.3,2.3,0,0,1,210,93.259a6.524,6.524,0,0,1-.322-2.252V86.457h-1.946V84.793h1.946V82.125h1.8v2.668h3.248v1.663h-3.248v4.551a5.646,5.646,0,0,0,.126,1.357,1.115,1.115,0,0,0,.416.675,1.464,1.464,0,0,0,.824.2,3.191,3.191,0,0,0,.84-.078.621.621,0,0,0,.377-.282,3.875,3.875,0,0,0,.275-.706l1.695.581a3.6,3.6,0,0,1-.612,1.279,2.1,2.1,0,0,1-.981.667A5.1,5.1,0,0,1,212.844,94.9Zm17.811-7.517a1.643,1.643,0,0,1-1.122-.29,1.387,1.387,0,0,1-.306-1.028,1.413,1.413,0,0,1,.306-1.044,2.313,2.313,0,0,1,2.244,0,1.413,1.413,0,0,1,.306,1.044,1.387,1.387,0,0,1-.306,1.028A1.643,1.643,0,0,1,230.655,87.383Zm0,7.517a1.643,1.643,0,0,1-1.122-.29,1.387,1.387,0,0,1-.306-1.028,1.413,1.413,0,0,1,.306-1.044,2.313,2.313,0,0,1,2.244,0,1.413,1.413,0,0,1,.306,1.044,1.387,1.387,0,0,1-.306,1.028A1.643,1.643,0,0,1,230.655,94.9Zm16.368-.22H245.2l.235-12.554H247.1l2.385,5.885,2.385-5.885h1.679l.22,12.554h-1.8l-.157-7.878-1.569,4.237h-1.507L247.164,86.8Zm11.879.22a4.364,4.364,0,0,1-2.3-.518,2.9,2.9,0,0,1-1.208-1.616,11.86,11.86,0,0,1,0-5.869A2.9,2.9,0,0,1,256.6,85.28a5.379,5.379,0,0,1,4.606,0,2.883,2.883,0,0,1,1.216,1.616,11.86,11.86,0,0,1,0,5.869,2.883,2.883,0,0,1-1.216,1.616A4.407,4.407,0,0,1,258.9,94.9Zm0-1.663a2.221,2.221,0,0,0,1.263-.306,1.711,1.711,0,0,0,.636-1.036,11.4,11.4,0,0,0,0-4.127,1.711,1.711,0,0,0-.636-1.036,2.221,2.221,0,0,0-1.263-.306,2.182,2.182,0,0,0-1.255.306,1.728,1.728,0,0,0-.628,1.036,11.4,11.4,0,0,0,0,4.127,1.728,1.728,0,0,0,.628,1.036A2.182,2.182,0,0,0,258.9,93.236Zm5.744,1.444v-9.7h1.8v.235a5.468,5.468,0,0,1,2.307-.455,4.667,4.667,0,0,1,2.064.369,2.124,2.124,0,0,1,1.044,1.24,7.54,7.54,0,0,1,.314,2.456V94.68h-1.82V88.826a5.447,5.447,0,0,0-.149-1.452,1.243,1.243,0,0,0-.486-.73,1.769,1.769,0,0,0-.965-.22,4.567,4.567,0,0,0-1.5.18,1.035,1.035,0,0,0-.643.636,4.456,4.456,0,0,0-.165,1.412V94.68Zm13.088.22a4.364,4.364,0,0,1-2.3-.518,2.9,2.9,0,0,1-1.208-1.616,11.859,11.859,0,0,1,0-5.869,2.9,2.9,0,0,1,1.208-1.616,5.379,5.379,0,0,1,4.606,0,2.883,2.883,0,0,1,1.216,1.616,11.86,11.86,0,0,1,0,5.869,2.883,2.883,0,0,1-1.216,1.616A4.407,4.407,0,0,1,277.733,94.9Zm0-1.663A2.221,2.221,0,0,0,279,92.93a1.711,1.711,0,0,0,.636-1.036,11.4,11.4,0,0,0,0-4.127A1.711,1.711,0,0,0,279,86.731a2.221,2.221,0,0,0-1.263-.306,2.182,2.182,0,0,0-1.255.306,1.728,1.728,0,0,0-.628,1.036,11.4,11.4,0,0,0,0,4.127,1.728,1.728,0,0,0,.628,1.036A2.182,2.182,0,0,0,277.733,93.236Zm5.681,1.444V82.125H286.9a6.287,6.287,0,0,1,2.275.337,2.3,2.3,0,0,1,1.232,1.059,4.12,4.12,0,0,1,.384,1.93,4.379,4.379,0,0,1-.2,1.507,2.244,2.244,0,0,1-.706.942,2.5,2.5,0,0,1,1,1.114,4.934,4.934,0,0,1,.3,1.93,5.215,5.215,0,0,1-.377,2.173,2.355,2.355,0,0,1-1.224,1.185,5.741,5.741,0,0,1-2.291.377Zm3.484-7.47a5.716,5.716,0,0,0,1.326-.11.859.859,0,0,0,.589-.471,2.924,2.924,0,0,0,.173-1.177,2.357,2.357,0,0,0-.173-1.02,1,1,0,0,0-.612-.494,4.3,4.3,0,0,0-1.3-.149h-1.679V87.21Zm.392,5.806a3.541,3.541,0,0,0,1.287-.18,1.1,1.1,0,0,0,.62-.62,3.485,3.485,0,0,0,.18-1.271,3.984,3.984,0,0,0-.173-1.373.916.916,0,0,0-.6-.565,4.753,4.753,0,0,0-1.318-.133h-2.071v4.143Zm9.322.22a2.587,2.587,0,0,0,1.342-.322,3.984,3.984,0,0,0,1.122-1.138l1.444.957a5.174,5.174,0,0,1-1.656,1.695,4.605,4.605,0,0,1-2.252.471,5.379,5.379,0,0,1-2.487-.471,2.689,2.689,0,0,1-1.271-1.554,12.244,12.244,0,0,1,0-6.089,2.689,2.689,0,0,1,1.271-1.554,5.379,5.379,0,0,1,2.487-.471,4.857,4.857,0,0,1,2.44.51,2.868,2.868,0,0,1,1.248,1.7,11.6,11.6,0,0,1,.377,3.343h-6.387a5.841,5.841,0,0,0,.282,1.742,1.651,1.651,0,0,0,.722.9A2.686,2.686,0,0,0,296.612,93.236Zm0-6.811a2.351,2.351,0,0,0-1.663.494,2.689,2.689,0,0,0-.628,1.734h4.5a3.524,3.524,0,0,0-.2-1.342,1.249,1.249,0,0,0-.683-.683A3.471,3.471,0,0,0,296.612,86.425ZM302.4,94.68V82.125h1.8v2.919a6.092,6.092,0,0,1,1.93-.282,4.132,4.132,0,0,1,2.228.518,2.91,2.91,0,0,1,1.177,1.663,10.772,10.772,0,0,1,.361,3.123V94.68h-1.8V90.066a10.613,10.613,0,0,0-.18-2.252,1.815,1.815,0,0,0-.589-1.083,1.967,1.967,0,0,0-1.193-.306,3.294,3.294,0,0,0-1.232.173.974.974,0,0,0-.549.628,4.974,4.974,0,0,0-.149,1.428V94.68Zm12.743.22a6.4,6.4,0,0,1-2.221-.314,2.189,2.189,0,0,1-1.193-.981,3.683,3.683,0,0,1-.369-1.781,4.142,4.142,0,0,1,.369-1.938,2.011,2.011,0,0,1,1.177-.957,7.214,7.214,0,0,1,2.236-.275h1.977v-.345a2.524,2.524,0,0,0-.165-1.02.96.96,0,0,0-.589-.51,3.872,3.872,0,0,0-1.224-.149,2.918,2.918,0,0,0-1,.133,1.011,1.011,0,0,0-.534.479,4.59,4.59,0,0,0-.361,1.051l-1.726-.424a6.3,6.3,0,0,1,.706-1.789,2.569,2.569,0,0,1,1.13-1,4.327,4.327,0,0,1,1.789-.322,4.018,4.018,0,0,1,2.911.871,3.644,3.644,0,0,1,.871,2.676v3.672a1.857,1.857,0,0,0,.126.847.583.583,0,0,0,.534.2q.126,0,.565-.031v1.663q-.188.016-.518.016a2.341,2.341,0,0,1-1.883-.628,2.375,2.375,0,0,1-1.051.651A5.275,5.275,0,0,1,315.145,94.9Zm0-1.663a3.122,3.122,0,0,0,1.224-.188,1.071,1.071,0,0,0,.589-.643,4.063,4.063,0,0,0,.165-1.318v-.769h-1.977a6.444,6.444,0,0,0-1.271.086.752.752,0,0,0-.534.392,2.424,2.424,0,0,0-.157,1.028,1.888,1.888,0,0,0,.157.871.908.908,0,0,0,.573.416A4.543,4.543,0,0,0,315.145,93.236Zm10.467,1.444H323.98l-3.484-9.7h1.867L324.8,92l2.479-7.015h1.852Zm9.934-9.7v8.035h2.746V94.68h-7.3V93.016h2.746V86.645h-1.977V84.982Zm-1.24-1.412a1.582,1.582,0,0,1-1.075-.275,1.91,1.91,0,0,1,0-2.024A1.582,1.582,0,0,1,334.306,81a1.616,1.616,0,0,1,1.083.275,1.867,1.867,0,0,1,0,2.024A1.616,1.616,0,0,1,334.306,83.569Zm9.337,11.33a4.364,4.364,0,0,1-2.3-.518,2.9,2.9,0,0,1-1.208-1.616,11.86,11.86,0,0,1,0-5.869,2.9,2.9,0,0,1,1.208-1.616,5.379,5.379,0,0,1,4.606,0,2.883,2.883,0,0,1,1.216,1.616,11.86,11.86,0,0,1,0,5.869,2.883,2.883,0,0,1-1.216,1.616A4.407,4.407,0,0,1,343.643,94.9Zm0-1.663a2.221,2.221,0,0,0,1.263-.306,1.711,1.711,0,0,0,.636-1.036,11.4,11.4,0,0,0,0-4.127,1.711,1.711,0,0,0-.636-1.036,2.221,2.221,0,0,0-1.263-.306,2.182,2.182,0,0,0-1.255.306,1.728,1.728,0,0,0-.628,1.036,11.4,11.4,0,0,0,0,4.127,1.728,1.728,0,0,0,.628,1.036A2.182,2.182,0,0,0,343.643,93.236Zm9.149,1.663a4.384,4.384,0,0,1-2.009-.384,2.245,2.245,0,0,1-1.067-1.248,6.786,6.786,0,0,1-.33-2.354V84.982h1.8v5.932a5.929,5.929,0,0,0,.133,1.459,1.038,1.038,0,0,0,.471.675,2.092,2.092,0,0,0,1,.188,4.989,4.989,0,0,0,1.452-.157,1.058,1.058,0,0,0,.667-.557,2.891,2.891,0,0,0,.188-1.185V84.982h1.82v9.7H355.1v-.157A5.653,5.653,0,0,1,352.792,94.9Zm6.434-.22v-9.7h1.8v.8a3.45,3.45,0,0,1,.973-.714,2.778,2.778,0,0,1,1.287-.306,4.018,4.018,0,0,1,1.507.243,2.522,2.522,0,0,1,1.028.785,5.3,5.3,0,0,1,.777,1.5l-1.616.738a5.623,5.623,0,0,0-.408-1.02,1.025,1.025,0,0,0-.479-.455,2.091,2.091,0,0,0-.808-.126,1.884,1.884,0,0,0-1.742.84,4.691,4.691,0,0,0-.518,2.44V94.68ZM384.6,96.955a5.577,5.577,0,0,1-3.374-.808,3.051,3.051,0,0,1-1.051-2.581,8.446,8.446,0,0,1,.157-1.412,8.256,8.256,0,0,0,.126-1.067,1.754,1.754,0,0,0-.549-.91q-.549-.612-1.789-1.773,1.24-1.193,1.789-1.8a1.733,1.733,0,0,0,.549-.942,6.385,6.385,0,0,0-.126-.957,7.752,7.752,0,0,1-.157-1.444,3.073,3.073,0,0,1,1.051-2.589,5.535,5.535,0,0,1,3.374-.816v1.679a5.857,5.857,0,0,0-1.569.165,1.392,1.392,0,0,0-.816.549,1.957,1.957,0,0,0-.251,1.075,5.252,5.252,0,0,0,.157,1.208,4.1,4.1,0,0,1,.141.973,2.786,2.786,0,0,1-.424,1.467,5.818,5.818,0,0,1-1.334,1.436,5.582,5.582,0,0,1,1.342,1.4,2.7,2.7,0,0,1,.416,1.444,4.9,4.9,0,0,1-.126.957,6.249,6.249,0,0,0-.157,1.318,1.93,1.93,0,0,0,.243,1.051,1.369,1.369,0,0,0,.808.541,5.857,5.857,0,0,0,1.569.165ZM.881,149.322V136.768H2.7v.094a6.39,6.39,0,0,1,2.087-.314,4.462,4.462,0,0,1,2.307.51,2.847,2.847,0,0,1,1.216,1.609,9.483,9.483,0,0,1,.369,2.935,9.561,9.561,0,0,1-.369,2.942A2.884,2.884,0,0,1,7.1,146.168a4.407,4.407,0,0,1-2.307.518,5.731,5.731,0,0,1-2.087-.377v3.013Zm3.908-4.3a2.178,2.178,0,0,0,1.263-.314,1.748,1.748,0,0,0,.636-1.044,8.711,8.711,0,0,0,.188-2.064,8.607,8.607,0,0,0-.188-2.056,1.706,1.706,0,0,0-.636-1.028,2.221,2.221,0,0,0-1.263-.306q-2.087,0-2.087.91v3.7a2.412,2.412,0,0,0,.486,1.663A2.078,2.078,0,0,0,4.789,145.022Zm9.039,1.663a4.384,4.384,0,0,1-2.009-.384,2.245,2.245,0,0,1-1.067-1.248,6.786,6.786,0,0,1-.33-2.354v-5.932h1.8V142.7a5.929,5.929,0,0,0,.133,1.459,1.038,1.038,0,0,0,.471.675,2.092,2.092,0,0,0,1,.188,4.989,4.989,0,0,0,1.452-.157,1.058,1.058,0,0,0,.667-.557,2.891,2.891,0,0,0,.188-1.185v-6.356h1.82v9.7h-1.82v-.157A5.652,5.652,0,0,1,13.828,146.686Zm9.871,0a5.594,5.594,0,0,1-2.221-.369,4.128,4.128,0,0,1-1.561-1.295v-11.11h1.8v2.982a5.53,5.53,0,0,1,1.977-.345,4.174,4.174,0,0,1,2.236.518,2.886,2.886,0,0,1,1.185,1.616,12.174,12.174,0,0,1,0,5.885,2.849,2.849,0,0,1-1.185,1.609A4.226,4.226,0,0,1,23.7,146.686Zm0-1.663a2.01,2.01,0,0,0,1.193-.306,1.728,1.728,0,0,0,.6-1.028,8.969,8.969,0,0,0,.18-2.056,9.077,9.077,0,0,0-.18-2.064,1.772,1.772,0,0,0-.6-1.044,1.972,1.972,0,0,0-1.193-.314,3.235,3.235,0,0,0-1.232.18,1.047,1.047,0,0,0-.581.651,4.479,4.479,0,0,0-.165,1.4v4a1.98,1.98,0,0,0,.785.463A4.573,4.573,0,0,0,23.7,145.022Zm10.844,1.663a3.6,3.6,0,0,1-1.7-.33,1.861,1.861,0,0,1-.863-1.1,7.083,7.083,0,0,1-.259-2.166v-7.517H29.741v-1.663h3.782v9.18a3.59,3.59,0,0,0,.22,1.514.823.823,0,0,0,.8.416,1.206,1.206,0,0,0,.6-.188,7.372,7.372,0,0,0,.9-.675l1,1.538a4.81,4.81,0,0,1-1.232.777A3.5,3.5,0,0,1,34.542,146.686Zm9.118-9.918V144.8h2.746v1.663h-7.3V144.8h2.746v-6.371H39.878v-1.663Zm-1.24-1.412a1.582,1.582,0,0,1-1.075-.275,1.91,1.91,0,0,1,0-2.024,1.582,1.582,0,0,1,1.075-.275,1.616,1.616,0,0,1,1.083.275,1.867,1.867,0,0,1,0,2.024A1.616,1.616,0,0,1,42.42,135.355Zm9.62,11.33a5.089,5.089,0,0,1-2.479-.51,2.9,2.9,0,0,1-1.31-1.609,11.076,11.076,0,0,1,0-5.9,2.881,2.881,0,0,1,1.326-1.609,5.263,5.263,0,0,1,2.527-.51,4.239,4.239,0,0,1,2.181.486,4.93,4.93,0,0,1,1.569,1.726l-1.507.894a6.388,6.388,0,0,0-.675-.91,1.544,1.544,0,0,0-.636-.416,3.8,3.8,0,0,0-2.432.188,1.665,1.665,0,0,0-.738,1.028,10.233,10.233,0,0,0,0,4.143,1.7,1.7,0,0,0,.714,1.028,2.834,2.834,0,0,0,1.459.306,2.941,2.941,0,0,0,.934-.126,1.748,1.748,0,0,0,.675-.432,6.206,6.206,0,0,0,.714-.918l1.491.91a5.111,5.111,0,0,1-1.609,1.742A4.319,4.319,0,0,1,52.04,146.686Zm22.3-.22H67.278V133.912h1.8V144.8h5.257Zm6.983-9.7V144.8h2.746v1.663h-7.3V144.8h2.746v-6.371H77.541v-1.663Zm-1.24-1.412a1.582,1.582,0,0,1-1.075-.275,1.91,1.91,0,0,1,0-2.024,1.582,1.582,0,0,1,1.075-.275,1.616,1.616,0,0,1,1.083.275,1.867,1.867,0,0,1,0,2.024A1.616,1.616,0,0,1,80.083,135.355Zm9.306,14.186a4.264,4.264,0,0,1-1.75-.3,3.839,3.839,0,0,1-1.295-1.067l1.318-1.13a2.781,2.781,0,0,0,.745.675,2.274,2.274,0,0,0,.981.157,3.009,3.009,0,0,0,1.224-.2,1.127,1.127,0,0,0,.6-.675,4.363,4.363,0,0,0,.173-1.4v-.031a5.856,5.856,0,0,1-2.1.377,4.354,4.354,0,0,1-2.307-.526,2.928,2.928,0,0,1-1.216-1.671,10.421,10.421,0,0,1-.369-3.091,6.089,6.089,0,0,1,.384-2.37A2.549,2.549,0,0,1,87,136.972a5.132,5.132,0,0,1,2.275-.424,6.625,6.625,0,0,1,2.1.314v-.094h1.8v8.694a6.3,6.3,0,0,1-.369,2.385,2.436,2.436,0,0,1-1.193,1.287A5.1,5.1,0,0,1,89.389,149.542Zm-.11-5.257a2.106,2.106,0,0,0,1.609-.534,2.386,2.386,0,0,0,.494-1.663v-2.966a.744.744,0,0,0-.51-.667,3.907,3.907,0,0,0-1.593-.243,2.92,2.92,0,0,0-1.271.22,1.238,1.238,0,0,0-.62.745,4.765,4.765,0,0,0-.18,1.483,9.882,9.882,0,0,0,.188,2.213,1.833,1.833,0,0,0,.628,1.091A2.1,2.1,0,0,0,89.279,144.285Zm5.979,2.181V133.912h1.8v2.919a6.093,6.093,0,0,1,1.93-.282,4.132,4.132,0,0,1,2.228.518,2.91,2.91,0,0,1,1.177,1.663,10.772,10.772,0,0,1,.361,3.123v4.614h-1.8v-4.614a10.612,10.612,0,0,0-.18-2.252,1.815,1.815,0,0,0-.588-1.083,1.967,1.967,0,0,0-1.193-.306,3.294,3.294,0,0,0-1.232.173.974.974,0,0,0-.549.628,4.974,4.974,0,0,0-.149,1.428v6.026Zm14.014.22a3.708,3.708,0,0,1-1.836-.392,2.3,2.3,0,0,1-1.012-1.248,6.524,6.524,0,0,1-.322-2.252v-4.551h-1.946v-1.663H106.1v-2.668h1.8v2.668h3.248v1.663h-3.248v4.551a5.646,5.646,0,0,0,.126,1.357,1.115,1.115,0,0,0,.416.675,1.464,1.464,0,0,0,.824.2,3.191,3.191,0,0,0,.84-.078.621.621,0,0,0,.377-.282,3.875,3.875,0,0,0,.275-.706l1.695.581a3.6,3.6,0,0,1-.612,1.279,2.1,2.1,0,0,1-.981.667A5.1,5.1,0,0,1,109.271,146.686Zm13.48-.22v-9.7h1.8V136.7q.126-.031.471-.094a3.466,3.466,0,0,1,.612-.063,2.22,2.22,0,0,1,.973.173,1.844,1.844,0,0,1,.659.628,2.05,2.05,0,0,1,1.789-.8,2.314,2.314,0,0,1,1.412.377,2.147,2.147,0,0,1,.722,1.24,10.218,10.218,0,0,1,.22,2.4v5.9h-1.8v-5.9a8.362,8.362,0,0,0-.118-1.718q-.118-.479-.432-.479a.859.859,0,0,0-.84.439,3.811,3.811,0,0,0-.228,1.585v6.073h-1.8V140.66a8.549,8.549,0,0,0-.126-1.781q-.126-.51-.424-.51a.876.876,0,0,0-.847.439,3.7,3.7,0,0,0-.235,1.585v6.073Zm11.142,3.076a3.189,3.189,0,0,1-1.067-.157,4.166,4.166,0,0,1-.973-.534l.722-1.522a8.284,8.284,0,0,0,.816.455,1.264,1.264,0,0,0,.5.094,2.223,2.223,0,0,0,.91-.157,1.474,1.474,0,0,0,.6-.541,4.852,4.852,0,0,0,.51-1.138l-3.248-9.274h1.883l2.323,6.9,2.354-6.9h1.9l-3.374,9.4a8.6,8.6,0,0,1-.957,2.009,3.018,3.018,0,0,1-1.185,1.044A4.03,4.03,0,0,1,133.893,149.542Zm15.771-3.076H142.6V133.912h1.8V144.8h5.257Zm6.983-9.7V144.8h2.746v1.663h-7.3V144.8h2.746v-6.371h-1.977v-1.663Zm-1.24-1.412a1.582,1.582,0,0,1-1.075-.275,1.91,1.91,0,0,1,0-2.024,1.582,1.582,0,0,1,1.075-.275,1.616,1.616,0,0,1,1.083.275,1.867,1.867,0,0,1,0,2.024A1.616,1.616,0,0,1,155.408,135.355Zm9.306,14.186a4.264,4.264,0,0,1-1.75-.3,3.839,3.839,0,0,1-1.295-1.067l1.318-1.13a2.78,2.78,0,0,0,.745.675,2.274,2.274,0,0,0,.981.157,3.009,3.009,0,0,0,1.224-.2,1.127,1.127,0,0,0,.6-.675,4.363,4.363,0,0,0,.173-1.4v-.031a5.857,5.857,0,0,1-2.1.377,4.354,4.354,0,0,1-2.307-.526,2.928,2.928,0,0,1-1.216-1.671,10.42,10.42,0,0,1-.369-3.091,6.09,6.09,0,0,1,.384-2.37,2.55,2.55,0,0,1,1.232-1.318,5.132,5.132,0,0,1,2.275-.424,6.625,6.625,0,0,1,2.1.314v-.094h1.8v8.694a6.3,6.3,0,0,1-.369,2.385,2.436,2.436,0,0,1-1.193,1.287A5.1,5.1,0,0,1,164.714,149.542Zm-.11-5.257a2.106,2.106,0,0,0,1.609-.534,2.386,2.386,0,0,0,.494-1.663v-2.966a.744.744,0,0,0-.51-.667,3.907,3.907,0,0,0-1.593-.243,2.92,2.92,0,0,0-1.271.22,1.238,1.238,0,0,0-.62.745,4.765,4.765,0,0,0-.18,1.483,9.883,9.883,0,0,0,.188,2.213,1.833,1.833,0,0,0,.628,1.091A2.1,2.1,0,0,0,164.6,144.285Zm5.979,2.181V133.912h1.8v2.919a6.093,6.093,0,0,1,1.93-.282,4.132,4.132,0,0,1,2.228.518,2.91,2.91,0,0,1,1.177,1.663,10.772,10.772,0,0,1,.361,3.123v4.614h-1.8v-4.614a10.612,10.612,0,0,0-.18-2.252,1.815,1.815,0,0,0-.588-1.083,1.967,1.967,0,0,0-1.193-.306,3.293,3.293,0,0,0-1.232.173.974.974,0,0,0-.549.628,4.974,4.974,0,0,0-.149,1.428v6.026Zm14.014.22a3.708,3.708,0,0,1-1.836-.392,2.3,2.3,0,0,1-1.012-1.248,6.524,6.524,0,0,1-.322-2.252v-4.551h-1.946v-1.663h1.946v-2.668h1.8v2.668h3.248v1.663h-3.248v4.551a5.646,5.646,0,0,0,.126,1.357,1.115,1.115,0,0,0,.416.675,1.464,1.464,0,0,0,.824.2,3.191,3.191,0,0,0,.84-.078.621.621,0,0,0,.377-.282,3.875,3.875,0,0,0,.275-.706l1.695.581a3.6,3.6,0,0,1-.612,1.279,2.1,2.1,0,0,1-.981.667A5.1,5.1,0,0,1,184.6,146.686Zm6.591,2.856a13.392,13.392,0,0,0,1.106-1.711,2.551,2.551,0,0,0,.306-1.13.984.984,0,0,1-.816-.282,1.8,1.8,0,0,1-.22-1.051,1.413,1.413,0,0,1,.306-1.044,2.313,2.313,0,0,1,2.244,0,1.413,1.413,0,0,1,.306,1.044,5.043,5.043,0,0,1-.4,2.064,8.948,8.948,0,0,1-1.452,2.111Zm1.8-10.373a1.643,1.643,0,0,1-1.122-.29,1.387,1.387,0,0,1-.306-1.028,1.413,1.413,0,0,1,.306-1.044,2.313,2.313,0,0,1,2.244,0,1.413,1.413,0,0,1,.306,1.044,1.387,1.387,0,0,1-.306,1.028A1.643,1.643,0,0,1,192.992,139.169ZM.881,175.215V162.661H2.7v.094a6.39,6.39,0,0,1,2.087-.314,4.462,4.462,0,0,1,2.307.51,2.847,2.847,0,0,1,1.216,1.609,9.483,9.483,0,0,1,.369,2.935,9.561,9.561,0,0,1-.369,2.942A2.884,2.884,0,0,1,7.1,172.061a4.407,4.407,0,0,1-2.307.518A5.731,5.731,0,0,1,2.7,172.2v3.013Zm3.908-4.3a2.178,2.178,0,0,0,1.263-.314,1.748,1.748,0,0,0,.636-1.044,8.711,8.711,0,0,0,.188-2.064,8.607,8.607,0,0,0-.188-2.056,1.706,1.706,0,0,0-.636-1.028,2.221,2.221,0,0,0-1.263-.306q-2.087,0-2.087.91v3.7a2.412,2.412,0,0,0,.486,1.663A2.078,2.078,0,0,0,4.789,170.915Zm6.057,1.444v-9.7h1.8v.8a3.45,3.45,0,0,1,.973-.714,2.778,2.778,0,0,1,1.287-.306,4.018,4.018,0,0,1,1.507.243,2.522,2.522,0,0,1,1.028.785,5.3,5.3,0,0,1,.777,1.5l-1.616.738a5.624,5.624,0,0,0-.408-1.02,1.025,1.025,0,0,0-.479-.455,2.091,2.091,0,0,0-.808-.126,1.884,1.884,0,0,0-1.742.84,4.691,4.691,0,0,0-.518,2.44v4.975Zm13.982-9.7V170.7h2.746v1.663h-7.3V170.7h2.746v-6.371H21.047v-1.663Zm-1.24-1.412a1.582,1.582,0,0,1-1.075-.275,1.91,1.91,0,0,1,0-2.024,1.582,1.582,0,0,1,1.075-.275,1.616,1.616,0,0,1,1.083.275,1.867,1.867,0,0,1,0,2.024A1.616,1.616,0,0,1,23.589,161.248Zm10.138,11.11H32.094l-3.484-9.7h1.867l2.432,7.015,2.479-7.015h1.852Zm8.364.22a6.4,6.4,0,0,1-2.221-.314,2.189,2.189,0,0,1-1.193-.981,3.682,3.682,0,0,1-.369-1.781,4.142,4.142,0,0,1,.369-1.938,2.011,2.011,0,0,1,1.177-.957,7.214,7.214,0,0,1,2.236-.275h1.977v-.345a2.524,2.524,0,0,0-.165-1.02.96.96,0,0,0-.588-.51,3.872,3.872,0,0,0-1.224-.149,2.918,2.918,0,0,0-1,.133,1.011,1.011,0,0,0-.534.479,4.59,4.59,0,0,0-.361,1.051l-1.726-.424a6.3,6.3,0,0,1,.706-1.789,2.569,2.569,0,0,1,1.13-1,4.327,4.327,0,0,1,1.789-.322,4.018,4.018,0,0,1,2.911.871,3.644,3.644,0,0,1,.871,2.676v3.672a1.857,1.857,0,0,0,.126.847.583.583,0,0,0,.534.2q.126,0,.565-.031v1.663q-.188.016-.518.016a2.341,2.341,0,0,1-1.883-.628,2.376,2.376,0,0,1-1.051.651A5.275,5.275,0,0,1,42.091,172.579Zm0-1.663a3.122,3.122,0,0,0,1.224-.188,1.071,1.071,0,0,0,.588-.643,4.063,4.063,0,0,0,.165-1.318V168H42.091a6.444,6.444,0,0,0-1.271.086.752.752,0,0,0-.534.392,2.424,2.424,0,0,0-.157,1.028,1.888,1.888,0,0,0,.157.871.908.908,0,0,0,.573.416A4.543,4.543,0,0,0,42.091,170.915Zm10.687,1.663a3.708,3.708,0,0,1-1.836-.392,2.3,2.3,0,0,1-1.012-1.248,6.524,6.524,0,0,1-.322-2.252v-4.551H47.662v-1.663h1.946V159.8h1.8v2.668h3.248v1.663H51.412v4.551a5.646,5.646,0,0,0,.126,1.357,1.115,1.115,0,0,0,.416.675,1.464,1.464,0,0,0,.824.2,3.192,3.192,0,0,0,.84-.078.621.621,0,0,0,.377-.282,3.874,3.874,0,0,0,.275-.706l1.695.581a3.6,3.6,0,0,1-.612,1.279,2.1,2.1,0,0,1-.981.667A5.1,5.1,0,0,1,52.777,172.579Zm8.443-1.663a2.587,2.587,0,0,0,1.342-.322,3.984,3.984,0,0,0,1.122-1.138l1.444.957a5.174,5.174,0,0,1-1.656,1.695,4.605,4.605,0,0,1-2.252.471,5.379,5.379,0,0,1-2.487-.471,2.689,2.689,0,0,1-1.271-1.554,12.245,12.245,0,0,1,0-6.089,2.689,2.689,0,0,1,1.271-1.554,5.379,5.379,0,0,1,2.487-.471,4.857,4.857,0,0,1,2.44.51,2.868,2.868,0,0,1,1.248,1.7A11.6,11.6,0,0,1,65.285,168H58.9a5.841,5.841,0,0,0,.282,1.742,1.651,1.651,0,0,0,.722.9A2.686,2.686,0,0,0,61.22,170.915Zm0-6.811a2.351,2.351,0,0,0-1.663.494,2.689,2.689,0,0,0-.628,1.734h4.5a3.524,3.524,0,0,0-.2-1.342,1.248,1.248,0,0,0-.683-.683A3.472,3.472,0,0,0,61.22,164.1Zm22.535,8.254H76.693V159.8h1.8V170.7h5.257Zm6.983-9.7V170.7h2.746v1.663h-7.3V170.7h2.746v-6.371H86.956v-1.663Zm-1.24-1.412a1.582,1.582,0,0,1-1.075-.275,1.91,1.91,0,0,1,0-2.024,1.582,1.582,0,0,1,1.075-.275,1.616,1.616,0,0,1,1.083.275,1.867,1.867,0,0,1,0,2.024A1.616,1.616,0,0,1,89.5,161.248ZM98.8,175.435a4.264,4.264,0,0,1-1.75-.3,3.839,3.839,0,0,1-1.295-1.067l1.318-1.13a2.78,2.78,0,0,0,.745.675,2.274,2.274,0,0,0,.981.157,3.009,3.009,0,0,0,1.224-.2,1.127,1.127,0,0,0,.6-.675,4.363,4.363,0,0,0,.173-1.4v-.031a5.856,5.856,0,0,1-2.1.377,4.354,4.354,0,0,1-2.307-.526,2.928,2.928,0,0,1-1.216-1.671,10.42,10.42,0,0,1-.369-3.091,6.089,6.089,0,0,1,.384-2.37,2.55,2.55,0,0,1,1.232-1.318,5.132,5.132,0,0,1,2.275-.424,6.625,6.625,0,0,1,2.1.314v-.094h1.8v8.694a6.3,6.3,0,0,1-.369,2.385,2.436,2.436,0,0,1-1.193,1.287A5.1,5.1,0,0,1,98.8,175.435Zm-.11-5.257a2.106,2.106,0,0,0,1.609-.534,2.386,2.386,0,0,0,.494-1.663v-2.966a.744.744,0,0,0-.51-.667,3.907,3.907,0,0,0-1.593-.243,2.92,2.92,0,0,0-1.271.22,1.238,1.238,0,0,0-.62.745,4.765,4.765,0,0,0-.18,1.483,9.882,9.882,0,0,0,.188,2.213,1.833,1.833,0,0,0,.628,1.091A2.1,2.1,0,0,0,98.695,170.178Zm5.979,2.181V159.8h1.8v2.919a6.093,6.093,0,0,1,1.93-.282,4.132,4.132,0,0,1,2.228.518,2.91,2.91,0,0,1,1.177,1.663,10.772,10.772,0,0,1,.361,3.123v4.614h-1.8v-4.614a10.612,10.612,0,0,0-.18-2.252,1.815,1.815,0,0,0-.588-1.083,1.967,1.967,0,0,0-1.193-.306,3.294,3.294,0,0,0-1.232.173.974.974,0,0,0-.549.628,4.974,4.974,0,0,0-.149,1.428v6.026Zm14.014.22a3.708,3.708,0,0,1-1.836-.392,2.3,2.3,0,0,1-1.012-1.248,6.524,6.524,0,0,1-.322-2.252v-4.551h-1.946v-1.663h1.946V159.8h1.8v2.668h3.248v1.663h-3.248v4.551a5.646,5.646,0,0,0,.126,1.357,1.116,1.116,0,0,0,.416.675,1.464,1.464,0,0,0,.824.2,3.192,3.192,0,0,0,.84-.078.621.621,0,0,0,.377-.282,3.874,3.874,0,0,0,.275-.706l1.695.581a3.6,3.6,0,0,1-.612,1.279,2.1,2.1,0,0,1-.981.667A5.1,5.1,0,0,1,118.687,172.579Zm13.48-.22v-9.7h1.8V162.6q.126-.031.471-.094a3.466,3.466,0,0,1,.612-.063,2.219,2.219,0,0,1,.973.173,1.844,1.844,0,0,1,.659.628,2.05,2.05,0,0,1,1.789-.8,2.314,2.314,0,0,1,1.412.377,2.147,2.147,0,0,1,.722,1.24,10.217,10.217,0,0,1,.22,2.4v5.9h-1.8v-5.9a8.362,8.362,0,0,0-.118-1.718q-.118-.479-.432-.479a.859.859,0,0,0-.84.439,3.811,3.811,0,0,0-.228,1.585v6.073h-1.8v-5.806a8.549,8.549,0,0,0-.126-1.781q-.126-.51-.424-.51a.876.876,0,0,0-.847.439,3.7,3.7,0,0,0-.235,1.585v6.073Zm11.142,3.076a3.189,3.189,0,0,1-1.067-.157,4.167,4.167,0,0,1-.973-.534l.722-1.522a8.281,8.281,0,0,0,.816.455,1.264,1.264,0,0,0,.5.094,2.223,2.223,0,0,0,.91-.157,1.473,1.473,0,0,0,.6-.541,4.851,4.851,0,0,0,.51-1.138l-3.248-9.274h1.883l2.323,6.9,2.354-6.9h1.9l-3.374,9.4a8.6,8.6,0,0,1-.957,2.009,3.018,3.018,0,0,1-1.185,1.044A4.03,4.03,0,0,1,143.309,175.435Zm12.021-2.856a4.487,4.487,0,0,1-2.472-.588,3.265,3.265,0,0,1-1.295-1.86,11.99,11.99,0,0,1-.392-3.421v-1.255a11.99,11.99,0,0,1,.392-3.421,3.265,3.265,0,0,1,1.295-1.86,5.485,5.485,0,0,1,4.943,0,3.3,3.3,0,0,1,1.3,1.86,11.768,11.768,0,0,1,.4,3.421v1.255a11.768,11.768,0,0,1-.4,3.421,3.3,3.3,0,0,1-1.3,1.86A4.487,4.487,0,0,1,155.33,172.579Zm0-1.663a2.308,2.308,0,0,0,1.428-.384,2.178,2.178,0,0,0,.714-1.279,11.68,11.68,0,0,0,.212-2.542v-1.255a11.68,11.68,0,0,0-.212-2.542,2.178,2.178,0,0,0-.714-1.279,2.844,2.844,0,0,0-2.856,0,2.178,2.178,0,0,0-.714,1.279,11.68,11.68,0,0,0-.212,2.542v1.255a10.849,10.849,0,0,0,.2,2.534,2.217,2.217,0,0,0,.722,1.287A2.308,2.308,0,0,0,155.33,170.915Zm10.436,1.663a3.708,3.708,0,0,1-1.836-.392,2.3,2.3,0,0,1-1.012-1.248,6.524,6.524,0,0,1-.322-2.252v-4.551H160.65v-1.663H162.6V159.8h1.8v2.668h3.248v1.663H164.4v4.551a5.646,5.646,0,0,0,.126,1.357,1.115,1.115,0,0,0,.416.675,1.464,1.464,0,0,0,.824.2,3.192,3.192,0,0,0,.84-.078.621.621,0,0,0,.377-.282,3.875,3.875,0,0,0,.275-.706l1.695.581a3.6,3.6,0,0,1-.612,1.279,2.1,2.1,0,0,1-.981.667A5.1,5.1,0,0,1,165.765,172.579Zm4.818-.22V159.8h1.8v2.919a6.093,6.093,0,0,1,1.93-.282,4.132,4.132,0,0,1,2.228.518,2.91,2.91,0,0,1,1.177,1.663,10.772,10.772,0,0,1,.361,3.123v4.614h-1.8v-4.614a10.612,10.612,0,0,0-.18-2.252,1.815,1.815,0,0,0-.588-1.083,1.967,1.967,0,0,0-1.193-.306,3.294,3.294,0,0,0-1.232.173.974.974,0,0,0-.549.628,4.974,4.974,0,0,0-.149,1.428v6.026Zm13.041-1.444a2.587,2.587,0,0,0,1.342-.322,3.984,3.984,0,0,0,1.122-1.138l1.444.957a5.174,5.174,0,0,1-1.656,1.695,4.605,4.605,0,0,1-2.252.471,5.379,5.379,0,0,1-2.487-.471,2.689,2.689,0,0,1-1.271-1.554,12.246,12.246,0,0,1,0-6.089,2.689,2.689,0,0,1,1.271-1.554,5.379,5.379,0,0,1,2.487-.471,4.857,4.857,0,0,1,2.44.51,2.868,2.868,0,0,1,1.248,1.7,11.6,11.6,0,0,1,.377,3.343H181.3a5.842,5.842,0,0,0,.282,1.742,1.651,1.651,0,0,0,.722.9A2.686,2.686,0,0,0,183.624,170.915Zm0-6.811a2.351,2.351,0,0,0-1.663.494,2.69,2.69,0,0,0-.628,1.734h4.5a3.524,3.524,0,0,0-.2-1.342,1.248,1.248,0,0,0-.683-.683A3.472,3.472,0,0,0,183.624,164.1Zm6.12,8.254v-9.7h1.8v.8a3.45,3.45,0,0,1,.973-.714,2.778,2.778,0,0,1,1.287-.306,4.018,4.018,0,0,1,1.507.243,2.522,2.522,0,0,1,1.028.785,5.3,5.3,0,0,1,.777,1.5l-1.616.738a5.624,5.624,0,0,0-.408-1.02,1.025,1.025,0,0,0-.479-.455,2.091,2.091,0,0,0-.808-.126,1.884,1.884,0,0,0-1.742.84,4.691,4.691,0,0,0-.518,2.44v4.975Zm16.415,0H199.1V159.8h1.8V170.7h5.257Zm6.983-9.7V170.7h2.746v1.663h-7.3V170.7h2.746v-6.371H209.36v-1.663Zm-1.24-1.412a1.582,1.582,0,0,1-1.075-.275,1.91,1.91,0,0,1,0-2.024,1.582,1.582,0,0,1,1.075-.275,1.616,1.616,0,0,1,1.083.275,1.867,1.867,0,0,1,0,2.024A1.616,1.616,0,0,1,211.9,161.248Zm9.306,14.186a4.264,4.264,0,0,1-1.75-.3,3.839,3.839,0,0,1-1.295-1.067l1.318-1.13a2.78,2.78,0,0,0,.745.675,2.274,2.274,0,0,0,.981.157,3.009,3.009,0,0,0,1.224-.2,1.127,1.127,0,0,0,.6-.675,4.363,4.363,0,0,0,.173-1.4v-.031a5.857,5.857,0,0,1-2.1.377,4.354,4.354,0,0,1-2.307-.526,2.928,2.928,0,0,1-1.216-1.671,10.42,10.42,0,0,1-.369-3.091,6.09,6.09,0,0,1,.384-2.37,2.55,2.55,0,0,1,1.232-1.318,5.132,5.132,0,0,1,2.275-.424,6.625,6.625,0,0,1,2.1.314v-.094h1.8v8.694a6.3,6.3,0,0,1-.369,2.385,2.436,2.436,0,0,1-1.193,1.287A5.1,5.1,0,0,1,221.208,175.435Zm-.11-5.257a2.106,2.106,0,0,0,1.609-.534,2.386,2.386,0,0,0,.494-1.663v-2.966a.744.744,0,0,0-.51-.667,3.907,3.907,0,0,0-1.593-.243,2.92,2.92,0,0,0-1.271.22,1.238,1.238,0,0,0-.62.745,4.765,4.765,0,0,0-.18,1.483,9.883,9.883,0,0,0,.188,2.213,1.833,1.833,0,0,0,.628,1.091A2.1,2.1,0,0,0,221.1,170.178Zm5.979,2.181V159.8h1.8v2.919a6.093,6.093,0,0,1,1.93-.282,4.132,4.132,0,0,1,2.228.518,2.91,2.91,0,0,1,1.177,1.663,10.772,10.772,0,0,1,.361,3.123v4.614h-1.8v-4.614a10.612,10.612,0,0,0-.18-2.252,1.815,1.815,0,0,0-.588-1.083,1.967,1.967,0,0,0-1.193-.306,3.294,3.294,0,0,0-1.232.173.974.974,0,0,0-.549.628,4.974,4.974,0,0,0-.149,1.428v6.026Zm14.014.22a3.708,3.708,0,0,1-1.836-.392,2.3,2.3,0,0,1-1.012-1.248,6.524,6.524,0,0,1-.322-2.252v-4.551h-1.946v-1.663h1.946V159.8h1.8v2.668h3.248v1.663h-3.248v4.551a5.646,5.646,0,0,0,.126,1.357,1.115,1.115,0,0,0,.416.675,1.464,1.464,0,0,0,.824.2,3.192,3.192,0,0,0,.84-.078.621.621,0,0,0,.377-.282,3.874,3.874,0,0,0,.275-.706l1.695.581a3.6,3.6,0,0,1-.612,1.279,2.1,2.1,0,0,1-.981.667A5.1,5.1,0,0,1,241.091,172.579Zm6.591,2.856a13.392,13.392,0,0,0,1.106-1.711,2.551,2.551,0,0,0,.306-1.13.984.984,0,0,1-.816-.282,1.8,1.8,0,0,1-.22-1.051,1.413,1.413,0,0,1,.306-1.044,2.313,2.313,0,0,1,2.244,0,1.413,1.413,0,0,1,.306,1.044,5.043,5.043,0,0,1-.4,2.064,8.948,8.948,0,0,1-1.452,2.111Zm1.8-10.373a1.643,1.643,0,0,1-1.122-.29,1.387,1.387,0,0,1-.306-1.028,1.413,1.413,0,0,1,.306-1.044,2.313,2.313,0,0,1,2.244,0,1.413,1.413,0,0,1,.306,1.044,1.387,1.387,0,0,1-.306,1.028A1.643,1.643,0,0,1,249.486,165.062Zm-213.8,59.083H34.056l-3.484-9.7H32.44l2.432,7.015,2.479-7.015H39.2Zm8.615.22a4.364,4.364,0,0,1-2.3-.518,2.9,2.9,0,0,1-1.208-1.616,11.86,11.86,0,0,1,0-5.869A2.9,2.9,0,0,1,42,214.745a4.364,4.364,0,0,1,2.3-.518,4.407,4.407,0,0,1,2.307.518,2.883,2.883,0,0,1,1.216,1.616,11.86,11.86,0,0,1,0,5.869,2.883,2.883,0,0,1-1.216,1.616A4.407,4.407,0,0,1,44.3,224.365Zm0-1.663a2.221,2.221,0,0,0,1.263-.306,1.711,1.711,0,0,0,.636-1.036,11.4,11.4,0,0,0,0-4.127,1.711,1.711,0,0,0-.636-1.036,2.221,2.221,0,0,0-1.263-.306,2.182,2.182,0,0,0-1.255.306,1.728,1.728,0,0,0-.628,1.036,11.4,11.4,0,0,0,0,4.127,1.728,1.728,0,0,0,.628,1.036A2.182,2.182,0,0,0,44.3,222.7Zm10.734-8.254v8.035h2.746v1.663h-7.3v-1.663h2.746V216.11H51.255v-1.663Zm-1.24-1.412a1.582,1.582,0,0,1-1.075-.275,1.91,1.91,0,0,1,0-2.024,1.582,1.582,0,0,1,1.075-.275,1.616,1.616,0,0,1,1.083.275,1.867,1.867,0,0,1,0,2.024A1.616,1.616,0,0,1,53.8,213.035Zm9.259,11.33a4.418,4.418,0,0,1-2.3-.51,2.858,2.858,0,0,1-1.208-1.609,11.922,11.922,0,0,1,0-5.885,2.9,2.9,0,0,1,1.208-1.616,4.364,4.364,0,0,1,2.3-.518,5.856,5.856,0,0,1,2.1.377v-3.013h1.8v12.554h-1.8v-.11A6.163,6.163,0,0,1,63.056,224.365Zm0-1.663a3.907,3.907,0,0,0,1.593-.243.744.744,0,0,0,.51-.667v-3.7a2.386,2.386,0,0,0-.494-1.663,2.106,2.106,0,0,0-1.609-.534,2.14,2.14,0,0,0-1.255.314,1.766,1.766,0,0,0-.628,1.044,8.711,8.711,0,0,0-.188,2.064,8.607,8.607,0,0,0,.188,2.056A1.723,1.723,0,0,0,61.8,222.4,2.182,2.182,0,0,0,63.056,222.7Zm23.367,1.444H84.555l-.8-2.919H80.177l-.8,2.919H77.509l3.515-12.554h1.9Zm-4.457-9.463-1.334,4.88H83.3Zm8.145,9.463h-1.6l-1.82-9.7h1.82l1.067,5.979,1.02-3.311h1.569l1,3.28,1.083-5.948h1.82l-1.836,9.7h-1.6l-1.255-3.672Zm10.436.22a6.4,6.4,0,0,1-2.221-.314,2.189,2.189,0,0,1-1.193-.981,3.683,3.683,0,0,1-.369-1.781,4.142,4.142,0,0,1,.369-1.938,2.011,2.011,0,0,1,1.177-.957,7.214,7.214,0,0,1,2.236-.275h1.977v-.345a2.524,2.524,0,0,0-.165-1.02.96.96,0,0,0-.588-.51,3.872,3.872,0,0,0-1.224-.149,2.918,2.918,0,0,0-1,.133,1.011,1.011,0,0,0-.534.479,4.59,4.59,0,0,0-.361,1.051l-1.726-.424a6.3,6.3,0,0,1,.706-1.789,2.569,2.569,0,0,1,1.13-1,4.326,4.326,0,0,1,1.789-.322,4.018,4.018,0,0,1,2.911.871,3.644,3.644,0,0,1,.871,2.676v3.672a1.857,1.857,0,0,0,.126.847.583.583,0,0,0,.534.2q.126,0,.565-.031v1.663q-.188.016-.518.016a2.341,2.341,0,0,1-1.883-.628,2.376,2.376,0,0,1-1.051.651A5.275,5.275,0,0,1,100.546,224.365Zm0-1.663a3.122,3.122,0,0,0,1.224-.188,1.071,1.071,0,0,0,.588-.643,4.063,4.063,0,0,0,.165-1.318v-.769h-1.977a6.444,6.444,0,0,0-1.271.086.752.752,0,0,0-.534.392,2.424,2.424,0,0,0-.157,1.028,1.888,1.888,0,0,0,.157.871.908.908,0,0,0,.573.416A4.543,4.543,0,0,0,100.546,222.7Zm8.239,1.444h-1.8V211.591h1.8v6.528h.031l3.154-3.672h2.181l-3.735,4.472,4.363,5.226H112.6l-3.719-4.363h-.094Zm10.891-1.444a2.587,2.587,0,0,0,1.342-.322,3.984,3.984,0,0,0,1.122-1.138l1.444.957a5.174,5.174,0,0,1-1.656,1.695,4.605,4.605,0,0,1-2.252.471,5.379,5.379,0,0,1-2.487-.471,2.689,2.689,0,0,1-1.271-1.554,12.246,12.246,0,0,1,0-6.089,2.689,2.689,0,0,1,1.271-1.554,5.379,5.379,0,0,1,2.487-.471,4.857,4.857,0,0,1,2.44.51,2.868,2.868,0,0,1,1.248,1.7,11.6,11.6,0,0,1,.377,3.343h-6.387a5.841,5.841,0,0,0,.282,1.742,1.651,1.651,0,0,0,.722.9A2.686,2.686,0,0,0,119.676,222.7Zm0-6.811a2.351,2.351,0,0,0-1.663.494,2.689,2.689,0,0,0-.628,1.734h4.5a3.524,3.524,0,0,0-.2-1.342,1.248,1.248,0,0,0-.683-.683A3.472,3.472,0,0,0,119.676,215.891Zm21.5,10.53a4.074,4.074,0,0,1-2.778-1.067,6.847,6.847,0,0,1-1.867-3.005,15.557,15.557,0,0,1,0-8.961,6.847,6.847,0,0,1,1.867-3.005,4.074,4.074,0,0,1,2.778-1.067v1.663a2.428,2.428,0,0,0-1.828.855,5.828,5.828,0,0,0-1.232,2.417,15.108,15.108,0,0,0,0,7.234,5.828,5.828,0,0,0,1.232,2.417,2.428,2.428,0,0,0,1.828.855Zm4-1.663A2.428,2.428,0,0,0,147,223.9a5.828,5.828,0,0,0,1.232-2.417,15.109,15.109,0,0,0,0-7.234A5.828,5.828,0,0,0,147,211.834a2.428,2.428,0,0,0-1.828-.855v-1.663a4.074,4.074,0,0,1,2.778,1.067,6.847,6.847,0,0,1,1.867,3.005,15.557,15.557,0,0,1,0,8.961,6.847,6.847,0,0,1-1.867,3.005,4.074,4.074,0,0,1-2.778,1.067ZM170,226.421a5.577,5.577,0,0,1-3.374-.808,3.05,3.05,0,0,1-1.051-2.581,8.446,8.446,0,0,1,.157-1.412,8.255,8.255,0,0,0,.126-1.067,1.754,1.754,0,0,0-.549-.91q-.549-.612-1.789-1.773,1.24-1.193,1.789-1.8a1.733,1.733,0,0,0,.549-.942,6.384,6.384,0,0,0-.126-.957,7.752,7.752,0,0,1-.157-1.444,3.073,3.073,0,0,1,1.051-2.589,5.535,5.535,0,0,1,3.374-.816v1.679a5.857,5.857,0,0,0-1.569.165,1.392,1.392,0,0,0-.816.549,1.957,1.957,0,0,0-.251,1.075,5.25,5.25,0,0,0,.157,1.208,4.1,4.1,0,0,1,.141.973,2.786,2.786,0,0,1-.424,1.467,5.818,5.818,0,0,1-1.334,1.436,5.582,5.582,0,0,1,1.342,1.4,2.7,2.7,0,0,1,.416,1.444,4.894,4.894,0,0,1-.126.957,6.25,6.25,0,0,0-.157,1.318,1.931,1.931,0,0,0,.243,1.051,1.37,1.37,0,0,0,.808.541,5.857,5.857,0,0,0,1.569.165Zm2.825-1.679a5.857,5.857,0,0,0,1.569-.165,1.407,1.407,0,0,0,.816-.541,1.883,1.883,0,0,0,.251-1.051,6.25,6.25,0,0,0-.157-1.318,4.894,4.894,0,0,1-.126-.957,2.743,2.743,0,0,1,.408-1.444,5.44,5.44,0,0,1,1.334-1.4,5.466,5.466,0,0,1-1.326-1.42,2.852,2.852,0,0,1-.416-1.483,4.1,4.1,0,0,1,.141-.973,5.25,5.25,0,0,0,.157-1.208,1.957,1.957,0,0,0-.251-1.075,1.4,1.4,0,0,0-.824-.549,5.949,5.949,0,0,0-1.577-.165v-1.679a5.573,5.573,0,0,1,3.382.816,3.063,3.063,0,0,1,1.059,2.589,7.752,7.752,0,0,1-.157,1.444,6.383,6.383,0,0,0-.126.957,1.8,1.8,0,0,0,.549.957q.549.628,1.773,1.789-1.208,1.13-1.765,1.758a1.811,1.811,0,0,0-.557.926,8.254,8.254,0,0,0,.126,1.067,8.446,8.446,0,0,1,.157,1.412,3.04,3.04,0,0,1-1.059,2.581,5.614,5.614,0,0,1-3.382.808ZM5.479,275.931H3.847l-3.484-9.7H2.231l2.432,7.015,2.479-7.015H8.995Zm8.615.22a4.364,4.364,0,0,1-2.3-.518,2.9,2.9,0,0,1-1.208-1.616,11.86,11.86,0,0,1,0-5.869,2.9,2.9,0,0,1,1.208-1.616,4.364,4.364,0,0,1,2.3-.518,4.407,4.407,0,0,1,2.307.518,2.883,2.883,0,0,1,1.216,1.616,11.86,11.86,0,0,1,0,5.869,2.883,2.883,0,0,1-1.216,1.616A4.407,4.407,0,0,1,14.095,276.151Zm0-1.663a2.221,2.221,0,0,0,1.263-.306,1.711,1.711,0,0,0,.636-1.036,11.4,11.4,0,0,0,0-4.127,1.711,1.711,0,0,0-.636-1.036,2.221,2.221,0,0,0-1.263-.306,2.182,2.182,0,0,0-1.255.306,1.728,1.728,0,0,0-.628,1.036,11.4,11.4,0,0,0,0,4.127,1.728,1.728,0,0,0,.628,1.036A2.182,2.182,0,0,0,14.095,274.487Zm10.734-8.254v8.035h2.746v1.663h-7.3v-1.663h2.746V267.9H21.047v-1.663Zm-1.24-1.412a1.582,1.582,0,0,1-1.075-.275,1.91,1.91,0,0,1,0-2.024,1.582,1.582,0,0,1,1.075-.275,1.616,1.616,0,0,1,1.083.275,1.867,1.867,0,0,1,0,2.024A1.616,1.616,0,0,1,23.589,264.821Zm9.259,11.33a4.418,4.418,0,0,1-2.3-.51,2.858,2.858,0,0,1-1.208-1.609,11.922,11.922,0,0,1,0-5.885,2.9,2.9,0,0,1,1.208-1.616,4.364,4.364,0,0,1,2.3-.518,5.856,5.856,0,0,1,2.1.377v-3.013h1.8v12.554h-1.8v-.11A6.163,6.163,0,0,1,32.848,276.151Zm0-1.663a3.907,3.907,0,0,0,1.593-.243.744.744,0,0,0,.51-.667v-3.7a2.386,2.386,0,0,0-.494-1.663,2.106,2.106,0,0,0-1.609-.534,2.14,2.14,0,0,0-1.255.314,1.766,1.766,0,0,0-.628,1.044,8.711,8.711,0,0,0-.188,2.064,8.607,8.607,0,0,0,.188,2.056,1.723,1.723,0,0,0,.628,1.028A2.182,2.182,0,0,0,32.848,274.487Zm18.91,1.663a7.648,7.648,0,0,1-1.969-.212,3.026,3.026,0,0,1-1.3-.706,4.451,4.451,0,0,1-.934-1.357l1.4-1.318a4.878,4.878,0,0,0,.565,1.208,1.519,1.519,0,0,0,.785.557,4.939,4.939,0,0,0,1.459.165,3.752,3.752,0,0,0,1.381-.2,1.169,1.169,0,0,0,.659-.651,3.646,3.646,0,0,0,.188-1.334,1.963,1.963,0,0,0-.2-.989,1.612,1.612,0,0,0-.675-.588,11.486,11.486,0,0,0-1.507-.589,12.188,12.188,0,0,1-2.189-.91,2.918,2.918,0,0,1-1.106-1.036,3.079,3.079,0,0,1-.345-1.554,4.7,4.7,0,0,1,.369-2.032,2.23,2.23,0,0,1,1.193-1.106,5.914,5.914,0,0,1,2.236-.345,7.269,7.269,0,0,1,1.813.188,3.014,3.014,0,0,1,1.216.62,4.084,4.084,0,0,1,.91,1.2l-1.287,1.4a4.917,4.917,0,0,0-.565-1.106,1.4,1.4,0,0,0-.738-.494,4.951,4.951,0,0,0-1.35-.141,3.742,3.742,0,0,0-1.248.157.975.975,0,0,0-.581.541,2.966,2.966,0,0,0-.165,1.122,1.616,1.616,0,0,0,.173.832,1.323,1.323,0,0,0,.588.479,11.775,11.775,0,0,0,1.373.494,12.187,12.187,0,0,1,2.33.942,2.987,2.987,0,0,1,1.193,1.153,3.7,3.7,0,0,1,.369,1.765,5.331,5.331,0,0,1-.392,2.244,2.432,2.432,0,0,1-1.263,1.216A6.008,6.008,0,0,1,51.757,276.151Zm10.436,0a3.708,3.708,0,0,1-1.836-.392,2.3,2.3,0,0,1-1.012-1.248,6.524,6.524,0,0,1-.322-2.252v-4.551H57.077v-1.663h1.946v-2.668h1.8v2.668h3.248v1.663H60.828v4.551a5.646,5.646,0,0,0,.126,1.357,1.115,1.115,0,0,0,.416.675,1.464,1.464,0,0,0,.824.2,3.191,3.191,0,0,0,.84-.078.621.621,0,0,0,.377-.282,3.875,3.875,0,0,0,.275-.706l1.695.581a3.6,3.6,0,0,1-.612,1.279,2.1,2.1,0,0,1-.981.667A5.1,5.1,0,0,1,62.193,276.151Zm8.145,0a6.4,6.4,0,0,1-2.221-.314,2.189,2.189,0,0,1-1.193-.981,3.683,3.683,0,0,1-.369-1.781,4.142,4.142,0,0,1,.369-1.938,2.011,2.011,0,0,1,1.177-.957,7.214,7.214,0,0,1,2.236-.275h1.977v-.345a2.524,2.524,0,0,0-.165-1.02.96.96,0,0,0-.588-.51,3.872,3.872,0,0,0-1.224-.149,2.918,2.918,0,0,0-1,.133,1.011,1.011,0,0,0-.534.479,4.59,4.59,0,0,0-.361,1.051l-1.726-.424a6.3,6.3,0,0,1,.706-1.789,2.569,2.569,0,0,1,1.13-1,4.326,4.326,0,0,1,1.789-.322,4.018,4.018,0,0,1,2.911.871,3.644,3.644,0,0,1,.871,2.676v3.672a1.857,1.857,0,0,0,.126.847.583.583,0,0,0,.534.2q.126,0,.565-.031v1.663q-.188.016-.518.016a2.341,2.341,0,0,1-1.883-.628,2.375,2.375,0,0,1-1.051.651A5.274,5.274,0,0,1,70.338,276.151Zm0-1.663a3.122,3.122,0,0,0,1.224-.188,1.071,1.071,0,0,0,.588-.643,4.063,4.063,0,0,0,.165-1.318v-.769H70.338a6.443,6.443,0,0,0-1.271.086.751.751,0,0,0-.534.392,2.424,2.424,0,0,0-.157,1.028,1.888,1.888,0,0,0,.157.871.908.908,0,0,0,.573.416A4.543,4.543,0,0,0,70.338,274.487Zm6.418,1.444v-9.7h1.8v.8a3.45,3.45,0,0,1,.973-.714,2.778,2.778,0,0,1,1.287-.306,4.018,4.018,0,0,1,1.507.243,2.522,2.522,0,0,1,1.028.785,5.3,5.3,0,0,1,.777,1.5l-1.616.738a5.623,5.623,0,0,0-.408-1.02,1.025,1.025,0,0,0-.479-.455,2.091,2.091,0,0,0-.808-.126,1.884,1.884,0,0,0-1.742.84,4.691,4.691,0,0,0-.518,2.44v4.975Zm13.684.22a3.708,3.708,0,0,1-1.836-.392,2.3,2.3,0,0,1-1.012-1.248,6.524,6.524,0,0,1-.322-2.252v-4.551H85.324v-1.663H87.27v-2.668h1.8v2.668h3.248v1.663H89.075v4.551a5.646,5.646,0,0,0,.126,1.357,1.115,1.115,0,0,0,.416.675,1.464,1.464,0,0,0,.824.2,3.191,3.191,0,0,0,.84-.078.621.621,0,0,0,.377-.282,3.875,3.875,0,0,0,.275-.706l1.695.581a3.6,3.6,0,0,1-.612,1.279,2.1,2.1,0,0,1-.981.667A5.1,5.1,0,0,1,90.44,276.151Zm20.526,2.056a4.074,4.074,0,0,1-2.778-1.067,6.847,6.847,0,0,1-1.867-3.005,15.557,15.557,0,0,1,0-8.961,6.848,6.848,0,0,1,1.867-3.005,4.074,4.074,0,0,1,2.778-1.067v1.663a2.428,2.428,0,0,0-1.828.855,5.829,5.829,0,0,0-1.232,2.417,15.108,15.108,0,0,0,0,7.234,5.829,5.829,0,0,0,1.232,2.417,2.428,2.428,0,0,0,1.828.855Zm4-1.663a2.428,2.428,0,0,0,1.828-.855,5.829,5.829,0,0,0,1.232-2.417,15.108,15.108,0,0,0,0-7.234,5.828,5.828,0,0,0-1.232-2.417,2.428,2.428,0,0,0-1.828-.855V261.1a4.074,4.074,0,0,1,2.778,1.067,6.847,6.847,0,0,1,1.867,3.005,15.557,15.557,0,0,1,0,8.961,6.847,6.847,0,0,1-1.867,3.005,4.074,4.074,0,0,1-2.778,1.067Zm24.826,1.663a5.576,5.576,0,0,1-3.374-.808,3.05,3.05,0,0,1-1.051-2.581,8.446,8.446,0,0,1,.157-1.412,8.256,8.256,0,0,0,.126-1.067,1.754,1.754,0,0,0-.549-.91q-.549-.612-1.789-1.773,1.24-1.193,1.789-1.8a1.733,1.733,0,0,0,.549-.942,6.384,6.384,0,0,0-.126-.957,7.752,7.752,0,0,1-.157-1.444,3.073,3.073,0,0,1,1.051-2.589,5.535,5.535,0,0,1,3.374-.816v1.679a5.858,5.858,0,0,0-1.569.165,1.392,1.392,0,0,0-.816.549,1.957,1.957,0,0,0-.251,1.075,5.251,5.251,0,0,0,.157,1.208,4.105,4.105,0,0,1,.141.973,2.786,2.786,0,0,1-.424,1.467,5.817,5.817,0,0,1-1.334,1.436,5.582,5.582,0,0,1,1.342,1.4,2.7,2.7,0,0,1,.416,1.444,4.894,4.894,0,0,1-.126.957,6.249,6.249,0,0,0-.157,1.318,1.93,1.93,0,0,0,.243,1.051,1.369,1.369,0,0,0,.808.541,5.856,5.856,0,0,0,1.569.165Zm2.825-1.679a5.856,5.856,0,0,0,1.569-.165,1.406,1.406,0,0,0,.816-.541,1.882,1.882,0,0,0,.251-1.051,6.249,6.249,0,0,0-.157-1.318,4.894,4.894,0,0,1-.126-.957,2.743,2.743,0,0,1,.408-1.444,5.44,5.44,0,0,1,1.334-1.4,5.466,5.466,0,0,1-1.326-1.42,2.852,2.852,0,0,1-.416-1.483,4.1,4.1,0,0,1,.141-.973,5.25,5.25,0,0,0,.157-1.208,1.957,1.957,0,0,0-.251-1.075,1.4,1.4,0,0,0-.824-.549,5.949,5.949,0,0,0-1.577-.165V261.1a5.573,5.573,0,0,1,3.382.816,3.062,3.062,0,0,1,1.059,2.589,7.751,7.751,0,0,1-.157,1.444,6.384,6.384,0,0,0-.126.957,1.8,1.8,0,0,0,.549.957q.549.628,1.773,1.789-1.208,1.13-1.765,1.758a1.811,1.811,0,0,0-.557.926,8.255,8.255,0,0,0,.126,1.067,8.444,8.444,0,0,1,.157,1.412A3.04,3.04,0,0,1,146,277.4a5.614,5.614,0,0,1-3.382.808ZM65.9,327.717H64.265l-3.484-9.7h1.867l2.432,7.015,2.479-7.015h1.852Zm8.615.22a4.364,4.364,0,0,1-2.3-.518A2.9,2.9,0,0,1,71,325.8a11.86,11.86,0,0,1,0-5.869,2.9,2.9,0,0,1,1.208-1.616,5.379,5.379,0,0,1,4.606,0,2.883,2.883,0,0,1,1.216,1.616,11.86,11.86,0,0,1,0,5.869,2.883,2.883,0,0,1-1.216,1.616A4.407,4.407,0,0,1,74.512,327.937Zm0-1.663a2.221,2.221,0,0,0,1.263-.306,1.711,1.711,0,0,0,.636-1.036,11.4,11.4,0,0,0,0-4.127,1.711,1.711,0,0,0-.636-1.036,2.221,2.221,0,0,0-1.263-.306,2.182,2.182,0,0,0-1.255.306,1.728,1.728,0,0,0-.628,1.036,11.4,11.4,0,0,0,0,4.127,1.728,1.728,0,0,0,.628,1.036A2.182,2.182,0,0,0,74.512,326.274Zm10.734-8.254v8.035h2.746v1.663h-7.3v-1.663h2.746v-6.371H81.464v-1.663Zm-1.24-1.412a1.582,1.582,0,0,1-1.075-.275,1.91,1.91,0,0,1,0-2.024,1.582,1.582,0,0,1,1.075-.275,1.616,1.616,0,0,1,1.083.275,1.867,1.867,0,0,1,0,2.024A1.616,1.616,0,0,1,84.006,316.607Zm9.259,11.33a4.419,4.419,0,0,1-2.3-.51,2.858,2.858,0,0,1-1.208-1.609,11.922,11.922,0,0,1,0-5.885,2.9,2.9,0,0,1,1.208-1.616,4.364,4.364,0,0,1,2.3-.518,5.856,5.856,0,0,1,2.1.377v-3.013h1.8v12.554h-1.8v-.11A6.162,6.162,0,0,1,93.265,327.937Zm0-1.663a3.907,3.907,0,0,0,1.593-.243.744.744,0,0,0,.51-.667v-3.7A2.386,2.386,0,0,0,94.873,320a2.106,2.106,0,0,0-1.609-.534,2.14,2.14,0,0,0-1.255.314,1.766,1.766,0,0,0-.628,1.044,8.711,8.711,0,0,0-.188,2.064,8.607,8.607,0,0,0,.188,2.056,1.723,1.723,0,0,0,.628,1.028A2.182,2.182,0,0,0,93.265,326.274Zm18.91,1.663a4.351,4.351,0,0,1-2.268-.5,2.847,2.847,0,0,1-1.193-1.609,9.689,9.689,0,0,1-.369-2.974v-7.689h1.8v7.689a9.261,9.261,0,0,0,.18,2.1,1.678,1.678,0,0,0,.612,1.028,2.154,2.154,0,0,0,1.232.3,2.193,2.193,0,0,0,1.24-.3,1.661,1.661,0,0,0,.62-1.028,9.261,9.261,0,0,0,.18-2.1v-7.689h1.8v7.689a9.69,9.69,0,0,1-.369,2.974,2.835,2.835,0,0,1-1.2,1.609A4.394,4.394,0,0,1,112.175,327.937Zm5.618,2.636V318.019h1.82v.094a6.391,6.391,0,0,1,2.087-.314,4.462,4.462,0,0,1,2.307.51,2.847,2.847,0,0,1,1.216,1.609,11.891,11.891,0,0,1,0,5.877,2.884,2.884,0,0,1-1.216,1.624,4.407,4.407,0,0,1-2.307.518,5.731,5.731,0,0,1-2.087-.377v3.013Zm3.908-4.3a2.178,2.178,0,0,0,1.263-.314,1.748,1.748,0,0,0,.636-1.044,8.711,8.711,0,0,0,.188-2.064,8.607,8.607,0,0,0-.188-2.056,1.706,1.706,0,0,0-.636-1.028,2.221,2.221,0,0,0-1.263-.306q-2.087,0-2.087.91v3.7a2.412,2.412,0,0,0,.486,1.663A2.078,2.078,0,0,0,121.7,326.274Zm9.227,1.663a4.419,4.419,0,0,1-2.3-.51,2.858,2.858,0,0,1-1.208-1.609,11.922,11.922,0,0,1,0-5.885,2.9,2.9,0,0,1,1.208-1.616,4.364,4.364,0,0,1,2.3-.518,5.856,5.856,0,0,1,2.1.377v-3.013h1.8v12.554h-1.8v-.11A6.162,6.162,0,0,1,130.927,327.937Zm0-1.663a3.907,3.907,0,0,0,1.593-.243.744.744,0,0,0,.51-.667v-3.7a2.386,2.386,0,0,0-.494-1.663,2.106,2.106,0,0,0-1.609-.534,2.14,2.14,0,0,0-1.255.314,1.766,1.766,0,0,0-.628,1.044,8.711,8.711,0,0,0-.188,2.064,8.608,8.608,0,0,0,.188,2.056,1.723,1.723,0,0,0,.628,1.028A2.182,2.182,0,0,0,130.927,326.274Zm9.243,1.663a6.4,6.4,0,0,1-2.221-.314,2.189,2.189,0,0,1-1.193-.981,3.682,3.682,0,0,1-.369-1.781,4.142,4.142,0,0,1,.369-1.938,2.011,2.011,0,0,1,1.177-.957,7.213,7.213,0,0,1,2.236-.275h1.977v-.345a2.524,2.524,0,0,0-.165-1.02.96.96,0,0,0-.588-.51,3.871,3.871,0,0,0-1.224-.149,2.918,2.918,0,0,0-1,.133,1.011,1.011,0,0,0-.534.479,4.59,4.59,0,0,0-.361,1.051l-1.726-.424a6.3,6.3,0,0,1,.706-1.789,2.569,2.569,0,0,1,1.13-1,4.326,4.326,0,0,1,1.789-.322,4.018,4.018,0,0,1,2.911.871,3.644,3.644,0,0,1,.871,2.676v3.672a1.857,1.857,0,0,0,.126.847.583.583,0,0,0,.534.2q.126,0,.565-.031V327.7q-.188.016-.518.016a2.341,2.341,0,0,1-1.883-.628,2.375,2.375,0,0,1-1.051.651A5.275,5.275,0,0,1,140.171,327.937Zm0-1.663a3.122,3.122,0,0,0,1.224-.188,1.071,1.071,0,0,0,.588-.643,4.063,4.063,0,0,0,.165-1.318v-.769h-1.977a6.442,6.442,0,0,0-1.271.086.751.751,0,0,0-.534.392,2.424,2.424,0,0,0-.157,1.028,1.888,1.888,0,0,0,.157.871.908.908,0,0,0,.573.416A4.543,4.543,0,0,0,140.171,326.274Zm10.687,1.663a3.708,3.708,0,0,1-1.836-.392,2.3,2.3,0,0,1-1.012-1.248,6.524,6.524,0,0,1-.322-2.252v-4.551h-1.946v-1.663h1.946v-2.668h1.8v2.668h3.248v1.663h-3.248v4.551a5.646,5.646,0,0,0,.126,1.357,1.115,1.115,0,0,0,.416.675,1.464,1.464,0,0,0,.824.2,3.191,3.191,0,0,0,.84-.078.621.621,0,0,0,.377-.282,3.876,3.876,0,0,0,.275-.706l1.695.581a3.6,3.6,0,0,1-.612,1.279,2.1,2.1,0,0,1-.981.667A5.1,5.1,0,0,1,150.857,327.937Zm8.443-1.663a2.587,2.587,0,0,0,1.342-.322,3.985,3.985,0,0,0,1.122-1.138l1.444.957a5.174,5.174,0,0,1-1.656,1.695,4.605,4.605,0,0,1-2.252.471,5.379,5.379,0,0,1-2.487-.471,2.689,2.689,0,0,1-1.271-1.554,12.246,12.246,0,0,1,0-6.089,2.689,2.689,0,0,1,1.271-1.554,5.38,5.38,0,0,1,2.487-.471,4.856,4.856,0,0,1,2.44.51,2.868,2.868,0,0,1,1.248,1.7,11.6,11.6,0,0,1,.377,3.343h-6.387a5.841,5.841,0,0,0,.282,1.742,1.651,1.651,0,0,0,.722.9A2.687,2.687,0,0,0,159.3,326.274Zm0-6.811a2.351,2.351,0,0,0-1.663.494,2.689,2.689,0,0,0-.628,1.734h4.5a3.524,3.524,0,0,0-.2-1.342,1.248,1.248,0,0,0-.683-.683A3.471,3.471,0,0,0,159.3,319.463Zm21.5,10.53a4.074,4.074,0,0,1-2.778-1.067,6.847,6.847,0,0,1-1.867-3.005,15.557,15.557,0,0,1,0-8.961,6.848,6.848,0,0,1,1.867-3.005,4.074,4.074,0,0,1,2.778-1.067v1.663a2.428,2.428,0,0,0-1.828.855,5.828,5.828,0,0,0-1.232,2.417,15.108,15.108,0,0,0,0,7.234,5.828,5.828,0,0,0,1.232,2.417,2.428,2.428,0,0,0,1.828.855Zm4-1.663a2.428,2.428,0,0,0,1.828-.855,5.828,5.828,0,0,0,1.232-2.417,15.108,15.108,0,0,0,0-7.234,5.828,5.828,0,0,0-1.232-2.417,2.428,2.428,0,0,0-1.828-.855v-1.663a4.074,4.074,0,0,1,2.778,1.067,6.848,6.848,0,0,1,1.867,3.005,15.557,15.557,0,0,1,0,8.961,6.847,6.847,0,0,1-1.867,3.005,4.074,4.074,0,0,1-2.778,1.067Zm24.826,1.663a5.577,5.577,0,0,1-3.374-.808A3.05,3.05,0,0,1,205.2,326.6a8.446,8.446,0,0,1,.157-1.412,8.256,8.256,0,0,0,.126-1.067,1.754,1.754,0,0,0-.549-.91q-.549-.612-1.789-1.773,1.24-1.193,1.789-1.8a1.733,1.733,0,0,0,.549-.942,6.385,6.385,0,0,0-.126-.957,7.752,7.752,0,0,1-.157-1.444,3.073,3.073,0,0,1,1.051-2.589,5.535,5.535,0,0,1,3.374-.816v1.679a5.858,5.858,0,0,0-1.569.165,1.392,1.392,0,0,0-.816.549,1.957,1.957,0,0,0-.251,1.075,5.25,5.25,0,0,0,.157,1.208,4.105,4.105,0,0,1,.141.973,2.786,2.786,0,0,1-.424,1.467,5.818,5.818,0,0,1-1.334,1.436,5.583,5.583,0,0,1,1.342,1.4,2.7,2.7,0,0,1,.416,1.444,4.894,4.894,0,0,1-.126.957,6.25,6.25,0,0,0-.157,1.318,1.93,1.93,0,0,0,.243,1.051,1.369,1.369,0,0,0,.808.541,5.855,5.855,0,0,0,1.569.165Zm2.825-1.679a5.855,5.855,0,0,0,1.569-.165,1.406,1.406,0,0,0,.816-.541,1.882,1.882,0,0,0,.251-1.051,6.249,6.249,0,0,0-.157-1.318,4.894,4.894,0,0,1-.126-.957,2.743,2.743,0,0,1,.408-1.444,5.441,5.441,0,0,1,1.334-1.4,5.467,5.467,0,0,1-1.326-1.42,2.852,2.852,0,0,1-.416-1.483,4.1,4.1,0,0,1,.141-.973,5.25,5.25,0,0,0,.157-1.208,1.957,1.957,0,0,0-.251-1.075,1.4,1.4,0,0,0-.824-.549,5.95,5.95,0,0,0-1.577-.165v-1.679a5.573,5.573,0,0,1,3.382.816,3.063,3.063,0,0,1,1.059,2.589,7.751,7.751,0,0,1-.157,1.444,6.384,6.384,0,0,0-.126.957,1.8,1.8,0,0,0,.549.957q.549.628,1.773,1.789-1.208,1.13-1.765,1.758a1.811,1.811,0,0,0-.557.926,8.255,8.255,0,0,0,.126,1.067,8.444,8.444,0,0,1,.157,1.412,3.04,3.04,0,0,1-1.059,2.581,5.614,5.614,0,0,1-3.382.808ZM35.688,379.5H34.056l-3.484-9.7H32.44l2.432,7.015,2.479-7.015H39.2Zm8.615.22a4.364,4.364,0,0,1-2.3-.518,2.9,2.9,0,0,1-1.208-1.616,11.86,11.86,0,0,1,0-5.869A2.9,2.9,0,0,1,42,370.1a4.364,4.364,0,0,1,2.3-.518,4.408,4.408,0,0,1,2.307.518,2.883,2.883,0,0,1,1.216,1.616,11.86,11.86,0,0,1,0,5.869,2.883,2.883,0,0,1-1.216,1.616A4.407,4.407,0,0,1,44.3,379.723Zm0-1.663a2.221,2.221,0,0,0,1.263-.306,1.711,1.711,0,0,0,.636-1.036,11.4,11.4,0,0,0,0-4.127,1.711,1.711,0,0,0-.636-1.036,2.221,2.221,0,0,0-1.263-.306,2.182,2.182,0,0,0-1.255.306,1.728,1.728,0,0,0-.628,1.036,11.4,11.4,0,0,0,0,4.127,1.728,1.728,0,0,0,.628,1.036A2.182,2.182,0,0,0,44.3,378.06Zm10.734-8.254v8.035h2.746V379.5h-7.3V377.84h2.746v-6.371H51.255v-1.663Zm-1.24-1.412a1.582,1.582,0,0,1-1.075-.275,1.91,1.91,0,0,1,0-2.024,1.582,1.582,0,0,1,1.075-.275,1.616,1.616,0,0,1,1.083.275,1.867,1.867,0,0,1,0,2.024A1.616,1.616,0,0,1,53.8,368.393Zm9.259,11.33a4.418,4.418,0,0,1-2.3-.51,2.858,2.858,0,0,1-1.208-1.608,11.922,11.922,0,0,1,0-5.885,2.9,2.9,0,0,1,1.208-1.616,4.364,4.364,0,0,1,2.3-.518,5.856,5.856,0,0,1,2.1.377v-3.013h1.8V379.5h-1.8v-.11A6.163,6.163,0,0,1,63.056,379.723Zm0-1.663a3.906,3.906,0,0,0,1.593-.243.743.743,0,0,0,.51-.667v-3.7a2.386,2.386,0,0,0-.494-1.663,2.106,2.106,0,0,0-1.609-.534,2.139,2.139,0,0,0-1.255.314,1.766,1.766,0,0,0-.628,1.044,8.711,8.711,0,0,0-.188,2.064,8.607,8.607,0,0,0,.188,2.056,1.723,1.723,0,0,0,.628,1.028A2.182,2.182,0,0,0,63.056,378.06Zm22.99-11.11v1.663H80.177v4.143h3.751v1.663H80.177V379.5h-1.8V366.949Zm6.654,2.856v8.035h2.746V379.5h-7.3V377.84H90.9v-6.371H88.918v-1.663Zm-1.24-1.412a1.582,1.582,0,0,1-1.075-.275,1.91,1.91,0,0,1,0-2.024,1.582,1.582,0,0,1,1.075-.275,1.616,1.616,0,0,1,1.083.275,1.867,1.867,0,0,1,0,2.024A1.616,1.616,0,0,1,91.46,368.393Zm11.5,1.412h2.071l-3.2,4.849,3.2,4.849h-2.071l-2.166-3.28-2.166,3.28H96.56l3.2-4.849-3.2-4.849h2.071l2.166,3.28Zm7.3,8.254a2.587,2.587,0,0,0,1.342-.322,3.984,3.984,0,0,0,1.122-1.138l1.444.957a5.174,5.174,0,0,1-1.656,1.695,4.605,4.605,0,0,1-2.252.471,5.379,5.379,0,0,1-2.487-.471A2.689,2.689,0,0,1,106.5,377.7a12.246,12.246,0,0,1,0-6.089,2.689,2.689,0,0,1,1.271-1.554,5.38,5.38,0,0,1,2.487-.471,4.857,4.857,0,0,1,2.44.51,2.868,2.868,0,0,1,1.248,1.7,11.6,11.6,0,0,1,.377,3.343h-6.387a5.841,5.841,0,0,0,.282,1.742,1.651,1.651,0,0,0,.722.9A2.686,2.686,0,0,0,110.26,378.06Zm0-6.811a2.351,2.351,0,0,0-1.663.494,2.689,2.689,0,0,0-.628,1.734h4.5a3.524,3.524,0,0,0-.2-1.342,1.248,1.248,0,0,0-.683-.683A3.472,3.472,0,0,0,110.26,371.249Zm9.29,8.474a4.418,4.418,0,0,1-2.3-.51,2.858,2.858,0,0,1-1.208-1.608,11.922,11.922,0,0,1,0-5.885,2.9,2.9,0,0,1,1.208-1.616,4.364,4.364,0,0,1,2.3-.518,5.856,5.856,0,0,1,2.1.377v-3.013h1.8V379.5h-1.8v-.11A6.163,6.163,0,0,1,119.55,379.723Zm0-1.663a3.906,3.906,0,0,0,1.593-.243.743.743,0,0,0,.51-.667v-3.7a2.386,2.386,0,0,0-.494-1.663,2.106,2.106,0,0,0-1.609-.534,2.139,2.139,0,0,0-1.255.314,1.766,1.766,0,0,0-.628,1.044,8.711,8.711,0,0,0-.188,2.064,8.607,8.607,0,0,0,.188,2.056,1.723,1.723,0,0,0,.628,1.028A2.182,2.182,0,0,0,119.55,378.06Zm9.494,1.663a4.351,4.351,0,0,1-2.268-.5,2.847,2.847,0,0,1-1.193-1.608,9.69,9.69,0,0,1-.369-2.974v-7.689h1.8v7.689a9.26,9.26,0,0,0,.18,2.1,1.678,1.678,0,0,0,.612,1.028,2.154,2.154,0,0,0,1.232.3,2.194,2.194,0,0,0,1.24-.3,1.661,1.661,0,0,0,.62-1.028,9.261,9.261,0,0,0,.18-2.1v-7.689h1.8v7.689a9.69,9.69,0,0,1-.369,2.974,2.835,2.835,0,0,1-1.2,1.608A4.394,4.394,0,0,1,129.044,379.723Zm5.618,2.636V369.805h1.82v.094a6.39,6.39,0,0,1,2.087-.314,4.463,4.463,0,0,1,2.307.51,2.847,2.847,0,0,1,1.216,1.609,11.891,11.891,0,0,1,0,5.877,2.884,2.884,0,0,1-1.216,1.624,4.407,4.407,0,0,1-2.307.518,5.732,5.732,0,0,1-2.087-.377v3.013Zm3.908-4.3a2.178,2.178,0,0,0,1.263-.314,1.748,1.748,0,0,0,.636-1.044,8.71,8.71,0,0,0,.188-2.064,8.607,8.607,0,0,0-.188-2.056,1.706,1.706,0,0,0-.636-1.028,2.221,2.221,0,0,0-1.263-.306q-2.087,0-2.087.91v3.7a2.412,2.412,0,0,0,.486,1.663A2.079,2.079,0,0,0,138.57,378.06Zm9.227,1.663a4.418,4.418,0,0,1-2.3-.51,2.858,2.858,0,0,1-1.208-1.608,11.923,11.923,0,0,1,0-5.885A2.9,2.9,0,0,1,145.5,370.1a4.364,4.364,0,0,1,2.3-.518,5.856,5.856,0,0,1,2.1.377v-3.013h1.8V379.5h-1.8v-.11A6.163,6.163,0,0,1,147.8,379.723Zm0-1.663a3.907,3.907,0,0,0,1.593-.243.744.744,0,0,0,.51-.667v-3.7a2.386,2.386,0,0,0-.494-1.663,2.106,2.106,0,0,0-1.609-.534,2.139,2.139,0,0,0-1.255.314,1.766,1.766,0,0,0-.628,1.044,8.711,8.711,0,0,0-.188,2.064,8.607,8.607,0,0,0,.188,2.056,1.723,1.723,0,0,0,.628,1.028A2.182,2.182,0,0,0,147.8,378.06Zm9.243,1.663a6.4,6.4,0,0,1-2.221-.314,2.189,2.189,0,0,1-1.193-.981,3.683,3.683,0,0,1-.369-1.781,4.142,4.142,0,0,1,.369-1.938,2.011,2.011,0,0,1,1.177-.957,7.214,7.214,0,0,1,2.236-.275h1.977v-.345a2.524,2.524,0,0,0-.165-1.02.96.96,0,0,0-.588-.51,3.872,3.872,0,0,0-1.224-.149,2.918,2.918,0,0,0-1,.133,1.011,1.011,0,0,0-.534.479,4.589,4.589,0,0,0-.361,1.051l-1.726-.424a6.3,6.3,0,0,1,.706-1.789,2.569,2.569,0,0,1,1.13-1,4.327,4.327,0,0,1,1.789-.322,4.018,4.018,0,0,1,2.911.871,3.644,3.644,0,0,1,.871,2.676V376.8a1.858,1.858,0,0,0,.126.847.583.583,0,0,0,.534.2q.126,0,.565-.031v1.663q-.188.016-.518.016a2.341,2.341,0,0,1-1.883-.628,2.375,2.375,0,0,1-1.051.651A5.274,5.274,0,0,1,157.04,379.723Zm0-1.663a3.122,3.122,0,0,0,1.224-.188,1.071,1.071,0,0,0,.588-.643,4.063,4.063,0,0,0,.165-1.318v-.769H157.04a6.442,6.442,0,0,0-1.271.086.752.752,0,0,0-.534.392,2.424,2.424,0,0,0-.157,1.028,1.888,1.888,0,0,0,.157.871.908.908,0,0,0,.573.416A4.542,4.542,0,0,0,157.04,378.06Zm10.687,1.663a3.708,3.708,0,0,1-1.836-.392,2.3,2.3,0,0,1-1.012-1.248,6.524,6.524,0,0,1-.322-2.252V371.28h-1.946v-1.663h1.946v-2.668h1.8v2.668h3.248v1.663h-3.248v4.551a5.646,5.646,0,0,0,.126,1.357,1.115,1.115,0,0,0,.416.675,1.464,1.464,0,0,0,.824.2,3.191,3.191,0,0,0,.84-.078.621.621,0,0,0,.377-.282,3.875,3.875,0,0,0,.275-.706l1.695.581a3.6,3.6,0,0,1-.612,1.279,2.1,2.1,0,0,1-.981.667A5.1,5.1,0,0,1,167.727,379.723Zm8.443-1.663a2.587,2.587,0,0,0,1.342-.322,3.984,3.984,0,0,0,1.122-1.138l1.444.957a5.174,5.174,0,0,1-1.656,1.695,4.605,4.605,0,0,1-2.252.471,5.379,5.379,0,0,1-2.487-.471,2.689,2.689,0,0,1-1.271-1.554,12.246,12.246,0,0,1,0-6.089,2.689,2.689,0,0,1,1.271-1.554,5.38,5.38,0,0,1,2.487-.471,4.857,4.857,0,0,1,2.44.51,2.868,2.868,0,0,1,1.248,1.7,11.6,11.6,0,0,1,.377,3.343h-6.387a5.842,5.842,0,0,0,.282,1.742,1.651,1.651,0,0,0,.722.9A2.686,2.686,0,0,0,176.17,378.06Zm0-6.811a2.351,2.351,0,0,0-1.663.494,2.689,2.689,0,0,0-.628,1.734h4.5a3.524,3.524,0,0,0-.2-1.342,1.248,1.248,0,0,0-.683-.683A3.472,3.472,0,0,0,176.17,371.249Zm21.5,10.53a4.074,4.074,0,0,1-2.778-1.067,6.847,6.847,0,0,1-1.867-3.005,15.557,15.557,0,0,1,0-8.961,6.847,6.847,0,0,1,1.867-3.005,4.074,4.074,0,0,1,2.778-1.067v1.663a2.428,2.428,0,0,0-1.828.855,5.828,5.828,0,0,0-1.232,2.417,15.108,15.108,0,0,0,0,7.234,5.828,5.828,0,0,0,1.232,2.417,2.428,2.428,0,0,0,1.828.855Zm4-1.663a2.428,2.428,0,0,0,1.828-.855,5.828,5.828,0,0,0,1.232-2.417,15.108,15.108,0,0,0,0-7.234,5.828,5.828,0,0,0-1.232-2.417,2.428,2.428,0,0,0-1.828-.855v-1.663a4.074,4.074,0,0,1,2.778,1.067,6.847,6.847,0,0,1,1.867,3.005,15.557,15.557,0,0,1,0,8.961,6.847,6.847,0,0,1-1.867,3.005,4.074,4.074,0,0,1-2.778,1.067Zm24.826,1.663a5.576,5.576,0,0,1-3.374-.808,3.05,3.05,0,0,1-1.051-2.581,8.446,8.446,0,0,1,.157-1.412,8.255,8.255,0,0,0,.126-1.067,1.754,1.754,0,0,0-.549-.91q-.549-.612-1.789-1.773,1.24-1.193,1.789-1.8a1.733,1.733,0,0,0,.549-.942,6.385,6.385,0,0,0-.126-.957,7.752,7.752,0,0,1-.157-1.444,3.073,3.073,0,0,1,1.051-2.589,5.535,5.535,0,0,1,3.374-.816v1.679a5.858,5.858,0,0,0-1.569.165,1.392,1.392,0,0,0-.816.549,1.957,1.957,0,0,0-.251,1.075,5.25,5.25,0,0,0,.157,1.208,4.1,4.1,0,0,1,.141.973,2.786,2.786,0,0,1-.424,1.467,5.819,5.819,0,0,1-1.334,1.436,5.582,5.582,0,0,1,1.342,1.4,2.7,2.7,0,0,1,.416,1.444,4.894,4.894,0,0,1-.126.957,6.25,6.25,0,0,0-.157,1.318,1.931,1.931,0,0,0,.243,1.051,1.37,1.37,0,0,0,.808.541,5.856,5.856,0,0,0,1.569.165Zm2.825-1.679a5.856,5.856,0,0,0,1.569-.165,1.407,1.407,0,0,0,.816-.541,1.883,1.883,0,0,0,.251-1.051,6.25,6.25,0,0,0-.157-1.318,4.894,4.894,0,0,1-.126-.957,2.743,2.743,0,0,1,.408-1.444,5.441,5.441,0,0,1,1.334-1.4,5.466,5.466,0,0,1-1.326-1.42,2.852,2.852,0,0,1-.416-1.483,4.105,4.105,0,0,1,.141-.973,5.25,5.25,0,0,0,.157-1.208,1.957,1.957,0,0,0-.251-1.075,1.4,1.4,0,0,0-.824-.549,5.949,5.949,0,0,0-1.577-.165v-1.679a5.573,5.573,0,0,1,3.382.816,3.063,3.063,0,0,1,1.059,2.589,7.752,7.752,0,0,1-.157,1.444,6.384,6.384,0,0,0-.126.957,1.8,1.8,0,0,0,.549.957q.549.628,1.773,1.789-1.208,1.13-1.765,1.758a1.811,1.811,0,0,0-.557.926,8.254,8.254,0,0,0,.126,1.067,8.446,8.446,0,0,1,.157,1.412,3.04,3.04,0,0,1-1.059,2.581,5.614,5.614,0,0,1-3.382.808ZM35.688,431.29H34.056l-3.484-9.7H32.44l2.432,7.015,2.479-7.015H39.2Zm8.615.22a4.364,4.364,0,0,1-2.3-.518,2.9,2.9,0,0,1-1.208-1.616,11.86,11.86,0,0,1,0-5.869A2.9,2.9,0,0,1,42,421.89a4.364,4.364,0,0,1,2.3-.518,4.408,4.408,0,0,1,2.307.518,2.883,2.883,0,0,1,1.216,1.616,11.86,11.86,0,0,1,0,5.869,2.883,2.883,0,0,1-1.216,1.616A4.407,4.407,0,0,1,44.3,431.509Zm0-1.663a2.221,2.221,0,0,0,1.263-.306A1.711,1.711,0,0,0,46.2,428.5a11.4,11.4,0,0,0,0-4.127,1.711,1.711,0,0,0-.636-1.036,2.221,2.221,0,0,0-1.263-.306,2.182,2.182,0,0,0-1.255.306,1.728,1.728,0,0,0-.628,1.036,11.4,11.4,0,0,0,0,4.127,1.728,1.728,0,0,0,.628,1.036A2.182,2.182,0,0,0,44.3,429.846Zm10.734-8.254v8.035h2.746v1.663h-7.3v-1.663h2.746v-6.371H51.255v-1.663Zm-1.24-1.412a1.582,1.582,0,0,1-1.075-.275,1.91,1.91,0,0,1,0-2.024,1.582,1.582,0,0,1,1.075-.275,1.616,1.616,0,0,1,1.083.275,1.867,1.867,0,0,1,0,2.024A1.616,1.616,0,0,1,53.8,420.179Zm9.259,11.33a4.419,4.419,0,0,1-2.3-.51,2.858,2.858,0,0,1-1.208-1.609,11.922,11.922,0,0,1,0-5.885,2.9,2.9,0,0,1,1.208-1.616,4.364,4.364,0,0,1,2.3-.518,5.857,5.857,0,0,1,2.1.377v-3.013h1.8V431.29h-1.8v-.11A6.162,6.162,0,0,1,63.056,431.509Zm0-1.663a3.907,3.907,0,0,0,1.593-.243.744.744,0,0,0,.51-.667v-3.7a2.386,2.386,0,0,0-.494-1.663,2.106,2.106,0,0,0-1.609-.534,2.14,2.14,0,0,0-1.255.314,1.766,1.766,0,0,0-.628,1.044,8.711,8.711,0,0,0-.188,2.064,8.607,8.607,0,0,0,.188,2.056,1.723,1.723,0,0,0,.628,1.028A2.182,2.182,0,0,0,63.056,429.846Zm22.66,1.444H78.655V418.735h1.8v10.891h5.257Zm5.414.22a6.4,6.4,0,0,1-2.221-.314,2.189,2.189,0,0,1-1.193-.981,3.682,3.682,0,0,1-.369-1.781,4.142,4.142,0,0,1,.369-1.938,2.011,2.011,0,0,1,1.177-.957,7.213,7.213,0,0,1,2.236-.275h1.977v-.345a2.524,2.524,0,0,0-.165-1.02.96.96,0,0,0-.588-.51,3.872,3.872,0,0,0-1.224-.149,2.918,2.918,0,0,0-1,.133,1.011,1.011,0,0,0-.534.479,4.59,4.59,0,0,0-.361,1.051l-1.726-.424a6.3,6.3,0,0,1,.706-1.789,2.569,2.569,0,0,1,1.13-1,4.326,4.326,0,0,1,1.789-.322,4.018,4.018,0,0,1,2.911.871,3.644,3.644,0,0,1,.871,2.676v3.672a1.857,1.857,0,0,0,.126.847.583.583,0,0,0,.534.2q.126,0,.565-.031v1.663q-.188.016-.518.016a2.341,2.341,0,0,1-1.883-.628,2.376,2.376,0,0,1-1.051.651A5.275,5.275,0,0,1,91.131,431.509Zm0-1.663a3.122,3.122,0,0,0,1.224-.188,1.07,1.07,0,0,0,.588-.643,4.063,4.063,0,0,0,.165-1.318v-.769H91.131a6.442,6.442,0,0,0-1.271.086.751.751,0,0,0-.534.392,2.424,2.424,0,0,0-.157,1.028,1.888,1.888,0,0,0,.157.871.908.908,0,0,0,.573.416A4.543,4.543,0,0,0,91.131,429.846Zm10.687,1.663a3.708,3.708,0,0,1-1.836-.392,2.3,2.3,0,0,1-1.012-1.248,6.524,6.524,0,0,1-.322-2.252v-4.551H96.7V421.4h1.946v-2.668h1.8V421.4H103.7v1.663h-3.248v4.551a5.645,5.645,0,0,0,.126,1.357,1.116,1.116,0,0,0,.416.675,1.464,1.464,0,0,0,.824.2,3.191,3.191,0,0,0,.84-.078.621.621,0,0,0,.377-.282,3.875,3.875,0,0,0,.275-.706l1.695.581a3.6,3.6,0,0,1-.612,1.279,2.1,2.1,0,0,1-.981.667A5.1,5.1,0,0,1,101.817,431.509Zm8.443-1.663a2.587,2.587,0,0,0,1.342-.322,3.985,3.985,0,0,0,1.122-1.138l1.444.957a5.174,5.174,0,0,1-1.656,1.695,4.605,4.605,0,0,1-2.252.471,5.379,5.379,0,0,1-2.487-.471,2.689,2.689,0,0,1-1.271-1.554,12.246,12.246,0,0,1,0-6.089,2.689,2.689,0,0,1,1.271-1.554,5.38,5.38,0,0,1,2.487-.471,4.856,4.856,0,0,1,2.44.51,2.868,2.868,0,0,1,1.248,1.7,11.6,11.6,0,0,1,.377,3.343h-6.387a5.841,5.841,0,0,0,.282,1.742,1.651,1.651,0,0,0,.722.9A2.686,2.686,0,0,0,110.26,429.846Zm0-6.811a2.351,2.351,0,0,0-1.663.494,2.689,2.689,0,0,0-.628,1.734h4.5a3.524,3.524,0,0,0-.2-1.342,1.248,1.248,0,0,0-.683-.683A3.471,3.471,0,0,0,110.26,423.035Zm9.369,8.474a4.351,4.351,0,0,1-2.268-.5,2.847,2.847,0,0,1-1.193-1.609,9.69,9.69,0,0,1-.369-2.974v-7.689h1.8v7.689a9.261,9.261,0,0,0,.18,2.1,1.678,1.678,0,0,0,.612,1.028,2.154,2.154,0,0,0,1.232.3,2.193,2.193,0,0,0,1.24-.3,1.661,1.661,0,0,0,.62-1.028,9.261,9.261,0,0,0,.18-2.1v-7.689h1.8v7.689a9.69,9.69,0,0,1-.369,2.974,2.835,2.835,0,0,1-1.2,1.609A4.394,4.394,0,0,1,119.629,431.509Zm5.618,2.636V421.591h1.82v.094a6.39,6.39,0,0,1,2.087-.314,4.462,4.462,0,0,1,2.307.51,2.847,2.847,0,0,1,1.216,1.608,11.892,11.892,0,0,1,0,5.877,2.884,2.884,0,0,1-1.216,1.624,4.407,4.407,0,0,1-2.307.518,5.731,5.731,0,0,1-2.087-.377v3.013Zm3.907-4.3a2.178,2.178,0,0,0,1.263-.314,1.748,1.748,0,0,0,.636-1.044,8.711,8.711,0,0,0,.188-2.064,8.608,8.608,0,0,0-.188-2.056,1.706,1.706,0,0,0-.636-1.028,2.221,2.221,0,0,0-1.263-.306q-2.087,0-2.087.91v3.7a2.412,2.412,0,0,0,.486,1.663A2.079,2.079,0,0,0,129.154,429.846Zm9.227,1.663a4.419,4.419,0,0,1-2.3-.51,2.858,2.858,0,0,1-1.208-1.609,11.923,11.923,0,0,1,0-5.885,2.9,2.9,0,0,1,1.208-1.616,4.364,4.364,0,0,1,2.3-.518,5.857,5.857,0,0,1,2.1.377v-3.013h1.8V431.29h-1.8v-.11A6.162,6.162,0,0,1,138.382,431.509Zm0-1.663a3.907,3.907,0,0,0,1.593-.243.744.744,0,0,0,.51-.667v-3.7a2.386,2.386,0,0,0-.494-1.663,2.106,2.106,0,0,0-1.609-.534,2.14,2.14,0,0,0-1.255.314,1.766,1.766,0,0,0-.628,1.044,8.711,8.711,0,0,0-.188,2.064,8.607,8.607,0,0,0,.188,2.056,1.723,1.723,0,0,0,.628,1.028A2.182,2.182,0,0,0,138.382,429.846Zm9.243,1.663a6.4,6.4,0,0,1-2.221-.314,2.189,2.189,0,0,1-1.193-.981,3.682,3.682,0,0,1-.369-1.781,4.142,4.142,0,0,1,.369-1.938,2.011,2.011,0,0,1,1.177-.957,7.213,7.213,0,0,1,2.236-.275H149.6v-.345a2.524,2.524,0,0,0-.165-1.02.96.96,0,0,0-.588-.51,3.872,3.872,0,0,0-1.224-.149,2.918,2.918,0,0,0-1,.133,1.011,1.011,0,0,0-.534.479,4.59,4.59,0,0,0-.361,1.051L144,424.479a6.3,6.3,0,0,1,.706-1.789,2.569,2.569,0,0,1,1.13-1,4.326,4.326,0,0,1,1.789-.322,4.018,4.018,0,0,1,2.911.871,3.644,3.644,0,0,1,.871,2.676v3.672a1.857,1.857,0,0,0,.126.847.583.583,0,0,0,.534.2q.126,0,.565-.031v1.663q-.188.016-.518.016a2.341,2.341,0,0,1-1.883-.628,2.376,2.376,0,0,1-1.051.651A5.275,5.275,0,0,1,147.625,431.509Zm0-1.663a3.122,3.122,0,0,0,1.224-.188,1.071,1.071,0,0,0,.588-.643,4.063,4.063,0,0,0,.165-1.318v-.769h-1.977a6.442,6.442,0,0,0-1.271.086.751.751,0,0,0-.534.392,2.424,2.424,0,0,0-.157,1.028,1.888,1.888,0,0,0,.157.871.908.908,0,0,0,.573.416A4.543,4.543,0,0,0,147.625,429.846Zm10.687,1.663a3.708,3.708,0,0,1-1.836-.392,2.3,2.3,0,0,1-1.012-1.248,6.524,6.524,0,0,1-.322-2.252v-4.551H153.2V421.4h1.946v-2.668h1.8V421.4h3.248v1.663h-3.248v4.551a5.646,5.646,0,0,0,.126,1.357,1.116,1.116,0,0,0,.416.675,1.465,1.465,0,0,0,.824.2,3.191,3.191,0,0,0,.84-.078.621.621,0,0,0,.377-.282,3.876,3.876,0,0,0,.275-.706l1.695.581a3.6,3.6,0,0,1-.612,1.279,2.1,2.1,0,0,1-.981.667A5.1,5.1,0,0,1,158.311,431.509Zm8.443-1.663a2.587,2.587,0,0,0,1.342-.322,3.985,3.985,0,0,0,1.122-1.138l1.444.957a5.174,5.174,0,0,1-1.656,1.695,4.605,4.605,0,0,1-2.252.471,5.379,5.379,0,0,1-2.487-.471A2.689,2.689,0,0,1,163,429.485a12.246,12.246,0,0,1,0-6.089,2.689,2.689,0,0,1,1.271-1.554,5.379,5.379,0,0,1,2.487-.471,4.857,4.857,0,0,1,2.44.51,2.868,2.868,0,0,1,1.248,1.7,11.6,11.6,0,0,1,.377,3.343h-6.387a5.842,5.842,0,0,0,.282,1.742,1.651,1.651,0,0,0,.722.9A2.687,2.687,0,0,0,166.754,429.846Zm0-6.811a2.351,2.351,0,0,0-1.663.494,2.689,2.689,0,0,0-.628,1.734h4.5a3.524,3.524,0,0,0-.2-1.342,1.248,1.248,0,0,0-.683-.683A3.471,3.471,0,0,0,166.754,423.035Zm21.5,10.53a4.074,4.074,0,0,1-2.778-1.067,6.847,6.847,0,0,1-1.867-3.005,15.557,15.557,0,0,1,0-8.961,6.847,6.847,0,0,1,1.867-3.005,4.074,4.074,0,0,1,2.778-1.067v1.663a2.428,2.428,0,0,0-1.828.855,5.828,5.828,0,0,0-1.232,2.417,15.108,15.108,0,0,0,0,7.234,5.828,5.828,0,0,0,1.232,2.417,2.428,2.428,0,0,0,1.828.855Zm4-1.663a2.428,2.428,0,0,0,1.828-.855,5.828,5.828,0,0,0,1.232-2.417,15.108,15.108,0,0,0,0-7.234,5.828,5.828,0,0,0-1.232-2.417,2.428,2.428,0,0,0-1.828-.855V416.46a4.074,4.074,0,0,1,2.778,1.067,6.847,6.847,0,0,1,1.867,3.005,15.557,15.557,0,0,1,0,8.961,6.847,6.847,0,0,1-1.867,3.005,4.074,4.074,0,0,1-2.778,1.067Zm24.826,1.663a5.576,5.576,0,0,1-3.374-.808,3.05,3.05,0,0,1-1.051-2.581,8.445,8.445,0,0,1,.157-1.412,8.254,8.254,0,0,0,.126-1.067,1.754,1.754,0,0,0-.549-.91q-.549-.612-1.789-1.773,1.24-1.193,1.789-1.8a1.733,1.733,0,0,0,.549-.942,6.383,6.383,0,0,0-.126-.957,7.751,7.751,0,0,1-.157-1.444,3.073,3.073,0,0,1,1.051-2.589,5.535,5.535,0,0,1,3.374-.816v1.679a5.858,5.858,0,0,0-1.569.165,1.392,1.392,0,0,0-.816.549,1.957,1.957,0,0,0-.251,1.075,5.25,5.25,0,0,0,.157,1.208,4.1,4.1,0,0,1,.141.973,2.786,2.786,0,0,1-.424,1.467,5.819,5.819,0,0,1-1.334,1.436,5.583,5.583,0,0,1,1.342,1.4,2.7,2.7,0,0,1,.416,1.444,4.894,4.894,0,0,1-.126.957,6.249,6.249,0,0,0-.157,1.318,1.931,1.931,0,0,0,.243,1.051,1.37,1.37,0,0,0,.808.541,5.856,5.856,0,0,0,1.569.165Zm2.825-1.679a5.856,5.856,0,0,0,1.569-.165,1.406,1.406,0,0,0,.816-.541,1.882,1.882,0,0,0,.251-1.051,6.25,6.25,0,0,0-.157-1.318,4.894,4.894,0,0,1-.126-.957,2.743,2.743,0,0,1,.408-1.444,5.441,5.441,0,0,1,1.334-1.4,5.466,5.466,0,0,1-1.326-1.42,2.852,2.852,0,0,1-.416-1.483,4.105,4.105,0,0,1,.141-.973,5.25,5.25,0,0,0,.157-1.208,1.957,1.957,0,0,0-.251-1.075,1.4,1.4,0,0,0-.824-.549,5.949,5.949,0,0,0-1.577-.165V416.46a5.572,5.572,0,0,1,3.382.816,3.063,3.063,0,0,1,1.059,2.589,7.752,7.752,0,0,1-.157,1.444,6.384,6.384,0,0,0-.126.957,1.8,1.8,0,0,0,.549.957q.549.628,1.773,1.789-1.208,1.13-1.765,1.758a1.811,1.811,0,0,0-.557.926,8.255,8.255,0,0,0,.126,1.067,8.446,8.446,0,0,1,.157,1.412,3.04,3.04,0,0,1-1.059,2.581,5.614,5.614,0,0,1-3.382.808ZM1.384,457.779a5.855,5.855,0,0,0,1.569-.165,1.406,1.406,0,0,0,.816-.541,1.882,1.882,0,0,0,.251-1.051,6.25,6.25,0,0,0-.157-1.318,4.894,4.894,0,0,1-.126-.957,2.743,2.743,0,0,1,.408-1.444,5.442,5.442,0,0,1,1.334-1.4,5.466,5.466,0,0,1-1.326-1.42A2.852,2.852,0,0,1,3.738,448a4.105,4.105,0,0,1,.141-.973,5.25,5.25,0,0,0,.157-1.208,1.957,1.957,0,0,0-.251-1.075,1.4,1.4,0,0,0-.824-.549,5.95,5.95,0,0,0-1.577-.165v-1.679a5.573,5.573,0,0,1,3.382.816,3.063,3.063,0,0,1,1.059,2.589,7.752,7.752,0,0,1-.157,1.444,6.384,6.384,0,0,0-.126.957,1.8,1.8,0,0,0,.549.957q.549.628,1.773,1.789-1.208,1.13-1.765,1.758a1.811,1.811,0,0,0-.557.926,8.255,8.255,0,0,0,.126,1.067,8.445,8.445,0,0,1,.157,1.412,3.04,3.04,0,0,1-1.059,2.581,5.614,5.614,0,0,1-3.382.808Z" transform="translate(607.636 6712.684)" fill="#12263f"/>
  </g>
</svg>
