<svg xmlns="http://www.w3.org/2000/svg" xmlns:xlink="http://www.w3.org/1999/xlink" width="26" height="15" viewBox="0 0 26 15">
  <defs>
    <linearGradient id="linear-gradient" x1="1" y1="0.5" x2="0" y2="0.5" gradientUnits="objectBoundingBox">
      <stop offset="0" stop-color="#6357f6"/>
      <stop offset="1" stop-color="#e6606c"/>
    </linearGradient>
  </defs>
  <g id="Shape" stroke-miterlimit="10" fill="url(#linear-gradient)">
    <path d="M20.635,13.81l-1.343-2.18a1.291,1.291,0,0,0-1.1-.605H7.8a1.291,1.291,0,0,0-1.1.605L5.364,13.81A2.542,2.542,0,0,1,3.207,15a3.144,3.144,0,0,1-3.12-3.839L1.829,3.943A5.227,5.227,0,0,1,6.938,0H19.062a5.219,5.219,0,0,1,5.109,3.943l1.743,7.218A3.145,3.145,0,0,1,22.793,15,2.542,2.542,0,0,1,20.635,13.81Z" stroke="none"/>
    <path d="M 22.79345893859863 14 C 23.48912811279297 14 24.12964820861816 13.69324016571045 24.55077743530273 13.15837955474854 C 24.94768905639648 12.6542797088623 25.09005737304688 12.01183986663818 24.94140815734863 11.39589023590088 L 23.19859886169434 4.178209781646729 C 22.82893753051758 2.64749002456665 21.37667846679688 1 19.06164741516113 1 L 6.938467979431152 1 C 5.315368175506592 1 3.328468084335327 1.994510054588318 2.801528215408325 4.17818021774292 L 1.058688163757324 11.39599990844727 C 0.9098781943321228 12.01196002960205 1.052148222923279 12.65437984466553 1.449008226394653 13.15853023529053 C 1.869968175888062 13.6932897567749 2.510788202285767 14 3.207138061523438 14 C 3.741188287734985 14 4.241438388824463 13.72620964050293 4.512877941131592 13.28516006469727 L 5.855208396911621 11.10577964782715 C 6.265488147735596 10.43896007537842 7.01157808303833 10.02472019195557 7.802328109741211 10.02472019195557 L 18.19730758666992 10.02472019195557 C 18.98891830444336 10.02472019195557 19.73519897460938 10.43927001953125 20.14416885375977 11.10538005828857 L 21.4869384765625 13.28546047210693 C 21.75818824768066 13.72620964050293 22.25881767272949 14 22.79345893859863 14 M 22.79345893859863 15 C 21.91352844238281 15 21.08720779418945 14.54388999938965 20.63529777526855 13.80959033966064 L 19.2927188873291 11.62981033325195 C 19.0635986328125 11.25662994384766 18.64336776733398 11.02472019195557 18.19730758666992 11.02472019195557 L 7.802328109741211 11.02472019195557 C 7.356258392333984 11.02472019195557 6.93651819229126 11.25662994384766 6.706908226013184 11.62981033325195 L 5.364328384399414 13.80959033966064 C 4.912418365478516 14.54388999938965 4.086108207702637 15 3.207138061523438 15 C 1.139158129692078 15 -0.3867118358612061 13.1205997467041 0.08664817363023758 11.16117000579834 L 1.829468131065369 3.943459987640381 C 2.470528125762939 1.286839962005615 4.888528347015381 -8.881784197001252e-16 6.938467979431152 -8.881784197001252e-16 L 19.06164741516113 -8.881784197001252e-16 C 21.86233901977539 -8.881784197001252e-16 23.7011890411377 1.999449968338013 24.17065811157227 3.943459987640381 L 25.91346740722656 11.16117000579834 C 26.38682746887207 13.12252998352051 24.85802841186523 15 22.79345893859863 15 Z" stroke="none" fill="rgba(255,255,255,0.08)"/>
  </g>
</svg>
