<svg xmlns="http://www.w3.org/2000/svg" width="610" height="254" viewBox="0 0 610 254">
  <g id="Grupo_168052" data-name="Grupo 168052" transform="translate(-495 -8046)">
    <g id="Rectángulo_342117" data-name="Rectángulo 342117" transform="translate(495 8046)" fill="#8979f3" stroke="#707070" stroke-width="1" opacity="0.25">
      <rect width="610" height="254" rx="25" stroke="none"/>
      <rect x="0.5" y="0.5" width="609" height="253" rx="24.5" fill="none"/>
    </g>
    <path id="Trazado_688354" data-name="Trazado 688354" d="M.919,21.238V7.763H2.873v.1a6.859,6.859,0,0,1,2.24-.337,4.79,4.79,0,0,1,2.476.547A3.056,3.056,0,0,1,8.9,9.8a10.179,10.179,0,0,1,.4,3.15,10.262,10.262,0,0,1-.4,3.158A3.1,3.1,0,0,1,7.59,17.852a4.731,4.731,0,0,1-2.476.556,6.152,6.152,0,0,1-2.24-.4v3.234Zm4.194-4.615a2.338,2.338,0,0,0,1.356-.337,1.876,1.876,0,0,0,.682-1.12,9.35,9.35,0,0,0,.2-2.215,9.239,9.239,0,0,0-.2-2.207,1.831,1.831,0,0,0-.682-1.1,2.384,2.384,0,0,0-1.356-.328q-2.24,0-2.24.977v3.975A2.589,2.589,0,0,0,3.4,16.05,2.231,2.231,0,0,0,5.114,16.623Zm9.7,1.785A4.705,4.705,0,0,1,12.66,18a2.41,2.41,0,0,1-1.145-1.339,7.284,7.284,0,0,1-.354-2.527V7.763H13.1V14.13a6.364,6.364,0,0,0,.143,1.567,1.115,1.115,0,0,0,.505.724,2.246,2.246,0,0,0,1.07.2,5.355,5.355,0,0,0,1.558-.168,1.136,1.136,0,0,0,.716-.6,3.1,3.1,0,0,0,.2-1.272V7.763h1.954v10.41H17.292V18A6.067,6.067,0,0,1,14.816,18.408Zm10.6,0a6.005,6.005,0,0,1-2.383-.4,4.431,4.431,0,0,1-1.676-1.39V4.7h1.937V7.9a5.936,5.936,0,0,1,2.122-.371,4.481,4.481,0,0,1,2.4.556,3.1,3.1,0,0,1,1.272,1.735,10.457,10.457,0,0,1,.387,3.167,10.386,10.386,0,0,1-.387,3.15,3.058,3.058,0,0,1-1.272,1.727A4.536,4.536,0,0,1,25.411,18.408Zm0-1.785a2.158,2.158,0,0,0,1.28-.328,1.854,1.854,0,0,0,.649-1.1,9.627,9.627,0,0,0,.194-2.207,9.743,9.743,0,0,0-.194-2.215,1.9,1.9,0,0,0-.649-1.12,2.117,2.117,0,0,0-1.28-.337,3.472,3.472,0,0,0-1.322.194,1.124,1.124,0,0,0-.623.7,4.807,4.807,0,0,0-.177,1.5V16a2.125,2.125,0,0,0,.842.5A4.908,4.908,0,0,0,25.411,16.623Zm11.639,1.785a3.867,3.867,0,0,1-1.828-.354,2,2,0,0,1-.926-1.179,7.6,7.6,0,0,1-.278-2.325V6.482H31.9V4.7h4.059v9.854a3.854,3.854,0,0,0,.236,1.625.884.884,0,0,0,.859.446,1.294,1.294,0,0,0,.649-.2,7.913,7.913,0,0,0,.969-.724l1.078,1.651a5.164,5.164,0,0,1-1.322.834A3.76,3.76,0,0,1,37.051,18.408ZM46.837,7.763v8.624h2.948v1.785H41.952V16.387H44.9V9.548H42.778V7.763ZM45.506,6.247a1.7,1.7,0,0,1-1.154-.295,1.477,1.477,0,0,1-.312-1.086,1.477,1.477,0,0,1,.312-1.086,1.7,1.7,0,0,1,1.154-.295,1.734,1.734,0,0,1,1.162.295,1.451,1.451,0,0,1,.32,1.086,1.451,1.451,0,0,1-.32,1.086A1.734,1.734,0,0,1,45.506,6.247ZM55.832,18.408a5.463,5.463,0,0,1-2.661-.547,3.111,3.111,0,0,1-1.407-1.727,9.5,9.5,0,0,1-.43-3.167,9.5,9.5,0,0,1,.43-3.167,3.093,3.093,0,0,1,1.423-1.727A5.649,5.649,0,0,1,55.9,7.527a4.549,4.549,0,0,1,2.341.522A5.292,5.292,0,0,1,59.925,9.9l-1.617.96a6.859,6.859,0,0,0-.724-.977,1.657,1.657,0,0,0-.682-.446,4.079,4.079,0,0,0-2.611.2,1.788,1.788,0,0,0-.792,1.1,8.334,8.334,0,0,0-.227,2.223,8.334,8.334,0,0,0,.227,2.223,1.823,1.823,0,0,0,.766,1.1,3.042,3.042,0,0,0,1.567.328,3.156,3.156,0,0,0,1-.135,1.876,1.876,0,0,0,.724-.463,6.661,6.661,0,0,0,.766-.985l1.6.977a5.486,5.486,0,0,1-1.727,1.87A4.636,4.636,0,0,1,55.832,18.408Zm20.213,0a5.463,5.463,0,0,1-2.661-.547,3.111,3.111,0,0,1-1.406-1.727,9.5,9.5,0,0,1-.43-3.167,9.5,9.5,0,0,1,.43-3.167A3.093,3.093,0,0,1,73.4,8.074a5.649,5.649,0,0,1,2.712-.547,4.549,4.549,0,0,1,2.341.522A5.292,5.292,0,0,1,80.138,9.9l-1.617.96a6.86,6.86,0,0,0-.724-.977,1.657,1.657,0,0,0-.682-.446,4.079,4.079,0,0,0-2.611.2,1.788,1.788,0,0,0-.792,1.1,8.334,8.334,0,0,0-.227,2.223,8.334,8.334,0,0,0,.227,2.223,1.823,1.823,0,0,0,.766,1.1,3.042,3.042,0,0,0,1.567.328,3.156,3.156,0,0,0,1-.135,1.876,1.876,0,0,0,.724-.463,6.661,6.661,0,0,0,.766-.985l1.6.977a5.486,5.486,0,0,1-1.727,1.87A4.636,4.636,0,0,1,76.045,18.408Zm11.538,0a3.867,3.867,0,0,1-1.828-.354,2,2,0,0,1-.926-1.179,7.6,7.6,0,0,1-.278-2.325V6.482H82.429V4.7h4.059v9.854a3.854,3.854,0,0,0,.236,1.625.884.884,0,0,0,.859.446,1.294,1.294,0,0,0,.649-.2A7.913,7.913,0,0,0,89.2,15.7l1.078,1.651a5.164,5.164,0,0,1-1.322.834A3.76,3.76,0,0,1,87.583,18.408Zm8.1,0a6.864,6.864,0,0,1-2.383-.337,2.35,2.35,0,0,1-1.28-1.053,3.953,3.953,0,0,1-.4-1.912,4.446,4.446,0,0,1,.4-2.08A2.158,2.158,0,0,1,93.285,12a7.743,7.743,0,0,1,2.4-.295h2.122v-.371a2.709,2.709,0,0,0-.177-1.095A1.03,1.03,0,0,0,97,9.691a4.156,4.156,0,0,0-1.314-.16,3.132,3.132,0,0,0-1.078.143,1.085,1.085,0,0,0-.573.514,4.926,4.926,0,0,0-.387,1.129l-1.853-.455a6.764,6.764,0,0,1,.758-1.92,2.757,2.757,0,0,1,1.213-1.07,4.644,4.644,0,0,1,1.92-.345,4.313,4.313,0,0,1,3.125.935,3.911,3.911,0,0,1,.935,2.872v3.942a1.993,1.993,0,0,0,.135.91.625.625,0,0,0,.573.219q.135,0,.606-.034v1.785q-.2.017-.556.017a2.513,2.513,0,0,1-2.021-.674,2.55,2.55,0,0,1-1.129.7A5.662,5.662,0,0,1,95.685,18.408Zm0-1.785a3.351,3.351,0,0,0,1.314-.2,1.149,1.149,0,0,0,.632-.691,4.361,4.361,0,0,0,.177-1.415V13.49H95.685a6.917,6.917,0,0,0-1.364.093.807.807,0,0,0-.573.421,2.6,2.6,0,0,0-.168,1.1,2.027,2.027,0,0,0,.168.935.975.975,0,0,0,.615.446A4.876,4.876,0,0,0,95.685,16.623Zm9.955,1.785a4.188,4.188,0,0,1-2.215-.505,4.375,4.375,0,0,1-1.474-1.785l1.533-1.263a7.115,7.115,0,0,0,.581,1.129,1.331,1.331,0,0,0,.6.5,2.679,2.679,0,0,0,.977.143,8.461,8.461,0,0,0,1.752-.135,1.3,1.3,0,0,0,.809-.446,1.559,1.559,0,0,0,.219-.9,1.608,1.608,0,0,0-.177-.859,1.089,1.089,0,0,0-.632-.4,10.8,10.8,0,0,0-1.533-.27,6.635,6.635,0,0,1-2.948-.9,2.341,2.341,0,0,1-.91-2.047,3.417,3.417,0,0,1,.421-1.811,2.448,2.448,0,0,1,1.348-1,7.858,7.858,0,0,1,2.493-.32,4.99,4.99,0,0,1,2.308.438,4.068,4.068,0,0,1,1.5,1.55L108.875,10.9a6.2,6.2,0,0,0-.64-1.011,1.421,1.421,0,0,0-.657-.446,3.7,3.7,0,0,0-1.095-.126,6.753,6.753,0,0,0-1.457.118,1.06,1.06,0,0,0-.682.4,1.523,1.523,0,0,0-.185.825.824.824,0,0,0,.2.606,1.282,1.282,0,0,0,.606.3q.4.1,1.246.219a11.9,11.9,0,0,1,2.485.581,2.5,2.5,0,0,1,1.28.994,3.4,3.4,0,0,1,.4,1.777,3.443,3.443,0,0,1-.463,1.895,2.656,2.656,0,0,1-1.5,1.044A9.451,9.451,0,0,1,105.64,18.408Zm10.107,0a4.188,4.188,0,0,1-2.215-.505,4.375,4.375,0,0,1-1.474-1.785l1.533-1.263a7.115,7.115,0,0,0,.581,1.129,1.331,1.331,0,0,0,.6.5,2.679,2.679,0,0,0,.977.143,8.461,8.461,0,0,0,1.752-.135,1.3,1.3,0,0,0,.809-.446,1.559,1.559,0,0,0,.219-.9,1.608,1.608,0,0,0-.177-.859,1.089,1.089,0,0,0-.632-.4,10.8,10.8,0,0,0-1.533-.27,6.635,6.635,0,0,1-2.948-.9,2.341,2.341,0,0,1-.91-2.047,3.417,3.417,0,0,1,.421-1.811,2.448,2.448,0,0,1,1.348-1,7.858,7.858,0,0,1,2.493-.32,4.99,4.99,0,0,1,2.308.438,4.068,4.068,0,0,1,1.5,1.55L118.981,10.9a6.2,6.2,0,0,0-.64-1.011,1.421,1.421,0,0,0-.657-.446,3.7,3.7,0,0,0-1.095-.126,6.753,6.753,0,0,0-1.457.118,1.06,1.06,0,0,0-.682.4,1.523,1.523,0,0,0-.185.825.824.824,0,0,0,.2.606,1.282,1.282,0,0,0,.606.3q.4.1,1.246.219a11.9,11.9,0,0,1,2.485.581,2.5,2.5,0,0,1,1.28.994,3.4,3.4,0,0,1,.4,1.777,3.443,3.443,0,0,1-.463,1.895,2.656,2.656,0,0,1-1.5,1.044A9.451,9.451,0,0,1,115.747,18.408ZM136.6,4.7a4.433,4.433,0,0,1,2.6.674A3.782,3.782,0,0,1,140.576,7.5,14.685,14.685,0,0,1,141,11.435a14.685,14.685,0,0,1-.421,3.933A3.782,3.782,0,0,1,139.2,17.5a4.433,4.433,0,0,1-2.6.674h-4.38V4.7Zm0,11.69a2.194,2.194,0,0,0,1.474-.455,2.68,2.68,0,0,0,.758-1.516,15.042,15.042,0,0,0,.227-2.981,15.042,15.042,0,0,0-.227-2.981,2.68,2.68,0,0,0-.758-1.516,2.194,2.194,0,0,0-1.474-.455h-2.442v9.9Zm9.938.236a2.777,2.777,0,0,0,1.44-.345,4.277,4.277,0,0,0,1.2-1.221l1.55,1.028a5.554,5.554,0,0,1-1.777,1.819,4.943,4.943,0,0,1-2.417.505,5.774,5.774,0,0,1-2.67-.505,2.886,2.886,0,0,1-1.364-1.668,10.164,10.164,0,0,1-.413-3.268A10.164,10.164,0,0,1,142.5,9.7a2.886,2.886,0,0,1,1.364-1.668,5.774,5.774,0,0,1,2.67-.505,5.213,5.213,0,0,1,2.619.547A3.078,3.078,0,0,1,150.5,9.9a12.45,12.45,0,0,1,.4,3.588h-6.856a6.27,6.27,0,0,0,.3,1.87,1.772,1.772,0,0,0,.775.969A2.883,2.883,0,0,0,146.538,16.623Zm0-7.31a2.523,2.523,0,0,0-1.785.531,2.887,2.887,0,0,0-.674,1.861h4.834a3.782,3.782,0,0,0-.219-1.44,1.34,1.34,0,0,0-.733-.733A3.726,3.726,0,0,0,146.538,9.312Zm5.407,8.86V7.763h1.937V7.7q.135-.034.505-.1a3.722,3.722,0,0,1,.657-.067,2.382,2.382,0,0,1,1.044.185,1.979,1.979,0,0,1,.707.674,2.2,2.2,0,0,1,1.92-.859,2.484,2.484,0,0,1,1.516.4,2.3,2.3,0,0,1,.775,1.331,10.966,10.966,0,0,1,.236,2.577v6.333h-1.937V11.839a8.974,8.974,0,0,0-.126-1.844q-.126-.514-.463-.514a.922.922,0,0,0-.9.472,4.091,4.091,0,0,0-.244,1.7v6.519h-1.937V11.94a9.177,9.177,0,0,0-.135-1.912q-.135-.547-.455-.547a.94.94,0,0,0-.91.472,3.967,3.967,0,0,0-.253,1.7v6.519Zm14.756.236a4.684,4.684,0,0,1-2.468-.556,3.107,3.107,0,0,1-1.3-1.735,10.178,10.178,0,0,1-.4-3.15,10.178,10.178,0,0,1,.4-3.15,3.107,3.107,0,0,1,1.3-1.735,5.774,5.774,0,0,1,4.944,0,3.1,3.1,0,0,1,1.305,1.735,10.179,10.179,0,0,1,.4,3.15,10.179,10.179,0,0,1-.4,3.15,3.1,3.1,0,0,1-1.305,1.735A4.731,4.731,0,0,1,166.7,18.408Zm0-1.785a2.384,2.384,0,0,0,1.356-.328,1.837,1.837,0,0,0,.682-1.112,9.35,9.35,0,0,0,.2-2.215,9.35,9.35,0,0,0-.2-2.215,1.837,1.837,0,0,0-.682-1.112,2.384,2.384,0,0,0-1.356-.328,2.342,2.342,0,0,0-1.348.328,1.855,1.855,0,0,0-.674,1.112,9.35,9.35,0,0,0-.2,2.215,9.35,9.35,0,0,0,.2,2.215,1.855,1.855,0,0,0,.674,1.112A2.342,2.342,0,0,0,166.7,16.623Zm10.107,1.785a8.209,8.209,0,0,1-2.114-.227,3.248,3.248,0,0,1-1.4-.758,4.779,4.779,0,0,1-1-1.457l1.5-1.415a5.237,5.237,0,0,0,.606,1.3,1.63,1.63,0,0,0,.842.6,5.3,5.3,0,0,0,1.567.177,4.027,4.027,0,0,0,1.482-.211,1.255,1.255,0,0,0,.707-.7,3.914,3.914,0,0,0,.2-1.432,2.107,2.107,0,0,0-.219-1.061,1.731,1.731,0,0,0-.724-.632,12.331,12.331,0,0,0-1.617-.632,13.084,13.084,0,0,1-2.35-.977A3.132,3.132,0,0,1,173.1,9.868a3.3,3.3,0,0,1-.371-1.668,5.05,5.05,0,0,1,.4-2.181,2.394,2.394,0,0,1,1.28-1.188,6.348,6.348,0,0,1,2.4-.371,7.8,7.8,0,0,1,1.946.2,3.235,3.235,0,0,1,1.305.665,4.384,4.384,0,0,1,.977,1.289l-1.381,1.5a5.279,5.279,0,0,0-.606-1.188,1.5,1.5,0,0,0-.792-.531,5.315,5.315,0,0,0-1.449-.152,4.017,4.017,0,0,0-1.339.168,1.047,1.047,0,0,0-.623.581,3.184,3.184,0,0,0-.177,1.2,1.735,1.735,0,0,0,.185.893,1.42,1.42,0,0,0,.632.514,12.635,12.635,0,0,0,1.474.531,13.083,13.083,0,0,1,2.5,1.011,3.206,3.206,0,0,1,1.28,1.238,3.972,3.972,0,0,1,.4,1.895,5.722,5.722,0,0,1-.421,2.409A2.61,2.61,0,0,1,179.36,18,6.449,6.449,0,0,1,176.808,18.408Zm10.41,0a5.463,5.463,0,0,1-2.661-.547,3.111,3.111,0,0,1-1.406-1.727,9.5,9.5,0,0,1-.43-3.167,9.5,9.5,0,0,1,.43-3.167,3.093,3.093,0,0,1,1.423-1.727,5.649,5.649,0,0,1,2.712-.547,4.549,4.549,0,0,1,2.341.522A5.292,5.292,0,0,1,191.311,9.9l-1.617.96a6.861,6.861,0,0,0-.724-.977,1.657,1.657,0,0,0-.682-.446,4.079,4.079,0,0,0-2.611.2,1.788,1.788,0,0,0-.792,1.1,8.335,8.335,0,0,0-.227,2.223,8.335,8.335,0,0,0,.227,2.223,1.823,1.823,0,0,0,.766,1.1,3.042,3.042,0,0,0,1.567.328,3.156,3.156,0,0,0,1-.135,1.876,1.876,0,0,0,.724-.463,6.662,6.662,0,0,0,.766-.985l1.6.977a5.486,5.486,0,0,1-1.727,1.87A4.636,4.636,0,0,1,187.217,18.408Zm6.317-.236V7.763h1.937v.859a3.7,3.7,0,0,1,1.044-.766,2.981,2.981,0,0,1,1.381-.328,4.313,4.313,0,0,1,1.617.261,2.707,2.707,0,0,1,1.1.842,5.688,5.688,0,0,1,.834,1.609l-1.735.792a6.035,6.035,0,0,0-.438-1.095,1.1,1.1,0,0,0-.514-.488,2.244,2.244,0,0,0-.867-.135,2.023,2.023,0,0,0-1.87.9,5.036,5.036,0,0,0-.556,2.619v5.34Zm15.008-10.41v8.624h2.948v1.785h-7.833V16.387h2.948V9.548h-2.122V7.763Zm-1.331-1.516a1.7,1.7,0,0,1-1.154-.295,1.477,1.477,0,0,1-.312-1.086,1.477,1.477,0,0,1,.312-1.086,1.7,1.7,0,0,1,1.154-.295,1.734,1.734,0,0,1,1.162.295,1.451,1.451,0,0,1,.32,1.086,1.451,1.451,0,0,1-.32,1.086A1.734,1.734,0,0,1,207.212,6.247Zm5.946,14.991V7.763h1.954v.1a6.859,6.859,0,0,1,2.24-.337,4.79,4.79,0,0,1,2.476.547A3.056,3.056,0,0,1,221.133,9.8a10.179,10.179,0,0,1,.4,3.15,10.262,10.262,0,0,1-.4,3.158,3.1,3.1,0,0,1-1.305,1.743,4.731,4.731,0,0,1-2.476.556,6.152,6.152,0,0,1-2.24-.4v3.234Zm4.194-4.615a2.338,2.338,0,0,0,1.356-.337,1.876,1.876,0,0,0,.682-1.12,9.35,9.35,0,0,0,.2-2.215,9.238,9.238,0,0,0-.2-2.207,1.831,1.831,0,0,0-.682-1.1,2.384,2.384,0,0,0-1.356-.328q-2.24,0-2.24.977v3.975a2.589,2.589,0,0,0,.522,1.785A2.231,2.231,0,0,0,217.352,16.623Zm11.084,1.785a3.98,3.98,0,0,1-1.971-.421,2.47,2.47,0,0,1-1.086-1.339,7,7,0,0,1-.345-2.417V9.346h-2.089V7.56h2.089V4.7h1.937V7.56h3.487V9.346H226.97v4.885a6.061,6.061,0,0,0,.135,1.457,1.2,1.2,0,0,0,.446.724,1.572,1.572,0,0,0,.884.211,3.425,3.425,0,0,0,.9-.084.666.666,0,0,0,.4-.3,4.161,4.161,0,0,0,.295-.758l1.819.623a3.862,3.862,0,0,1-.657,1.373,2.252,2.252,0,0,1-1.053.716A5.477,5.477,0,0,1,228.435,18.408Zm19.118-8.068a1.764,1.764,0,0,1-1.2-.312,1.489,1.489,0,0,1-.328-1.1,1.517,1.517,0,0,1,.328-1.12,2.483,2.483,0,0,1,2.409,0,1.517,1.517,0,0,1,.328,1.12,1.489,1.489,0,0,1-.328,1.1A1.764,1.764,0,0,1,247.554,10.34Zm0,8.068a1.764,1.764,0,0,1-1.2-.312,1.489,1.489,0,0,1-.328-1.1,1.517,1.517,0,0,1,.328-1.12,2.483,2.483,0,0,1,2.409,0,1.517,1.517,0,0,1,.328,1.12,1.489,1.489,0,0,1-.328,1.1A1.764,1.764,0,0,1,247.554,18.408Zm17.569-.236h-1.954L263.421,4.7h1.785l2.56,6.317,2.56-6.317h1.8l.236,13.475h-1.937l-.168-8.456-1.684,4.548h-1.617l-1.684-4.548Zm12.751.236a4.684,4.684,0,0,1-2.468-.556,3.108,3.108,0,0,1-1.3-1.735,10.179,10.179,0,0,1-.4-3.15,10.179,10.179,0,0,1,.4-3.15,3.108,3.108,0,0,1,1.3-1.735,5.774,5.774,0,0,1,4.944,0,3.1,3.1,0,0,1,1.305,1.735,10.179,10.179,0,0,1,.4,3.15,10.179,10.179,0,0,1-.4,3.15,3.1,3.1,0,0,1-1.305,1.735A4.731,4.731,0,0,1,277.873,18.408Zm0-1.785a2.384,2.384,0,0,0,1.356-.328,1.837,1.837,0,0,0,.682-1.112,9.351,9.351,0,0,0,.2-2.215,9.351,9.351,0,0,0-.2-2.215,1.837,1.837,0,0,0-.682-1.112,2.384,2.384,0,0,0-1.356-.328,2.342,2.342,0,0,0-1.348.328,1.855,1.855,0,0,0-.674,1.112,9.351,9.351,0,0,0-.2,2.215,9.351,9.351,0,0,0,.2,2.215,1.855,1.855,0,0,0,.674,1.112A2.342,2.342,0,0,0,277.873,16.623Zm6.165,1.55V7.763h1.937v.253a5.869,5.869,0,0,1,2.476-.488,5.01,5.01,0,0,1,2.215.4,2.28,2.28,0,0,1,1.12,1.331,8.094,8.094,0,0,1,.337,2.636v6.283H290.17V11.889a5.847,5.847,0,0,0-.16-1.558,1.334,1.334,0,0,0-.522-.783,1.9,1.9,0,0,0-1.036-.236,4.9,4.9,0,0,0-1.609.194,1.111,1.111,0,0,0-.691.682,4.783,4.783,0,0,0-.177,1.516v6.468Zm14.048.236a4.684,4.684,0,0,1-2.468-.556,3.107,3.107,0,0,1-1.3-1.735,10.178,10.178,0,0,1-.4-3.15,10.178,10.178,0,0,1,.4-3.15,3.107,3.107,0,0,1,1.3-1.735,5.774,5.774,0,0,1,4.944,0,3.1,3.1,0,0,1,1.305,1.735,10.179,10.179,0,0,1,.4,3.15,10.179,10.179,0,0,1-.4,3.15,3.1,3.1,0,0,1-1.305,1.735A4.731,4.731,0,0,1,298.087,18.408Zm0-1.785a2.384,2.384,0,0,0,1.356-.328,1.837,1.837,0,0,0,.682-1.112,9.351,9.351,0,0,0,.2-2.215,9.351,9.351,0,0,0-.2-2.215,1.837,1.837,0,0,0-.682-1.112,2.384,2.384,0,0,0-1.356-.328,2.342,2.342,0,0,0-1.348.328,1.855,1.855,0,0,0-.674,1.112,9.349,9.349,0,0,0-.2,2.215,9.349,9.349,0,0,0,.2,2.215,1.855,1.855,0,0,0,.674,1.112A2.342,2.342,0,0,0,298.087,16.623Zm6.1,1.55V4.7h3.739a6.749,6.749,0,0,1,2.442.362A2.465,2.465,0,0,1,311.688,6.2a4.422,4.422,0,0,1,.413,2.072,4.7,4.7,0,0,1-.219,1.617,2.408,2.408,0,0,1-.758,1.011,2.68,2.68,0,0,1,1.078,1.2,5.3,5.3,0,0,1,.32,2.072,5.6,5.6,0,0,1-.4,2.333,2.528,2.528,0,0,1-1.314,1.272,6.163,6.163,0,0,1-2.459.4Zm3.739-8.018a6.135,6.135,0,0,0,1.423-.118.922.922,0,0,0,.632-.505,3.138,3.138,0,0,0,.185-1.263,2.53,2.53,0,0,0-.185-1.095,1.078,1.078,0,0,0-.657-.531,4.615,4.615,0,0,0-1.4-.16h-1.8v3.672Zm.421,6.232a3.8,3.8,0,0,0,1.381-.194,1.175,1.175,0,0,0,.665-.665,3.74,3.74,0,0,0,.194-1.364,4.276,4.276,0,0,0-.185-1.474.983.983,0,0,0-.64-.606,5.1,5.1,0,0,0-1.415-.143h-2.223v4.447Zm10.006.236a2.777,2.777,0,0,0,1.44-.345,4.277,4.277,0,0,0,1.2-1.221l1.55,1.028a5.553,5.553,0,0,1-1.777,1.819,4.943,4.943,0,0,1-2.417.505,5.774,5.774,0,0,1-2.67-.505,2.886,2.886,0,0,1-1.364-1.668,10.163,10.163,0,0,1-.413-3.268,10.163,10.163,0,0,1,.413-3.268,2.886,2.886,0,0,1,1.364-1.668,5.774,5.774,0,0,1,2.67-.505,5.213,5.213,0,0,1,2.619.547A3.078,3.078,0,0,1,322.309,9.9a12.451,12.451,0,0,1,.4,3.588h-6.856a6.271,6.271,0,0,0,.3,1.87,1.772,1.772,0,0,0,.775.969A2.883,2.883,0,0,0,318.35,16.623Zm0-7.31a2.523,2.523,0,0,0-1.786.531,2.887,2.887,0,0,0-.674,1.861h4.834a3.782,3.782,0,0,0-.219-1.44,1.34,1.34,0,0,0-.733-.733A3.726,3.726,0,0,0,318.35,9.312Zm6.216,8.86V4.7H326.5V7.83a6.54,6.54,0,0,1,2.072-.3,4.436,4.436,0,0,1,2.392.556,3.124,3.124,0,0,1,1.263,1.785,11.563,11.563,0,0,1,.387,3.352v4.952H330.68V13.22a11.392,11.392,0,0,0-.194-2.417,1.948,1.948,0,0,0-.632-1.162,2.111,2.111,0,0,0-1.28-.328,3.536,3.536,0,0,0-1.322.185,1.045,1.045,0,0,0-.59.674,5.339,5.339,0,0,0-.16,1.533v6.468Zm13.678.236a6.864,6.864,0,0,1-2.383-.337,2.35,2.35,0,0,1-1.28-1.053,3.953,3.953,0,0,1-.4-1.912,4.446,4.446,0,0,1,.4-2.08A2.158,2.158,0,0,1,335.843,12a7.744,7.744,0,0,1,2.4-.295h2.122v-.371a2.709,2.709,0,0,0-.177-1.095,1.03,1.03,0,0,0-.632-.547,4.156,4.156,0,0,0-1.314-.16,3.132,3.132,0,0,0-1.078.143,1.085,1.085,0,0,0-.573.514,4.927,4.927,0,0,0-.387,1.129l-1.853-.455a6.764,6.764,0,0,1,.758-1.92,2.757,2.757,0,0,1,1.213-1.07,4.644,4.644,0,0,1,1.92-.345,4.313,4.313,0,0,1,3.125.935,3.911,3.911,0,0,1,.935,2.872v3.942a1.994,1.994,0,0,0,.135.91.625.625,0,0,0,.573.219q.135,0,.606-.034v1.785q-.2.017-.556.017a2.513,2.513,0,0,1-2.021-.674,2.55,2.55,0,0,1-1.129.7A5.662,5.662,0,0,1,338.243,18.408Zm0-1.785a3.351,3.351,0,0,0,1.314-.2,1.149,1.149,0,0,0,.632-.691,4.362,4.362,0,0,0,.177-1.415V13.49h-2.122a6.917,6.917,0,0,0-1.364.093.807.807,0,0,0-.573.421,2.6,2.6,0,0,0-.168,1.1,2.027,2.027,0,0,0,.168.935.975.975,0,0,0,.615.446A4.876,4.876,0,0,0,338.243,16.623Zm11.235,1.55h-1.752l-3.739-10.41h2l2.611,7.529,2.661-7.529h1.988Zm10.662-10.41v8.624h2.948v1.785h-7.833V16.387H358.2V9.548h-2.122V7.763ZM358.81,6.247a1.7,1.7,0,0,1-1.154-.295,1.477,1.477,0,0,1-.312-1.086,1.477,1.477,0,0,1,.312-1.086,1.7,1.7,0,0,1,1.154-.295,1.734,1.734,0,0,1,1.162.295,1.451,1.451,0,0,1,.32,1.086,1.451,1.451,0,0,1-.32,1.086A1.734,1.734,0,0,1,358.81,6.247Zm10.022,12.162a4.684,4.684,0,0,1-2.468-.556,3.108,3.108,0,0,1-1.3-1.735,10.179,10.179,0,0,1-.4-3.15,10.179,10.179,0,0,1,.4-3.15,3.108,3.108,0,0,1,1.3-1.735,5.774,5.774,0,0,1,4.944,0,3.1,3.1,0,0,1,1.305,1.735,10.179,10.179,0,0,1,.4,3.15,10.179,10.179,0,0,1-.4,3.15,3.1,3.1,0,0,1-1.305,1.735A4.731,4.731,0,0,1,368.833,18.408Zm0-1.785a2.384,2.384,0,0,0,1.356-.328,1.837,1.837,0,0,0,.682-1.112,9.351,9.351,0,0,0,.2-2.215,9.351,9.351,0,0,0-.2-2.215,1.837,1.837,0,0,0-.682-1.112,2.384,2.384,0,0,0-1.356-.328,2.342,2.342,0,0,0-1.348.328,1.855,1.855,0,0,0-.674,1.112,9.349,9.349,0,0,0-.2,2.215,9.349,9.349,0,0,0,.2,2.215,1.855,1.855,0,0,0,.674,1.112A2.342,2.342,0,0,0,368.833,16.623Zm9.82,1.785A4.705,4.705,0,0,1,376.5,18a2.41,2.41,0,0,1-1.145-1.339A7.283,7.283,0,0,1,375,14.13V7.763h1.937V14.13a6.364,6.364,0,0,0,.143,1.567,1.115,1.115,0,0,0,.505.724,2.246,2.246,0,0,0,1.07.2,5.355,5.355,0,0,0,1.558-.168,1.136,1.136,0,0,0,.716-.6,3.1,3.1,0,0,0,.2-1.272V7.763h1.954v10.41h-1.954V18A6.068,6.068,0,0,1,378.653,18.408Zm6.906-.236V7.763H387.5v.859a3.7,3.7,0,0,1,1.044-.766,2.982,2.982,0,0,1,1.381-.328,4.313,4.313,0,0,1,1.617.261,2.707,2.707,0,0,1,1.1.842,5.689,5.689,0,0,1,.834,1.609l-1.735.792a6.038,6.038,0,0,0-.438-1.095,1.1,1.1,0,0,0-.514-.488,2.244,2.244,0,0,0-.867-.135,2.022,2.022,0,0,0-1.87.9,5.035,5.035,0,0,0-.556,2.619v5.34ZM412.8,20.615a5.986,5.986,0,0,1-3.622-.867,3.274,3.274,0,0,1-1.129-2.771,9.068,9.068,0,0,1,.168-1.516,8.864,8.864,0,0,0,.135-1.145,1.883,1.883,0,0,0-.59-.977q-.59-.657-1.92-1.9,1.331-1.28,1.92-1.937a1.861,1.861,0,0,0,.59-1.011,6.855,6.855,0,0,0-.135-1.028,8.323,8.323,0,0,1-.168-1.55,3.3,3.3,0,0,1,1.129-2.779,5.941,5.941,0,0,1,3.622-.876v1.8a6.287,6.287,0,0,0-1.684.177,1.494,1.494,0,0,0-.876.59,2.1,2.1,0,0,0-.27,1.154,5.637,5.637,0,0,0,.168,1.3,4.406,4.406,0,0,1,.152,1.044,2.99,2.99,0,0,1-.455,1.575,6.244,6.244,0,0,1-1.432,1.541,5.992,5.992,0,0,1,1.44,1.5,2.9,2.9,0,0,1,.446,1.55,5.253,5.253,0,0,1-.135,1.028,6.709,6.709,0,0,0-.168,1.415,2.072,2.072,0,0,0,.261,1.129,1.47,1.47,0,0,0,.867.581,6.287,6.287,0,0,0,1.684.177ZM5.855,73.759H4.1L.364,63.349h2l2.611,7.529L7.64,63.349H9.628Zm9.248.236a4.684,4.684,0,0,1-2.468-.556,3.107,3.107,0,0,1-1.3-1.735,12.73,12.73,0,0,1,0-6.3,3.107,3.107,0,0,1,1.3-1.735,4.684,4.684,0,0,1,2.468-.556,4.731,4.731,0,0,1,2.476.556A3.1,3.1,0,0,1,18.884,65.4a12.73,12.73,0,0,1,0,6.3,3.1,3.1,0,0,1-1.305,1.735A4.731,4.731,0,0,1,15.1,73.994Zm0-1.785a2.384,2.384,0,0,0,1.356-.328,1.837,1.837,0,0,0,.682-1.112,12.237,12.237,0,0,0,0-4.43,1.837,1.837,0,0,0-.682-1.112A2.384,2.384,0,0,0,15.1,64.9a2.342,2.342,0,0,0-1.348.328,1.855,1.855,0,0,0-.674,1.112,12.238,12.238,0,0,0,0,4.43,1.855,1.855,0,0,0,.674,1.112A2.342,2.342,0,0,0,15.1,72.209Zm11.521-8.86v8.624h2.948v1.785H21.739V71.973h2.948V65.134H22.564V63.349Zm-1.331-1.516a1.7,1.7,0,0,1-1.154-.295,2.05,2.05,0,0,1,0-2.173,1.7,1.7,0,0,1,1.154-.295,1.734,1.734,0,0,1,1.162.295,2,2,0,0,1,0,2.173A1.734,1.734,0,0,1,25.293,61.833Zm9.938,12.162a4.743,4.743,0,0,1-2.468-.547,3.068,3.068,0,0,1-1.3-1.727,12.8,12.8,0,0,1,0-6.317,3.107,3.107,0,0,1,1.3-1.735,4.684,4.684,0,0,1,2.468-.556,6.286,6.286,0,0,1,2.257.4V60.283h1.937V73.759H37.488v-.118A6.615,6.615,0,0,1,35.231,73.994Zm0-1.785a4.193,4.193,0,0,0,1.71-.261.8.8,0,0,0,.547-.716V67.257a2.561,2.561,0,0,0-.531-1.785,2.26,2.26,0,0,0-1.727-.573,2.3,2.3,0,0,0-1.348.337,1.9,1.9,0,0,0-.674,1.12,9.35,9.35,0,0,0-.2,2.215,9.239,9.239,0,0,0,.2,2.207,1.849,1.849,0,0,0,.674,1.1A2.342,2.342,0,0,0,35.231,72.209Zm17.653,1.55H50.93l.253-13.475h1.785l2.56,6.317,2.56-6.317h1.8l.236,13.475H58.19L58.022,65.3l-1.684,4.548H54.72L53.036,65.3Zm9.955,3.3a3.423,3.423,0,0,1-1.145-.168,4.472,4.472,0,0,1-1.044-.573l.775-1.634a8.892,8.892,0,0,0,.876.488,1.357,1.357,0,0,0,.539.1,2.386,2.386,0,0,0,.977-.168,1.582,1.582,0,0,0,.649-.581,5.208,5.208,0,0,0,.547-1.221l-3.487-9.955h2.021L66.04,70.76l2.527-7.411H70.6l-3.622,10.09a9.232,9.232,0,0,1-1.027,2.156,3.24,3.24,0,0,1-1.272,1.12A4.326,4.326,0,0,1,62.839,77.06ZM80.121,60.283v1.785h-6.3v4.447h4.026V68.3H73.822v5.458H71.885V60.283Zm5.441,13.711a4.705,4.705,0,0,1-2.156-.413,2.41,2.41,0,0,1-1.145-1.339,7.284,7.284,0,0,1-.354-2.527V63.349h1.937v6.367a6.364,6.364,0,0,0,.143,1.567,1.115,1.115,0,0,0,.505.724,2.246,2.246,0,0,0,1.07.2,5.355,5.355,0,0,0,1.558-.168,1.136,1.136,0,0,0,.716-.6,3.1,3.1,0,0,0,.2-1.272V63.349h1.954v10.41H88.038V73.59A6.067,6.067,0,0,1,85.562,73.994Zm6.451-.236V63.349h1.937V63.6a5.869,5.869,0,0,1,2.476-.488,5.01,5.01,0,0,1,2.215.4,2.28,2.28,0,0,1,1.12,1.331,8.094,8.094,0,0,1,.337,2.636v6.283H98.145V67.476a5.847,5.847,0,0,0-.16-1.558,1.334,1.334,0,0,0-.522-.783,1.9,1.9,0,0,0-1.036-.236,4.9,4.9,0,0,0-1.609.194,1.111,1.111,0,0,0-.691.682,4.784,4.784,0,0,0-.177,1.516v6.468Zm14.351.236a5.463,5.463,0,0,1-2.661-.547A3.111,3.111,0,0,1,102.3,71.72a11.888,11.888,0,0,1,0-6.333,3.093,3.093,0,0,1,1.423-1.727,5.649,5.649,0,0,1,2.712-.547,4.549,4.549,0,0,1,2.341.522,5.292,5.292,0,0,1,1.684,1.853l-1.617.96a6.859,6.859,0,0,0-.724-.977,1.657,1.657,0,0,0-.682-.446,4.079,4.079,0,0,0-2.611.2,1.788,1.788,0,0,0-.792,1.1,10.984,10.984,0,0,0,0,4.447,1.823,1.823,0,0,0,.766,1.1,3.042,3.042,0,0,0,1.567.328,3.156,3.156,0,0,0,1-.135,1.876,1.876,0,0,0,.724-.463,6.661,6.661,0,0,0,.766-.985l1.6.977a5.486,5.486,0,0,1-1.727,1.87A4.636,4.636,0,0,1,106.365,73.994Zm10.9,0a3.98,3.98,0,0,1-1.971-.421,2.47,2.47,0,0,1-1.086-1.339,7,7,0,0,1-.345-2.417V64.932h-2.089V63.147h2.089V60.283H115.8v2.864h3.487v1.785H115.8v4.885a6.06,6.06,0,0,0,.135,1.457,1.2,1.2,0,0,0,.446.724,1.572,1.572,0,0,0,.884.211,3.425,3.425,0,0,0,.9-.084.666.666,0,0,0,.4-.3,4.159,4.159,0,0,0,.295-.758l1.819.623a3.862,3.862,0,0,1-.657,1.373,2.252,2.252,0,0,1-1.053.716A5.476,5.476,0,0,1,117.263,73.994ZM127.69,63.349v8.624h2.948v1.785H122.8V71.973h2.948V65.134H123.63V63.349Zm-1.331-1.516a1.7,1.7,0,0,1-1.154-.295,2.05,2.05,0,0,1,0-2.173,1.7,1.7,0,0,1,1.154-.295,1.734,1.734,0,0,1,1.162.295,2,2,0,0,1,0,2.173A1.734,1.734,0,0,1,126.359,61.833Zm10.022,12.162a4.684,4.684,0,0,1-2.468-.556,3.107,3.107,0,0,1-1.3-1.735,12.731,12.731,0,0,1,0-6.3,3.107,3.107,0,0,1,1.3-1.735,5.774,5.774,0,0,1,4.944,0,3.1,3.1,0,0,1,1.305,1.735,12.73,12.73,0,0,1,0,6.3,3.1,3.1,0,0,1-1.305,1.735A4.731,4.731,0,0,1,136.381,73.994Zm0-1.785a2.384,2.384,0,0,0,1.356-.328,1.837,1.837,0,0,0,.682-1.112,12.237,12.237,0,0,0,0-4.43,1.837,1.837,0,0,0-.682-1.112,2.384,2.384,0,0,0-1.356-.328,2.342,2.342,0,0,0-1.348.328,1.855,1.855,0,0,0-.674,1.112,12.238,12.238,0,0,0,0,4.43,1.855,1.855,0,0,0,.674,1.112A2.342,2.342,0,0,0,136.381,72.209Zm6.165,1.55V63.349h1.937V63.6a5.869,5.869,0,0,1,2.476-.488,5.01,5.01,0,0,1,2.215.4,2.28,2.28,0,0,1,1.12,1.331,8.094,8.094,0,0,1,.337,2.636v6.283h-1.954V67.476a5.848,5.848,0,0,0-.16-1.558,1.334,1.334,0,0,0-.522-.783,1.9,1.9,0,0,0-1.036-.236,4.9,4.9,0,0,0-1.609.194,1.111,1.111,0,0,0-.691.682,4.784,4.784,0,0,0-.177,1.516v6.468ZM169.615,76.2a4.372,4.372,0,0,1-2.981-1.145,7.35,7.35,0,0,1-2-3.226,16.7,16.7,0,0,1,0-9.618,7.35,7.35,0,0,1,2-3.226,4.373,4.373,0,0,1,2.981-1.145v1.785a2.606,2.606,0,0,0-1.962.918,6.256,6.256,0,0,0-1.322,2.594,16.217,16.217,0,0,0,0,7.765,6.256,6.256,0,0,0,1.322,2.594,2.606,2.606,0,0,0,1.962.918Zm4.3-1.785a2.606,2.606,0,0,0,1.962-.918A6.256,6.256,0,0,0,177.2,70.9a16.217,16.217,0,0,0,0-7.765,6.256,6.256,0,0,0-1.322-2.594,2.606,2.606,0,0,0-1.962-.918V57.841a4.373,4.373,0,0,1,2.981,1.145,7.35,7.35,0,0,1,2,3.226,16.7,16.7,0,0,1,0,9.618,7.35,7.35,0,0,1-2,3.226A4.373,4.373,0,0,1,173.91,76.2ZM200.558,76.2a5.986,5.986,0,0,1-3.622-.867,3.274,3.274,0,0,1-1.129-2.771,9.064,9.064,0,0,1,.168-1.516,8.862,8.862,0,0,0,.135-1.145,1.883,1.883,0,0,0-.59-.977q-.59-.657-1.92-1.9,1.331-1.28,1.92-1.937a1.86,1.86,0,0,0,.59-1.011,6.853,6.853,0,0,0-.135-1.027,8.32,8.32,0,0,1-.168-1.55,3.3,3.3,0,0,1,1.129-2.779,5.941,5.941,0,0,1,3.622-.876v1.8a6.287,6.287,0,0,0-1.684.177,1.494,1.494,0,0,0-.876.59,2.1,2.1,0,0,0-.27,1.154,5.636,5.636,0,0,0,.168,1.3,4.4,4.4,0,0,1,.152,1.044,2.99,2.99,0,0,1-.455,1.575,6.245,6.245,0,0,1-1.432,1.541,5.992,5.992,0,0,1,1.44,1.5,2.9,2.9,0,0,1,.446,1.55,5.253,5.253,0,0,1-.135,1.028,6.708,6.708,0,0,0-.168,1.415,2.072,2.072,0,0,0,.261,1.129,1.47,1.47,0,0,0,.867.581,6.287,6.287,0,0,0,1.684.177ZM33.884,129.985a6.287,6.287,0,0,0,1.684-.177,1.51,1.51,0,0,0,.876-.581,2.021,2.021,0,0,0,.27-1.129,6.708,6.708,0,0,0-.168-1.415,5.253,5.253,0,0,1-.135-1.028,2.944,2.944,0,0,1,.438-1.55,5.84,5.84,0,0,1,1.432-1.5,5.867,5.867,0,0,1-1.423-1.524,3.061,3.061,0,0,1-.446-1.592,4.406,4.406,0,0,1,.152-1.044,5.636,5.636,0,0,0,.168-1.3,2.1,2.1,0,0,0-.27-1.154,1.5,1.5,0,0,0-.884-.59,6.385,6.385,0,0,0-1.693-.177v-1.8a5.982,5.982,0,0,1,3.63.876,3.287,3.287,0,0,1,1.137,2.779,8.321,8.321,0,0,1-.168,1.55,6.852,6.852,0,0,0-.135,1.028,1.926,1.926,0,0,0,.59,1.027q.59.674,1.9,1.92-1.3,1.213-1.895,1.887a1.944,1.944,0,0,0-.6.994,8.861,8.861,0,0,0,.135,1.145,9.065,9.065,0,0,1,.168,1.516,3.263,3.263,0,0,1-1.137,2.771,6.026,6.026,0,0,1-3.63.867ZM1.459,157.778a6.286,6.286,0,0,0,1.684-.177,1.51,1.51,0,0,0,.876-.581,2.021,2.021,0,0,0,.27-1.129,6.708,6.708,0,0,0-.168-1.415,5.253,5.253,0,0,1-.135-1.027,2.944,2.944,0,0,1,.438-1.55,5.84,5.84,0,0,1,1.432-1.5,5.867,5.867,0,0,1-1.423-1.524,3.061,3.061,0,0,1-.446-1.592,4.406,4.406,0,0,1,.152-1.044,5.636,5.636,0,0,0,.168-1.3,2.1,2.1,0,0,0-.27-1.154,1.5,1.5,0,0,0-.884-.59,6.385,6.385,0,0,0-1.693-.177v-1.8a5.982,5.982,0,0,1,3.63.876,3.287,3.287,0,0,1,1.137,2.779,8.321,8.321,0,0,1-.168,1.55,6.852,6.852,0,0,0-.135,1.028,1.927,1.927,0,0,0,.59,1.027q.59.674,1.9,1.92-1.3,1.213-1.895,1.887a1.944,1.944,0,0,0-.6.994,8.861,8.861,0,0,0,.135,1.145,9.065,9.065,0,0,1,.168,1.516,3.263,3.263,0,0,1-1.137,2.771,6.026,6.026,0,0,1-3.63.867Z" transform="translate(593.636 8091.745)" fill="#12263f"/>
  </g>
</svg>
