<svg id="Layer_2" data-name="Layer 2" xmlns="http://www.w3.org/2000/svg" width="85" height="85" viewBox="0 0 85 85">
  <g id="_4.N_3" data-name="4.N_3">
    <rect id="background" width="85" height="85" rx="42.5" fill="#0fb4f6"/>
    <path id="Trazado_688364" data-name="Trazado 688364" d="M85.806,73.287a8.307,8.307,0,0,0-3.864-2.709,8.727,8.727,0,0,0,3.555-2.9,6.554,6.554,0,0,0,1.222-3.767,7.836,7.836,0,0,0-2.951-6.476q-2.951-2.357-8.109-2.328a12.866,12.866,0,0,0-5.312,1.072,8.925,8.925,0,0,0-3.767,2.98,7.312,7.312,0,0,0-1.362,4.347h7.172a2.521,2.521,0,0,1,1.053-2.057,3.864,3.864,0,0,1,2.473-.831,3.627,3.627,0,0,1,2.695.966,3.4,3.4,0,0,1,.966,2.5q0,3.926-4.013,3.926H72.182v5.313h3.482a4.873,4.873,0,0,1,3.226.966A4.08,4.08,0,0,1,80.059,77.6a3.516,3.516,0,0,1-1.125,2.685,4.236,4.236,0,0,1-3.014,1.053,4.047,4.047,0,0,1-2.84-1.014,3.212,3.212,0,0,1-1.145-2.458H64.749a8.341,8.341,0,0,0,1.338,4.656,8.838,8.838,0,0,0,3.936,3.207,13.759,13.759,0,0,0,5.636,1.154A13.232,13.232,0,0,0,84.024,84.4a7.983,7.983,0,0,0,3.183-6.641,7.128,7.128,0,0,0-1.4-4.467Z" transform="translate(-33.478 -28.493)" fill="#fff"/>
  </g>
</svg>
