<svg id="Layer_2" data-name="Layer 2" xmlns="http://www.w3.org/2000/svg" width="85" height="85" viewBox="0 0 85 85">
  <g id="_3.N_2" data-name="3.N_2">
    <rect id="background" width="85" height="85" rx="42.5" fill="#0fb4f6"/>
    <path id="Trazado_688363" data-name="Trazado 688363" d="M74.886,81.286l4.047-4.665a53.945,53.945,0,0,0,4.675-5.143,15.758,15.758,0,0,0,2.144-3.68,9.765,9.765,0,0,0,.686-3.6A8.374,8.374,0,0,0,83.7,57.461q-2.743-2.347-7.819-2.352a11.9,11.9,0,0,0-5.709,1.4,10.108,10.108,0,0,0-4,3.815,10.292,10.292,0,0,0-1.449,5.313h7.264a5.8,5.8,0,0,1,1.034-3.526,3.439,3.439,0,0,1,5.25-.353,4.7,4.7,0,0,1,.879,3.076q0,2.492-3.719,6.732L65.338,82.145v4.733H87.192V81.286Z" transform="translate(-33.463 -28.494)" fill="#fff"/>
  </g>
</svg>
