<svg xmlns="http://www.w3.org/2000/svg" width="610" height="225" viewBox="0 0 610 225">
  <g id="Grupo_168060" data-name="Grupo 168060" transform="translate(-495 -23525)">
    <g id="Rectángulo_342144" data-name="Rectángulo 342144" transform="translate(495 23525)" fill="#8979f3" stroke="#707070" stroke-width="1" opacity="0.25">
      <rect width="610" height="225" rx="25" stroke="none"/>
      <rect x="0.5" y="0.5" width="609" height="224" rx="24.5" fill="none"/>
    </g>
    <path id="Trazado_688371" data-name="Trazado 688371" d="M5.654,17.591H3.967L.364,7.562H2.295L4.81,14.816,7.375,7.562H9.29Zm8.91.227a4.513,4.513,0,0,1-2.378-.536,2.994,2.994,0,0,1-1.25-1.672,9.807,9.807,0,0,1-.381-3.035,9.807,9.807,0,0,1,.381-3.035,2.994,2.994,0,0,1,1.25-1.672,4.513,4.513,0,0,1,2.378-.536,4.558,4.558,0,0,1,2.386.536,2.982,2.982,0,0,1,1.258,1.672,9.807,9.807,0,0,1,.381,3.035,9.807,9.807,0,0,1-.381,3.035,2.982,2.982,0,0,1-1.258,1.672A4.558,4.558,0,0,1,14.564,17.818Zm0-1.72a2.3,2.3,0,0,0,1.306-.316,1.77,1.77,0,0,0,.657-1.071,9.009,9.009,0,0,0,.195-2.134,9.009,9.009,0,0,0-.195-2.134,1.77,1.77,0,0,0-.657-1.071,2.3,2.3,0,0,0-1.306-.316,2.256,2.256,0,0,0-1.3.316,1.787,1.787,0,0,0-.649,1.071,9.009,9.009,0,0,0-.195,2.134,9.009,9.009,0,0,0,.195,2.134,1.787,1.787,0,0,0,.649,1.071A2.256,2.256,0,0,0,14.564,16.1Zm11.1-8.537v8.309h2.84v1.72H20.959v-1.72H23.8V9.282H21.754V7.562ZM24.383,6.1a1.636,1.636,0,0,1-1.112-.284,1.423,1.423,0,0,1-.3-1.047,1.423,1.423,0,0,1,.3-1.047,1.636,1.636,0,0,1,1.112-.284,1.671,1.671,0,0,1,1.12.284,1.4,1.4,0,0,1,.308,1.047A1.4,1.4,0,0,1,25.5,5.817,1.671,1.671,0,0,1,24.383,6.1Zm9.575,11.717a4.57,4.57,0,0,1-2.378-.527,2.956,2.956,0,0,1-1.25-1.663,9.807,9.807,0,0,1-.381-3.035,9.873,9.873,0,0,1,.381-3.051,2.994,2.994,0,0,1,1.25-1.672,4.513,4.513,0,0,1,2.378-.536,6.057,6.057,0,0,1,2.175.39V4.608H38V17.591H36.133v-.114A6.373,6.373,0,0,1,33.958,17.818Zm0-1.72a4.04,4.04,0,0,0,1.647-.252.769.769,0,0,0,.527-.69v-3.83a2.467,2.467,0,0,0-.511-1.72,2.178,2.178,0,0,0-1.663-.552,2.213,2.213,0,0,0-1.3.325,1.826,1.826,0,0,0-.649,1.079,9.009,9.009,0,0,0-.195,2.134,8.9,8.9,0,0,0,.195,2.126,1.782,1.782,0,0,0,.649,1.063A2.256,2.256,0,0,0,33.958,16.1Zm19.556,1.72a4.641,4.641,0,0,1-2.556-.609,3.377,3.377,0,0,1-1.339-1.923,12.4,12.4,0,0,1-.406-3.538v-1.3a12.4,12.4,0,0,1,.406-3.538,3.377,3.377,0,0,1,1.339-1.923,5.672,5.672,0,0,1,5.112,0,3.412,3.412,0,0,1,1.347,1.923,12.17,12.17,0,0,1,.414,3.538v1.3a12.17,12.17,0,0,1-.414,3.538A3.412,3.412,0,0,1,56.07,17.21,4.641,4.641,0,0,1,53.514,17.818Zm0-1.72a2.387,2.387,0,0,0,1.477-.4,2.252,2.252,0,0,0,.738-1.323,12.079,12.079,0,0,0,.219-2.629v-1.3a12.079,12.079,0,0,0-.219-2.629A2.252,2.252,0,0,0,54.991,6.5a2.942,2.942,0,0,0-2.954,0A2.252,2.252,0,0,0,51.3,7.821a12.079,12.079,0,0,0-.219,2.629v1.3a11.22,11.22,0,0,0,.211,2.621,2.293,2.293,0,0,0,.747,1.331A2.387,2.387,0,0,0,53.514,16.1Zm5.94,1.493V7.562h1.866V7.8a5.655,5.655,0,0,1,2.386-.471,4.827,4.827,0,0,1,2.134.381A2.2,2.2,0,0,1,66.92,9a7.8,7.8,0,0,1,.325,2.54v6.053H65.362V11.538a5.634,5.634,0,0,0-.154-1.5,1.286,1.286,0,0,0-.5-.755,1.83,1.83,0,0,0-1-.227,4.723,4.723,0,0,0-1.55.187,1.07,1.07,0,0,0-.665.657,4.609,4.609,0,0,0-.17,1.461v6.232Zm13.779.227a4.5,4.5,0,0,1-2.629-.674,3.769,3.769,0,0,1-1.379-2.126,14.638,14.638,0,0,1-.422-3.936,14.56,14.56,0,0,1,.422-3.919A3.728,3.728,0,0,1,70.6,5.046a4.545,4.545,0,0,1,2.629-.665,4.961,4.961,0,0,1,1.931.325,2.833,2.833,0,0,1,1.258,1.063,7.075,7.075,0,0,1,.852,2.021L75.5,8.405a7.524,7.524,0,0,0-.536-1.453,1.487,1.487,0,0,0-.649-.665A2.569,2.569,0,0,0,73.233,6.1a2.36,2.36,0,0,0-1.542.454A2.649,2.649,0,0,0,70.9,8.081a14.773,14.773,0,0,0-.235,3A14.879,14.879,0,0,0,70.9,14.1a2.692,2.692,0,0,0,.787,1.534,2.331,2.331,0,0,0,1.542.463,2.569,2.569,0,0,0,1.087-.187,1.5,1.5,0,0,0,.649-.649,7.07,7.07,0,0,0,.536-1.42l1.769.6a6.958,6.958,0,0,1-.852,2,2.859,2.859,0,0,1-1.25,1.055A4.949,4.949,0,0,1,73.233,17.818Zm9.494,0a4.513,4.513,0,0,1-2.378-.536,2.994,2.994,0,0,1-1.25-1.672,9.807,9.807,0,0,1-.381-3.035A9.807,9.807,0,0,1,79.1,9.541a2.994,2.994,0,0,1,1.25-1.672,5.563,5.563,0,0,1,4.763,0A2.982,2.982,0,0,1,86.37,9.541a9.807,9.807,0,0,1,.381,3.035,9.807,9.807,0,0,1-.381,3.035,2.982,2.982,0,0,1-1.258,1.672A4.558,4.558,0,0,1,82.727,17.818Zm0-1.72a2.3,2.3,0,0,0,1.306-.316,1.77,1.77,0,0,0,.657-1.071,9.009,9.009,0,0,0,.195-2.134,9.009,9.009,0,0,0-.195-2.134,1.77,1.77,0,0,0-.657-1.071,2.3,2.3,0,0,0-1.306-.316,2.256,2.256,0,0,0-1.3.316,1.787,1.787,0,0,0-.649,1.071,9.009,9.009,0,0,0-.195,2.134,9.009,9.009,0,0,0,.195,2.134,1.787,1.787,0,0,0,.649,1.071A2.256,2.256,0,0,0,82.727,16.1Zm11.409,1.72a3.726,3.726,0,0,1-1.761-.341,1.925,1.925,0,0,1-.893-1.136,7.325,7.325,0,0,1-.268-2.24V6.328H89.17V4.608h3.911V14.1a3.713,3.713,0,0,0,.227,1.566.851.851,0,0,0,.828.43,1.247,1.247,0,0,0,.625-.195,7.624,7.624,0,0,0,.933-.7l1.039,1.59a4.975,4.975,0,0,1-1.274.8A3.623,3.623,0,0,1,94.136,17.818Zm9.738,0a3.726,3.726,0,0,1-1.761-.341,1.925,1.925,0,0,1-.893-1.136,7.325,7.325,0,0,1-.268-2.24V6.328H98.907V4.608h3.911V14.1a3.713,3.713,0,0,0,.227,1.566.851.851,0,0,0,.828.43,1.247,1.247,0,0,0,.625-.195,7.624,7.624,0,0,0,.933-.7l1.039,1.59a4.975,4.975,0,0,1-1.274.8A3.623,3.623,0,0,1,103.874,17.818ZM113.3,7.562v8.309h2.84v1.72H108.6v-1.72h2.84V9.282h-2.045V7.562ZM112.021,6.1a1.636,1.636,0,0,1-1.112-.284,1.423,1.423,0,0,1-.3-1.047,1.423,1.423,0,0,1,.3-1.047,1.636,1.636,0,0,1,1.112-.284,1.671,1.671,0,0,1,1.12.284,1.4,1.4,0,0,1,.308,1.047,1.4,1.4,0,0,1-.308,1.047A1.671,1.671,0,0,1,112.021,6.1Zm9.251,11.717a4.035,4.035,0,0,1-2.134-.487,4.216,4.216,0,0,1-1.42-1.72l1.477-1.217a6.854,6.854,0,0,0,.56,1.087,1.282,1.282,0,0,0,.576.479,2.581,2.581,0,0,0,.941.138,8.152,8.152,0,0,0,1.688-.13,1.251,1.251,0,0,0,.779-.43,1.5,1.5,0,0,0,.211-.868,1.55,1.55,0,0,0-.17-.828,1.049,1.049,0,0,0-.609-.39,10.406,10.406,0,0,0-1.477-.26,6.392,6.392,0,0,1-2.84-.868,2.255,2.255,0,0,1-.876-1.972,3.292,3.292,0,0,1,.406-1.745,2.359,2.359,0,0,1,1.3-.966,7.571,7.571,0,0,1,2.4-.308,4.808,4.808,0,0,1,2.223.422,3.919,3.919,0,0,1,1.444,1.493l-1.363,1.331a5.978,5.978,0,0,0-.617-.974,1.369,1.369,0,0,0-.633-.43,3.56,3.56,0,0,0-1.055-.122,6.507,6.507,0,0,0-1.4.114,1.022,1.022,0,0,0-.657.39,1.468,1.468,0,0,0-.179.8.793.793,0,0,0,.195.584,1.235,1.235,0,0,0,.584.292q.389.1,1.2.211a11.463,11.463,0,0,1,2.394.56,2.4,2.4,0,0,1,1.233.958,3.278,3.278,0,0,1,.381,1.712,3.318,3.318,0,0,1-.446,1.826,2.559,2.559,0,0,1-1.444,1.006A9.106,9.106,0,0,1,121.271,17.818ZM132.778,7.562v8.309h2.84v1.72h-7.547v-1.72h2.84V9.282h-2.045V7.562ZM131.5,6.1a1.636,1.636,0,0,1-1.112-.284,1.423,1.423,0,0,1-.3-1.047,1.423,1.423,0,0,1,.3-1.047,1.636,1.636,0,0,1,1.112-.284,1.671,1.671,0,0,1,1.12.284,1.4,1.4,0,0,1,.308,1.047,1.4,1.4,0,0,1-.308,1.047A1.671,1.671,0,0,1,131.5,6.1Zm9.656,11.717a4.513,4.513,0,0,1-2.378-.536,2.994,2.994,0,0,1-1.25-1.672,9.807,9.807,0,0,1-.381-3.035,9.807,9.807,0,0,1,.381-3.035,2.994,2.994,0,0,1,1.25-1.672,5.563,5.563,0,0,1,4.763,0A2.982,2.982,0,0,1,144.8,9.541a9.807,9.807,0,0,1,.381,3.035,9.807,9.807,0,0,1-.381,3.035,2.982,2.982,0,0,1-1.258,1.672A4.558,4.558,0,0,1,141.152,17.818Zm0-1.72a2.3,2.3,0,0,0,1.306-.316,1.77,1.77,0,0,0,.657-1.071,9.009,9.009,0,0,0,.195-2.134,9.009,9.009,0,0,0-.195-2.134,1.77,1.77,0,0,0-.657-1.071,2.3,2.3,0,0,0-1.306-.316,2.256,2.256,0,0,0-1.3.316,1.787,1.787,0,0,0-.649,1.071,9.009,9.009,0,0,0-.195,2.134,9.009,9.009,0,0,0,.195,2.134,1.787,1.787,0,0,0,.649,1.071A2.256,2.256,0,0,0,141.152,16.1Zm5.94,1.493V7.562h1.866V7.8a5.655,5.655,0,0,1,2.386-.471,4.827,4.827,0,0,1,2.134.381A2.2,2.2,0,0,1,154.557,9a7.8,7.8,0,0,1,.325,2.54v6.053H153V11.538a5.634,5.634,0,0,0-.154-1.5,1.286,1.286,0,0,0-.5-.755,1.83,1.83,0,0,0-1-.227,4.723,4.723,0,0,0-1.55.187,1.07,1.07,0,0,0-.665.657,4.609,4.609,0,0,0-.17,1.461v6.232ZM164.831,4.608v1.72h-6.07V9.866h3.9v1.72h-3.9v4.285h6.07v1.72h-7.936V4.608Zm1.737,12.983V7.562h1.866V7.8a5.655,5.655,0,0,1,2.386-.471,4.827,4.827,0,0,1,2.134.381A2.2,2.2,0,0,1,174.033,9a7.8,7.8,0,0,1,.325,2.54v6.053h-1.883V11.538a5.634,5.634,0,0,0-.154-1.5,1.286,1.286,0,0,0-.5-.755,1.829,1.829,0,0,0-1-.227,4.723,4.723,0,0,0-1.55.187,1.07,1.07,0,0,0-.665.657,4.608,4.608,0,0,0-.17,1.461v6.232Zm14.59.227a3.835,3.835,0,0,1-1.9-.406,2.38,2.38,0,0,1-1.047-1.29,6.747,6.747,0,0,1-.333-2.329V9.087h-2.012V7.367h2.012V4.608h1.866V7.367H183.1v1.72h-3.359v4.706a5.839,5.839,0,0,0,.13,1.4,1.153,1.153,0,0,0,.43.7,1.514,1.514,0,0,0,.852.2,3.3,3.3,0,0,0,.868-.081.642.642,0,0,0,.389-.292,4.007,4.007,0,0,0,.284-.73l1.753.6a3.721,3.721,0,0,1-.633,1.323,2.17,2.17,0,0,1-1.014.69A5.277,5.277,0,0,1,181.157,17.818Zm8.731-1.72a2.675,2.675,0,0,0,1.388-.333,4.121,4.121,0,0,0,1.16-1.177l1.493.99a5.351,5.351,0,0,1-1.712,1.753,4.763,4.763,0,0,1-2.329.487,5.563,5.563,0,0,1-2.572-.487A2.781,2.781,0,0,1,186,15.725a9.793,9.793,0,0,1-.4-3.148,9.793,9.793,0,0,1,.4-3.148,2.781,2.781,0,0,1,1.315-1.607,5.563,5.563,0,0,1,2.572-.487,5.023,5.023,0,0,1,2.524.527,2.966,2.966,0,0,1,1.29,1.761,12,12,0,0,1,.389,3.457h-6.605a6.041,6.041,0,0,0,.292,1.8,1.707,1.707,0,0,0,.747.933A2.778,2.778,0,0,0,189.888,16.1Zm0-7.043a2.431,2.431,0,0,0-1.72.511,2.781,2.781,0,0,0-.649,1.793h4.658a3.645,3.645,0,0,0-.211-1.388,1.291,1.291,0,0,0-.706-.706A3.59,3.59,0,0,0,189.888,9.055Zm6.329,8.537V7.562h1.866v.828a3.568,3.568,0,0,1,1.006-.738,2.873,2.873,0,0,1,1.331-.316,4.156,4.156,0,0,1,1.558.252,2.609,2.609,0,0,1,1.063.811,5.481,5.481,0,0,1,.8,1.55l-1.672.763a5.815,5.815,0,0,0-.422-1.055,1.06,1.06,0,0,0-.495-.471,2.163,2.163,0,0,0-.836-.13,1.949,1.949,0,0,0-1.8.868,4.852,4.852,0,0,0-.536,2.524v5.145Zm25.642,2.353a4.213,4.213,0,0,1-2.873-1.1,7.081,7.081,0,0,1-1.931-3.108,14.382,14.382,0,0,1-.682-4.633,14.382,14.382,0,0,1,.682-4.633,7.081,7.081,0,0,1,1.931-3.108,4.213,4.213,0,0,1,2.873-1.1v1.72a2.511,2.511,0,0,0-1.891.884,6.027,6.027,0,0,0-1.274,2.5,13.862,13.862,0,0,0-.454,3.741,13.862,13.862,0,0,0,.454,3.741,6.027,6.027,0,0,0,1.274,2.5,2.511,2.511,0,0,0,1.891.884Zm7.173-2.126a4.5,4.5,0,0,1-2.629-.674,3.769,3.769,0,0,1-1.379-2.126,14.638,14.638,0,0,1-.422-3.936,14.56,14.56,0,0,1,.422-3.919A3.728,3.728,0,0,1,226.4,5.046a4.545,4.545,0,0,1,2.629-.665,4.961,4.961,0,0,1,1.931.325,2.833,2.833,0,0,1,1.258,1.063,7.075,7.075,0,0,1,.852,2.021l-1.769.617a7.523,7.523,0,0,0-.536-1.453,1.487,1.487,0,0,0-.649-.665,2.569,2.569,0,0,0-1.087-.187,2.36,2.36,0,0,0-1.542.454,2.649,2.649,0,0,0-.787,1.526,14.772,14.772,0,0,0-.235,3A14.878,14.878,0,0,0,226.7,14.1a2.693,2.693,0,0,0,.787,1.534,2.331,2.331,0,0,0,1.542.463,2.569,2.569,0,0,0,1.087-.187,1.5,1.5,0,0,0,.649-.649,7.069,7.069,0,0,0,.536-1.42l1.769.6a6.958,6.958,0,0,1-.852,2,2.859,2.859,0,0,1-1.25,1.055A4.949,4.949,0,0,1,229.033,17.818Zm9.494,0a4.513,4.513,0,0,1-2.378-.536,2.994,2.994,0,0,1-1.25-1.672,9.807,9.807,0,0,1-.381-3.035,9.807,9.807,0,0,1,.381-3.035,2.994,2.994,0,0,1,1.25-1.672,5.563,5.563,0,0,1,4.763,0,2.982,2.982,0,0,1,1.258,1.672,9.807,9.807,0,0,1,.381,3.035,9.807,9.807,0,0,1-.381,3.035,2.982,2.982,0,0,1-1.258,1.672A4.558,4.558,0,0,1,238.527,17.818Zm0-1.72a2.3,2.3,0,0,0,1.306-.316,1.77,1.77,0,0,0,.657-1.071,9.009,9.009,0,0,0,.195-2.134,9.009,9.009,0,0,0-.195-2.134,1.77,1.77,0,0,0-.657-1.071,2.3,2.3,0,0,0-1.306-.316,2.256,2.256,0,0,0-1.3.316,1.787,1.787,0,0,0-.649,1.071,9.009,9.009,0,0,0-.195,2.134,9.009,9.009,0,0,0,.195,2.134,1.787,1.787,0,0,0,.649,1.071A2.256,2.256,0,0,0,238.527,16.1Zm11.409,1.72a3.726,3.726,0,0,1-1.761-.341,1.925,1.925,0,0,1-.893-1.136,7.325,7.325,0,0,1-.268-2.24V6.328H244.97V4.608h3.911V14.1a3.713,3.713,0,0,0,.227,1.566.851.851,0,0,0,.828.43,1.247,1.247,0,0,0,.625-.195,7.621,7.621,0,0,0,.933-.7l1.039,1.59a4.975,4.975,0,0,1-1.274.8A3.623,3.623,0,0,1,249.937,17.818Zm9.738,0a3.726,3.726,0,0,1-1.761-.341,1.925,1.925,0,0,1-.893-1.136,7.325,7.325,0,0,1-.268-2.24V6.328h-2.045V4.608h3.911V14.1a3.713,3.713,0,0,0,.227,1.566.851.851,0,0,0,.828.43,1.247,1.247,0,0,0,.625-.195,7.622,7.622,0,0,0,.933-.7l1.039,1.59a4.974,4.974,0,0,1-1.274.8A3.623,3.623,0,0,1,259.674,17.818ZM269.1,7.562v8.309h2.84v1.72H264.4v-1.72h2.84V9.282h-2.045V7.562ZM267.821,6.1a1.636,1.636,0,0,1-1.112-.284,1.423,1.423,0,0,1-.3-1.047,1.423,1.423,0,0,1,.3-1.047,1.636,1.636,0,0,1,1.112-.284,1.671,1.671,0,0,1,1.12.284,1.4,1.4,0,0,1,.308,1.047,1.4,1.4,0,0,1-.308,1.047A1.671,1.671,0,0,1,267.821,6.1Zm9.251,11.717a4.035,4.035,0,0,1-2.134-.487,4.216,4.216,0,0,1-1.42-1.72l1.477-1.217a6.855,6.855,0,0,0,.56,1.087,1.282,1.282,0,0,0,.576.479,2.581,2.581,0,0,0,.941.138,8.152,8.152,0,0,0,1.688-.13,1.251,1.251,0,0,0,.779-.43,1.5,1.5,0,0,0,.211-.868,1.549,1.549,0,0,0-.17-.828,1.049,1.049,0,0,0-.609-.39,10.406,10.406,0,0,0-1.477-.26,6.392,6.392,0,0,1-2.84-.868,2.255,2.255,0,0,1-.876-1.972,3.292,3.292,0,0,1,.406-1.745,2.359,2.359,0,0,1,1.3-.966,7.571,7.571,0,0,1,2.4-.308,4.808,4.808,0,0,1,2.223.422,3.919,3.919,0,0,1,1.444,1.493l-1.363,1.331a5.979,5.979,0,0,0-.617-.974,1.369,1.369,0,0,0-.633-.43,3.56,3.56,0,0,0-1.055-.122,6.507,6.507,0,0,0-1.4.114,1.022,1.022,0,0,0-.657.39,1.467,1.467,0,0,0-.179.8.793.793,0,0,0,.195.584,1.235,1.235,0,0,0,.584.292q.39.1,1.2.211a11.463,11.463,0,0,1,2.394.56,2.4,2.4,0,0,1,1.233.958,3.279,3.279,0,0,1,.381,1.712,3.317,3.317,0,0,1-.446,1.826,2.559,2.559,0,0,1-1.444,1.006A9.106,9.106,0,0,1,277.072,17.818ZM288.578,7.562v8.309h2.84v1.72h-7.547v-1.72h2.84V9.282h-2.045V7.562ZM287.3,6.1a1.636,1.636,0,0,1-1.112-.284,1.423,1.423,0,0,1-.3-1.047,1.423,1.423,0,0,1,.3-1.047,1.636,1.636,0,0,1,1.112-.284,1.671,1.671,0,0,1,1.12.284,1.4,1.4,0,0,1,.308,1.047,1.4,1.4,0,0,1-.308,1.047A1.671,1.671,0,0,1,287.3,6.1Zm9.656,11.717a4.513,4.513,0,0,1-2.378-.536,2.994,2.994,0,0,1-1.25-1.672,9.808,9.808,0,0,1-.381-3.035,9.808,9.808,0,0,1,.381-3.035,2.994,2.994,0,0,1,1.25-1.672,5.563,5.563,0,0,1,4.763,0A2.982,2.982,0,0,1,300.6,9.541a9.807,9.807,0,0,1,.381,3.035,9.807,9.807,0,0,1-.381,3.035,2.982,2.982,0,0,1-1.258,1.672A4.558,4.558,0,0,1,296.953,17.818Zm0-1.72a2.3,2.3,0,0,0,1.306-.316,1.77,1.77,0,0,0,.657-1.071,9.007,9.007,0,0,0,.195-2.134,9.007,9.007,0,0,0-.195-2.134,1.77,1.77,0,0,0-.657-1.071,2.3,2.3,0,0,0-1.306-.316,2.256,2.256,0,0,0-1.3.316,1.787,1.787,0,0,0-.649,1.071,9.008,9.008,0,0,0-.195,2.134,9.008,9.008,0,0,0,.195,2.134,1.787,1.787,0,0,0,.649,1.071A2.256,2.256,0,0,0,296.953,16.1Zm5.94,1.493V7.562h1.866V7.8a5.655,5.655,0,0,1,2.386-.471,4.827,4.827,0,0,1,2.134.381A2.2,2.2,0,0,1,310.358,9a7.8,7.8,0,0,1,.325,2.54v6.053H308.8V11.538a5.633,5.633,0,0,0-.154-1.5,1.286,1.286,0,0,0-.5-.755,1.83,1.83,0,0,0-1-.227,4.723,4.723,0,0,0-1.55.187,1.07,1.07,0,0,0-.665.657,4.608,4.608,0,0,0-.17,1.461v6.232Zm23.565.227a5.263,5.263,0,0,1-2.564-.527,3,3,0,0,1-1.355-1.663,9.149,9.149,0,0,1-.414-3.051,9.149,9.149,0,0,1,.414-3.051,2.98,2.98,0,0,1,1.371-1.663,5.443,5.443,0,0,1,2.613-.527,4.383,4.383,0,0,1,2.256.5A5.1,5.1,0,0,1,330.4,9.623l-1.558.925a6.611,6.611,0,0,0-.7-.941,1.6,1.6,0,0,0-.657-.43,3.93,3.93,0,0,0-2.516.195,1.722,1.722,0,0,0-.763,1.063,8.03,8.03,0,0,0-.219,2.142,8.03,8.03,0,0,0,.219,2.142,1.756,1.756,0,0,0,.738,1.063,2.931,2.931,0,0,0,1.509.316,3.041,3.041,0,0,0,.966-.13,1.808,1.808,0,0,0,.7-.446,6.417,6.417,0,0,0,.738-.949l1.542.941a5.285,5.285,0,0,1-1.663,1.8A4.466,4.466,0,0,1,326.457,17.818Zm9.445,0a4.513,4.513,0,0,1-2.378-.536,2.994,2.994,0,0,1-1.25-1.672,9.807,9.807,0,0,1-.381-3.035,9.807,9.807,0,0,1,.381-3.035,2.994,2.994,0,0,1,1.25-1.672,5.563,5.563,0,0,1,4.763,0,2.982,2.982,0,0,1,1.258,1.672,9.808,9.808,0,0,1,.381,3.035,9.808,9.808,0,0,1-.381,3.035,2.982,2.982,0,0,1-1.258,1.672A4.558,4.558,0,0,1,335.9,17.818Zm0-1.72a2.3,2.3,0,0,0,1.306-.316,1.77,1.77,0,0,0,.657-1.071,9.008,9.008,0,0,0,.195-2.134,9.008,9.008,0,0,0-.195-2.134,1.77,1.77,0,0,0-.657-1.071,2.3,2.3,0,0,0-1.306-.316,2.256,2.256,0,0,0-1.3.316,1.787,1.787,0,0,0-.649,1.071,9.009,9.009,0,0,0-.195,2.134,9.009,9.009,0,0,0,.195,2.134,1.787,1.787,0,0,0,.649,1.071A2.256,2.256,0,0,0,335.9,16.1Zm11.409,1.72a3.726,3.726,0,0,1-1.761-.341,1.925,1.925,0,0,1-.893-1.136,7.325,7.325,0,0,1-.268-2.24V6.328h-2.045V4.608h3.911V14.1a3.713,3.713,0,0,0,.227,1.566.851.851,0,0,0,.828.43,1.247,1.247,0,0,0,.625-.195,7.624,7.624,0,0,0,.933-.7l1.039,1.59a4.974,4.974,0,0,1-1.274.8A3.623,3.623,0,0,1,347.312,17.818Zm9.738,0a3.726,3.726,0,0,1-1.761-.341,1.925,1.925,0,0,1-.893-1.136,7.325,7.325,0,0,1-.268-2.24V6.328h-2.045V4.608h3.911V14.1a3.713,3.713,0,0,0,.227,1.566.851.851,0,0,0,.828.43,1.247,1.247,0,0,0,.625-.195,7.624,7.624,0,0,0,.933-.7l1.039,1.59a4.974,4.974,0,0,1-1.274.8A3.623,3.623,0,0,1,357.049,17.818Zm9.429-10.257v8.309h2.84v1.72h-7.547v-1.72h2.84V9.282h-2.045V7.562ZM365.2,6.1a1.636,1.636,0,0,1-1.112-.284,1.423,1.423,0,0,1-.3-1.047,1.423,1.423,0,0,1,.3-1.047,1.636,1.636,0,0,1,1.112-.284,1.671,1.671,0,0,1,1.12.284,1.4,1.4,0,0,1,.308,1.047,1.4,1.4,0,0,1-.308,1.047A1.671,1.671,0,0,1,365.2,6.1Zm9.251,11.717a4.035,4.035,0,0,1-2.134-.487,4.215,4.215,0,0,1-1.42-1.72l1.477-1.217a6.855,6.855,0,0,0,.56,1.087,1.282,1.282,0,0,0,.576.479,2.581,2.581,0,0,0,.941.138,8.152,8.152,0,0,0,1.688-.13,1.251,1.251,0,0,0,.779-.43,1.5,1.5,0,0,0,.211-.868,1.55,1.55,0,0,0-.17-.828,1.05,1.05,0,0,0-.609-.39,10.406,10.406,0,0,0-1.477-.26,6.392,6.392,0,0,1-2.84-.868,2.255,2.255,0,0,1-.876-1.972,3.292,3.292,0,0,1,.406-1.745,2.359,2.359,0,0,1,1.3-.966,7.571,7.571,0,0,1,2.4-.308,4.808,4.808,0,0,1,2.223.422,3.919,3.919,0,0,1,1.444,1.493l-1.363,1.331a5.977,5.977,0,0,0-.617-.974,1.369,1.369,0,0,0-.633-.43,3.56,3.56,0,0,0-1.055-.122,6.507,6.507,0,0,0-1.4.114,1.022,1.022,0,0,0-.657.39,1.468,1.468,0,0,0-.179.8.794.794,0,0,0,.195.584,1.235,1.235,0,0,0,.584.292q.389.1,1.2.211a11.463,11.463,0,0,1,2.394.56,2.4,2.4,0,0,1,1.233.958,3.279,3.279,0,0,1,.381,1.712,3.317,3.317,0,0,1-.446,1.826,2.559,2.559,0,0,1-1.444,1.006A9.106,9.106,0,0,1,374.447,17.818ZM385.954,7.562v8.309h2.84v1.72h-7.547v-1.72h2.84V9.282h-2.045V7.562ZM384.672,6.1a1.636,1.636,0,0,1-1.112-.284,1.423,1.423,0,0,1-.3-1.047,1.423,1.423,0,0,1,.3-1.047,1.636,1.636,0,0,1,1.112-.284,1.671,1.671,0,0,1,1.12.284A1.4,1.4,0,0,1,386.1,4.77a1.4,1.4,0,0,1-.308,1.047A1.671,1.671,0,0,1,384.672,6.1Zm9.656,11.717a4.513,4.513,0,0,1-2.378-.536,2.994,2.994,0,0,1-1.25-1.672,9.807,9.807,0,0,1-.381-3.035,9.807,9.807,0,0,1,.381-3.035,2.994,2.994,0,0,1,1.25-1.672,5.563,5.563,0,0,1,4.763,0,2.982,2.982,0,0,1,1.258,1.672,9.808,9.808,0,0,1,.381,3.035,9.808,9.808,0,0,1-.381,3.035,2.982,2.982,0,0,1-1.258,1.672A4.558,4.558,0,0,1,394.328,17.818Zm0-1.72a2.3,2.3,0,0,0,1.306-.316,1.77,1.77,0,0,0,.657-1.071,9.008,9.008,0,0,0,.195-2.134,9.008,9.008,0,0,0-.195-2.134,1.77,1.77,0,0,0-.657-1.071,2.3,2.3,0,0,0-1.306-.316,2.256,2.256,0,0,0-1.3.316,1.787,1.787,0,0,0-.649,1.071,9.007,9.007,0,0,0-.195,2.134,9.007,9.007,0,0,0,.195,2.134,1.787,1.787,0,0,0,.649,1.071A2.256,2.256,0,0,0,394.328,16.1Zm5.94,1.493V7.562h1.866V7.8a5.655,5.655,0,0,1,2.386-.471,4.827,4.827,0,0,1,2.134.381A2.2,2.2,0,0,1,407.733,9a7.8,7.8,0,0,1,.325,2.54v6.053h-1.883V11.538a5.634,5.634,0,0,0-.154-1.5,1.286,1.286,0,0,0-.5-.755,1.83,1.83,0,0,0-1-.227,4.723,4.723,0,0,0-1.55.187,1.07,1.07,0,0,0-.665.657,4.608,4.608,0,0,0-.17,1.461v6.232Zm10.744.633a2.511,2.511,0,0,0,1.891-.884,6.028,6.028,0,0,0,1.274-2.5,13.862,13.862,0,0,0,.454-3.741,13.862,13.862,0,0,0-.454-3.741,6.028,6.028,0,0,0-1.274-2.5,2.511,2.511,0,0,0-1.891-.884V2.255a4.213,4.213,0,0,1,2.873,1.1,7.081,7.081,0,0,1,1.931,3.108A14.382,14.382,0,0,1,416.5,11.1a14.382,14.382,0,0,1-.682,4.633,7.081,7.081,0,0,1-1.931,3.108,4.213,4.213,0,0,1-2.873,1.1Zm25.675,1.72a5.767,5.767,0,0,1-3.489-.836,3.155,3.155,0,0,1-1.087-2.67,8.738,8.738,0,0,1,.162-1.461,8.534,8.534,0,0,0,.13-1.1,1.814,1.814,0,0,0-.568-.941q-.568-.633-1.85-1.834,1.282-1.233,1.85-1.866a1.793,1.793,0,0,0,.568-.974,6.6,6.6,0,0,0-.13-.99,8.02,8.02,0,0,1-.162-1.493A3.178,3.178,0,0,1,433.2,3.1a5.724,5.724,0,0,1,3.489-.844V3.991a6.057,6.057,0,0,0-1.623.17,1.439,1.439,0,0,0-.844.568,2.024,2.024,0,0,0-.26,1.112,5.43,5.43,0,0,0,.162,1.25,4.245,4.245,0,0,1,.146,1.006,2.881,2.881,0,0,1-.438,1.517A6.016,6.016,0,0,1,432.45,11.1a5.773,5.773,0,0,1,1.388,1.444,2.8,2.8,0,0,1,.43,1.493,5.06,5.06,0,0,1-.13.99,6.465,6.465,0,0,0-.162,1.363,2,2,0,0,0,.252,1.087,1.416,1.416,0,0,0,.836.56,6.057,6.057,0,0,0,1.623.17ZM123.04,34.34v8.309h2.84v1.72h-7.547v-1.72h2.84V36.06h-2.045V34.34Zm-1.282-1.461a1.636,1.636,0,0,1-1.112-.284,1.423,1.423,0,0,1-.3-1.047,1.423,1.423,0,0,1,.3-1.047,1.636,1.636,0,0,1,1.112-.284,1.671,1.671,0,0,1,1.12.284,1.4,1.4,0,0,1,.308,1.047,1.4,1.4,0,0,1-.308,1.047A1.671,1.671,0,0,1,121.758,32.879Zm10.987-1.72a6.04,6.04,0,0,1,1.761.211,2.211,2.211,0,0,1,1.071.69,3.464,3.464,0,0,1,.625,1.323l-1.753.6a2.572,2.572,0,0,0-.268-.714.759.759,0,0,0-.446-.3,3.917,3.917,0,0,0-.99-.089,2.643,2.643,0,0,0-1.087.17.974.974,0,0,0-.5.6,4.346,4.346,0,0,0-.146,1.306V35.9H133.9v1.72h-2.889v6.751h-1.866V37.618H127.13V35.9h2.012v-.941a5.822,5.822,0,0,1,.349-2.232,2.248,2.248,0,0,1,1.136-1.193A5,5,0,0,1,132.745,31.159ZM143.96,46.723a4.213,4.213,0,0,1-2.873-1.1,7.081,7.081,0,0,1-1.931-3.108,14.382,14.382,0,0,1-.682-4.633,14.382,14.382,0,0,1,.682-4.633,7.081,7.081,0,0,1,1.931-3.108,4.213,4.213,0,0,1,2.873-1.1v1.72a2.511,2.511,0,0,0-1.891.884,6.028,6.028,0,0,0-1.274,2.5,13.862,13.862,0,0,0-.454,3.741,13.862,13.862,0,0,0,.454,3.741,6.028,6.028,0,0,0,1.274,2.5A2.511,2.511,0,0,0,143.96,45Zm7.222-2.126a5.263,5.263,0,0,1-2.564-.527,3,3,0,0,1-1.355-1.663,9.15,9.15,0,0,1-.414-3.051,9.15,9.15,0,0,1,.414-3.051,2.98,2.98,0,0,1,1.371-1.663,5.443,5.443,0,0,1,2.613-.527,4.383,4.383,0,0,1,2.256.5,5.1,5.1,0,0,1,1.623,1.785l-1.558.925a6.609,6.609,0,0,0-.7-.941,1.6,1.6,0,0,0-.657-.43,3.93,3.93,0,0,0-2.516.195,1.722,1.722,0,0,0-.763,1.063,8.03,8.03,0,0,0-.219,2.142,8.03,8.03,0,0,0,.219,2.142,1.756,1.756,0,0,0,.738,1.063,2.931,2.931,0,0,0,1.509.316,3.041,3.041,0,0,0,.966-.13,1.808,1.808,0,0,0,.7-.446,6.417,6.417,0,0,0,.738-.949l1.542.941a5.285,5.285,0,0,1-1.663,1.8A4.466,4.466,0,0,1,151.182,44.6Zm9.445,0a4.513,4.513,0,0,1-2.378-.536A2.994,2.994,0,0,1,157,42.389a9.807,9.807,0,0,1-.381-3.035A9.807,9.807,0,0,1,157,36.32a2.994,2.994,0,0,1,1.25-1.672,5.563,5.563,0,0,1,4.763,0,2.982,2.982,0,0,1,1.258,1.672,9.807,9.807,0,0,1,.381,3.035,9.807,9.807,0,0,1-.381,3.035,2.982,2.982,0,0,1-1.258,1.672A4.558,4.558,0,0,1,160.627,44.6Zm0-1.72a2.3,2.3,0,0,0,1.306-.316,1.77,1.77,0,0,0,.657-1.071,9.009,9.009,0,0,0,.195-2.134,9.009,9.009,0,0,0-.195-2.134,1.77,1.77,0,0,0-.657-1.071,2.3,2.3,0,0,0-1.306-.316,2.256,2.256,0,0,0-1.3.316,1.787,1.787,0,0,0-.649,1.071,9.009,9.009,0,0,0-.195,2.134,9.009,9.009,0,0,0,.195,2.134,1.787,1.787,0,0,0,.649,1.071A2.256,2.256,0,0,0,160.627,42.876Zm11.409,1.72a3.726,3.726,0,0,1-1.761-.341,1.925,1.925,0,0,1-.893-1.136,7.325,7.325,0,0,1-.268-2.24V33.106H167.07v-1.72h3.911V40.88a3.713,3.713,0,0,0,.227,1.566.851.851,0,0,0,.828.43,1.247,1.247,0,0,0,.625-.195,7.621,7.621,0,0,0,.933-.7l1.039,1.59a4.975,4.975,0,0,1-1.274.8A3.623,3.623,0,0,1,172.036,44.6Zm9.738,0a3.726,3.726,0,0,1-1.761-.341,1.925,1.925,0,0,1-.893-1.136,7.325,7.325,0,0,1-.268-2.24V33.106h-2.045v-1.72h3.911V40.88a3.713,3.713,0,0,0,.227,1.566.851.851,0,0,0,.828.43,1.247,1.247,0,0,0,.625-.195,7.623,7.623,0,0,0,.933-.7l1.039,1.59a4.975,4.975,0,0,1-1.274.8A3.623,3.623,0,0,1,181.774,44.6ZM191.2,34.34v8.309h2.84v1.72H186.5v-1.72h2.84V36.06h-2.045V34.34Zm-1.282-1.461a1.636,1.636,0,0,1-1.112-.284,1.423,1.423,0,0,1-.3-1.047,1.423,1.423,0,0,1,.3-1.047,1.636,1.636,0,0,1,1.112-.284,1.671,1.671,0,0,1,1.12.284,1.4,1.4,0,0,1,.308,1.047,1.4,1.4,0,0,1-.308,1.047A1.671,1.671,0,0,1,189.921,32.879ZM199.172,44.6a4.035,4.035,0,0,1-2.134-.487,4.216,4.216,0,0,1-1.42-1.72l1.477-1.217a6.857,6.857,0,0,0,.56,1.087,1.282,1.282,0,0,0,.576.479,2.581,2.581,0,0,0,.941.138,8.152,8.152,0,0,0,1.688-.13,1.251,1.251,0,0,0,.779-.43,1.5,1.5,0,0,0,.211-.868,1.549,1.549,0,0,0-.17-.828,1.049,1.049,0,0,0-.609-.389,10.4,10.4,0,0,0-1.477-.26,6.392,6.392,0,0,1-2.84-.868,2.255,2.255,0,0,1-.876-1.972,3.292,3.292,0,0,1,.406-1.745,2.359,2.359,0,0,1,1.3-.966,7.571,7.571,0,0,1,2.4-.308,4.808,4.808,0,0,1,2.223.422,3.919,3.919,0,0,1,1.444,1.493l-1.363,1.331a5.977,5.977,0,0,0-.617-.974,1.369,1.369,0,0,0-.633-.43,3.56,3.56,0,0,0-1.055-.122,6.507,6.507,0,0,0-1.4.114,1.022,1.022,0,0,0-.657.389,1.467,1.467,0,0,0-.179.8.794.794,0,0,0,.195.584,1.235,1.235,0,0,0,.584.292q.389.1,1.2.211a11.463,11.463,0,0,1,2.394.56,2.4,2.4,0,0,1,1.233.958,3.278,3.278,0,0,1,.381,1.712,3.318,3.318,0,0,1-.446,1.826,2.559,2.559,0,0,1-1.444,1.006A9.106,9.106,0,0,1,199.172,44.6ZM210.678,34.34v8.309h2.84v1.72h-7.547v-1.72h2.84V36.06h-2.045V34.34ZM209.4,32.879a1.636,1.636,0,0,1-1.112-.284,1.423,1.423,0,0,1-.3-1.047,1.423,1.423,0,0,1,.3-1.047,1.636,1.636,0,0,1,1.112-.284,1.671,1.671,0,0,1,1.12.284,1.4,1.4,0,0,1,.308,1.047,1.4,1.4,0,0,1-.308,1.047A1.671,1.671,0,0,1,209.4,32.879ZM219.052,44.6a4.513,4.513,0,0,1-2.378-.536,2.994,2.994,0,0,1-1.25-1.672,9.807,9.807,0,0,1-.381-3.035,9.807,9.807,0,0,1,.381-3.035,2.994,2.994,0,0,1,1.25-1.672,5.563,5.563,0,0,1,4.763,0A2.982,2.982,0,0,1,222.7,36.32a9.807,9.807,0,0,1,.381,3.035,9.807,9.807,0,0,1-.381,3.035,2.982,2.982,0,0,1-1.258,1.672A4.558,4.558,0,0,1,219.052,44.6Zm0-1.72a2.3,2.3,0,0,0,1.306-.316,1.77,1.77,0,0,0,.657-1.071,9.009,9.009,0,0,0,.195-2.134,9.009,9.009,0,0,0-.195-2.134,1.77,1.77,0,0,0-.657-1.071,2.3,2.3,0,0,0-1.306-.316,2.256,2.256,0,0,0-1.3.316,1.787,1.787,0,0,0-.649,1.071,9.009,9.009,0,0,0-.195,2.134,9.009,9.009,0,0,0,.195,2.134,1.787,1.787,0,0,0,.649,1.071A2.256,2.256,0,0,0,219.052,42.876Zm5.94,1.493V34.34h1.866v.243a5.655,5.655,0,0,1,2.386-.471,4.827,4.827,0,0,1,2.134.381,2.2,2.2,0,0,1,1.079,1.282,7.8,7.8,0,0,1,.325,2.54v6.053H230.9V38.316a5.634,5.634,0,0,0-.154-1.5,1.286,1.286,0,0,0-.5-.755,1.83,1.83,0,0,0-1-.227,4.723,4.723,0,0,0-1.55.187,1.07,1.07,0,0,0-.665.657,4.609,4.609,0,0,0-.17,1.461v6.232Zm13.535.227a1.7,1.7,0,0,1-1.16-.3,1.434,1.434,0,0,1-.316-1.063,1.461,1.461,0,0,1,.316-1.079,2.393,2.393,0,0,1,2.321,0A1.461,1.461,0,0,1,240,43.233a1.434,1.434,0,0,1-.316,1.063A1.7,1.7,0,0,1,238.527,44.6Zm9.705,2.954a4.41,4.41,0,0,1-1.81-.308,3.97,3.97,0,0,1-1.339-1.1l1.363-1.169a2.876,2.876,0,0,0,.771.7,2.352,2.352,0,0,0,1.014.162,3.112,3.112,0,0,0,1.266-.2,1.166,1.166,0,0,0,.617-.7,4.512,4.512,0,0,0,.179-1.453v-.032a6.057,6.057,0,0,1-2.175.389,4.5,4.5,0,0,1-2.386-.544,3.028,3.028,0,0,1-1.258-1.728,10.776,10.776,0,0,1-.381-3.2,6.3,6.3,0,0,1,.4-2.451,2.637,2.637,0,0,1,1.274-1.363,5.307,5.307,0,0,1,2.353-.438,6.851,6.851,0,0,1,2.175.325v-.1h1.866v8.991a6.515,6.515,0,0,1-.381,2.467,2.519,2.519,0,0,1-1.233,1.331A5.272,5.272,0,0,1,248.233,47.55Zm-.114-5.437a2.178,2.178,0,0,0,1.663-.552,2.467,2.467,0,0,0,.511-1.72V36.774a.769.769,0,0,0-.527-.69,4.04,4.04,0,0,0-1.647-.252,3.019,3.019,0,0,0-1.315.227,1.281,1.281,0,0,0-.641.771,4.929,4.929,0,0,0-.187,1.534,10.219,10.219,0,0,0,.195,2.288,1.9,1.9,0,0,0,.649,1.128A2.171,2.171,0,0,0,248.119,42.114Zm9.624,2.483a6.614,6.614,0,0,1-2.3-.325,2.264,2.264,0,0,1-1.233-1.014,3.808,3.808,0,0,1-.381-1.842,4.283,4.283,0,0,1,.381-2,2.08,2.08,0,0,1,1.217-.99,7.461,7.461,0,0,1,2.313-.284h2.045V37.78a2.61,2.61,0,0,0-.17-1.055.993.993,0,0,0-.609-.527,4,4,0,0,0-1.266-.154,3.018,3.018,0,0,0-1.039.138,1.046,1.046,0,0,0-.552.495,4.746,4.746,0,0,0-.373,1.087l-1.785-.438a6.516,6.516,0,0,1,.73-1.85,2.657,2.657,0,0,1,1.169-1.031,4.474,4.474,0,0,1,1.85-.333,4.156,4.156,0,0,1,3.01.9,3.768,3.768,0,0,1,.9,2.767v3.8a1.921,1.921,0,0,0,.13.876.6.6,0,0,0,.552.211q.13,0,.584-.032v1.72q-.195.016-.536.016a2.421,2.421,0,0,1-1.948-.649,2.456,2.456,0,0,1-1.087.674A5.456,5.456,0,0,1,257.743,44.6Zm0-1.72a3.228,3.228,0,0,0,1.266-.195,1.107,1.107,0,0,0,.609-.665,4.2,4.2,0,0,0,.17-1.363v-.8h-2.045a6.664,6.664,0,0,0-1.315.089.777.777,0,0,0-.552.406,2.507,2.507,0,0,0-.162,1.063,1.953,1.953,0,0,0,.162.9.939.939,0,0,0,.592.43A4.7,4.7,0,0,0,257.743,42.876Zm5.518,1.493V34.34h1.866v-.065q.13-.032.487-.1a3.586,3.586,0,0,1,.633-.065,2.3,2.3,0,0,1,1.006.179,1.907,1.907,0,0,1,.682.649,2.12,2.12,0,0,1,1.85-.828,2.393,2.393,0,0,1,1.461.389,2.221,2.221,0,0,1,.747,1.282,10.567,10.567,0,0,1,.227,2.483v6.1h-1.866v-6.1a8.645,8.645,0,0,0-.122-1.777Q270.11,36,269.785,36a.888.888,0,0,0-.868.454,3.941,3.941,0,0,0-.235,1.639v6.281h-1.866v-6a8.841,8.841,0,0,0-.13-1.842q-.13-.527-.438-.527a.906.906,0,0,0-.876.454,3.822,3.822,0,0,0-.243,1.639v6.281Zm14.265-1.493a2.676,2.676,0,0,0,1.388-.333,4.121,4.121,0,0,0,1.16-1.177l1.493.99a5.351,5.351,0,0,1-1.712,1.753,4.763,4.763,0,0,1-2.329.487,5.563,5.563,0,0,1-2.572-.487,2.781,2.781,0,0,1-1.315-1.607,9.793,9.793,0,0,1-.4-3.148,9.793,9.793,0,0,1,.4-3.148,2.781,2.781,0,0,1,1.315-1.607,5.563,5.563,0,0,1,2.572-.487,5.023,5.023,0,0,1,2.524.527,2.966,2.966,0,0,1,1.29,1.761,12,12,0,0,1,.39,3.457h-6.605a6.041,6.041,0,0,0,.292,1.8,1.707,1.707,0,0,0,.747.933A2.778,2.778,0,0,0,277.526,42.876Zm0-7.043a2.431,2.431,0,0,0-1.72.511,2.781,2.781,0,0,0-.649,1.793h4.658a3.644,3.644,0,0,0-.211-1.388,1.291,1.291,0,0,0-.706-.706A3.59,3.59,0,0,0,277.526,35.833Zm9.689,8.764a4.641,4.641,0,0,1-2.556-.609,3.377,3.377,0,0,1-1.339-1.923,12.4,12.4,0,0,1-.406-3.538v-1.3a12.4,12.4,0,0,1,.406-3.538,3.377,3.377,0,0,1,1.339-1.923,5.672,5.672,0,0,1,5.112,0,3.412,3.412,0,0,1,1.347,1.923,12.169,12.169,0,0,1,.414,3.538v1.3a12.169,12.169,0,0,1-.414,3.538,3.412,3.412,0,0,1-1.347,1.923A4.641,4.641,0,0,1,287.215,44.6Zm0-1.72a2.387,2.387,0,0,0,1.477-.4,2.252,2.252,0,0,0,.738-1.323,12.082,12.082,0,0,0,.219-2.629v-1.3a12.082,12.082,0,0,0-.219-2.629,2.252,2.252,0,0,0-.738-1.323,2.942,2.942,0,0,0-2.954,0A2.252,2.252,0,0,0,285,34.6a12.079,12.079,0,0,0-.219,2.629v1.3a11.22,11.22,0,0,0,.211,2.621,2.293,2.293,0,0,0,.747,1.331A2.387,2.387,0,0,0,287.215,42.876Zm9.932,1.72a5.785,5.785,0,0,1-2.3-.381,4.269,4.269,0,0,1-1.615-1.339V31.386H295.1V34.47a5.719,5.719,0,0,1,2.045-.357,4.317,4.317,0,0,1,2.313.536,2.984,2.984,0,0,1,1.225,1.672,10.074,10.074,0,0,1,.373,3.051,10.006,10.006,0,0,1-.373,3.035,2.946,2.946,0,0,1-1.225,1.663A4.37,4.37,0,0,1,297.147,44.6Zm0-1.72a2.079,2.079,0,0,0,1.233-.316,1.787,1.787,0,0,0,.625-1.063,9.276,9.276,0,0,0,.187-2.126,9.387,9.387,0,0,0-.187-2.134,1.833,1.833,0,0,0-.625-1.079,2.04,2.04,0,0,0-1.233-.325,3.346,3.346,0,0,0-1.274.187,1.083,1.083,0,0,0-.6.674,4.631,4.631,0,0,0-.17,1.444v4.138a2.048,2.048,0,0,0,.811.479A4.729,4.729,0,0,0,297.147,42.876Zm8.537,4.674a4.41,4.41,0,0,1-1.81-.308,3.97,3.97,0,0,1-1.339-1.1L303.9,44.97a2.876,2.876,0,0,0,.771.7,2.352,2.352,0,0,0,1.014.162,2.807,2.807,0,0,0,1.274-.227,1.279,1.279,0,0,0,.609-.8,6,6,0,0,0,.179-1.688V36.06H305.7V34.34h3.911v8.78a7.247,7.247,0,0,1-.381,2.613A2.548,2.548,0,0,1,308,47.12,5.176,5.176,0,0,1,305.684,47.55Zm2.6-14.671a1.636,1.636,0,0,1-1.112-.284,1.423,1.423,0,0,1-.3-1.047,1.423,1.423,0,0,1,.3-1.047,1.636,1.636,0,0,1,1.112-.284,1.671,1.671,0,0,1,1.12.284,1.4,1.4,0,0,1,.308,1.047A1.4,1.4,0,0,1,309.4,32.6,1.671,1.671,0,0,1,308.281,32.879Zm8.2,10a2.676,2.676,0,0,0,1.388-.333,4.121,4.121,0,0,0,1.16-1.177l1.493.99a5.351,5.351,0,0,1-1.712,1.753,4.763,4.763,0,0,1-2.329.487,5.564,5.564,0,0,1-2.572-.487A2.781,2.781,0,0,1,312.59,42.5a9.793,9.793,0,0,1-.4-3.148,9.793,9.793,0,0,1,.4-3.148A2.781,2.781,0,0,1,313.9,34.6a5.564,5.564,0,0,1,2.572-.487A5.023,5.023,0,0,1,319,34.64a2.966,2.966,0,0,1,1.29,1.761,12,12,0,0,1,.389,3.457h-6.605a6.04,6.04,0,0,0,.292,1.8,1.707,1.707,0,0,0,.747.933A2.778,2.778,0,0,0,316.476,42.876Zm0-7.043a2.431,2.431,0,0,0-1.72.511,2.782,2.782,0,0,0-.649,1.793h4.658a3.644,3.644,0,0,0-.211-1.388,1.291,1.291,0,0,0-.706-.706A3.59,3.59,0,0,0,316.476,35.833Zm9.981,8.764a5.263,5.263,0,0,1-2.564-.527,3,3,0,0,1-1.355-1.663,9.149,9.149,0,0,1-.414-3.051,9.149,9.149,0,0,1,.414-3.051,2.98,2.98,0,0,1,1.371-1.663,5.443,5.443,0,0,1,2.613-.527,4.383,4.383,0,0,1,2.256.5A5.1,5.1,0,0,1,330.4,36.4l-1.558.925a6.611,6.611,0,0,0-.7-.941,1.6,1.6,0,0,0-.657-.43,3.93,3.93,0,0,0-2.516.195,1.722,1.722,0,0,0-.763,1.063,8.03,8.03,0,0,0-.219,2.142,8.03,8.03,0,0,0,.219,2.142,1.756,1.756,0,0,0,.738,1.063,2.931,2.931,0,0,0,1.509.316,3.041,3.041,0,0,0,.966-.13,1.808,1.808,0,0,0,.7-.446,6.417,6.417,0,0,0,.738-.949l1.542.941a5.285,5.285,0,0,1-1.663,1.8A4.466,4.466,0,0,1,326.457,44.6Zm10.5,0a3.835,3.835,0,0,1-1.9-.406,2.38,2.38,0,0,1-1.047-1.29,6.746,6.746,0,0,1-.333-2.329V35.865h-2.012v-1.72h2.012V31.386h1.866v2.759h3.359v1.72h-3.359v4.706a5.839,5.839,0,0,0,.13,1.4,1.153,1.153,0,0,0,.43.7,1.514,1.514,0,0,0,.852.2,3.3,3.3,0,0,0,.868-.081.642.642,0,0,0,.39-.292,4.011,4.011,0,0,0,.284-.73l1.753.6a3.721,3.721,0,0,1-.633,1.323,2.17,2.17,0,0,1-1.014.69A5.276,5.276,0,0,1,336.958,44.6Zm8.683,0a1.7,1.7,0,0,1-1.16-.3,1.434,1.434,0,0,1-.316-1.063,1.461,1.461,0,0,1,.316-1.079,2.392,2.392,0,0,1,2.321,0,1.461,1.461,0,0,1,.316,1.079A1.434,1.434,0,0,1,346.8,44.3,1.7,1.7,0,0,1,345.64,44.6Zm10.792,0a3.835,3.835,0,0,1-1.9-.406,2.38,2.38,0,0,1-1.047-1.29,6.747,6.747,0,0,1-.333-2.329V35.865h-2.012v-1.72h2.012V31.386h1.866v2.759h3.359v1.72h-3.359v4.706a5.84,5.84,0,0,0,.13,1.4,1.154,1.154,0,0,0,.43.7,1.514,1.514,0,0,0,.852.2,3.3,3.3,0,0,0,.868-.081.642.642,0,0,0,.389-.292,4.007,4.007,0,0,0,.284-.73l1.753.6a3.721,3.721,0,0,1-.633,1.323,2.17,2.17,0,0,1-1.014.69A5.276,5.276,0,0,1,356.433,44.6Zm8.423,0a6.614,6.614,0,0,1-2.3-.325,2.264,2.264,0,0,1-1.233-1.014,3.808,3.808,0,0,1-.381-1.842,4.283,4.283,0,0,1,.381-2,2.079,2.079,0,0,1,1.217-.99,7.46,7.46,0,0,1,2.313-.284H366.9V37.78a2.61,2.61,0,0,0-.17-1.055.993.993,0,0,0-.609-.527,4,4,0,0,0-1.266-.154,3.017,3.017,0,0,0-1.039.138,1.046,1.046,0,0,0-.552.495,4.748,4.748,0,0,0-.373,1.087l-1.785-.438a6.517,6.517,0,0,1,.73-1.85,2.657,2.657,0,0,1,1.168-1.031,4.475,4.475,0,0,1,1.85-.333,4.156,4.156,0,0,1,3.011.9,3.768,3.768,0,0,1,.9,2.767v3.8a1.921,1.921,0,0,0,.13.876.6.6,0,0,0,.552.211q.13,0,.584-.032v1.72q-.195.016-.536.016a2.421,2.421,0,0,1-1.948-.649,2.456,2.456,0,0,1-1.087.674A5.456,5.456,0,0,1,364.856,44.6Zm0-1.72a3.228,3.228,0,0,0,1.266-.195,1.107,1.107,0,0,0,.609-.665,4.2,4.2,0,0,0,.17-1.363v-.8h-2.045a6.664,6.664,0,0,0-1.315.089.777.777,0,0,0-.552.406,2.506,2.506,0,0,0-.162,1.063,1.952,1.952,0,0,0,.162.9.939.939,0,0,0,.592.43A4.7,4.7,0,0,0,364.856,42.876Zm9.965,4.674a4.41,4.41,0,0,1-1.81-.308,3.97,3.97,0,0,1-1.339-1.1l1.363-1.169a2.875,2.875,0,0,0,.771.7,2.352,2.352,0,0,0,1.014.162,3.112,3.112,0,0,0,1.266-.2,1.166,1.166,0,0,0,.617-.7,4.513,4.513,0,0,0,.179-1.453v-.032a6.057,6.057,0,0,1-2.175.389,4.5,4.5,0,0,1-2.386-.544,3.028,3.028,0,0,1-1.258-1.728,10.777,10.777,0,0,1-.381-3.2,6.3,6.3,0,0,1,.4-2.451,2.637,2.637,0,0,1,1.274-1.363,5.307,5.307,0,0,1,2.353-.438,6.851,6.851,0,0,1,2.175.325v-.1h1.866v8.991a6.516,6.516,0,0,1-.381,2.467,2.519,2.519,0,0,1-1.233,1.331A5.272,5.272,0,0,1,374.82,47.55Zm-.114-5.437a2.178,2.178,0,0,0,1.664-.552,2.468,2.468,0,0,0,.511-1.72V36.774a.769.769,0,0,0-.527-.69,4.04,4.04,0,0,0-1.647-.252,3.02,3.02,0,0,0-1.315.227,1.281,1.281,0,0,0-.641.771,4.927,4.927,0,0,0-.187,1.534,10.218,10.218,0,0,0,.195,2.288,1.9,1.9,0,0,0,.649,1.128A2.171,2.171,0,0,0,374.707,42.114Zm24.328-5.323h-19.15V35.07h19.15Zm0,3.9h-19.15v-1.72h19.15Zm4.463-9.527a13.853,13.853,0,0,0-1.144,1.769,2.638,2.638,0,0,0-.316,1.169,1.018,1.018,0,0,1,.844.292,1.864,1.864,0,0,1,.227,1.087,1.461,1.461,0,0,1-.316,1.079,2.392,2.392,0,0,1-2.321,0,1.461,1.461,0,0,1-.316-1.079,5.216,5.216,0,0,1,.414-2.134,9.254,9.254,0,0,1,1.5-2.183Zm4.463,0a13.854,13.854,0,0,0-1.144,1.769A2.638,2.638,0,0,0,406.5,34.1a1.018,1.018,0,0,1,.844.292,1.864,1.864,0,0,1,.227,1.087,1.461,1.461,0,0,1-.316,1.079,2.393,2.393,0,0,1-2.321,0,1.461,1.461,0,0,1-.316-1.079,5.216,5.216,0,0,1,.414-2.134,9.255,9.255,0,0,1,1.5-2.183Zm10.046.227v1.72h-6.07v3.538h3.895v1.72h-3.895v4.285h6.07v1.72H410.07V31.386Zm1.737,12.983V34.34h1.866v.243a5.655,5.655,0,0,1,2.386-.471,4.827,4.827,0,0,1,2.134.381,2.2,2.2,0,0,1,1.079,1.282,7.8,7.8,0,0,1,.325,2.54v6.053H425.65V38.316a5.632,5.632,0,0,0-.154-1.5,1.286,1.286,0,0,0-.5-.755,1.83,1.83,0,0,0-1-.227,4.723,4.723,0,0,0-1.55.187,1.07,1.07,0,0,0-.665.657,4.607,4.607,0,0,0-.17,1.461v6.232Zm13.584-1.493a2.675,2.675,0,0,0,1.388-.333,4.121,4.121,0,0,0,1.16-1.177l1.493.99a5.351,5.351,0,0,1-1.712,1.753,4.763,4.763,0,0,1-2.329.487,5.563,5.563,0,0,1-2.572-.487A2.781,2.781,0,0,1,429.44,42.5a9.792,9.792,0,0,1-.4-3.148,9.792,9.792,0,0,1,.4-3.148,2.781,2.781,0,0,1,1.315-1.607,5.563,5.563,0,0,1,2.572-.487,5.023,5.023,0,0,1,2.524.527,2.965,2.965,0,0,1,1.29,1.761,11.993,11.993,0,0,1,.39,3.457h-6.605a6.04,6.04,0,0,0,.292,1.8,1.707,1.707,0,0,0,.747.933A2.778,2.778,0,0,0,433.327,42.876Zm0-7.043a2.431,2.431,0,0,0-1.72.511,2.782,2.782,0,0,0-.649,1.793h4.658a3.644,3.644,0,0,0-.211-1.388,1.291,1.291,0,0,0-.706-.706A3.59,3.59,0,0,0,433.327,35.833Zm5.21,8.537V34.34H440.4v-.065q.13-.032.487-.1a3.585,3.585,0,0,1,.633-.065,2.3,2.3,0,0,1,1.006.179,1.906,1.906,0,0,1,.682.649,2.12,2.12,0,0,1,1.85-.828,2.393,2.393,0,0,1,1.461.389,2.221,2.221,0,0,1,.747,1.282,10.565,10.565,0,0,1,.227,2.483v6.1h-1.866v-6.1a8.648,8.648,0,0,0-.122-1.777Q445.385,36,445.06,36a.888.888,0,0,0-.868.454,3.942,3.942,0,0,0-.235,1.639v6.281h-1.866v-6a8.842,8.842,0,0,0-.13-1.842q-.13-.527-.438-.527a.906.906,0,0,0-.876.454,3.823,3.823,0,0,0-.243,1.639v6.281Zm11.523,3.181a3.3,3.3,0,0,1-1.1-.162,4.309,4.309,0,0,1-1.006-.552l.747-1.574a8.569,8.569,0,0,0,.844.471,1.308,1.308,0,0,0,.519.1,2.3,2.3,0,0,0,.941-.162,1.524,1.524,0,0,0,.625-.56,5.017,5.017,0,0,0,.527-1.177l-3.359-9.591h1.948l2.4,7.141,2.434-7.141h1.964l-3.489,9.721a8.9,8.9,0,0,1-.99,2.077,3.122,3.122,0,0,1-1.225,1.079A4.168,4.168,0,0,1,450.059,47.55ZM458.6,36.969A13.858,13.858,0,0,0,459.74,35.2a2.639,2.639,0,0,0,.316-1.169,1.018,1.018,0,0,1-.844-.292,1.864,1.864,0,0,1-.227-1.087,1.461,1.461,0,0,1,.316-1.079,2.392,2.392,0,0,1,2.321,0,1.461,1.461,0,0,1,.316,1.079,5.216,5.216,0,0,1-.414,2.134,9.254,9.254,0,0,1-1.5,2.183Zm4.463,0A13.858,13.858,0,0,0,464.2,35.2a2.638,2.638,0,0,0,.316-1.169,1.018,1.018,0,0,1-.844-.292,1.864,1.864,0,0,1-.227-1.087,1.461,1.461,0,0,1,.316-1.079,2.392,2.392,0,0,1,2.321,0,1.461,1.461,0,0,1,.316,1.079,5.216,5.216,0,0,1-.414,2.134,9.254,9.254,0,0,1-1.5,2.183ZM469.437,45a2.511,2.511,0,0,0,1.891-.884,6.028,6.028,0,0,0,1.274-2.5,13.862,13.862,0,0,0,.454-3.741,13.862,13.862,0,0,0-.454-3.741,6.028,6.028,0,0,0-1.274-2.5,2.511,2.511,0,0,0-1.891-.884v-1.72a4.213,4.213,0,0,1,2.873,1.1,7.081,7.081,0,0,1,1.931,3.108,14.382,14.382,0,0,1,.682,4.633,14.382,14.382,0,0,1-.682,4.633,7.081,7.081,0,0,1-1.931,3.108,4.213,4.213,0,0,1-2.873,1.1Zm15.937,1.72a5.767,5.767,0,0,1-3.489-.836,3.155,3.155,0,0,1-1.087-2.67,8.735,8.735,0,0,1,.162-1.461,8.54,8.54,0,0,0,.13-1.1,1.814,1.814,0,0,0-.568-.941q-.568-.633-1.85-1.834,1.282-1.233,1.85-1.866a1.793,1.793,0,0,0,.568-.974,6.6,6.6,0,0,0-.13-.99,8.017,8.017,0,0,1-.162-1.493,3.178,3.178,0,0,1,1.087-2.678,5.724,5.724,0,0,1,3.489-.844v1.737a6.057,6.057,0,0,0-1.623.17,1.439,1.439,0,0,0-.844.568,2.024,2.024,0,0,0-.26,1.112,5.43,5.43,0,0,0,.162,1.25,4.245,4.245,0,0,1,.146,1.006,2.881,2.881,0,0,1-.438,1.517,6.017,6.017,0,0,1-1.379,1.485,5.773,5.773,0,0,1,1.388,1.444,2.8,2.8,0,0,1,.43,1.493,5.062,5.062,0,0,1-.13.99,6.464,6.464,0,0,0-.162,1.363,2,2,0,0,0,.252,1.087,1.416,1.416,0,0,0,.836.56,6.057,6.057,0,0,0,1.623.17ZM160.919,71.375a5.263,5.263,0,0,1-2.564-.527A3,3,0,0,1,157,69.184a11.454,11.454,0,0,1,0-6.1,2.98,2.98,0,0,1,1.371-1.663,5.443,5.443,0,0,1,2.613-.527,4.383,4.383,0,0,1,2.256.5,5.1,5.1,0,0,1,1.623,1.785l-1.558.925a6.608,6.608,0,0,0-.7-.941,1.6,1.6,0,0,0-.657-.43,3.93,3.93,0,0,0-2.516.195,1.722,1.722,0,0,0-.763,1.063,10.583,10.583,0,0,0,0,4.285,1.756,1.756,0,0,0,.738,1.063,2.931,2.931,0,0,0,1.509.316,3.041,3.041,0,0,0,.966-.13,1.808,1.808,0,0,0,.7-.446,6.419,6.419,0,0,0,.738-.949l1.542.941a5.286,5.286,0,0,1-1.663,1.8A4.466,4.466,0,0,1,160.919,71.375Zm9.445,0a4.513,4.513,0,0,1-2.378-.536,2.994,2.994,0,0,1-1.25-1.672,12.265,12.265,0,0,1,0-6.07,2.994,2.994,0,0,1,1.25-1.672,5.563,5.563,0,0,1,4.763,0,2.982,2.982,0,0,1,1.258,1.672,12.266,12.266,0,0,1,0,6.07,2.982,2.982,0,0,1-1.258,1.672A4.558,4.558,0,0,1,170.365,71.375Zm0-1.72a2.3,2.3,0,0,0,1.306-.316,1.77,1.77,0,0,0,.657-1.071,11.79,11.79,0,0,0,0-4.268,1.77,1.77,0,0,0-.657-1.071,2.3,2.3,0,0,0-1.306-.316,2.256,2.256,0,0,0-1.3.316A1.787,1.787,0,0,0,168.417,64a11.79,11.79,0,0,0,0,4.268,1.787,1.787,0,0,0,.649,1.071A2.256,2.256,0,0,0,170.365,69.654Zm11.409,1.72a3.726,3.726,0,0,1-1.761-.341,1.925,1.925,0,0,1-.893-1.136,7.325,7.325,0,0,1-.268-2.24V59.885h-2.045v-1.72h3.911v9.494a3.713,3.713,0,0,0,.227,1.566.851.851,0,0,0,.828.43,1.247,1.247,0,0,0,.625-.195,7.624,7.624,0,0,0,.933-.7l1.039,1.59a4.975,4.975,0,0,1-1.274.8A3.623,3.623,0,0,1,181.774,71.375Zm8.066,0a4.513,4.513,0,0,1-2.378-.536,2.994,2.994,0,0,1-1.25-1.672,12.265,12.265,0,0,1,0-6.07,2.994,2.994,0,0,1,1.25-1.672,5.563,5.563,0,0,1,4.763,0,2.982,2.982,0,0,1,1.258,1.672,12.265,12.265,0,0,1,0,6.07,2.982,2.982,0,0,1-1.258,1.672A4.558,4.558,0,0,1,189.84,71.375Zm0-1.72a2.3,2.3,0,0,0,1.306-.316,1.77,1.77,0,0,0,.657-1.071,11.791,11.791,0,0,0,0-4.268,1.77,1.77,0,0,0-.657-1.071,2.3,2.3,0,0,0-1.306-.316,2.256,2.256,0,0,0-1.3.316A1.787,1.787,0,0,0,187.892,64a11.791,11.791,0,0,0,0,4.268,1.787,1.787,0,0,0,.649,1.071A2.256,2.256,0,0,0,189.84,69.654Zm6.378,1.493V61.118h1.866v.828a3.568,3.568,0,0,1,1.006-.738,2.873,2.873,0,0,1,1.331-.316,4.156,4.156,0,0,1,1.558.252,2.609,2.609,0,0,1,1.063.811,5.481,5.481,0,0,1,.8,1.55l-1.672.763a5.815,5.815,0,0,0-.422-1.055,1.06,1.06,0,0,0-.495-.471,2.163,2.163,0,0,0-.836-.13,1.949,1.949,0,0,0-1.8.868A4.852,4.852,0,0,0,198.084,66v5.145Zm15.856,0-3.652-5.193h-1.039v5.193h-1.866V58.164h3.992a5.887,5.887,0,0,1,2.353.389,2.466,2.466,0,0,1,1.274,1.233,5.4,5.4,0,0,1,.4,2.272,6.319,6.319,0,0,1-.292,2.126,2.3,2.3,0,0,1-.941,1.2,4.068,4.068,0,0,1-1.737.519l3.668,5.242Zm-4.69-11.263v4.349h2.126a4.423,4.423,0,0,0,1.363-.154,1,1,0,0,0,.617-.6,4.119,4.119,0,0,0,.179-1.42,3.731,3.731,0,0,0-.187-1.339,1.131,1.131,0,0,0-.641-.649,3.662,3.662,0,0,0-1.331-.187Zm11.718,9.77a2.675,2.675,0,0,0,1.388-.333,4.121,4.121,0,0,0,1.16-1.177l1.493.99a5.351,5.351,0,0,1-1.712,1.753,4.763,4.763,0,0,1-2.329.487,5.563,5.563,0,0,1-2.572-.487,2.781,2.781,0,0,1-1.315-1.607,9.793,9.793,0,0,1-.4-3.148,9.793,9.793,0,0,1,.4-3.148,2.781,2.781,0,0,1,1.315-1.607,5.563,5.563,0,0,1,2.572-.487,5.023,5.023,0,0,1,2.524.527,2.966,2.966,0,0,1,1.29,1.761,12,12,0,0,1,.389,3.457H216.7a6.042,6.042,0,0,0,.292,1.8,1.707,1.707,0,0,0,.747.933A2.778,2.778,0,0,0,219.1,69.654Zm0-7.043a2.431,2.431,0,0,0-1.72.511,2.781,2.781,0,0,0-.649,1.793h4.658a3.645,3.645,0,0,0-.211-1.388,1.291,1.291,0,0,0-.706-.706A3.59,3.59,0,0,0,219.1,62.611Zm5.891,8.537V61.118h1.866v.243a5.655,5.655,0,0,1,2.386-.471,4.827,4.827,0,0,1,2.134.381,2.2,2.2,0,0,1,1.079,1.282,7.8,7.8,0,0,1,.325,2.54v6.053H230.9V65.094a5.634,5.634,0,0,0-.154-1.5,1.286,1.286,0,0,0-.5-.755,1.83,1.83,0,0,0-1-.227,4.723,4.723,0,0,0-1.55.187,1.07,1.07,0,0,0-.665.657,4.609,4.609,0,0,0-.17,1.461v6.232Zm13.454.227a4.57,4.57,0,0,1-2.378-.527,2.956,2.956,0,0,1-1.25-1.663,12.33,12.33,0,0,1,0-6.086,2.994,2.994,0,0,1,1.25-1.672,4.513,4.513,0,0,1,2.378-.536,6.057,6.057,0,0,1,2.175.389V58.164h1.866V71.148h-1.866v-.114A6.373,6.373,0,0,1,238.446,71.375Zm0-1.72a4.04,4.04,0,0,0,1.647-.252.769.769,0,0,0,.527-.69v-3.83a2.467,2.467,0,0,0-.511-1.72,2.178,2.178,0,0,0-1.663-.552,2.213,2.213,0,0,0-1.3.325,1.826,1.826,0,0,0-.649,1.079,9.009,9.009,0,0,0-.195,2.134,8.9,8.9,0,0,0,.195,2.126,1.782,1.782,0,0,0,.649,1.063A2.256,2.256,0,0,0,238.446,69.654Zm9.819,1.72a1.7,1.7,0,0,1-1.16-.3,1.434,1.434,0,0,1-.316-1.063,1.461,1.461,0,0,1,.316-1.079,2.392,2.392,0,0,1,2.321,0,1.461,1.461,0,0,1,.316,1.079,1.434,1.434,0,0,1-.316,1.063A1.7,1.7,0,0,1,248.265,71.375Zm5.258-.227V61.118h1.866v-.065q.13-.032.487-.1a3.586,3.586,0,0,1,.633-.065,2.3,2.3,0,0,1,1.006.179,1.907,1.907,0,0,1,.682.649,2.12,2.12,0,0,1,1.85-.828,2.393,2.393,0,0,1,1.461.389,2.221,2.221,0,0,1,.747,1.282,10.567,10.567,0,0,1,.227,2.483v6.1h-1.866v-6.1a8.645,8.645,0,0,0-.122-1.777q-.122-.495-.446-.495a.888.888,0,0,0-.868.454,3.941,3.941,0,0,0-.235,1.639v6.281h-1.866v-6a8.842,8.842,0,0,0-.13-1.842q-.13-.527-.438-.527a.906.906,0,0,0-.876.454,3.822,3.822,0,0,0-.243,1.639v6.281Zm13.957.227a6.614,6.614,0,0,1-2.3-.325,2.264,2.264,0,0,1-1.233-1.014,3.809,3.809,0,0,1-.381-1.842,4.284,4.284,0,0,1,.381-2,2.08,2.08,0,0,1,1.217-.99,7.46,7.46,0,0,1,2.313-.284h2.045v-.357a2.61,2.61,0,0,0-.17-1.055.993.993,0,0,0-.609-.527,4,4,0,0,0-1.266-.154,3.018,3.018,0,0,0-1.039.138,1.046,1.046,0,0,0-.552.495,4.748,4.748,0,0,0-.373,1.087l-1.785-.438a6.516,6.516,0,0,1,.73-1.85,2.657,2.657,0,0,1,1.168-1.031,4.475,4.475,0,0,1,1.85-.333,4.156,4.156,0,0,1,3.011.9,3.768,3.768,0,0,1,.9,2.767v3.8a1.921,1.921,0,0,0,.13.876.6.6,0,0,0,.552.211q.13,0,.584-.032v1.72q-.195.016-.536.016a2.421,2.421,0,0,1-1.948-.649,2.457,2.457,0,0,1-1.087.674A5.456,5.456,0,0,1,267.48,71.375Zm0-1.72a3.229,3.229,0,0,0,1.266-.195,1.107,1.107,0,0,0,.609-.665,4.2,4.2,0,0,0,.17-1.363v-.8H267.48a6.664,6.664,0,0,0-1.315.089.777.777,0,0,0-.552.406,2.507,2.507,0,0,0-.162,1.063,1.953,1.953,0,0,0,.162.9.939.939,0,0,0,.592.43A4.7,4.7,0,0,0,267.48,69.654Zm11.052,1.72a3.835,3.835,0,0,1-1.9-.406,2.38,2.38,0,0,1-1.047-1.29,6.747,6.747,0,0,1-.333-2.329V62.643h-2.012v-1.72h2.012V58.164h1.866v2.759h3.359v1.72h-3.359V67.35a5.84,5.84,0,0,0,.13,1.4,1.154,1.154,0,0,0,.43.7,1.514,1.514,0,0,0,.852.2,3.3,3.3,0,0,0,.868-.081.642.642,0,0,0,.39-.292,4.007,4.007,0,0,0,.284-.73l1.753.6a3.722,3.722,0,0,1-.633,1.323,2.17,2.17,0,0,1-1.014.69A5.277,5.277,0,0,1,278.532,71.375Zm8.731-1.72a2.675,2.675,0,0,0,1.388-.333,4.121,4.121,0,0,0,1.16-1.177l1.493.99a5.351,5.351,0,0,1-1.712,1.753,4.763,4.763,0,0,1-2.329.487,5.563,5.563,0,0,1-2.572-.487,2.781,2.781,0,0,1-1.315-1.607,9.794,9.794,0,0,1-.4-3.148,9.794,9.794,0,0,1,.4-3.148,2.781,2.781,0,0,1,1.315-1.607,5.563,5.563,0,0,1,2.572-.487,5.023,5.023,0,0,1,2.524.527,2.966,2.966,0,0,1,1.29,1.761,12,12,0,0,1,.389,3.457h-6.605a6.042,6.042,0,0,0,.292,1.8,1.707,1.707,0,0,0,.747.933A2.778,2.778,0,0,0,287.264,69.654Zm0-7.043a2.431,2.431,0,0,0-1.72.511,2.781,2.781,0,0,0-.649,1.793h4.658a3.644,3.644,0,0,0-.211-1.388,1.291,1.291,0,0,0-.706-.706A3.59,3.59,0,0,0,287.264,62.611Zm6.329,8.537V61.118h1.866v.828a3.568,3.568,0,0,1,1.006-.738,2.873,2.873,0,0,1,1.331-.316,4.156,4.156,0,0,1,1.558.252,2.608,2.608,0,0,1,1.063.811,5.481,5.481,0,0,1,.8,1.55l-1.672.763a5.817,5.817,0,0,0-.422-1.055,1.06,1.06,0,0,0-.495-.471,2.162,2.162,0,0,0-.836-.13,1.949,1.949,0,0,0-1.8.868A4.851,4.851,0,0,0,295.46,66v5.145Zm14.46-10.03v8.309h2.84v1.72h-7.547v-1.72h2.84V62.838h-2.045v-1.72Zm-1.282-1.461a1.636,1.636,0,0,1-1.112-.284,1.975,1.975,0,0,1,0-2.094A1.636,1.636,0,0,1,306.771,57a1.671,1.671,0,0,1,1.12.284,1.931,1.931,0,0,1,0,2.094A1.671,1.671,0,0,1,306.771,59.657Zm9.4,11.717a6.614,6.614,0,0,1-2.3-.325,2.264,2.264,0,0,1-1.233-1.014,3.809,3.809,0,0,1-.381-1.842,4.284,4.284,0,0,1,.381-2,2.08,2.08,0,0,1,1.217-.99,7.461,7.461,0,0,1,2.313-.284h2.045v-.357a2.61,2.61,0,0,0-.17-1.055.993.993,0,0,0-.609-.527,4,4,0,0,0-1.266-.154,3.017,3.017,0,0,0-1.039.138,1.046,1.046,0,0,0-.552.495,4.748,4.748,0,0,0-.373,1.087l-1.785-.438a6.517,6.517,0,0,1,.73-1.85,2.657,2.657,0,0,1,1.168-1.031,4.475,4.475,0,0,1,1.85-.333,4.156,4.156,0,0,1,3.011.9,3.768,3.768,0,0,1,.9,2.767v3.8a1.921,1.921,0,0,0,.13.876.6.6,0,0,0,.552.211q.13,0,.584-.032v1.72q-.195.016-.536.016a2.421,2.421,0,0,1-1.948-.649,2.456,2.456,0,0,1-1.087.674A5.456,5.456,0,0,1,316.168,71.375Zm0-1.72a3.228,3.228,0,0,0,1.266-.195,1.107,1.107,0,0,0,.609-.665,4.2,4.2,0,0,0,.17-1.363v-.8h-2.045a6.664,6.664,0,0,0-1.315.089.777.777,0,0,0-.552.406,2.506,2.506,0,0,0-.162,1.063,1.952,1.952,0,0,0,.162.9.939.939,0,0,0,.592.43A4.7,4.7,0,0,0,316.168,69.654Zm11.669,1.72a3.725,3.725,0,0,1-1.761-.341,1.925,1.925,0,0,1-.893-1.136,7.325,7.325,0,0,1-.268-2.24V59.885h-2.045v-1.72h3.911v9.494a3.713,3.713,0,0,0,.227,1.566.851.851,0,0,0,.828.43,1.247,1.247,0,0,0,.625-.195,7.625,7.625,0,0,0,.933-.7l1.039,1.59a4.975,4.975,0,0,1-1.274.8A3.623,3.623,0,0,1,327.837,71.375Zm8.066,0a1.7,1.7,0,0,1-1.16-.3,1.434,1.434,0,0,1-.316-1.063,1.461,1.461,0,0,1,.316-1.079,2.392,2.392,0,0,1,2.321,0,1.461,1.461,0,0,1,.316,1.079,1.434,1.434,0,0,1-.316,1.063A1.7,1.7,0,0,1,335.9,71.375Zm10.03,0a5.263,5.263,0,0,1-2.564-.527,3,3,0,0,1-1.355-1.663,11.454,11.454,0,0,1,0-6.1,2.98,2.98,0,0,1,1.371-1.663A5.443,5.443,0,0,1,346,60.891a4.383,4.383,0,0,1,2.256.5,5.1,5.1,0,0,1,1.623,1.785l-1.558.925a6.609,6.609,0,0,0-.7-.941,1.6,1.6,0,0,0-.657-.43,3.93,3.93,0,0,0-2.516.195,1.722,1.722,0,0,0-.763,1.063,10.583,10.583,0,0,0,0,4.285,1.756,1.756,0,0,0,.738,1.063,2.931,2.931,0,0,0,1.509.316,3.041,3.041,0,0,0,.966-.13,1.808,1.808,0,0,0,.7-.446,6.417,6.417,0,0,0,.738-.949l1.542.941a5.285,5.285,0,0,1-1.663,1.8A4.467,4.467,0,0,1,345.932,71.375Zm9.445,0A4.513,4.513,0,0,1,353,70.839a2.994,2.994,0,0,1-1.25-1.672,12.266,12.266,0,0,1,0-6.07A2.994,2.994,0,0,1,353,61.426a5.563,5.563,0,0,1,4.763,0,2.982,2.982,0,0,1,1.258,1.672,12.265,12.265,0,0,1,0,6.07,2.982,2.982,0,0,1-1.258,1.672A4.558,4.558,0,0,1,355.378,71.375Zm0-1.72a2.3,2.3,0,0,0,1.306-.316,1.77,1.77,0,0,0,.657-1.071,11.79,11.79,0,0,0,0-4.268,1.77,1.77,0,0,0-.657-1.071,2.3,2.3,0,0,0-1.306-.316,2.256,2.256,0,0,0-1.3.316A1.787,1.787,0,0,0,353.43,64a11.79,11.79,0,0,0,0,4.268,1.787,1.787,0,0,0,.649,1.071A2.256,2.256,0,0,0,355.378,69.654Zm11.409,1.72a3.726,3.726,0,0,1-1.761-.341,1.925,1.925,0,0,1-.893-1.136,7.325,7.325,0,0,1-.268-2.24V59.885h-2.045v-1.72h3.911v9.494a3.713,3.713,0,0,0,.227,1.566.851.851,0,0,0,.828.43,1.247,1.247,0,0,0,.625-.195,7.625,7.625,0,0,0,.933-.7l1.039,1.59a4.974,4.974,0,0,1-1.274.8A3.623,3.623,0,0,1,366.787,71.375Zm8.066,0a4.513,4.513,0,0,1-2.378-.536,2.994,2.994,0,0,1-1.25-1.672,12.265,12.265,0,0,1,0-6.07,2.994,2.994,0,0,1,1.25-1.672,5.563,5.563,0,0,1,4.763,0A2.982,2.982,0,0,1,378.5,63.1a12.265,12.265,0,0,1,0,6.07,2.982,2.982,0,0,1-1.258,1.672A4.558,4.558,0,0,1,374.853,71.375Zm0-1.72a2.3,2.3,0,0,0,1.306-.316,1.769,1.769,0,0,0,.657-1.071,11.79,11.79,0,0,0,0-4.268,1.769,1.769,0,0,0-.657-1.071,2.3,2.3,0,0,0-1.306-.316,2.256,2.256,0,0,0-1.3.316A1.787,1.787,0,0,0,372.905,64a11.79,11.79,0,0,0,0,4.268,1.787,1.787,0,0,0,.649,1.071A2.256,2.256,0,0,0,374.853,69.654Zm6.378,1.493V61.118H383.1v.828a3.568,3.568,0,0,1,1.006-.738,2.873,2.873,0,0,1,1.331-.316,4.156,4.156,0,0,1,1.558.252,2.609,2.609,0,0,1,1.063.811,5.481,5.481,0,0,1,.8,1.55l-1.672.763a5.815,5.815,0,0,0-.422-1.055,1.06,1.06,0,0,0-.495-.471,2.163,2.163,0,0,0-.836-.13,1.949,1.949,0,0,0-1.8.868A4.851,4.851,0,0,0,383.1,66v5.145Zm27.541-7.579h-9.413v-1.72h9.413Zm0,3.9h-9.413v-1.72h9.413Zm15.061,3.911a5.263,5.263,0,0,1-2.564-.527,3,3,0,0,1-1.355-1.663,11.454,11.454,0,0,1,0-6.1,2.98,2.98,0,0,1,1.371-1.663,5.443,5.443,0,0,1,2.613-.527,4.383,4.383,0,0,1,2.256.5,5.1,5.1,0,0,1,1.623,1.785l-1.558.925a6.611,6.611,0,0,0-.7-.941,1.6,1.6,0,0,0-.657-.43,3.93,3.93,0,0,0-2.516.195,1.722,1.722,0,0,0-.763,1.063,10.585,10.585,0,0,0,0,4.285,1.757,1.757,0,0,0,.738,1.063,2.931,2.931,0,0,0,1.509.316,3.041,3.041,0,0,0,.966-.13,1.808,1.808,0,0,0,.7-.446,6.417,6.417,0,0,0,.738-.949l1.542.941a5.285,5.285,0,0,1-1.663,1.8A4.466,4.466,0,0,1,423.833,71.375Zm9.445,0a4.513,4.513,0,0,1-2.378-.536,2.994,2.994,0,0,1-1.25-1.672,12.265,12.265,0,0,1,0-6.07,2.994,2.994,0,0,1,1.25-1.672,5.563,5.563,0,0,1,4.763,0,2.982,2.982,0,0,1,1.258,1.672,12.266,12.266,0,0,1,0,6.07,2.982,2.982,0,0,1-1.258,1.672A4.558,4.558,0,0,1,433.278,71.375Zm0-1.72a2.3,2.3,0,0,0,1.306-.316,1.77,1.77,0,0,0,.657-1.071,11.79,11.79,0,0,0,0-4.268,1.77,1.77,0,0,0-.657-1.071,2.3,2.3,0,0,0-1.306-.316,2.256,2.256,0,0,0-1.3.316A1.787,1.787,0,0,0,431.331,64a11.79,11.79,0,0,0,0,4.268,1.787,1.787,0,0,0,.649,1.071A2.256,2.256,0,0,0,433.278,69.654Zm11.409,1.72a3.725,3.725,0,0,1-1.761-.341,1.925,1.925,0,0,1-.893-1.136,7.325,7.325,0,0,1-.268-2.24V59.885h-2.045v-1.72h3.911v9.494a3.713,3.713,0,0,0,.227,1.566.851.851,0,0,0,.828.43,1.247,1.247,0,0,0,.625-.195,7.625,7.625,0,0,0,.933-.7l1.039,1.59a4.975,4.975,0,0,1-1.274.8A3.623,3.623,0,0,1,444.687,71.375Zm8.066,0a4.513,4.513,0,0,1-2.378-.536,2.994,2.994,0,0,1-1.25-1.672,12.266,12.266,0,0,1,0-6.07,2.994,2.994,0,0,1,1.25-1.672,5.563,5.563,0,0,1,4.763,0A2.982,2.982,0,0,1,456.4,63.1a12.265,12.265,0,0,1,0,6.07,2.982,2.982,0,0,1-1.258,1.672A4.558,4.558,0,0,1,452.753,71.375Zm0-1.72a2.3,2.3,0,0,0,1.306-.316,1.77,1.77,0,0,0,.657-1.071,11.788,11.788,0,0,0,0-4.268,1.77,1.77,0,0,0-.657-1.071,2.3,2.3,0,0,0-1.306-.316,2.256,2.256,0,0,0-1.3.316A1.787,1.787,0,0,0,450.806,64a11.79,11.79,0,0,0,0,4.268,1.787,1.787,0,0,0,.649,1.071A2.256,2.256,0,0,0,452.753,69.654Zm6.378,1.493V61.118H461v.828A3.568,3.568,0,0,1,462,61.207a2.873,2.873,0,0,1,1.331-.316,4.155,4.155,0,0,1,1.558.252,2.608,2.608,0,0,1,1.063.811,5.481,5.481,0,0,1,.8,1.55l-1.672.763a5.817,5.817,0,0,0-.422-1.055,1.06,1.06,0,0,0-.495-.471,2.162,2.162,0,0,0-.836-.13,1.949,1.949,0,0,0-1.8.868A4.852,4.852,0,0,0,461,66v5.145Zm13.34.227a4.5,4.5,0,0,1-2.629-.674,3.769,3.769,0,0,1-1.379-2.126,14.636,14.636,0,0,1-.422-3.936,14.559,14.559,0,0,1,.422-3.919,3.728,3.728,0,0,1,1.379-2.118,4.545,4.545,0,0,1,2.629-.665,4.961,4.961,0,0,1,1.931.325,2.833,2.833,0,0,1,1.258,1.063,7.076,7.076,0,0,1,.852,2.021l-1.769.617a7.525,7.525,0,0,0-.536-1.453,1.487,1.487,0,0,0-.649-.665,2.569,2.569,0,0,0-1.087-.187,2.36,2.36,0,0,0-1.542.454,2.649,2.649,0,0,0-.787,1.526,14.775,14.775,0,0,0-.235,3,14.881,14.881,0,0,0,.235,3.019,2.692,2.692,0,0,0,.787,1.534,2.331,2.331,0,0,0,1.542.463,2.569,2.569,0,0,0,1.087-.187,1.5,1.5,0,0,0,.649-.649,7.07,7.07,0,0,0,.536-1.42l1.769.6a6.96,6.96,0,0,1-.852,2,2.859,2.859,0,0,1-1.25,1.055A4.949,4.949,0,0,1,472.472,71.375Zm9.494,0a4.513,4.513,0,0,1-2.378-.536,2.994,2.994,0,0,1-1.25-1.672,12.265,12.265,0,0,1,0-6.07,2.994,2.994,0,0,1,1.25-1.672,5.563,5.563,0,0,1,4.763,0,2.982,2.982,0,0,1,1.258,1.672,12.265,12.265,0,0,1,0,6.07,2.982,2.982,0,0,1-1.258,1.672A4.558,4.558,0,0,1,481.966,71.375Zm0-1.72a2.3,2.3,0,0,0,1.306-.316,1.769,1.769,0,0,0,.657-1.071,11.79,11.79,0,0,0,0-4.268,1.769,1.769,0,0,0-.657-1.071,2.3,2.3,0,0,0-1.306-.316,2.256,2.256,0,0,0-1.3.316A1.787,1.787,0,0,0,480.018,64a11.79,11.79,0,0,0,0,4.268,1.787,1.787,0,0,0,.649,1.071A2.256,2.256,0,0,0,481.966,69.654Zm11.409,1.72a3.725,3.725,0,0,1-1.761-.341,1.925,1.925,0,0,1-.893-1.136,7.325,7.325,0,0,1-.268-2.24V59.885h-2.045v-1.72h3.911v9.494a3.713,3.713,0,0,0,.227,1.566.851.851,0,0,0,.828.43A1.247,1.247,0,0,0,494,69.46a7.625,7.625,0,0,0,.933-.7l1.039,1.59a4.975,4.975,0,0,1-1.274.8A3.623,3.623,0,0,1,493.375,71.375Zm9.738,0a3.725,3.725,0,0,1-1.761-.341,1.925,1.925,0,0,1-.893-1.136,7.325,7.325,0,0,1-.268-2.24V59.885h-2.045v-1.72h3.911v9.494a3.713,3.713,0,0,0,.227,1.566.851.851,0,0,0,.828.43,1.247,1.247,0,0,0,.625-.195,7.625,7.625,0,0,0,.933-.7l1.039,1.59a4.974,4.974,0,0,1-1.274.8A3.623,3.623,0,0,1,503.112,71.375Zm9.429-10.257v8.309h2.84v1.72h-7.547v-1.72h2.84V62.838H508.63v-1.72Zm-1.282-1.461a1.636,1.636,0,0,1-1.112-.284,1.975,1.975,0,0,1,0-2.094A1.636,1.636,0,0,1,511.259,57a1.671,1.671,0,0,1,1.12.284,1.931,1.931,0,0,1,0,2.094A1.671,1.671,0,0,1,511.259,59.657Zm9.251,11.717a4.035,4.035,0,0,1-2.134-.487,4.215,4.215,0,0,1-1.42-1.72l1.477-1.217a6.856,6.856,0,0,0,.56,1.087,1.282,1.282,0,0,0,.576.479,2.581,2.581,0,0,0,.941.138,8.151,8.151,0,0,0,1.688-.13,1.251,1.251,0,0,0,.779-.43,1.5,1.5,0,0,0,.211-.868,1.55,1.55,0,0,0-.17-.828,1.049,1.049,0,0,0-.609-.39,10.406,10.406,0,0,0-1.477-.26,6.392,6.392,0,0,1-2.84-.868,2.255,2.255,0,0,1-.876-1.972,3.292,3.292,0,0,1,.406-1.745,2.359,2.359,0,0,1,1.3-.966,7.571,7.571,0,0,1,2.4-.308,4.808,4.808,0,0,1,2.223.422,3.919,3.919,0,0,1,1.444,1.493l-1.363,1.331a5.979,5.979,0,0,0-.617-.974,1.369,1.369,0,0,0-.633-.43,3.56,3.56,0,0,0-1.055-.122,6.507,6.507,0,0,0-1.4.114,1.022,1.022,0,0,0-.657.389,1.468,1.468,0,0,0-.178.8.794.794,0,0,0,.195.584,1.235,1.235,0,0,0,.584.292q.389.1,1.2.211a11.464,11.464,0,0,1,2.394.56,2.4,2.4,0,0,1,1.233.958,3.279,3.279,0,0,1,.381,1.712,3.317,3.317,0,0,1-.446,1.826,2.559,2.559,0,0,1-1.444,1.006A9.106,9.106,0,0,1,520.51,71.375Zm11.507-10.257v8.309h2.84v1.72H527.31v-1.72h2.84V62.838h-2.045v-1.72Zm-1.282-1.461a1.636,1.636,0,0,1-1.112-.284,1.975,1.975,0,0,1,0-2.094A1.636,1.636,0,0,1,530.735,57a1.671,1.671,0,0,1,1.12.284,1.931,1.931,0,0,1,0,2.094A1.671,1.671,0,0,1,530.735,59.657Zm9.656,11.717a4.513,4.513,0,0,1-2.378-.536,2.994,2.994,0,0,1-1.25-1.672,12.267,12.267,0,0,1,0-6.07,2.994,2.994,0,0,1,1.25-1.672,5.563,5.563,0,0,1,4.763,0,2.982,2.982,0,0,1,1.258,1.672,12.265,12.265,0,0,1,0,6.07,2.981,2.981,0,0,1-1.258,1.672A4.558,4.558,0,0,1,540.391,71.375Zm0-1.72a2.3,2.3,0,0,0,1.306-.316,1.77,1.77,0,0,0,.657-1.071,11.79,11.79,0,0,0,0-4.268,1.77,1.77,0,0,0-.657-1.071,2.3,2.3,0,0,0-1.306-.316,2.256,2.256,0,0,0-1.3.316A1.787,1.787,0,0,0,538.443,64a11.79,11.79,0,0,0,0,4.268,1.787,1.787,0,0,0,.649,1.071A2.256,2.256,0,0,0,540.391,69.654Zm5.94,1.493V61.118H548.2v.243a5.655,5.655,0,0,1,2.386-.471,4.827,4.827,0,0,1,2.134.381,2.2,2.2,0,0,1,1.079,1.282,7.8,7.8,0,0,1,.325,2.54v6.053h-1.883V65.094a5.631,5.631,0,0,0-.154-1.5,1.286,1.286,0,0,0-.5-.755,1.83,1.83,0,0,0-1-.227,4.723,4.723,0,0,0-1.55.187,1.071,1.071,0,0,0-.665.657,4.609,4.609,0,0,0-.17,1.461v6.232ZM558,74.329a13.843,13.843,0,0,0,1.144-1.769,2.638,2.638,0,0,0,.316-1.169,1.018,1.018,0,0,1-.844-.292,1.865,1.865,0,0,1-.227-1.087,1.461,1.461,0,0,1,.316-1.079,2.392,2.392,0,0,1,2.321,0,1.461,1.461,0,0,1,.317,1.079,5.215,5.215,0,0,1-.414,2.134,9.253,9.253,0,0,1-1.5,2.183ZM559.866,63.6a1.7,1.7,0,0,1-1.16-.3,1.434,1.434,0,0,1-.316-1.063,1.461,1.461,0,0,1,.316-1.079,2.392,2.392,0,0,1,2.321,0,1.461,1.461,0,0,1,.317,1.079,1.434,1.434,0,0,1-.317,1.063A1.7,1.7,0,0,1,559.866,63.6Zm-441.6,34.942a6.057,6.057,0,0,0,1.623-.17,1.455,1.455,0,0,0,.844-.56,1.947,1.947,0,0,0,.26-1.087,6.463,6.463,0,0,0-.162-1.363,5.061,5.061,0,0,1-.13-.99,2.837,2.837,0,0,1,.422-1.493,5.627,5.627,0,0,1,1.379-1.444,5.653,5.653,0,0,1-1.371-1.469,2.949,2.949,0,0,1-.43-1.534,4.245,4.245,0,0,1,.146-1.006,5.43,5.43,0,0,0,.162-1.25,2.024,2.024,0,0,0-.26-1.112,1.443,1.443,0,0,0-.852-.568,6.152,6.152,0,0,0-1.631-.17V82.589a5.763,5.763,0,0,1,3.5.844,3.167,3.167,0,0,1,1.1,2.678A8.017,8.017,0,0,1,122.7,87.6a6.6,6.6,0,0,0-.13.99,1.856,1.856,0,0,0,.568.99q.568.649,1.834,1.85-1.25,1.168-1.826,1.818a1.873,1.873,0,0,0-.576.958,8.537,8.537,0,0,0,.13,1.1,8.734,8.734,0,0,1,.162,1.461,3.144,3.144,0,0,1-1.1,2.67,5.806,5.806,0,0,1-3.5.836Zm-38.95,26.778a6.057,6.057,0,0,0,1.623-.17,1.455,1.455,0,0,0,.844-.56,1.947,1.947,0,0,0,.26-1.087,6.463,6.463,0,0,0-.162-1.363,5.061,5.061,0,0,1-.13-.99,2.837,2.837,0,0,1,.422-1.493,5.627,5.627,0,0,1,1.379-1.444,5.653,5.653,0,0,1-1.371-1.469,2.949,2.949,0,0,1-.43-1.534A4.245,4.245,0,0,1,81.9,114.2a5.43,5.43,0,0,0,.162-1.25,2.024,2.024,0,0,0-.26-1.112,1.443,1.443,0,0,0-.852-.568,6.152,6.152,0,0,0-1.631-.17v-1.737a5.763,5.763,0,0,1,3.5.844,3.167,3.167,0,0,1,1.1,2.678,8.017,8.017,0,0,1-.162,1.493,6.6,6.6,0,0,0-.13.99,1.856,1.856,0,0,0,.568.99q.568.649,1.834,1.85-1.25,1.168-1.826,1.818a1.873,1.873,0,0,0-.576.958,8.537,8.537,0,0,0,.13,1.1,8.734,8.734,0,0,1,.162,1.461,3.144,3.144,0,0,1-1.1,2.67,5.806,5.806,0,0,1-3.5.836Z" transform="translate(519.637 23572.746)" fill="#12263f"/>
  </g>
</svg>
