<svg id="Layer_2" data-name="Layer 2" xmlns="http://www.w3.org/2000/svg" width="85" height="85" viewBox="0 0 85 85">
  <g id="_6.N_5" data-name="6.N_5">
    <rect id="background" width="85" height="85" rx="42.5" fill="#0fb4f6"/>
    <path id="Trazado_688376" data-name="Trazado 688376" d="M84.719,68.58q-2.507-2.767-7.177-2.767a9.248,9.248,0,0,0-2.468.353,8.6,8.6,0,0,0-2.033.8l.71-6.23H86.173V55.11H67.854L65.923,71.139l5.8,1.357A4.47,4.47,0,0,1,75.5,70.864q4.477,0,4.477,5.008,0,5.409-3.656,5.409a3.482,3.482,0,0,1-2.608-1.009,4.12,4.12,0,0,1-1.1-2.724H65.338a8.085,8.085,0,0,0,1.449,4.781,9.939,9.939,0,0,0,4.047,3.337,12.9,12.9,0,0,0,5.535,1.212,11.9,11.9,0,0,0,5.747-1.314,9.268,9.268,0,0,0,3.777-3.753,11.171,11.171,0,0,0,1.343-5.457Q87.226,71.357,84.719,68.58Z" transform="translate(-33.782 -28.494)" fill="#fff"/>
  </g>
</svg>
